<?xml version="1.0" encoding="UTF-8" standalone="no"?>
<!DOCTYPE svg PUBLIC "-//W3C//DTD SVG 1.1//EN"
 "http://www.w3.org/Graphics/SVG/1.1/DTD/svg11.dtd">
<!-- Generated by graphviz version 2.43.0 (0)
 -->
<!-- Title: /home/runner/work/kynema&#45;sgf/kynema&#45;sgf/src/wind_energy/actuator/disk/ActuatorDisk.H Pages: 1 -->
<svg width="1819pt" height="555pt"
 viewBox="0.00 0.00 1819.48 555.00" xmlns="http://www.w3.org/2000/svg" xmlns:xlink="http://www.w3.org/1999/xlink">
<g id="graph0" class="graph" transform="scale(1 1) rotate(0) translate(4 551)">
<title>/home/runner/work/kynema&#45;sgf/kynema&#45;sgf/src/wind_energy/actuator/disk/ActuatorDisk.H</title>
<!-- Node1 -->
<g id="Node000001" class="node">
<title>Node1</title>
<g id="a_Node000001"><a xlink:title=" ">
<polygon fill="#999999" stroke="#666666" points="1485,-547 1286,-547 1286,-506 1485,-506 1485,-547"/>
<text text-anchor="start" x="1294" y="-535" font-family="Helvetica,sans-Serif" font-size="10.00">/home/runner/work/kynema</text>
<text text-anchor="start" x="1294" y="-524" font-family="Helvetica,sans-Serif" font-size="10.00">&#45;sgf/kynema&#45;sgf/src/wind</text>
<text text-anchor="middle" x="1385.5" y="-513" font-family="Helvetica,sans-Serif" font-size="10.00">_energy/actuator/disk/ActuatorDisk.H</text>
</a>
</g>
</g>
<!-- Node2 -->
<g id="Node000002" class="node">
<title>Node2</title>
<g id="a_Node000002"><a xlink:href="_joukowsky_8_h.html" target="_top" xlink:title=" ">
<polygon fill="white" stroke="#666666" points="1478,-470 1293,-470 1293,-429 1478,-429 1478,-470"/>
<text text-anchor="start" x="1301" y="-458" font-family="Helvetica,sans-Serif" font-size="10.00">/home/runner/work/kynema</text>
<text text-anchor="start" x="1301" y="-447" font-family="Helvetica,sans-Serif" font-size="10.00">&#45;sgf/kynema&#45;sgf/src/wind</text>
<text text-anchor="middle" x="1385.5" y="-436" font-family="Helvetica,sans-Serif" font-size="10.00">_energy/actuator/disk/Joukowsky.H</text>
</a>
</g>
</g>
<!-- Node1&#45;&gt;Node2 -->
<g id="edge1_Node000001_Node000002" class="edge">
<title>Node1&#45;&gt;Node2</title>
<g id="a_edge1_Node000001_Node000002"><a xlink:title=" ">
<path fill="none" stroke="#63b8ff" d="M1385.5,-495.69C1385.5,-487.08 1385.5,-477.9 1385.5,-470.07"/>
<polygon fill="#63b8ff" stroke="#63b8ff" points="1382,-495.79 1385.5,-505.79 1389,-495.79 1382,-495.79"/>
</a>
</g>
</g>
<!-- Node6 -->
<g id="Node000006" class="node">
<title>Node6</title>
<g id="a_Node000006"><a xlink:href="_uniform_ct_8_h.html" target="_top" xlink:title=" ">
<polygon fill="white" stroke="#666666" points="1248.5,-470 1062.5,-470 1062.5,-429 1248.5,-429 1248.5,-470"/>
<text text-anchor="start" x="1070.5" y="-458" font-family="Helvetica,sans-Serif" font-size="10.00">/home/runner/work/kynema</text>
<text text-anchor="start" x="1070.5" y="-447" font-family="Helvetica,sans-Serif" font-size="10.00">&#45;sgf/kynema&#45;sgf/src/wind</text>
<text text-anchor="middle" x="1155.5" y="-436" font-family="Helvetica,sans-Serif" font-size="10.00">_energy/actuator/disk/UniformCt.H</text>
</a>
</g>
</g>
<!-- Node1&#45;&gt;Node6 -->
<g id="edge6_Node000001_Node000006" class="edge">
<title>Node1&#45;&gt;Node6</title>
<g id="a_edge6_Node000001_Node000006"><a xlink:title=" ">
<path fill="none" stroke="#63b8ff" d="M1315.92,-502.81C1283.86,-492.36 1246.2,-480.08 1215.43,-470.04"/>
<polygon fill="#63b8ff" stroke="#63b8ff" points="1315.08,-506.22 1325.67,-505.99 1317.25,-499.56 1315.08,-506.22"/>
</a>
</g>
</g>
<!-- Node20 -->
<g id="Node000020" class="node">
<title>Node20</title>
<g id="a_Node000020"><a xlink:href="disk__ops_8_h.html" target="_top" xlink:title=" ">
<polygon fill="white" stroke="#666666" points="1675,-470 1496,-470 1496,-429 1675,-429 1675,-470"/>
<text text-anchor="start" x="1504" y="-458" font-family="Helvetica,sans-Serif" font-size="10.00">/home/runner/work/kynema</text>
<text text-anchor="start" x="1504" y="-447" font-family="Helvetica,sans-Serif" font-size="10.00">&#45;sgf/kynema&#45;sgf/src/wind</text>
<text text-anchor="middle" x="1585.5" y="-436" font-family="Helvetica,sans-Serif" font-size="10.00">_energy/actuator/disk/disk_ops.H</text>
</a>
</g>
</g>
<!-- Node1&#45;&gt;Node20 -->
<g id="edge24_Node000001_Node000020" class="edge">
<title>Node1&#45;&gt;Node20</title>
<g id="a_edge24_Node000001_Node000020"><a xlink:title=" ">
<path fill="none" stroke="#63b8ff" d="M1447.09,-502.4C1474.73,-492.04 1506.97,-479.95 1533.39,-470.04"/>
<polygon fill="#63b8ff" stroke="#63b8ff" points="1445.66,-499.2 1437.53,-505.99 1448.12,-505.76 1445.66,-499.2"/>
</a>
</g>
</g>
<!-- Node3 -->
<g id="Node000003" class="node">
<title>Node3</title>
<g id="a_Node000003"><a xlink:href="_actuator_disk_8cpp.html" target="_top" xlink:title=" ">
<polygon fill="white" stroke="#666666" points="1380,-134.5 1171,-134.5 1171,-93.5 1380,-93.5 1380,-134.5"/>
<text text-anchor="start" x="1179" y="-122.5" font-family="Helvetica,sans-Serif" font-size="10.00">/home/runner/work/kynema</text>
<text text-anchor="start" x="1179" y="-111.5" font-family="Helvetica,sans-Serif" font-size="10.00">&#45;sgf/kynema&#45;sgf/src/wind</text>
<text text-anchor="middle" x="1275.5" y="-100.5" font-family="Helvetica,sans-Serif" font-size="10.00">_energy/actuator/disk/ActuatorDisk.cpp</text>
</a>
</g>
</g>
<!-- Node2&#45;&gt;Node3 -->
<g id="edge2_Node000002_Node000003" class="edge">
<title>Node2&#45;&gt;Node3</title>
<g id="a_edge2_Node000002_Node000003"><a xlink:title=" ">
<path fill="none" stroke="#63b8ff" d="M1386.98,-418.79C1387.96,-379.63 1386.35,-309.13 1366.5,-253 1350.04,-206.46 1314.62,-160.16 1293.15,-134.79"/>
<polygon fill="#63b8ff" stroke="#63b8ff" points="1383.48,-418.86 1386.65,-428.97 1390.47,-419.09 1383.48,-418.86"/>
</a>
</g>
</g>
<!-- Node4 -->
<g id="Node000004" class="node">
<title>Node4</title>
<g id="a_Node000004"><a xlink:href="_joukowsky__ops_8_h.html" target="_top" xlink:title=" ">
<polygon fill="white" stroke="#666666" points="1623,-387.5 1414,-387.5 1414,-346.5 1623,-346.5 1623,-387.5"/>
<text text-anchor="start" x="1422" y="-375.5" font-family="Helvetica,sans-Serif" font-size="10.00">/home/runner/work/kynema</text>
<text text-anchor="start" x="1422" y="-364.5" font-family="Helvetica,sans-Serif" font-size="10.00">&#45;sgf/kynema&#45;sgf/src/wind</text>
<text text-anchor="middle" x="1518.5" y="-353.5" font-family="Helvetica,sans-Serif" font-size="10.00">_energy/actuator/disk/Joukowsky_ops.H</text>
</a>
</g>
</g>
<!-- Node2&#45;&gt;Node4 -->
<g id="edge3_Node000002_Node000004" class="edge">
<title>Node2&#45;&gt;Node4</title>
<g id="a_edge3_Node000002_Node000004"><a xlink:title=" ">
<path fill="none" stroke="#63b8ff" d="M1426.79,-423.51C1445.8,-412 1468.03,-398.55 1485.84,-387.77"/>
<polygon fill="#63b8ff" stroke="#63b8ff" points="1424.78,-420.64 1418.04,-428.81 1428.4,-426.62 1424.78,-420.64"/>
</a>
</g>
</g>
<!-- Node4&#45;&gt;Node3 -->
<g id="edge4_Node000004_Node000003" class="edge">
<title>Node4&#45;&gt;Node3</title>
<g id="a_edge4_Node000004_Node000003"><a xlink:title=" ">
<path fill="none" stroke="#63b8ff" d="M1506.5,-336.96C1488.5,-296.39 1451.02,-222.5 1399.5,-176 1379.82,-158.24 1354.03,-144.44 1331.06,-134.5"/>
<polygon fill="#63b8ff" stroke="#63b8ff" points="1503.36,-338.51 1510.56,-346.29 1509.78,-335.72 1503.36,-338.51"/>
</a>
</g>
</g>
<!-- Node5 -->
<g id="Node000005" class="node">
<title>Node5</title>
<g id="a_Node000005"><a xlink:href="_joukowsky__ops_8cpp.html" target="_top" xlink:title=" ">
<polygon fill="white" stroke="#666666" points="1768.5,-305 1592.5,-305 1592.5,-253 1768.5,-253 1768.5,-305"/>
<text text-anchor="start" x="1600.5" y="-293" font-family="Helvetica,sans-Serif" font-size="10.00">/home/runner/work/kynema</text>
<text text-anchor="start" x="1600.5" y="-282" font-family="Helvetica,sans-Serif" font-size="10.00">&#45;sgf/kynema&#45;sgf/src/wind</text>
<text text-anchor="start" x="1600.5" y="-271" font-family="Helvetica,sans-Serif" font-size="10.00">_energy/actuator/disk/Joukowsky</text>
<text text-anchor="middle" x="1680.5" y="-260" font-family="Helvetica,sans-Serif" font-size="10.00">_ops.cpp</text>
</a>
</g>
</g>
<!-- Node4&#45;&gt;Node5 -->
<g id="edge5_Node000004_Node000005" class="edge">
<title>Node4&#45;&gt;Node5</title>
<g id="a_edge5_Node000004_Node000005"><a xlink:title=" ">
<path fill="none" stroke="#63b8ff" d="M1564.21,-341.74C1585.73,-330.31 1611.38,-316.69 1633.11,-305.16"/>
<polygon fill="#63b8ff" stroke="#63b8ff" points="1562.45,-338.7 1555.26,-346.49 1565.73,-344.89 1562.45,-338.7"/>
</a>
</g>
</g>
<!-- Node6&#45;&gt;Node3 -->
<g id="edge7_Node000006_Node000003" class="edge">
<title>Node6&#45;&gt;Node3</title>
<g id="a_edge7_Node000006_Node000003"><a xlink:title=" ">
<path fill="none" stroke="#63b8ff" d="M1152.04,-418.77C1147.39,-365.2 1144.94,-251.08 1196.5,-176 1207.98,-159.29 1225.46,-145.11 1241.07,-134.64"/>
<polygon fill="#63b8ff" stroke="#63b8ff" points="1148.57,-419.32 1153.01,-428.94 1155.54,-418.66 1148.57,-419.32"/>
</a>
</g>
</g>
<!-- Node7 -->
<g id="Node000007" class="node">
<title>Node7</title>
<g id="a_Node000007"><a xlink:href="disk__spreading_8_h.html" target="_top" xlink:title=" ">
<polygon fill="white" stroke="#666666" points="1099,-393 948,-393 948,-341 1099,-341 1099,-393"/>
<text text-anchor="start" x="956" y="-381" font-family="Helvetica,sans-Serif" font-size="10.00">/home/runner/work/kynema</text>
<text text-anchor="start" x="956" y="-370" font-family="Helvetica,sans-Serif" font-size="10.00">&#45;sgf/kynema&#45;sgf/src/wind</text>
<text text-anchor="start" x="956" y="-359" font-family="Helvetica,sans-Serif" font-size="10.00">_energy/actuator/disk/disk</text>
<text text-anchor="middle" x="1023.5" y="-348" font-family="Helvetica,sans-Serif" font-size="10.00">_spreading.H</text>
</a>
</g>
</g>
<!-- Node6&#45;&gt;Node7 -->
<g id="edge8_Node000006_Node000007" class="edge">
<title>Node6&#45;&gt;Node7</title>
<g id="a_edge8_Node000006_Node000007"><a xlink:title=" ">
<path fill="none" stroke="#63b8ff" d="M1114.25,-423.34C1098.55,-413.77 1080.67,-402.86 1064.95,-393.28"/>
<polygon fill="#63b8ff" stroke="#63b8ff" points="1112.85,-426.59 1123.21,-428.81 1116.49,-420.61 1112.85,-426.59"/>
</a>
</g>
</g>
<!-- Node18 -->
<g id="Node000018" class="node">
<title>Node18</title>
<g id="a_Node000018"><a xlink:href="uniform__ct__ops_8_h.html" target="_top" xlink:title=" ">
<polygon fill="white" stroke="#666666" points="1338.5,-393 1174.5,-393 1174.5,-341 1338.5,-341 1338.5,-393"/>
<text text-anchor="start" x="1182.5" y="-381" font-family="Helvetica,sans-Serif" font-size="10.00">/home/runner/work/kynema</text>
<text text-anchor="start" x="1182.5" y="-370" font-family="Helvetica,sans-Serif" font-size="10.00">&#45;sgf/kynema&#45;sgf/src/wind</text>
<text text-anchor="start" x="1182.5" y="-359" font-family="Helvetica,sans-Serif" font-size="10.00">_energy/actuator/disk/uniform</text>
<text text-anchor="middle" x="1256.5" y="-348" font-family="Helvetica,sans-Serif" font-size="10.00">_ct_ops.H</text>
</a>
</g>
</g>
<!-- Node6&#45;&gt;Node18 -->
<g id="edge21_Node000006_Node000018" class="edge">
<title>Node6&#45;&gt;Node18</title>
<g id="a_edge21_Node000006_Node000018"><a xlink:title=" ">
<path fill="none" stroke="#63b8ff" d="M1188.08,-422.54C1199.84,-413.16 1213.1,-402.59 1224.79,-393.28"/>
<polygon fill="#63b8ff" stroke="#63b8ff" points="1185.85,-419.84 1180.21,-428.81 1190.21,-425.31 1185.85,-419.84"/>
</a>
</g>
</g>
<!-- Node7&#45;&gt;Node3 -->
<g id="edge20_Node000007_Node000003" class="edge">
<title>Node7&#45;&gt;Node3</title>
<g id="a_edge20_Node000007_Node000003"><a xlink:title=" ">
<path fill="none" stroke="#63b8ff" d="M1047.97,-332.57C1053.79,-323.83 1059.71,-314.27 1064.5,-305 1092.68,-250.53 1070.07,-219.3 1113.5,-176 1132.65,-156.9 1158.36,-143.69 1183.65,-134.59"/>
<polygon fill="#63b8ff" stroke="#63b8ff" points="1044.97,-330.75 1042.21,-340.98 1050.75,-334.7 1044.97,-330.75"/>
</a>
</g>
</g>
<!-- Node8 -->
<g id="Node000008" class="node">
<title>Node8</title>
<g id="a_Node000008"><a xlink:href="_act_src_disk_op_8_h.html" target="_top" xlink:title=" ">
<polygon fill="white" stroke="#666666" points="1055.5,-299.5 853.5,-299.5 853.5,-258.5 1055.5,-258.5 1055.5,-299.5"/>
<text text-anchor="start" x="861.5" y="-287.5" font-family="Helvetica,sans-Serif" font-size="10.00">/home/runner/work/kynema</text>
<text text-anchor="start" x="861.5" y="-276.5" font-family="Helvetica,sans-Serif" font-size="10.00">&#45;sgf/kynema&#45;sgf/src/wind</text>
<text text-anchor="middle" x="954.5" y="-265.5" font-family="Helvetica,sans-Serif" font-size="10.00">_energy/actuator/disk/ActSrcDiskOp.H</text>
</a>
</g>
</g>
<!-- Node7&#45;&gt;Node8 -->
<g id="edge9_Node000007_Node000008" class="edge">
<title>Node7&#45;&gt;Node8</title>
<g id="a_edge9_Node000007_Node000008"><a xlink:title=" ">
<path fill="none" stroke="#63b8ff" d="M996.82,-332.74C987.86,-321.58 978.16,-309.49 970.31,-299.7"/>
<polygon fill="#63b8ff" stroke="#63b8ff" points="994.18,-335.05 1003.17,-340.66 999.64,-330.67 994.18,-335.05"/>
</a>
</g>
</g>
<!-- Node9 -->
<g id="Node000009" class="node">
<title>Node9</title>
<g id="a_Node000009"><a xlink:href="_actuator_model_8_h.html" target="_top" xlink:title=" ">
<polygon fill="white" stroke="#666666" points="934.5,-217 750.5,-217 750.5,-176 934.5,-176 934.5,-217"/>
<text text-anchor="start" x="758.5" y="-205" font-family="Helvetica,sans-Serif" font-size="10.00">/home/runner/work/kynema</text>
<text text-anchor="start" x="758.5" y="-194" font-family="Helvetica,sans-Serif" font-size="10.00">&#45;sgf/kynema&#45;sgf/src/wind</text>
<text text-anchor="middle" x="842.5" y="-183" font-family="Helvetica,sans-Serif" font-size="10.00">_energy/actuator/ActuatorModel.H</text>
</a>
</g>
</g>
<!-- Node8&#45;&gt;Node9 -->
<g id="edge10_Node000008_Node000009" class="edge">
<title>Node8&#45;&gt;Node9</title>
<g id="a_edge10_Node000008_Node000009"><a xlink:title=" ">
<path fill="none" stroke="#63b8ff" d="M918.64,-252.22C902.88,-240.9 884.66,-227.81 870,-217.27"/>
<polygon fill="#63b8ff" stroke="#63b8ff" points="916.94,-255.31 927.1,-258.31 921.02,-249.63 916.94,-255.31"/>
</a>
</g>
</g>
<!-- Node9&#45;&gt;Node3 -->
<g id="edge15_Node000009_Node000003" class="edge">
<title>Node9&#45;&gt;Node3</title>
<g id="a_edge15_Node000009_Node000003"><a xlink:title=" ">
<path fill="none" stroke="#63b8ff" d="M944.72,-178.88C1007.41,-168.4 1089.25,-154.2 1161.5,-140 1170.25,-138.28 1179.36,-136.41 1188.44,-134.5"/>
<polygon fill="#63b8ff" stroke="#63b8ff" points="944.12,-175.43 934.83,-180.53 945.27,-182.34 944.12,-175.43"/>
</a>
</g>
</g>
<!-- Node10 -->
<g id="Node000010" class="node">
<title>Node10</title>
<g id="a_Node000010"><a xlink:href="_actuator_8_h.html" target="_top" xlink:title=" ">
<polygon fill="white" stroke="#666666" points="335,-134.5 182,-134.5 182,-93.5 335,-93.5 335,-134.5"/>
<text text-anchor="start" x="190" y="-122.5" font-family="Helvetica,sans-Serif" font-size="10.00">/home/runner/work/kynema</text>
<text text-anchor="start" x="190" y="-111.5" font-family="Helvetica,sans-Serif" font-size="10.00">&#45;sgf/kynema&#45;sgf/src/wind</text>
<text text-anchor="middle" x="258.5" y="-100.5" font-family="Helvetica,sans-Serif" font-size="10.00">_energy/actuator/Actuator.H</text>
</a>
</g>
</g>
<!-- Node9&#45;&gt;Node10 -->
<g id="edge11_Node000009_Node000010" class="edge">
<title>Node9&#45;&gt;Node10</title>
<g id="a_edge11_Node000009_Node000010"><a xlink:title=" ">
<path fill="none" stroke="#63b8ff" d="M740,-189.37C638.55,-182.07 479.2,-167.28 343.5,-140 335.96,-138.48 328.12,-136.61 320.39,-134.57"/>
<polygon fill="#63b8ff" stroke="#63b8ff" points="740.02,-192.88 750.24,-190.1 740.52,-185.9 740.02,-192.88"/>
</a>
</g>
</g>
<!-- Node14 -->
<g id="Node000014" class="node">
<title>Node14</title>
<g id="a_Node000014"><a xlink:href="_turbine_fast_8cpp.html" target="_top" xlink:title=" ">
<polygon fill="white" stroke="#666666" points="504,-140 353,-140 353,-88 504,-88 504,-140"/>
<text text-anchor="start" x="361" y="-128" font-family="Helvetica,sans-Serif" font-size="10.00">/home/runner/work/kynema</text>
<text text-anchor="start" x="361" y="-117" font-family="Helvetica,sans-Serif" font-size="10.00">&#45;sgf/kynema&#45;sgf/src/wind</text>
<text text-anchor="start" x="361" y="-106" font-family="Helvetica,sans-Serif" font-size="10.00">_energy/actuator/turbine</text>
<text text-anchor="middle" x="428.5" y="-95" font-family="Helvetica,sans-Serif" font-size="10.00">/fast/TurbineFast.cpp</text>
</a>
</g>
</g>
<!-- Node9&#45;&gt;Node14 -->
<g id="edge16_Node000009_Node000014" class="edge">
<title>Node9&#45;&gt;Node14</title>
<g id="a_edge16_Node000009_Node000014"><a xlink:title=" ">
<path fill="none" stroke="#63b8ff" d="M740.16,-181.44C674.91,-171.69 588.78,-157.35 513.5,-140 510.5,-139.31 507.45,-138.57 504.38,-137.8"/>
<polygon fill="#63b8ff" stroke="#63b8ff" points="740.04,-184.96 750.45,-182.97 741.07,-178.04 740.04,-184.96"/>
</a>
</g>
</g>
<!-- Node15 -->
<g id="Node000015" class="node">
<title>Node15</title>
<g id="a_Node000015"><a xlink:href="_turbine_kynema_f_m_b_8cpp.html" target="_top" xlink:title=" ">
<polygon fill="white" stroke="#666666" points="725,-140 522,-140 522,-88 725,-88 725,-140"/>
<text text-anchor="start" x="530" y="-128" font-family="Helvetica,sans-Serif" font-size="10.00">/home/runner/work/kynema</text>
<text text-anchor="start" x="530" y="-117" font-family="Helvetica,sans-Serif" font-size="10.00">&#45;sgf/kynema&#45;sgf/src/wind</text>
<text text-anchor="start" x="530" y="-106" font-family="Helvetica,sans-Serif" font-size="10.00">_energy/actuator/turbine</text>
<text text-anchor="middle" x="623.5" y="-95" font-family="Helvetica,sans-Serif" font-size="10.00">/kynema_fmb/TurbineKynemaFMB.cpp</text>
</a>
</g>
</g>
<!-- Node9&#45;&gt;Node15 -->
<g id="edge17_Node000009_Node000015" class="edge">
<title>Node9&#45;&gt;Node15</title>
<g id="a_edge17_Node000009_Node000015"><a xlink:title=" ">
<path fill="none" stroke="#63b8ff" d="M779.68,-172.41C752.13,-162.28 719.74,-150.38 691.62,-140.04"/>
<polygon fill="#63b8ff" stroke="#63b8ff" points="778.61,-175.75 789.21,-175.91 781.03,-169.18 778.61,-175.75"/>
</a>
</g>
</g>
<!-- Node16 -->
<g id="Node000016" class="node">
<title>Node16</title>
<g id="a_Node000016"><a xlink:href="_fixed_wing_8cpp.html" target="_top" xlink:title=" ">
<polygon fill="white" stroke="#666666" points="942,-134.5 743,-134.5 743,-93.5 942,-93.5 942,-134.5"/>
<text text-anchor="start" x="751" y="-122.5" font-family="Helvetica,sans-Serif" font-size="10.00">/home/runner/work/kynema</text>
<text text-anchor="start" x="751" y="-111.5" font-family="Helvetica,sans-Serif" font-size="10.00">&#45;sgf/kynema&#45;sgf/src/wind</text>
<text text-anchor="middle" x="842.5" y="-100.5" font-family="Helvetica,sans-Serif" font-size="10.00">_energy/actuator/wing/FixedWing.cpp</text>
</a>
</g>
</g>
<!-- Node9&#45;&gt;Node16 -->
<g id="edge18_Node000009_Node000016" class="edge">
<title>Node9&#45;&gt;Node16</title>
<g id="a_edge18_Node000009_Node000016"><a xlink:title=" ">
<path fill="none" stroke="#63b8ff" d="M842.5,-165.37C842.5,-155.1 842.5,-143.9 842.5,-134.67"/>
<polygon fill="#63b8ff" stroke="#63b8ff" points="839,-165.6 842.5,-175.6 846,-165.6 839,-165.6"/>
</a>
</g>
</g>
<!-- Node17 -->
<g id="Node000017" class="node">
<title>Node17</title>
<g id="a_Node000017"><a xlink:href="_flat_plate_8cpp.html" target="_top" xlink:title=" ">
<polygon fill="white" stroke="#666666" points="1152.5,-134.5 960.5,-134.5 960.5,-93.5 1152.5,-93.5 1152.5,-134.5"/>
<text text-anchor="start" x="968.5" y="-122.5" font-family="Helvetica,sans-Serif" font-size="10.00">/home/runner/work/kynema</text>
<text text-anchor="start" x="968.5" y="-111.5" font-family="Helvetica,sans-Serif" font-size="10.00">&#45;sgf/kynema&#45;sgf/src/wind</text>
<text text-anchor="middle" x="1056.5" y="-100.5" font-family="Helvetica,sans-Serif" font-size="10.00">_energy/actuator/wing/FlatPlate.cpp</text>
</a>
</g>
</g>
<!-- Node9&#45;&gt;Node17 -->
<g id="edge19_Node000009_Node000017" class="edge">
<title>Node9&#45;&gt;Node17</title>
<g id="a_edge19_Node000009_Node000017"><a xlink:title=" ">
<path fill="none" stroke="#63b8ff" d="M904.21,-172.29C936,-160.33 974.31,-145.92 1004.56,-134.54"/>
<polygon fill="#63b8ff" stroke="#63b8ff" points="902.7,-169.11 894.58,-175.91 905.17,-175.67 902.7,-169.11"/>
</a>
</g>
</g>
<!-- Node11 -->
<g id="Node000011" class="node">
<title>Node11</title>
<g id="a_Node000011"><a xlink:href="_actuator_forcing_8cpp.html" target="_top" xlink:title=" ">
<polygon fill="white" stroke="#666666" points="159,-52 0,-52 0,0 159,0 159,-52"/>
<text text-anchor="start" x="8" y="-40" font-family="Helvetica,sans-Serif" font-size="10.00">/home/runner/work/kynema</text>
<text text-anchor="start" x="8" y="-29" font-family="Helvetica,sans-Serif" font-size="10.00">&#45;sgf/kynema&#45;sgf/src/equation</text>
<text text-anchor="start" x="8" y="-18" font-family="Helvetica,sans-Serif" font-size="10.00">_systems/icns/source_terms</text>
<text text-anchor="middle" x="79.5" y="-7" font-family="Helvetica,sans-Serif" font-size="10.00">/ActuatorForcing.cpp</text>
</a>
</g>
</g>
<!-- Node10&#45;&gt;Node11 -->
<g id="edge12_Node000010_Node000011" class="edge">
<title>Node10&#45;&gt;Node11</title>
<g id="a_edge12_Node000010_Node000011"><a xlink:title=" ">
<path fill="none" stroke="#63b8ff" d="M208.63,-89.04C184.72,-77.55 156.09,-63.8 131.86,-52.16"/>
<polygon fill="#63b8ff" stroke="#63b8ff" points="207.35,-92.31 217.88,-93.49 210.38,-86 207.35,-92.31"/>
</a>
</g>
</g>
<!-- Node12 -->
<g id="Node000012" class="node">
<title>Node12</title>
<g id="a_Node000012"><a xlink:href="_actuator_8cpp.html" target="_top" xlink:title=" ">
<polygon fill="white" stroke="#666666" points="340,-46.5 177,-46.5 177,-5.5 340,-5.5 340,-46.5"/>
<text text-anchor="start" x="185" y="-34.5" font-family="Helvetica,sans-Serif" font-size="10.00">/home/runner/work/kynema</text>
<text text-anchor="start" x="185" y="-23.5" font-family="Helvetica,sans-Serif" font-size="10.00">&#45;sgf/kynema&#45;sgf/src/wind</text>
<text text-anchor="middle" x="258.5" y="-12.5" font-family="Helvetica,sans-Serif" font-size="10.00">_energy/actuator/Actuator.cpp</text>
</a>
</g>
</g>
<!-- Node10&#45;&gt;Node12 -->
<g id="edge13_Node000010_Node000012" class="edge">
<title>Node10&#45;&gt;Node12</title>
<g id="a_edge13_Node000010_Node000012"><a xlink:title=" ">
<path fill="none" stroke="#63b8ff" d="M258.5,-83.36C258.5,-71.26 258.5,-57.58 258.5,-46.74"/>
<polygon fill="#63b8ff" stroke="#63b8ff" points="255,-83.49 258.5,-93.49 262,-83.49 255,-83.49"/>
</a>
</g>
</g>
<!-- Node13 -->
<g id="Node000013" class="node">
<title>Node13</title>
<g id="a_Node000013"><a xlink:href="_actuator_container_8cpp.html" target="_top" xlink:title=" ">
<polygon fill="white" stroke="#666666" points="568.5,-46.5 358.5,-46.5 358.5,-5.5 568.5,-5.5 568.5,-46.5"/>
<text text-anchor="start" x="366.5" y="-34.5" font-family="Helvetica,sans-Serif" font-size="10.00">/home/runner/work/kynema</text>
<text text-anchor="start" x="366.5" y="-23.5" font-family="Helvetica,sans-Serif" font-size="10.00">&#45;sgf/kynema&#45;sgf/src/wind</text>
<text text-anchor="middle" x="463.5" y="-12.5" font-family="Helvetica,sans-Serif" font-size="10.00">_energy/actuator/ActuatorContainer.cpp</text>
</a>
</g>
</g>
<!-- Node10&#45;&gt;Node13 -->
<g id="edge14_Node000010_Node000013" class="edge">
<title>Node10&#45;&gt;Node13</title>
<g id="a_edge14_Node000010_Node000013"><a xlink:title=" ">
<path fill="none" stroke="#63b8ff" d="M314.29,-89.6C346.42,-76.12 386.35,-59.37 416.81,-46.59"/>
<polygon fill="#63b8ff" stroke="#63b8ff" points="312.89,-86.39 305.02,-93.49 315.59,-92.84 312.89,-86.39"/>
</a>
</g>
</g>
<!-- Node18&#45;&gt;Node3 -->
<g id="edge22_Node000018_Node000003" class="edge">
<title>Node18&#45;&gt;Node3</title>
<g id="a_edge22_Node000018_Node000003"><a xlink:title=" ">
<path fill="none" stroke="#63b8ff" d="M1206.88,-334.1C1197.81,-325.79 1189.61,-316.03 1184.5,-305 1174.78,-284.03 1177.86,-275.14 1184.5,-253 1198.69,-205.72 1234.89,-159.68 1257.12,-134.55"/>
<polygon fill="#63b8ff" stroke="#63b8ff" points="1204.77,-336.9 1214.65,-340.72 1209.31,-331.57 1204.77,-336.9"/>
</a>
</g>
</g>
<!-- Node19 -->
<g id="Node000019" class="node">
<title>Node19</title>
<g id="a_Node000019"><a xlink:href="uniform__ct__ops_8cpp.html" target="_top" xlink:title=" ">
<polygon fill="white" stroke="#666666" points="1357.5,-305 1193.5,-305 1193.5,-253 1357.5,-253 1357.5,-305"/>
<text text-anchor="start" x="1201.5" y="-293" font-family="Helvetica,sans-Serif" font-size="10.00">/home/runner/work/kynema</text>
<text text-anchor="start" x="1201.5" y="-282" font-family="Helvetica,sans-Serif" font-size="10.00">&#45;sgf/kynema&#45;sgf/src/wind</text>
<text text-anchor="start" x="1201.5" y="-271" font-family="Helvetica,sans-Serif" font-size="10.00">_energy/actuator/disk/uniform</text>
<text text-anchor="middle" x="1275.5" y="-260" font-family="Helvetica,sans-Serif" font-size="10.00">_ct_ops.cpp</text>
</a>
</g>
</g>
<!-- Node18&#45;&gt;Node19 -->
<g id="edge23_Node000018_Node000019" class="edge">
<title>Node18&#45;&gt;Node19</title>
<g id="a_edge23_Node000018_Node000019"><a xlink:title=" ">
<path fill="none" stroke="#63b8ff" d="M1264.27,-330.84C1266.17,-322.23 1268.17,-313.19 1269.94,-305.16"/>
<polygon fill="#63b8ff" stroke="#63b8ff" points="1260.84,-330.14 1262.1,-340.66 1267.67,-331.65 1260.84,-330.14"/>
</a>
</g>
</g>
<!-- Node20&#45;&gt;Node4 -->
<g id="edge25_Node000020_Node000004" class="edge">
<title>Node20&#45;&gt;Node4</title>
<g id="a_edge25_Node000020_Node000004"><a xlink:title=" ">
<path fill="none" stroke="#63b8ff" d="M1562.29,-420.62C1553.26,-409.76 1543.12,-397.58 1534.87,-387.67"/>
<polygon fill="#63b8ff" stroke="#63b8ff" points="1559.85,-423.15 1568.94,-428.6 1565.23,-418.68 1559.85,-423.15"/>
</a>
</g>
</g>
<!-- Node20&#45;&gt;Node5 -->
<g id="edge26_Node000020_Node000005" class="edge">
<title>Node20&#45;&gt;Node5</title>
<g id="a_edge26_Node000020_Node000005"><a xlink:title=" ">
<path fill="none" stroke="#63b8ff" d="M1685.22,-434.87C1734.52,-425.88 1786.63,-412.18 1801.5,-393 1815.66,-374.74 1813.62,-360.68 1801.5,-341 1792,-325.58 1777.27,-313.91 1761.31,-305.14"/>
<polygon fill="#63b8ff" stroke="#63b8ff" points="1684.32,-431.48 1675.08,-436.67 1685.54,-438.37 1684.32,-431.48"/>
</a>
</g>
</g>
<!-- Node20&#45;&gt;Node18 -->
<g id="edge28_Node000020_Node000018" class="edge">
<title>Node20&#45;&gt;Node18</title>
<g id="a_edge28_Node000020_Node000018"><a xlink:title=" ">
<path fill="none" stroke="#63b8ff" d="M1495.48,-426.47C1446.5,-414.49 1386.34,-399.77 1338.64,-388.1"/>
<polygon fill="#63b8ff" stroke="#63b8ff" points="1494.89,-429.93 1505.44,-428.91 1496.56,-423.13 1494.89,-429.93"/>
</a>
</g>
</g>
<!-- Node21 -->
<g id="Node000021" class="node">
<title>Node21</title>
<g id="a_Node000021"><a xlink:href="disk__ops_8cpp.html" target="_top" xlink:title=" ">
<polygon fill="white" stroke="#666666" points="1792,-393 1641,-393 1641,-341 1792,-341 1792,-393"/>
<text text-anchor="start" x="1649" y="-381" font-family="Helvetica,sans-Serif" font-size="10.00">/home/runner/work/kynema</text>
<text text-anchor="start" x="1649" y="-370" font-family="Helvetica,sans-Serif" font-size="10.00">&#45;sgf/kynema&#45;sgf/src/wind</text>
<text text-anchor="start" x="1649" y="-359" font-family="Helvetica,sans-Serif" font-size="10.00">_energy/actuator/disk/disk</text>
<text text-anchor="middle" x="1716.5" y="-348" font-family="Helvetica,sans-Serif" font-size="10.00">_ops.cpp</text>
</a>
</g>
</g>
<!-- Node20&#45;&gt;Node21 -->
<g id="edge27_Node000020_Node000021" class="edge">
<title>Node20&#45;&gt;Node21</title>
<g id="a_edge27_Node000020_Node000021"><a xlink:title=" ">
<path fill="none" stroke="#63b8ff" d="M1626.44,-423.34C1642.02,-413.77 1659.77,-402.86 1675.37,-393.28"/>
<polygon fill="#63b8ff" stroke="#63b8ff" points="1624.23,-420.59 1617.55,-428.81 1627.9,-426.55 1624.23,-420.59"/>
</a>
</g>
</g>
</g>
</svg>
