<?xml version="1.0" encoding="UTF-8" standalone="no"?>
<!DOCTYPE svg PUBLIC "-//W3C//DTD SVG 1.1//EN"
 "http://www.w3.org/Graphics/SVG/1.1/DTD/svg11.dtd">
<!-- Generated by graphviz version 2.43.0 (0)
 -->
<!-- Title: /home/runner/work/kynema&#45;sgf/kynema&#45;sgf/src/wind_energy/actuator/sector/ActuatorSector.H Pages: 1 -->
<svg width="1258pt" height="489pt"
 viewBox="0.00 0.00 1258.14 489.00" xmlns="http://www.w3.org/2000/svg" xmlns:xlink="http://www.w3.org/1999/xlink">
<g id="graph0" class="graph" transform="scale(1 1) rotate(0) translate(4 485)">
<title>/home/runner/work/kynema&#45;sgf/kynema&#45;sgf/src/wind_energy/actuator/sector/ActuatorSector.H</title>
<!-- Node1 -->
<g id="Node000001" class="node">
<title>Node1</title>
<g id="a_Node000001"><a xlink:title=" ">
<polygon fill="#999999" stroke="#666666" points="1126.5,-481 950.5,-481 950.5,-429 1126.5,-429 1126.5,-481"/>
<text text-anchor="start" x="958.5" y="-469" font-family="Helvetica,sans-Serif" font-size="10.00">/home/runner/work/kynema</text>
<text text-anchor="start" x="958.5" y="-458" font-family="Helvetica,sans-Serif" font-size="10.00">&#45;sgf/kynema&#45;sgf/src/wind</text>
<text text-anchor="start" x="958.5" y="-447" font-family="Helvetica,sans-Serif" font-size="10.00">_energy/actuator/sector/Actuator</text>
<text text-anchor="middle" x="1038.5" y="-436" font-family="Helvetica,sans-Serif" font-size="10.00">Sector.H</text>
</a>
</g>
</g>
<!-- Node2 -->
<g id="Node000002" class="node">
<title>Node2</title>
<g id="a_Node000002"><a xlink:href="actuator__types_8_h.html" target="_top" xlink:title=" ">
<polygon fill="white" stroke="#666666" points="762.5,-327 622.5,-327 622.5,-297 762.5,-297 762.5,-327"/>
<text text-anchor="start" x="630.5" y="-315" font-family="Helvetica,sans-Serif" font-size="10.00">src/wind_energy/actuator</text>
<text text-anchor="middle" x="692.5" y="-304" font-family="Helvetica,sans-Serif" font-size="10.00">/actuator_types.H</text>
</a>
</g>
</g>
<!-- Node1&#45;&gt;Node2 -->
<g id="edge1_Node000001_Node000002" class="edge">
<title>Node1&#45;&gt;Node2</title>
<g id="a_edge1_Node000001_Node000002"><a xlink:title=" ">
<path fill="none" stroke="#63b8ff" d="M968.33,-428.92C939.16,-418.23 905.05,-405.38 874.5,-393 825.17,-373 769.23,-348.07 732.54,-331.4"/>
<polygon fill="#63b8ff" stroke="#63b8ff" points="733.73,-328.1 723.18,-327.14 730.83,-334.47 733.73,-328.1"/>
</a>
</g>
</g>
<!-- Node18 -->
<g id="Node000018" class="node">
<title>Node18</title>
<g id="a_Node000018"><a xlink:title=" ">
<polygon fill="#e0e0e0" stroke="#999999" points="849.5,-19 757.5,-19 757.5,0 849.5,0 849.5,-19"/>
<text text-anchor="middle" x="803.5" y="-7" font-family="Helvetica,sans-Serif" font-size="10.00">AMReX_REAL.H</text>
</a>
</g>
</g>
<!-- Node1&#45;&gt;Node18 -->
<g id="edge42_Node000001_Node000018" class="edge">
<title>Node1&#45;&gt;Node18</title>
<g id="a_edge42_Node000001_Node000018"><a xlink:title=" ">
<path fill="none" stroke="#63b8ff" d="M982.22,-428.84C939.66,-405.54 888.5,-366.43 888.5,-313 888.5,-313 888.5,-313 888.5,-129.5 888.5,-85.02 848.69,-45.69 823.56,-25.29"/>
<polygon fill="#63b8ff" stroke="#63b8ff" points="825.71,-22.53 815.68,-19.12 821.39,-28.04 825.71,-22.53"/>
</a>
</g>
</g>
<!-- Node22 -->
<g id="Node000022" class="node">
<title>Node22</title>
<g id="a_Node000022"><a xlink:href="_airfoil_table_8_h.html" target="_top" xlink:title=" ">
<polygon fill="white" stroke="#666666" points="1108.5,-393 968.5,-393 968.5,-363 1108.5,-363 1108.5,-393"/>
<text text-anchor="start" x="976.5" y="-381" font-family="Helvetica,sans-Serif" font-size="10.00">src/wind_energy/actuator</text>
<text text-anchor="middle" x="1038.5" y="-370" font-family="Helvetica,sans-Serif" font-size="10.00">/aero/AirfoilTable.H</text>
</a>
</g>
</g>
<!-- Node1&#45;&gt;Node22 -->
<g id="edge32_Node000001_Node000022" class="edge">
<title>Node1&#45;&gt;Node22</title>
<g id="a_edge32_Node000001_Node000022"><a xlink:title=" ">
<path fill="none" stroke="#63b8ff" d="M1038.5,-428.61C1038.5,-420.54 1038.5,-411.64 1038.5,-403.63"/>
<polygon fill="#63b8ff" stroke="#63b8ff" points="1042,-403.43 1038.5,-393.43 1035,-403.43 1042,-403.43"/>
</a>
</g>
</g>
<!-- Node24 -->
<g id="Node000024" class="node">
<title>Node24</title>
<g id="a_Node000024"><a xlink:title=" ">
<polygon fill="#e0e0e0" stroke="#999999" points="1236.5,-321.5 1178.5,-321.5 1178.5,-302.5 1236.5,-302.5 1236.5,-321.5"/>
<text text-anchor="middle" x="1207.5" y="-309.5" font-family="Helvetica,sans-Serif" font-size="10.00">memory</text>
</a>
</g>
</g>
<!-- Node1&#45;&gt;Node24 -->
<g id="edge40_Node000001_Node000024" class="edge">
<title>Node1&#45;&gt;Node24</title>
<g id="a_edge40_Node000001_Node000024"><a xlink:title=" ">
<path fill="none" stroke="#63b8ff" d="M1071.96,-428.98C1086.18,-418.14 1102.82,-405.16 1117.5,-393 1143.5,-371.45 1172.53,-345.23 1190.41,-328.83"/>
<polygon fill="#63b8ff" stroke="#63b8ff" points="1193.24,-330.98 1198.23,-321.63 1188.5,-325.83 1193.24,-330.98"/>
</a>
</g>
</g>
<!-- Node26 -->
<g id="Node000026" class="node">
<title>Node26</title>
<g id="a_Node000026"><a xlink:title=" ">
<polygon fill="#e0e0e0" stroke="#999999" points="1199.5,-255.5 1155.5,-255.5 1155.5,-236.5 1199.5,-236.5 1199.5,-255.5"/>
<text text-anchor="middle" x="1177.5" y="-243.5" font-family="Helvetica,sans-Serif" font-size="10.00">string</text>
</a>
</g>
</g>
<!-- Node1&#45;&gt;Node26 -->
<g id="edge41_Node000001_Node000026" class="edge">
<title>Node1&#45;&gt;Node26</title>
<g id="a_edge41_Node000001_Node000026"><a xlink:title=" ">
<path fill="none" stroke="#63b8ff" d="M1116.64,-428.94C1163.49,-409.33 1218.96,-376.87 1245.5,-327 1251.76,-315.23 1251.52,-308.9 1245.5,-297 1237.36,-280.91 1221.34,-268.74 1206.89,-260.43"/>
<polygon fill="#63b8ff" stroke="#63b8ff" points="1208.19,-257.16 1197.72,-255.53 1204.89,-263.33 1208.19,-257.16"/>
</a>
</g>
</g>
<!-- Node3 -->
<g id="Node000003" class="node">
<title>Node3</title>
<g id="a_Node000003"><a xlink:href="_slice_8_h.html" target="_top" xlink:title=" ">
<polygon fill="white" stroke="#666666" points="187.5,-255.5 95.5,-255.5 95.5,-236.5 187.5,-236.5 187.5,-255.5"/>
<text text-anchor="middle" x="141.5" y="-243.5" font-family="Helvetica,sans-Serif" font-size="10.00">src/core/Slice.H</text>
</a>
</g>
</g>
<!-- Node2&#45;&gt;Node3 -->
<g id="edge2_Node000002_Node000003" class="edge">
<title>Node2&#45;&gt;Node3</title>
<g id="a_edge2_Node000002_Node000003"><a xlink:title=" ">
<path fill="none" stroke="#63b8ff" d="M622.49,-305.06C530.34,-296.89 363.39,-280.92 221.5,-261 213.56,-259.88 205.2,-258.57 196.99,-257.21"/>
<polygon fill="#63b8ff" stroke="#63b8ff" points="197.55,-253.75 187.11,-255.53 196.38,-260.66 197.55,-253.75"/>
</a>
</g>
</g>
<!-- Node6 -->
<g id="Node000006" class="node">
<title>Node6</title>
<g id="a_Node000006"><a xlink:title=" ">
<polygon fill="#e0e0e0" stroke="#999999" points="317,-19 230,-19 230,0 317,0 317,-19"/>
<text text-anchor="middle" x="273.5" y="-7" font-family="Helvetica,sans-Serif" font-size="10.00">AMReX_Gpu.H</text>
</a>
</g>
</g>
<!-- Node2&#45;&gt;Node6 -->
<g id="edge27_Node000002_Node000006" class="edge">
<title>Node2&#45;&gt;Node6</title>
<g id="a_edge27_Node000002_Node000006"><a xlink:title=" ">
<path fill="none" stroke="#63b8ff" d="M622.1,-306.43C493.9,-296.16 235.5,-265.65 235.5,-186.5 235.5,-186.5 235.5,-186.5 235.5,-129.5 235.5,-92.07 252.77,-51.03 264.02,-28.25"/>
<polygon fill="#63b8ff" stroke="#63b8ff" points="267.24,-29.65 268.69,-19.15 261.01,-26.46 267.24,-29.65"/>
</a>
</g>
</g>
<!-- Node7 -->
<g id="Node000007" class="node">
<title>Node7</title>
<g id="a_Node000007"><a xlink:href="vector__space_8_h.html" target="_top" xlink:title=" ">
<polygon fill="white" stroke="#666666" points="582,-261 479,-261 479,-231 582,-231 582,-261"/>
<text text-anchor="start" x="487" y="-249" font-family="Helvetica,sans-Serif" font-size="10.00">src/core/vs/vector</text>
<text text-anchor="middle" x="530.5" y="-238" font-family="Helvetica,sans-Serif" font-size="10.00">_space.H</text>
</a>
</g>
</g>
<!-- Node2&#45;&gt;Node7 -->
<g id="edge6_Node000002_Node000007" class="edge">
<title>Node2&#45;&gt;Node7</title>
<g id="a_edge6_Node000002_Node000007"><a xlink:title=" ">
<path fill="none" stroke="#63b8ff" d="M656.95,-296.95C633,-287.49 601.21,-274.93 575.5,-264.78"/>
<polygon fill="#63b8ff" stroke="#63b8ff" points="576.56,-261.43 565.97,-261.01 573.98,-267.94 576.56,-261.43"/>
</a>
</g>
</g>
<!-- Node2&#45;&gt;Node18 -->
<g id="edge31_Node000002_Node000018" class="edge">
<title>Node2&#45;&gt;Node18</title>
<g id="a_edge31_Node000002_Node000018"><a xlink:title=" ">
<path fill="none" stroke="#63b8ff" d="M664.88,-296.85C651.56,-288.41 636.91,-276.34 629.5,-261 623.7,-248.99 623.91,-243.1 629.5,-231 655.7,-174.33 697.65,-188.87 736.5,-140 764.88,-104.3 786.5,-54.7 796.82,-28.46"/>
<polygon fill="#63b8ff" stroke="#63b8ff" points="800.12,-29.63 800.43,-19.03 793.58,-27.12 800.12,-29.63"/>
</a>
</g>
</g>
<!-- Node19 -->
<g id="Node000019" class="node">
<title>Node19</title>
<g id="a_Node000019"><a xlink:title=" ">
<polygon fill="#e0e0e0" stroke="#999999" points="746.5,-255.5 638.5,-255.5 638.5,-236.5 746.5,-236.5 746.5,-255.5"/>
<text text-anchor="middle" x="692.5" y="-243.5" font-family="Helvetica,sans-Serif" font-size="10.00">AMReX_RealBox.H</text>
</a>
</g>
</g>
<!-- Node2&#45;&gt;Node19 -->
<g id="edge28_Node000002_Node000019" class="edge">
<title>Node2&#45;&gt;Node19</title>
<g id="a_edge28_Node000002_Node000019"><a xlink:title=" ">
<path fill="none" stroke="#63b8ff" d="M692.5,-296.8C692.5,-287.7 692.5,-275.79 692.5,-265.9"/>
<polygon fill="#63b8ff" stroke="#63b8ff" points="696,-265.84 692.5,-255.84 689,-265.84 696,-265.84"/>
</a>
</g>
</g>
<!-- Node20 -->
<g id="Node000020" class="node">
<title>Node20</title>
<g id="a_Node000020"><a xlink:title=" ">
<polygon fill="#e0e0e0" stroke="#999999" points="796.5,-255.5 764.5,-255.5 764.5,-236.5 796.5,-236.5 796.5,-255.5"/>
<text text-anchor="middle" x="780.5" y="-243.5" font-family="Helvetica,sans-Serif" font-size="10.00">set</text>
</a>
</g>
</g>
<!-- Node2&#45;&gt;Node20 -->
<g id="edge29_Node000002_Node000020" class="edge">
<title>Node2&#45;&gt;Node20</title>
<g id="a_edge29_Node000002_Node000020"><a xlink:title=" ">
<path fill="none" stroke="#63b8ff" d="M712.03,-296.8C726.37,-286.37 745.8,-272.24 760.29,-261.69"/>
<polygon fill="#63b8ff" stroke="#63b8ff" points="762.57,-264.37 768.59,-255.66 758.45,-258.71 762.57,-264.37"/>
</a>
</g>
</g>
<!-- Node21 -->
<g id="Node000021" class="node">
<title>Node21</title>
<g id="a_Node000021"><a xlink:title=" ">
<polygon fill="#e0e0e0" stroke="#999999" points="860,-255.5 815,-255.5 815,-236.5 860,-236.5 860,-255.5"/>
<text text-anchor="middle" x="837.5" y="-243.5" font-family="Helvetica,sans-Serif" font-size="10.00">utility</text>
</a>
</g>
</g>
<!-- Node2&#45;&gt;Node21 -->
<g id="edge30_Node000002_Node000021" class="edge">
<title>Node2&#45;&gt;Node21</title>
<g id="a_edge30_Node000002_Node000021"><a xlink:title=" ">
<path fill="none" stroke="#63b8ff" d="M724.32,-296.95C749.53,-285.83 784.43,-270.42 808.79,-259.67"/>
<polygon fill="#63b8ff" stroke="#63b8ff" points="810.47,-262.76 818.2,-255.52 807.64,-256.35 810.47,-262.76"/>
</a>
</g>
</g>
<!-- Node4 -->
<g id="Node000004" class="node">
<title>Node4</title>
<g id="a_Node000004"><a xlink:title=" ">
<polygon fill="#e0e0e0" stroke="#999999" points="53,-195 0,-195 0,-176 53,-176 53,-195"/>
<text text-anchor="middle" x="26.5" y="-183" font-family="Helvetica,sans-Serif" font-size="10.00">iterator</text>
</a>
</g>
</g>
<!-- Node3&#45;&gt;Node4 -->
<g id="edge3_Node000003_Node000004" class="edge">
<title>Node3&#45;&gt;Node4</title>
<g id="a_edge3_Node000003_Node000004"><a xlink:title=" ">
<path fill="none" stroke="#63b8ff" d="M124.53,-236.37C105.59,-226.73 74.71,-211.03 52.67,-199.81"/>
<polygon fill="#63b8ff" stroke="#63b8ff" points="54.04,-196.58 43.54,-195.17 50.86,-202.82 54.04,-196.58"/>
</a>
</g>
</g>
<!-- Node5 -->
<g id="Node000005" class="node">
<title>Node5</title>
<g id="a_Node000005"><a xlink:title=" ">
<polygon fill="#e0e0e0" stroke="#999999" points="169.5,-195 71.5,-195 71.5,-176 169.5,-176 169.5,-195"/>
<text text-anchor="middle" x="120.5" y="-183" font-family="Helvetica,sans-Serif" font-size="10.00">AMReX_Vector.H</text>
</a>
</g>
</g>
<!-- Node3&#45;&gt;Node5 -->
<g id="edge4_Node000003_Node000005" class="edge">
<title>Node3&#45;&gt;Node5</title>
<g id="a_edge4_Node000003_Node000005"><a xlink:title=" ">
<path fill="none" stroke="#63b8ff" d="M138.4,-236.37C135.42,-228.07 130.83,-215.28 127.04,-204.72"/>
<polygon fill="#63b8ff" stroke="#63b8ff" points="130.28,-203.4 123.61,-195.17 123.7,-205.76 130.28,-203.4"/>
</a>
</g>
</g>
<!-- Node3&#45;&gt;Node6 -->
<g id="edge5_Node000003_Node000006" class="edge">
<title>Node3&#45;&gt;Node6</title>
<g id="a_edge5_Node000003_Node000006"><a xlink:title=" ">
<path fill="none" stroke="#63b8ff" d="M149.31,-236.39C157.58,-226.88 170.52,-210.81 178.5,-195 207.84,-136.89 185.8,-109.43 221.5,-55 229.24,-43.2 240.99,-32.77 251.36,-24.98"/>
<polygon fill="#63b8ff" stroke="#63b8ff" points="253.52,-27.74 259.63,-19.09 249.46,-22.04 253.52,-27.74"/>
</a>
</g>
</g>
<!-- Node8 -->
<g id="Node000008" class="node">
<title>Node8</title>
<g id="a_Node000008"><a xlink:href="vector_8_h.html" target="_top" xlink:title=" ">
<polygon fill="white" stroke="#666666" points="517,-140 404,-140 404,-121 517,-121 517,-140"/>
<text text-anchor="middle" x="460.5" y="-128" font-family="Helvetica,sans-Serif" font-size="10.00">src/core/vs/vector.H</text>
</a>
</g>
</g>
<!-- Node7&#45;&gt;Node8 -->
<g id="edge7_Node000007_Node000008" class="edge">
<title>Node7&#45;&gt;Node8</title>
<g id="a_edge7_Node000007_Node000008"><a xlink:title=" ">
<path fill="none" stroke="#63b8ff" d="M521.53,-230.57C515.33,-220.59 506.9,-206.99 499.5,-195 489.86,-179.38 478.93,-161.58 471.1,-148.8"/>
<polygon fill="#63b8ff" stroke="#63b8ff" points="474,-146.83 465.79,-140.13 468.03,-150.49 474,-146.83"/>
</a>
</g>
</g>
<!-- Node14 -->
<g id="Node000014" class="node">
<title>Node14</title>
<g id="a_Node000014"><a xlink:href="tensor_8_h.html" target="_top" xlink:title=" ">
<polygon fill="white" stroke="#666666" points="621,-195 508,-195 508,-176 621,-176 621,-195"/>
<text text-anchor="middle" x="564.5" y="-183" font-family="Helvetica,sans-Serif" font-size="10.00">src/core/vs/tensor.H</text>
</a>
</g>
</g>
<!-- Node7&#45;&gt;Node14 -->
<g id="edge15_Node000007_Node000014" class="edge">
<title>Node7&#45;&gt;Node14</title>
<g id="a_edge15_Node000007_Node000014"><a xlink:title=" ">
<path fill="none" stroke="#63b8ff" d="M538.73,-230.84C543.41,-222.78 549.32,-212.62 554.3,-204.06"/>
<polygon fill="#63b8ff" stroke="#63b8ff" points="557.41,-205.67 559.41,-195.27 551.35,-202.15 557.41,-205.67"/>
</a>
</g>
</g>
<!-- Node8&#45;&gt;Node6 -->
<g id="edge8_Node000008_Node000006" class="edge">
<title>Node8&#45;&gt;Node6</title>
<g id="a_edge8_Node000008_Node000006"><a xlink:title=" ">
<path fill="none" stroke="#63b8ff" d="M403.8,-128.59C367.33,-124.97 321.49,-114.26 292.5,-85 278,-70.36 274.08,-46.29 273.25,-29.48"/>
<polygon fill="#63b8ff" stroke="#63b8ff" points="276.74,-29.15 273.08,-19.21 269.74,-29.27 276.74,-29.15"/>
</a>
</g>
</g>
<!-- Node9 -->
<g id="Node000009" class="node">
<title>Node9</title>
<g id="a_Node000009"><a xlink:href="vstraits_8_h.html" target="_top" xlink:title=" ">
<polygon fill="white" stroke="#666666" points="421,-79.5 302,-79.5 302,-60.5 421,-60.5 421,-79.5"/>
<text text-anchor="middle" x="361.5" y="-67.5" font-family="Helvetica,sans-Serif" font-size="10.00">src/core/vs/vstraits.H</text>
</a>
</g>
</g>
<!-- Node8&#45;&gt;Node9 -->
<g id="edge9_Node000008_Node000009" class="edge">
<title>Node8&#45;&gt;Node9</title>
<g id="a_edge9_Node000008_Node000009"><a xlink:title=" ">
<path fill="none" stroke="#63b8ff" d="M445.89,-120.87C429.81,-111.36 403.72,-95.95 384.8,-84.77"/>
<polygon fill="#63b8ff" stroke="#63b8ff" points="386.56,-81.74 376.17,-79.67 383,-87.77 386.56,-81.74"/>
</a>
</g>
</g>
<!-- Node11 -->
<g id="Node000011" class="node">
<title>Node11</title>
<g id="a_Node000011"><a xlink:href="vector_i_8_h.html" target="_top" xlink:title=" ">
<polygon fill="white" stroke="#666666" points="555.5,-79.5 439.5,-79.5 439.5,-60.5 555.5,-60.5 555.5,-79.5"/>
<text text-anchor="middle" x="497.5" y="-67.5" font-family="Helvetica,sans-Serif" font-size="10.00">src/core/vs/vectorI.H</text>
</a>
</g>
</g>
<!-- Node8&#45;&gt;Node11 -->
<g id="edge11_Node000008_Node000011" class="edge">
<title>Node8&#45;&gt;Node11</title>
<g id="a_edge11_Node000008_Node000011"><a xlink:title=" ">
<path fill="none" stroke="#63b8ff" d="M461,-120.87C464.64,-112.14 472.91,-98.43 480.85,-87.59"/>
<polygon fill="#63b8ff" stroke="#63b8ff" points="483.65,-89.7 487.06,-79.67 478.14,-85.38 483.65,-89.7"/>
</a>
</g>
</g>
<!-- Node10 -->
<g id="Node000010" class="node">
<title>Node10</title>
<g id="a_Node000010"><a xlink:title=" ">
<polygon fill="#e0e0e0" stroke="#999999" points="383.5,-19 339.5,-19 339.5,0 383.5,0 383.5,-19"/>
<text text-anchor="middle" x="361.5" y="-7" font-family="Helvetica,sans-Serif" font-size="10.00">limits</text>
</a>
</g>
</g>
<!-- Node9&#45;&gt;Node10 -->
<g id="edge10_Node000009_Node000010" class="edge">
<title>Node9&#45;&gt;Node10</title>
<g id="a_edge10_Node000009_Node000010"><a xlink:title=" ">
<path fill="none" stroke="#63b8ff" d="M361.5,-60.37C361.5,-52.25 361.5,-39.81 361.5,-29.39"/>
<polygon fill="#63b8ff" stroke="#63b8ff" points="365,-29.17 361.5,-19.17 358,-29.17 365,-29.17"/>
</a>
</g>
</g>
<!-- Node11&#45;&gt;Node8 -->
<g id="edge14_Node000011_Node000008" class="edge">
<title>Node11&#45;&gt;Node8</title>
<g id="a_edge14_Node000011_Node000008"><a xlink:title=" ">
<path fill="none" stroke="#63b8ff" d="M496.98,-79.67C493.33,-88.41 485.06,-102.12 477.12,-112.95"/>
<polygon fill="#63b8ff" stroke="#63b8ff" points="474.33,-110.84 470.91,-120.87 479.84,-115.15 474.33,-110.84"/>
</a>
</g>
</g>
<!-- Node12 -->
<g id="Node000012" class="node">
<title>Node12</title>
<g id="a_Node000012"><a xlink:title=" ">
<polygon fill="#e0e0e0" stroke="#999999" points="526,-19 469,-19 469,0 526,0 526,-19"/>
<text text-anchor="middle" x="497.5" y="-7" font-family="Helvetica,sans-Serif" font-size="10.00">ostream</text>
</a>
</g>
</g>
<!-- Node11&#45;&gt;Node12 -->
<g id="edge12_Node000011_Node000012" class="edge">
<title>Node11&#45;&gt;Node12</title>
<g id="a_edge12_Node000011_Node000012"><a xlink:title=" ">
<path fill="none" stroke="#63b8ff" d="M497.5,-60.37C497.5,-52.25 497.5,-39.81 497.5,-29.39"/>
<polygon fill="#63b8ff" stroke="#63b8ff" points="501,-29.17 497.5,-19.17 494,-29.17 501,-29.17"/>
</a>
</g>
</g>
<!-- Node13 -->
<g id="Node000013" class="node">
<title>Node13</title>
<g id="a_Node000013"><a xlink:title=" ">
<polygon fill="#e0e0e0" stroke="#999999" points="645,-19 598,-19 598,0 645,0 645,-19"/>
<text text-anchor="middle" x="621.5" y="-7" font-family="Helvetica,sans-Serif" font-size="10.00">cmath</text>
</a>
</g>
</g>
<!-- Node11&#45;&gt;Node13 -->
<g id="edge13_Node000011_Node000013" class="edge">
<title>Node11&#45;&gt;Node13</title>
<g id="a_edge13_Node000011_Node000013"><a xlink:title=" ">
<path fill="none" stroke="#63b8ff" d="M515.53,-60.49C536.19,-50.75 570.28,-34.66 594.2,-23.38"/>
<polygon fill="#63b8ff" stroke="#63b8ff" points="595.9,-26.45 603.45,-19.02 592.91,-20.12 595.9,-26.45"/>
</a>
</g>
</g>
<!-- Node14&#45;&gt;Node6 -->
<g id="edge16_Node000014_Node000006" class="edge">
<title>Node14&#45;&gt;Node6</title>
<g id="a_edge16_Node000014_Node000006"><a xlink:title=" ">
<path fill="none" stroke="#63b8ff" d="M567.83,-175.96C576.11,-153.19 594.82,-90.31 564.5,-55 564.02,-54.44 411.42,-31.32 327.43,-18.64"/>
<polygon fill="#63b8ff" stroke="#63b8ff" points="327.7,-15.14 317.29,-17.1 326.66,-22.06 327.7,-15.14"/>
</a>
</g>
</g>
<!-- Node14&#45;&gt;Node8 -->
<g id="edge18_Node000014_Node000008" class="edge">
<title>Node14&#45;&gt;Node8</title>
<g id="a_edge18_Node000014_Node000008"><a xlink:title=" ">
<path fill="none" stroke="#63b8ff" d="M547.79,-175.98C531.29,-167.57 505.8,-154.59 486.62,-144.81"/>
<polygon fill="#63b8ff" stroke="#63b8ff" points="488.01,-141.59 477.51,-140.17 484.83,-147.83 488.01,-141.59"/>
</a>
</g>
</g>
<!-- Node14&#45;&gt;Node9 -->
<g id="edge17_Node000014_Node000009" class="edge">
<title>Node14&#45;&gt;Node9</title>
<g id="a_edge17_Node000014_Node000009"><a xlink:title=" ">
<path fill="none" stroke="#63b8ff" d="M561.59,-175.71C556.61,-161.99 545.13,-135.55 526.5,-121 508.41,-106.88 452.78,-91.73 411.08,-81.86"/>
<polygon fill="#63b8ff" stroke="#63b8ff" points="411.61,-78.39 401.08,-79.53 410.02,-85.2 411.61,-78.39"/>
</a>
</g>
</g>
<!-- Node15 -->
<g id="Node000015" class="node">
<title>Node15</title>
<g id="a_Node000015"><a xlink:href="tensor_i_8_h.html" target="_top" xlink:title=" ">
<polygon fill="white" stroke="#666666" points="727.5,-140 611.5,-140 611.5,-121 727.5,-121 727.5,-140"/>
<text text-anchor="middle" x="669.5" y="-128" font-family="Helvetica,sans-Serif" font-size="10.00">src/core/vs/tensorI.H</text>
</a>
</g>
</g>
<!-- Node14&#45;&gt;Node15 -->
<g id="edge19_Node000014_Node000015" class="edge">
<title>Node14&#45;&gt;Node15</title>
<g id="a_edge19_Node000014_Node000015"><a xlink:title=" ">
<path fill="none" stroke="#63b8ff" d="M576.26,-175.98C591.27,-167.46 617.22,-154.23 638.03,-144.41"/>
<polygon fill="#63b8ff" stroke="#63b8ff" points="639.58,-147.55 647.17,-140.17 636.63,-141.2 639.58,-147.55"/>
</a>
</g>
</g>
<!-- Node15&#45;&gt;Node13 -->
<g id="edge20_Node000015_Node000013" class="edge">
<title>Node15&#45;&gt;Node13</title>
<g id="a_edge20_Node000015_Node000013"><a xlink:title=" ">
<path fill="none" stroke="#63b8ff" d="M662.58,-120.79C656.03,-112.17 646.36,-98.34 640.5,-85 632.55,-66.88 627.43,-44.77 624.54,-29.36"/>
<polygon fill="#63b8ff" stroke="#63b8ff" points="627.91,-28.32 622.75,-19.07 621.01,-29.52 627.91,-28.32"/>
</a>
</g>
</g>
<!-- Node15&#45;&gt;Node14 -->
<g id="edge21_Node000015_Node000014" class="edge">
<title>Node15&#45;&gt;Node14</title>
<g id="a_edge21_Node000015_Node000014"><a xlink:title=" ">
<path fill="none" stroke="#63b8ff" d="M657.47,-140.17C642.33,-148.75 616.35,-161.99 595.59,-171.77"/>
<polygon fill="#63b8ff" stroke="#63b8ff" points="594.09,-168.61 586.48,-175.98 597.03,-174.96 594.09,-168.61"/>
</a>
</g>
</g>
<!-- Node16 -->
<g id="Node000016" class="node">
<title>Node16</title>
<g id="a_Node000016"><a xlink:href="trig__ops_8_h.html" target="_top" xlink:title=" ">
<polygon fill="white" stroke="#666666" points="739.5,-85 649.5,-85 649.5,-55 739.5,-55 739.5,-85"/>
<text text-anchor="start" x="657.5" y="-73" font-family="Helvetica,sans-Serif" font-size="10.00">src/utilities/trig</text>
<text text-anchor="middle" x="694.5" y="-62" font-family="Helvetica,sans-Serif" font-size="10.00">_ops.H</text>
</a>
</g>
</g>
<!-- Node15&#45;&gt;Node16 -->
<g id="edge22_Node000015_Node000016" class="edge">
<title>Node15&#45;&gt;Node16</title>
<g id="a_edge22_Node000015_Node000016"><a xlink:title=" ">
<path fill="none" stroke="#63b8ff" d="M673.19,-120.87C676.17,-113.89 680.52,-103.71 684.51,-94.38"/>
<polygon fill="#63b8ff" stroke="#63b8ff" points="687.76,-95.69 688.47,-85.11 681.32,-92.93 687.76,-95.69"/>
</a>
</g>
</g>
<!-- Node16&#45;&gt;Node6 -->
<g id="edge26_Node000016_Node000006" class="edge">
<title>Node16&#45;&gt;Node6</title>
<g id="a_edge26_Node000016_Node000006"><a xlink:title=" ">
<path fill="none" stroke="#63b8ff" d="M649.11,-62.36C632.84,-60 614.35,-57.35 597.5,-55 478.91,-38.45 449.05,-35.83 330.5,-19 329.41,-18.85 328.31,-18.69 327.2,-18.53"/>
<polygon fill="#63b8ff" stroke="#63b8ff" points="327.46,-15.03 317.06,-17.06 326.45,-21.96 327.46,-15.03"/>
</a>
</g>
</g>
<!-- Node16&#45;&gt;Node13 -->
<g id="edge23_Node000016_Node000013" class="edge">
<title>Node16&#45;&gt;Node13</title>
<g id="a_edge23_Node000016_Node000013"><a xlink:title=" ">
<path fill="none" stroke="#63b8ff" d="M676.83,-54.84C665.8,-46 651.61,-34.63 640.37,-25.62"/>
<polygon fill="#63b8ff" stroke="#63b8ff" points="642.43,-22.79 632.44,-19.27 638.05,-28.25 642.43,-22.79"/>
</a>
</g>
</g>
<!-- Node17 -->
<g id="Node000017" class="node">
<title>Node17</title>
<g id="a_Node000017"><a xlink:title=" ">
<polygon fill="#e0e0e0" stroke="#999999" points="724,-19 665,-19 665,0 724,0 724,-19"/>
<text text-anchor="middle" x="694.5" y="-7" font-family="Helvetica,sans-Serif" font-size="10.00">numbers</text>
</a>
</g>
</g>
<!-- Node16&#45;&gt;Node17 -->
<g id="edge24_Node000016_Node000017" class="edge">
<title>Node16&#45;&gt;Node17</title>
<g id="a_edge24_Node000016_Node000017"><a xlink:title=" ">
<path fill="none" stroke="#63b8ff" d="M694.5,-54.84C694.5,-47.21 694.5,-37.7 694.5,-29.45"/>
<polygon fill="#63b8ff" stroke="#63b8ff" points="698,-29.27 694.5,-19.27 691,-29.27 698,-29.27"/>
</a>
</g>
</g>
<!-- Node16&#45;&gt;Node18 -->
<g id="edge25_Node000016_Node000018" class="edge">
<title>Node16&#45;&gt;Node18</title>
<g id="a_edge25_Node000016_Node000018"><a xlink:title=" ">
<path fill="none" stroke="#63b8ff" d="M720.61,-54.99C738.14,-45.58 761.12,-33.24 778.44,-23.95"/>
<polygon fill="#63b8ff" stroke="#63b8ff" points="780.25,-26.95 787.4,-19.14 776.94,-20.78 780.25,-26.95"/>
</a>
</g>
</g>
<!-- Node22&#45;&gt;Node2 -->
<g id="edge33_Node000022_Node000002" class="edge">
<title>Node22&#45;&gt;Node2</title>
<g id="a_edge33_Node000022_Node000002"><a xlink:title=" ">
<path fill="none" stroke="#63b8ff" d="M968.48,-364.05C911.83,-353.57 832.01,-338.81 772.78,-327.85"/>
<polygon fill="#63b8ff" stroke="#63b8ff" points="773.18,-324.36 762.71,-325.99 771.91,-331.25 773.18,-324.36"/>
</a>
</g>
</g>
<!-- Node22&#45;&gt;Node18 -->
<g id="edge36_Node000022_Node000018" class="edge">
<title>Node22&#45;&gt;Node18</title>
<g id="a_edge36_Node000022_Node000018"><a xlink:title=" ">
<path fill="none" stroke="#63b8ff" d="M995.68,-363C977.72,-355.09 958.12,-343.42 945.5,-327 923.23,-298.03 926.5,-283.54 926.5,-247 926.5,-247 926.5,-247 926.5,-129.5 926.5,-94.71 925.7,-80.92 902.5,-55 888.7,-39.57 868.51,-29.19 849.96,-22.37"/>
<polygon fill="#63b8ff" stroke="#63b8ff" points="851.05,-19.04 840.45,-19.12 848.78,-25.66 851.05,-19.04"/>
</a>
</g>
</g>
<!-- Node23 -->
<g id="Node000023" class="node">
<title>Node23</title>
<g id="a_Node000023"><a xlink:title=" ">
<polygon fill="#e0e0e0" stroke="#999999" points="1002.5,-321.5 954.5,-321.5 954.5,-302.5 1002.5,-302.5 1002.5,-321.5"/>
<text text-anchor="middle" x="978.5" y="-309.5" font-family="Helvetica,sans-Serif" font-size="10.00">iosfwd</text>
</a>
</g>
</g>
<!-- Node22&#45;&gt;Node23 -->
<g id="edge34_Node000022_Node000023" class="edge">
<title>Node22&#45;&gt;Node23</title>
<g id="a_edge34_Node000022_Node000023"><a xlink:title=" ">
<path fill="none" stroke="#63b8ff" d="M1025.18,-362.8C1015.92,-352.92 1003.55,-339.72 993.87,-329.39"/>
<polygon fill="#63b8ff" stroke="#63b8ff" points="996.18,-326.75 986.79,-321.84 991.08,-331.53 996.18,-326.75"/>
</a>
</g>
</g>
<!-- Node22&#45;&gt;Node24 -->
<g id="edge35_Node000022_Node000024" class="edge">
<title>Node22&#45;&gt;Node24</title>
<g id="a_edge35_Node000022_Node000024"><a xlink:title=" ">
<path fill="none" stroke="#63b8ff" d="M1075.59,-362.95C1105.49,-351.63 1147.1,-335.88 1175.54,-325.1"/>
<polygon fill="#63b8ff" stroke="#63b8ff" points="1176.9,-328.33 1185.01,-321.52 1174.42,-321.79 1176.9,-328.33"/>
</a>
</g>
</g>
<!-- Node25 -->
<g id="Node000025" class="node">
<title>Node25</title>
<g id="a_Node000025"><a xlink:href="_airfoil_table_i_8_h.html" target="_top" xlink:title=" ">
<polygon fill="white" stroke="#666666" points="1160.5,-327 1020.5,-327 1020.5,-297 1160.5,-297 1160.5,-327"/>
<text text-anchor="start" x="1028.5" y="-315" font-family="Helvetica,sans-Serif" font-size="10.00">src/wind_energy/actuator</text>
<text text-anchor="middle" x="1090.5" y="-304" font-family="Helvetica,sans-Serif" font-size="10.00">/aero/AirfoilTableI.H</text>
</a>
</g>
</g>
<!-- Node22&#45;&gt;Node25 -->
<g id="edge37_Node000022_Node000025" class="edge">
<title>Node22&#45;&gt;Node25</title>
<g id="a_edge37_Node000022_Node000025"><a xlink:title=" ">
<path fill="none" stroke="#63b8ff" d="M1044.32,-362.8C1049.98,-354.51 1058.37,-343.89 1066.54,-334.59"/>
<polygon fill="#63b8ff" stroke="#63b8ff" points="1069.15,-336.92 1073.28,-327.16 1063.96,-332.22 1069.15,-336.92"/>
</a>
</g>
</g>
<!-- Node25&#45;&gt;Node22 -->
<g id="edge38_Node000025_Node000022" class="edge">
<title>Node25&#45;&gt;Node22</title>
<g id="a_edge38_Node000025_Node000022"><a xlink:title=" ">
<path fill="none" stroke="#63b8ff" d="M1084.71,-327.16C1079.06,-335.44 1070.67,-346.06 1062.5,-355.37"/>
<polygon fill="#63b8ff" stroke="#63b8ff" points="1059.89,-353.04 1055.76,-362.8 1065.07,-357.74 1059.89,-353.04"/>
</a>
</g>
</g>
<!-- Node25&#45;&gt;Node26 -->
<g id="edge39_Node000025_Node000026" class="edge">
<title>Node25&#45;&gt;Node26</title>
<g id="a_edge39_Node000025_Node000026"><a xlink:title=" ">
<path fill="none" stroke="#63b8ff" d="M1109.81,-296.8C1123.99,-286.37 1143.19,-272.24 1157.52,-261.69"/>
<polygon fill="#63b8ff" stroke="#63b8ff" points="1159.75,-264.4 1165.73,-255.66 1155.6,-258.76 1159.75,-264.4"/>
</a>
</g>
</g>
</g>
</svg>
