<?xml version="1.0" encoding="UTF-8" standalone="no"?>
<!DOCTYPE svg PUBLIC "-//W3C//DTD SVG 1.1//EN"
 "http://www.w3.org/Graphics/SVG/1.1/DTD/svg11.dtd">
<!-- Generated by graphviz version 2.43.0 (0)
 -->
<!-- Title: /home/runner/work/kynema&#45;sgf/kynema&#45;sgf/src/wind_energy/actuator/aero/AirfoilTable.H Pages: 1 -->
<svg width="1253pt" height="313pt"
 viewBox="0.00 0.00 1253.00 313.00" xmlns="http://www.w3.org/2000/svg" xmlns:xlink="http://www.w3.org/1999/xlink">
<g id="graph0" class="graph" transform="scale(1 1) rotate(0) translate(4 309)">
<title>/home/runner/work/kynema&#45;sgf/kynema&#45;sgf/src/wind_energy/actuator/aero/AirfoilTable.H</title>
<!-- Node1 -->
<g id="Node000001" class="node">
<title>Node1</title>
<g id="a_Node000001"><a xlink:title=" ">
<polygon fill="#999999" stroke="#666666" points="617,-305 425,-305 425,-264 617,-264 617,-305"/>
<text text-anchor="start" x="433" y="-293" font-family="Helvetica,sans-Serif" font-size="10.00">/home/runner/work/kynema</text>
<text text-anchor="start" x="433" y="-282" font-family="Helvetica,sans-Serif" font-size="10.00">&#45;sgf/kynema&#45;sgf/src/wind</text>
<text text-anchor="middle" x="521" y="-271" font-family="Helvetica,sans-Serif" font-size="10.00">_energy/actuator/aero/AirfoilTable.H</text>
</a>
</g>
</g>
<!-- Node2 -->
<g id="Node000002" class="node">
<title>Node2</title>
<g id="a_Node000002"><a xlink:href="_airfoil_table_8cpp.html" target="_top" xlink:title=" ">
<polygon fill="white" stroke="#666666" points="202,-222.5 0,-222.5 0,-181.5 202,-181.5 202,-222.5"/>
<text text-anchor="start" x="8" y="-210.5" font-family="Helvetica,sans-Serif" font-size="10.00">/home/runner/work/kynema</text>
<text text-anchor="start" x="8" y="-199.5" font-family="Helvetica,sans-Serif" font-size="10.00">&#45;sgf/kynema&#45;sgf/src/wind</text>
<text text-anchor="middle" x="101" y="-188.5" font-family="Helvetica,sans-Serif" font-size="10.00">_energy/actuator/aero/AirfoilTable.cpp</text>
</a>
</g>
</g>
<!-- Node1&#45;&gt;Node2 -->
<g id="edge1_Node000001_Node000002" class="edge">
<title>Node1&#45;&gt;Node2</title>
<g id="a_edge1_Node000001_Node000002"><a xlink:title=" ">
<path fill="none" stroke="#63b8ff" d="M414.92,-265.76C354.93,-255.42 278.63,-241.73 211,-228 202.56,-226.29 193.76,-224.42 184.99,-222.51"/>
<polygon fill="#63b8ff" stroke="#63b8ff" points="414.33,-269.21 424.78,-267.46 415.51,-262.31 414.33,-269.21"/>
</a>
</g>
</g>
<!-- Node3 -->
<g id="Node000003" class="node">
<title>Node3</title>
<g id="a_Node000003"><a xlink:href="_airfoil_table_i_8_h.html" target="_top" xlink:title=" ">
<polygon fill="white" stroke="#666666" points="415.5,-222.5 220.5,-222.5 220.5,-181.5 415.5,-181.5 415.5,-222.5"/>
<text text-anchor="start" x="228.5" y="-210.5" font-family="Helvetica,sans-Serif" font-size="10.00">/home/runner/work/kynema</text>
<text text-anchor="start" x="228.5" y="-199.5" font-family="Helvetica,sans-Serif" font-size="10.00">&#45;sgf/kynema&#45;sgf/src/wind</text>
<text text-anchor="middle" x="318" y="-188.5" font-family="Helvetica,sans-Serif" font-size="10.00">_energy/actuator/aero/AirfoilTableI.H</text>
</a>
</g>
</g>
<!-- Node1&#45;&gt;Node3 -->
<g id="edge2_Node000001_Node000003" class="edge">
<title>Node1&#45;&gt;Node3</title>
<g id="a_edge2_Node000001_Node000003"><a xlink:title=" ">
<path fill="none" stroke="#63b8ff" d="M456.28,-260.29C425.28,-248.33 389.03,-233.92 361.39,-222.54"/>
<polygon fill="#63b8ff" stroke="#63b8ff" points="455.12,-263.59 465.71,-263.91 457.63,-257.06 455.12,-263.59"/>
</a>
</g>
</g>
<!-- Node4 -->
<g id="Node000004" class="node">
<title>Node4</title>
<g id="a_Node000004"><a xlink:href="_actuator_sector_8_h.html" target="_top" xlink:title=" ">
<polygon fill="white" stroke="#666666" points="609,-228 433,-228 433,-176 609,-176 609,-228"/>
<text text-anchor="start" x="441" y="-216" font-family="Helvetica,sans-Serif" font-size="10.00">/home/runner/work/kynema</text>
<text text-anchor="start" x="441" y="-205" font-family="Helvetica,sans-Serif" font-size="10.00">&#45;sgf/kynema&#45;sgf/src/wind</text>
<text text-anchor="start" x="441" y="-194" font-family="Helvetica,sans-Serif" font-size="10.00">_energy/actuator/sector/Actuator</text>
<text text-anchor="middle" x="521" y="-183" font-family="Helvetica,sans-Serif" font-size="10.00">Sector.H</text>
</a>
</g>
</g>
<!-- Node1&#45;&gt;Node4 -->
<g id="edge4_Node000001_Node000004" class="edge">
<title>Node1&#45;&gt;Node4</title>
<g id="a_edge4_Node000001_Node000004"><a xlink:title=" ">
<path fill="none" stroke="#63b8ff" d="M521,-253.49C521,-245.15 521,-236.19 521,-228.16"/>
<polygon fill="#63b8ff" stroke="#63b8ff" points="517.5,-253.6 521,-263.6 524.5,-253.6 517.5,-253.6"/>
</a>
</g>
</g>
<!-- Node8 -->
<g id="Node000008" class="node">
<title>Node8</title>
<g id="a_Node000008"><a xlink:href="_fixed_wing_8_h.html" target="_top" xlink:title=" ">
<polygon fill="white" stroke="#666666" points="816.5,-222.5 627.5,-222.5 627.5,-181.5 816.5,-181.5 816.5,-222.5"/>
<text text-anchor="start" x="635.5" y="-210.5" font-family="Helvetica,sans-Serif" font-size="10.00">/home/runner/work/kynema</text>
<text text-anchor="start" x="635.5" y="-199.5" font-family="Helvetica,sans-Serif" font-size="10.00">&#45;sgf/kynema&#45;sgf/src/wind</text>
<text text-anchor="middle" x="722" y="-188.5" font-family="Helvetica,sans-Serif" font-size="10.00">_energy/actuator/wing/FixedWing.H</text>
</a>
</g>
</g>
<!-- Node1&#45;&gt;Node8 -->
<g id="edge9_Node000001_Node000008" class="edge">
<title>Node1&#45;&gt;Node8</title>
<g id="a_edge9_Node000001_Node000008"><a xlink:title=" ">
<path fill="none" stroke="#63b8ff" d="M579.35,-260.13C609.13,-248.21 644.93,-233.87 673.22,-222.54"/>
<polygon fill="#63b8ff" stroke="#63b8ff" points="577.9,-256.94 569.91,-263.91 580.5,-263.44 577.9,-256.94"/>
</a>
</g>
</g>
<!-- Node11 -->
<g id="Node000011" class="node">
<title>Node11</title>
<g id="a_Node000011"><a xlink:href="_flat_plate_8_h.html" target="_top" xlink:title=" ">
<polygon fill="white" stroke="#666666" points="1220,-222.5 1038,-222.5 1038,-181.5 1220,-181.5 1220,-222.5"/>
<text text-anchor="start" x="1046" y="-210.5" font-family="Helvetica,sans-Serif" font-size="10.00">/home/runner/work/kynema</text>
<text text-anchor="start" x="1046" y="-199.5" font-family="Helvetica,sans-Serif" font-size="10.00">&#45;sgf/kynema&#45;sgf/src/wind</text>
<text text-anchor="middle" x="1129" y="-188.5" font-family="Helvetica,sans-Serif" font-size="10.00">_energy/actuator/wing/FlatPlate.H</text>
</a>
</g>
</g>
<!-- Node1&#45;&gt;Node11 -->
<g id="edge13_Node000001_Node000011" class="edge">
<title>Node1&#45;&gt;Node11</title>
<g id="a_edge13_Node000001_Node000011"><a xlink:title=" ">
<path fill="none" stroke="#63b8ff" d="M627.42,-276.01C730.42,-267.78 890.69,-252.4 1028,-228 1036.8,-226.44 1045.98,-224.54 1055.05,-222.5"/>
<polygon fill="#63b8ff" stroke="#63b8ff" points="627.02,-272.53 617.33,-276.81 627.57,-279.51 627.02,-272.53"/>
</a>
</g>
</g>
<!-- Node14 -->
<g id="Node000014" class="node">
<title>Node14</title>
<g id="a_Node000014"><a xlink:href="wing__ops_8_h.html" target="_top" xlink:title=" ">
<polygon fill="white" stroke="#666666" points="1019.5,-222.5 834.5,-222.5 834.5,-181.5 1019.5,-181.5 1019.5,-222.5"/>
<text text-anchor="start" x="842.5" y="-210.5" font-family="Helvetica,sans-Serif" font-size="10.00">/home/runner/work/kynema</text>
<text text-anchor="start" x="842.5" y="-199.5" font-family="Helvetica,sans-Serif" font-size="10.00">&#45;sgf/kynema&#45;sgf/src/wind</text>
<text text-anchor="middle" x="927" y="-188.5" font-family="Helvetica,sans-Serif" font-size="10.00">_energy/actuator/wing/wing_ops.H</text>
</a>
</g>
</g>
<!-- Node1&#45;&gt;Node14 -->
<g id="edge17_Node000001_Node000014" class="edge">
<title>Node1&#45;&gt;Node14</title>
<g id="a_edge17_Node000001_Node000014"><a xlink:title=" ">
<path fill="none" stroke="#63b8ff" d="M627.13,-265.73C685.66,-255.52 759.53,-241.99 825,-228 832.93,-226.3 841.19,-224.44 849.42,-222.53"/>
<polygon fill="#63b8ff" stroke="#63b8ff" points="626.38,-262.3 617.13,-267.46 627.58,-269.2 626.38,-262.3"/>
</a>
</g>
</g>
<!-- Node3&#45;&gt;Node1 -->
<g id="edge3_Node000003_Node000001" class="edge">
<title>Node3&#45;&gt;Node1</title>
<g id="a_edge3_Node000003_Node000001"><a xlink:title=" ">
<path fill="none" stroke="#63b8ff" d="M382.58,-226.16C413.56,-238.11 449.81,-252.52 477.49,-263.91"/>
<polygon fill="#63b8ff" stroke="#63b8ff" points="383.74,-222.86 373.15,-222.54 381.23,-229.39 383.74,-222.86"/>
</a>
</g>
</g>
<!-- Node5 -->
<g id="Node000005" class="node">
<title>Node5</title>
<g id="a_Node000005"><a xlink:href="_actuator_sector_8cpp.html" target="_top" xlink:title=" ">
<polygon fill="white" stroke="#666666" points="617,-52 441,-52 441,0 617,0 617,-52"/>
<text text-anchor="start" x="449" y="-40" font-family="Helvetica,sans-Serif" font-size="10.00">/home/runner/work/kynema</text>
<text text-anchor="start" x="449" y="-29" font-family="Helvetica,sans-Serif" font-size="10.00">&#45;sgf/kynema&#45;sgf/src/wind</text>
<text text-anchor="start" x="449" y="-18" font-family="Helvetica,sans-Serif" font-size="10.00">_energy/actuator/sector/Actuator</text>
<text text-anchor="middle" x="529" y="-7" font-family="Helvetica,sans-Serif" font-size="10.00">Sector.cpp</text>
</a>
</g>
</g>
<!-- Node4&#45;&gt;Node5 -->
<g id="edge5_Node000004_Node000005" class="edge">
<title>Node4&#45;&gt;Node5</title>
<g id="a_edge5_Node000004_Node000005"><a xlink:title=" ">
<path fill="none" stroke="#63b8ff" d="M522.64,-165.35C524.19,-131.6 526.48,-81.79 527.85,-52.05"/>
<polygon fill="#63b8ff" stroke="#63b8ff" points="519.13,-165.55 522.16,-175.7 526.12,-165.87 519.13,-165.55"/>
</a>
</g>
</g>
<!-- Node6 -->
<g id="Node000006" class="node">
<title>Node6</title>
<g id="a_Node000006"><a xlink:href="actuator__sector__ops_8_h.html" target="_top" xlink:title=" ">
<polygon fill="white" stroke="#666666" points="501,-140 325,-140 325,-88 501,-88 501,-140"/>
<text text-anchor="start" x="333" y="-128" font-family="Helvetica,sans-Serif" font-size="10.00">/home/runner/work/kynema</text>
<text text-anchor="start" x="333" y="-117" font-family="Helvetica,sans-Serif" font-size="10.00">&#45;sgf/kynema&#45;sgf/src/wind</text>
<text text-anchor="start" x="333" y="-106" font-family="Helvetica,sans-Serif" font-size="10.00">_energy/actuator/sector/actuator</text>
<text text-anchor="middle" x="413" y="-95" font-family="Helvetica,sans-Serif" font-size="10.00">_sector_ops.H</text>
</a>
</g>
</g>
<!-- Node4&#45;&gt;Node6 -->
<g id="edge6_Node000004_Node000006" class="edge">
<title>Node4&#45;&gt;Node6</title>
<g id="a_edge6_Node000004_Node000006"><a xlink:title=" ">
<path fill="none" stroke="#63b8ff" d="M481.33,-169.41C469.28,-159.82 456.21,-149.41 444.75,-140.29"/>
<polygon fill="#63b8ff" stroke="#63b8ff" points="479.47,-172.4 489.47,-175.89 483.83,-166.93 479.47,-172.4"/>
</a>
</g>
</g>
<!-- Node6&#45;&gt;Node5 -->
<g id="edge7_Node000006_Node000005" class="edge">
<title>Node6&#45;&gt;Node5</title>
<g id="a_edge7_Node000006_Node000005"><a xlink:title=" ">
<path fill="none" stroke="#63b8ff" d="M455.24,-81.69C468.28,-72.02 482.47,-61.49 494.89,-52.29"/>
<polygon fill="#63b8ff" stroke="#63b8ff" points="452.81,-79.13 446.86,-87.89 456.98,-84.75 452.81,-79.13"/>
</a>
</g>
</g>
<!-- Node7 -->
<g id="Node000007" class="node">
<title>Node7</title>
<g id="a_Node000007"><a xlink:href="actuator__sector__ops_8cpp.html" target="_top" xlink:title=" ">
<polygon fill="white" stroke="#666666" points="423,-52 247,-52 247,0 423,0 423,-52"/>
<text text-anchor="start" x="255" y="-40" font-family="Helvetica,sans-Serif" font-size="10.00">/home/runner/work/kynema</text>
<text text-anchor="start" x="255" y="-29" font-family="Helvetica,sans-Serif" font-size="10.00">&#45;sgf/kynema&#45;sgf/src/wind</text>
<text text-anchor="start" x="255" y="-18" font-family="Helvetica,sans-Serif" font-size="10.00">_energy/actuator/sector/actuator</text>
<text text-anchor="middle" x="335" y="-7" font-family="Helvetica,sans-Serif" font-size="10.00">_sector_ops.cpp</text>
</a>
</g>
</g>
<!-- Node6&#45;&gt;Node7 -->
<g id="edge8_Node000006_Node000007" class="edge">
<title>Node6&#45;&gt;Node7</title>
<g id="a_edge8_Node000006_Node000007"><a xlink:title=" ">
<path fill="none" stroke="#63b8ff" d="M383.14,-80.08C374.74,-70.81 365.74,-60.89 357.82,-52.16"/>
<polygon fill="#63b8ff" stroke="#63b8ff" points="380.71,-82.61 390.02,-87.66 385.89,-77.9 380.71,-82.61"/>
</a>
</g>
</g>
<!-- Node9 -->
<g id="Node000009" class="node">
<title>Node9</title>
<g id="a_Node000009"><a xlink:href="_fixed_wing_8cpp.html" target="_top" xlink:title=" ">
<polygon fill="white" stroke="#666666" points="849.5,-46.5 650.5,-46.5 650.5,-5.5 849.5,-5.5 849.5,-46.5"/>
<text text-anchor="start" x="658.5" y="-34.5" font-family="Helvetica,sans-Serif" font-size="10.00">/home/runner/work/kynema</text>
<text text-anchor="start" x="658.5" y="-23.5" font-family="Helvetica,sans-Serif" font-size="10.00">&#45;sgf/kynema&#45;sgf/src/wind</text>
<text text-anchor="middle" x="750" y="-12.5" font-family="Helvetica,sans-Serif" font-size="10.00">_energy/actuator/wing/FixedWing.cpp</text>
</a>
</g>
</g>
<!-- Node8&#45;&gt;Node9 -->
<g id="edge10_Node000008_Node000009" class="edge">
<title>Node8&#45;&gt;Node9</title>
<g id="a_edge10_Node000008_Node000009"><a xlink:title=" ">
<path fill="none" stroke="#63b8ff" d="M693.08,-173.89C684.61,-164.12 676.44,-152.41 672,-140 664.22,-118.24 661.87,-108.77 672,-88 680.44,-70.69 696.42,-56.85 711.73,-46.76"/>
<polygon fill="#63b8ff" stroke="#63b8ff" points="690.53,-176.29 699.87,-181.29 695.68,-171.55 690.53,-176.29"/>
</a>
</g>
</g>
<!-- Node10 -->
<g id="Node000010" class="node">
<title>Node10</title>
<g id="a_Node000010"><a xlink:href="fixed__wing__ops_8_h.html" target="_top" xlink:title=" ">
<polygon fill="white" stroke="#666666" points="833,-140 681,-140 681,-88 833,-88 833,-140"/>
<text text-anchor="start" x="689" y="-128" font-family="Helvetica,sans-Serif" font-size="10.00">/home/runner/work/kynema</text>
<text text-anchor="start" x="689" y="-117" font-family="Helvetica,sans-Serif" font-size="10.00">&#45;sgf/kynema&#45;sgf/src/wind</text>
<text text-anchor="start" x="689" y="-106" font-family="Helvetica,sans-Serif" font-size="10.00">_energy/actuator/wing/fixed</text>
<text text-anchor="middle" x="757" y="-95" font-family="Helvetica,sans-Serif" font-size="10.00">_wing_ops.H</text>
</a>
</g>
</g>
<!-- Node8&#45;&gt;Node10 -->
<g id="edge11_Node000008_Node000010" class="edge">
<title>Node8&#45;&gt;Node10</title>
<g id="a_edge11_Node000008_Node000010"><a xlink:title=" ">
<path fill="none" stroke="#63b8ff" d="M733.77,-172.08C737.96,-161.79 742.64,-150.28 746.7,-140.32"/>
<polygon fill="#63b8ff" stroke="#63b8ff" points="730.47,-170.9 729.94,-181.49 736.95,-173.54 730.47,-170.9"/>
</a>
</g>
</g>
<!-- Node10&#45;&gt;Node9 -->
<g id="edge12_Node000010_Node000009" class="edge">
<title>Node10&#45;&gt;Node9</title>
<g id="a_edge12_Node000010_Node000009"><a xlink:title=" ">
<path fill="none" stroke="#63b8ff" d="M754.11,-77.45C753.25,-66.94 752.35,-55.82 751.6,-46.7"/>
<polygon fill="#63b8ff" stroke="#63b8ff" points="750.64,-77.98 754.94,-87.66 757.61,-77.41 750.64,-77.98"/>
</a>
</g>
</g>
<!-- Node12 -->
<g id="Node000012" class="node">
<title>Node12</title>
<g id="a_Node000012"><a xlink:href="_flat_plate_8cpp.html" target="_top" xlink:title=" ">
<polygon fill="white" stroke="#666666" points="1245,-46.5 1053,-46.5 1053,-5.5 1245,-5.5 1245,-46.5"/>
<text text-anchor="start" x="1061" y="-34.5" font-family="Helvetica,sans-Serif" font-size="10.00">/home/runner/work/kynema</text>
<text text-anchor="start" x="1061" y="-23.5" font-family="Helvetica,sans-Serif" font-size="10.00">&#45;sgf/kynema&#45;sgf/src/wind</text>
<text text-anchor="middle" x="1149" y="-12.5" font-family="Helvetica,sans-Serif" font-size="10.00">_energy/actuator/wing/FlatPlate.cpp</text>
</a>
</g>
</g>
<!-- Node11&#45;&gt;Node12 -->
<g id="edge14_Node000011_Node000012" class="edge">
<title>Node11&#45;&gt;Node12</title>
<g id="a_edge14_Node000011_Node000012"><a xlink:title=" ">
<path fill="none" stroke="#63b8ff" d="M1159.85,-173.93C1168.75,-164.22 1177.31,-152.55 1182,-140 1190.09,-118.35 1187.67,-110.4 1182,-88 1178.25,-73.18 1170.1,-58.05 1162.83,-46.57"/>
<polygon fill="#63b8ff" stroke="#63b8ff" points="1157.18,-171.66 1152.71,-181.27 1162.19,-176.54 1157.18,-171.66"/>
</a>
</g>
</g>
<!-- Node13 -->
<g id="Node000013" class="node">
<title>Node13</title>
<g id="a_Node000013"><a xlink:href="flat__plate__ops_8_h.html" target="_top" xlink:title=" ">
<polygon fill="white" stroke="#666666" points="1172.5,-140 1021.5,-140 1021.5,-88 1172.5,-88 1172.5,-140"/>
<text text-anchor="start" x="1029.5" y="-128" font-family="Helvetica,sans-Serif" font-size="10.00">/home/runner/work/kynema</text>
<text text-anchor="start" x="1029.5" y="-117" font-family="Helvetica,sans-Serif" font-size="10.00">&#45;sgf/kynema&#45;sgf/src/wind</text>
<text text-anchor="start" x="1029.5" y="-106" font-family="Helvetica,sans-Serif" font-size="10.00">_energy/actuator/wing/flat</text>
<text text-anchor="middle" x="1097" y="-95" font-family="Helvetica,sans-Serif" font-size="10.00">_plate_ops.H</text>
</a>
</g>
</g>
<!-- Node11&#45;&gt;Node13 -->
<g id="edge15_Node000011_Node000013" class="edge">
<title>Node11&#45;&gt;Node13</title>
<g id="a_edge15_Node000011_Node000013"><a xlink:title=" ">
<path fill="none" stroke="#63b8ff" d="M1118.24,-172.08C1114.41,-161.79 1110.13,-150.28 1106.42,-140.32"/>
<polygon fill="#63b8ff" stroke="#63b8ff" points="1114.97,-173.33 1121.74,-181.49 1121.53,-170.89 1114.97,-173.33"/>
</a>
</g>
</g>
<!-- Node13&#45;&gt;Node12 -->
<g id="edge16_Node000013_Node000012" class="edge">
<title>Node13&#45;&gt;Node12</title>
<g id="a_edge16_Node000013_Node000012"><a xlink:title=" ">
<path fill="none" stroke="#63b8ff" d="M1117.5,-79.09C1124.14,-68.11 1131.29,-56.3 1137.09,-46.7"/>
<polygon fill="#63b8ff" stroke="#63b8ff" points="1114.5,-77.29 1112.32,-87.66 1120.49,-80.92 1114.5,-77.29"/>
</a>
</g>
</g>
<!-- Node14&#45;&gt;Node10 -->
<g id="edge18_Node000014_Node000010" class="edge">
<title>Node14&#45;&gt;Node10</title>
<g id="a_edge18_Node000014_Node000010"><a xlink:title=" ">
<path fill="none" stroke="#63b8ff" d="M879.34,-176.89C856.69,-165.43 829.63,-151.74 806.73,-140.16"/>
<polygon fill="#63b8ff" stroke="#63b8ff" points="877.92,-180.09 888.42,-181.49 881.08,-173.85 877.92,-180.09"/>
</a>
</g>
</g>
<!-- Node14&#45;&gt;Node13 -->
<g id="edge19_Node000014_Node000013" class="edge">
<title>Node14&#45;&gt;Node13</title>
<g id="a_edge19_Node000014_Node000013"><a xlink:title=" ">
<path fill="none" stroke="#63b8ff" d="M974.66,-176.89C997.31,-165.43 1024.37,-151.74 1047.27,-140.16"/>
<polygon fill="#63b8ff" stroke="#63b8ff" points="972.92,-173.85 965.58,-181.49 976.08,-180.09 972.92,-173.85"/>
</a>
</g>
</g>
<!-- Node15 -->
<g id="Node000015" class="node">
<title>Node15</title>
<g id="a_Node000015"><a xlink:href="wing__ops_8cpp.html" target="_top" xlink:title=" ">
<polygon fill="white" stroke="#666666" points="1003,-140 851,-140 851,-88 1003,-88 1003,-140"/>
<text text-anchor="start" x="859" y="-128" font-family="Helvetica,sans-Serif" font-size="10.00">/home/runner/work/kynema</text>
<text text-anchor="start" x="859" y="-117" font-family="Helvetica,sans-Serif" font-size="10.00">&#45;sgf/kynema&#45;sgf/src/wind</text>
<text text-anchor="start" x="859" y="-106" font-family="Helvetica,sans-Serif" font-size="10.00">_energy/actuator/wing/wing</text>
<text text-anchor="middle" x="927" y="-95" font-family="Helvetica,sans-Serif" font-size="10.00">_ops.cpp</text>
</a>
</g>
</g>
<!-- Node14&#45;&gt;Node15 -->
<g id="edge20_Node000014_Node000015" class="edge">
<title>Node14&#45;&gt;Node15</title>
<g id="a_edge20_Node000014_Node000015"><a xlink:title=" ">
<path fill="none" stroke="#63b8ff" d="M927,-171.44C927,-161.31 927,-150.08 927,-140.32"/>
<polygon fill="#63b8ff" stroke="#63b8ff" points="923.5,-171.49 927,-181.49 930.5,-171.49 923.5,-171.49"/>
</a>
</g>
</g>
</g>
</svg>
