<?xml version="1.0" encoding="UTF-8" standalone="no"?>
<!DOCTYPE svg PUBLIC "-//W3C//DTD SVG 1.1//EN"
 "http://www.w3.org/Graphics/SVG/1.1/DTD/svg11.dtd">
<!-- Generated by graphviz version 2.43.0 (0)
 -->
<!-- Title: /home/runner/work/kynema&#45;sgf/kynema&#45;sgf/src/wind_energy/actuator/aero/AirfoilTableI.H Pages: 1 -->
<svg width="846pt" height="368pt"
 viewBox="0.00 0.00 846.00 368.00" xmlns="http://www.w3.org/2000/svg" xmlns:xlink="http://www.w3.org/1999/xlink">
<g id="graph0" class="graph" transform="scale(1 1) rotate(0) translate(4 364)">
<title>/home/runner/work/kynema&#45;sgf/kynema&#45;sgf/src/wind_energy/actuator/aero/AirfoilTableI.H</title>
<!-- Node1 -->
<g id="Node000001" class="node">
<title>Node1</title>
<g id="a_Node000001"><a xlink:title=" ">
<polygon fill="#999999" stroke="#666666" points="514.5,-360 319.5,-360 319.5,-319 514.5,-319 514.5,-360"/>
<text text-anchor="start" x="327.5" y="-348" font-family="Helvetica,sans-Serif" font-size="10.00">/home/runner/work/kynema</text>
<text text-anchor="start" x="327.5" y="-337" font-family="Helvetica,sans-Serif" font-size="10.00">&#45;sgf/kynema&#45;sgf/src/wind</text>
<text text-anchor="middle" x="417" y="-326" font-family="Helvetica,sans-Serif" font-size="10.00">_energy/actuator/aero/AirfoilTableI.H</text>
</a>
</g>
</g>
<!-- Node2 -->
<g id="Node000002" class="node">
<title>Node2</title>
<g id="a_Node000002"><a xlink:href="_airfoil_table_8_h.html" target="_top" xlink:title=" ">
<polygon fill="white" stroke="#666666" points="513,-283 321,-283 321,-242 513,-242 513,-283"/>
<text text-anchor="start" x="329" y="-271" font-family="Helvetica,sans-Serif" font-size="10.00">/home/runner/work/kynema</text>
<text text-anchor="start" x="329" y="-260" font-family="Helvetica,sans-Serif" font-size="10.00">&#45;sgf/kynema&#45;sgf/src/wind</text>
<text text-anchor="middle" x="417" y="-249" font-family="Helvetica,sans-Serif" font-size="10.00">_energy/actuator/aero/AirfoilTable.H</text>
</a>
</g>
</g>
<!-- Node1&#45;&gt;Node2 -->
<g id="edge1_Node000001_Node000002" class="edge">
<title>Node1&#45;&gt;Node2</title>
<g id="a_edge1_Node000001_Node000002"><a xlink:title=" ">
<path fill="none" stroke="#63b8ff" d="M410.38,-308.69C410.09,-300.08 410.29,-290.9 410.99,-283.07"/>
<polygon fill="#63b8ff" stroke="#63b8ff" points="406.89,-309.02 410.98,-318.79 413.88,-308.6 406.89,-309.02"/>
</a>
</g>
</g>
<!-- Node2&#45;&gt;Node1 -->
<g id="edge3_Node000002_Node000001" class="edge">
<title>Node2&#45;&gt;Node1</title>
<g id="a_edge3_Node000002_Node000001"><a xlink:title=" ">
<path fill="none" stroke="#63b8ff" d="M423.62,-293.16C423.91,-301.77 423.71,-310.96 423.02,-318.79"/>
<polygon fill="#63b8ff" stroke="#63b8ff" points="427.1,-292.85 423.01,-283.07 420.12,-293.27 427.1,-292.85"/>
</a>
</g>
</g>
<!-- Node3 -->
<g id="Node000003" class="node">
<title>Node3</title>
<g id="a_Node000003"><a xlink:href="_airfoil_table_8cpp.html" target="_top" xlink:title=" ">
<polygon fill="white" stroke="#666666" points="202,-206 0,-206 0,-165 202,-165 202,-206"/>
<text text-anchor="start" x="8" y="-194" font-family="Helvetica,sans-Serif" font-size="10.00">/home/runner/work/kynema</text>
<text text-anchor="start" x="8" y="-183" font-family="Helvetica,sans-Serif" font-size="10.00">&#45;sgf/kynema&#45;sgf/src/wind</text>
<text text-anchor="middle" x="101" y="-172" font-family="Helvetica,sans-Serif" font-size="10.00">_energy/actuator/aero/AirfoilTable.cpp</text>
</a>
</g>
</g>
<!-- Node2&#45;&gt;Node3 -->
<g id="edge2_Node000002_Node000003" class="edge">
<title>Node2&#45;&gt;Node3</title>
<g id="a_edge2_Node000002_Node000003"><a xlink:title=" ">
<path fill="none" stroke="#63b8ff" d="M324.8,-239.62C280.04,-228.99 226.71,-216.34 183.34,-206.04"/>
<polygon fill="#63b8ff" stroke="#63b8ff" points="324.26,-243.09 334.8,-241.99 325.88,-236.28 324.26,-243.09"/>
</a>
</g>
</g>
<!-- Node4 -->
<g id="Node000004" class="node">
<title>Node4</title>
<g id="a_Node000004"><a xlink:href="_fixed_wing_8_h.html" target="_top" xlink:title=" ">
<polygon fill="white" stroke="#666666" points="409.5,-206 220.5,-206 220.5,-165 409.5,-165 409.5,-206"/>
<text text-anchor="start" x="228.5" y="-194" font-family="Helvetica,sans-Serif" font-size="10.00">/home/runner/work/kynema</text>
<text text-anchor="start" x="228.5" y="-183" font-family="Helvetica,sans-Serif" font-size="10.00">&#45;sgf/kynema&#45;sgf/src/wind</text>
<text text-anchor="middle" x="315" y="-172" font-family="Helvetica,sans-Serif" font-size="10.00">_energy/actuator/wing/FixedWing.H</text>
</a>
</g>
</g>
<!-- Node2&#45;&gt;Node4 -->
<g id="edge4_Node000002_Node000004" class="edge">
<title>Node2&#45;&gt;Node4</title>
<g id="a_edge4_Node000002_Node000004"><a xlink:title=" ">
<path fill="none" stroke="#63b8ff" d="M382.07,-235.82C368.88,-226.11 354.08,-215.24 341.75,-206.17"/>
<polygon fill="#63b8ff" stroke="#63b8ff" points="380.34,-238.89 390.47,-241.99 384.48,-233.25 380.34,-238.89"/>
</a>
</g>
</g>
<!-- Node7 -->
<g id="Node000007" class="node">
<title>Node7</title>
<g id="a_Node000007"><a xlink:href="_flat_plate_8_h.html" target="_top" xlink:title=" ">
<polygon fill="white" stroke="#666666" points="813,-206 631,-206 631,-165 813,-165 813,-206"/>
<text text-anchor="start" x="639" y="-194" font-family="Helvetica,sans-Serif" font-size="10.00">/home/runner/work/kynema</text>
<text text-anchor="start" x="639" y="-183" font-family="Helvetica,sans-Serif" font-size="10.00">&#45;sgf/kynema&#45;sgf/src/wind</text>
<text text-anchor="middle" x="722" y="-172" font-family="Helvetica,sans-Serif" font-size="10.00">_energy/actuator/wing/FlatPlate.H</text>
</a>
</g>
</g>
<!-- Node2&#45;&gt;Node7 -->
<g id="edge8_Node000002_Node000007" class="edge">
<title>Node2&#45;&gt;Node7</title>
<g id="a_edge8_Node000002_Node000007"><a xlink:title=" ">
<path fill="none" stroke="#63b8ff" d="M506.26,-239.55C549.41,-228.94 600.75,-216.31 642.53,-206.04"/>
<polygon fill="#63b8ff" stroke="#63b8ff" points="505.21,-236.2 496.34,-241.99 506.89,-243 505.21,-236.2"/>
</a>
</g>
</g>
<!-- Node10 -->
<g id="Node000010" class="node">
<title>Node10</title>
<g id="a_Node000010"><a xlink:href="wing__ops_8_h.html" target="_top" xlink:title=" ">
<polygon fill="white" stroke="#666666" points="612.5,-206 427.5,-206 427.5,-165 612.5,-165 612.5,-206"/>
<text text-anchor="start" x="435.5" y="-194" font-family="Helvetica,sans-Serif" font-size="10.00">/home/runner/work/kynema</text>
<text text-anchor="start" x="435.5" y="-183" font-family="Helvetica,sans-Serif" font-size="10.00">&#45;sgf/kynema&#45;sgf/src/wind</text>
<text text-anchor="middle" x="520" y="-172" font-family="Helvetica,sans-Serif" font-size="10.00">_energy/actuator/wing/wing_ops.H</text>
</a>
</g>
</g>
<!-- Node2&#45;&gt;Node10 -->
<g id="edge12_Node000002_Node000010" class="edge">
<title>Node2&#45;&gt;Node10</title>
<g id="a_edge12_Node000002_Node000010"><a xlink:title=" ">
<path fill="none" stroke="#63b8ff" d="M451.89,-236.09C465.31,-226.32 480.42,-215.32 492.98,-206.17"/>
<polygon fill="#63b8ff" stroke="#63b8ff" points="449.82,-233.27 443.79,-241.99 453.94,-238.93 449.82,-233.27"/>
</a>
</g>
</g>
<!-- Node5 -->
<g id="Node000005" class="node">
<title>Node5</title>
<g id="a_Node000005"><a xlink:href="_fixed_wing_8cpp.html" target="_top" xlink:title=" ">
<polygon fill="white" stroke="#666666" points="397.5,-41 198.5,-41 198.5,0 397.5,0 397.5,-41"/>
<text text-anchor="start" x="206.5" y="-29" font-family="Helvetica,sans-Serif" font-size="10.00">/home/runner/work/kynema</text>
<text text-anchor="start" x="206.5" y="-18" font-family="Helvetica,sans-Serif" font-size="10.00">&#45;sgf/kynema&#45;sgf/src/wind</text>
<text text-anchor="middle" x="298" y="-7" font-family="Helvetica,sans-Serif" font-size="10.00">_energy/actuator/wing/FixedWing.cpp</text>
</a>
</g>
</g>
<!-- Node4&#45;&gt;Node5 -->
<g id="edge5_Node000004_Node000005" class="edge">
<title>Node4&#45;&gt;Node5</title>
<g id="a_edge5_Node000004_Node000005"><a xlink:title=" ">
<path fill="none" stroke="#63b8ff" d="M283.76,-157.72C276.16,-149.38 269.06,-139.57 265,-129 256.71,-107.43 258.88,-99.28 265,-77 268.54,-64.14 275.91,-51.24 282.8,-41.12"/>
<polygon fill="#63b8ff" stroke="#63b8ff" points="281.32,-160.24 290.81,-164.96 286.33,-155.35 281.32,-160.24"/>
</a>
</g>
</g>
<!-- Node6 -->
<g id="Node000006" class="node">
<title>Node6</title>
<g id="a_Node000006"><a xlink:href="fixed__wing__ops_8_h.html" target="_top" xlink:title=" ">
<polygon fill="white" stroke="#666666" points="426,-129 274,-129 274,-77 426,-77 426,-129"/>
<text text-anchor="start" x="282" y="-117" font-family="Helvetica,sans-Serif" font-size="10.00">/home/runner/work/kynema</text>
<text text-anchor="start" x="282" y="-106" font-family="Helvetica,sans-Serif" font-size="10.00">&#45;sgf/kynema&#45;sgf/src/wind</text>
<text text-anchor="start" x="282" y="-95" font-family="Helvetica,sans-Serif" font-size="10.00">_energy/actuator/wing/fixed</text>
<text text-anchor="middle" x="350" y="-84" font-family="Helvetica,sans-Serif" font-size="10.00">_wing_ops.H</text>
</a>
</g>
</g>
<!-- Node4&#45;&gt;Node6 -->
<g id="edge6_Node000004_Node000006" class="edge">
<title>Node4&#45;&gt;Node6</title>
<g id="a_edge6_Node000004_Node000006"><a xlink:title=" ">
<path fill="none" stroke="#63b8ff" d="M327.69,-155.32C331.41,-146.75 335.46,-137.45 339.06,-129.16"/>
<polygon fill="#63b8ff" stroke="#63b8ff" points="324.43,-154.03 323.65,-164.6 330.85,-156.83 324.43,-154.03"/>
</a>
</g>
</g>
<!-- Node6&#45;&gt;Node5 -->
<g id="edge7_Node000006_Node000005" class="edge">
<title>Node6&#45;&gt;Node5</title>
<g id="a_edge7_Node000006_Node000005"><a xlink:title=" ">
<path fill="none" stroke="#63b8ff" d="M328.24,-68.31C322.26,-59.05 315.97,-49.32 310.69,-41.15"/>
<polygon fill="#63b8ff" stroke="#63b8ff" points="325.47,-70.47 333.83,-76.97 331.35,-66.67 325.47,-70.47"/>
</a>
</g>
</g>
<!-- Node8 -->
<g id="Node000008" class="node">
<title>Node8</title>
<g id="a_Node000008"><a xlink:href="_flat_plate_8cpp.html" target="_top" xlink:title=" ">
<polygon fill="white" stroke="#666666" points="838,-41 646,-41 646,0 838,0 838,-41"/>
<text text-anchor="start" x="654" y="-29" font-family="Helvetica,sans-Serif" font-size="10.00">/home/runner/work/kynema</text>
<text text-anchor="start" x="654" y="-18" font-family="Helvetica,sans-Serif" font-size="10.00">&#45;sgf/kynema&#45;sgf/src/wind</text>
<text text-anchor="middle" x="742" y="-7" font-family="Helvetica,sans-Serif" font-size="10.00">_energy/actuator/wing/FlatPlate.cpp</text>
</a>
</g>
</g>
<!-- Node7&#45;&gt;Node8 -->
<g id="edge9_Node000007_Node000008" class="edge">
<title>Node7&#45;&gt;Node8</title>
<g id="a_edge9_Node000007_Node000008"><a xlink:title=" ">
<path fill="none" stroke="#63b8ff" d="M755.29,-157.8C763.27,-149.51 770.71,-139.7 775,-129 783.6,-107.55 781.12,-99.28 775,-77 771.46,-64.14 764.09,-51.24 757.2,-41.12"/>
<polygon fill="#63b8ff" stroke="#63b8ff" points="752.64,-155.5 747.89,-164.98 757.51,-160.53 752.64,-155.5"/>
</a>
</g>
</g>
<!-- Node9 -->
<g id="Node000009" class="node">
<title>Node9</title>
<g id="a_Node000009"><a xlink:href="flat__plate__ops_8_h.html" target="_top" xlink:title=" ">
<polygon fill="white" stroke="#666666" points="765.5,-129 614.5,-129 614.5,-77 765.5,-77 765.5,-129"/>
<text text-anchor="start" x="622.5" y="-117" font-family="Helvetica,sans-Serif" font-size="10.00">/home/runner/work/kynema</text>
<text text-anchor="start" x="622.5" y="-106" font-family="Helvetica,sans-Serif" font-size="10.00">&#45;sgf/kynema&#45;sgf/src/wind</text>
<text text-anchor="start" x="622.5" y="-95" font-family="Helvetica,sans-Serif" font-size="10.00">_energy/actuator/wing/flat</text>
<text text-anchor="middle" x="690" y="-84" font-family="Helvetica,sans-Serif" font-size="10.00">_plate_ops.H</text>
</a>
</g>
</g>
<!-- Node7&#45;&gt;Node9 -->
<g id="edge10_Node000007_Node000009" class="edge">
<title>Node7&#45;&gt;Node9</title>
<g id="a_edge10_Node000007_Node000009"><a xlink:title=" ">
<path fill="none" stroke="#63b8ff" d="M710.29,-155.05C706.91,-146.55 703.26,-137.36 700,-129.16"/>
<polygon fill="#63b8ff" stroke="#63b8ff" points="707.14,-156.6 714.09,-164.6 713.65,-154.02 707.14,-156.6"/>
</a>
</g>
</g>
<!-- Node9&#45;&gt;Node8 -->
<g id="edge11_Node000009_Node000008" class="edge">
<title>Node9&#45;&gt;Node8</title>
<g id="a_edge11_Node000009_Node000008"><a xlink:title=" ">
<path fill="none" stroke="#63b8ff" d="M711.76,-68.31C717.74,-59.05 724.03,-49.32 729.31,-41.15"/>
<polygon fill="#63b8ff" stroke="#63b8ff" points="708.65,-66.67 706.17,-76.97 714.53,-70.47 708.65,-66.67"/>
</a>
</g>
</g>
<!-- Node10&#45;&gt;Node6 -->
<g id="edge13_Node000010_Node000006" class="edge">
<title>Node10&#45;&gt;Node6</title>
<g id="a_edge13_Node000010_Node000006"><a xlink:title=" ">
<path fill="none" stroke="#63b8ff" d="M469.37,-160.53C448.46,-150.63 424.22,-139.14 403.06,-129.13"/>
<polygon fill="#63b8ff" stroke="#63b8ff" points="467.88,-163.69 478.41,-164.81 470.87,-157.36 467.88,-163.69"/>
</a>
</g>
</g>
<!-- Node10&#45;&gt;Node9 -->
<g id="edge14_Node000010_Node000009" class="edge">
<title>Node10&#45;&gt;Node9</title>
<g id="a_edge14_Node000010_Node000009"><a xlink:title=" ">
<path fill="none" stroke="#63b8ff" d="M570.63,-160.53C591.54,-150.63 615.78,-139.14 636.94,-129.13"/>
<polygon fill="#63b8ff" stroke="#63b8ff" points="569.13,-157.36 561.59,-164.81 572.12,-163.69 569.13,-157.36"/>
</a>
</g>
</g>
<!-- Node11 -->
<g id="Node000011" class="node">
<title>Node11</title>
<g id="a_Node000011"><a xlink:href="wing__ops_8cpp.html" target="_top" xlink:title=" ">
<polygon fill="white" stroke="#666666" points="596,-129 444,-129 444,-77 596,-77 596,-129"/>
<text text-anchor="start" x="452" y="-117" font-family="Helvetica,sans-Serif" font-size="10.00">/home/runner/work/kynema</text>
<text text-anchor="start" x="452" y="-106" font-family="Helvetica,sans-Serif" font-size="10.00">&#45;sgf/kynema&#45;sgf/src/wind</text>
<text text-anchor="start" x="452" y="-95" font-family="Helvetica,sans-Serif" font-size="10.00">_energy/actuator/wing/wing</text>
<text text-anchor="middle" x="520" y="-84" font-family="Helvetica,sans-Serif" font-size="10.00">_ops.cpp</text>
</a>
</g>
</g>
<!-- Node10&#45;&gt;Node11 -->
<g id="edge15_Node000010_Node000011" class="edge">
<title>Node10&#45;&gt;Node11</title>
<g id="a_edge15_Node000010_Node000011"><a xlink:title=" ">
<path fill="none" stroke="#63b8ff" d="M520,-154.49C520,-146.15 520,-137.19 520,-129.16"/>
<polygon fill="#63b8ff" stroke="#63b8ff" points="516.5,-154.6 520,-164.6 523.5,-154.6 516.5,-154.6"/>
</a>
</g>
</g>
</g>
</svg>
