<?xml version="1.0" encoding="UTF-8" standalone="no"?>
<!DOCTYPE svg PUBLIC "-//W3C//DTD SVG 1.1//EN"
 "http://www.w3.org/Graphics/SVG/1.1/DTD/svg11.dtd">
<!-- Generated by graphviz version 2.43.0 (0)
 -->
<!-- Title: /home/runner/work/kynema&#45;sgf/kynema&#45;sgf/src/immersed_boundary/bluff_body/BluffBody.H Pages: 1 -->
<!--zoomable 302 -->

<svg id="main" version="1.1" xmlns="http://www.w3.org/2000/svg" xmlns:xlink="http://www.w3.org/1999/xlink" xml:space="preserve" onload="init(evt)">

<style type="text/css"><![CDATA[
.node, .edge {opacity: 0.7;}
.node.selected, .edge.selected {opacity: 1;}
.edge:hover path { stroke: red; }
.edge:hover polygon { stroke: red; fill: red; }
]]></style>

<defs>
  <circle id="rim" cx="0" cy="0" r="7"/>
  <circle id="rim2" cx="0" cy="0" r="3.5"/>
  <g id="zoomPlus">
    <use xlink:href="#rim" fill="#404040"><set attributeName="fill" to="#808080" begin="zoomplus.mouseover" end="zoomplus.mouseout"/></use>
    <path d="M-4,0h8M0,-4v8" fill="none" stroke="white" stroke-width="1.5" pointer-events="none"/>
  </g>
  <g id="zoomMin">
    <use xlink:href="#rim" fill="#404040"><set attributeName="fill" to="#808080" begin="zoomminus.mouseover" end="zoomminus.mouseout"/></use>
    <path d="M-4,0h8" fill="none" stroke="white" stroke-width="1.5" pointer-events="none"/>
  </g>
  <g id="arrowUp" transform="translate(30 24)">
    <use xlink:href="#rim"/>
    <path pointer-events="none" fill="none" stroke="white" stroke-width="1.5" d="M0,-3.0v7 M-2.5,-0.5L0,-3.0L2.5,-0.5"/>
  </g>
  <g id="arrowRight" transform="rotate(90) translate(36 -43)">
    <use xlink:href="#rim"/>
    <path pointer-events="none" fill="none" stroke="white" stroke-width="1.5" d="M0,-3.0v7 M-2.5,-0.5L0,-3.0L2.5,-0.5"/>
  </g>
  <g id="arrowDown" transform="rotate(180) translate(-30 -48)">
    <use xlink:href="#rim"/>
    <path pointer-events="none" fill="none" stroke="white" stroke-width="1.5" d="M0,-3.0v7 M-2.5,-0.5L0,-3.0L2.5,-0.5"/>
  </g>
  <g id="arrowLeft" transform="rotate(270) translate(-36 17)">
    <use xlink:href="#rim"/>
    <path pointer-events="none" fill="none" stroke="white" stroke-width="1.5" d="M0,-3.0v7 M-2.5,-0.5L0,-3.0L2.5,-0.5"/>
  </g>
  <g id="resetDef">
    <use xlink:href="#rim2" fill="#404040"><set attributeName="fill" to="#808080" begin="reset.mouseover" end="reset.mouseout"/></use>
  </g>
</defs>
<script type="application/ecmascript">
var viewWidth = 932;
var viewHeight = 302;
var sectionId = 'dynsection-1';
</script>
<script type="application/ecmascript" xlink:href="svg.min.js"/>
<svg id="graph" class="graph">
<g id="viewport">
<title>/home/runner/work/kynema&#45;sgf/kynema&#45;sgf/src/immersed_boundary/bluff_body/BluffBody.H</title>
<!-- Node1 -->
<g id="Node000001" class="node">
<title>Node1</title>
<g id="a_Node000001"><a xlink:title=" ">
<polygon fill="#999999" stroke="#666666" points="532.5,-294 351.5,-294 351.5,-253 532.5,-253 532.5,-294"/>
<text text-anchor="start" x="359.5" y="-282" font-family="Helvetica,sans-Serif" font-size="10.00">/home/runner/work/kynema</text>
<text text-anchor="start" x="359.5" y="-271" font-family="Helvetica,sans-Serif" font-size="10.00">&#45;sgf/kynema&#45;sgf/src/immersed</text>
<text text-anchor="middle" x="442" y="-260" font-family="Helvetica,sans-Serif" font-size="10.00">_boundary/bluff_body/BluffBody.H</text>
</a>
</g>
</g>
<!-- Node2 -->
<g id="Node000002" class="node">
<title>Node2</title>
<g id="a_Node000002"><a xlink:href="_box_8_h.html" target="_top" xlink:title=" ">
<polygon fill="white" stroke="#666666" points="215,-211.5 49,-211.5 49,-170.5 215,-170.5 215,-211.5"/>
<text text-anchor="start" x="57" y="-199.5" font-family="Helvetica,sans-Serif" font-size="10.00">/home/runner/work/kynema</text>
<text text-anchor="start" x="57" y="-188.5" font-family="Helvetica,sans-Serif" font-size="10.00">&#45;sgf/kynema&#45;sgf/src/immersed</text>
<text text-anchor="middle" x="132" y="-177.5" font-family="Helvetica,sans-Serif" font-size="10.00">_boundary/bluff_body/Box.H</text>
</a>
</g>
</g>
<!-- Node1&#45;&gt;Node2 -->
<g id="edge1_Node000001_Node000002" class="edge">
<title>Node1&#45;&gt;Node2</title>
<g id="a_edge1_Node000001_Node000002"><a xlink:title=" ">
<path fill="none" stroke="#63b8ff" d="M356.74,-250.36C309.92,-238.2 252.38,-223.26 207.24,-211.54"/>
<polygon fill="#63b8ff" stroke="#63b8ff" points="356,-253.78 366.56,-252.91 357.76,-247.01 356,-253.78"/>
</a>
</g>
</g>
<!-- Node5 -->
<g id="Node000005" class="node">
<title>Node5</title>
<g id="a_Node000005"><a xlink:href="_cylinder_8_h.html" target="_top" xlink:title=" ">
<polygon fill="white" stroke="#666666" points="435.5,-211.5 260.5,-211.5 260.5,-170.5 435.5,-170.5 435.5,-211.5"/>
<text text-anchor="start" x="268.5" y="-199.5" font-family="Helvetica,sans-Serif" font-size="10.00">/home/runner/work/kynema</text>
<text text-anchor="start" x="268.5" y="-188.5" font-family="Helvetica,sans-Serif" font-size="10.00">&#45;sgf/kynema&#45;sgf/src/immersed</text>
<text text-anchor="middle" x="348" y="-177.5" font-family="Helvetica,sans-Serif" font-size="10.00">_boundary/bluff_body/Cylinder.H</text>
</a>
</g>
</g>
<!-- Node1&#45;&gt;Node5 -->
<g id="edge5_Node000001_Node000005" class="edge">
<title>Node1&#45;&gt;Node5</title>
<g id="a_edge5_Node000001_Node000005"><a xlink:title=" ">
<path fill="none" stroke="#63b8ff" d="M410.93,-245.89C397.89,-234.72 382.99,-221.97 370.97,-211.67"/>
<polygon fill="#63b8ff" stroke="#63b8ff" points="408.89,-248.75 418.76,-252.6 413.45,-243.44 408.89,-248.75"/>
</a>
</g>
</g>
<!-- Node8 -->
<g id="Node000008" class="node">
<title>Node8</title>
<g id="a_Node000008"><a xlink:href="_sphere_8_h.html" target="_top" xlink:title=" ">
<polygon fill="white" stroke="#666666" points="856.5,-211.5 687.5,-211.5 687.5,-170.5 856.5,-170.5 856.5,-211.5"/>
<text text-anchor="start" x="695.5" y="-199.5" font-family="Helvetica,sans-Serif" font-size="10.00">/home/runner/work/kynema</text>
<text text-anchor="start" x="695.5" y="-188.5" font-family="Helvetica,sans-Serif" font-size="10.00">&#45;sgf/kynema&#45;sgf/src/immersed</text>
<text text-anchor="middle" x="772" y="-177.5" font-family="Helvetica,sans-Serif" font-size="10.00">_boundary/bluff_body/Sphere.H</text>
</a>
</g>
</g>
<!-- Node1&#45;&gt;Node8 -->
<g id="edge9_Node000001_Node000008" class="edge">
<title>Node1&#45;&gt;Node8</title>
<g id="a_edge9_Node000001_Node000008"><a xlink:title=" ">
<path fill="none" stroke="#63b8ff" d="M532.13,-250.51C582.08,-238.33 643.65,-223.31 691.91,-211.54"/>
<polygon fill="#63b8ff" stroke="#63b8ff" points="531.19,-247.14 522.31,-252.91 532.85,-253.94 531.19,-247.14"/>
</a>
</g>
</g>
<!-- Node11 -->
<g id="Node000011" class="node">
<title>Node11</title>
<g id="a_Node000011"><a xlink:href="bluff__body__ops_8_h.html" target="_top" xlink:title=" ">
<polygon fill="white" stroke="#666666" points="620,-217 454,-217 454,-165 620,-165 620,-217"/>
<text text-anchor="start" x="462" y="-205" font-family="Helvetica,sans-Serif" font-size="10.00">/home/runner/work/kynema</text>
<text text-anchor="start" x="462" y="-194" font-family="Helvetica,sans-Serif" font-size="10.00">&#45;sgf/kynema&#45;sgf/src/immersed</text>
<text text-anchor="start" x="462" y="-183" font-family="Helvetica,sans-Serif" font-size="10.00">_boundary/bluff_body/bluff</text>
<text text-anchor="middle" x="537" y="-172" font-family="Helvetica,sans-Serif" font-size="10.00">_body_ops.H</text>
</a>
</g>
</g>
<!-- Node1&#45;&gt;Node11 -->
<g id="edge13_Node000001_Node000011" class="edge">
<title>Node1&#45;&gt;Node11</title>
<g id="a_edge13_Node000001_Node000011"><a xlink:title=" ">
<path fill="none" stroke="#63b8ff" d="M473.2,-246.06C484.17,-236.76 496.47,-226.35 507.31,-217.16"/>
<polygon fill="#63b8ff" stroke="#63b8ff" points="470.85,-243.47 465.48,-252.6 475.38,-248.81 470.85,-243.47"/>
</a>
</g>
</g>
<!-- Node3 -->
<g id="Node000003" class="node">
<title>Node3</title>
<g id="a_Node000003"><a xlink:href="_box_8cpp.html" target="_top" xlink:title=" ">
<polygon fill="white" stroke="#666666" points="166,-41 0,-41 0,0 166,0 166,-41"/>
<text text-anchor="start" x="8" y="-29" font-family="Helvetica,sans-Serif" font-size="10.00">/home/runner/work/kynema</text>
<text text-anchor="start" x="8" y="-18" font-family="Helvetica,sans-Serif" font-size="10.00">&#45;sgf/kynema&#45;sgf/src/immersed</text>
<text text-anchor="middle" x="83" y="-7" font-family="Helvetica,sans-Serif" font-size="10.00">_boundary/bluff_body/Box.cpp</text>
</a>
</g>
</g>
<!-- Node2&#45;&gt;Node3 -->
<g id="edge2_Node000002_Node000003" class="edge">
<title>Node2&#45;&gt;Node3</title>
<g id="a_edge2_Node000002_Node000003"><a xlink:title=" ">
<path fill="none" stroke="#63b8ff" d="M72.33,-165.4C57.5,-156.26 43.44,-144.28 35,-129 23.82,-108.77 26.93,-98.66 35,-77 40.07,-63.39 50.14,-50.9 59.76,-41.22"/>
<polygon fill="#63b8ff" stroke="#63b8ff" points="70.7,-168.5 81.11,-170.45 74.19,-162.43 70.7,-168.5"/>
</a>
</g>
</g>
<!-- Node4 -->
<g id="Node000004" class="node">
<title>Node4</title>
<g id="a_Node000004"><a xlink:href="box__ops_8_h.html" target="_top" xlink:title=" ">
<polygon fill="white" stroke="#666666" points="220,-123.5 44,-123.5 44,-82.5 220,-82.5 220,-123.5"/>
<text text-anchor="start" x="52" y="-111.5" font-family="Helvetica,sans-Serif" font-size="10.00">/home/runner/work/kynema</text>
<text text-anchor="start" x="52" y="-100.5" font-family="Helvetica,sans-Serif" font-size="10.00">&#45;sgf/kynema&#45;sgf/src/immersed</text>
<text text-anchor="middle" x="132" y="-89.5" font-family="Helvetica,sans-Serif" font-size="10.00">_boundary/bluff_body/box_ops.H</text>
</a>
</g>
</g>
<!-- Node2&#45;&gt;Node4 -->
<g id="edge3_Node000002_Node000004" class="edge">
<title>Node2&#45;&gt;Node4</title>
<g id="a_edge3_Node000002_Node000004"><a xlink:title=" ">
<path fill="none" stroke="#63b8ff" d="M132,-160.36C132,-148.26 132,-134.58 132,-123.74"/>
<polygon fill="#63b8ff" stroke="#63b8ff" points="128.5,-160.49 132,-170.49 135.5,-160.49 128.5,-160.49"/>
</a>
</g>
</g>
<!-- Node4&#45;&gt;Node3 -->
<g id="edge4_Node000004_Node000003" class="edge">
<title>Node4&#45;&gt;Node3</title>
<g id="a_edge4_Node000004_Node000003"><a xlink:title=" ">
<path fill="none" stroke="#63b8ff" d="M114.64,-73.48C108.13,-62.79 100.89,-50.88 94.97,-41.17"/>
<polygon fill="#63b8ff" stroke="#63b8ff" points="111.7,-75.38 119.89,-82.1 117.68,-71.74 111.7,-75.38"/>
</a>
</g>
</g>
<!-- Node6 -->
<g id="Node000006" class="node">
<title>Node6</title>
<g id="a_Node000006"><a xlink:href="_cylinder_8cpp.html" target="_top" xlink:title=" ">
<polygon fill="white" stroke="#666666" points="388.5,-41 203.5,-41 203.5,0 388.5,0 388.5,-41"/>
<text text-anchor="start" x="211.5" y="-29" font-family="Helvetica,sans-Serif" font-size="10.00">/home/runner/work/kynema</text>
<text text-anchor="start" x="211.5" y="-18" font-family="Helvetica,sans-Serif" font-size="10.00">&#45;sgf/kynema&#45;sgf/src/immersed</text>
<text text-anchor="middle" x="296" y="-7" font-family="Helvetica,sans-Serif" font-size="10.00">_boundary/bluff_body/Cylinder.cpp</text>
</a>
</g>
</g>
<!-- Node5&#45;&gt;Node6 -->
<g id="edge6_Node000005_Node000006" class="edge">
<title>Node5&#45;&gt;Node6</title>
<g id="a_edge6_Node000005_Node000006"><a xlink:title=" ">
<path fill="none" stroke="#63b8ff" d="M299.36,-164.53C286.47,-155.2 274.15,-143.34 267,-129 252.68,-100.29 269.12,-63.61 282.46,-41.37"/>
<polygon fill="#63b8ff" stroke="#63b8ff" points="297.63,-167.58 307.87,-170.29 301.56,-161.78 297.63,-167.58"/>
</a>
</g>
</g>
<!-- Node7 -->
<g id="Node000007" class="node">
<title>Node7</title>
<g id="a_Node000007"><a xlink:href="cylinder__ops_8_h.html" target="_top" xlink:title=" ">
<polygon fill="white" stroke="#666666" points="473.5,-123.5 276.5,-123.5 276.5,-82.5 473.5,-82.5 473.5,-123.5"/>
<text text-anchor="start" x="284.5" y="-111.5" font-family="Helvetica,sans-Serif" font-size="10.00">/home/runner/work/kynema</text>
<text text-anchor="start" x="284.5" y="-100.5" font-family="Helvetica,sans-Serif" font-size="10.00">&#45;sgf/kynema&#45;sgf/src/immersed</text>
<text text-anchor="middle" x="375" y="-89.5" font-family="Helvetica,sans-Serif" font-size="10.00">_boundary/bluff_body/cylinder_ops.H</text>
</a>
</g>
</g>
<!-- Node5&#45;&gt;Node7 -->
<g id="edge7_Node000005_Node000007" class="edge">
<title>Node5&#45;&gt;Node7</title>
<g id="a_edge7_Node000005_Node000007"><a xlink:title=" ">
<path fill="none" stroke="#63b8ff" d="M357.19,-160.73C361.02,-148.53 365.36,-134.69 368.8,-123.74"/>
<polygon fill="#63b8ff" stroke="#63b8ff" points="353.78,-159.9 354.13,-170.49 360.46,-161.99 353.78,-159.9"/>
</a>
</g>
</g>
<!-- Node7&#45;&gt;Node6 -->
<g id="edge8_Node000007_Node000006" class="edge">
<title>Node7&#45;&gt;Node6</title>
<g id="a_edge8_Node000007_Node000006"><a xlink:title=" ">
<path fill="none" stroke="#63b8ff" d="M348.26,-74.76C337.46,-63.74 325.22,-51.27 315.3,-41.17"/>
<polygon fill="#63b8ff" stroke="#63b8ff" points="345.97,-77.42 355.47,-82.1 350.97,-72.51 345.97,-77.42"/>
</a>
</g>
</g>
<!-- Node9 -->
<g id="Node000009" class="node">
<title>Node9</title>
<g id="a_Node000009"><a xlink:href="_sphere_8cpp.html" target="_top" xlink:title=" ">
<polygon fill="white" stroke="#666666" points="923.5,-41 744.5,-41 744.5,0 923.5,0 923.5,-41"/>
<text text-anchor="start" x="752.5" y="-29" font-family="Helvetica,sans-Serif" font-size="10.00">/home/runner/work/kynema</text>
<text text-anchor="start" x="752.5" y="-18" font-family="Helvetica,sans-Serif" font-size="10.00">&#45;sgf/kynema&#45;sgf/src/immersed</text>
<text text-anchor="middle" x="834" y="-7" font-family="Helvetica,sans-Serif" font-size="10.00">_boundary/bluff_body/Sphere.cpp</text>
</a>
</g>
</g>
<!-- Node8&#45;&gt;Node9 -->
<g id="edge10_Node000008_Node000009" class="edge">
<title>Node8&#45;&gt;Node9</title>
<g id="a_edge10_Node000008_Node000009"><a xlink:title=" ">
<path fill="none" stroke="#63b8ff" d="M838.08,-165.45C853.53,-156.43 868.08,-144.5 877,-129 888.53,-108.97 884.48,-98.87 877,-77 872.42,-63.62 863.17,-50.97 854.41,-41.14"/>
<polygon fill="#63b8ff" stroke="#63b8ff" points="836.03,-162.58 828.91,-170.43 839.37,-168.73 836.03,-162.58"/>
</a>
</g>
</g>
<!-- Node10 -->
<g id="Node000010" class="node">
<title>Node10</title>
<g id="a_Node000010"><a xlink:href="sphere__ops_8_h.html" target="_top" xlink:title=" ">
<polygon fill="white" stroke="#666666" points="867.5,-123.5 676.5,-123.5 676.5,-82.5 867.5,-82.5 867.5,-123.5"/>
<text text-anchor="start" x="684.5" y="-111.5" font-family="Helvetica,sans-Serif" font-size="10.00">/home/runner/work/kynema</text>
<text text-anchor="start" x="684.5" y="-100.5" font-family="Helvetica,sans-Serif" font-size="10.00">&#45;sgf/kynema&#45;sgf/src/immersed</text>
<text text-anchor="middle" x="772" y="-89.5" font-family="Helvetica,sans-Serif" font-size="10.00">_boundary/bluff_body/sphere_ops.H</text>
</a>
</g>
</g>
<!-- Node8&#45;&gt;Node10 -->
<g id="edge11_Node000008_Node000010" class="edge">
<title>Node8&#45;&gt;Node10</title>
<g id="a_edge11_Node000008_Node000010"><a xlink:title=" ">
<path fill="none" stroke="#63b8ff" d="M772,-160.36C772,-148.26 772,-134.58 772,-123.74"/>
<polygon fill="#63b8ff" stroke="#63b8ff" points="768.5,-160.49 772,-170.49 775.5,-160.49 768.5,-160.49"/>
</a>
</g>
</g>
<!-- Node10&#45;&gt;Node9 -->
<g id="edge12_Node000010_Node000009" class="edge">
<title>Node10&#45;&gt;Node9</title>
<g id="a_edge12_Node000010_Node000009"><a xlink:title=" ">
<path fill="none" stroke="#63b8ff" d="M793.47,-74.12C801.83,-63.26 811.22,-51.08 818.85,-41.17"/>
<polygon fill="#63b8ff" stroke="#63b8ff" points="790.65,-72.04 787.33,-82.1 796.2,-76.31 790.65,-72.04"/>
</a>
</g>
</g>
<!-- Node11&#45;&gt;Node4 -->
<g id="edge15_Node000011_Node000004" class="edge">
<title>Node11&#45;&gt;Node4</title>
<g id="a_edge15_Node000011_Node000004"><a xlink:title=" ">
<path fill="none" stroke="#63b8ff" d="M444.31,-165.07C444.2,-165.05 444.1,-165.02 444,-165 402.4,-155.35 297.08,-135.08 220.29,-120.55"/>
<polygon fill="#63b8ff" stroke="#63b8ff" points="443.38,-168.45 453.92,-167.36 445,-161.64 443.38,-168.45"/>
</a>
</g>
</g>
<!-- Node11&#45;&gt;Node7 -->
<g id="edge16_Node000011_Node000007" class="edge">
<title>Node11&#45;&gt;Node7</title>
<g id="a_edge16_Node000011_Node000007"><a xlink:title=" ">
<path fill="none" stroke="#63b8ff" d="M480.78,-160.16C457.93,-148.03 432.17,-134.35 411.79,-123.53"/>
<polygon fill="#63b8ff" stroke="#63b8ff" points="479.23,-163.3 489.71,-164.89 482.52,-157.11 479.23,-163.3"/>
</a>
</g>
</g>
<!-- Node11&#45;&gt;Node10 -->
<g id="edge17_Node000011_Node000010" class="edge">
<title>Node11&#45;&gt;Node10</title>
<g id="a_edge17_Node000011_Node000010"><a xlink:title=" ">
<path fill="none" stroke="#63b8ff" d="M615.05,-161.44C649.04,-149 688.02,-134.73 718.63,-123.53"/>
<polygon fill="#63b8ff" stroke="#63b8ff" points="613.79,-158.17 605.6,-164.89 616.2,-164.74 613.79,-158.17"/>
</a>
</g>
</g>
<!-- Node12 -->
<g id="Node000012" class="node">
<title>Node12</title>
<g id="a_Node000012"><a xlink:href="bluff__body__ops_8cpp.html" target="_top" xlink:title=" ">
<polygon fill="white" stroke="#666666" points="658,-129 492,-129 492,-77 658,-77 658,-129"/>
<text text-anchor="start" x="500" y="-117" font-family="Helvetica,sans-Serif" font-size="10.00">/home/runner/work/kynema</text>
<text text-anchor="start" x="500" y="-106" font-family="Helvetica,sans-Serif" font-size="10.00">&#45;sgf/kynema&#45;sgf/src/immersed</text>
<text text-anchor="start" x="500" y="-95" font-family="Helvetica,sans-Serif" font-size="10.00">_boundary/bluff_body/bluff</text>
<text text-anchor="middle" x="575" y="-84" font-family="Helvetica,sans-Serif" font-size="10.00">_body_ops.cpp</text>
</a>
</g>
</g>
<!-- Node11&#45;&gt;Node12 -->
<g id="edge14_Node000011_Node000012" class="edge">
<title>Node11&#45;&gt;Node12</title>
<g id="a_edge14_Node000011_Node000012"><a xlink:title=" ">
<path fill="none" stroke="#63b8ff" d="M552.29,-155.4C556.17,-146.63 560.26,-137.36 563.88,-129.16"/>
<polygon fill="#63b8ff" stroke="#63b8ff" points="549.04,-154.1 548.2,-164.66 555.44,-156.93 549.04,-154.1"/>
</a>
</g>
</g>
</g>
</svg>

<g id="navigator" transform="translate(0 0)" fill="#404254">
  <rect fill="#f2f5e9" fill-opacity="0.5" stroke="#606060" stroke-width=".5" x="0" y="0" width="60" height="60"/>
  <use id="zoomplus" xlink:href="#zoomPlus" x="17" y="9" onmousedown="handleZoom(evt,'in')"/>
  <use id="zoomminus" xlink:href="#zoomMin" x="42" y="9" onmousedown="handleZoom(evt,'out')"/>
  <use id="reset" xlink:href="#resetDef" x="30" y="36" onmousedown="handleReset()"/>
   <use id="arrowup" xlink:href="#arrowUp" x="0" y="0" onmousedown="handlePan(0,-1)"/>
  <use id="arrowright" xlink:href="#arrowRight" x="0" y="0" onmousedown="handlePan(1,0)"/>
  <use id="arrowdown" xlink:href="#arrowDown" x="0" y="0" onmousedown="handlePan(0,1)"/>
  <use id="arrowleft" xlink:href="#arrowLeft" x="0" y="0" onmousedown="handlePan(-1,0)"/>
</g>
<svg viewBox="0 0 15 15" width="100%" height="30px" preserveAspectRatio="xMaxYMin meet">
 <g id="arrow_out" transform="scale(0.3 0.3)">
  <a xlink:href="_bluff_body_8_h__dep__incl_org.svg" target="_base">
   <rect id="button" ry="5" rx="5" y="6" x="6" height="38" width="38"
        fill="#f2f5e9" fill-opacity="0.5" stroke="#606060" stroke-width="1.0"/>
   <path id="arrow"
     d="M 11.500037,31.436501 C 11.940474,20.09759 22.043105,11.32322 32.158766,21.979434 L 37.068811,17.246167 C 37.068811,17.246167 37.088388,32 37.088388,32 L 22.160133,31.978069 C 22.160133,31.978069 26.997745,27.140456 26.997745,27.140456 C 18.528582,18.264221 13.291696,25.230495 11.500037,31.436501 z"
     style="fill:#404040;"/>
  </a>
 </g>
</svg>

<style type='text/css'>
<![CDATA[
[data-mouse-over-selected='false'] { opacity: 0.7; }
[data-mouse-over-selected='true']  { opacity: 1.0; }
]]>
</style>
<script type="application/ecmascript"><![CDATA[
document.addEventListener('DOMContentLoaded', (event) => {
  highlightEdges();
  highlightAdjacentNodes();
});
]]></script>
</svg>
