<?xml version="1.0" encoding="UTF-8" standalone="no"?>
<!DOCTYPE svg PUBLIC "-//W3C//DTD SVG 1.1//EN"
 "http://www.w3.org/Graphics/SVG/1.1/DTD/svg11.dtd">
<!-- Generated by graphviz version 2.43.0 (0)
 -->
<!-- Title: /home/runner/work/kynema&#45;sgf/kynema&#45;sgf/src/boundary_conditions/field_boundary_fill/BoundaryPlane.H Pages: 1 -->
<svg width="3717pt" height="313pt"
 viewBox="0.00 0.00 3716.50 313.00" xmlns="http://www.w3.org/2000/svg" xmlns:xlink="http://www.w3.org/1999/xlink">
<g id="graph0" class="graph" transform="scale(1 1) rotate(0) translate(4 309)">
<title>/home/runner/work/kynema&#45;sgf/kynema&#45;sgf/src/boundary_conditions/field_boundary_fill/BoundaryPlane.H</title>
<!-- Node1 -->
<g id="Node000001" class="node">
<title>Node1</title>
<g id="a_Node000001"><a xlink:title=" ">
<polygon fill="#999999" stroke="#666666" points="588,-305 426,-305 426,-253 588,-253 588,-305"/>
<text text-anchor="start" x="434" y="-293" font-family="Helvetica,sans-Serif" font-size="10.00">/home/runner/work/kynema</text>
<text text-anchor="start" x="434" y="-282" font-family="Helvetica,sans-Serif" font-size="10.00">&#45;sgf/kynema&#45;sgf/src/boundary</text>
<text text-anchor="start" x="434" y="-271" font-family="Helvetica,sans-Serif" font-size="10.00">_conditions/field_boundary</text>
<text text-anchor="middle" x="507" y="-260" font-family="Helvetica,sans-Serif" font-size="10.00">_fill/BoundaryPlane.H</text>
</a>
</g>
</g>
<!-- Node2 -->
<g id="Node000002" class="node">
<title>Node2</title>
<g id="a_Node000002"><a xlink:href="_boundary_plane_8cpp.html" target="_top" xlink:title=" ">
<polygon fill="white" stroke="#666666" points="162,-129 0,-129 0,-77 162,-77 162,-129"/>
<text text-anchor="start" x="8" y="-117" font-family="Helvetica,sans-Serif" font-size="10.00">/home/runner/work/kynema</text>
<text text-anchor="start" x="8" y="-106" font-family="Helvetica,sans-Serif" font-size="10.00">&#45;sgf/kynema&#45;sgf/src/boundary</text>
<text text-anchor="start" x="8" y="-95" font-family="Helvetica,sans-Serif" font-size="10.00">_conditions/field_boundary</text>
<text text-anchor="middle" x="81" y="-84" font-family="Helvetica,sans-Serif" font-size="10.00">_fill/BoundaryPlane.cpp</text>
</a>
</g>
</g>
<!-- Node1&#45;&gt;Node2 -->
<g id="edge1_Node000001_Node000002" class="edge">
<title>Node1&#45;&gt;Node2</title>
<g id="a_edge1_Node000001_Node000002"><a xlink:title=" ">
<path fill="none" stroke="#63b8ff" d="M415.75,-272.38C287.6,-263.55 67.16,-244.54 43,-217 21.16,-192.1 41.47,-154.19 59.76,-129.25"/>
<polygon fill="#63b8ff" stroke="#63b8ff" points="415.74,-275.89 425.95,-273.08 416.22,-268.91 415.74,-275.89"/>
</a>
</g>
</g>
<!-- Node3 -->
<g id="Node000003" class="node">
<title>Node3</title>
<g id="a_Node000003"><a xlink:href="_ocean_waves_boundary_8cpp.html" target="_top" xlink:title=" ">
<polygon fill="white" stroke="#666666" points="217.5,-217 52.5,-217 52.5,-165 217.5,-165 217.5,-217"/>
<text text-anchor="start" x="60.5" y="-205" font-family="Helvetica,sans-Serif" font-size="10.00">/home/runner/work/kynema</text>
<text text-anchor="start" x="60.5" y="-194" font-family="Helvetica,sans-Serif" font-size="10.00">&#45;sgf/kynema&#45;sgf/src/boundary</text>
<text text-anchor="start" x="60.5" y="-183" font-family="Helvetica,sans-Serif" font-size="10.00">_conditions/field_boundary</text>
<text text-anchor="middle" x="135" y="-172" font-family="Helvetica,sans-Serif" font-size="10.00">_fill/OceanWavesBoundary.cpp</text>
</a>
</g>
</g>
<!-- Node1&#45;&gt;Node3 -->
<g id="edge2_Node000001_Node000003" class="edge">
<title>Node1&#45;&gt;Node3</title>
<g id="a_edge2_Node000001_Node000003"><a xlink:title=" ">
<path fill="none" stroke="#63b8ff" d="M415.83,-259.36C360.95,-247.84 289.78,-232.36 227,-217 223.95,-216.25 220.84,-215.48 217.7,-214.69"/>
<polygon fill="#63b8ff" stroke="#63b8ff" points="415.38,-262.84 425.88,-261.47 416.81,-255.99 415.38,-262.84"/>
</a>
</g>
</g>
<!-- Node4 -->
<g id="Node000004" class="node">
<title>Node4</title>
<g id="a_Node000004"><a xlink:href="_plane_fill_inflow_8_h.html" target="_top" xlink:title=" ">
<polygon fill="white" stroke="#666666" points="398,-217 236,-217 236,-165 398,-165 398,-217"/>
<text text-anchor="start" x="244" y="-205" font-family="Helvetica,sans-Serif" font-size="10.00">/home/runner/work/kynema</text>
<text text-anchor="start" x="244" y="-194" font-family="Helvetica,sans-Serif" font-size="10.00">&#45;sgf/kynema&#45;sgf/src/boundary</text>
<text text-anchor="start" x="244" y="-183" font-family="Helvetica,sans-Serif" font-size="10.00">_conditions/field_boundary</text>
<text text-anchor="middle" x="317" y="-172" font-family="Helvetica,sans-Serif" font-size="10.00">_fill/PlaneFillInflow.H</text>
</a>
</g>
</g>
<!-- Node1&#45;&gt;Node4 -->
<g id="edge3_Node000001_Node000004" class="edge">
<title>Node1&#45;&gt;Node4</title>
<g id="a_edge3_Node000001_Node000004"><a xlink:title=" ">
<path fill="none" stroke="#63b8ff" d="M442.32,-248.73C419.65,-238.46 394.4,-227.03 372.54,-217.14"/>
<polygon fill="#63b8ff" stroke="#63b8ff" points="440.98,-251.96 451.53,-252.89 443.87,-245.58 440.98,-251.96"/>
</a>
</g>
</g>
<!-- Node6 -->
<g id="Node000006" class="node">
<title>Node6</title>
<g id="a_Node000006"><a xlink:href="icns__advection_8cpp.html" target="_top" xlink:title=" ">
<polygon fill="white" stroke="#666666" points="598,-211.5 416,-211.5 416,-170.5 598,-170.5 598,-211.5"/>
<text text-anchor="start" x="424" y="-199.5" font-family="Helvetica,sans-Serif" font-size="10.00">/home/runner/work/kynema</text>
<text text-anchor="start" x="424" y="-188.5" font-family="Helvetica,sans-Serif" font-size="10.00">&#45;sgf/kynema&#45;sgf/src/equation</text>
<text text-anchor="middle" x="507" y="-177.5" font-family="Helvetica,sans-Serif" font-size="10.00">_systems/icns/icns_advection.cpp</text>
</a>
</g>
</g>
<!-- Node1&#45;&gt;Node6 -->
<g id="edge6_Node000001_Node000006" class="edge">
<title>Node1&#45;&gt;Node6</title>
<g id="a_edge6_Node000001_Node000006"><a xlink:title=" ">
<path fill="none" stroke="#63b8ff" d="M507,-242.45C507,-231.94 507,-220.82 507,-211.7"/>
<polygon fill="#63b8ff" stroke="#63b8ff" points="503.5,-242.66 507,-252.66 510.5,-242.66 503.5,-242.66"/>
</a>
</g>
</g>
<!-- Node7 -->
<g id="Node000007" class="node">
<title>Node7</title>
<g id="a_Node000007"><a xlink:href="_overset_ops_8cpp.html" target="_top" xlink:title=" ">
<polygon fill="white" stroke="#666666" points="1673.5,-41 1520.5,-41 1520.5,0 1673.5,0 1673.5,-41"/>
<text text-anchor="start" x="1528.5" y="-29" font-family="Helvetica,sans-Serif" font-size="10.00">/home/runner/work/kynema</text>
<text text-anchor="start" x="1528.5" y="-18" font-family="Helvetica,sans-Serif" font-size="10.00">&#45;sgf/kynema&#45;sgf/src/overset</text>
<text text-anchor="middle" x="1597" y="-7" font-family="Helvetica,sans-Serif" font-size="10.00">/OversetOps.cpp</text>
</a>
</g>
</g>
<!-- Node1&#45;&gt;Node7 -->
<g id="edge7_Node000001_Node000007" class="edge">
<title>Node1&#45;&gt;Node7</title>
<g id="a_edge7_Node000001_Node000007"><a xlink:title=" ">
<path fill="none" stroke="#63b8ff" d="M573.3,-247.43C585.95,-239.08 598.02,-228.96 607,-217 645.71,-165.44 594.95,-117.64 645,-77 712.28,-22.37 1306.31,-19.98 1520.46,-20.92"/>
<polygon fill="#63b8ff" stroke="#63b8ff" points="571.12,-244.67 564.49,-252.93 574.83,-250.61 571.12,-244.67"/>
</a>
</g>
</g>
<!-- Node8 -->
<g id="Node000008" class="node">
<title>Node8</title>
<g id="a_Node000008"><a xlink:href="_a_b_l_8_h.html" target="_top" xlink:title=" ">
<polygon fill="white" stroke="#666666" points="2174.5,-211.5 2023.5,-211.5 2023.5,-170.5 2174.5,-170.5 2174.5,-211.5"/>
<text text-anchor="start" x="2031.5" y="-199.5" font-family="Helvetica,sans-Serif" font-size="10.00">/home/runner/work/kynema</text>
<text text-anchor="start" x="2031.5" y="-188.5" font-family="Helvetica,sans-Serif" font-size="10.00">&#45;sgf/kynema&#45;sgf/src/wind</text>
<text text-anchor="middle" x="2099" y="-177.5" font-family="Helvetica,sans-Serif" font-size="10.00">_energy/ABL.H</text>
</a>
</g>
</g>
<!-- Node1&#45;&gt;Node8 -->
<g id="edge8_Node000001_Node000008" class="edge">
<title>Node1&#45;&gt;Node8</title>
<g id="a_edge8_Node000001_Node000008"><a xlink:title=" ">
<path fill="none" stroke="#63b8ff" d="M598.48,-273.06C884.69,-257.6 1759.74,-210.33 2023.17,-196.1"/>
<polygon fill="#63b8ff" stroke="#63b8ff" points="597.93,-269.58 588.14,-273.62 598.31,-276.57 597.93,-269.58"/>
</a>
</g>
</g>
<!-- Node24 -->
<g id="Node000024" class="node">
<title>Node24</title>
<g id="a_Node000024"><a xlink:href="_a_b_l_8cpp.html" target="_top" xlink:title=" ">
<polygon fill="white" stroke="#666666" points="3708.5,-123.5 3557.5,-123.5 3557.5,-82.5 3708.5,-82.5 3708.5,-123.5"/>
<text text-anchor="start" x="3565.5" y="-111.5" font-family="Helvetica,sans-Serif" font-size="10.00">/home/runner/work/kynema</text>
<text text-anchor="start" x="3565.5" y="-100.5" font-family="Helvetica,sans-Serif" font-size="10.00">&#45;sgf/kynema&#45;sgf/src/wind</text>
<text text-anchor="middle" x="3633" y="-89.5" font-family="Helvetica,sans-Serif" font-size="10.00">_energy/ABL.cpp</text>
</a>
</g>
</g>
<!-- Node1&#45;&gt;Node24 -->
<g id="edge28_Node000001_Node000024" class="edge">
<title>Node1&#45;&gt;Node24</title>
<g id="a_edge28_Node000001_Node000024"><a xlink:title=" ">
<path fill="none" stroke="#63b8ff" d="M598.48,-276.67C1040.84,-269.75 2960.89,-234.08 3549,-129 3556.94,-127.58 3565.19,-125.68 3573.29,-123.55"/>
<polygon fill="#63b8ff" stroke="#63b8ff" points="598.25,-273.17 588.3,-276.83 598.36,-280.17 598.25,-273.17"/>
</a>
</g>
</g>
<!-- Node4&#45;&gt;Node2 -->
<g id="edge4_Node000004_Node000002" class="edge">
<title>Node4&#45;&gt;Node2</title>
<g id="a_edge4_Node000004_Node000002"><a xlink:title=" ">
<path fill="none" stroke="#63b8ff" d="M238.54,-161.41C209.89,-150.97 177.74,-139.25 149.98,-129.14"/>
<polygon fill="#63b8ff" stroke="#63b8ff" points="237.51,-164.76 248.1,-164.89 239.91,-158.18 237.51,-164.76"/>
</a>
</g>
</g>
<!-- Node5 -->
<g id="Node000005" class="node">
<title>Node5</title>
<g id="a_Node000005"><a xlink:href="_plane_fill_inflow_8cpp.html" target="_top" xlink:title=" ">
<polygon fill="white" stroke="#666666" points="398,-129 236,-129 236,-77 398,-77 398,-129"/>
<text text-anchor="start" x="244" y="-117" font-family="Helvetica,sans-Serif" font-size="10.00">/home/runner/work/kynema</text>
<text text-anchor="start" x="244" y="-106" font-family="Helvetica,sans-Serif" font-size="10.00">&#45;sgf/kynema&#45;sgf/src/boundary</text>
<text text-anchor="start" x="244" y="-95" font-family="Helvetica,sans-Serif" font-size="10.00">_conditions/field_boundary</text>
<text text-anchor="middle" x="317" y="-84" font-family="Helvetica,sans-Serif" font-size="10.00">_fill/PlaneFillInflow.cpp</text>
</a>
</g>
</g>
<!-- Node4&#45;&gt;Node5 -->
<g id="edge5_Node000004_Node000005" class="edge">
<title>Node4&#45;&gt;Node5</title>
<g id="a_edge5_Node000004_Node000005"><a xlink:title=" ">
<path fill="none" stroke="#63b8ff" d="M317,-154.56C317,-146.04 317,-137.1 317,-129.16"/>
<polygon fill="#63b8ff" stroke="#63b8ff" points="313.5,-154.66 317,-164.66 320.5,-154.66 313.5,-154.66"/>
</a>
</g>
</g>
<!-- Node9 -->
<g id="Node000009" class="node">
<title>Node9</title>
<g id="a_Node000009"><a xlink:href="_c_f_d_sim_8cpp.html" target="_top" xlink:title=" ">
<polygon fill="white" stroke="#666666" points="830,-118 654,-118 654,-88 830,-88 830,-118"/>
<text text-anchor="start" x="662" y="-106" font-family="Helvetica,sans-Serif" font-size="10.00">/home/runner/work/kynema</text>
<text text-anchor="middle" x="742" y="-95" font-family="Helvetica,sans-Serif" font-size="10.00">&#45;sgf/kynema&#45;sgf/src/CFDSim.cpp</text>
</a>
</g>
</g>
<!-- Node8&#45;&gt;Node9 -->
<g id="edge9_Node000008_Node000009" class="edge">
<title>Node8&#45;&gt;Node9</title>
<g id="a_edge9_Node000008_Node000009"><a xlink:title=" ">
<path fill="none" stroke="#63b8ff" d="M2013.04,-188.15C1767.37,-182.51 1065.35,-163.72 838,-129 821.49,-126.48 803.7,-122.28 787.98,-118.03"/>
<polygon fill="#63b8ff" stroke="#63b8ff" points="2013.26,-191.66 2023.34,-188.39 2013.42,-184.66 2013.26,-191.66"/>
</a>
</g>
</g>
<!-- Node10 -->
<g id="Node000010" class="node">
<title>Node10</title>
<g id="a_Node000010"><a xlink:href="_a_b_l_forcing_8cpp.html" target="_top" xlink:title=" ">
<polygon fill="white" stroke="#666666" points="1006.5,-129 847.5,-129 847.5,-77 1006.5,-77 1006.5,-129"/>
<text text-anchor="start" x="855.5" y="-117" font-family="Helvetica,sans-Serif" font-size="10.00">/home/runner/work/kynema</text>
<text text-anchor="start" x="855.5" y="-106" font-family="Helvetica,sans-Serif" font-size="10.00">&#45;sgf/kynema&#45;sgf/src/equation</text>
<text text-anchor="start" x="855.5" y="-95" font-family="Helvetica,sans-Serif" font-size="10.00">_systems/icns/source_terms</text>
<text text-anchor="middle" x="927" y="-84" font-family="Helvetica,sans-Serif" font-size="10.00">/ABLForcing.cpp</text>
</a>
</g>
</g>
<!-- Node8&#45;&gt;Node10 -->
<g id="edge10_Node000008_Node000010" class="edge">
<title>Node8&#45;&gt;Node10</title>
<g id="a_edge10_Node000008_Node000010"><a xlink:title=" ">
<path fill="none" stroke="#63b8ff" d="M2012.95,-187.61C1791.59,-181.06 1206.44,-161.17 1015,-129 1012.34,-128.55 1009.64,-128.05 1006.93,-127.51"/>
<polygon fill="#63b8ff" stroke="#63b8ff" points="2013.11,-191.11 2023.21,-187.91 2013.32,-184.12 2013.11,-191.11"/>
</a>
</g>
</g>
<!-- Node11 -->
<g id="Node000011" class="node">
<title>Node11</title>
<g id="a_Node000011"><a xlink:href="_a_b_l_mean_boussinesq_8cpp.html" target="_top" xlink:title=" ">
<polygon fill="white" stroke="#666666" points="1183.5,-129 1024.5,-129 1024.5,-77 1183.5,-77 1183.5,-129"/>
<text text-anchor="start" x="1032.5" y="-117" font-family="Helvetica,sans-Serif" font-size="10.00">/home/runner/work/kynema</text>
<text text-anchor="start" x="1032.5" y="-106" font-family="Helvetica,sans-Serif" font-size="10.00">&#45;sgf/kynema&#45;sgf/src/equation</text>
<text text-anchor="start" x="1032.5" y="-95" font-family="Helvetica,sans-Serif" font-size="10.00">_systems/icns/source_terms</text>
<text text-anchor="middle" x="1104" y="-84" font-family="Helvetica,sans-Serif" font-size="10.00">/ABLMeanBoussinesq.cpp</text>
</a>
</g>
</g>
<!-- Node8&#45;&gt;Node11 -->
<g id="edge11_Node000008_Node000011" class="edge">
<title>Node8&#45;&gt;Node11</title>
<g id="a_edge11_Node000008_Node000011"><a xlink:title=" ">
<path fill="none" stroke="#63b8ff" d="M2013.03,-190.19C1851.13,-189.23 1490.41,-180.83 1192,-129 1189.34,-128.54 1186.64,-128.03 1183.93,-127.48"/>
<polygon fill="#63b8ff" stroke="#63b8ff" points="2013.39,-193.69 2023.41,-190.24 2013.43,-186.69 2013.39,-193.69"/>
</a>
</g>
</g>
<!-- Node12 -->
<g id="Node000012" class="node">
<title>Node12</title>
<g id="a_Node000012"><a xlink:href="_a_b_l_meso_forcing_mom_8cpp.html" target="_top" xlink:title=" ">
<polygon fill="white" stroke="#666666" points="1360.5,-129 1201.5,-129 1201.5,-77 1360.5,-77 1360.5,-129"/>
<text text-anchor="start" x="1209.5" y="-117" font-family="Helvetica,sans-Serif" font-size="10.00">/home/runner/work/kynema</text>
<text text-anchor="start" x="1209.5" y="-106" font-family="Helvetica,sans-Serif" font-size="10.00">&#45;sgf/kynema&#45;sgf/src/equation</text>
<text text-anchor="start" x="1209.5" y="-95" font-family="Helvetica,sans-Serif" font-size="10.00">_systems/icns/source_terms</text>
<text text-anchor="middle" x="1281" y="-84" font-family="Helvetica,sans-Serif" font-size="10.00">/ABLMesoForcingMom.cpp</text>
</a>
</g>
</g>
<!-- Node8&#45;&gt;Node12 -->
<g id="edge12_Node000008_Node000012" class="edge">
<title>Node8&#45;&gt;Node12</title>
<g id="a_edge12_Node000008_Node000012"><a xlink:title=" ">
<path fill="none" stroke="#63b8ff" d="M2013.47,-188.2C1876.41,-184.13 1599.55,-170.97 1369,-129 1366.34,-128.52 1363.65,-127.99 1360.94,-127.42"/>
<polygon fill="#63b8ff" stroke="#63b8ff" points="2013.4,-191.7 2023.5,-188.49 2013.6,-184.7 2013.4,-191.7"/>
</a>
</g>
</g>
<!-- Node13 -->
<g id="Node000013" class="node">
<title>Node13</title>
<g id="a_Node000013"><a xlink:href="_drag_forcing_8cpp.html" target="_top" xlink:title=" ">
<polygon fill="white" stroke="#666666" points="1537.5,-129 1378.5,-129 1378.5,-77 1537.5,-77 1537.5,-129"/>
<text text-anchor="start" x="1386.5" y="-117" font-family="Helvetica,sans-Serif" font-size="10.00">/home/runner/work/kynema</text>
<text text-anchor="start" x="1386.5" y="-106" font-family="Helvetica,sans-Serif" font-size="10.00">&#45;sgf/kynema&#45;sgf/src/equation</text>
<text text-anchor="start" x="1386.5" y="-95" font-family="Helvetica,sans-Serif" font-size="10.00">_systems/icns/source_terms</text>
<text text-anchor="middle" x="1458" y="-84" font-family="Helvetica,sans-Serif" font-size="10.00">/DragForcing.cpp</text>
</a>
</g>
</g>
<!-- Node8&#45;&gt;Node13 -->
<g id="edge13_Node000008_Node000013" class="edge">
<title>Node8&#45;&gt;Node13</title>
<g id="a_edge13_Node000008_Node000013"><a xlink:title=" ">
<path fill="none" stroke="#63b8ff" d="M2013.28,-185C1904,-177.6 1709.62,-161.03 1546,-129 1543.35,-128.48 1540.66,-127.92 1537.96,-127.33"/>
<polygon fill="#63b8ff" stroke="#63b8ff" points="2013.05,-188.49 2023.26,-185.66 2013.52,-181.5 2013.05,-188.49"/>
</a>
</g>
</g>
<!-- Node14 -->
<g id="Node000014" class="node">
<title>Node14</title>
<g id="a_Node000014"><a xlink:href="_forest_forcing_8cpp.html" target="_top" xlink:title=" ">
<polygon fill="white" stroke="#666666" points="1714.5,-129 1555.5,-129 1555.5,-77 1714.5,-77 1714.5,-129"/>
<text text-anchor="start" x="1563.5" y="-117" font-family="Helvetica,sans-Serif" font-size="10.00">/home/runner/work/kynema</text>
<text text-anchor="start" x="1563.5" y="-106" font-family="Helvetica,sans-Serif" font-size="10.00">&#45;sgf/kynema&#45;sgf/src/equation</text>
<text text-anchor="start" x="1563.5" y="-95" font-family="Helvetica,sans-Serif" font-size="10.00">_systems/icns/source_terms</text>
<text text-anchor="middle" x="1635" y="-84" font-family="Helvetica,sans-Serif" font-size="10.00">/ForestForcing.cpp</text>
</a>
</g>
</g>
<!-- Node8&#45;&gt;Node14 -->
<g id="edge14_Node000008_Node000014" class="edge">
<title>Node8&#45;&gt;Node14</title>
<g id="a_edge14_Node000008_Node000014"><a xlink:title=" ">
<path fill="none" stroke="#63b8ff" d="M2013.17,-178.96C1936.61,-168.44 1821.69,-150.95 1723,-129 1720.21,-128.38 1717.38,-127.72 1714.52,-127.04"/>
<polygon fill="#63b8ff" stroke="#63b8ff" points="2012.87,-182.46 2023.25,-180.34 2013.81,-175.52 2012.87,-182.46"/>
</a>
</g>
</g>
<!-- Node15 -->
<g id="Node000015" class="node">
<title>Node15</title>
<g id="a_Node000015"><a xlink:href="_hurricane_forcing_8cpp.html" target="_top" xlink:title=" ">
<polygon fill="white" stroke="#666666" points="1891.5,-129 1732.5,-129 1732.5,-77 1891.5,-77 1891.5,-129"/>
<text text-anchor="start" x="1740.5" y="-117" font-family="Helvetica,sans-Serif" font-size="10.00">/home/runner/work/kynema</text>
<text text-anchor="start" x="1740.5" y="-106" font-family="Helvetica,sans-Serif" font-size="10.00">&#45;sgf/kynema&#45;sgf/src/equation</text>
<text text-anchor="start" x="1740.5" y="-95" font-family="Helvetica,sans-Serif" font-size="10.00">_systems/icns/source_terms</text>
<text text-anchor="middle" x="1812" y="-84" font-family="Helvetica,sans-Serif" font-size="10.00">/HurricaneForcing.cpp</text>
</a>
</g>
</g>
<!-- Node8&#45;&gt;Node15 -->
<g id="edge15_Node000008_Node000015" class="edge">
<title>Node8&#45;&gt;Node15</title>
<g id="a_edge15_Node000008_Node000015"><a xlink:title=" ">
<path fill="none" stroke="#63b8ff" d="M2024.28,-167.61C1983.57,-155.41 1933.18,-140.31 1891.71,-127.89"/>
<polygon fill="#63b8ff" stroke="#63b8ff" points="2023.29,-170.97 2033.88,-170.49 2025.3,-164.26 2023.29,-170.97"/>
</a>
</g>
</g>
<!-- Node16 -->
<g id="Node000016" class="node">
<title>Node16</title>
<g id="a_Node000016"><a xlink:href="_a_b_l_meso_forcing_temp_8cpp.html" target="_top" xlink:title=" ">
<polygon fill="white" stroke="#666666" points="2090,-129 1910,-129 1910,-77 2090,-77 2090,-129"/>
<text text-anchor="start" x="1918" y="-117" font-family="Helvetica,sans-Serif" font-size="10.00">/home/runner/work/kynema</text>
<text text-anchor="start" x="1918" y="-106" font-family="Helvetica,sans-Serif" font-size="10.00">&#45;sgf/kynema&#45;sgf/src/equation</text>
<text text-anchor="start" x="1918" y="-95" font-family="Helvetica,sans-Serif" font-size="10.00">_systems/temperature/source</text>
<text text-anchor="middle" x="2000" y="-84" font-family="Helvetica,sans-Serif" font-size="10.00">_terms/ABLMesoForcingTemp.cpp</text>
</a>
</g>
</g>
<!-- Node8&#45;&gt;Node16 -->
<g id="edge16_Node000008_Node000016" class="edge">
<title>Node8&#45;&gt;Node16</title>
<g id="a_edge16_Node000008_Node000016"><a xlink:title=" ">
<path fill="none" stroke="#63b8ff" d="M2068.97,-163.91C2056.33,-152.93 2041.68,-140.21 2029.14,-129.32"/>
<polygon fill="#63b8ff" stroke="#63b8ff" points="2066.69,-166.57 2076.54,-170.49 2071.28,-161.28 2066.69,-166.57"/>
</a>
</g>
</g>
<!-- Node17 -->
<g id="Node000017" class="node">
<title>Node17</title>
<g id="a_Node000017"><a xlink:href="_hurricane_temp_forcing_8cpp.html" target="_top" xlink:title=" ">
<polygon fill="white" stroke="#666666" points="2290,-129 2108,-129 2108,-77 2290,-77 2290,-129"/>
<text text-anchor="start" x="2116" y="-117" font-family="Helvetica,sans-Serif" font-size="10.00">/home/runner/work/kynema</text>
<text text-anchor="start" x="2116" y="-106" font-family="Helvetica,sans-Serif" font-size="10.00">&#45;sgf/kynema&#45;sgf/src/equation</text>
<text text-anchor="start" x="2116" y="-95" font-family="Helvetica,sans-Serif" font-size="10.00">_systems/temperature/source</text>
<text text-anchor="middle" x="2199" y="-84" font-family="Helvetica,sans-Serif" font-size="10.00">_terms/HurricaneTempForcing.cpp</text>
</a>
</g>
</g>
<!-- Node8&#45;&gt;Node17 -->
<g id="edge17_Node000008_Node000017" class="edge">
<title>Node8&#45;&gt;Node17</title>
<g id="a_edge17_Node000008_Node000017"><a xlink:title=" ">
<path fill="none" stroke="#63b8ff" d="M2129.34,-163.91C2142.1,-152.93 2156.9,-140.21 2169.56,-129.32"/>
<polygon fill="#63b8ff" stroke="#63b8ff" points="2126.99,-161.31 2121.69,-170.49 2131.56,-166.62 2126.99,-161.31"/>
</a>
</g>
</g>
<!-- Node18 -->
<g id="Node000018" class="node">
<title>Node18</title>
<g id="a_Node000018"><a xlink:href="helics_8cpp.html" target="_top" xlink:title=" ">
<polygon fill="white" stroke="#666666" points="2473.5,-118 2308.5,-118 2308.5,-88 2473.5,-88 2473.5,-118"/>
<text text-anchor="start" x="2316.5" y="-106" font-family="Helvetica,sans-Serif" font-size="10.00">/home/runner/work/kynema</text>
<text text-anchor="middle" x="2391" y="-95" font-family="Helvetica,sans-Serif" font-size="10.00">&#45;sgf/kynema&#45;sgf/src/helics.cpp</text>
</a>
</g>
</g>
<!-- Node8&#45;&gt;Node18 -->
<g id="edge18_Node000008_Node000018" class="edge">
<title>Node8&#45;&gt;Node18</title>
<g id="a_edge18_Node000008_Node000018"><a xlink:title=" ">
<path fill="none" stroke="#63b8ff" d="M2174.99,-167.62C2228.17,-151.96 2297.6,-131.51 2343.2,-118.08"/>
<polygon fill="#63b8ff" stroke="#63b8ff" points="2173.86,-164.3 2165.26,-170.49 2175.84,-171.02 2173.86,-164.3"/>
</a>
</g>
</g>
<!-- Node19 -->
<g id="Node000019" class="node">
<title>Node19</title>
<g id="a_Node000019"><a xlink:href="incflo_8cpp.html" target="_top" xlink:title=" ">
<polygon fill="white" stroke="#666666" points="2654.5,-118 2491.5,-118 2491.5,-88 2654.5,-88 2654.5,-118"/>
<text text-anchor="start" x="2499.5" y="-106" font-family="Helvetica,sans-Serif" font-size="10.00">/home/runner/work/kynema</text>
<text text-anchor="middle" x="2573" y="-95" font-family="Helvetica,sans-Serif" font-size="10.00">&#45;sgf/kynema&#45;sgf/src/incflo.cpp</text>
</a>
</g>
</g>
<!-- Node8&#45;&gt;Node19 -->
<g id="edge19_Node000008_Node000019" class="edge">
<title>Node8&#45;&gt;Node19</title>
<g id="a_edge19_Node000008_Node000019"><a xlink:title=" ">
<path fill="none" stroke="#63b8ff" d="M2184.93,-179.07C2262.88,-168.51 2380.76,-150.9 2482,-129 2496.25,-125.92 2511.59,-121.96 2525.54,-118.1"/>
<polygon fill="#63b8ff" stroke="#63b8ff" points="2184.12,-175.65 2174.67,-180.45 2185.05,-182.59 2184.12,-175.65"/>
</a>
</g>
</g>
<!-- Node20 -->
<g id="Node000020" class="node">
<title>Node20</title>
<g id="a_Node000020"><a xlink:href="nodal__projection__ops_8_h.html" target="_top" xlink:title=" ">
<polygon fill="white" stroke="#666666" points="2837.5,-123.5 2672.5,-123.5 2672.5,-82.5 2837.5,-82.5 2837.5,-123.5"/>
<text text-anchor="start" x="2680.5" y="-111.5" font-family="Helvetica,sans-Serif" font-size="10.00">/home/runner/work/kynema</text>
<text text-anchor="start" x="2680.5" y="-100.5" font-family="Helvetica,sans-Serif" font-size="10.00">&#45;sgf/kynema&#45;sgf/src/projection</text>
<text text-anchor="middle" x="2755" y="-89.5" font-family="Helvetica,sans-Serif" font-size="10.00">/nodal_projection_ops.H</text>
</a>
</g>
</g>
<!-- Node8&#45;&gt;Node20 -->
<g id="edge20_Node000008_Node000020" class="edge">
<title>Node8&#45;&gt;Node20</title>
<g id="a_edge20_Node000008_Node000020"><a xlink:title=" ">
<path fill="none" stroke="#63b8ff" d="M2184.96,-184.93C2296.09,-177.41 2495.24,-160.66 2663,-129 2671.13,-127.47 2679.6,-125.58 2687.95,-123.53"/>
<polygon fill="#63b8ff" stroke="#63b8ff" points="2184.56,-181.45 2174.82,-185.61 2185.03,-188.43 2184.56,-181.45"/>
</a>
</g>
</g>
<!-- Node22 -->
<g id="Node000022" class="node">
<title>Node22</title>
<g id="a_Node000022"><a xlink:href="init_8cpp.html" target="_top" xlink:title=" ">
<polygon fill="white" stroke="#666666" points="3006.5,-123.5 2855.5,-123.5 2855.5,-82.5 3006.5,-82.5 3006.5,-123.5"/>
<text text-anchor="start" x="2863.5" y="-111.5" font-family="Helvetica,sans-Serif" font-size="10.00">/home/runner/work/kynema</text>
<text text-anchor="start" x="2863.5" y="-100.5" font-family="Helvetica,sans-Serif" font-size="10.00">&#45;sgf/kynema&#45;sgf/src/setup</text>
<text text-anchor="middle" x="2931" y="-89.5" font-family="Helvetica,sans-Serif" font-size="10.00">/init.cpp</text>
</a>
</g>
</g>
<!-- Node8&#45;&gt;Node22 -->
<g id="edge23_Node000008_Node000022" class="edge">
<title>Node8&#45;&gt;Node22</title>
<g id="a_edge23_Node000008_Node000022"><a xlink:title=" ">
<path fill="none" stroke="#63b8ff" d="M2184.9,-188.68C2324.63,-185.25 2609.34,-172.99 2846,-129 2853.86,-127.54 2862.04,-125.64 2870.08,-123.54"/>
<polygon fill="#63b8ff" stroke="#63b8ff" points="2184.6,-185.18 2174.69,-188.92 2184.77,-192.18 2184.6,-185.18"/>
</a>
</g>
</g>
<!-- Node23 -->
<g id="Node000023" class="node">
<title>Node23</title>
<g id="a_Node000023"><a xlink:href="_kosovic_8cpp.html" target="_top" xlink:title=" ">
<polygon fill="white" stroke="#666666" points="3193,-123.5 3025,-123.5 3025,-82.5 3193,-82.5 3193,-123.5"/>
<text text-anchor="start" x="3033" y="-111.5" font-family="Helvetica,sans-Serif" font-size="10.00">/home/runner/work/kynema</text>
<text text-anchor="start" x="3033" y="-100.5" font-family="Helvetica,sans-Serif" font-size="10.00">&#45;sgf/kynema&#45;sgf/src/turbulence</text>
<text text-anchor="middle" x="3109" y="-89.5" font-family="Helvetica,sans-Serif" font-size="10.00">/LES/Kosovic.cpp</text>
</a>
</g>
</g>
<!-- Node8&#45;&gt;Node23 -->
<g id="edge24_Node000008_Node000023" class="edge">
<title>Node8&#45;&gt;Node23</title>
<g id="a_edge24_Node000008_Node000023"><a xlink:title=" ">
<path fill="none" stroke="#63b8ff" d="M2185.22,-189.88C2348.49,-188.41 2713.55,-179.21 3016,-129 3024.66,-127.56 3033.68,-125.66 3042.54,-123.55"/>
<polygon fill="#63b8ff" stroke="#63b8ff" points="2184.73,-186.38 2174.76,-189.97 2184.79,-193.38 2184.73,-186.38"/>
</a>
</g>
</g>
<!-- Node8&#45;&gt;Node24 -->
<g id="edge25_Node000008_Node000024" class="edge">
<title>Node8&#45;&gt;Node24</title>
<g id="a_edge25_Node000008_Node000024"><a xlink:title=" ">
<path fill="none" stroke="#63b8ff" d="M2185.05,-187.62C2476.39,-179.39 3414.92,-151.42 3549,-129 3557.1,-127.65 3565.53,-125.75 3573.77,-123.6"/>
<polygon fill="#63b8ff" stroke="#63b8ff" points="2184.86,-184.12 2174.97,-187.9 2185.06,-191.12 2184.86,-184.12"/>
</a>
</g>
</g>
<!-- Node25 -->
<g id="Node000025" class="node">
<title>Node25</title>
<g id="a_Node000025"><a xlink:href="_a_b_l_anelastic_8cpp.html" target="_top" xlink:title=" ">
<polygon fill="white" stroke="#666666" points="3362.5,-123.5 3211.5,-123.5 3211.5,-82.5 3362.5,-82.5 3362.5,-123.5"/>
<text text-anchor="start" x="3219.5" y="-111.5" font-family="Helvetica,sans-Serif" font-size="10.00">/home/runner/work/kynema</text>
<text text-anchor="start" x="3219.5" y="-100.5" font-family="Helvetica,sans-Serif" font-size="10.00">&#45;sgf/kynema&#45;sgf/src/wind</text>
<text text-anchor="middle" x="3287" y="-89.5" font-family="Helvetica,sans-Serif" font-size="10.00">_energy/ABLAnelastic.cpp</text>
</a>
</g>
</g>
<!-- Node8&#45;&gt;Node25 -->
<g id="edge26_Node000008_Node000025" class="edge">
<title>Node8&#45;&gt;Node25</title>
<g id="a_edge26_Node000008_Node000025"><a xlink:title=" ">
<path fill="none" stroke="#63b8ff" d="M2184.64,-187.82C2408.41,-181.71 3006.79,-162.64 3202,-129 3210.03,-127.62 3218.38,-125.73 3226.58,-123.62"/>
<polygon fill="#63b8ff" stroke="#63b8ff" points="2184.49,-184.32 2174.59,-188.09 2184.68,-191.32 2184.49,-184.32"/>
</a>
</g>
</g>
<!-- Node26 -->
<g id="Node000026" class="node">
<title>Node26</title>
<g id="a_Node000026"><a xlink:href="_a_b_l_wall_function_8cpp.html" target="_top" xlink:title=" ">
<polygon fill="white" stroke="#666666" points="3539.5,-123.5 3380.5,-123.5 3380.5,-82.5 3539.5,-82.5 3539.5,-123.5"/>
<text text-anchor="start" x="3388.5" y="-111.5" font-family="Helvetica,sans-Serif" font-size="10.00">/home/runner/work/kynema</text>
<text text-anchor="start" x="3388.5" y="-100.5" font-family="Helvetica,sans-Serif" font-size="10.00">&#45;sgf/kynema&#45;sgf/src/wind</text>
<text text-anchor="middle" x="3460" y="-89.5" font-family="Helvetica,sans-Serif" font-size="10.00">_energy/ABLWallFunction.cpp</text>
</a>
</g>
</g>
<!-- Node8&#45;&gt;Node26 -->
<g id="edge27_Node000008_Node000026" class="edge">
<title>Node8&#45;&gt;Node26</title>
<g id="a_edge27_Node000008_Node000026"><a xlink:title=" ">
<path fill="none" stroke="#63b8ff" d="M2184.58,-188.45C2431.56,-183.58 3142.5,-166.59 3372,-129 3380.46,-127.61 3389.27,-125.7 3397.9,-123.54"/>
<polygon fill="#63b8ff" stroke="#63b8ff" points="2184.51,-184.95 2174.58,-188.65 2184.65,-191.95 2184.51,-184.95"/>
</a>
</g>
</g>
<!-- Node20&#45;&gt;Node7 -->
<g id="edge21_Node000020_Node000007" class="edge">
<title>Node20&#45;&gt;Node7</title>
<g id="a_edge21_Node000020_Node000007"><a xlink:title=" ">
<path fill="none" stroke="#63b8ff" d="M2679.69,-80.15C2674.07,-78.95 2668.46,-77.87 2663,-77 2472.23,-46.47 1885.09,-28.86 1673.78,-23.37"/>
<polygon fill="#63b8ff" stroke="#63b8ff" points="2679.26,-83.64 2689.79,-82.45 2680.81,-76.82 2679.26,-83.64"/>
</a>
</g>
</g>
<!-- Node21 -->
<g id="Node000021" class="node">
<title>Node21</title>
<g id="a_Node000021"><a xlink:href="incflo__apply__nodal__projection_8cpp.html" target="_top" xlink:title=" ">
<polygon fill="white" stroke="#666666" points="2847.5,-41 2662.5,-41 2662.5,0 2847.5,0 2847.5,-41"/>
<text text-anchor="start" x="2670.5" y="-29" font-family="Helvetica,sans-Serif" font-size="10.00">/home/runner/work/kynema</text>
<text text-anchor="start" x="2670.5" y="-18" font-family="Helvetica,sans-Serif" font-size="10.00">&#45;sgf/kynema&#45;sgf/src/projection</text>
<text text-anchor="middle" x="2755" y="-7" font-family="Helvetica,sans-Serif" font-size="10.00">/incflo_apply_nodal_projection.cpp</text>
</a>
</g>
</g>
<!-- Node20&#45;&gt;Node21 -->
<g id="edge22_Node000020_Node000021" class="edge">
<title>Node20&#45;&gt;Node21</title>
<g id="a_edge22_Node000020_Node000021"><a xlink:title=" ">
<path fill="none" stroke="#63b8ff" d="M2755,-71.87C2755,-61.6 2755,-50.4 2755,-41.17"/>
<polygon fill="#63b8ff" stroke="#63b8ff" points="2751.5,-72.1 2755,-82.1 2758.5,-72.1 2751.5,-72.1"/>
</a>
</g>
</g>
</g>
</svg>
