<?xml version="1.0" encoding="UTF-8" standalone="no"?>
<!DOCTYPE svg PUBLIC "-//W3C//DTD SVG 1.1//EN"
 "http://www.w3.org/Graphics/SVG/1.1/DTD/svg11.dtd">
<!-- Generated by graphviz version 2.43.0 (0)
 -->
<!-- Title: /home/runner/work/kynema&#45;sgf/kynema&#45;sgf/src/physics/udfs/CustomScalar.H Pages: 1 -->
<svg width="1947pt" height="368pt"
 viewBox="0.00 0.00 1946.50 368.00" xmlns="http://www.w3.org/2000/svg" xmlns:xlink="http://www.w3.org/1999/xlink">
<g id="graph0" class="graph" transform="scale(1 1) rotate(0) translate(4 364)">
<title>/home/runner/work/kynema&#45;sgf/kynema&#45;sgf/src/physics/udfs/CustomScalar.H</title>
<!-- Node1 -->
<g id="Node000001" class="node">
<title>Node1</title>
<g id="a_Node000001"><a xlink:title=" ">
<polygon fill="#999999" stroke="#666666" points="1182.5,-360 1029.5,-360 1029.5,-319 1182.5,-319 1182.5,-360"/>
<text text-anchor="start" x="1037.5" y="-348" font-family="Helvetica,sans-Serif" font-size="10.00">/home/runner/work/kynema</text>
<text text-anchor="start" x="1037.5" y="-337" font-family="Helvetica,sans-Serif" font-size="10.00">&#45;sgf/kynema&#45;sgf/src/physics</text>
<text text-anchor="middle" x="1106" y="-326" font-family="Helvetica,sans-Serif" font-size="10.00">/udfs/CustomScalar.H</text>
</a>
</g>
</g>
<!-- Node2 -->
<g id="Node000002" class="node">
<title>Node2</title>
<g id="a_Node000002"><a xlink:href="scalar__bcs_8_h.html" target="_top" xlink:title=" ">
<polygon fill="white" stroke="#666666" points="1011,-283 849,-283 849,-242 1011,-242 1011,-283"/>
<text text-anchor="start" x="857" y="-271" font-family="Helvetica,sans-Serif" font-size="10.00">/home/runner/work/kynema</text>
<text text-anchor="start" x="857" y="-260" font-family="Helvetica,sans-Serif" font-size="10.00">&#45;sgf/kynema&#45;sgf/src/boundary</text>
<text text-anchor="middle" x="930" y="-249" font-family="Helvetica,sans-Serif" font-size="10.00">_conditions/scalar_bcs.H</text>
</a>
</g>
</g>
<!-- Node1&#45;&gt;Node2 -->
<g id="edge1_Node000001_Node000002" class="edge">
<title>Node1&#45;&gt;Node2</title>
<g id="a_edge1_Node000001_Node000002"><a xlink:title=" ">
<path fill="none" stroke="#63b8ff" d="M1050.84,-315C1026.74,-304.72 998.8,-292.82 975.86,-283.04"/>
<polygon fill="#63b8ff" stroke="#63b8ff" points="1049.65,-318.29 1060.22,-318.99 1052.39,-311.85 1049.65,-318.29"/>
</a>
</g>
</g>
<!-- Node18 -->
<g id="Node000018" class="node">
<title>Node18</title>
<g id="a_Node000018"><a xlink:href="_custom_scalar_8cpp.html" target="_top" xlink:title=" ">
<polygon fill="white" stroke="#666666" points="1182.5,-283 1029.5,-283 1029.5,-242 1182.5,-242 1182.5,-283"/>
<text text-anchor="start" x="1037.5" y="-271" font-family="Helvetica,sans-Serif" font-size="10.00">/home/runner/work/kynema</text>
<text text-anchor="start" x="1037.5" y="-260" font-family="Helvetica,sans-Serif" font-size="10.00">&#45;sgf/kynema&#45;sgf/src/physics</text>
<text text-anchor="middle" x="1106" y="-249" font-family="Helvetica,sans-Serif" font-size="10.00">/udfs/CustomScalar.cpp</text>
</a>
</g>
</g>
<!-- Node1&#45;&gt;Node18 -->
<g id="edge18_Node000001_Node000018" class="edge">
<title>Node1&#45;&gt;Node18</title>
<g id="a_edge18_Node000001_Node000018"><a xlink:title=" ">
<path fill="none" stroke="#63b8ff" d="M1106,-308.69C1106,-300.08 1106,-290.9 1106,-283.07"/>
<polygon fill="#63b8ff" stroke="#63b8ff" points="1102.5,-308.79 1106,-318.79 1109.5,-308.79 1102.5,-308.79"/>
</a>
</g>
</g>
<!-- Node19 -->
<g id="Node000019" class="node">
<title>Node19</title>
<g id="a_Node000019"><a xlink:href="_u_d_f_8cpp.html" target="_top" xlink:title=" ">
<polygon fill="white" stroke="#666666" points="1353.5,-283 1200.5,-283 1200.5,-242 1353.5,-242 1353.5,-283"/>
<text text-anchor="start" x="1208.5" y="-271" font-family="Helvetica,sans-Serif" font-size="10.00">/home/runner/work/kynema</text>
<text text-anchor="start" x="1208.5" y="-260" font-family="Helvetica,sans-Serif" font-size="10.00">&#45;sgf/kynema&#45;sgf/src/physics</text>
<text text-anchor="middle" x="1277" y="-249" font-family="Helvetica,sans-Serif" font-size="10.00">/udfs/UDF.cpp</text>
</a>
</g>
</g>
<!-- Node1&#45;&gt;Node19 -->
<g id="edge19_Node000001_Node000019" class="edge">
<title>Node1&#45;&gt;Node19</title>
<g id="a_edge19_Node000001_Node000019"><a xlink:title=" ">
<path fill="none" stroke="#63b8ff" d="M1159.9,-314.86C1183.25,-304.62 1210.25,-292.77 1232.44,-283.04"/>
<polygon fill="#63b8ff" stroke="#63b8ff" points="1158.23,-311.77 1150.48,-318.99 1161.05,-318.18 1158.23,-311.77"/>
</a>
</g>
</g>
<!-- Node3 -->
<g id="Node000003" class="node">
<title>Node3</title>
<g id="a_Node000003"><a xlink:href="scalar__bcs_8cpp.html" target="_top" xlink:title=" ">
<polygon fill="white" stroke="#666666" points="922,-206 760,-206 760,-165 922,-165 922,-206"/>
<text text-anchor="start" x="768" y="-194" font-family="Helvetica,sans-Serif" font-size="10.00">/home/runner/work/kynema</text>
<text text-anchor="start" x="768" y="-183" font-family="Helvetica,sans-Serif" font-size="10.00">&#45;sgf/kynema&#45;sgf/src/boundary</text>
<text text-anchor="middle" x="841" y="-172" font-family="Helvetica,sans-Serif" font-size="10.00">_conditions/scalar_bcs.cpp</text>
</a>
</g>
</g>
<!-- Node2&#45;&gt;Node3 -->
<g id="edge2_Node000002_Node000003" class="edge">
<title>Node2&#45;&gt;Node3</title>
<g id="a_edge2_Node000002_Node000003"><a xlink:title=" ">
<path fill="none" stroke="#63b8ff" d="M898.97,-235.35C887.55,-225.73 874.84,-215.01 864.23,-206.07"/>
<polygon fill="#63b8ff" stroke="#63b8ff" points="896.71,-238.03 906.62,-241.79 901.22,-232.67 896.71,-238.03"/>
</a>
</g>
</g>
<!-- Node4 -->
<g id="Node000004" class="node">
<title>Node4</title>
<g id="a_Node000004"><a xlink:href="_b_c_ops_8_h.html" target="_top" xlink:title=" ">
<polygon fill="white" stroke="#666666" points="1099.5,-206 940.5,-206 940.5,-165 1099.5,-165 1099.5,-206"/>
<text text-anchor="start" x="948.5" y="-194" font-family="Helvetica,sans-Serif" font-size="10.00">/home/runner/work/kynema</text>
<text text-anchor="start" x="948.5" y="-183" font-family="Helvetica,sans-Serif" font-size="10.00">&#45;sgf/kynema&#45;sgf/src/equation</text>
<text text-anchor="middle" x="1020" y="-172" font-family="Helvetica,sans-Serif" font-size="10.00">_systems/BCOps.H</text>
</a>
</g>
</g>
<!-- Node2&#45;&gt;Node4 -->
<g id="edge3_Node000002_Node000004" class="edge">
<title>Node2&#45;&gt;Node4</title>
<g id="a_edge3_Node000002_Node000004"><a xlink:title=" ">
<path fill="none" stroke="#63b8ff" d="M961.38,-235.35C972.92,-225.73 985.78,-215.01 996.51,-206.07"/>
<polygon fill="#63b8ff" stroke="#63b8ff" points="959.09,-232.7 953.65,-241.79 963.57,-238.08 959.09,-232.7"/>
</a>
</g>
</g>
<!-- Node5 -->
<g id="Node000005" class="node">
<title>Node5</title>
<g id="a_Node000005"><a xlink:href="density_8cpp.html" target="_top" xlink:title=" ">
<polygon fill="white" stroke="#666666" points="160,-123.5 0,-123.5 0,-82.5 160,-82.5 160,-123.5"/>
<text text-anchor="start" x="8" y="-111.5" font-family="Helvetica,sans-Serif" font-size="10.00">/home/runner/work/kynema</text>
<text text-anchor="start" x="8" y="-100.5" font-family="Helvetica,sans-Serif" font-size="10.00">&#45;sgf/kynema&#45;sgf/src/equation</text>
<text text-anchor="middle" x="80" y="-89.5" font-family="Helvetica,sans-Serif" font-size="10.00">_systems/density/density.cpp</text>
</a>
</g>
</g>
<!-- Node4&#45;&gt;Node5 -->
<g id="edge4_Node000004_Node000005" class="edge">
<title>Node4&#45;&gt;Node5</title>
<g id="a_edge4_Node000004_Node000005"><a xlink:title=" ">
<path fill="none" stroke="#63b8ff" d="M930.02,-165.01C593.08,-121.77 500.42,-182.66 169,-129 160.44,-127.61 151.54,-125.7 142.81,-123.54"/>
<polygon fill="#63b8ff" stroke="#63b8ff" points="929.69,-168.5 940.06,-166.32 930.6,-161.55 929.69,-168.5"/>
</a>
</g>
</g>
<!-- Node6 -->
<g id="Node000006" class="node">
<title>Node6</title>
<g id="a_Node000006"><a xlink:href="icns__bcop_8_h.html" target="_top" xlink:title=" ">
<polygon fill="white" stroke="#666666" points="337.5,-123.5 178.5,-123.5 178.5,-82.5 337.5,-82.5 337.5,-123.5"/>
<text text-anchor="start" x="186.5" y="-111.5" font-family="Helvetica,sans-Serif" font-size="10.00">/home/runner/work/kynema</text>
<text text-anchor="start" x="186.5" y="-100.5" font-family="Helvetica,sans-Serif" font-size="10.00">&#45;sgf/kynema&#45;sgf/src/equation</text>
<text text-anchor="middle" x="258" y="-89.5" font-family="Helvetica,sans-Serif" font-size="10.00">_systems/icns/icns_bcop.H</text>
</a>
</g>
</g>
<!-- Node4&#45;&gt;Node6 -->
<g id="edge5_Node000004_Node000006" class="edge">
<title>Node4&#45;&gt;Node6</title>
<g id="a_edge5_Node000004_Node000006"><a xlink:title=" ">
<path fill="none" stroke="#63b8ff" d="M929.98,-164.99C671.19,-130.12 599.52,-172.29 346,-129 337.7,-127.58 329.07,-125.68 320.59,-123.56"/>
<polygon fill="#63b8ff" stroke="#63b8ff" points="929.67,-168.48 940.05,-166.37 930.62,-161.55 929.67,-168.48"/>
</a>
</g>
</g>
<!-- Node8 -->
<g id="Node000008" class="node">
<title>Node8</title>
<g id="a_Node000008"><a xlink:href="levelset_8cpp.html" target="_top" xlink:title=" ">
<polygon fill="white" stroke="#666666" points="522.5,-123.5 355.5,-123.5 355.5,-82.5 522.5,-82.5 522.5,-123.5"/>
<text text-anchor="start" x="363.5" y="-111.5" font-family="Helvetica,sans-Serif" font-size="10.00">/home/runner/work/kynema</text>
<text text-anchor="start" x="363.5" y="-100.5" font-family="Helvetica,sans-Serif" font-size="10.00">&#45;sgf/kynema&#45;sgf/src/equation</text>
<text text-anchor="middle" x="439" y="-89.5" font-family="Helvetica,sans-Serif" font-size="10.00">_systems/levelset/levelset.cpp</text>
</a>
</g>
</g>
<!-- Node4&#45;&gt;Node8 -->
<g id="edge7_Node000004_Node000008" class="edge">
<title>Node4&#45;&gt;Node8</title>
<g id="a_edge7_Node000004_Node000008"><a xlink:title=" ">
<path fill="none" stroke="#63b8ff" d="M930.12,-164.98C752.81,-138.65 703.52,-159.96 531,-129 522.69,-127.51 514.04,-125.62 505.52,-123.55"/>
<polygon fill="#63b8ff" stroke="#63b8ff" points="929.62,-168.44 940.04,-166.48 930.67,-161.52 929.62,-168.44"/>
</a>
</g>
</g>
<!-- Node9 -->
<g id="Node000009" class="node">
<title>Node9</title>
<g id="a_Node000009"><a xlink:href="passive__scalar_8cpp.html" target="_top" xlink:title=" ">
<polygon fill="white" stroke="#666666" points="719.5,-129 540.5,-129 540.5,-77 719.5,-77 719.5,-129"/>
<text text-anchor="start" x="548.5" y="-117" font-family="Helvetica,sans-Serif" font-size="10.00">/home/runner/work/kynema</text>
<text text-anchor="start" x="548.5" y="-106" font-family="Helvetica,sans-Serif" font-size="10.00">&#45;sgf/kynema&#45;sgf/src/equation</text>
<text text-anchor="start" x="548.5" y="-95" font-family="Helvetica,sans-Serif" font-size="10.00">_systems/passive_scalar/passive</text>
<text text-anchor="middle" x="630" y="-84" font-family="Helvetica,sans-Serif" font-size="10.00">_scalar.cpp</text>
</a>
</g>
</g>
<!-- Node4&#45;&gt;Node9 -->
<g id="edge8_Node000004_Node000009" class="edge">
<title>Node4&#45;&gt;Node9</title>
<g id="a_edge8_Node000004_Node000009"><a xlink:title=" ">
<path fill="none" stroke="#63b8ff" d="M930.53,-164.96C839.43,-147.25 814.5,-147.68 728,-129 725.25,-128.41 722.47,-127.79 719.66,-127.16"/>
<polygon fill="#63b8ff" stroke="#63b8ff" points="929.97,-168.41 940.46,-166.91 931.32,-161.54 929.97,-168.41"/>
</a>
</g>
</g>
<!-- Node10 -->
<g id="Node000010" class="node">
<title>Node10</title>
<g id="a_Node000010"><a xlink:href="_s_d_r_8cpp.html" target="_top" xlink:title=" ">
<polygon fill="white" stroke="#666666" points="896.5,-123.5 737.5,-123.5 737.5,-82.5 896.5,-82.5 896.5,-123.5"/>
<text text-anchor="start" x="745.5" y="-111.5" font-family="Helvetica,sans-Serif" font-size="10.00">/home/runner/work/kynema</text>
<text text-anchor="start" x="745.5" y="-100.5" font-family="Helvetica,sans-Serif" font-size="10.00">&#45;sgf/kynema&#45;sgf/src/equation</text>
<text text-anchor="middle" x="817" y="-89.5" font-family="Helvetica,sans-Serif" font-size="10.00">_systems/sdr/SDR.cpp</text>
</a>
</g>
</g>
<!-- Node4&#45;&gt;Node10 -->
<g id="edge9_Node000004_Node000010" class="edge">
<title>Node4&#45;&gt;Node10</title>
<g id="a_edge9_Node000004_Node000010"><a xlink:title=" ">
<path fill="none" stroke="#63b8ff" d="M961.07,-161.13C931,-149.21 894.84,-134.87 866.27,-123.54"/>
<polygon fill="#63b8ff" stroke="#63b8ff" points="960.01,-164.48 970.6,-164.91 962.59,-157.97 960.01,-164.48"/>
</a>
</g>
</g>
<!-- Node11 -->
<g id="Node000011" class="node">
<title>Node11</title>
<g id="a_Node000011"><a xlink:href="temperature_8cpp.html" target="_top" xlink:title=" ">
<polygon fill="white" stroke="#666666" points="1125.5,-123.5 914.5,-123.5 914.5,-82.5 1125.5,-82.5 1125.5,-123.5"/>
<text text-anchor="start" x="922.5" y="-111.5" font-family="Helvetica,sans-Serif" font-size="10.00">/home/runner/work/kynema</text>
<text text-anchor="start" x="922.5" y="-100.5" font-family="Helvetica,sans-Serif" font-size="10.00">&#45;sgf/kynema&#45;sgf/src/equation</text>
<text text-anchor="middle" x="1020" y="-89.5" font-family="Helvetica,sans-Serif" font-size="10.00">_systems/temperature/temperature.cpp</text>
</a>
</g>
</g>
<!-- Node4&#45;&gt;Node11 -->
<g id="edge10_Node000004_Node000011" class="edge">
<title>Node4&#45;&gt;Node11</title>
<g id="a_edge10_Node000004_Node000011"><a xlink:title=" ">
<path fill="none" stroke="#63b8ff" d="M1020,-154.37C1020,-144.1 1020,-132.9 1020,-123.67"/>
<polygon fill="#63b8ff" stroke="#63b8ff" points="1016.5,-154.6 1020,-164.6 1023.5,-154.6 1016.5,-154.6"/>
</a>
</g>
</g>
<!-- Node12 -->
<g id="Node000012" class="node">
<title>Node12</title>
<g id="a_Node000012"><a xlink:href="_t_k_e_8cpp.html" target="_top" xlink:title=" ">
<polygon fill="white" stroke="#666666" points="1302.5,-123.5 1143.5,-123.5 1143.5,-82.5 1302.5,-82.5 1302.5,-123.5"/>
<text text-anchor="start" x="1151.5" y="-111.5" font-family="Helvetica,sans-Serif" font-size="10.00">/home/runner/work/kynema</text>
<text text-anchor="start" x="1151.5" y="-100.5" font-family="Helvetica,sans-Serif" font-size="10.00">&#45;sgf/kynema&#45;sgf/src/equation</text>
<text text-anchor="middle" x="1223" y="-89.5" font-family="Helvetica,sans-Serif" font-size="10.00">_systems/tke/TKE.cpp</text>
</a>
</g>
</g>
<!-- Node4&#45;&gt;Node12 -->
<g id="edge11_Node000004_Node000012" class="edge">
<title>Node4&#45;&gt;Node12</title>
<g id="a_edge11_Node000004_Node000012"><a xlink:title=" ">
<path fill="none" stroke="#63b8ff" d="M1078.93,-161.13C1109,-149.21 1145.16,-134.87 1173.73,-123.54"/>
<polygon fill="#63b8ff" stroke="#63b8ff" points="1077.41,-157.97 1069.4,-164.91 1079.99,-164.48 1077.41,-157.97"/>
</a>
</g>
</g>
<!-- Node13 -->
<g id="Node000013" class="node">
<title>Node13</title>
<g id="a_Node000013"><a xlink:href="vof_8cpp.html" target="_top" xlink:title=" ">
<polygon fill="white" stroke="#666666" points="1462.5,-41 1303.5,-41 1303.5,0 1462.5,0 1462.5,-41"/>
<text text-anchor="start" x="1311.5" y="-29" font-family="Helvetica,sans-Serif" font-size="10.00">/home/runner/work/kynema</text>
<text text-anchor="start" x="1311.5" y="-18" font-family="Helvetica,sans-Serif" font-size="10.00">&#45;sgf/kynema&#45;sgf/src/equation</text>
<text text-anchor="middle" x="1383" y="-7" font-family="Helvetica,sans-Serif" font-size="10.00">_systems/vof/vof.cpp</text>
</a>
</g>
</g>
<!-- Node4&#45;&gt;Node13 -->
<g id="edge12_Node000004_Node000013" class="edge">
<title>Node4&#45;&gt;Node13</title>
<g id="a_edge12_Node000004_Node000013"><a xlink:title=" ">
<path fill="none" stroke="#63b8ff" d="M1109.81,-175.03C1182.71,-165.96 1278.54,-150.48 1311,-129 1319.57,-123.33 1352.68,-70.83 1370.87,-41.36"/>
<polygon fill="#63b8ff" stroke="#63b8ff" points="1109.19,-171.58 1099.69,-176.27 1110.04,-178.53 1109.19,-171.58"/>
</a>
</g>
</g>
<!-- Node14 -->
<g id="Node000014" class="node">
<title>Node14</title>
<g id="a_Node000014"><a xlink:href="vof__bcop_8_h.html" target="_top" xlink:title=" ">
<polygon fill="white" stroke="#666666" points="1516.5,-123.5 1357.5,-123.5 1357.5,-82.5 1516.5,-82.5 1516.5,-123.5"/>
<text text-anchor="start" x="1365.5" y="-111.5" font-family="Helvetica,sans-Serif" font-size="10.00">/home/runner/work/kynema</text>
<text text-anchor="start" x="1365.5" y="-100.5" font-family="Helvetica,sans-Serif" font-size="10.00">&#45;sgf/kynema&#45;sgf/src/equation</text>
<text text-anchor="middle" x="1437" y="-89.5" font-family="Helvetica,sans-Serif" font-size="10.00">_systems/vof/vof_bcop.H</text>
</a>
</g>
</g>
<!-- Node4&#45;&gt;Node14 -->
<g id="edge13_Node000004_Node000014" class="edge">
<title>Node4&#45;&gt;Node14</title>
<g id="a_edge13_Node000004_Node000014"><a xlink:title=" ">
<path fill="none" stroke="#63b8ff" d="M1109.88,-171.4C1175.15,-161.33 1265.43,-146.25 1344,-129 1351.51,-127.35 1359.33,-125.49 1367.09,-123.54"/>
<polygon fill="#63b8ff" stroke="#63b8ff" points="1108.98,-168 1099.63,-172.97 1110.04,-174.92 1108.98,-168"/>
</a>
</g>
</g>
<!-- Node15 -->
<g id="Node000015" class="node">
<title>Node15</title>
<g id="a_Node000015"><a xlink:href="waves2amr__ops_8_h.html" target="_top" xlink:title=" ">
<polygon fill="white" stroke="#666666" points="1767.5,-123.5 1534.5,-123.5 1534.5,-82.5 1767.5,-82.5 1767.5,-123.5"/>
<text text-anchor="start" x="1542.5" y="-111.5" font-family="Helvetica,sans-Serif" font-size="10.00">/home/runner/work/kynema</text>
<text text-anchor="start" x="1542.5" y="-100.5" font-family="Helvetica,sans-Serif" font-size="10.00">&#45;sgf/kynema&#45;sgf/src/ocean</text>
<text text-anchor="middle" x="1651" y="-89.5" font-family="Helvetica,sans-Serif" font-size="10.00">_waves/relaxation_zones/waves2amr_ops.H</text>
</a>
</g>
</g>
<!-- Node4&#45;&gt;Node15 -->
<g id="edge15_Node000004_Node000015" class="edge">
<title>Node4&#45;&gt;Node15</title>
<g id="a_edge15_Node000004_Node000015"><a xlink:title=" ">
<path fill="none" stroke="#63b8ff" d="M1110.06,-176.97C1211.31,-167.95 1380.46,-151.24 1525,-129 1535.47,-127.39 1546.39,-125.52 1557.24,-123.53"/>
<polygon fill="#63b8ff" stroke="#63b8ff" points="1109.53,-173.5 1099.87,-177.87 1110.14,-180.47 1109.53,-173.5"/>
</a>
</g>
</g>
<!-- Node17 -->
<g id="Node000017" class="node">
<title>Node17</title>
<g id="a_Node000017"><a xlink:href="_multi_phase_8cpp.html" target="_top" xlink:title=" ">
<polygon fill="white" stroke="#666666" points="1938.5,-123.5 1785.5,-123.5 1785.5,-82.5 1938.5,-82.5 1938.5,-123.5"/>
<text text-anchor="start" x="1793.5" y="-111.5" font-family="Helvetica,sans-Serif" font-size="10.00">/home/runner/work/kynema</text>
<text text-anchor="start" x="1793.5" y="-100.5" font-family="Helvetica,sans-Serif" font-size="10.00">&#45;sgf/kynema&#45;sgf/src/physics</text>
<text text-anchor="middle" x="1862" y="-89.5" font-family="Helvetica,sans-Serif" font-size="10.00">/multiphase/MultiPhase.cpp</text>
</a>
</g>
</g>
<!-- Node4&#45;&gt;Node17 -->
<g id="edge17_Node000004_Node000017" class="edge">
<title>Node4&#45;&gt;Node17</title>
<g id="a_edge17_Node000004_Node000017"><a xlink:title=" ">
<path fill="none" stroke="#63b8ff" d="M1109.72,-184.07C1252.24,-182.02 1538.64,-172.28 1777,-129 1784.87,-127.57 1793.05,-125.69 1801.09,-123.6"/>
<polygon fill="#63b8ff" stroke="#63b8ff" points="1109.66,-180.57 1099.71,-184.21 1109.76,-187.57 1109.66,-180.57"/>
</a>
</g>
</g>
<!-- Node7 -->
<g id="Node000007" class="node">
<title>Node7</title>
<g id="a_Node000007"><a xlink:href="icns_8cpp.html" target="_top" xlink:title=" ">
<polygon fill="white" stroke="#666666" points="337.5,-41 178.5,-41 178.5,0 337.5,0 337.5,-41"/>
<text text-anchor="start" x="186.5" y="-29" font-family="Helvetica,sans-Serif" font-size="10.00">/home/runner/work/kynema</text>
<text text-anchor="start" x="186.5" y="-18" font-family="Helvetica,sans-Serif" font-size="10.00">&#45;sgf/kynema&#45;sgf/src/equation</text>
<text text-anchor="middle" x="258" y="-7" font-family="Helvetica,sans-Serif" font-size="10.00">_systems/icns/icns.cpp</text>
</a>
</g>
</g>
<!-- Node6&#45;&gt;Node7 -->
<g id="edge6_Node000006_Node000007" class="edge">
<title>Node6&#45;&gt;Node7</title>
<g id="a_edge6_Node000006_Node000007"><a xlink:title=" ">
<path fill="none" stroke="#63b8ff" d="M258,-71.87C258,-61.6 258,-50.4 258,-41.17"/>
<polygon fill="#63b8ff" stroke="#63b8ff" points="254.5,-72.1 258,-82.1 261.5,-72.1 254.5,-72.1"/>
</a>
</g>
</g>
<!-- Node14&#45;&gt;Node13 -->
<g id="edge14_Node000014_Node000013" class="edge">
<title>Node14&#45;&gt;Node13</title>
<g id="a_edge14_Node000014_Node000013"><a xlink:title=" ">
<path fill="none" stroke="#63b8ff" d="M1417.87,-73.48C1410.7,-62.79 1402.71,-50.88 1396.19,-41.17"/>
<polygon fill="#63b8ff" stroke="#63b8ff" points="1415.17,-75.75 1423.65,-82.1 1420.99,-71.85 1415.17,-75.75"/>
</a>
</g>
</g>
<!-- Node16 -->
<g id="Node000016" class="node">
<title>Node16</title>
<g id="a_Node000016"><a xlink:href="_w2_a_waves_8cpp.html" target="_top" xlink:title=" ">
<polygon fill="white" stroke="#666666" points="1759.5,-41 1542.5,-41 1542.5,0 1759.5,0 1759.5,-41"/>
<text text-anchor="start" x="1550.5" y="-29" font-family="Helvetica,sans-Serif" font-size="10.00">/home/runner/work/kynema</text>
<text text-anchor="start" x="1550.5" y="-18" font-family="Helvetica,sans-Serif" font-size="10.00">&#45;sgf/kynema&#45;sgf/src/ocean</text>
<text text-anchor="middle" x="1651" y="-7" font-family="Helvetica,sans-Serif" font-size="10.00">_waves/relaxation_zones/W2AWaves.cpp</text>
</a>
</g>
</g>
<!-- Node15&#45;&gt;Node16 -->
<g id="edge16_Node000015_Node000016" class="edge">
<title>Node15&#45;&gt;Node16</title>
<g id="a_edge16_Node000015_Node000016"><a xlink:title=" ">
<path fill="none" stroke="#63b8ff" d="M1651,-71.87C1651,-61.6 1651,-50.4 1651,-41.17"/>
<polygon fill="#63b8ff" stroke="#63b8ff" points="1647.5,-72.1 1651,-82.1 1654.5,-72.1 1647.5,-72.1"/>
</a>
</g>
</g>
</g>
</svg>
