<?xml version="1.0" encoding="UTF-8" standalone="no"?>
<!DOCTYPE svg PUBLIC "-//W3C//DTD SVG 1.1//EN"
 "http://www.w3.org/Graphics/SVG/1.1/DTD/svg11.dtd">
<!-- Generated by graphviz version 2.43.0 (0)
 -->
<!-- Title: /home/runner/work/kynema&#45;sgf/kynema&#45;sgf/src/utilities/sampling/DTUSpinnerSampler.H Pages: 1 -->
<!--zoomable 434 -->

<svg id="main" version="1.1" xmlns="http://www.w3.org/2000/svg" xmlns:xlink="http://www.w3.org/1999/xlink" xml:space="preserve" onload="init(evt)">

<style type="text/css"><![CDATA[
.node, .edge {opacity: 0.7;}
.node.selected, .edge.selected {opacity: 1;}
.edge:hover path { stroke: red; }
.edge:hover polygon { stroke: red; fill: red; }
]]></style>

<defs>
  <circle id="rim" cx="0" cy="0" r="7"/>
  <circle id="rim2" cx="0" cy="0" r="3.5"/>
  <g id="zoomPlus">
    <use xlink:href="#rim" fill="#404040"><set attributeName="fill" to="#808080" begin="zoomplus.mouseover" end="zoomplus.mouseout"/></use>
    <path d="M-4,0h8M0,-4v8" fill="none" stroke="white" stroke-width="1.5" pointer-events="none"/>
  </g>
  <g id="zoomMin">
    <use xlink:href="#rim" fill="#404040"><set attributeName="fill" to="#808080" begin="zoomminus.mouseover" end="zoomminus.mouseout"/></use>
    <path d="M-4,0h8" fill="none" stroke="white" stroke-width="1.5" pointer-events="none"/>
  </g>
  <g id="arrowUp" transform="translate(30 24)">
    <use xlink:href="#rim"/>
    <path pointer-events="none" fill="none" stroke="white" stroke-width="1.5" d="M0,-3.0v7 M-2.5,-0.5L0,-3.0L2.5,-0.5"/>
  </g>
  <g id="arrowRight" transform="rotate(90) translate(36 -43)">
    <use xlink:href="#rim"/>
    <path pointer-events="none" fill="none" stroke="white" stroke-width="1.5" d="M0,-3.0v7 M-2.5,-0.5L0,-3.0L2.5,-0.5"/>
  </g>
  <g id="arrowDown" transform="rotate(180) translate(-30 -48)">
    <use xlink:href="#rim"/>
    <path pointer-events="none" fill="none" stroke="white" stroke-width="1.5" d="M0,-3.0v7 M-2.5,-0.5L0,-3.0L2.5,-0.5"/>
  </g>
  <g id="arrowLeft" transform="rotate(270) translate(-36 17)">
    <use xlink:href="#rim"/>
    <path pointer-events="none" fill="none" stroke="white" stroke-width="1.5" d="M0,-3.0v7 M-2.5,-0.5L0,-3.0L2.5,-0.5"/>
  </g>
  <g id="resetDef">
    <use xlink:href="#rim2" fill="#404040"><set attributeName="fill" to="#808080" begin="reset.mouseover" end="reset.mouseout"/></use>
  </g>
</defs>
<script type="application/ecmascript">
var viewWidth = 1609;
var viewHeight = 434;
var sectionId = 'dynsection-0';
</script>
<script type="application/ecmascript" xlink:href="svg.min.js"/>
<svg id="graph" class="graph">
<g id="viewport">
<title>/home/runner/work/kynema&#45;sgf/kynema&#45;sgf/src/utilities/sampling/DTUSpinnerSampler.H</title>
<!-- Node1 -->
<g id="Node000001" class="node">
<title>Node1</title>
<g id="a_Node000001"><a xlink:title=" ">
<polygon fill="#999999" stroke="#666666" points="901.5,-426 725.5,-426 725.5,-385 901.5,-385 901.5,-426"/>
<text text-anchor="start" x="733.5" y="-414" font-family="Helvetica,sans-Serif" font-size="10.00">/home/runner/work/kynema</text>
<text text-anchor="start" x="733.5" y="-403" font-family="Helvetica,sans-Serif" font-size="10.00">&#45;sgf/kynema&#45;sgf/src/utilities</text>
<text text-anchor="middle" x="813.5" y="-392" font-family="Helvetica,sans-Serif" font-size="10.00">/sampling/DTUSpinnerSampler.H</text>
</a>
</g>
</g>
<!-- Node2 -->
<g id="Node000002" class="node">
<title>Node2</title>
<g id="a_Node000002"><a xlink:href="_sampling_utils_8_h.html" target="_top" xlink:title=" ">
<polygon fill="white" stroke="#666666" points="971,-349 852,-349 852,-319 971,-319 971,-349"/>
<text text-anchor="start" x="860" y="-337" font-family="Helvetica,sans-Serif" font-size="10.00">src/utilities/sampling</text>
<text text-anchor="middle" x="911.5" y="-326" font-family="Helvetica,sans-Serif" font-size="10.00">/SamplingUtils.H</text>
</a>
</g>
</g>
<!-- Node1&#45;&gt;Node2 -->
<g id="edge1_Node000001_Node000002" class="edge">
<title>Node1&#45;&gt;Node2</title>
<g id="a_edge1_Node000001_Node000002"><a xlink:title=" ">
<path fill="none" stroke="#63b8ff" d="M841.06,-384.96C854.25,-375.6 870.02,-364.42 883.29,-355.01"/>
<polygon fill="#63b8ff" stroke="#63b8ff" points="885.47,-357.75 891.6,-349.11 881.42,-352.04 885.47,-357.75"/>
</a>
</g>
</g>
<!-- Node5 -->
<g id="Node000005" class="node">
<title>Node5</title>
<g id="a_Node000005"><a xlink:href="vector__space_8_h.html" target="_top" xlink:title=" ">
<polygon fill="white" stroke="#666666" points="657,-283 554,-283 554,-253 657,-253 657,-283"/>
<text text-anchor="start" x="562" y="-271" font-family="Helvetica,sans-Serif" font-size="10.00">src/core/vs/vector</text>
<text text-anchor="middle" x="605.5" y="-260" font-family="Helvetica,sans-Serif" font-size="10.00">_space.H</text>
</a>
</g>
</g>
<!-- Node1&#45;&gt;Node5 -->
<g id="edge55_Node000001_Node000005" class="edge">
<title>Node1&#45;&gt;Node5</title>
<g id="a_edge55_Node000001_Node000005"><a xlink:title=" ">
<path fill="none" stroke="#63b8ff" d="M725.43,-397.76C689.63,-390.63 650.63,-376.54 624.5,-349 610.42,-334.16 606.15,-310.88 605.12,-293.25"/>
<polygon fill="#63b8ff" stroke="#63b8ff" points="608.61,-293.02 604.84,-283.13 601.62,-293.22 608.61,-293.02"/>
</a>
</g>
</g>
<!-- Node17 -->
<g id="Node000017" class="node">
<title>Node17</title>
<g id="a_Node000017"><a xlink:title=" ">
<polygon fill="#e0e0e0" stroke="#999999" points="1192.5,-19 1100.5,-19 1100.5,0 1192.5,0 1192.5,-19"/>
<text text-anchor="middle" x="1146.5" y="-7" font-family="Helvetica,sans-Serif" font-size="10.00">AMReX_REAL.H</text>
</a>
</g>
</g>
<!-- Node1&#45;&gt;Node17 -->
<g id="edge56_Node000001_Node000017" class="edge">
<title>Node1&#45;&gt;Node17</title>
<g id="a_edge56_Node000001_Node000017"><a xlink:title=" ">
<path fill="none" stroke="#63b8ff" d="M901.86,-386.66C1000.52,-364.15 1146.5,-321.9 1146.5,-269 1146.5,-269 1146.5,-269 1146.5,-135 1146.5,-97.49 1146.5,-53.63 1146.5,-29.26"/>
<polygon fill="#63b8ff" stroke="#63b8ff" points="1150,-29.25 1146.5,-19.25 1143,-29.25 1150,-29.25"/>
</a>
</g>
</g>
<!-- Node21 -->
<g id="Node000021" class="node">
<title>Node21</title>
<g id="a_Node000021"><a xlink:href="_lidar_sampler_8_h.html" target="_top" xlink:title=" ">
<polygon fill="white" stroke="#666666" points="753,-349 634,-349 634,-319 753,-319 753,-349"/>
<text text-anchor="start" x="642" y="-337" font-family="Helvetica,sans-Serif" font-size="10.00">src/utilities/sampling</text>
<text text-anchor="middle" x="693.5" y="-326" font-family="Helvetica,sans-Serif" font-size="10.00">/LidarSampler.H</text>
</a>
</g>
</g>
<!-- Node1&#45;&gt;Node21 -->
<g id="edge31_Node000001_Node000021" class="edge">
<title>Node1&#45;&gt;Node21</title>
<g id="a_edge31_Node000001_Node000021"><a xlink:title=" ">
<path fill="none" stroke="#63b8ff" d="M779.75,-384.96C763.14,-375.33 743.19,-363.78 726.66,-354.2"/>
<polygon fill="#63b8ff" stroke="#63b8ff" points="728.27,-351.1 717.87,-349.11 724.77,-357.15 728.27,-351.1"/>
</a>
</g>
</g>
<!-- Node3 -->
<g id="Node000003" class="node">
<title>Node3</title>
<g id="a_Node000003"><a xlink:title=" ">
<polygon fill="#e0e0e0" stroke="#999999" points="1600.5,-19 1556.5,-19 1556.5,0 1600.5,0 1600.5,-19"/>
<text text-anchor="middle" x="1578.5" y="-7" font-family="Helvetica,sans-Serif" font-size="10.00">string</text>
</a>
</g>
</g>
<!-- Node2&#45;&gt;Node3 -->
<g id="edge2_Node000002_Node000003" class="edge">
<title>Node2&#45;&gt;Node3</title>
<g id="a_edge2_Node000002_Node000003"><a xlink:title=" ">
<path fill="none" stroke="#63b8ff" d="M971.02,-332.58C1122.28,-329.92 1509.5,-312.43 1509.5,-203 1509.5,-203 1509.5,-203 1509.5,-135 1509.5,-91.61 1541.95,-49.18 1562.35,-26.8"/>
<polygon fill="#63b8ff" stroke="#63b8ff" points="1565.16,-28.92 1569.48,-19.24 1560.07,-24.11 1565.16,-28.92"/>
</a>
</g>
</g>
<!-- Node4 -->
<g id="Node000004" class="node">
<title>Node4</title>
<g id="a_Node000004"><a xlink:title=" ">
<polygon fill="#e0e0e0" stroke="#999999" points="1080.5,-277.5 1030.5,-277.5 1030.5,-258.5 1080.5,-258.5 1080.5,-277.5"/>
<text text-anchor="middle" x="1055.5" y="-265.5" font-family="Helvetica,sans-Serif" font-size="10.00">cstdint</text>
</a>
</g>
</g>
<!-- Node2&#45;&gt;Node4 -->
<g id="edge3_Node000002_Node000004" class="edge">
<title>Node2&#45;&gt;Node4</title>
<g id="a_edge3_Node000002_Node000004"><a xlink:title=" ">
<path fill="none" stroke="#63b8ff" d="M943.1,-318.95C968.13,-307.83 1002.8,-292.42 1026.99,-281.67"/>
<polygon fill="#63b8ff" stroke="#63b8ff" points="1028.62,-284.78 1036.34,-277.52 1025.78,-278.38 1028.62,-284.78"/>
</a>
</g>
</g>
<!-- Node2&#45;&gt;Node5 -->
<g id="edge4_Node000002_Node000005" class="edge">
<title>Node2&#45;&gt;Node5</title>
<g id="a_edge4_Node000002_Node000005"><a xlink:title=" ">
<path fill="none" stroke="#63b8ff" d="M851.77,-320.51C798.67,-309.4 721.32,-293.22 667.53,-281.97"/>
<polygon fill="#63b8ff" stroke="#63b8ff" points="667.94,-278.48 657.44,-279.86 666.51,-285.34 667.94,-278.48"/>
</a>
</g>
</g>
<!-- Node2&#45;&gt;Node17 -->
<g id="edge30_Node000002_Node000017" class="edge">
<title>Node2&#45;&gt;Node17</title>
<g id="a_edge30_Node000002_Node000017"><a xlink:title=" ">
<path fill="none" stroke="#63b8ff" d="M971.39,-331.2C1010.21,-326.81 1059.04,-314.72 1089.5,-283 1114.81,-256.64 1108.5,-239.54 1108.5,-203 1108.5,-203 1108.5,-203 1108.5,-135 1108.5,-95.63 1126.1,-52.18 1137.34,-28.45"/>
<polygon fill="#63b8ff" stroke="#63b8ff" points="1140.58,-29.8 1141.84,-19.28 1134.29,-26.71 1140.58,-29.8"/>
</a>
</g>
</g>
<!-- Node18 -->
<g id="Node000018" class="node">
<title>Node18</title>
<g id="a_Node000018"><a xlink:href="tensor__ops_8_h.html" target="_top" xlink:title=" ">
<polygon fill="white" stroke="#666666" points="635.5,-85 531.5,-85 531.5,-55 635.5,-55 635.5,-85"/>
<text text-anchor="start" x="539.5" y="-73" font-family="Helvetica,sans-Serif" font-size="10.00">src/utilities/tensor</text>
<text text-anchor="middle" x="583.5" y="-62" font-family="Helvetica,sans-Serif" font-size="10.00">_ops.H</text>
</a>
</g>
</g>
<!-- Node2&#45;&gt;Node18 -->
<g id="edge25_Node000002_Node000018" class="edge">
<title>Node2&#45;&gt;Node18</title>
<g id="a_edge25_Node000002_Node000018"><a xlink:title=" ">
<path fill="none" stroke="#63b8ff" d="M851.78,-323.26C824.42,-316.13 793.3,-303.89 771.5,-283 738.25,-251.14 760.28,-223.73 732.5,-187 701.05,-145.42 651.16,-110.73 617.89,-90.42"/>
<polygon fill="#63b8ff" stroke="#63b8ff" points="619.35,-87.21 608.98,-85.08 615.76,-93.22 619.35,-87.21"/>
</a>
</g>
</g>
<!-- Node19 -->
<g id="Node000019" class="node">
<title>Node19</title>
<g id="a_Node000019"><a xlink:title=" ">
<polygon fill="#e0e0e0" stroke="#999999" points="896,-277.5 781,-277.5 781,-258.5 896,-258.5 896,-277.5"/>
<text text-anchor="middle" x="838.5" y="-265.5" font-family="Helvetica,sans-Serif" font-size="10.00">AMReX_Geometry.H</text>
</a>
</g>
</g>
<!-- Node2&#45;&gt;Node19 -->
<g id="edge28_Node000002_Node000019" class="edge">
<title>Node2&#45;&gt;Node19</title>
<g id="a_edge28_Node000002_Node000019"><a xlink:title=" ">
<path fill="none" stroke="#63b8ff" d="M895.3,-318.8C883.7,-308.62 868.08,-294.93 856.16,-284.48"/>
<polygon fill="#63b8ff" stroke="#63b8ff" points="858.41,-281.8 848.59,-277.84 853.8,-287.07 858.41,-281.8"/>
</a>
</g>
</g>
<!-- Node20 -->
<g id="Node000020" class="node">
<title>Node20</title>
<g id="a_Node000020"><a xlink:title=" ">
<polygon fill="#e0e0e0" stroke="#999999" points="1012.5,-277.5 914.5,-277.5 914.5,-258.5 1012.5,-258.5 1012.5,-277.5"/>
<text text-anchor="middle" x="963.5" y="-265.5" font-family="Helvetica,sans-Serif" font-size="10.00">AMReX_Vector.H</text>
</a>
</g>
</g>
<!-- Node2&#45;&gt;Node20 -->
<g id="edge29_Node000002_Node000020" class="edge">
<title>Node2&#45;&gt;Node20</title>
<g id="a_edge29_Node000002_Node000020"><a xlink:title=" ">
<path fill="none" stroke="#63b8ff" d="M923.04,-318.8C930.99,-309.01 941.58,-295.98 949.93,-285.7"/>
<polygon fill="#63b8ff" stroke="#63b8ff" points="952.72,-287.81 956.31,-277.84 947.29,-283.4 952.72,-287.81"/>
</a>
</g>
</g>
<!-- Node6 -->
<g id="Node000006" class="node">
<title>Node6</title>
<g id="a_Node000006"><a xlink:href="vector_8_h.html" target="_top" xlink:title=" ">
<polygon fill="white" stroke="#666666" points="268,-145.5 155,-145.5 155,-126.5 268,-126.5 268,-145.5"/>
<text text-anchor="middle" x="211.5" y="-133.5" font-family="Helvetica,sans-Serif" font-size="10.00">src/core/vs/vector.H</text>
</a>
</g>
</g>
<!-- Node5&#45;&gt;Node6 -->
<g id="edge5_Node000005_Node000006" class="edge">
<title>Node5&#45;&gt;Node6</title>
<g id="a_edge5_Node000005_Node000006"><a xlink:title=" ">
<path fill="none" stroke="#63b8ff" d="M553.9,-266.1C493.15,-263.3 390.4,-253.05 310.5,-217 276.46,-201.64 244.22,-171.7 226.24,-153.12"/>
<polygon fill="#63b8ff" stroke="#63b8ff" points="228.64,-150.57 219.23,-145.7 223.55,-155.38 228.64,-150.57"/>
</a>
</g>
</g>
<!-- Node13 -->
<g id="Node000013" class="node">
<title>Node13</title>
<g id="a_Node000013"><a xlink:href="tensor_8_h.html" target="_top" xlink:title=" ">
<polygon fill="white" stroke="#666666" points="433,-211.5 320,-211.5 320,-192.5 433,-192.5 433,-211.5"/>
<text text-anchor="middle" x="376.5" y="-199.5" font-family="Helvetica,sans-Serif" font-size="10.00">src/core/vs/tensor.H</text>
</a>
</g>
</g>
<!-- Node5&#45;&gt;Node13 -->
<g id="edge13_Node000005_Node000013" class="edge">
<title>Node5&#45;&gt;Node13</title>
<g id="a_edge13_Node000005_Node000013"><a xlink:title=" ">
<path fill="none" stroke="#63b8ff" d="M555.24,-252.95C513.67,-241.34 455.38,-225.05 416.82,-214.27"/>
<polygon fill="#63b8ff" stroke="#63b8ff" points="417.55,-210.84 406.98,-211.52 415.66,-217.58 417.55,-210.84"/>
</a>
</g>
</g>
<!-- Node7 -->
<g id="Node000007" class="node">
<title>Node7</title>
<g id="a_Node000007"><a xlink:title=" ">
<polygon fill="#e0e0e0" stroke="#999999" points="478,-19 391,-19 391,0 478,0 478,-19"/>
<text text-anchor="middle" x="434.5" y="-7" font-family="Helvetica,sans-Serif" font-size="10.00">AMReX_Gpu.H</text>
</a>
</g>
</g>
<!-- Node6&#45;&gt;Node7 -->
<g id="edge6_Node000006_Node000007" class="edge">
<title>Node6&#45;&gt;Node7</title>
<g id="a_edge6_Node000006_Node000007"><a xlink:title=" ">
<path fill="none" stroke="#63b8ff" d="M268.02,-126.75C333.9,-116.56 435.26,-98.88 446.5,-85 459.33,-69.15 452.12,-45.02 444.5,-28.55"/>
<polygon fill="#63b8ff" stroke="#63b8ff" points="447.51,-26.76 439.87,-19.43 441.27,-29.93 447.51,-26.76"/>
</a>
</g>
</g>
<!-- Node8 -->
<g id="Node000008" class="node">
<title>Node8</title>
<g id="a_Node000008"><a xlink:href="vstraits_8_h.html" target="_top" xlink:title=" ">
<polygon fill="white" stroke="#666666" points="119,-79.5 0,-79.5 0,-60.5 119,-60.5 119,-79.5"/>
<text text-anchor="middle" x="59.5" y="-67.5" font-family="Helvetica,sans-Serif" font-size="10.00">src/core/vs/vstraits.H</text>
</a>
</g>
</g>
<!-- Node6&#45;&gt;Node8 -->
<g id="edge7_Node000006_Node000008" class="edge">
<title>Node6&#45;&gt;Node8</title>
<g id="a_edge7_Node000006_Node000008"><a xlink:title=" ">
<path fill="none" stroke="#63b8ff" d="M191,-126.37C164.94,-115.39 119.72,-96.36 89.71,-83.72"/>
<polygon fill="#63b8ff" stroke="#63b8ff" points="90.73,-80.35 80.16,-79.7 88.02,-86.81 90.73,-80.35"/>
</a>
</g>
</g>
<!-- Node10 -->
<g id="Node000010" class="node">
<title>Node10</title>
<g id="a_Node000010"><a xlink:href="vector_i_8_h.html" target="_top" xlink:title=" ">
<polygon fill="white" stroke="#666666" points="253.5,-79.5 137.5,-79.5 137.5,-60.5 253.5,-60.5 253.5,-79.5"/>
<text text-anchor="middle" x="195.5" y="-67.5" font-family="Helvetica,sans-Serif" font-size="10.00">src/core/vs/vectorI.H</text>
</a>
</g>
</g>
<!-- Node6&#45;&gt;Node10 -->
<g id="edge9_Node000006_Node000010" class="edge">
<title>Node6&#45;&gt;Node10</title>
<g id="a_edge9_Node000006_Node000010"><a xlink:title=" ">
<path fill="none" stroke="#63b8ff" d="M204.55,-126.37C200.24,-117.07 195.99,-101.98 194.01,-89.9"/>
<polygon fill="#63b8ff" stroke="#63b8ff" points="197.48,-89.45 192.88,-79.91 190.52,-90.23 197.48,-89.45"/>
</a>
</g>
</g>
<!-- Node9 -->
<g id="Node000009" class="node">
<title>Node9</title>
<g id="a_Node000009"><a xlink:title=" ">
<polygon fill="#e0e0e0" stroke="#999999" points="81.5,-19 37.5,-19 37.5,0 81.5,0 81.5,-19"/>
<text text-anchor="middle" x="59.5" y="-7" font-family="Helvetica,sans-Serif" font-size="10.00">limits</text>
</a>
</g>
</g>
<!-- Node8&#45;&gt;Node9 -->
<g id="edge8_Node000008_Node000009" class="edge">
<title>Node8&#45;&gt;Node9</title>
<g id="a_edge8_Node000008_Node000009"><a xlink:title=" ">
<path fill="none" stroke="#63b8ff" d="M59.5,-60.37C59.5,-52.25 59.5,-39.81 59.5,-29.39"/>
<polygon fill="#63b8ff" stroke="#63b8ff" points="63,-29.17 59.5,-19.17 56,-29.17 63,-29.17"/>
</a>
</g>
</g>
<!-- Node10&#45;&gt;Node6 -->
<g id="edge12_Node000010_Node000006" class="edge">
<title>Node10&#45;&gt;Node6</title>
<g id="a_edge12_Node000010_Node000006"><a xlink:title=" ">
<path fill="none" stroke="#63b8ff" d="M202.57,-79.91C206.84,-89.22 211.02,-104.13 212.99,-116.08"/>
<polygon fill="#63b8ff" stroke="#63b8ff" points="209.55,-116.81 214.13,-126.37 216.51,-116.04 209.55,-116.81"/>
</a>
</g>
</g>
<!-- Node11 -->
<g id="Node000011" class="node">
<title>Node11</title>
<g id="a_Node000011"><a xlink:title=" ">
<polygon fill="#e0e0e0" stroke="#999999" points="227,-19 170,-19 170,0 227,0 227,-19"/>
<text text-anchor="middle" x="198.5" y="-7" font-family="Helvetica,sans-Serif" font-size="10.00">ostream</text>
</a>
</g>
</g>
<!-- Node10&#45;&gt;Node11 -->
<g id="edge10_Node000010_Node000011" class="edge">
<title>Node10&#45;&gt;Node11</title>
<g id="a_edge10_Node000010_Node000011"><a xlink:title=" ">
<path fill="none" stroke="#63b8ff" d="M195.94,-60.37C196.36,-52.25 197,-39.81 197.53,-29.39"/>
<polygon fill="#63b8ff" stroke="#63b8ff" points="201.04,-29.33 198.06,-19.17 194.05,-28.97 201.04,-29.33"/>
</a>
</g>
</g>
<!-- Node12 -->
<g id="Node000012" class="node">
<title>Node12</title>
<g id="a_Node000012"><a xlink:title=" ">
<polygon fill="#e0e0e0" stroke="#999999" points="296,-19 249,-19 249,0 296,0 296,-19"/>
<text text-anchor="middle" x="272.5" y="-7" font-family="Helvetica,sans-Serif" font-size="10.00">cmath</text>
</a>
</g>
</g>
<!-- Node10&#45;&gt;Node12 -->
<g id="edge11_Node000010_Node000012" class="edge">
<title>Node10&#45;&gt;Node12</title>
<g id="a_edge11_Node000010_Node000012"><a xlink:title=" ">
<path fill="none" stroke="#63b8ff" d="M206.86,-60.37C218.92,-51.21 238.2,-36.56 252.75,-25.51"/>
<polygon fill="#63b8ff" stroke="#63b8ff" points="255.25,-28 261.09,-19.17 251.01,-22.43 255.25,-28"/>
</a>
</g>
</g>
<!-- Node13&#45;&gt;Node6 -->
<g id="edge16_Node000013_Node000006" class="edge">
<title>Node13&#45;&gt;Node6</title>
<g id="a_edge16_Node000013_Node000006"><a xlink:title=" ">
<path fill="none" stroke="#63b8ff" d="M354.25,-192.37C325.63,-181.27 275.74,-161.92 243.17,-149.28"/>
<polygon fill="#63b8ff" stroke="#63b8ff" points="244.25,-145.95 233.66,-145.6 241.72,-152.48 244.25,-145.95"/>
</a>
</g>
</g>
<!-- Node13&#45;&gt;Node7 -->
<g id="edge14_Node000013_Node000007" class="edge">
<title>Node13&#45;&gt;Node7</title>
<g id="a_edge14_Node000013_Node000007"><a xlink:title=" ">
<path fill="none" stroke="#63b8ff" d="M393.46,-192.35C408.64,-183.79 430.45,-169.32 443.5,-151 461.36,-125.93 459.78,-115.42 464.5,-85 466.55,-71.82 468.4,-67.75 464.5,-55 461.41,-44.9 455.18,-35.02 449.19,-27.15"/>
<polygon fill="#63b8ff" stroke="#63b8ff" points="451.74,-24.74 442.71,-19.2 446.32,-29.16 451.74,-24.74"/>
</a>
</g>
</g>
<!-- Node13&#45;&gt;Node8 -->
<g id="edge15_Node000013_Node000008" class="edge">
<title>Node13&#45;&gt;Node8</title>
<g id="a_edge15_Node000013_Node000008"><a xlink:title=" ">
<path fill="none" stroke="#63b8ff" d="M320,-197.19C271.39,-192 200.6,-179.77 145.5,-151 115.23,-135.19 87.76,-105.83 72.38,-87.41"/>
<polygon fill="#63b8ff" stroke="#63b8ff" points="75.04,-85.14 66.02,-79.58 69.61,-89.55 75.04,-85.14"/>
</a>
</g>
</g>
<!-- Node14 -->
<g id="Node000014" class="node">
<title>Node14</title>
<g id="a_Node000014"><a xlink:href="tensor_i_8_h.html" target="_top" xlink:title=" ">
<polygon fill="white" stroke="#666666" points="434.5,-145.5 318.5,-145.5 318.5,-126.5 434.5,-126.5 434.5,-145.5"/>
<text text-anchor="middle" x="376.5" y="-133.5" font-family="Helvetica,sans-Serif" font-size="10.00">src/core/vs/tensorI.H</text>
</a>
</g>
</g>
<!-- Node13&#45;&gt;Node14 -->
<g id="edge17_Node000013_Node000014" class="edge">
<title>Node13&#45;&gt;Node14</title>
<g id="a_edge17_Node000013_Node000014"><a xlink:title=" ">
<path fill="none" stroke="#63b8ff" d="M371.71,-192.37C369.72,-183.07 369.25,-167.98 370.28,-155.9"/>
<polygon fill="#63b8ff" stroke="#63b8ff" points="373.76,-156.29 371.65,-145.91 366.82,-155.34 373.76,-156.29"/>
</a>
</g>
</g>
<!-- Node14&#45;&gt;Node12 -->
<g id="edge18_Node000014_Node000012" class="edge">
<title>Node14&#45;&gt;Node12</title>
<g id="a_edge18_Node000014_Node000012"><a xlink:title=" ">
<path fill="none" stroke="#63b8ff" d="M369.35,-126.44C352.21,-105.92 308.52,-53.62 286.15,-26.84"/>
<polygon fill="#63b8ff" stroke="#63b8ff" points="288.8,-24.55 279.7,-19.12 283.42,-29.04 288.8,-24.55"/>
</a>
</g>
</g>
<!-- Node14&#45;&gt;Node13 -->
<g id="edge19_Node000014_Node000013" class="edge">
<title>Node14&#45;&gt;Node13</title>
<g id="a_edge19_Node000014_Node000013"><a xlink:title=" ">
<path fill="none" stroke="#63b8ff" d="M381.35,-145.91C383.3,-155.32 383.75,-170.43 382.69,-182.45"/>
<polygon fill="#63b8ff" stroke="#63b8ff" points="379.22,-181.98 381.29,-192.37 386.15,-182.96 379.22,-181.98"/>
</a>
</g>
</g>
<!-- Node15 -->
<g id="Node000015" class="node">
<title>Node15</title>
<g id="a_Node000015"><a xlink:href="trig__ops_8_h.html" target="_top" xlink:title=" ">
<polygon fill="white" stroke="#666666" points="437.5,-85 347.5,-85 347.5,-55 437.5,-55 437.5,-85"/>
<text text-anchor="start" x="355.5" y="-73" font-family="Helvetica,sans-Serif" font-size="10.00">src/utilities/trig</text>
<text text-anchor="middle" x="392.5" y="-62" font-family="Helvetica,sans-Serif" font-size="10.00">_ops.H</text>
</a>
</g>
</g>
<!-- Node14&#45;&gt;Node15 -->
<g id="edge20_Node000014_Node000015" class="edge">
<title>Node14&#45;&gt;Node15</title>
<g id="a_edge20_Node000014_Node000015"><a xlink:title=" ">
<path fill="none" stroke="#63b8ff" d="M378.66,-126.37C380.65,-118.4 383.7,-106.2 386.43,-95.27"/>
<polygon fill="#63b8ff" stroke="#63b8ff" points="389.88,-95.91 388.91,-85.36 383.09,-94.21 389.88,-95.91"/>
</a>
</g>
</g>
<!-- Node15&#45;&gt;Node7 -->
<g id="edge24_Node000015_Node000007" class="edge">
<title>Node15&#45;&gt;Node7</title>
<g id="a_edge24_Node000015_Node000007"><a xlink:title=" ">
<path fill="none" stroke="#63b8ff" d="M402.67,-54.84C408.58,-46.61 416.06,-36.18 422.29,-27.51"/>
<polygon fill="#63b8ff" stroke="#63b8ff" points="425.22,-29.43 428.21,-19.27 419.53,-25.35 425.22,-29.43"/>
</a>
</g>
</g>
<!-- Node15&#45;&gt;Node12 -->
<g id="edge21_Node000015_Node000012" class="edge">
<title>Node15&#45;&gt;Node12</title>
<g id="a_edge21_Node000015_Node000012"><a xlink:title=" ">
<path fill="none" stroke="#63b8ff" d="M363.76,-54.99C344.18,-45.45 318.45,-32.9 299.3,-23.57"/>
<polygon fill="#63b8ff" stroke="#63b8ff" points="300.74,-20.38 290.22,-19.14 297.68,-26.67 300.74,-20.38"/>
</a>
</g>
</g>
<!-- Node16 -->
<g id="Node000016" class="node">
<title>Node16</title>
<g id="a_Node000016"><a xlink:title=" ">
<polygon fill="#e0e0e0" stroke="#999999" points="373,-19 314,-19 314,0 373,0 373,-19"/>
<text text-anchor="middle" x="343.5" y="-7" font-family="Helvetica,sans-Serif" font-size="10.00">numbers</text>
</a>
</g>
</g>
<!-- Node15&#45;&gt;Node16 -->
<g id="edge22_Node000015_Node000016" class="edge">
<title>Node15&#45;&gt;Node16</title>
<g id="a_edge22_Node000015_Node000016"><a xlink:title=" ">
<path fill="none" stroke="#63b8ff" d="M380.64,-54.84C373.6,-46.43 364.64,-35.74 357.29,-26.96"/>
<polygon fill="#63b8ff" stroke="#63b8ff" points="359.95,-24.68 350.84,-19.27 354.58,-29.18 359.95,-24.68"/>
</a>
</g>
</g>
<!-- Node15&#45;&gt;Node17 -->
<g id="edge23_Node000015_Node000017" class="edge">
<title>Node15&#45;&gt;Node17</title>
<g id="a_edge23_Node000015_Node000017"><a xlink:title=" ">
<path fill="none" stroke="#63b8ff" d="M437.58,-63.65C462.57,-60.81 494.23,-57.42 522.5,-55 771.65,-33.71 837.85,-46.04 1090.12,-19.05"/>
<polygon fill="#63b8ff" stroke="#63b8ff" points="1090.76,-22.5 1100.33,-17.94 1090.01,-15.54 1090.76,-22.5"/>
</a>
</g>
</g>
<!-- Node18&#45;&gt;Node7 -->
<g id="edge26_Node000018_Node000007" class="edge">
<title>Node18&#45;&gt;Node7</title>
<g id="a_edge26_Node000018_Node000007"><a xlink:title=" ">
<path fill="none" stroke="#63b8ff" d="M547.81,-54.99C522.84,-45.18 489.8,-32.21 465.84,-22.81"/>
<polygon fill="#63b8ff" stroke="#63b8ff" points="467.09,-19.54 456.5,-19.14 464.53,-26.05 467.09,-19.54"/>
</a>
</g>
</g>
<!-- Node18&#45;&gt;Node17 -->
<g id="edge27_Node000018_Node000017" class="edge">
<title>Node18&#45;&gt;Node17</title>
<g id="a_edge27_Node000018_Node000017"><a xlink:title=" ">
<path fill="none" stroke="#63b8ff" d="M635.65,-56.51C638.63,-55.96 641.6,-55.45 644.5,-55 838.21,-25.13 891.78,-41.66 1090.15,-19.07"/>
<polygon fill="#63b8ff" stroke="#63b8ff" points="1090.79,-22.51 1100.32,-17.89 1089.98,-15.56 1090.79,-22.51"/>
</a>
</g>
</g>
<!-- Node21&#45;&gt;Node5 -->
<g id="edge54_Node000021_Node000005" class="edge">
<title>Node21&#45;&gt;Node5</title>
<g id="a_edge54_Node000021_Node000005"><a xlink:title=" ">
<path fill="none" stroke="#63b8ff" d="M673.97,-318.8C662.01,-310.1 646.51,-298.82 633.28,-289.2"/>
<polygon fill="#63b8ff" stroke="#63b8ff" points="635.12,-286.22 624.98,-283.16 631,-291.88 635.12,-286.22"/>
</a>
</g>
</g>
<!-- Node22 -->
<g id="Node000022" class="node">
<title>Node22</title>
<g id="a_Node000022"><a xlink:href="_line_sampler_8_h.html" target="_top" xlink:title=" ">
<polygon fill="white" stroke="#666666" points="724,-217 605,-217 605,-187 724,-187 724,-217"/>
<text text-anchor="start" x="613" y="-205" font-family="Helvetica,sans-Serif" font-size="10.00">src/utilities/sampling</text>
<text text-anchor="middle" x="664.5" y="-194" font-family="Helvetica,sans-Serif" font-size="10.00">/LineSampler.H</text>
</a>
</g>
</g>
<!-- Node21&#45;&gt;Node22 -->
<g id="edge32_Node000021_Node000022" class="edge">
<title>Node21&#45;&gt;Node22</title>
<g id="a_edge32_Node000021_Node000022"><a xlink:title=" ">
<path fill="none" stroke="#63b8ff" d="M690.34,-318.84C685.42,-296.76 675.85,-253.89 669.84,-226.94"/>
<polygon fill="#63b8ff" stroke="#63b8ff" points="673.25,-226.14 667.65,-217.14 666.42,-227.66 673.25,-226.14"/>
</a>
</g>
</g>
<!-- Node23 -->
<g id="Node000023" class="node">
<title>Node23</title>
<g id="a_Node000023"><a xlink:href="_sampler_base_8_h.html" target="_top" xlink:title=" ">
<polygon fill="white" stroke="#666666" points="918,-151 799,-151 799,-121 918,-121 918,-151"/>
<text text-anchor="start" x="807" y="-139" font-family="Helvetica,sans-Serif" font-size="10.00">src/utilities/sampling</text>
<text text-anchor="middle" x="858.5" y="-128" font-family="Helvetica,sans-Serif" font-size="10.00">/SamplerBase.H</text>
</a>
</g>
</g>
<!-- Node22&#45;&gt;Node23 -->
<g id="edge33_Node000022_Node000023" class="edge">
<title>Node22&#45;&gt;Node23</title>
<g id="a_edge33_Node000022_Node000023"><a xlink:title=" ">
<path fill="none" stroke="#63b8ff" d="M707.07,-186.95C736.26,-177.33 775.17,-164.49 806.24,-154.24"/>
<polygon fill="#63b8ff" stroke="#63b8ff" points="807.63,-157.47 816.03,-151.01 805.43,-150.82 807.63,-157.47"/>
</a>
</g>
</g>
<!-- Node23&#45;&gt;Node11 -->
<g id="edge53_Node000023_Node000011" class="edge">
<title>Node23&#45;&gt;Node11</title>
<g id="a_edge53_Node000023_Node000011"><a xlink:title=" ">
<path fill="none" stroke="#63b8ff" d="M798.87,-132.2C681.22,-126.2 423.28,-110.53 338.5,-85 292.98,-71.3 245.19,-42.19 218.89,-24.69"/>
<polygon fill="#63b8ff" stroke="#63b8ff" points="220.76,-21.74 210.52,-19.03 216.84,-27.53 220.76,-21.74"/>
</a>
</g>
</g>
<!-- Node23&#45;&gt;Node17 -->
<g id="edge52_Node000023_Node000017" class="edge">
<title>Node23&#45;&gt;Node17</title>
<g id="a_edge52_Node000023_Node000017"><a xlink:title=" ">
<path fill="none" stroke="#63b8ff" d="M918.41,-124.37C955.34,-116.46 1003.03,-103.75 1042.5,-85 1075.7,-69.23 1109.44,-42.71 1129.15,-25.93"/>
<polygon fill="#63b8ff" stroke="#63b8ff" points="1131.66,-28.39 1136.93,-19.19 1127.08,-23.1 1131.66,-28.39"/>
</a>
</g>
</g>
<!-- Node24 -->
<g id="Node000024" class="node">
<title>Node24</title>
<g id="a_Node000024"><a xlink:title=" ">
<polygon fill="#e0e0e0" stroke="#999999" points="913.5,-79.5 803.5,-79.5 803.5,-60.5 913.5,-60.5 913.5,-79.5"/>
<text text-anchor="middle" x="858.5" y="-67.5" font-family="Helvetica,sans-Serif" font-size="10.00">AMReX_RealVect.H</text>
</a>
</g>
</g>
<!-- Node23&#45;&gt;Node24 -->
<g id="edge34_Node000023_Node000024" class="edge">
<title>Node23&#45;&gt;Node24</title>
<g id="a_edge34_Node000023_Node000024"><a xlink:title=" ">
<path fill="none" stroke="#63b8ff" d="M858.5,-120.8C858.5,-111.7 858.5,-99.79 858.5,-89.9"/>
<polygon fill="#63b8ff" stroke="#63b8ff" points="862,-89.84 858.5,-79.84 855,-89.84 862,-89.84"/>
</a>
</g>
</g>
<!-- Node25 -->
<g id="Node000025" class="node">
<title>Node25</title>
<g id="a_Node000025"><a xlink:href="_factory_8_h.html" target="_top" xlink:title=" ">
<polygon fill="white" stroke="#666666" points="1033.5,-79.5 931.5,-79.5 931.5,-60.5 1033.5,-60.5 1033.5,-79.5"/>
<text text-anchor="middle" x="982.5" y="-67.5" font-family="Helvetica,sans-Serif" font-size="10.00">src/core/Factory.H</text>
</a>
</g>
</g>
<!-- Node23&#45;&gt;Node25 -->
<g id="edge35_Node000023_Node000025" class="edge">
<title>Node23&#45;&gt;Node25</title>
<g id="a_edge35_Node000023_Node000025"><a xlink:title=" ">
<path fill="none" stroke="#63b8ff" d="M885.71,-120.95C906.98,-109.98 936.32,-94.83 957.11,-84.11"/>
<polygon fill="#63b8ff" stroke="#63b8ff" points="958.72,-87.21 966,-79.52 955.51,-80.99 958.72,-87.21"/>
</a>
</g>
</g>
<!-- Node31 -->
<g id="Node000031" class="node">
<title>Node31</title>
<g id="a_Node000031"><a xlink:href="nc__interface_8_h.html" target="_top" xlink:title=" ">
<polygon fill="white" stroke="#666666" points="1413.5,-85 1307.5,-85 1307.5,-55 1413.5,-55 1413.5,-85"/>
<text text-anchor="start" x="1315.5" y="-73" font-family="Helvetica,sans-Serif" font-size="10.00">src/utilities/ncutils</text>
<text text-anchor="middle" x="1360.5" y="-62" font-family="Helvetica,sans-Serif" font-size="10.00">/nc_interface.H</text>
</a>
</g>
</g>
<!-- Node23&#45;&gt;Node31 -->
<g id="edge41_Node000023_Node000031" class="edge">
<title>Node23&#45;&gt;Node31</title>
<g id="a_edge41_Node000023_Node000031"><a xlink:title=" ">
<path fill="none" stroke="#63b8ff" d="M918.06,-127.41C1013.5,-115.24 1199.87,-91.48 1297.47,-79.04"/>
<polygon fill="#63b8ff" stroke="#63b8ff" points="1298.01,-82.49 1307.49,-77.76 1297.13,-75.55 1298.01,-82.49"/>
</a>
</g>
</g>
<!-- Node35 -->
<g id="Node000035" class="node">
<title>Node35</title>
<g id="a_Node000035"><a xlink:href="constants_8_h.html" target="_top" xlink:title=" ">
<polygon fill="white" stroke="#666666" points="785,-79.5 654,-79.5 654,-60.5 785,-60.5 785,-79.5"/>
<text text-anchor="middle" x="719.5" y="-67.5" font-family="Helvetica,sans-Serif" font-size="10.00">src/utilities/constants.H</text>
</a>
</g>
</g>
<!-- Node23&#45;&gt;Node35 -->
<g id="edge48_Node000023_Node000035" class="edge">
<title>Node23&#45;&gt;Node35</title>
<g id="a_edge48_Node000023_Node000035"><a xlink:title=" ">
<path fill="none" stroke="#63b8ff" d="M828,-120.95C803.94,-109.88 770.67,-94.56 747.34,-83.82"/>
<polygon fill="#63b8ff" stroke="#63b8ff" points="748.55,-80.52 738,-79.52 745.62,-86.88 748.55,-80.52"/>
</a>
</g>
</g>
<!-- Node26 -->
<g id="Node000026" class="node">
<title>Node26</title>
<g id="a_Node000026"><a xlink:title=" ">
<polygon fill="#e0e0e0" stroke="#999999" points="1004.5,-19 946.5,-19 946.5,0 1004.5,0 1004.5,-19"/>
<text text-anchor="middle" x="975.5" y="-7" font-family="Helvetica,sans-Serif" font-size="10.00">memory</text>
</a>
</g>
</g>
<!-- Node25&#45;&gt;Node26 -->
<g id="edge36_Node000025_Node000026" class="edge">
<title>Node25&#45;&gt;Node26</title>
<g id="a_edge36_Node000025_Node000026"><a xlink:title=" ">
<path fill="none" stroke="#63b8ff" d="M981.47,-60.37C980.5,-52.25 979.01,-39.81 977.76,-29.39"/>
<polygon fill="#63b8ff" stroke="#63b8ff" points="981.2,-28.68 976.54,-19.17 974.25,-29.51 981.2,-28.68"/>
</a>
</g>
</g>
<!-- Node27 -->
<g id="Node000027" class="node">
<title>Node27</title>
<g id="a_Node000027"><a xlink:title=" ">
<polygon fill="#e0e0e0" stroke="#999999" points="1304,-19 1211,-19 1211,0 1304,0 1304,-19"/>
<text text-anchor="middle" x="1257.5" y="-7" font-family="Helvetica,sans-Serif" font-size="10.00">unordered_map</text>
</a>
</g>
</g>
<!-- Node25&#45;&gt;Node27 -->
<g id="edge37_Node000025_Node000027" class="edge">
<title>Node25&#45;&gt;Node27</title>
<g id="a_edge37_Node000025_Node000027"><a xlink:title=" ">
<path fill="none" stroke="#63b8ff" d="M1022.49,-60.49C1071.47,-50.07 1154.46,-32.42 1207.58,-21.12"/>
<polygon fill="#63b8ff" stroke="#63b8ff" points="1208.41,-24.52 1217.46,-19.02 1206.95,-17.67 1208.41,-24.52"/>
</a>
</g>
</g>
<!-- Node28 -->
<g id="Node000028" class="node">
<title>Node28</title>
<g id="a_Node000028"><a xlink:title=" ">
<polygon fill="#e0e0e0" stroke="#999999" points="1082.5,-19 1022.5,-19 1022.5,0 1082.5,0 1082.5,-19"/>
<text text-anchor="middle" x="1052.5" y="-7" font-family="Helvetica,sans-Serif" font-size="10.00">iostream</text>
</a>
</g>
</g>
<!-- Node25&#45;&gt;Node28 -->
<g id="edge38_Node000025_Node000028" class="edge">
<title>Node25&#45;&gt;Node28</title>
<g id="a_edge38_Node000025_Node000028"><a xlink:title=" ">
<path fill="none" stroke="#63b8ff" d="M992.83,-60.37C1003.69,-51.3 1020.99,-36.84 1034.17,-25.82"/>
<polygon fill="#63b8ff" stroke="#63b8ff" points="1036.7,-28.27 1042.13,-19.17 1032.21,-22.89 1036.7,-28.27"/>
</a>
</g>
</g>
<!-- Node29 -->
<g id="Node000029" class="node">
<title>Node29</title>
<g id="a_Node000029"><a xlink:title=" ">
<polygon fill="#e0e0e0" stroke="#999999" points="848.5,-19 758.5,-19 758.5,0 848.5,0 848.5,-19"/>
<text text-anchor="middle" x="803.5" y="-7" font-family="Helvetica,sans-Serif" font-size="10.00">AMReX_Print.H</text>
</a>
</g>
</g>
<!-- Node25&#45;&gt;Node29 -->
<g id="edge39_Node000025_Node000029" class="edge">
<title>Node25&#45;&gt;Node29</title>
<g id="a_edge39_Node000025_Node000029"><a xlink:title=" ">
<path fill="none" stroke="#63b8ff" d="M956.47,-60.49C925.58,-50.4 873.92,-33.51 839.28,-22.19"/>
<polygon fill="#63b8ff" stroke="#63b8ff" points="840.15,-18.8 829.56,-19.02 837.98,-25.45 840.15,-18.8"/>
</a>
</g>
</g>
<!-- Node30 -->
<g id="Node000030" class="node">
<title>Node30</title>
<g id="a_Node000030"><a xlink:title=" ">
<polygon fill="#e0e0e0" stroke="#999999" points="928.5,-19 866.5,-19 866.5,0 928.5,0 928.5,-19"/>
<text text-anchor="middle" x="897.5" y="-7" font-family="Helvetica,sans-Serif" font-size="10.00">AMReX.H</text>
</a>
</g>
</g>
<!-- Node25&#45;&gt;Node30 -->
<g id="edge40_Node000025_Node000030" class="edge">
<title>Node25&#45;&gt;Node30</title>
<g id="a_edge40_Node000025_Node000030"><a xlink:title=" ">
<path fill="none" stroke="#63b8ff" d="M969.96,-60.37C956.4,-51.04 934.56,-36.01 918.4,-24.88"/>
<polygon fill="#63b8ff" stroke="#63b8ff" points="920.32,-21.95 910.09,-19.17 916.35,-27.72 920.32,-21.95"/>
</a>
</g>
</g>
<!-- Node31&#45;&gt;Node3 -->
<g id="edge42_Node000031_Node000003" class="edge">
<title>Node31&#45;&gt;Node3</title>
<g id="a_edge42_Node000031_Node000003"><a xlink:title=" ">
<path fill="none" stroke="#63b8ff" d="M1413.32,-54.97C1448.52,-45.6 1496.07,-32.9 1546.67,-19.21"/>
<polygon fill="#63b8ff" stroke="#63b8ff" points="1547.75,-22.55 1556.49,-16.55 1545.92,-15.79 1547.75,-22.55"/>
</a>
</g>
</g>
<!-- Node31&#45;&gt;Node17 -->
<g id="edge47_Node000031_Node000017" class="edge">
<title>Node31&#45;&gt;Node17</title>
<g id="a_edge47_Node000031_Node000017"><a xlink:title=" ">
<path fill="none" stroke="#63b8ff" d="M1309.24,-54.99C1271.99,-44.8 1222.23,-31.2 1187.58,-21.73"/>
<polygon fill="#63b8ff" stroke="#63b8ff" points="1188.36,-18.31 1177.79,-19.05 1186.51,-25.07 1188.36,-18.31"/>
</a>
</g>
</g>
<!-- Node31&#45;&gt;Node27 -->
<g id="edge43_Node000031_Node000027" class="edge">
<title>Node31&#45;&gt;Node27</title>
<g id="a_edge43_Node000031_Node000027"><a xlink:title=" ">
<path fill="none" stroke="#63b8ff" d="M1335.83,-54.99C1319.41,-45.66 1297.95,-33.47 1281.64,-24.21"/>
<polygon fill="#63b8ff" stroke="#63b8ff" points="1283.13,-21.03 1272.71,-19.14 1279.68,-27.12 1283.13,-21.03"/>
</a>
</g>
</g>
<!-- Node32 -->
<g id="Node000032" class="node">
<title>Node32</title>
<g id="a_Node000032"><a xlink:title=" ">
<polygon fill="#e0e0e0" stroke="#999999" points="1464,-19 1417,-19 1417,0 1464,0 1464,-19"/>
<text text-anchor="middle" x="1440.5" y="-7" font-family="Helvetica,sans-Serif" font-size="10.00">vector</text>
</a>
</g>
</g>
<!-- Node31&#45;&gt;Node32 -->
<g id="edge44_Node000031_Node000032" class="edge">
<title>Node31&#45;&gt;Node32</title>
<g id="a_edge44_Node000031_Node000032"><a xlink:title=" ">
<path fill="none" stroke="#63b8ff" d="M1379.87,-54.84C1392.07,-45.91 1407.81,-34.41 1420.19,-25.35"/>
<polygon fill="#63b8ff" stroke="#63b8ff" points="1422.51,-27.99 1428.51,-19.27 1418.37,-22.34 1422.51,-27.99"/>
</a>
</g>
</g>
<!-- Node33 -->
<g id="Node000033" class="node">
<title>Node33</title>
<g id="a_Node000033"><a xlink:title=" ">
<polygon fill="#e0e0e0" stroke="#999999" points="1538.5,-19 1482.5,-19 1482.5,0 1538.5,0 1538.5,-19"/>
<text text-anchor="middle" x="1510.5" y="-7" font-family="Helvetica,sans-Serif" font-size="10.00">netcdf.h</text>
</a>
</g>
</g>
<!-- Node31&#45;&gt;Node33 -->
<g id="edge45_Node000031_Node000033" class="edge">
<title>Node31&#45;&gt;Node33</title>
<g id="a_edge45_Node000031_Node000033"><a xlink:title=" ">
<path fill="none" stroke="#63b8ff" d="M1396.43,-54.99C1421.57,-45.18 1454.83,-32.21 1478.95,-22.81"/>
<polygon fill="#63b8ff" stroke="#63b8ff" points="1480.3,-26.03 1488.35,-19.14 1477.76,-19.51 1480.3,-26.03"/>
</a>
</g>
</g>
<!-- Node34 -->
<g id="Node000034" class="node">
<title>Node34</title>
<g id="a_Node000034"><a xlink:title=" ">
<polygon fill="#e0e0e0" stroke="#999999" points="1399,-19 1322,-19 1322,0 1399,0 1399,-19"/>
<text text-anchor="middle" x="1360.5" y="-7" font-family="Helvetica,sans-Serif" font-size="10.00">netcdf_par.h</text>
</a>
</g>
</g>
<!-- Node31&#45;&gt;Node34 -->
<g id="edge46_Node000031_Node000034" class="edge">
<title>Node31&#45;&gt;Node34</title>
<g id="a_edge46_Node000031_Node000034"><a xlink:title=" ">
<path fill="none" stroke="#63b8ff" d="M1360.5,-54.84C1360.5,-47.21 1360.5,-37.7 1360.5,-29.45"/>
<polygon fill="#63b8ff" stroke="#63b8ff" points="1364,-29.27 1360.5,-19.27 1357,-29.27 1364,-29.27"/>
</a>
</g>
</g>
<!-- Node35&#45;&gt;Node17 -->
<g id="edge49_Node000035_Node000017" class="edge">
<title>Node35&#45;&gt;Node17</title>
<g id="a_edge49_Node000035_Node000017"><a xlink:title=" ">
<path fill="none" stroke="#63b8ff" d="M762.65,-60.46C773.06,-58.53 784.16,-56.59 794.5,-55 922.71,-35.28 958.07,-37.05 1090.2,-19.13"/>
<polygon fill="#63b8ff" stroke="#63b8ff" points="1090.87,-22.58 1100.3,-17.75 1089.92,-15.64 1090.87,-22.58"/>
</a>
</g>
</g>
<!-- Node36 -->
<g id="Node000036" class="node">
<title>Node36</title>
<g id="a_Node000036"><a xlink:title=" ">
<polygon fill="#e0e0e0" stroke="#999999" points="588.5,-19 496.5,-19 496.5,0 588.5,0 588.5,-19"/>
<text text-anchor="middle" x="542.5" y="-7" font-family="Helvetica,sans-Serif" font-size="10.00">AMReX_Math.H</text>
</a>
</g>
</g>
<!-- Node35&#45;&gt;Node36 -->
<g id="edge50_Node000035_Node000036" class="edge">
<title>Node35&#45;&gt;Node36</title>
<g id="a_edge50_Node000035_Node000036"><a xlink:title=" ">
<path fill="none" stroke="#63b8ff" d="M693.76,-60.49C663.22,-50.4 612.13,-33.51 577.88,-22.19"/>
<polygon fill="#63b8ff" stroke="#63b8ff" points="578.86,-18.83 568.27,-19.02 576.66,-25.48 578.86,-18.83"/>
</a>
</g>
</g>
<!-- Node37 -->
<g id="Node000037" class="node">
<title>Node37</title>
<g id="a_Node000037"><a xlink:title=" ">
<polygon fill="#e0e0e0" stroke="#999999" points="740.5,-19 606.5,-19 606.5,0 740.5,0 740.5,-19"/>
<text text-anchor="middle" x="673.5" y="-7" font-family="Helvetica,sans-Serif" font-size="10.00">AMReX_GpuQualifiers.H</text>
</a>
</g>
</g>
<!-- Node35&#45;&gt;Node37 -->
<g id="edge51_Node000035_Node000037" class="edge">
<title>Node35&#45;&gt;Node37</title>
<g id="a_edge51_Node000035_Node000037"><a xlink:title=" ">
<path fill="none" stroke="#63b8ff" d="M712.71,-60.37C705.85,-51.64 695.07,-37.93 686.55,-27.09"/>
<polygon fill="#63b8ff" stroke="#63b8ff" points="689.25,-24.86 680.32,-19.17 683.75,-29.19 689.25,-24.86"/>
</a>
</g>
</g>
</g>
</svg>

<g id="navigator" transform="translate(0 0)" fill="#404254">
  <rect fill="#f2f5e9" fill-opacity="0.5" stroke="#606060" stroke-width=".5" x="0" y="0" width="60" height="60"/>
  <use id="zoomplus" xlink:href="#zoomPlus" x="17" y="9" onmousedown="handleZoom(evt,'in')"/>
  <use id="zoomminus" xlink:href="#zoomMin" x="42" y="9" onmousedown="handleZoom(evt,'out')"/>
  <use id="reset" xlink:href="#resetDef" x="30" y="36" onmousedown="handleReset()"/>
   <use id="arrowup" xlink:href="#arrowUp" x="0" y="0" onmousedown="handlePan(0,-1)"/>
  <use id="arrowright" xlink:href="#arrowRight" x="0" y="0" onmousedown="handlePan(1,0)"/>
  <use id="arrowdown" xlink:href="#arrowDown" x="0" y="0" onmousedown="handlePan(0,1)"/>
  <use id="arrowleft" xlink:href="#arrowLeft" x="0" y="0" onmousedown="handlePan(-1,0)"/>
</g>
<svg viewBox="0 0 15 15" width="100%" height="30px" preserveAspectRatio="xMaxYMin meet">
 <g id="arrow_out" transform="scale(0.3 0.3)">
  <a xlink:href="_d_t_u_spinner_sampler_8_h__incl_org.svg" target="_base">
   <rect id="button" ry="5" rx="5" y="6" x="6" height="38" width="38"
        fill="#f2f5e9" fill-opacity="0.5" stroke="#606060" stroke-width="1.0"/>
   <path id="arrow"
     d="M 11.500037,31.436501 C 11.940474,20.09759 22.043105,11.32322 32.158766,21.979434 L 37.068811,17.246167 C 37.068811,17.246167 37.088388,32 37.088388,32 L 22.160133,31.978069 C 22.160133,31.978069 26.997745,27.140456 26.997745,27.140456 C 18.528582,18.264221 13.291696,25.230495 11.500037,31.436501 z"
     style="fill:#404040;"/>
  </a>
 </g>
</svg>

<style type='text/css'>
<![CDATA[
[data-mouse-over-selected='false'] { opacity: 0.7; }
[data-mouse-over-selected='true']  { opacity: 1.0; }
]]>
</style>
<script type="application/ecmascript"><![CDATA[
document.addEventListener('DOMContentLoaded', (event) => {
  highlightEdges();
  highlightAdjacentNodes();
});
]]></script>
</svg>
