<?xml version="1.0" encoding="UTF-8" standalone="no"?>
<!DOCTYPE svg PUBLIC "-//W3C//DTD SVG 1.1//EN"
 "http://www.w3.org/Graphics/SVG/1.1/DTD/svg11.dtd">
<!-- Generated by graphviz version 2.43.0 (0)
 -->
<!-- Title: /home/runner/work/kynema&#45;sgf/kynema&#45;sgf/src/wind_energy/actuator/turbine/external/ExtTurbIface.H Pages: 1 -->
<svg width="721pt" height="511pt"
 viewBox="0.00 0.00 720.50 511.00" xmlns="http://www.w3.org/2000/svg" xmlns:xlink="http://www.w3.org/1999/xlink">
<g id="graph0" class="graph" transform="scale(1 1) rotate(0) translate(4 507)">
<title>/home/runner/work/kynema&#45;sgf/kynema&#45;sgf/src/wind_energy/actuator/turbine/external/ExtTurbIface.H</title>
<!-- Node1 -->
<g id="Node000001" class="node">
<title>Node1</title>
<g id="a_Node000001"><a xlink:title=" ">
<polygon fill="#999999" stroke="#666666" points="502,-503 351,-503 351,-451 502,-451 502,-503"/>
<text text-anchor="start" x="359" y="-491" font-family="Helvetica,sans-Serif" font-size="10.00">/home/runner/work/kynema</text>
<text text-anchor="start" x="359" y="-480" font-family="Helvetica,sans-Serif" font-size="10.00">&#45;sgf/kynema&#45;sgf/src/wind</text>
<text text-anchor="start" x="359" y="-469" font-family="Helvetica,sans-Serif" font-size="10.00">_energy/actuator/turbine</text>
<text text-anchor="middle" x="426.5" y="-458" font-family="Helvetica,sans-Serif" font-size="10.00">/external/ExtTurbIface.H</text>
</a>
</g>
</g>
<!-- Node2 -->
<g id="Node000002" class="node">
<title>Node2</title>
<g id="a_Node000002"><a xlink:href="_turbine_external_8_h.html" target="_top" xlink:title=" ">
<polygon fill="white" stroke="#666666" points="333,-415 182,-415 182,-363 333,-363 333,-415"/>
<text text-anchor="start" x="190" y="-403" font-family="Helvetica,sans-Serif" font-size="10.00">/home/runner/work/kynema</text>
<text text-anchor="start" x="190" y="-392" font-family="Helvetica,sans-Serif" font-size="10.00">&#45;sgf/kynema&#45;sgf/src/wind</text>
<text text-anchor="start" x="190" y="-381" font-family="Helvetica,sans-Serif" font-size="10.00">_energy/actuator/turbine</text>
<text text-anchor="middle" x="257.5" y="-370" font-family="Helvetica,sans-Serif" font-size="10.00">/external/TurbineExternal.H</text>
</a>
</g>
</g>
<!-- Node1&#45;&gt;Node2 -->
<g id="edge1_Node000001_Node000002" class="edge">
<title>Node1&#45;&gt;Node2</title>
<g id="a_edge1_Node000001_Node000002"><a xlink:title=" ">
<path fill="none" stroke="#63b8ff" d="M368.16,-446.31C348.2,-436.16 326.08,-424.9 306.9,-415.14"/>
<polygon fill="#63b8ff" stroke="#63b8ff" points="366.66,-449.48 377.16,-450.89 369.84,-443.24 366.66,-449.48"/>
</a>
</g>
</g>
<!-- Node11 -->
<g id="Node000011" class="node">
<title>Node11</title>
<g id="a_Node000011"><a xlink:href="_fast_iface_8cpp.html" target="_top" xlink:title=" ">
<polygon fill="white" stroke="#666666" points="502,-415 351,-415 351,-363 502,-363 502,-415"/>
<text text-anchor="start" x="359" y="-403" font-family="Helvetica,sans-Serif" font-size="10.00">/home/runner/work/kynema</text>
<text text-anchor="start" x="359" y="-392" font-family="Helvetica,sans-Serif" font-size="10.00">&#45;sgf/kynema&#45;sgf/src/wind</text>
<text text-anchor="start" x="359" y="-381" font-family="Helvetica,sans-Serif" font-size="10.00">_energy/actuator/turbine</text>
<text text-anchor="middle" x="426.5" y="-370" font-family="Helvetica,sans-Serif" font-size="10.00">/fast/FastIface.cpp</text>
</a>
</g>
</g>
<!-- Node1&#45;&gt;Node11 -->
<g id="edge14_Node000001_Node000011" class="edge">
<title>Node1&#45;&gt;Node11</title>
<g id="a_edge14_Node000001_Node000011"><a xlink:title=" ">
<path fill="none" stroke="#63b8ff" d="M426.5,-440.56C426.5,-432.04 426.5,-423.1 426.5,-415.16"/>
<polygon fill="#63b8ff" stroke="#63b8ff" points="423,-440.66 426.5,-450.66 430,-440.66 423,-440.66"/>
</a>
</g>
</g>
<!-- Node12 -->
<g id="Node000012" class="node">
<title>Node12</title>
<g id="a_Node000012"><a xlink:href="_kynema_f_m_b_iface_8cpp.html" target="_top" xlink:title=" ">
<polygon fill="white" stroke="#666666" points="712.5,-415 520.5,-415 520.5,-363 712.5,-363 712.5,-415"/>
<text text-anchor="start" x="528.5" y="-403" font-family="Helvetica,sans-Serif" font-size="10.00">/home/runner/work/kynema</text>
<text text-anchor="start" x="528.5" y="-392" font-family="Helvetica,sans-Serif" font-size="10.00">&#45;sgf/kynema&#45;sgf/src/wind</text>
<text text-anchor="start" x="528.5" y="-381" font-family="Helvetica,sans-Serif" font-size="10.00">_energy/actuator/turbine</text>
<text text-anchor="middle" x="616.5" y="-370" font-family="Helvetica,sans-Serif" font-size="10.00">/kynema_fmb/KynemaFMBIface.cpp</text>
</a>
</g>
</g>
<!-- Node1&#45;&gt;Node12 -->
<g id="edge15_Node000001_Node000012" class="edge">
<title>Node1&#45;&gt;Node12</title>
<g id="a_edge15_Node000001_Node000012"><a xlink:title=" ">
<path fill="none" stroke="#63b8ff" d="M491.18,-446.73C513.85,-436.46 539.1,-425.03 560.96,-415.14"/>
<polygon fill="#63b8ff" stroke="#63b8ff" points="489.63,-443.58 481.97,-450.89 492.52,-449.96 489.63,-443.58"/>
</a>
</g>
</g>
<!-- Node3 -->
<g id="Node000003" class="node">
<title>Node3</title>
<g id="a_Node000003"><a xlink:href="turbine__external__utils_8_h.html" target="_top" xlink:title=" ">
<polygon fill="white" stroke="#666666" points="347.5,-327 167.5,-327 167.5,-275 347.5,-275 347.5,-327"/>
<text text-anchor="start" x="175.5" y="-315" font-family="Helvetica,sans-Serif" font-size="10.00">/home/runner/work/kynema</text>
<text text-anchor="start" x="175.5" y="-304" font-family="Helvetica,sans-Serif" font-size="10.00">&#45;sgf/kynema&#45;sgf/src/wind</text>
<text text-anchor="start" x="175.5" y="-293" font-family="Helvetica,sans-Serif" font-size="10.00">_energy/actuator/turbine</text>
<text text-anchor="middle" x="257.5" y="-282" font-family="Helvetica,sans-Serif" font-size="10.00">/external/turbine_external_utils.H</text>
</a>
</g>
</g>
<!-- Node2&#45;&gt;Node3 -->
<g id="edge2_Node000002_Node000003" class="edge">
<title>Node2&#45;&gt;Node3</title>
<g id="a_edge2_Node000002_Node000003"><a xlink:title=" ">
<path fill="none" stroke="#63b8ff" d="M257.5,-352.56C257.5,-344.04 257.5,-335.1 257.5,-327.16"/>
<polygon fill="#63b8ff" stroke="#63b8ff" points="254,-352.66 257.5,-362.66 261,-352.66 254,-352.66"/>
</a>
</g>
</g>
<!-- Node9 -->
<g id="Node000009" class="node">
<title>Node9</title>
<g id="a_Node000009"><a xlink:href="_turbine_fast_8_h.html" target="_top" xlink:title=" ">
<polygon fill="white" stroke="#666666" points="151,-239 0,-239 0,-187 151,-187 151,-239"/>
<text text-anchor="start" x="8" y="-227" font-family="Helvetica,sans-Serif" font-size="10.00">/home/runner/work/kynema</text>
<text text-anchor="start" x="8" y="-216" font-family="Helvetica,sans-Serif" font-size="10.00">&#45;sgf/kynema&#45;sgf/src/wind</text>
<text text-anchor="start" x="8" y="-205" font-family="Helvetica,sans-Serif" font-size="10.00">_energy/actuator/turbine</text>
<text text-anchor="middle" x="75.5" y="-194" font-family="Helvetica,sans-Serif" font-size="10.00">/fast/TurbineFast.H</text>
</a>
</g>
</g>
<!-- Node2&#45;&gt;Node9 -->
<g id="edge8_Node000002_Node000009" class="edge">
<title>Node2&#45;&gt;Node9</title>
<g id="a_edge8_Node000002_Node000009"><a xlink:title=" ">
<path fill="none" stroke="#63b8ff" d="M199.75,-357.58C185.49,-348.72 170.79,-338.33 158.5,-327 130.04,-300.77 104.92,-263.53 89.96,-239.08"/>
<polygon fill="#63b8ff" stroke="#63b8ff" points="198.18,-360.72 208.55,-362.9 201.8,-354.73 198.18,-360.72"/>
</a>
</g>
</g>
<!-- Node10 -->
<g id="Node000010" class="node">
<title>Node10</title>
<g id="a_Node000010"><a xlink:href="_turbine_kynema_f_m_b_8_h.html" target="_top" xlink:title=" ">
<polygon fill="white" stroke="#666666" points="557.5,-239 363.5,-239 363.5,-187 557.5,-187 557.5,-239"/>
<text text-anchor="start" x="371.5" y="-227" font-family="Helvetica,sans-Serif" font-size="10.00">/home/runner/work/kynema</text>
<text text-anchor="start" x="371.5" y="-216" font-family="Helvetica,sans-Serif" font-size="10.00">&#45;sgf/kynema&#45;sgf/src/wind</text>
<text text-anchor="start" x="371.5" y="-205" font-family="Helvetica,sans-Serif" font-size="10.00">_energy/actuator/turbine</text>
<text text-anchor="middle" x="460.5" y="-194" font-family="Helvetica,sans-Serif" font-size="10.00">/kynema_fmb/TurbineKynemaFMB.H</text>
</a>
</g>
</g>
<!-- Node2&#45;&gt;Node10 -->
<g id="edge11_Node000002_Node000010" class="edge">
<title>Node2&#45;&gt;Node10</title>
<g id="a_edge11_Node000002_Node000010"><a xlink:title=" ">
<path fill="none" stroke="#63b8ff" d="M312.72,-357.67C327.5,-348.58 343.09,-338.06 356.5,-327 389,-300.2 421,-263.44 440.74,-239.22"/>
<polygon fill="#63b8ff" stroke="#63b8ff" points="310.88,-354.69 304.13,-362.85 314.5,-360.68 310.88,-354.69"/>
</a>
</g>
</g>
<!-- Node4 -->
<g id="Node000004" class="node">
<title>Node4</title>
<g id="a_Node000004"><a xlink:href="turbine__external__ops_8_h.html" target="_top" xlink:title=" ">
<polygon fill="white" stroke="#666666" points="345.5,-239 169.5,-239 169.5,-187 345.5,-187 345.5,-239"/>
<text text-anchor="start" x="177.5" y="-227" font-family="Helvetica,sans-Serif" font-size="10.00">/home/runner/work/kynema</text>
<text text-anchor="start" x="177.5" y="-216" font-family="Helvetica,sans-Serif" font-size="10.00">&#45;sgf/kynema&#45;sgf/src/wind</text>
<text text-anchor="start" x="177.5" y="-205" font-family="Helvetica,sans-Serif" font-size="10.00">_energy/actuator/turbine</text>
<text text-anchor="middle" x="257.5" y="-194" font-family="Helvetica,sans-Serif" font-size="10.00">/external/turbine_external_ops.H</text>
</a>
</g>
</g>
<!-- Node3&#45;&gt;Node4 -->
<g id="edge3_Node000003_Node000004" class="edge">
<title>Node3&#45;&gt;Node4</title>
<g id="a_edge3_Node000003_Node000004"><a xlink:title=" ">
<path fill="none" stroke="#63b8ff" d="M257.5,-264.56C257.5,-256.04 257.5,-247.1 257.5,-239.16"/>
<polygon fill="#63b8ff" stroke="#63b8ff" points="254,-264.66 257.5,-274.66 261,-264.66 254,-264.66"/>
</a>
</g>
</g>
<!-- Node5 -->
<g id="Node000005" class="node">
<title>Node5</title>
<g id="a_Node000005"><a xlink:href="turbine__fast__ops_8_h.html" target="_top" xlink:title=" ">
<polygon fill="white" stroke="#666666" points="252,-145.5 101,-145.5 101,-93.5 252,-93.5 252,-145.5"/>
<text text-anchor="start" x="109" y="-133.5" font-family="Helvetica,sans-Serif" font-size="10.00">/home/runner/work/kynema</text>
<text text-anchor="start" x="109" y="-122.5" font-family="Helvetica,sans-Serif" font-size="10.00">&#45;sgf/kynema&#45;sgf/src/wind</text>
<text text-anchor="start" x="109" y="-111.5" font-family="Helvetica,sans-Serif" font-size="10.00">_energy/actuator/turbine</text>
<text text-anchor="middle" x="176.5" y="-100.5" font-family="Helvetica,sans-Serif" font-size="10.00">/fast/turbine_fast_ops.H</text>
</a>
</g>
</g>
<!-- Node4&#45;&gt;Node5 -->
<g id="edge4_Node000004_Node000005" class="edge">
<title>Node4&#45;&gt;Node5</title>
<g id="a_edge4_Node000004_Node000005"><a xlink:title=" ">
<path fill="none" stroke="#63b8ff" d="M228.48,-179.22C218.74,-168.22 208.04,-156.13 198.89,-145.79"/>
<polygon fill="#63b8ff" stroke="#63b8ff" points="226.12,-181.83 235.37,-187 231.36,-177.19 226.12,-181.83"/>
</a>
</g>
</g>
<!-- Node7 -->
<g id="Node000007" class="node">
<title>Node7</title>
<g id="a_Node000007"><a xlink:href="turbine__kynema__fmb__ops_8_h.html" target="_top" xlink:title=" ">
<polygon fill="white" stroke="#666666" points="435,-151 270,-151 270,-88 435,-88 435,-151"/>
<text text-anchor="start" x="278" y="-139" font-family="Helvetica,sans-Serif" font-size="10.00">/home/runner/work/kynema</text>
<text text-anchor="start" x="278" y="-128" font-family="Helvetica,sans-Serif" font-size="10.00">&#45;sgf/kynema&#45;sgf/src/wind</text>
<text text-anchor="start" x="278" y="-117" font-family="Helvetica,sans-Serif" font-size="10.00">_energy/actuator/turbine</text>
<text text-anchor="start" x="278" y="-106" font-family="Helvetica,sans-Serif" font-size="10.00">/kynema_fmb/turbine_kynema</text>
<text text-anchor="middle" x="352.5" y="-95" font-family="Helvetica,sans-Serif" font-size="10.00">_fmb_ops.H</text>
</a>
</g>
</g>
<!-- Node4&#45;&gt;Node7 -->
<g id="edge6_Node000004_Node000007" class="edge">
<title>Node4&#45;&gt;Node7</title>
<g id="a_edge6_Node000004_Node000007"><a xlink:title=" ">
<path fill="none" stroke="#63b8ff" d="M290.72,-180C300.49,-170.59 311.15,-160.33 320.82,-151.02"/>
<polygon fill="#63b8ff" stroke="#63b8ff" points="288.23,-177.54 283.46,-187 293.09,-182.58 288.23,-177.54"/>
</a>
</g>
</g>
<!-- Node6 -->
<g id="Node000006" class="node">
<title>Node6</title>
<g id="a_Node000006"><a xlink:href="_turbine_fast_8cpp.html" target="_top" xlink:title=" ">
<polygon fill="white" stroke="#666666" points="221,-52 70,-52 70,0 221,0 221,-52"/>
<text text-anchor="start" x="78" y="-40" font-family="Helvetica,sans-Serif" font-size="10.00">/home/runner/work/kynema</text>
<text text-anchor="start" x="78" y="-29" font-family="Helvetica,sans-Serif" font-size="10.00">&#45;sgf/kynema&#45;sgf/src/wind</text>
<text text-anchor="start" x="78" y="-18" font-family="Helvetica,sans-Serif" font-size="10.00">_energy/actuator/turbine</text>
<text text-anchor="middle" x="145.5" y="-7" font-family="Helvetica,sans-Serif" font-size="10.00">/fast/TurbineFast.cpp</text>
</a>
</g>
</g>
<!-- Node5&#45;&gt;Node6 -->
<g id="edge5_Node000005_Node000006" class="edge">
<title>Node5&#45;&gt;Node6</title>
<g id="a_edge5_Node000005_Node000006"><a xlink:title=" ">
<path fill="none" stroke="#63b8ff" d="M164.74,-83.79C161.19,-73.32 157.37,-62.03 154.07,-52.29"/>
<polygon fill="#63b8ff" stroke="#63b8ff" points="161.51,-85.15 168.03,-93.5 168.14,-82.9 161.51,-85.15"/>
</a>
</g>
</g>
<!-- Node8 -->
<g id="Node000008" class="node">
<title>Node8</title>
<g id="a_Node000008"><a xlink:href="_turbine_kynema_f_m_b_8cpp.html" target="_top" xlink:title=" ">
<polygon fill="white" stroke="#666666" points="484,-52 281,-52 281,0 484,0 484,-52"/>
<text text-anchor="start" x="289" y="-40" font-family="Helvetica,sans-Serif" font-size="10.00">/home/runner/work/kynema</text>
<text text-anchor="start" x="289" y="-29" font-family="Helvetica,sans-Serif" font-size="10.00">&#45;sgf/kynema&#45;sgf/src/wind</text>
<text text-anchor="start" x="289" y="-18" font-family="Helvetica,sans-Serif" font-size="10.00">_energy/actuator/turbine</text>
<text text-anchor="middle" x="382.5" y="-7" font-family="Helvetica,sans-Serif" font-size="10.00">/kynema_fmb/TurbineKynemaFMB.cpp</text>
</a>
</g>
</g>
<!-- Node7&#45;&gt;Node8 -->
<g id="edge7_Node000007_Node000008" class="edge">
<title>Node7&#45;&gt;Node8</title>
<g id="a_edge7_Node000007_Node000008"><a xlink:title=" ">
<path fill="none" stroke="#63b8ff" d="M365.69,-78.27C368.62,-69.34 371.64,-60.13 374.3,-52.02"/>
<polygon fill="#63b8ff" stroke="#63b8ff" points="362.36,-77.18 362.57,-87.78 369.01,-79.37 362.36,-77.18"/>
</a>
</g>
</g>
<!-- Node9&#45;&gt;Node5 -->
<g id="edge10_Node000009_Node000005" class="edge">
<title>Node9&#45;&gt;Node5</title>
<g id="a_edge10_Node000009_Node000005"><a xlink:title=" ">
<path fill="none" stroke="#63b8ff" d="M110.63,-180.18C123.05,-168.92 136.84,-156.43 148.58,-145.79"/>
<polygon fill="#63b8ff" stroke="#63b8ff" points="108.16,-177.69 103.1,-187 112.86,-182.88 108.16,-177.69"/>
</a>
</g>
</g>
<!-- Node9&#45;&gt;Node6 -->
<g id="edge9_Node000009_Node000006" class="edge">
<title>Node9&#45;&gt;Node6</title>
<g id="a_edge9_Node000009_Node000006"><a xlink:title=" ">
<path fill="none" stroke="#63b8ff" d="M74.61,-176.56C75.25,-150.9 78.79,-115.96 91.5,-88 97.53,-74.74 107.44,-62.27 117.15,-52.11"/>
<polygon fill="#63b8ff" stroke="#63b8ff" points="71.11,-176.55 74.5,-186.59 78.11,-176.63 71.11,-176.55"/>
</a>
</g>
</g>
<!-- Node10&#45;&gt;Node7 -->
<g id="edge13_Node000010_Node000007" class="edge">
<title>Node10&#45;&gt;Node7</title>
<g id="a_edge13_Node000010_Node000007"><a xlink:title=" ">
<path fill="none" stroke="#63b8ff" d="M423.06,-180.28C411.86,-170.79 399.62,-160.42 388.52,-151.02"/>
<polygon fill="#63b8ff" stroke="#63b8ff" points="421.1,-183.2 430.99,-187 425.62,-177.86 421.1,-183.2"/>
</a>
</g>
</g>
<!-- Node10&#45;&gt;Node8 -->
<g id="edge12_Node000010_Node000008" class="edge">
<title>Node10&#45;&gt;Node8</title>
<g id="a_edge12_Node000010_Node000008"><a xlink:title=" ">
<path fill="none" stroke="#63b8ff" d="M461.56,-176.78C460.97,-150.96 457.26,-115.71 443.5,-88 436.77,-74.45 425.86,-62.1 415.11,-52.11"/>
<polygon fill="#63b8ff" stroke="#63b8ff" points="458.06,-176.9 461.64,-186.88 465.06,-176.85 458.06,-176.9"/>
</a>
</g>
</g>
</g>
</svg>
