<?xml version="1.0" encoding="UTF-8" standalone="no"?>
<!DOCTYPE svg PUBLIC "-//W3C//DTD SVG 1.1//EN"
 "http://www.w3.org/Graphics/SVG/1.1/DTD/svg11.dtd">
<!-- Generated by graphviz version 2.43.0 (0)
 -->
<!-- Title: /home/runner/work/kynema&#45;sgf/kynema&#45;sgf/src/wind_energy/actuator/FLLC.H Pages: 1 -->
<svg width="884pt" height="489pt"
 viewBox="0.00 0.00 883.50 489.00" xmlns="http://www.w3.org/2000/svg" xmlns:xlink="http://www.w3.org/1999/xlink">
<g id="graph0" class="graph" transform="scale(1 1) rotate(0) translate(4 485)">
<title>/home/runner/work/kynema&#45;sgf/kynema&#45;sgf/src/wind_energy/actuator/FLLC.H</title>
<!-- Node1 -->
<g id="Node000001" class="node">
<title>Node1</title>
<g id="a_Node000001"><a xlink:title=" ">
<polygon fill="#999999" stroke="#666666" points="449,-481 298,-481 298,-440 449,-440 449,-481"/>
<text text-anchor="start" x="306" y="-469" font-family="Helvetica,sans-Serif" font-size="10.00">/home/runner/work/kynema</text>
<text text-anchor="start" x="306" y="-458" font-family="Helvetica,sans-Serif" font-size="10.00">&#45;sgf/kynema&#45;sgf/src/wind</text>
<text text-anchor="middle" x="373.5" y="-447" font-family="Helvetica,sans-Serif" font-size="10.00">_energy/actuator/FLLC.H</text>
</a>
</g>
</g>
<!-- Node2 -->
<g id="Node000002" class="node">
<title>Node2</title>
<g id="a_Node000002"><a xlink:href="_f_l_l_c_8cpp.html" target="_top" xlink:title=" ">
<polygon fill="white" stroke="#666666" points="280,-398.5 129,-398.5 129,-357.5 280,-357.5 280,-398.5"/>
<text text-anchor="start" x="137" y="-386.5" font-family="Helvetica,sans-Serif" font-size="10.00">/home/runner/work/kynema</text>
<text text-anchor="start" x="137" y="-375.5" font-family="Helvetica,sans-Serif" font-size="10.00">&#45;sgf/kynema&#45;sgf/src/wind</text>
<text text-anchor="middle" x="204.5" y="-364.5" font-family="Helvetica,sans-Serif" font-size="10.00">_energy/actuator/FLLC.cpp</text>
</a>
</g>
</g>
<!-- Node1&#45;&gt;Node2 -->
<g id="edge1_Node000001_Node000002" class="edge">
<title>Node1&#45;&gt;Node2</title>
<g id="a_edge1_Node000001_Node000002"><a xlink:title=" ">
<path fill="none" stroke="#63b8ff" d="M322.95,-435.42C298.29,-423.67 268.99,-409.72 245.71,-398.63"/>
<polygon fill="#63b8ff" stroke="#63b8ff" points="321.62,-438.67 332.16,-439.81 324.63,-432.35 321.62,-438.67"/>
</a>
</g>
</g>
<!-- Node3 -->
<g id="Node000003" class="node">
<title>Node3</title>
<g id="a_Node000003"><a xlink:href="_f_l_l_c_op_8_h.html" target="_top" xlink:title=" ">
<polygon fill="white" stroke="#666666" points="449,-398.5 298,-398.5 298,-357.5 449,-357.5 449,-398.5"/>
<text text-anchor="start" x="306" y="-386.5" font-family="Helvetica,sans-Serif" font-size="10.00">/home/runner/work/kynema</text>
<text text-anchor="start" x="306" y="-375.5" font-family="Helvetica,sans-Serif" font-size="10.00">&#45;sgf/kynema&#45;sgf/src/wind</text>
<text text-anchor="middle" x="373.5" y="-364.5" font-family="Helvetica,sans-Serif" font-size="10.00">_energy/actuator/FLLCOp.H</text>
</a>
</g>
</g>
<!-- Node1&#45;&gt;Node3 -->
<g id="edge2_Node000001_Node000003" class="edge">
<title>Node1&#45;&gt;Node3</title>
<g id="a_edge2_Node000001_Node000003"><a xlink:title=" ">
<path fill="none" stroke="#63b8ff" d="M373.5,-429.37C373.5,-419.1 373.5,-407.9 373.5,-398.67"/>
<polygon fill="#63b8ff" stroke="#63b8ff" points="370,-429.6 373.5,-439.6 377,-429.6 370,-429.6"/>
</a>
</g>
</g>
<!-- Node16 -->
<g id="Node000016" class="node">
<title>Node16</title>
<g id="a_Node000016"><a xlink:href="turbine__utils_8cpp.html" target="_top" xlink:title=" ">
<polygon fill="white" stroke="#666666" points="618,-404 467,-404 467,-352 618,-352 618,-404"/>
<text text-anchor="start" x="475" y="-392" font-family="Helvetica,sans-Serif" font-size="10.00">/home/runner/work/kynema</text>
<text text-anchor="start" x="475" y="-381" font-family="Helvetica,sans-Serif" font-size="10.00">&#45;sgf/kynema&#45;sgf/src/wind</text>
<text text-anchor="start" x="475" y="-370" font-family="Helvetica,sans-Serif" font-size="10.00">_energy/actuator/turbine</text>
<text text-anchor="middle" x="542.5" y="-359" font-family="Helvetica,sans-Serif" font-size="10.00">/turbine_utils.cpp</text>
</a>
</g>
</g>
<!-- Node1&#45;&gt;Node16 -->
<g id="edge16_Node000001_Node000016" class="edge">
<title>Node1&#45;&gt;Node16</title>
<g id="a_edge16_Node000001_Node000016"><a xlink:title=" ">
<path fill="none" stroke="#63b8ff" d="M424.11,-435.39C444.83,-425.52 468.81,-414.1 489.75,-404.13"/>
<polygon fill="#63b8ff" stroke="#63b8ff" points="422.37,-432.35 414.84,-439.81 425.38,-438.67 422.37,-432.35"/>
</a>
</g>
</g>
<!-- Node4 -->
<g id="Node000004" class="node">
<title>Node4</title>
<g id="a_Node000004"><a xlink:href="turbine__external__ops_8_h.html" target="_top" xlink:title=" ">
<polygon fill="white" stroke="#666666" points="343.5,-228 167.5,-228 167.5,-176 343.5,-176 343.5,-228"/>
<text text-anchor="start" x="175.5" y="-216" font-family="Helvetica,sans-Serif" font-size="10.00">/home/runner/work/kynema</text>
<text text-anchor="start" x="175.5" y="-205" font-family="Helvetica,sans-Serif" font-size="10.00">&#45;sgf/kynema&#45;sgf/src/wind</text>
<text text-anchor="start" x="175.5" y="-194" font-family="Helvetica,sans-Serif" font-size="10.00">_energy/actuator/turbine</text>
<text text-anchor="middle" x="255.5" y="-183" font-family="Helvetica,sans-Serif" font-size="10.00">/external/turbine_external_ops.H</text>
</a>
</g>
</g>
<!-- Node3&#45;&gt;Node4 -->
<g id="edge3_Node000003_Node000004" class="edge">
<title>Node3&#45;&gt;Node4</title>
<g id="a_edge3_Node000003_Node000004"><a xlink:title=" ">
<path fill="none" stroke="#63b8ff" d="M315.33,-352.29C299.85,-343.05 284.63,-331.05 274.5,-316 256.83,-289.76 253.78,-252.53 254.01,-228.08"/>
<polygon fill="#63b8ff" stroke="#63b8ff" points="314.01,-355.56 324.45,-357.41 317.44,-349.46 314.01,-355.56"/>
</a>
</g>
</g>
<!-- Node9 -->
<g id="Node000009" class="node">
<title>Node9</title>
<g id="a_Node000009"><a xlink:href="turbine__external__utils_8_h.html" target="_top" xlink:title=" ">
<polygon fill="white" stroke="#666666" points="463.5,-316 283.5,-316 283.5,-264 463.5,-264 463.5,-316"/>
<text text-anchor="start" x="291.5" y="-304" font-family="Helvetica,sans-Serif" font-size="10.00">/home/runner/work/kynema</text>
<text text-anchor="start" x="291.5" y="-293" font-family="Helvetica,sans-Serif" font-size="10.00">&#45;sgf/kynema&#45;sgf/src/wind</text>
<text text-anchor="start" x="291.5" y="-282" font-family="Helvetica,sans-Serif" font-size="10.00">_energy/actuator/turbine</text>
<text text-anchor="middle" x="373.5" y="-271" font-family="Helvetica,sans-Serif" font-size="10.00">/external/turbine_external_utils.H</text>
</a>
</g>
</g>
<!-- Node3&#45;&gt;Node9 -->
<g id="edge8_Node000003_Node000009" class="edge">
<title>Node3&#45;&gt;Node9</title>
<g id="a_edge8_Node000003_Node000009"><a xlink:title=" ">
<path fill="none" stroke="#63b8ff" d="M373.5,-347.44C373.5,-337.31 373.5,-326.08 373.5,-316.32"/>
<polygon fill="#63b8ff" stroke="#63b8ff" points="370,-347.49 373.5,-357.49 377,-347.49 370,-347.49"/>
</a>
</g>
</g>
<!-- Node10 -->
<g id="Node000010" class="node">
<title>Node10</title>
<g id="a_Node000010"><a xlink:href="wing__ops_8_h.html" target="_top" xlink:title=" ">
<polygon fill="white" stroke="#666666" points="694,-310.5 509,-310.5 509,-269.5 694,-269.5 694,-310.5"/>
<text text-anchor="start" x="517" y="-298.5" font-family="Helvetica,sans-Serif" font-size="10.00">/home/runner/work/kynema</text>
<text text-anchor="start" x="517" y="-287.5" font-family="Helvetica,sans-Serif" font-size="10.00">&#45;sgf/kynema&#45;sgf/src/wind</text>
<text text-anchor="middle" x="601.5" y="-276.5" font-family="Helvetica,sans-Serif" font-size="10.00">_energy/actuator/wing/wing_ops.H</text>
</a>
</g>
</g>
<!-- Node3&#45;&gt;Node10 -->
<g id="edge10_Node000003_Node000010" class="edge">
<title>Node3&#45;&gt;Node10</title>
<g id="a_edge10_Node000003_Node000010"><a xlink:title=" ">
<path fill="none" stroke="#63b8ff" d="M434.63,-353.94C470.53,-340.4 515.4,-323.48 549.57,-310.59"/>
<polygon fill="#63b8ff" stroke="#63b8ff" points="433.36,-350.68 425.24,-357.49 435.83,-357.23 433.36,-350.68"/>
</a>
</g>
</g>
<!-- Node5 -->
<g id="Node000005" class="node">
<title>Node5</title>
<g id="a_Node000005"><a xlink:href="turbine__fast__ops_8_h.html" target="_top" xlink:title=" ">
<polygon fill="white" stroke="#666666" points="151,-140 0,-140 0,-88 151,-88 151,-140"/>
<text text-anchor="start" x="8" y="-128" font-family="Helvetica,sans-Serif" font-size="10.00">/home/runner/work/kynema</text>
<text text-anchor="start" x="8" y="-117" font-family="Helvetica,sans-Serif" font-size="10.00">&#45;sgf/kynema&#45;sgf/src/wind</text>
<text text-anchor="start" x="8" y="-106" font-family="Helvetica,sans-Serif" font-size="10.00">_energy/actuator/turbine</text>
<text text-anchor="middle" x="75.5" y="-95" font-family="Helvetica,sans-Serif" font-size="10.00">/fast/turbine_fast_ops.H</text>
</a>
</g>
</g>
<!-- Node4&#45;&gt;Node5 -->
<g id="edge4_Node000004_Node000005" class="edge">
<title>Node4&#45;&gt;Node5</title>
<g id="a_edge4_Node000004_Node000005"><a xlink:title=" ">
<path fill="none" stroke="#63b8ff" d="M193.65,-171.45C172.32,-161.26 148.64,-149.94 128.11,-140.14"/>
<polygon fill="#63b8ff" stroke="#63b8ff" points="192.42,-174.74 202.95,-175.89 195.44,-168.42 192.42,-174.74"/>
</a>
</g>
</g>
<!-- Node7 -->
<g id="Node000007" class="node">
<title>Node7</title>
<g id="a_Node000007"><a xlink:href="turbine__kynema__ops_8_h.html" target="_top" xlink:title=" ">
<polygon fill="white" stroke="#666666" points="342,-140 169,-140 169,-88 342,-88 342,-140"/>
<text text-anchor="start" x="177" y="-128" font-family="Helvetica,sans-Serif" font-size="10.00">/home/runner/work/kynema</text>
<text text-anchor="start" x="177" y="-117" font-family="Helvetica,sans-Serif" font-size="10.00">&#45;sgf/kynema&#45;sgf/src/wind</text>
<text text-anchor="start" x="177" y="-106" font-family="Helvetica,sans-Serif" font-size="10.00">_energy/actuator/turbine</text>
<text text-anchor="middle" x="255.5" y="-95" font-family="Helvetica,sans-Serif" font-size="10.00">/kynema/turbine_kynema_ops.H</text>
</a>
</g>
</g>
<!-- Node4&#45;&gt;Node7 -->
<g id="edge6_Node000004_Node000007" class="edge">
<title>Node4&#45;&gt;Node7</title>
<g id="a_edge6_Node000004_Node000007"><a xlink:title=" ">
<path fill="none" stroke="#63b8ff" d="M255.5,-165.56C255.5,-157.04 255.5,-148.1 255.5,-140.16"/>
<polygon fill="#63b8ff" stroke="#63b8ff" points="252,-165.66 255.5,-175.66 259,-165.66 252,-165.66"/>
</a>
</g>
</g>
<!-- Node6 -->
<g id="Node000006" class="node">
<title>Node6</title>
<g id="a_Node000006"><a xlink:href="_turbine_fast_8cpp.html" target="_top" xlink:title=" ">
<polygon fill="white" stroke="#666666" points="151,-52 0,-52 0,0 151,0 151,-52"/>
<text text-anchor="start" x="8" y="-40" font-family="Helvetica,sans-Serif" font-size="10.00">/home/runner/work/kynema</text>
<text text-anchor="start" x="8" y="-29" font-family="Helvetica,sans-Serif" font-size="10.00">&#45;sgf/kynema&#45;sgf/src/wind</text>
<text text-anchor="start" x="8" y="-18" font-family="Helvetica,sans-Serif" font-size="10.00">_energy/actuator/turbine</text>
<text text-anchor="middle" x="75.5" y="-7" font-family="Helvetica,sans-Serif" font-size="10.00">/fast/TurbineFast.cpp</text>
</a>
</g>
</g>
<!-- Node5&#45;&gt;Node6 -->
<g id="edge5_Node000005_Node000006" class="edge">
<title>Node5&#45;&gt;Node6</title>
<g id="a_edge5_Node000005_Node000006"><a xlink:title=" ">
<path fill="none" stroke="#63b8ff" d="M75.5,-77.56C75.5,-69.04 75.5,-60.1 75.5,-52.16"/>
<polygon fill="#63b8ff" stroke="#63b8ff" points="72,-77.66 75.5,-87.66 79,-77.66 72,-77.66"/>
</a>
</g>
</g>
<!-- Node8 -->
<g id="Node000008" class="node">
<title>Node8</title>
<g id="a_Node000008"><a xlink:href="_turbine_kynema_8cpp.html" target="_top" xlink:title=" ">
<polygon fill="white" stroke="#666666" points="334,-52 177,-52 177,0 334,0 334,-52"/>
<text text-anchor="start" x="185" y="-40" font-family="Helvetica,sans-Serif" font-size="10.00">/home/runner/work/kynema</text>
<text text-anchor="start" x="185" y="-29" font-family="Helvetica,sans-Serif" font-size="10.00">&#45;sgf/kynema&#45;sgf/src/wind</text>
<text text-anchor="start" x="185" y="-18" font-family="Helvetica,sans-Serif" font-size="10.00">_energy/actuator/turbine</text>
<text text-anchor="middle" x="255.5" y="-7" font-family="Helvetica,sans-Serif" font-size="10.00">/kynema/TurbineKynema.cpp</text>
</a>
</g>
</g>
<!-- Node7&#45;&gt;Node8 -->
<g id="edge7_Node000007_Node000008" class="edge">
<title>Node7&#45;&gt;Node8</title>
<g id="a_edge7_Node000007_Node000008"><a xlink:title=" ">
<path fill="none" stroke="#63b8ff" d="M255.5,-77.56C255.5,-69.04 255.5,-60.1 255.5,-52.16"/>
<polygon fill="#63b8ff" stroke="#63b8ff" points="252,-77.66 255.5,-87.66 259,-77.66 252,-77.66"/>
</a>
</g>
</g>
<!-- Node9&#45;&gt;Node4 -->
<g id="edge9_Node000009_Node000004" class="edge">
<title>Node9&#45;&gt;Node4</title>
<g id="a_edge9_Node000009_Node000004"><a xlink:title=" ">
<path fill="none" stroke="#63b8ff" d="M330.91,-257.96C317.54,-248.22 302.95,-237.58 290.19,-228.29"/>
<polygon fill="#63b8ff" stroke="#63b8ff" points="328.91,-260.83 339.05,-263.89 333.03,-255.18 328.91,-260.83"/>
</a>
</g>
</g>
<!-- Node11 -->
<g id="Node000011" class="node">
<title>Node11</title>
<g id="a_Node000011"><a xlink:href="fixed__wing__ops_8_h.html" target="_top" xlink:title=" ">
<polygon fill="white" stroke="#666666" points="535.5,-228 383.5,-228 383.5,-176 535.5,-176 535.5,-228"/>
<text text-anchor="start" x="391.5" y="-216" font-family="Helvetica,sans-Serif" font-size="10.00">/home/runner/work/kynema</text>
<text text-anchor="start" x="391.5" y="-205" font-family="Helvetica,sans-Serif" font-size="10.00">&#45;sgf/kynema&#45;sgf/src/wind</text>
<text text-anchor="start" x="391.5" y="-194" font-family="Helvetica,sans-Serif" font-size="10.00">_energy/actuator/wing/fixed</text>
<text text-anchor="middle" x="459.5" y="-183" font-family="Helvetica,sans-Serif" font-size="10.00">_wing_ops.H</text>
</a>
</g>
</g>
<!-- Node10&#45;&gt;Node11 -->
<g id="edge11_Node000010_Node000011" class="edge">
<title>Node10&#45;&gt;Node11</title>
<g id="a_edge11_Node000010_Node000011"><a xlink:title=" ">
<path fill="none" stroke="#63b8ff" d="M560.68,-264.28C541.97,-252.95 519.83,-239.54 501.04,-228.16"/>
<polygon fill="#63b8ff" stroke="#63b8ff" points="558.91,-267.3 569.28,-269.49 562.54,-261.31 558.91,-267.3"/>
</a>
</g>
</g>
<!-- Node13 -->
<g id="Node000013" class="node">
<title>Node13</title>
<g id="a_Node000013"><a xlink:href="flat__plate__ops_8_h.html" target="_top" xlink:title=" ">
<polygon fill="white" stroke="#666666" points="705,-228 554,-228 554,-176 705,-176 705,-228"/>
<text text-anchor="start" x="562" y="-216" font-family="Helvetica,sans-Serif" font-size="10.00">/home/runner/work/kynema</text>
<text text-anchor="start" x="562" y="-205" font-family="Helvetica,sans-Serif" font-size="10.00">&#45;sgf/kynema&#45;sgf/src/wind</text>
<text text-anchor="start" x="562" y="-194" font-family="Helvetica,sans-Serif" font-size="10.00">_energy/actuator/wing/flat</text>
<text text-anchor="middle" x="629.5" y="-183" font-family="Helvetica,sans-Serif" font-size="10.00">_plate_ops.H</text>
</a>
</g>
</g>
<!-- Node10&#45;&gt;Node13 -->
<g id="edge13_Node000010_Node000013" class="edge">
<title>Node10&#45;&gt;Node13</title>
<g id="a_edge13_Node000010_Node000013"><a xlink:title=" ">
<path fill="none" stroke="#63b8ff" d="M611.02,-259.76C614.34,-249.55 618.05,-238.18 621.26,-228.32"/>
<polygon fill="#63b8ff" stroke="#63b8ff" points="607.62,-258.89 607.85,-269.49 614.28,-261.06 607.62,-258.89"/>
</a>
</g>
</g>
<!-- Node15 -->
<g id="Node000015" class="node">
<title>Node15</title>
<g id="a_Node000015"><a xlink:href="wing__ops_8cpp.html" target="_top" xlink:title=" ">
<polygon fill="white" stroke="#666666" points="875.5,-228 723.5,-228 723.5,-176 875.5,-176 875.5,-228"/>
<text text-anchor="start" x="731.5" y="-216" font-family="Helvetica,sans-Serif" font-size="10.00">/home/runner/work/kynema</text>
<text text-anchor="start" x="731.5" y="-205" font-family="Helvetica,sans-Serif" font-size="10.00">&#45;sgf/kynema&#45;sgf/src/wind</text>
<text text-anchor="start" x="731.5" y="-194" font-family="Helvetica,sans-Serif" font-size="10.00">_energy/actuator/wing/wing</text>
<text text-anchor="middle" x="799.5" y="-183" font-family="Helvetica,sans-Serif" font-size="10.00">_ops.cpp</text>
</a>
</g>
</g>
<!-- Node10&#45;&gt;Node15 -->
<g id="edge15_Node000010_Node000015" class="edge">
<title>Node10&#45;&gt;Node15</title>
<g id="a_edge15_Node000010_Node000015"><a xlink:title=" ">
<path fill="none" stroke="#63b8ff" d="M655.61,-265.5C682.27,-253.92 714.43,-239.95 741.58,-228.16"/>
<polygon fill="#63b8ff" stroke="#63b8ff" points="654.21,-262.29 646.43,-269.49 657,-268.71 654.21,-262.29"/>
</a>
</g>
</g>
<!-- Node12 -->
<g id="Node000012" class="node">
<title>Node12</title>
<g id="a_Node000012"><a xlink:href="_fixed_wing_8cpp.html" target="_top" xlink:title=" ">
<polygon fill="white" stroke="#666666" points="559,-134.5 360,-134.5 360,-93.5 559,-93.5 559,-134.5"/>
<text text-anchor="start" x="368" y="-122.5" font-family="Helvetica,sans-Serif" font-size="10.00">/home/runner/work/kynema</text>
<text text-anchor="start" x="368" y="-111.5" font-family="Helvetica,sans-Serif" font-size="10.00">&#45;sgf/kynema&#45;sgf/src/wind</text>
<text text-anchor="middle" x="459.5" y="-100.5" font-family="Helvetica,sans-Serif" font-size="10.00">_energy/actuator/wing/FixedWing.cpp</text>
</a>
</g>
</g>
<!-- Node11&#45;&gt;Node12 -->
<g id="edge12_Node000011_Node000012" class="edge">
<title>Node11&#45;&gt;Node12</title>
<g id="a_edge12_Node000011_Node000012"><a xlink:title=" ">
<path fill="none" stroke="#63b8ff" d="M459.5,-165.45C459.5,-154.94 459.5,-143.82 459.5,-134.7"/>
<polygon fill="#63b8ff" stroke="#63b8ff" points="456,-165.66 459.5,-175.66 463,-165.66 456,-165.66"/>
</a>
</g>
</g>
<!-- Node14 -->
<g id="Node000014" class="node">
<title>Node14</title>
<g id="a_Node000014"><a xlink:href="_flat_plate_8cpp.html" target="_top" xlink:title=" ">
<polygon fill="white" stroke="#666666" points="769.5,-134.5 577.5,-134.5 577.5,-93.5 769.5,-93.5 769.5,-134.5"/>
<text text-anchor="start" x="585.5" y="-122.5" font-family="Helvetica,sans-Serif" font-size="10.00">/home/runner/work/kynema</text>
<text text-anchor="start" x="585.5" y="-111.5" font-family="Helvetica,sans-Serif" font-size="10.00">&#45;sgf/kynema&#45;sgf/src/wind</text>
<text text-anchor="middle" x="673.5" y="-100.5" font-family="Helvetica,sans-Serif" font-size="10.00">_energy/actuator/wing/FlatPlate.cpp</text>
</a>
</g>
</g>
<!-- Node13&#45;&gt;Node14 -->
<g id="edge14_Node000013_Node000014" class="edge">
<title>Node13&#45;&gt;Node14</title>
<g id="a_edge14_Node000013_Node000014"><a xlink:title=" ">
<path fill="none" stroke="#63b8ff" d="M647.18,-166.44C652.71,-155.64 658.61,-144.11 663.42,-134.7"/>
<polygon fill="#63b8ff" stroke="#63b8ff" points="643.9,-165.17 642.46,-175.66 650.13,-168.35 643.9,-165.17"/>
</a>
</g>
</g>
</g>
</svg>
