<?xml version="1.0" encoding="UTF-8" standalone="no"?>
<!DOCTYPE svg PUBLIC "-//W3C//DTD SVG 1.1//EN"
 "http://www.w3.org/Graphics/SVG/1.1/DTD/svg11.dtd">
<!-- Generated by graphviz version 2.43.0 (0)
 -->
<!-- Title: /home/runner/work/kynema&#45;sgf/kynema&#45;sgf/src/utilities/FieldPlaneAveragingFine.H Pages: 1 -->
<svg width="3232pt" height="456pt"
 viewBox="0.00 0.00 3232.00 456.00" xmlns="http://www.w3.org/2000/svg" xmlns:xlink="http://www.w3.org/1999/xlink">
<g id="graph0" class="graph" transform="scale(1 1) rotate(0) translate(4 452)">
<title>/home/runner/work/kynema&#45;sgf/kynema&#45;sgf/src/utilities/FieldPlaneAveragingFine.H</title>
<!-- Node1 -->
<g id="Node000001" class="node">
<title>Node1</title>
<g id="a_Node000001"><a xlink:title=" ">
<polygon fill="#999999" stroke="#666666" points="665,-448 512,-448 512,-407 665,-407 665,-448"/>
<text text-anchor="start" x="520" y="-436" font-family="Helvetica,sans-Serif" font-size="10.00">/home/runner/work/kynema</text>
<text text-anchor="start" x="520" y="-425" font-family="Helvetica,sans-Serif" font-size="10.00">&#45;sgf/kynema&#45;sgf/src/utilities</text>
<text text-anchor="middle" x="588.5" y="-414" font-family="Helvetica,sans-Serif" font-size="10.00">/FieldPlaneAveragingFine.H</text>
</a>
</g>
</g>
<!-- Node2 -->
<g id="Node000002" class="node">
<title>Node2</title>
<g id="a_Node000002"><a xlink:href="_wall_function_8_h.html" target="_top" xlink:title=" ">
<polygon fill="white" stroke="#666666" points="401.5,-371 189.5,-371 189.5,-330 401.5,-330 401.5,-371"/>
<text text-anchor="start" x="197.5" y="-359" font-family="Helvetica,sans-Serif" font-size="10.00">/home/runner/work/kynema</text>
<text text-anchor="start" x="197.5" y="-348" font-family="Helvetica,sans-Serif" font-size="10.00">&#45;sgf/kynema&#45;sgf/src/boundary</text>
<text text-anchor="middle" x="295.5" y="-337" font-family="Helvetica,sans-Serif" font-size="10.00">_conditions/wall_models/WallFunction.H</text>
</a>
</g>
</g>
<!-- Node1&#45;&gt;Node2 -->
<g id="edge1_Node000001_Node000002" class="edge">
<title>Node1&#45;&gt;Node2</title>
<g id="a_edge1_Node000001_Node000002"><a xlink:title=" ">
<path fill="none" stroke="#63b8ff" d="M502.49,-404.48C461.1,-393.89 411.89,-381.29 371.84,-371.04"/>
<polygon fill="#63b8ff" stroke="#63b8ff" points="501.73,-407.9 512.28,-406.99 503.46,-401.12 501.73,-407.9"/>
</a>
</g>
</g>
<!-- Node6 -->
<g id="Node000006" class="node">
<title>Node6</title>
<g id="a_Node000006"><a xlink:href="_a_b_l_meso_forcing_mom_8_h.html" target="_top" xlink:title=" ">
<polygon fill="white" stroke="#666666" points="333,-217 174,-217 174,-165 333,-165 333,-217"/>
<text text-anchor="start" x="182" y="-205" font-family="Helvetica,sans-Serif" font-size="10.00">/home/runner/work/kynema</text>
<text text-anchor="start" x="182" y="-194" font-family="Helvetica,sans-Serif" font-size="10.00">&#45;sgf/kynema&#45;sgf/src/equation</text>
<text text-anchor="start" x="182" y="-183" font-family="Helvetica,sans-Serif" font-size="10.00">_systems/icns/source_terms</text>
<text text-anchor="middle" x="253.5" y="-172" font-family="Helvetica,sans-Serif" font-size="10.00">/ABLMesoForcingMom.H</text>
</a>
</g>
</g>
<!-- Node1&#45;&gt;Node6 -->
<g id="edge5_Node000001_Node000006" class="edge">
<title>Node1&#45;&gt;Node6</title>
<g id="a_edge5_Node000001_Node000006"><a xlink:title=" ">
<path fill="none" stroke="#63b8ff" d="M555.15,-400.49C544.13,-391.48 532.02,-381.1 521.5,-371 470.66,-322.16 473.7,-292.78 415.5,-253 400.74,-242.91 364.69,-229.02 330.34,-217.04"/>
<polygon fill="#63b8ff" stroke="#63b8ff" points="552.95,-403.22 562.93,-406.78 557.35,-397.77 552.95,-403.22"/>
</a>
</g>
</g>
<!-- Node10 -->
<g id="Node000010" class="node">
<title>Node10</title>
<g id="a_Node000010"><a xlink:href="_a_b_l_meso_forcing_temp_8_h.html" target="_top" xlink:title=" ">
<polygon fill="white" stroke="#666666" points="690.5,-217 520.5,-217 520.5,-165 690.5,-165 690.5,-217"/>
<text text-anchor="start" x="528.5" y="-205" font-family="Helvetica,sans-Serif" font-size="10.00">/home/runner/work/kynema</text>
<text text-anchor="start" x="528.5" y="-194" font-family="Helvetica,sans-Serif" font-size="10.00">&#45;sgf/kynema&#45;sgf/src/equation</text>
<text text-anchor="start" x="528.5" y="-183" font-family="Helvetica,sans-Serif" font-size="10.00">_systems/temperature/source</text>
<text text-anchor="middle" x="605.5" y="-172" font-family="Helvetica,sans-Serif" font-size="10.00">_terms/ABLMesoForcingTemp.H</text>
</a>
</g>
</g>
<!-- Node1&#45;&gt;Node10 -->
<g id="edge9_Node000001_Node000010" class="edge">
<title>Node1&#45;&gt;Node10</title>
<g id="a_edge9_Node000001_Node000010"><a xlink:title=" ">
<path fill="none" stroke="#63b8ff" d="M590.65,-396.86C594.02,-350.33 600.5,-260.97 603.67,-217.29"/>
<polygon fill="#63b8ff" stroke="#63b8ff" points="587.15,-396.68 589.92,-406.91 594.13,-397.19 587.15,-396.68"/>
</a>
</g>
</g>
<!-- Node12 -->
<g id="Node000012" class="node">
<title>Node12</title>
<g id="a_Node000012"><a xlink:href="_a_m_d_8_h.html" target="_top" xlink:title=" ">
<polygon fill="white" stroke="#666666" points="955.5,-371 787.5,-371 787.5,-330 955.5,-330 955.5,-371"/>
<text text-anchor="start" x="795.5" y="-359" font-family="Helvetica,sans-Serif" font-size="10.00">/home/runner/work/kynema</text>
<text text-anchor="start" x="795.5" y="-348" font-family="Helvetica,sans-Serif" font-size="10.00">&#45;sgf/kynema&#45;sgf/src/turbulence</text>
<text text-anchor="middle" x="871.5" y="-337" font-family="Helvetica,sans-Serif" font-size="10.00">/LES/AMD.H</text>
</a>
</g>
</g>
<!-- Node1&#45;&gt;Node12 -->
<g id="edge13_Node000001_Node000012" class="edge">
<title>Node1&#45;&gt;Node12</title>
<g id="a_edge13_Node000001_Node000012"><a xlink:title=" ">
<path fill="none" stroke="#63b8ff" d="M671.83,-404.42C711.76,-393.84 759.16,-381.27 797.76,-371.04"/>
<polygon fill="#63b8ff" stroke="#63b8ff" points="670.89,-401.05 662.12,-406.99 672.68,-407.81 670.89,-401.05"/>
</a>
</g>
</g>
<!-- Node14 -->
<g id="Node000014" class="node">
<title>Node14</title>
<g id="a_Node000014"><a xlink:href="_field_plane_averaging_fine_8cpp.html" target="_top" xlink:title=" ">
<polygon fill="white" stroke="#666666" points="1132,-371 973,-371 973,-330 1132,-330 1132,-371"/>
<text text-anchor="start" x="981" y="-359" font-family="Helvetica,sans-Serif" font-size="10.00">/home/runner/work/kynema</text>
<text text-anchor="start" x="981" y="-348" font-family="Helvetica,sans-Serif" font-size="10.00">&#45;sgf/kynema&#45;sgf/src/utilities</text>
<text text-anchor="middle" x="1052.5" y="-337" font-family="Helvetica,sans-Serif" font-size="10.00">/FieldPlaneAveragingFine.cpp</text>
</a>
</g>
</g>
<!-- Node1&#45;&gt;Node14 -->
<g id="edge15_Node000001_Node000014" class="edge">
<title>Node1&#45;&gt;Node14</title>
<g id="a_edge15_Node000001_Node000014"><a xlink:title=" ">
<path fill="none" stroke="#63b8ff" d="M675.16,-415.5C751.55,-405.38 865.76,-389.2 964.5,-371 967.27,-370.49 970.09,-369.95 972.93,-369.4"/>
<polygon fill="#63b8ff" stroke="#63b8ff" points="674.56,-412.05 665.1,-416.83 675.47,-418.99 674.56,-412.05"/>
</a>
</g>
</g>
<!-- Node15 -->
<g id="Node000015" class="node">
<title>Node15</title>
<g id="a_Node000015"><a xlink:href="_a_b_l_stats_8_h.html" target="_top" xlink:title=" ">
<polygon fill="white" stroke="#666666" points="502,-211.5 351,-211.5 351,-170.5 502,-170.5 502,-211.5"/>
<text text-anchor="start" x="359" y="-199.5" font-family="Helvetica,sans-Serif" font-size="10.00">/home/runner/work/kynema</text>
<text text-anchor="start" x="359" y="-188.5" font-family="Helvetica,sans-Serif" font-size="10.00">&#45;sgf/kynema&#45;sgf/src/wind</text>
<text text-anchor="middle" x="426.5" y="-177.5" font-family="Helvetica,sans-Serif" font-size="10.00">_energy/ABLStats.H</text>
</a>
</g>
</g>
<!-- Node1&#45;&gt;Node15 -->
<g id="edge16_Node000001_Node000015" class="edge">
<title>Node1&#45;&gt;Node15</title>
<g id="a_edge16_Node000001_Node000015"><a xlink:title=" ">
<path fill="none" stroke="#63b8ff" d="M569.18,-398.53C535.97,-350.47 468.88,-253.35 440.11,-211.7"/>
<polygon fill="#63b8ff" stroke="#63b8ff" points="566.4,-400.67 574.97,-406.91 572.16,-396.69 566.4,-400.67"/>
</a>
</g>
</g>
<!-- Node16 -->
<g id="Node000016" class="node">
<title>Node16</title>
<g id="a_Node000016"><a xlink:href="_a_b_l_wall_function_8_h.html" target="_top" xlink:title=" ">
<polygon fill="white" stroke="#666666" points="769,-371 618,-371 618,-330 769,-330 769,-371"/>
<text text-anchor="start" x="626" y="-359" font-family="Helvetica,sans-Serif" font-size="10.00">/home/runner/work/kynema</text>
<text text-anchor="start" x="626" y="-348" font-family="Helvetica,sans-Serif" font-size="10.00">&#45;sgf/kynema&#45;sgf/src/wind</text>
<text text-anchor="middle" x="693.5" y="-337" font-family="Helvetica,sans-Serif" font-size="10.00">_energy/ABLWallFunction.H</text>
</a>
</g>
</g>
<!-- Node1&#45;&gt;Node16 -->
<g id="edge18_Node000001_Node000016" class="edge">
<title>Node1&#45;&gt;Node16</title>
<g id="a_edge18_Node000001_Node000016"><a xlink:title=" ">
<path fill="none" stroke="#63b8ff" d="M624.07,-401.09C637.75,-391.32 653.15,-380.32 665.96,-371.17"/>
<polygon fill="#63b8ff" stroke="#63b8ff" points="621.92,-398.33 615.81,-406.99 625.99,-404.03 621.92,-398.33"/>
</a>
</g>
</g>
<!-- Node3 -->
<g id="Node000003" class="node">
<title>Node3</title>
<g id="a_Node000003"><a xlink:href="_wall_function_8cpp.html" target="_top" xlink:title=" ">
<polygon fill="white" stroke="#666666" points="406.5,-294 184.5,-294 184.5,-253 406.5,-253 406.5,-294"/>
<text text-anchor="start" x="192.5" y="-282" font-family="Helvetica,sans-Serif" font-size="10.00">/home/runner/work/kynema</text>
<text text-anchor="start" x="192.5" y="-271" font-family="Helvetica,sans-Serif" font-size="10.00">&#45;sgf/kynema&#45;sgf/src/boundary</text>
<text text-anchor="middle" x="295.5" y="-260" font-family="Helvetica,sans-Serif" font-size="10.00">_conditions/wall_models/WallFunction.cpp</text>
</a>
</g>
</g>
<!-- Node2&#45;&gt;Node3 -->
<g id="edge2_Node000002_Node000003" class="edge">
<title>Node2&#45;&gt;Node3</title>
<g id="a_edge2_Node000002_Node000003"><a xlink:title=" ">
<path fill="none" stroke="#63b8ff" d="M295.5,-319.69C295.5,-311.08 295.5,-301.9 295.5,-294.07"/>
<polygon fill="#63b8ff" stroke="#63b8ff" points="292,-319.79 295.5,-329.79 299,-319.79 292,-319.79"/>
</a>
</g>
</g>
<!-- Node4 -->
<g id="Node000004" class="node">
<title>Node4</title>
<g id="a_Node000004"><a xlink:href="_channel_flow_8_h.html" target="_top" xlink:title=" ">
<polygon fill="white" stroke="#666666" points="158,-294 5,-294 5,-253 158,-253 158,-294"/>
<text text-anchor="start" x="13" y="-282" font-family="Helvetica,sans-Serif" font-size="10.00">/home/runner/work/kynema</text>
<text text-anchor="start" x="13" y="-271" font-family="Helvetica,sans-Serif" font-size="10.00">&#45;sgf/kynema&#45;sgf/src/physics</text>
<text text-anchor="middle" x="81.5" y="-260" font-family="Helvetica,sans-Serif" font-size="10.00">/ChannelFlow.H</text>
</a>
</g>
</g>
<!-- Node2&#45;&gt;Node4 -->
<g id="edge3_Node000002_Node000004" class="edge">
<title>Node2&#45;&gt;Node4</title>
<g id="a_edge3_Node000002_Node000004"><a xlink:title=" ">
<path fill="none" stroke="#63b8ff" d="M230.37,-326.67C200.63,-316.25 165.77,-304.03 137.26,-294.04"/>
<polygon fill="#63b8ff" stroke="#63b8ff" points="229.24,-329.99 239.83,-329.99 231.55,-323.38 229.24,-329.99"/>
</a>
</g>
</g>
<!-- Node5 -->
<g id="Node000005" class="node">
<title>Node5</title>
<g id="a_Node000005"><a xlink:href="_channel_flow_8cpp.html" target="_top" xlink:title=" ">
<polygon fill="white" stroke="#666666" points="156,-211.5 3,-211.5 3,-170.5 156,-170.5 156,-211.5"/>
<text text-anchor="start" x="11" y="-199.5" font-family="Helvetica,sans-Serif" font-size="10.00">/home/runner/work/kynema</text>
<text text-anchor="start" x="11" y="-188.5" font-family="Helvetica,sans-Serif" font-size="10.00">&#45;sgf/kynema&#45;sgf/src/physics</text>
<text text-anchor="middle" x="79.5" y="-177.5" font-family="Helvetica,sans-Serif" font-size="10.00">/ChannelFlow.cpp</text>
</a>
</g>
</g>
<!-- Node4&#45;&gt;Node5 -->
<g id="edge4_Node000004_Node000005" class="edge">
<title>Node4&#45;&gt;Node5</title>
<g id="a_edge4_Node000004_Node000005"><a xlink:title=" ">
<path fill="none" stroke="#63b8ff" d="M80.75,-242.37C80.5,-232.1 80.22,-220.9 79.99,-211.67"/>
<polygon fill="#63b8ff" stroke="#63b8ff" points="77.26,-242.69 81.01,-252.6 84.26,-242.52 77.26,-242.69"/>
</a>
</g>
</g>
<!-- Node7 -->
<g id="Node000007" class="node">
<title>Node7</title>
<g id="a_Node000007"><a xlink:href="_a_b_l_meso_forcing_mom_8cpp.html" target="_top" xlink:title=" ">
<polygon fill="white" stroke="#666666" points="328,-129 169,-129 169,-77 328,-77 328,-129"/>
<text text-anchor="start" x="177" y="-117" font-family="Helvetica,sans-Serif" font-size="10.00">/home/runner/work/kynema</text>
<text text-anchor="start" x="177" y="-106" font-family="Helvetica,sans-Serif" font-size="10.00">&#45;sgf/kynema&#45;sgf/src/equation</text>
<text text-anchor="start" x="177" y="-95" font-family="Helvetica,sans-Serif" font-size="10.00">_systems/icns/source_terms</text>
<text text-anchor="middle" x="248.5" y="-84" font-family="Helvetica,sans-Serif" font-size="10.00">/ABLMesoForcingMom.cpp</text>
</a>
</g>
</g>
<!-- Node6&#45;&gt;Node7 -->
<g id="edge6_Node000006_Node000007" class="edge">
<title>Node6&#45;&gt;Node7</title>
<g id="a_edge6_Node000006_Node000007"><a xlink:title=" ">
<path fill="none" stroke="#63b8ff" d="M251.44,-154.56C250.94,-146.04 250.42,-137.1 249.96,-129.16"/>
<polygon fill="#63b8ff" stroke="#63b8ff" points="247.95,-154.88 252.03,-164.66 254.94,-154.48 247.95,-154.88"/>
</a>
</g>
</g>
<!-- Node8 -->
<g id="Node000008" class="node">
<title>Node8</title>
<g id="a_Node000008"><a xlink:href="_a_b_l_8cpp.html" target="_top" xlink:title=" ">
<polygon fill="white" stroke="#666666" points="497,-123.5 346,-123.5 346,-82.5 497,-82.5 497,-123.5"/>
<text text-anchor="start" x="354" y="-111.5" font-family="Helvetica,sans-Serif" font-size="10.00">/home/runner/work/kynema</text>
<text text-anchor="start" x="354" y="-100.5" font-family="Helvetica,sans-Serif" font-size="10.00">&#45;sgf/kynema&#45;sgf/src/wind</text>
<text text-anchor="middle" x="421.5" y="-89.5" font-family="Helvetica,sans-Serif" font-size="10.00">_energy/ABL.cpp</text>
</a>
</g>
</g>
<!-- Node6&#45;&gt;Node8 -->
<g id="edge7_Node000006_Node000008" class="edge">
<title>Node6&#45;&gt;Node8</title>
<g id="a_edge7_Node000006_Node000008"><a xlink:title=" ">
<path fill="none" stroke="#63b8ff" d="M311.49,-160.32C335.26,-148.15 362.12,-134.4 383.35,-123.53"/>
<polygon fill="#63b8ff" stroke="#63b8ff" points="309.85,-157.22 302.54,-164.89 313.04,-163.45 309.85,-157.22"/>
</a>
</g>
</g>
<!-- Node9 -->
<g id="Node000009" class="node">
<title>Node9</title>
<g id="a_Node000009"><a xlink:href="_a_b_l_stats_8cpp.html" target="_top" xlink:title=" ">
<polygon fill="white" stroke="#666666" points="151,-123.5 0,-123.5 0,-82.5 151,-82.5 151,-123.5"/>
<text text-anchor="start" x="8" y="-111.5" font-family="Helvetica,sans-Serif" font-size="10.00">/home/runner/work/kynema</text>
<text text-anchor="start" x="8" y="-100.5" font-family="Helvetica,sans-Serif" font-size="10.00">&#45;sgf/kynema&#45;sgf/src/wind</text>
<text text-anchor="middle" x="75.5" y="-89.5" font-family="Helvetica,sans-Serif" font-size="10.00">_energy/ABLStats.cpp</text>
</a>
</g>
</g>
<!-- Node6&#45;&gt;Node9 -->
<g id="edge8_Node000006_Node000009" class="edge">
<title>Node6&#45;&gt;Node9</title>
<g id="a_edge8_Node000006_Node000009"><a xlink:title=" ">
<path fill="none" stroke="#63b8ff" d="M192.39,-160.48C167.12,-148.27 138.51,-134.44 115.92,-123.53"/>
<polygon fill="#63b8ff" stroke="#63b8ff" points="191.01,-163.7 201.54,-164.89 194.05,-157.39 191.01,-163.7"/>
</a>
</g>
</g>
<!-- Node10&#45;&gt;Node8 -->
<g id="edge11_Node000010_Node000008" class="edge">
<title>Node10&#45;&gt;Node8</title>
<g id="a_edge11_Node000010_Node000008"><a xlink:title=" ">
<path fill="none" stroke="#63b8ff" d="M542.68,-160.64C516.47,-148.39 486.74,-134.49 463.29,-123.53"/>
<polygon fill="#63b8ff" stroke="#63b8ff" points="541.24,-163.83 551.78,-164.89 544.21,-157.49 541.24,-163.83"/>
</a>
</g>
</g>
<!-- Node10&#45;&gt;Node9 -->
<g id="edge12_Node000010_Node000009" class="edge">
<title>Node10&#45;&gt;Node9</title>
<g id="a_edge12_Node000010_Node000009"><a xlink:title=" ">
<path fill="none" stroke="#63b8ff" d="M510.81,-165.06C510.7,-165.04 510.6,-165.02 510.5,-165 356.21,-136.96 313.32,-159.5 159.5,-129 151.89,-127.49 143.98,-125.59 136.18,-123.52"/>
<polygon fill="#63b8ff" stroke="#63b8ff" points="509.96,-168.46 520.45,-166.94 511.3,-161.59 509.96,-168.46"/>
</a>
</g>
</g>
<!-- Node11 -->
<g id="Node000011" class="node">
<title>Node11</title>
<g id="a_Node000011"><a xlink:href="_a_b_l_meso_forcing_temp_8cpp.html" target="_top" xlink:title=" ">
<polygon fill="white" stroke="#666666" points="695.5,-129 515.5,-129 515.5,-77 695.5,-77 695.5,-129"/>
<text text-anchor="start" x="523.5" y="-117" font-family="Helvetica,sans-Serif" font-size="10.00">/home/runner/work/kynema</text>
<text text-anchor="start" x="523.5" y="-106" font-family="Helvetica,sans-Serif" font-size="10.00">&#45;sgf/kynema&#45;sgf/src/equation</text>
<text text-anchor="start" x="523.5" y="-95" font-family="Helvetica,sans-Serif" font-size="10.00">_systems/temperature/source</text>
<text text-anchor="middle" x="605.5" y="-84" font-family="Helvetica,sans-Serif" font-size="10.00">_terms/ABLMesoForcingTemp.cpp</text>
</a>
</g>
</g>
<!-- Node10&#45;&gt;Node11 -->
<g id="edge10_Node000010_Node000011" class="edge">
<title>Node10&#45;&gt;Node11</title>
<g id="a_edge10_Node000010_Node000011"><a xlink:title=" ">
<path fill="none" stroke="#63b8ff" d="M605.5,-154.56C605.5,-146.04 605.5,-137.1 605.5,-129.16"/>
<polygon fill="#63b8ff" stroke="#63b8ff" points="602,-154.66 605.5,-164.66 609,-154.66 602,-154.66"/>
</a>
</g>
</g>
<!-- Node13 -->
<g id="Node000013" class="node">
<title>Node13</title>
<g id="a_Node000013"><a xlink:href="_a_m_d_8cpp.html" target="_top" xlink:title=" ">
<polygon fill="white" stroke="#666666" points="1728.5,-294 1560.5,-294 1560.5,-253 1728.5,-253 1728.5,-294"/>
<text text-anchor="start" x="1568.5" y="-282" font-family="Helvetica,sans-Serif" font-size="10.00">/home/runner/work/kynema</text>
<text text-anchor="start" x="1568.5" y="-271" font-family="Helvetica,sans-Serif" font-size="10.00">&#45;sgf/kynema&#45;sgf/src/turbulence</text>
<text text-anchor="middle" x="1644.5" y="-260" font-family="Helvetica,sans-Serif" font-size="10.00">/LES/AMD.cpp</text>
</a>
</g>
</g>
<!-- Node12&#45;&gt;Node13 -->
<g id="edge14_Node000012_Node000013" class="edge">
<title>Node12&#45;&gt;Node13</title>
<g id="a_edge14_Node000012_Node000013"><a xlink:title=" ">
<path fill="none" stroke="#63b8ff" d="M965.64,-329.8C1222.5,-295.8 1292.32,-326.98 1546.5,-294 1551.06,-293.41 1555.72,-292.73 1560.42,-291.99"/>
<polygon fill="#63b8ff" stroke="#63b8ff" points="965.09,-326.35 955.64,-331.15 966.02,-333.28 965.09,-326.35"/>
</a>
</g>
</g>
<!-- Node15&#45;&gt;Node9 -->
<g id="edge17_Node000015_Node000009" class="edge">
<title>Node15&#45;&gt;Node9</title>
<g id="a_edge17_Node000015_Node000009"><a xlink:title=" ">
<path fill="none" stroke="#63b8ff" d="M352.39,-167.77C348.72,-166.81 345.07,-165.88 341.5,-165 261.42,-145.35 239.55,-148.78 159.5,-129 152.85,-127.36 145.95,-125.52 139.08,-123.61"/>
<polygon fill="#63b8ff" stroke="#63b8ff" points="351.59,-171.18 362.16,-170.41 353.41,-164.42 351.59,-171.18"/>
</a>
</g>
</g>
<!-- Node16&#45;&gt;Node15 -->
<g id="edge40_Node000016_Node000015" class="edge">
<title>Node16&#45;&gt;Node15</title>
<g id="a_edge40_Node000016_Node000015"><a xlink:title=" ">
<path fill="none" stroke="#63b8ff" d="M651.4,-324.67C598.36,-293.38 508.27,-240.24 459.77,-211.63"/>
<polygon fill="#63b8ff" stroke="#63b8ff" points="649.83,-327.8 660.22,-329.87 653.39,-321.78 649.83,-327.8"/>
</a>
</g>
</g>
<!-- Node17 -->
<g id="Node000017" class="node">
<title>Node17</title>
<g id="a_Node000017"><a xlink:href="_boussinesq_bubble_8cpp.html" target="_top" xlink:title=" ">
<polygon fill="white" stroke="#666666" points="770,-294 617,-294 617,-253 770,-253 770,-294"/>
<text text-anchor="start" x="625" y="-282" font-family="Helvetica,sans-Serif" font-size="10.00">/home/runner/work/kynema</text>
<text text-anchor="start" x="625" y="-271" font-family="Helvetica,sans-Serif" font-size="10.00">&#45;sgf/kynema&#45;sgf/src/physics</text>
<text text-anchor="middle" x="693.5" y="-260" font-family="Helvetica,sans-Serif" font-size="10.00">/BoussinesqBubble.cpp</text>
</a>
</g>
</g>
<!-- Node16&#45;&gt;Node17 -->
<g id="edge19_Node000016_Node000017" class="edge">
<title>Node16&#45;&gt;Node17</title>
<g id="a_edge19_Node000016_Node000017"><a xlink:title=" ">
<path fill="none" stroke="#63b8ff" d="M693.5,-319.69C693.5,-311.08 693.5,-301.9 693.5,-294.07"/>
<polygon fill="#63b8ff" stroke="#63b8ff" points="690,-319.79 693.5,-329.79 697,-319.79 690,-319.79"/>
</a>
</g>
</g>
<!-- Node18 -->
<g id="Node000018" class="node">
<title>Node18</title>
<g id="a_Node000018"><a xlink:href="_a_b_l_8_h.html" target="_top" xlink:title=" ">
<polygon fill="white" stroke="#666666" points="1504,-211.5 1353,-211.5 1353,-170.5 1504,-170.5 1504,-211.5"/>
<text text-anchor="start" x="1361" y="-199.5" font-family="Helvetica,sans-Serif" font-size="10.00">/home/runner/work/kynema</text>
<text text-anchor="start" x="1361" y="-188.5" font-family="Helvetica,sans-Serif" font-size="10.00">&#45;sgf/kynema&#45;sgf/src/wind</text>
<text text-anchor="middle" x="1428.5" y="-177.5" font-family="Helvetica,sans-Serif" font-size="10.00">_energy/ABL.H</text>
</a>
</g>
</g>
<!-- Node16&#45;&gt;Node18 -->
<g id="edge20_Node000016_Node000018" class="edge">
<title>Node16&#45;&gt;Node18</title>
<g id="a_edge20_Node000016_Node000018"><a xlink:title=" ">
<path fill="none" stroke="#63b8ff" d="M778.84,-329.98C845.14,-315.74 1195.82,-241.35 1352.72,-208.07"/>
<polygon fill="#63b8ff" stroke="#63b8ff" points="778.06,-326.57 769.03,-332.11 779.54,-333.41 778.06,-326.57"/>
</a>
</g>
</g>
<!-- Node34 -->
<g id="Node000034" class="node">
<title>Node34</title>
<g id="a_Node000034"><a xlink:href="_a_b_l_wall_function_8cpp.html" target="_top" xlink:title=" ">
<polygon fill="white" stroke="#666666" points="3224,-123.5 3065,-123.5 3065,-82.5 3224,-82.5 3224,-123.5"/>
<text text-anchor="start" x="3073" y="-111.5" font-family="Helvetica,sans-Serif" font-size="10.00">/home/runner/work/kynema</text>
<text text-anchor="start" x="3073" y="-100.5" font-family="Helvetica,sans-Serif" font-size="10.00">&#45;sgf/kynema&#45;sgf/src/wind</text>
<text text-anchor="middle" x="3144.5" y="-89.5" font-family="Helvetica,sans-Serif" font-size="10.00">_energy/ABLWallFunction.cpp</text>
</a>
</g>
</g>
<!-- Node16&#45;&gt;Node34 -->
<g id="edge44_Node000016_Node000034" class="edge">
<title>Node16&#45;&gt;Node34</title>
<g id="a_edge44_Node000016_Node000034"><a xlink:title=" ">
<path fill="none" stroke="#63b8ff" d="M779.38,-329.98C964.34,-300.89 1382.69,-268.36 1551.5,-253 2219.89,-192.18 2396.13,-248.83 3056.5,-129 3064.63,-127.53 3073.08,-125.62 3081.4,-123.52"/>
<polygon fill="#63b8ff" stroke="#63b8ff" points="778.72,-326.54 769.41,-331.59 779.83,-333.46 778.72,-326.54"/>
</a>
</g>
</g>
<!-- Node35 -->
<g id="Node000035" class="node">
<title>Node35</title>
<g id="a_Node000035"><a xlink:href="_a_b_l_stats_base_8_h.html" target="_top" xlink:title=" ">
<polygon fill="white" stroke="#666666" points="939,-294 788,-294 788,-253 939,-253 939,-294"/>
<text text-anchor="start" x="796" y="-282" font-family="Helvetica,sans-Serif" font-size="10.00">/home/runner/work/kynema</text>
<text text-anchor="start" x="796" y="-271" font-family="Helvetica,sans-Serif" font-size="10.00">&#45;sgf/kynema&#45;sgf/src/wind</text>
<text text-anchor="middle" x="863.5" y="-260" font-family="Helvetica,sans-Serif" font-size="10.00">_energy/ABLStatsBase.H</text>
</a>
</g>
</g>
<!-- Node16&#45;&gt;Node35 -->
<g id="edge41_Node000016_Node000035" class="edge">
<title>Node16&#45;&gt;Node35</title>
<g id="a_edge41_Node000016_Node000035"><a xlink:title=" ">
<path fill="none" stroke="#63b8ff" d="M747.09,-325.86C770.3,-315.62 797.15,-303.77 819.2,-294.04"/>
<polygon fill="#63b8ff" stroke="#63b8ff" points="745.46,-322.75 737.72,-329.99 748.28,-329.16 745.46,-322.75"/>
</a>
</g>
</g>
<!-- Node18&#45;&gt;Node7 -->
<g id="edge24_Node000018_Node000007" class="edge">
<title>Node18&#45;&gt;Node7</title>
<g id="a_edge24_Node000018_Node000007"><a xlink:title=" ">
<path fill="none" stroke="#63b8ff" d="M1342.61,-187.65C1120.23,-181.19 529.59,-161.41 336.5,-129 333.84,-128.55 331.14,-128.06 328.42,-127.52"/>
<polygon fill="#63b8ff" stroke="#63b8ff" points="1342.82,-191.16 1352.92,-187.95 1343.02,-184.16 1342.82,-191.16"/>
</a>
</g>
</g>
<!-- Node18&#45;&gt;Node8 -->
<g id="edge37_Node000018_Node000008" class="edge">
<title>Node18&#45;&gt;Node8</title>
<g id="a_edge37_Node000018_Node000008"><a xlink:title=" ">
<path fill="none" stroke="#63b8ff" d="M1342.81,-190.59C1179.01,-190.33 810.68,-183.11 506.5,-129 498.47,-127.57 490.13,-125.66 481.94,-123.54"/>
<polygon fill="#63b8ff" stroke="#63b8ff" points="1342.83,-194.09 1352.83,-190.59 1342.83,-187.09 1342.83,-194.09"/>
</a>
</g>
</g>
<!-- Node18&#45;&gt;Node11 -->
<g id="edge28_Node000018_Node000011" class="edge">
<title>Node18&#45;&gt;Node11</title>
<g id="a_edge28_Node000018_Node000011"><a xlink:title=" ">
<path fill="none" stroke="#63b8ff" d="M1342.59,-187.3C1206.43,-182 933.06,-167.22 704.5,-129 701.62,-128.52 698.69,-127.99 695.74,-127.43"/>
<polygon fill="#63b8ff" stroke="#63b8ff" points="1342.83,-190.81 1352.95,-187.69 1343.09,-183.82 1342.83,-190.81"/>
</a>
</g>
</g>
<!-- Node19 -->
<g id="Node000019" class="node">
<title>Node19</title>
<g id="a_Node000019"><a xlink:href="_c_f_d_sim_8cpp.html" target="_top" xlink:title=" ">
<polygon fill="white" stroke="#666666" points="889.5,-118 713.5,-118 713.5,-88 889.5,-88 889.5,-118"/>
<text text-anchor="start" x="721.5" y="-106" font-family="Helvetica,sans-Serif" font-size="10.00">/home/runner/work/kynema</text>
<text text-anchor="middle" x="801.5" y="-95" font-family="Helvetica,sans-Serif" font-size="10.00">&#45;sgf/kynema&#45;sgf/src/CFDSim.cpp</text>
</a>
</g>
</g>
<!-- Node18&#45;&gt;Node19 -->
<g id="edge21_Node000018_Node000019" class="edge">
<title>Node18&#45;&gt;Node19</title>
<g id="a_edge21_Node000018_Node000019"><a xlink:title=" ">
<path fill="none" stroke="#63b8ff" d="M1342.55,-183.86C1237.08,-175.47 1053.09,-158.05 897.5,-129 881.92,-126.09 865.15,-122.05 850.04,-118.05"/>
<polygon fill="#63b8ff" stroke="#63b8ff" points="1342.57,-187.37 1352.82,-184.67 1343.12,-180.39 1342.57,-187.37"/>
</a>
</g>
</g>
<!-- Node20 -->
<g id="Node000020" class="node">
<title>Node20</title>
<g id="a_Node000020"><a xlink:href="_a_b_l_forcing_8cpp.html" target="_top" xlink:title=" ">
<polygon fill="white" stroke="#666666" points="1066,-129 907,-129 907,-77 1066,-77 1066,-129"/>
<text text-anchor="start" x="915" y="-117" font-family="Helvetica,sans-Serif" font-size="10.00">/home/runner/work/kynema</text>
<text text-anchor="start" x="915" y="-106" font-family="Helvetica,sans-Serif" font-size="10.00">&#45;sgf/kynema&#45;sgf/src/equation</text>
<text text-anchor="start" x="915" y="-95" font-family="Helvetica,sans-Serif" font-size="10.00">_systems/icns/source_terms</text>
<text text-anchor="middle" x="986.5" y="-84" font-family="Helvetica,sans-Serif" font-size="10.00">/ABLForcing.cpp</text>
</a>
</g>
</g>
<!-- Node18&#45;&gt;Node20 -->
<g id="edge22_Node000018_Node000020" class="edge">
<title>Node18&#45;&gt;Node20</title>
<g id="a_edge22_Node000018_Node000020"><a xlink:title=" ">
<path fill="none" stroke="#63b8ff" d="M1342.83,-177.85C1270.83,-167.01 1165.39,-149.68 1074.5,-129 1071.71,-128.37 1068.88,-127.7 1066.03,-127"/>
<polygon fill="#63b8ff" stroke="#63b8ff" points="1342.36,-181.31 1352.77,-179.33 1343.4,-174.39 1342.36,-181.31"/>
</a>
</g>
</g>
<!-- Node21 -->
<g id="Node000021" class="node">
<title>Node21</title>
<g id="a_Node000021"><a xlink:href="_a_b_l_mean_boussinesq_8cpp.html" target="_top" xlink:title=" ">
<polygon fill="white" stroke="#666666" points="1243,-129 1084,-129 1084,-77 1243,-77 1243,-129"/>
<text text-anchor="start" x="1092" y="-117" font-family="Helvetica,sans-Serif" font-size="10.00">/home/runner/work/kynema</text>
<text text-anchor="start" x="1092" y="-106" font-family="Helvetica,sans-Serif" font-size="10.00">&#45;sgf/kynema&#45;sgf/src/equation</text>
<text text-anchor="start" x="1092" y="-95" font-family="Helvetica,sans-Serif" font-size="10.00">_systems/icns/source_terms</text>
<text text-anchor="middle" x="1163.5" y="-84" font-family="Helvetica,sans-Serif" font-size="10.00">/ABLMeanBoussinesq.cpp</text>
</a>
</g>
</g>
<!-- Node18&#45;&gt;Node21 -->
<g id="edge23_Node000018_Node000021" class="edge">
<title>Node18&#45;&gt;Node21</title>
<g id="a_edge23_Node000018_Node000021"><a xlink:title=" ">
<path fill="none" stroke="#63b8ff" d="M1358.41,-167.25C1322.29,-155.53 1278.15,-141.21 1241.02,-129.16"/>
<polygon fill="#63b8ff" stroke="#63b8ff" points="1357.78,-170.73 1368.37,-170.49 1359.94,-164.07 1357.78,-170.73"/>
</a>
</g>
</g>
<!-- Node22 -->
<g id="Node000022" class="node">
<title>Node22</title>
<g id="a_Node000022"><a xlink:href="_drag_forcing_8cpp.html" target="_top" xlink:title=" ">
<polygon fill="white" stroke="#666666" points="1420,-129 1261,-129 1261,-77 1420,-77 1420,-129"/>
<text text-anchor="start" x="1269" y="-117" font-family="Helvetica,sans-Serif" font-size="10.00">/home/runner/work/kynema</text>
<text text-anchor="start" x="1269" y="-106" font-family="Helvetica,sans-Serif" font-size="10.00">&#45;sgf/kynema&#45;sgf/src/equation</text>
<text text-anchor="start" x="1269" y="-95" font-family="Helvetica,sans-Serif" font-size="10.00">_systems/icns/source_terms</text>
<text text-anchor="middle" x="1340.5" y="-84" font-family="Helvetica,sans-Serif" font-size="10.00">/DragForcing.cpp</text>
</a>
</g>
</g>
<!-- Node18&#45;&gt;Node22 -->
<g id="edge25_Node000018_Node000022" class="edge">
<title>Node18&#45;&gt;Node22</title>
<g id="a_edge25_Node000018_Node000022"><a xlink:title=" ">
<path fill="none" stroke="#63b8ff" d="M1401.16,-163.29C1390.08,-152.45 1377.34,-140 1366.41,-129.32"/>
<polygon fill="#63b8ff" stroke="#63b8ff" points="1398.93,-166 1408.53,-170.49 1403.83,-160.99 1398.93,-166"/>
</a>
</g>
</g>
<!-- Node23 -->
<g id="Node000023" class="node">
<title>Node23</title>
<g id="a_Node000023"><a xlink:href="_forest_forcing_8cpp.html" target="_top" xlink:title=" ">
<polygon fill="white" stroke="#666666" points="1597,-129 1438,-129 1438,-77 1597,-77 1597,-129"/>
<text text-anchor="start" x="1446" y="-117" font-family="Helvetica,sans-Serif" font-size="10.00">/home/runner/work/kynema</text>
<text text-anchor="start" x="1446" y="-106" font-family="Helvetica,sans-Serif" font-size="10.00">&#45;sgf/kynema&#45;sgf/src/equation</text>
<text text-anchor="start" x="1446" y="-95" font-family="Helvetica,sans-Serif" font-size="10.00">_systems/icns/source_terms</text>
<text text-anchor="middle" x="1517.5" y="-84" font-family="Helvetica,sans-Serif" font-size="10.00">/ForestForcing.cpp</text>
</a>
</g>
</g>
<!-- Node18&#45;&gt;Node23 -->
<g id="edge26_Node000018_Node000023" class="edge">
<title>Node18&#45;&gt;Node23</title>
<g id="a_edge26_Node000018_Node000023"><a xlink:title=" ">
<path fill="none" stroke="#63b8ff" d="M1456.15,-163.29C1467.36,-152.45 1480.24,-140 1491.3,-129.32"/>
<polygon fill="#63b8ff" stroke="#63b8ff" points="1453.45,-161.02 1448.7,-170.49 1458.32,-166.05 1453.45,-161.02"/>
</a>
</g>
</g>
<!-- Node24 -->
<g id="Node000024" class="node">
<title>Node24</title>
<g id="a_Node000024"><a xlink:href="_hurricane_forcing_8cpp.html" target="_top" xlink:title=" ">
<polygon fill="white" stroke="#666666" points="1774,-129 1615,-129 1615,-77 1774,-77 1774,-129"/>
<text text-anchor="start" x="1623" y="-117" font-family="Helvetica,sans-Serif" font-size="10.00">/home/runner/work/kynema</text>
<text text-anchor="start" x="1623" y="-106" font-family="Helvetica,sans-Serif" font-size="10.00">&#45;sgf/kynema&#45;sgf/src/equation</text>
<text text-anchor="start" x="1623" y="-95" font-family="Helvetica,sans-Serif" font-size="10.00">_systems/icns/source_terms</text>
<text text-anchor="middle" x="1694.5" y="-84" font-family="Helvetica,sans-Serif" font-size="10.00">/HurricaneForcing.cpp</text>
</a>
</g>
</g>
<!-- Node18&#45;&gt;Node24 -->
<g id="edge27_Node000018_Node000024" class="edge">
<title>Node18&#45;&gt;Node24</title>
<g id="a_edge27_Node000018_Node000024"><a xlink:title=" ">
<path fill="none" stroke="#63b8ff" d="M1498.39,-167.4C1534.73,-155.65 1579.26,-141.26 1616.69,-129.16"/>
<polygon fill="#63b8ff" stroke="#63b8ff" points="1497.3,-164.08 1488.86,-170.49 1499.45,-170.74 1497.3,-164.08"/>
</a>
</g>
</g>
<!-- Node25 -->
<g id="Node000025" class="node">
<title>Node25</title>
<g id="a_Node000025"><a xlink:href="_hurricane_temp_forcing_8cpp.html" target="_top" xlink:title=" ">
<polygon fill="white" stroke="#666666" points="1974.5,-129 1792.5,-129 1792.5,-77 1974.5,-77 1974.5,-129"/>
<text text-anchor="start" x="1800.5" y="-117" font-family="Helvetica,sans-Serif" font-size="10.00">/home/runner/work/kynema</text>
<text text-anchor="start" x="1800.5" y="-106" font-family="Helvetica,sans-Serif" font-size="10.00">&#45;sgf/kynema&#45;sgf/src/equation</text>
<text text-anchor="start" x="1800.5" y="-95" font-family="Helvetica,sans-Serif" font-size="10.00">_systems/temperature/source</text>
<text text-anchor="middle" x="1883.5" y="-84" font-family="Helvetica,sans-Serif" font-size="10.00">_terms/HurricaneTempForcing.cpp</text>
</a>
</g>
</g>
<!-- Node18&#45;&gt;Node25 -->
<g id="edge29_Node000018_Node000025" class="edge">
<title>Node18&#45;&gt;Node25</title>
<g id="a_edge29_Node000018_Node000025"><a xlink:title=" ">
<path fill="none" stroke="#63b8ff" d="M1505.05,-167.98C1509.58,-166.91 1514.09,-165.91 1518.5,-165 1634.48,-141.1 1666.19,-151.26 1782.5,-129 1785.78,-128.37 1789.12,-127.7 1792.48,-127.01"/>
<polygon fill="#63b8ff" stroke="#63b8ff" points="1503.98,-164.64 1495.1,-170.42 1505.64,-171.44 1503.98,-164.64"/>
</a>
</g>
</g>
<!-- Node26 -->
<g id="Node000026" class="node">
<title>Node26</title>
<g id="a_Node000026"><a xlink:href="helics_8cpp.html" target="_top" xlink:title=" ">
<polygon fill="white" stroke="#666666" points="2158,-118 1993,-118 1993,-88 2158,-88 2158,-118"/>
<text text-anchor="start" x="2001" y="-106" font-family="Helvetica,sans-Serif" font-size="10.00">/home/runner/work/kynema</text>
<text text-anchor="middle" x="2075.5" y="-95" font-family="Helvetica,sans-Serif" font-size="10.00">&#45;sgf/kynema&#45;sgf/src/helics.cpp</text>
</a>
</g>
</g>
<!-- Node18&#45;&gt;Node26 -->
<g id="edge30_Node000018_Node000026" class="edge">
<title>Node18&#45;&gt;Node26</title>
<g id="a_edge30_Node000018_Node000026"><a xlink:title=" ">
<path fill="none" stroke="#63b8ff" d="M1503.05,-168.1C1508.25,-166.94 1513.44,-165.89 1518.5,-165 1722.65,-129.09 1779.25,-164.33 1983.5,-129 1998.99,-126.32 2015.66,-122.19 2030.49,-118.05"/>
<polygon fill="#63b8ff" stroke="#63b8ff" points="1501.98,-164.76 1493.05,-170.46 1503.58,-171.57 1501.98,-164.76"/>
</a>
</g>
</g>
<!-- Node27 -->
<g id="Node000027" class="node">
<title>Node27</title>
<g id="a_Node000027"><a xlink:href="incflo_8cpp.html" target="_top" xlink:title=" ">
<polygon fill="white" stroke="#666666" points="2339,-118 2176,-118 2176,-88 2339,-88 2339,-118"/>
<text text-anchor="start" x="2184" y="-106" font-family="Helvetica,sans-Serif" font-size="10.00">/home/runner/work/kynema</text>
<text text-anchor="middle" x="2257.5" y="-95" font-family="Helvetica,sans-Serif" font-size="10.00">&#45;sgf/kynema&#45;sgf/src/incflo.cpp</text>
</a>
</g>
</g>
<!-- Node18&#45;&gt;Node27 -->
<g id="edge31_Node000018_Node000027" class="edge">
<title>Node18&#45;&gt;Node27</title>
<g id="a_edge31_Node000018_Node000027"><a xlink:title=" ">
<path fill="none" stroke="#63b8ff" d="M1502.32,-168.13C1507.76,-166.94 1513.2,-165.87 1518.5,-165 1803.11,-118.13 1881.82,-175.47 2166.5,-129 2182.02,-126.47 2198.7,-122.32 2213.48,-118.12"/>
<polygon fill="#63b8ff" stroke="#63b8ff" points="1501.48,-164.73 1492.53,-170.41 1503.06,-171.55 1501.48,-164.73"/>
</a>
</g>
</g>
<!-- Node28 -->
<g id="Node000028" class="node">
<title>Node28</title>
<g id="a_Node000028"><a xlink:href="nodal__projection__ops_8_h.html" target="_top" xlink:title=" ">
<polygon fill="white" stroke="#666666" points="2522,-123.5 2357,-123.5 2357,-82.5 2522,-82.5 2522,-123.5"/>
<text text-anchor="start" x="2365" y="-111.5" font-family="Helvetica,sans-Serif" font-size="10.00">/home/runner/work/kynema</text>
<text text-anchor="start" x="2365" y="-100.5" font-family="Helvetica,sans-Serif" font-size="10.00">&#45;sgf/kynema&#45;sgf/src/projection</text>
<text text-anchor="middle" x="2439.5" y="-89.5" font-family="Helvetica,sans-Serif" font-size="10.00">/nodal_projection_ops.H</text>
</a>
</g>
</g>
<!-- Node18&#45;&gt;Node28 -->
<g id="edge32_Node000018_Node000028" class="edge">
<title>Node18&#45;&gt;Node28</title>
<g id="a_edge32_Node000018_Node000028"><a xlink:title=" ">
<path fill="none" stroke="#63b8ff" d="M1502,-168.13C1507.55,-166.92 1513.09,-165.86 1518.5,-165 1882.75,-107.27 1983.09,-185.7 2347.5,-129 2356.41,-127.61 2365.7,-125.68 2374.8,-123.51"/>
<polygon fill="#63b8ff" stroke="#63b8ff" points="1500.98,-164.77 1492.02,-170.43 1502.55,-171.59 1500.98,-164.77"/>
</a>
</g>
</g>
<!-- Node31 -->
<g id="Node000031" class="node">
<title>Node31</title>
<g id="a_Node000031"><a xlink:href="init_8cpp.html" target="_top" xlink:title=" ">
<polygon fill="white" stroke="#666666" points="2691,-123.5 2540,-123.5 2540,-82.5 2691,-82.5 2691,-123.5"/>
<text text-anchor="start" x="2548" y="-111.5" font-family="Helvetica,sans-Serif" font-size="10.00">/home/runner/work/kynema</text>
<text text-anchor="start" x="2548" y="-100.5" font-family="Helvetica,sans-Serif" font-size="10.00">&#45;sgf/kynema&#45;sgf/src/setup</text>
<text text-anchor="middle" x="2615.5" y="-89.5" font-family="Helvetica,sans-Serif" font-size="10.00">/init.cpp</text>
</a>
</g>
</g>
<!-- Node18&#45;&gt;Node31 -->
<g id="edge35_Node000018_Node000031" class="edge">
<title>Node18&#45;&gt;Node31</title>
<g id="a_edge35_Node000018_Node000031"><a xlink:title=" ">
<path fill="none" stroke="#63b8ff" d="M1501.68,-168.14C1507.34,-166.92 1512.99,-165.85 1518.5,-165 1963.29,-96.3 2086.24,-201.06 2530.5,-129 2538.85,-127.65 2547.54,-125.72 2556.03,-123.53"/>
<polygon fill="#63b8ff" stroke="#63b8ff" points="1500.48,-164.83 1491.52,-170.48 1502.05,-171.65 1500.48,-164.83"/>
</a>
</g>
</g>
<!-- Node32 -->
<g id="Node000032" class="node">
<title>Node32</title>
<g id="a_Node000032"><a xlink:href="_kosovic_8cpp.html" target="_top" xlink:title=" ">
<polygon fill="white" stroke="#666666" points="2877.5,-123.5 2709.5,-123.5 2709.5,-82.5 2877.5,-82.5 2877.5,-123.5"/>
<text text-anchor="start" x="2717.5" y="-111.5" font-family="Helvetica,sans-Serif" font-size="10.00">/home/runner/work/kynema</text>
<text text-anchor="start" x="2717.5" y="-100.5" font-family="Helvetica,sans-Serif" font-size="10.00">&#45;sgf/kynema&#45;sgf/src/turbulence</text>
<text text-anchor="middle" x="2793.5" y="-89.5" font-family="Helvetica,sans-Serif" font-size="10.00">/LES/Kosovic.cpp</text>
</a>
</g>
</g>
<!-- Node18&#45;&gt;Node32 -->
<g id="edge36_Node000018_Node000032" class="edge">
<title>Node18&#45;&gt;Node32</title>
<g id="a_edge36_Node000018_Node000032"><a xlink:title=" ">
<path fill="none" stroke="#63b8ff" d="M1501.68,-168.11C1507.33,-166.9 1512.99,-165.84 1518.5,-165 2037.68,-86.16 2179.89,-204.99 2699.5,-129 2708.69,-127.66 2718.27,-125.74 2727.65,-123.55"/>
<polygon fill="#63b8ff" stroke="#63b8ff" points="1500.48,-164.8 1491.51,-170.44 1502.04,-171.62 1500.48,-164.8"/>
</a>
</g>
</g>
<!-- Node33 -->
<g id="Node000033" class="node">
<title>Node33</title>
<g id="a_Node000033"><a xlink:href="_a_b_l_anelastic_8cpp.html" target="_top" xlink:title=" ">
<polygon fill="white" stroke="#666666" points="3047,-123.5 2896,-123.5 2896,-82.5 3047,-82.5 3047,-123.5"/>
<text text-anchor="start" x="2904" y="-111.5" font-family="Helvetica,sans-Serif" font-size="10.00">/home/runner/work/kynema</text>
<text text-anchor="start" x="2904" y="-100.5" font-family="Helvetica,sans-Serif" font-size="10.00">&#45;sgf/kynema&#45;sgf/src/wind</text>
<text text-anchor="middle" x="2971.5" y="-89.5" font-family="Helvetica,sans-Serif" font-size="10.00">_energy/ABLAnelastic.cpp</text>
</a>
</g>
</g>
<!-- Node18&#45;&gt;Node33 -->
<g id="edge38_Node000018_Node000033" class="edge">
<title>Node18&#45;&gt;Node33</title>
<g id="a_edge38_Node000018_Node000033"><a xlink:title=" ">
<path fill="none" stroke="#63b8ff" d="M1501.67,-168.09C1507.33,-166.88 1512.99,-165.83 1518.5,-165 2120.01,-74.94 2285.69,-223.6 2886.5,-129 2894.86,-127.68 2903.55,-125.78 2912.04,-123.6"/>
<polygon fill="#63b8ff" stroke="#63b8ff" points="1500.48,-164.77 1491.51,-170.41 1502.04,-171.59 1500.48,-164.77"/>
</a>
</g>
</g>
<!-- Node18&#45;&gt;Node34 -->
<g id="edge39_Node000018_Node000034" class="edge">
<title>Node18&#45;&gt;Node34</title>
<g id="a_edge39_Node000018_Node000034"><a xlink:title=" ">
<path fill="none" stroke="#63b8ff" d="M1501.67,-168.07C1507.33,-166.87 1512.99,-165.82 1518.5,-165 2194.85,-64.73 2380.45,-231.25 3056.5,-129 3065.14,-127.69 3074.12,-125.79 3082.91,-123.62"/>
<polygon fill="#63b8ff" stroke="#63b8ff" points="1500.48,-164.75 1491.51,-170.38 1502.03,-171.58 1500.48,-164.75"/>
</a>
</g>
</g>
<!-- Node29 -->
<g id="Node000029" class="node">
<title>Node29</title>
<g id="a_Node000029"><a xlink:href="_overset_ops_8cpp.html" target="_top" xlink:title=" ">
<polygon fill="white" stroke="#666666" points="2423,-41 2270,-41 2270,0 2423,0 2423,-41"/>
<text text-anchor="start" x="2278" y="-29" font-family="Helvetica,sans-Serif" font-size="10.00">/home/runner/work/kynema</text>
<text text-anchor="start" x="2278" y="-18" font-family="Helvetica,sans-Serif" font-size="10.00">&#45;sgf/kynema&#45;sgf/src/overset</text>
<text text-anchor="middle" x="2346.5" y="-7" font-family="Helvetica,sans-Serif" font-size="10.00">/OversetOps.cpp</text>
</a>
</g>
</g>
<!-- Node28&#45;&gt;Node29 -->
<g id="edge33_Node000028_Node000029" class="edge">
<title>Node28&#45;&gt;Node29</title>
<g id="a_edge33_Node000028_Node000029"><a xlink:title=" ">
<path fill="none" stroke="#63b8ff" d="M2408.76,-75.39C2395.86,-64.22 2381.12,-51.47 2369.22,-41.17"/>
<polygon fill="#63b8ff" stroke="#63b8ff" points="2406.66,-78.2 2416.51,-82.1 2411.24,-72.91 2406.66,-78.2"/>
</a>
</g>
</g>
<!-- Node30 -->
<g id="Node000030" class="node">
<title>Node30</title>
<g id="a_Node000030"><a xlink:href="incflo__apply__nodal__projection_8cpp.html" target="_top" xlink:title=" ">
<polygon fill="white" stroke="#666666" points="2626,-41 2441,-41 2441,0 2626,0 2626,-41"/>
<text text-anchor="start" x="2449" y="-29" font-family="Helvetica,sans-Serif" font-size="10.00">/home/runner/work/kynema</text>
<text text-anchor="start" x="2449" y="-18" font-family="Helvetica,sans-Serif" font-size="10.00">&#45;sgf/kynema&#45;sgf/src/projection</text>
<text text-anchor="middle" x="2533.5" y="-7" font-family="Helvetica,sans-Serif" font-size="10.00">/incflo_apply_nodal_projection.cpp</text>
</a>
</g>
</g>
<!-- Node28&#45;&gt;Node30 -->
<g id="edge34_Node000028_Node000030" class="edge">
<title>Node28&#45;&gt;Node30</title>
<g id="a_edge34_Node000028_Node000030"><a xlink:title=" ">
<path fill="none" stroke="#63b8ff" d="M2470.57,-75.39C2483.61,-64.22 2498.51,-51.47 2510.53,-41.17"/>
<polygon fill="#63b8ff" stroke="#63b8ff" points="2468.05,-72.94 2462.74,-82.1 2472.61,-78.25 2468.05,-72.94"/>
</a>
</g>
</g>
<!-- Node35&#45;&gt;Node15 -->
<g id="edge43_Node000035_Node000015" class="edge">
<title>Node35&#45;&gt;Node15</title>
<g id="a_edge43_Node000035_Node000015"><a xlink:title=" ">
<path fill="none" stroke="#63b8ff" d="M777.37,-252.9C658.87,-232.13 625.41,-241.28 511.5,-217 504.13,-215.43 496.46,-213.54 488.89,-211.52"/>
<polygon fill="#63b8ff" stroke="#63b8ff" points="777.11,-256.4 787.57,-254.72 778.34,-249.51 777.11,-256.4"/>
</a>
</g>
</g>
<!-- Node35&#45;&gt;Node18 -->
<g id="edge42_Node000035_Node000018" class="edge">
<title>Node35&#45;&gt;Node18</title>
<g id="a_edge42_Node000035_Node000018"><a xlink:title=" ">
<path fill="none" stroke="#63b8ff" d="M949.17,-260.29C1059.09,-244.63 1248.06,-217.71 1352.88,-202.77"/>
<polygon fill="#63b8ff" stroke="#63b8ff" points="948.52,-256.85 939.11,-261.73 949.51,-263.78 948.52,-256.85"/>
</a>
</g>
</g>
</g>
</svg>
