<?xml version="1.0" encoding="UTF-8" standalone="no"?>
<!DOCTYPE svg PUBLIC "-//W3C//DTD SVG 1.1//EN"
 "http://www.w3.org/Graphics/SVG/1.1/DTD/svg11.dtd">
<!-- Generated by graphviz version 2.43.0 (0)
 -->
<!-- Title: /home/runner/work/kynema&#45;sgf/kynema&#45;sgf/src/utilities/FieldPlaneAveraging.H Pages: 1 -->
<!--zoomable 456 -->

<svg id="main" version="1.1" xmlns="http://www.w3.org/2000/svg" xmlns:xlink="http://www.w3.org/1999/xlink" xml:space="preserve" onload="init(evt)">

<style type="text/css"><![CDATA[
.node, .edge {opacity: 0.7;}
.node.selected, .edge.selected {opacity: 1;}
.edge:hover path { stroke: red; }
.edge:hover polygon { stroke: red; fill: red; }
]]></style>

<defs>
  <circle id="rim" cx="0" cy="0" r="7"/>
  <circle id="rim2" cx="0" cy="0" r="3.5"/>
  <g id="zoomPlus">
    <use xlink:href="#rim" fill="#404040"><set attributeName="fill" to="#808080" begin="zoomplus.mouseover" end="zoomplus.mouseout"/></use>
    <path d="M-4,0h8M0,-4v8" fill="none" stroke="white" stroke-width="1.5" pointer-events="none"/>
  </g>
  <g id="zoomMin">
    <use xlink:href="#rim" fill="#404040"><set attributeName="fill" to="#808080" begin="zoomminus.mouseover" end="zoomminus.mouseout"/></use>
    <path d="M-4,0h8" fill="none" stroke="white" stroke-width="1.5" pointer-events="none"/>
  </g>
  <g id="arrowUp" transform="translate(30 24)">
    <use xlink:href="#rim"/>
    <path pointer-events="none" fill="none" stroke="white" stroke-width="1.5" d="M0,-3.0v7 M-2.5,-0.5L0,-3.0L2.5,-0.5"/>
  </g>
  <g id="arrowRight" transform="rotate(90) translate(36 -43)">
    <use xlink:href="#rim"/>
    <path pointer-events="none" fill="none" stroke="white" stroke-width="1.5" d="M0,-3.0v7 M-2.5,-0.5L0,-3.0L2.5,-0.5"/>
  </g>
  <g id="arrowDown" transform="rotate(180) translate(-30 -48)">
    <use xlink:href="#rim"/>
    <path pointer-events="none" fill="none" stroke="white" stroke-width="1.5" d="M0,-3.0v7 M-2.5,-0.5L0,-3.0L2.5,-0.5"/>
  </g>
  <g id="arrowLeft" transform="rotate(270) translate(-36 17)">
    <use xlink:href="#rim"/>
    <path pointer-events="none" fill="none" stroke="white" stroke-width="1.5" d="M0,-3.0v7 M-2.5,-0.5L0,-3.0L2.5,-0.5"/>
  </g>
  <g id="resetDef">
    <use xlink:href="#rim2" fill="#404040"><set attributeName="fill" to="#808080" begin="reset.mouseover" end="reset.mouseout"/></use>
  </g>
</defs>
<script type="application/ecmascript">
var viewWidth = 3233;
var viewHeight = 456;
var sectionId = 'dynsection-1';
</script>
<script type="application/ecmascript" xlink:href="svg.min.js"/>
<svg id="graph" class="graph">
<g id="viewport">
<title>/home/runner/work/kynema&#45;sgf/kynema&#45;sgf/src/utilities/FieldPlaneAveraging.H</title>
<!-- Node1 -->
<g id="Node000001" class="node">
<title>Node1</title>
<g id="a_Node000001"><a xlink:title=" ">
<polygon fill="#999999" stroke="#666666" points="1734,-448 1581,-448 1581,-407 1734,-407 1734,-448"/>
<text text-anchor="start" x="1589" y="-436" font-family="Helvetica,sans-Serif" font-size="10.00">/home/runner/work/kynema</text>
<text text-anchor="start" x="1589" y="-425" font-family="Helvetica,sans-Serif" font-size="10.00">&#45;sgf/kynema&#45;sgf/src/utilities</text>
<text text-anchor="middle" x="1657.5" y="-414" font-family="Helvetica,sans-Serif" font-size="10.00">/FieldPlaneAveraging.H</text>
</a>
</g>
</g>
<!-- Node2 -->
<g id="Node000002" class="node">
<title>Node2</title>
<g id="a_Node000002"><a xlink:href="_a_b_l_mean_boussinesq_8_h.html" target="_top" xlink:title=" ">
<polygon fill="white" stroke="#666666" points="330,-217 171,-217 171,-165 330,-165 330,-217"/>
<text text-anchor="start" x="179" y="-205" font-family="Helvetica,sans-Serif" font-size="10.00">/home/runner/work/kynema</text>
<text text-anchor="start" x="179" y="-194" font-family="Helvetica,sans-Serif" font-size="10.00">&#45;sgf/kynema&#45;sgf/src/equation</text>
<text text-anchor="start" x="179" y="-183" font-family="Helvetica,sans-Serif" font-size="10.00">_systems/icns/source_terms</text>
<text text-anchor="middle" x="250.5" y="-172" font-family="Helvetica,sans-Serif" font-size="10.00">/ABLMeanBoussinesq.H</text>
</a>
</g>
</g>
<!-- Node1&#45;&gt;Node2 -->
<g id="edge1_Node000001_Node000002" class="edge">
<title>Node1&#45;&gt;Node2</title>
<g id="a_edge1_Node000001_Node000002"><a xlink:title=" ">
<path fill="none" stroke="#63b8ff" d="M1570.32,-422.18C1449.16,-415.39 1223.23,-399.92 1032.5,-371 872.02,-346.66 833.95,-329.19 675.5,-294 525.52,-260.69 487.33,-255.12 338.5,-217 335.73,-216.29 332.92,-215.56 330.07,-214.81"/>
<polygon fill="#63b8ff" stroke="#63b8ff" points="1570.47,-425.69 1580.65,-422.75 1570.85,-418.7 1570.47,-425.69"/>
</a>
</g>
</g>
<!-- Node5 -->
<g id="Node000005" class="node">
<title>Node5</title>
<g id="a_Node000005"><a xlink:href="_hurricane_forcing_8_h.html" target="_top" xlink:title=" ">
<polygon fill="white" stroke="#666666" points="507,-217 348,-217 348,-165 507,-165 507,-217"/>
<text text-anchor="start" x="356" y="-205" font-family="Helvetica,sans-Serif" font-size="10.00">/home/runner/work/kynema</text>
<text text-anchor="start" x="356" y="-194" font-family="Helvetica,sans-Serif" font-size="10.00">&#45;sgf/kynema&#45;sgf/src/equation</text>
<text text-anchor="start" x="356" y="-183" font-family="Helvetica,sans-Serif" font-size="10.00">_systems/icns/source_terms</text>
<text text-anchor="middle" x="427.5" y="-172" font-family="Helvetica,sans-Serif" font-size="10.00">/HurricaneForcing.H</text>
</a>
</g>
</g>
<!-- Node1&#45;&gt;Node5 -->
<g id="edge4_Node000001_Node000005" class="edge">
<title>Node1&#45;&gt;Node5</title>
<g id="a_edge4_Node000001_Node000005"><a xlink:title=" ">
<path fill="none" stroke="#63b8ff" d="M1570.91,-416.01C1490.51,-405.89 1367.6,-389.41 1261.5,-371 929.22,-313.34 846.37,-295.93 518.5,-217 514.84,-216.12 511.1,-215.19 507.32,-214.24"/>
<polygon fill="#63b8ff" stroke="#63b8ff" points="1570.63,-419.51 1580.98,-417.28 1571.5,-412.56 1570.63,-419.51"/>
</a>
</g>
</g>
<!-- Node7 -->
<g id="Node000007" class="node">
<title>Node7</title>
<g id="a_Node000007"><a xlink:href="_hurricane_temp_forcing_8_h.html" target="_top" xlink:title=" ">
<polygon fill="white" stroke="#666666" points="701,-217 528,-217 528,-165 701,-165 701,-217"/>
<text text-anchor="start" x="536" y="-205" font-family="Helvetica,sans-Serif" font-size="10.00">/home/runner/work/kynema</text>
<text text-anchor="start" x="536" y="-194" font-family="Helvetica,sans-Serif" font-size="10.00">&#45;sgf/kynema&#45;sgf/src/equation</text>
<text text-anchor="start" x="536" y="-183" font-family="Helvetica,sans-Serif" font-size="10.00">_systems/temperature/source</text>
<text text-anchor="middle" x="614.5" y="-172" font-family="Helvetica,sans-Serif" font-size="10.00">_terms/HurricaneTempForcing.H</text>
</a>
</g>
</g>
<!-- Node1&#45;&gt;Node7 -->
<g id="edge7_Node000001_Node000007" class="edge">
<title>Node1&#45;&gt;Node7</title>
<g id="a_edge7_Node000001_Node000007"><a xlink:title=" ">
<path fill="none" stroke="#63b8ff" d="M1571.12,-407.06C1525.64,-396.67 1468.97,-383.47 1418.5,-371 1217.78,-321.39 1170.57,-296.82 968.5,-253 877.84,-233.34 773.02,-215.93 701.1,-204.8"/>
<polygon fill="#63b8ff" stroke="#63b8ff" points="1570.42,-410.49 1580.95,-409.3 1571.98,-403.67 1570.42,-410.49"/>
</a>
</g>
</g>
<!-- Node9 -->
<g id="Node000009" class="node">
<title>Node9</title>
<g id="a_Node000009"><a xlink:href="_field_plane_averaging_8cpp.html" target="_top" xlink:title=" ">
<polygon fill="white" stroke="#666666" points="2450,-371 2297,-371 2297,-330 2450,-330 2450,-371"/>
<text text-anchor="start" x="2305" y="-359" font-family="Helvetica,sans-Serif" font-size="10.00">/home/runner/work/kynema</text>
<text text-anchor="start" x="2305" y="-348" font-family="Helvetica,sans-Serif" font-size="10.00">&#45;sgf/kynema&#45;sgf/src/utilities</text>
<text text-anchor="middle" x="2373.5" y="-337" font-family="Helvetica,sans-Serif" font-size="10.00">/FieldPlaneAveraging.cpp</text>
</a>
</g>
</g>
<!-- Node1&#45;&gt;Node9 -->
<g id="edge10_Node000001_Node000009" class="edge">
<title>Node1&#45;&gt;Node9</title>
<g id="a_edge10_Node000001_Node000009"><a xlink:title=" ">
<path fill="none" stroke="#63b8ff" d="M1744.67,-422.14C1865.83,-415.31 2091.75,-399.8 2282.5,-371 2287.13,-370.3 2291.88,-369.51 2296.67,-368.66"/>
<polygon fill="#63b8ff" stroke="#63b8ff" points="1744.14,-418.66 1734.35,-422.71 1744.53,-425.65 1744.14,-418.66"/>
</a>
</g>
</g>
<!-- Node10 -->
<g id="Node000010" class="node">
<title>Node10</title>
<g id="a_Node000010"><a xlink:href="_second_moment_averaging_8_h.html" target="_top" xlink:title=" ">
<polygon fill="white" stroke="#666666" points="2126,-371 1971,-371 1971,-330 2126,-330 2126,-371"/>
<text text-anchor="start" x="1979" y="-359" font-family="Helvetica,sans-Serif" font-size="10.00">/home/runner/work/kynema</text>
<text text-anchor="start" x="1979" y="-348" font-family="Helvetica,sans-Serif" font-size="10.00">&#45;sgf/kynema&#45;sgf/src/utilities</text>
<text text-anchor="middle" x="2048.5" y="-337" font-family="Helvetica,sans-Serif" font-size="10.00">/SecondMomentAveraging.H</text>
</a>
</g>
</g>
<!-- Node1&#45;&gt;Node10 -->
<g id="edge11_Node000001_Node000010" class="edge">
<title>Node1&#45;&gt;Node10</title>
<g id="a_edge11_Node000001_Node000010"><a xlink:title=" ">
<path fill="none" stroke="#63b8ff" d="M1744.52,-409.81C1812.32,-396.8 1905.6,-378.91 1970.89,-366.39"/>
<polygon fill="#63b8ff" stroke="#63b8ff" points="1743.44,-406.45 1734.28,-411.77 1744.76,-413.33 1743.44,-406.45"/>
</a>
</g>
</g>
<!-- Node12 -->
<g id="Node000012" class="node">
<title>Node12</title>
<g id="a_Node000012"><a xlink:href="_a_b_l_stats_8_h.html" target="_top" xlink:title=" ">
<polygon fill="white" stroke="#666666" points="2033,-211.5 1882,-211.5 1882,-170.5 2033,-170.5 2033,-211.5"/>
<text text-anchor="start" x="1890" y="-199.5" font-family="Helvetica,sans-Serif" font-size="10.00">/home/runner/work/kynema</text>
<text text-anchor="start" x="1890" y="-188.5" font-family="Helvetica,sans-Serif" font-size="10.00">&#45;sgf/kynema&#45;sgf/src/wind</text>
<text text-anchor="middle" x="1957.5" y="-177.5" font-family="Helvetica,sans-Serif" font-size="10.00">_energy/ABLStats.H</text>
</a>
</g>
</g>
<!-- Node1&#45;&gt;Node12 -->
<g id="edge38_Node000001_Node000012" class="edge">
<title>Node1&#45;&gt;Node12</title>
<g id="a_edge38_Node000001_Node000012"><a xlink:title=" ">
<path fill="none" stroke="#63b8ff" d="M1744.53,-421.35C1862.34,-413.54 2065.85,-396.81 2135.5,-371 2192.83,-349.76 2220.81,-347.99 2249.5,-294 2258.05,-277.91 2260.99,-267.14 2249.5,-253 2222.72,-220.04 2110.41,-204.28 2033.15,-197.2"/>
<polygon fill="#63b8ff" stroke="#63b8ff" points="1744.2,-417.87 1734.45,-422.01 1744.66,-424.85 1744.2,-417.87"/>
</a>
</g>
</g>
<!-- Node14 -->
<g id="Node000014" class="node">
<title>Node14</title>
<g id="a_Node000014"><a xlink:href="_third_moment_averaging_8_h.html" target="_top" xlink:title=" ">
<polygon fill="white" stroke="#666666" points="1915,-371 1762,-371 1762,-330 1915,-330 1915,-371"/>
<text text-anchor="start" x="1770" y="-359" font-family="Helvetica,sans-Serif" font-size="10.00">/home/runner/work/kynema</text>
<text text-anchor="start" x="1770" y="-348" font-family="Helvetica,sans-Serif" font-size="10.00">&#45;sgf/kynema&#45;sgf/src/utilities</text>
<text text-anchor="middle" x="1838.5" y="-337" font-family="Helvetica,sans-Serif" font-size="10.00">/ThirdMomentAveraging.H</text>
</a>
</g>
</g>
<!-- Node1&#45;&gt;Node14 -->
<g id="edge15_Node000001_Node000014" class="edge">
<title>Node1&#45;&gt;Node14</title>
<g id="a_edge15_Node000001_Node000014"><a xlink:title=" ">
<path fill="none" stroke="#63b8ff" d="M1713.9,-403.13C1738.76,-392.83 1767.64,-380.86 1791.34,-371.04"/>
<polygon fill="#63b8ff" stroke="#63b8ff" points="1712.48,-399.93 1704.58,-406.99 1715.16,-406.4 1712.48,-399.93"/>
</a>
</g>
</g>
<!-- Node16 -->
<g id="Node000016" class="node">
<title>Node16</title>
<g id="a_Node000016"><a xlink:href="_a_b_l_8_h.html" target="_top" xlink:title=" ">
<polygon fill="white" stroke="#666666" points="1511,-211.5 1360,-211.5 1360,-170.5 1511,-170.5 1511,-211.5"/>
<text text-anchor="start" x="1368" y="-199.5" font-family="Helvetica,sans-Serif" font-size="10.00">/home/runner/work/kynema</text>
<text text-anchor="start" x="1368" y="-188.5" font-family="Helvetica,sans-Serif" font-size="10.00">&#45;sgf/kynema&#45;sgf/src/wind</text>
<text text-anchor="middle" x="1435.5" y="-177.5" font-family="Helvetica,sans-Serif" font-size="10.00">_energy/ABL.H</text>
</a>
</g>
</g>
<!-- Node1&#45;&gt;Node16 -->
<g id="edge18_Node000001_Node000016" class="edge">
<title>Node1&#45;&gt;Node16</title>
<g id="a_edge18_Node000001_Node000016"><a xlink:title=" ">
<path fill="none" stroke="#63b8ff" d="M1570.89,-408.81C1508.87,-391.13 1429.65,-357.14 1390.5,-294 1373.77,-267.02 1396.94,-232.75 1415.76,-211.6"/>
<polygon fill="#63b8ff" stroke="#63b8ff" points="1570.12,-412.23 1580.69,-411.51 1571.98,-405.48 1570.12,-412.23"/>
</a>
</g>
</g>
<!-- Node32 -->
<g id="Node000032" class="node">
<title>Node32</title>
<g id="a_Node000032"><a xlink:href="_a_b_l_wall_function_8_h.html" target="_top" xlink:title=" ">
<polygon fill="white" stroke="#666666" points="1733,-371 1582,-371 1582,-330 1733,-330 1733,-371"/>
<text text-anchor="start" x="1590" y="-359" font-family="Helvetica,sans-Serif" font-size="10.00">/home/runner/work/kynema</text>
<text text-anchor="start" x="1590" y="-348" font-family="Helvetica,sans-Serif" font-size="10.00">&#45;sgf/kynema&#45;sgf/src/wind</text>
<text text-anchor="middle" x="1657.5" y="-337" font-family="Helvetica,sans-Serif" font-size="10.00">_energy/ABLWallFunction.H</text>
</a>
</g>
</g>
<!-- Node1&#45;&gt;Node32 -->
<g id="edge39_Node000001_Node000032" class="edge">
<title>Node1&#45;&gt;Node32</title>
<g id="a_edge39_Node000001_Node000032"><a xlink:title=" ">
<path fill="none" stroke="#63b8ff" d="M1657.5,-396.69C1657.5,-388.08 1657.5,-378.9 1657.5,-371.07"/>
<polygon fill="#63b8ff" stroke="#63b8ff" points="1654,-396.79 1657.5,-406.79 1661,-396.79 1654,-396.79"/>
</a>
</g>
</g>
<!-- Node3 -->
<g id="Node000003" class="node">
<title>Node3</title>
<g id="a_Node000003"><a xlink:href="_a_b_l_mean_boussinesq_8cpp.html" target="_top" xlink:title=" ">
<polygon fill="white" stroke="#666666" points="159,-129 0,-129 0,-77 159,-77 159,-129"/>
<text text-anchor="start" x="8" y="-117" font-family="Helvetica,sans-Serif" font-size="10.00">/home/runner/work/kynema</text>
<text text-anchor="start" x="8" y="-106" font-family="Helvetica,sans-Serif" font-size="10.00">&#45;sgf/kynema&#45;sgf/src/equation</text>
<text text-anchor="start" x="8" y="-95" font-family="Helvetica,sans-Serif" font-size="10.00">_systems/icns/source_terms</text>
<text text-anchor="middle" x="79.5" y="-84" font-family="Helvetica,sans-Serif" font-size="10.00">/ABLMeanBoussinesq.cpp</text>
</a>
</g>
</g>
<!-- Node2&#45;&gt;Node3 -->
<g id="edge2_Node000002_Node000003" class="edge">
<title>Node2&#45;&gt;Node3</title>
<g id="a_edge2_Node000002_Node000003"><a xlink:title=" ">
<path fill="none" stroke="#63b8ff" d="M191.47,-160.31C171.28,-150.16 148.89,-138.9 129.48,-129.14"/>
<polygon fill="#63b8ff" stroke="#63b8ff" points="190.07,-163.53 200.58,-164.89 193.22,-157.27 190.07,-163.53"/>
</a>
</g>
</g>
<!-- Node4 -->
<g id="Node000004" class="node">
<title>Node4</title>
<g id="a_Node000004"><a xlink:href="_a_b_l_8cpp.html" target="_top" xlink:title=" ">
<polygon fill="white" stroke="#666666" points="328,-123.5 177,-123.5 177,-82.5 328,-82.5 328,-123.5"/>
<text text-anchor="start" x="185" y="-111.5" font-family="Helvetica,sans-Serif" font-size="10.00">/home/runner/work/kynema</text>
<text text-anchor="start" x="185" y="-100.5" font-family="Helvetica,sans-Serif" font-size="10.00">&#45;sgf/kynema&#45;sgf/src/wind</text>
<text text-anchor="middle" x="252.5" y="-89.5" font-family="Helvetica,sans-Serif" font-size="10.00">_energy/ABL.cpp</text>
</a>
</g>
</g>
<!-- Node2&#45;&gt;Node4 -->
<g id="edge3_Node000002_Node000004" class="edge">
<title>Node2&#45;&gt;Node4</title>
<g id="a_edge3_Node000002_Node000004"><a xlink:title=" ">
<path fill="none" stroke="#63b8ff" d="M251.33,-154.45C251.57,-143.94 251.83,-132.82 252.04,-123.7"/>
<polygon fill="#63b8ff" stroke="#63b8ff" points="247.82,-154.58 251.09,-164.66 254.82,-154.75 247.82,-154.58"/>
</a>
</g>
</g>
<!-- Node5&#45;&gt;Node4 -->
<g id="edge6_Node000005_Node000004" class="edge">
<title>Node5&#45;&gt;Node4</title>
<g id="a_edge6_Node000005_Node000004"><a xlink:title=" ">
<path fill="none" stroke="#63b8ff" d="M367.42,-160.48C342.58,-148.27 314.45,-134.44 292.24,-123.53"/>
<polygon fill="#63b8ff" stroke="#63b8ff" points="365.89,-163.62 376.41,-164.89 368.98,-157.34 365.89,-163.62"/>
</a>
</g>
</g>
<!-- Node6 -->
<g id="Node000006" class="node">
<title>Node6</title>
<g id="a_Node000006"><a xlink:href="_hurricane_forcing_8cpp.html" target="_top" xlink:title=" ">
<polygon fill="white" stroke="#666666" points="505,-129 346,-129 346,-77 505,-77 505,-129"/>
<text text-anchor="start" x="354" y="-117" font-family="Helvetica,sans-Serif" font-size="10.00">/home/runner/work/kynema</text>
<text text-anchor="start" x="354" y="-106" font-family="Helvetica,sans-Serif" font-size="10.00">&#45;sgf/kynema&#45;sgf/src/equation</text>
<text text-anchor="start" x="354" y="-95" font-family="Helvetica,sans-Serif" font-size="10.00">_systems/icns/source_terms</text>
<text text-anchor="middle" x="425.5" y="-84" font-family="Helvetica,sans-Serif" font-size="10.00">/HurricaneForcing.cpp</text>
</a>
</g>
</g>
<!-- Node5&#45;&gt;Node6 -->
<g id="edge5_Node000005_Node000006" class="edge">
<title>Node5&#45;&gt;Node6</title>
<g id="a_edge5_Node000005_Node000006"><a xlink:title=" ">
<path fill="none" stroke="#63b8ff" d="M426.68,-154.56C426.48,-146.04 426.27,-137.1 426.09,-129.16"/>
<polygon fill="#63b8ff" stroke="#63b8ff" points="423.18,-154.75 426.91,-164.66 430.18,-154.58 423.18,-154.75"/>
</a>
</g>
</g>
<!-- Node7&#45;&gt;Node4 -->
<g id="edge9_Node000007_Node000004" class="edge">
<title>Node7&#45;&gt;Node4</title>
<g id="a_edge9_Node000007_Node000004"><a xlink:title=" ">
<path fill="none" stroke="#63b8ff" d="M517.79,-165.52C517.03,-165.35 516.26,-165.17 515.5,-165 436.36,-147.06 415.25,-148.59 336.5,-129 329.86,-127.35 322.95,-125.5 316.08,-123.58"/>
<polygon fill="#63b8ff" stroke="#63b8ff" points="517.37,-169.02 527.9,-167.87 518.96,-162.2 517.37,-169.02"/>
</a>
</g>
</g>
<!-- Node8 -->
<g id="Node000008" class="node">
<title>Node8</title>
<g id="a_Node000008"><a xlink:href="_hurricane_temp_forcing_8cpp.html" target="_top" xlink:title=" ">
<polygon fill="white" stroke="#666666" points="705.5,-129 523.5,-129 523.5,-77 705.5,-77 705.5,-129"/>
<text text-anchor="start" x="531.5" y="-117" font-family="Helvetica,sans-Serif" font-size="10.00">/home/runner/work/kynema</text>
<text text-anchor="start" x="531.5" y="-106" font-family="Helvetica,sans-Serif" font-size="10.00">&#45;sgf/kynema&#45;sgf/src/equation</text>
<text text-anchor="start" x="531.5" y="-95" font-family="Helvetica,sans-Serif" font-size="10.00">_systems/temperature/source</text>
<text text-anchor="middle" x="614.5" y="-84" font-family="Helvetica,sans-Serif" font-size="10.00">_terms/HurricaneTempForcing.cpp</text>
</a>
</g>
</g>
<!-- Node7&#45;&gt;Node8 -->
<g id="edge8_Node000007_Node000008" class="edge">
<title>Node7&#45;&gt;Node8</title>
<g id="a_edge8_Node000007_Node000008"><a xlink:title=" ">
<path fill="none" stroke="#63b8ff" d="M614.5,-154.56C614.5,-146.04 614.5,-137.1 614.5,-129.16"/>
<polygon fill="#63b8ff" stroke="#63b8ff" points="611,-154.66 614.5,-164.66 618,-154.66 611,-154.66"/>
</a>
</g>
</g>
<!-- Node11 -->
<g id="Node000011" class="node">
<title>Node11</title>
<g id="a_Node000011"><a xlink:href="_second_moment_averaging_8cpp.html" target="_top" xlink:title=" ">
<polygon fill="white" stroke="#666666" points="2240.5,-294 2076.5,-294 2076.5,-253 2240.5,-253 2240.5,-294"/>
<text text-anchor="start" x="2084.5" y="-282" font-family="Helvetica,sans-Serif" font-size="10.00">/home/runner/work/kynema</text>
<text text-anchor="start" x="2084.5" y="-271" font-family="Helvetica,sans-Serif" font-size="10.00">&#45;sgf/kynema&#45;sgf/src/utilities</text>
<text text-anchor="middle" x="2158.5" y="-260" font-family="Helvetica,sans-Serif" font-size="10.00">/SecondMomentAveraging.cpp</text>
</a>
</g>
</g>
<!-- Node10&#45;&gt;Node11 -->
<g id="edge12_Node000010_Node000011" class="edge">
<title>Node10&#45;&gt;Node11</title>
<g id="a_edge12_Node000010_Node000011"><a xlink:title=" ">
<path fill="none" stroke="#63b8ff" d="M2085.76,-324.09C2100.1,-314.32 2116.22,-303.32 2129.65,-294.17"/>
<polygon fill="#63b8ff" stroke="#63b8ff" points="2083.4,-321.47 2077.11,-329.99 2087.35,-327.25 2083.4,-321.47"/>
</a>
</g>
</g>
<!-- Node10&#45;&gt;Node12 -->
<g id="edge13_Node000010_Node000012" class="edge">
<title>Node10&#45;&gt;Node12</title>
<g id="a_edge13_Node000010_Node000012"><a xlink:title=" ">
<path fill="none" stroke="#63b8ff" d="M2047.69,-319.55C2045.98,-299.51 2041.38,-273.22 2029.5,-253 2019.71,-236.33 2003.65,-222.07 1989.17,-211.54"/>
<polygon fill="#63b8ff" stroke="#63b8ff" points="2044.21,-319.92 2048.36,-329.67 2051.2,-319.46 2044.21,-319.92"/>
</a>
</g>
</g>
<!-- Node13 -->
<g id="Node000013" class="node">
<title>Node13</title>
<g id="a_Node000013"><a xlink:href="_a_b_l_stats_8cpp.html" target="_top" xlink:title=" ">
<polygon fill="white" stroke="#666666" points="3225,-123.5 3074,-123.5 3074,-82.5 3225,-82.5 3225,-123.5"/>
<text text-anchor="start" x="3082" y="-111.5" font-family="Helvetica,sans-Serif" font-size="10.00">/home/runner/work/kynema</text>
<text text-anchor="start" x="3082" y="-100.5" font-family="Helvetica,sans-Serif" font-size="10.00">&#45;sgf/kynema&#45;sgf/src/wind</text>
<text text-anchor="middle" x="3149.5" y="-89.5" font-family="Helvetica,sans-Serif" font-size="10.00">_energy/ABLStats.cpp</text>
</a>
</g>
</g>
<!-- Node12&#45;&gt;Node13 -->
<g id="edge14_Node000012_Node000013" class="edge">
<title>Node12&#45;&gt;Node13</title>
<g id="a_edge14_Node000012_Node000013"><a xlink:title=" ">
<path fill="none" stroke="#63b8ff" d="M2043.13,-187.88C2267.62,-181.9 2869.34,-163.1 3065.5,-129 3073.59,-127.59 3082.01,-125.67 3090.26,-123.5"/>
<polygon fill="#63b8ff" stroke="#63b8ff" points="2042.95,-184.38 2033.05,-188.15 2043.14,-191.38 2042.95,-184.38"/>
</a>
</g>
</g>
<!-- Node14&#45;&gt;Node12 -->
<g id="edge17_Node000014_Node000012" class="edge">
<title>Node14&#45;&gt;Node12</title>
<g id="a_edge17_Node000014_Node000012"><a xlink:title=" ">
<path fill="none" stroke="#63b8ff" d="M1838.26,-319.94C1839.45,-299.5 1843.86,-272.56 1857.5,-253 1870.06,-234.98 1889.82,-221.31 1908.47,-211.52"/>
<polygon fill="#63b8ff" stroke="#63b8ff" points="1834.76,-319.85 1837.89,-329.97 1841.75,-320.1 1834.76,-319.85"/>
</a>
</g>
</g>
<!-- Node15 -->
<g id="Node000015" class="node">
<title>Node15</title>
<g id="a_Node000015"><a xlink:href="_third_moment_averaging_8cpp.html" target="_top" xlink:title=" ">
<polygon fill="white" stroke="#666666" points="2020.5,-294 1866.5,-294 1866.5,-253 2020.5,-253 2020.5,-294"/>
<text text-anchor="start" x="1874.5" y="-282" font-family="Helvetica,sans-Serif" font-size="10.00">/home/runner/work/kynema</text>
<text text-anchor="start" x="1874.5" y="-271" font-family="Helvetica,sans-Serif" font-size="10.00">&#45;sgf/kynema&#45;sgf/src/utilities</text>
<text text-anchor="middle" x="1943.5" y="-260" font-family="Helvetica,sans-Serif" font-size="10.00">/ThirdMomentAveraging.cpp</text>
</a>
</g>
</g>
<!-- Node14&#45;&gt;Node15 -->
<g id="edge16_Node000014_Node000015" class="edge">
<title>Node14&#45;&gt;Node15</title>
<g id="a_edge16_Node000014_Node000015"><a xlink:title=" ">
<path fill="none" stroke="#63b8ff" d="M1874.07,-324.09C1887.75,-314.32 1903.15,-303.32 1915.96,-294.17"/>
<polygon fill="#63b8ff" stroke="#63b8ff" points="1871.92,-321.33 1865.81,-329.99 1875.99,-327.03 1871.92,-321.33"/>
</a>
</g>
</g>
<!-- Node16&#45;&gt;Node3 -->
<g id="edge21_Node000016_Node000003" class="edge">
<title>Node16&#45;&gt;Node3</title>
<g id="a_edge21_Node000016_Node000003"><a xlink:title=" ">
<path fill="none" stroke="#63b8ff" d="M1349.58,-187.01C1083.37,-177.57 283.25,-147.97 167.5,-129 164.84,-128.56 162.14,-128.07 159.42,-127.54"/>
<polygon fill="#63b8ff" stroke="#63b8ff" points="1349.46,-190.5 1359.58,-187.36 1349.71,-183.51 1349.46,-190.5"/>
</a>
</g>
</g>
<!-- Node16&#45;&gt;Node4 -->
<g id="edge35_Node000016_Node000004" class="edge">
<title>Node16&#45;&gt;Node4</title>
<g id="a_edge35_Node000016_Node000004"><a xlink:title=" ">
<path fill="none" stroke="#63b8ff" d="M1349.77,-187.83C1126.48,-181.77 530.83,-162.83 336.5,-129 328.41,-127.59 319.99,-125.66 311.74,-123.5"/>
<polygon fill="#63b8ff" stroke="#63b8ff" points="1349.71,-191.33 1359.8,-188.1 1349.9,-184.33 1349.71,-191.33"/>
</a>
</g>
</g>
<!-- Node16&#45;&gt;Node6 -->
<g id="edge25_Node000016_Node000006" class="edge">
<title>Node16&#45;&gt;Node6</title>
<g id="a_edge25_Node000016_Node000006"><a xlink:title=" ">
<path fill="none" stroke="#63b8ff" d="M1349.97,-190.24C1186.44,-189.39 818.67,-181.21 514.5,-129 511.49,-128.48 508.44,-127.91 505.37,-127.28"/>
<polygon fill="#63b8ff" stroke="#63b8ff" points="1349.95,-193.74 1359.97,-190.28 1349.98,-186.74 1349.95,-193.74"/>
</a>
</g>
</g>
<!-- Node16&#45;&gt;Node8 -->
<g id="edge27_Node000016_Node000008" class="edge">
<title>Node16&#45;&gt;Node8</title>
<g id="a_edge27_Node000016_Node000008"><a xlink:title=" ">
<path fill="none" stroke="#63b8ff" d="M1349.42,-187.18C1213.66,-181.74 941.86,-166.79 714.5,-129 711.59,-128.52 708.63,-127.99 705.66,-127.43"/>
<polygon fill="#63b8ff" stroke="#63b8ff" points="1349.62,-190.69 1359.75,-187.59 1349.9,-183.7 1349.62,-190.69"/>
</a>
</g>
</g>
<!-- Node17 -->
<g id="Node000017" class="node">
<title>Node17</title>
<g id="a_Node000017"><a xlink:href="_c_f_d_sim_8cpp.html" target="_top" xlink:title=" ">
<polygon fill="white" stroke="#666666" points="1972.5,-118 1796.5,-118 1796.5,-88 1972.5,-88 1972.5,-118"/>
<text text-anchor="start" x="1804.5" y="-106" font-family="Helvetica,sans-Serif" font-size="10.00">/home/runner/work/kynema</text>
<text text-anchor="middle" x="1884.5" y="-95" font-family="Helvetica,sans-Serif" font-size="10.00">&#45;sgf/kynema&#45;sgf/src/CFDSim.cpp</text>
</a>
</g>
</g>
<!-- Node16&#45;&gt;Node17 -->
<g id="edge19_Node000016_Node000017" class="edge">
<title>Node16&#45;&gt;Node17</title>
<g id="a_edge19_Node000016_Node000017"><a xlink:title=" ">
<path fill="none" stroke="#63b8ff" d="M1521.33,-177.11C1592.84,-165.9 1697.2,-148.43 1787.5,-129 1802.46,-125.78 1818.6,-121.82 1833.34,-118.01"/>
<polygon fill="#63b8ff" stroke="#63b8ff" points="1520.37,-173.72 1511.03,-178.72 1521.45,-180.63 1520.37,-173.72"/>
</a>
</g>
</g>
<!-- Node18 -->
<g id="Node000018" class="node">
<title>Node18</title>
<g id="a_Node000018"><a xlink:href="_a_b_l_forcing_8cpp.html" target="_top" xlink:title=" ">
<polygon fill="white" stroke="#666666" points="2149,-129 1990,-129 1990,-77 2149,-77 2149,-129"/>
<text text-anchor="start" x="1998" y="-117" font-family="Helvetica,sans-Serif" font-size="10.00">/home/runner/work/kynema</text>
<text text-anchor="start" x="1998" y="-106" font-family="Helvetica,sans-Serif" font-size="10.00">&#45;sgf/kynema&#45;sgf/src/equation</text>
<text text-anchor="start" x="1998" y="-95" font-family="Helvetica,sans-Serif" font-size="10.00">_systems/icns/source_terms</text>
<text text-anchor="middle" x="2069.5" y="-84" font-family="Helvetica,sans-Serif" font-size="10.00">/ABLForcing.cpp</text>
</a>
</g>
</g>
<!-- Node16&#45;&gt;Node18 -->
<g id="edge20_Node000016_Node000018" class="edge">
<title>Node16&#45;&gt;Node18</title>
<g id="a_edge20_Node000016_Node000018"><a xlink:title=" ">
<path fill="none" stroke="#63b8ff" d="M1521.37,-184.82C1629.49,-177.29 1820.57,-160.62 1981.5,-129 1984.15,-128.48 1986.83,-127.92 1989.54,-127.32"/>
<polygon fill="#63b8ff" stroke="#63b8ff" points="1520.91,-181.34 1511.17,-185.52 1521.39,-188.33 1520.91,-181.34"/>
</a>
</g>
</g>
<!-- Node19 -->
<g id="Node000019" class="node">
<title>Node19</title>
<g id="a_Node000019"><a xlink:href="_a_b_l_meso_forcing_mom_8cpp.html" target="_top" xlink:title=" ">
<polygon fill="white" stroke="#666666" points="2326,-129 2167,-129 2167,-77 2326,-77 2326,-129"/>
<text text-anchor="start" x="2175" y="-117" font-family="Helvetica,sans-Serif" font-size="10.00">/home/runner/work/kynema</text>
<text text-anchor="start" x="2175" y="-106" font-family="Helvetica,sans-Serif" font-size="10.00">&#45;sgf/kynema&#45;sgf/src/equation</text>
<text text-anchor="start" x="2175" y="-95" font-family="Helvetica,sans-Serif" font-size="10.00">_systems/icns/source_terms</text>
<text text-anchor="middle" x="2246.5" y="-84" font-family="Helvetica,sans-Serif" font-size="10.00">/ABLMesoForcingMom.cpp</text>
</a>
</g>
</g>
<!-- Node16&#45;&gt;Node19 -->
<g id="edge22_Node000016_Node000019" class="edge">
<title>Node16&#45;&gt;Node19</title>
<g id="a_edge22_Node000016_Node000019"><a xlink:title=" ">
<path fill="none" stroke="#63b8ff" d="M1521.49,-183.19C1706.39,-168.49 2127.62,-134.63 2158.5,-129 2161.16,-128.52 2163.85,-127.98 2166.56,-127.42"/>
<polygon fill="#63b8ff" stroke="#63b8ff" points="1520.95,-179.72 1511.26,-184 1521.51,-186.7 1520.95,-179.72"/>
</a>
</g>
</g>
<!-- Node20 -->
<g id="Node000020" class="node">
<title>Node20</title>
<g id="a_Node000020"><a xlink:href="_drag_forcing_8cpp.html" target="_top" xlink:title=" ">
<polygon fill="white" stroke="#666666" points="2503,-129 2344,-129 2344,-77 2503,-77 2503,-129"/>
<text text-anchor="start" x="2352" y="-117" font-family="Helvetica,sans-Serif" font-size="10.00">/home/runner/work/kynema</text>
<text text-anchor="start" x="2352" y="-106" font-family="Helvetica,sans-Serif" font-size="10.00">&#45;sgf/kynema&#45;sgf/src/equation</text>
<text text-anchor="start" x="2352" y="-95" font-family="Helvetica,sans-Serif" font-size="10.00">_systems/icns/source_terms</text>
<text text-anchor="middle" x="2423.5" y="-84" font-family="Helvetica,sans-Serif" font-size="10.00">/DragForcing.cpp</text>
</a>
</g>
</g>
<!-- Node16&#45;&gt;Node20 -->
<g id="edge23_Node000016_Node000020" class="edge">
<title>Node16&#45;&gt;Node20</title>
<g id="a_edge23_Node000016_Node000020"><a xlink:title=" ">
<path fill="none" stroke="#63b8ff" d="M1521.32,-182.72C1584.19,-177.48 1671.62,-170.43 1748.5,-165 2009.23,-146.59 2077.85,-172.97 2335.5,-129 2338.16,-128.55 2340.86,-128.04 2343.57,-127.5"/>
<polygon fill="#63b8ff" stroke="#63b8ff" points="1520.72,-179.25 1511.05,-183.57 1521.31,-186.23 1520.72,-179.25"/>
</a>
</g>
</g>
<!-- Node21 -->
<g id="Node000021" class="node">
<title>Node21</title>
<g id="a_Node000021"><a xlink:href="_forest_forcing_8cpp.html" target="_top" xlink:title=" ">
<polygon fill="white" stroke="#666666" points="2680,-129 2521,-129 2521,-77 2680,-77 2680,-129"/>
<text text-anchor="start" x="2529" y="-117" font-family="Helvetica,sans-Serif" font-size="10.00">/home/runner/work/kynema</text>
<text text-anchor="start" x="2529" y="-106" font-family="Helvetica,sans-Serif" font-size="10.00">&#45;sgf/kynema&#45;sgf/src/equation</text>
<text text-anchor="start" x="2529" y="-95" font-family="Helvetica,sans-Serif" font-size="10.00">_systems/icns/source_terms</text>
<text text-anchor="middle" x="2600.5" y="-84" font-family="Helvetica,sans-Serif" font-size="10.00">/ForestForcing.cpp</text>
</a>
</g>
</g>
<!-- Node16&#45;&gt;Node21 -->
<g id="edge24_Node000016_Node000021" class="edge">
<title>Node16&#45;&gt;Node21</title>
<g id="a_edge24_Node000016_Node000021"><a xlink:title=" ">
<path fill="none" stroke="#63b8ff" d="M1521.29,-182.39C1584.16,-177 1671.58,-169.88 1748.5,-165 2087.75,-143.46 2177.02,-183.81 2512.5,-129 2515.16,-128.56 2517.86,-128.08 2520.58,-127.55"/>
<polygon fill="#63b8ff" stroke="#63b8ff" points="1520.69,-178.93 1511.03,-183.27 1521.29,-185.9 1520.69,-178.93"/>
</a>
</g>
</g>
<!-- Node22 -->
<g id="Node000022" class="node">
<title>Node22</title>
<g id="a_Node000022"><a xlink:href="_a_b_l_meso_forcing_temp_8cpp.html" target="_top" xlink:title=" ">
<polygon fill="white" stroke="#666666" points="2878.5,-129 2698.5,-129 2698.5,-77 2878.5,-77 2878.5,-129"/>
<text text-anchor="start" x="2706.5" y="-117" font-family="Helvetica,sans-Serif" font-size="10.00">/home/runner/work/kynema</text>
<text text-anchor="start" x="2706.5" y="-106" font-family="Helvetica,sans-Serif" font-size="10.00">&#45;sgf/kynema&#45;sgf/src/equation</text>
<text text-anchor="start" x="2706.5" y="-95" font-family="Helvetica,sans-Serif" font-size="10.00">_systems/temperature/source</text>
<text text-anchor="middle" x="2788.5" y="-84" font-family="Helvetica,sans-Serif" font-size="10.00">_terms/ABLMesoForcingTemp.cpp</text>
</a>
</g>
</g>
<!-- Node16&#45;&gt;Node22 -->
<g id="edge26_Node000016_Node000022" class="edge">
<title>Node16&#45;&gt;Node22</title>
<g id="a_edge26_Node000016_Node000022"><a xlink:title=" ">
<path fill="none" stroke="#63b8ff" d="M1521.28,-182.18C1584.14,-176.69 1671.56,-169.54 1748.5,-165 2166.3,-140.33 2275.23,-188.56 2689.5,-129 2692.4,-128.58 2695.33,-128.12 2698.28,-127.61"/>
<polygon fill="#63b8ff" stroke="#63b8ff" points="1520.67,-178.72 1511.02,-183.09 1521.29,-185.7 1520.67,-178.72"/>
</a>
</g>
</g>
<!-- Node23 -->
<g id="Node000023" class="node">
<title>Node23</title>
<g id="a_Node000023"><a xlink:href="helics_8cpp.html" target="_top" xlink:title=" ">
<polygon fill="white" stroke="#666666" points="889,-118 724,-118 724,-88 889,-88 889,-118"/>
<text text-anchor="start" x="732" y="-106" font-family="Helvetica,sans-Serif" font-size="10.00">/home/runner/work/kynema</text>
<text text-anchor="middle" x="806.5" y="-95" font-family="Helvetica,sans-Serif" font-size="10.00">&#45;sgf/kynema&#45;sgf/src/helics.cpp</text>
</a>
</g>
</g>
<!-- Node16&#45;&gt;Node23 -->
<g id="edge28_Node000016_Node000023" class="edge">
<title>Node16&#45;&gt;Node23</title>
<g id="a_edge28_Node000016_Node000023"><a xlink:title=" ">
<path fill="none" stroke="#63b8ff" d="M1349.58,-184.39C1242.85,-176.47 1055.54,-159.48 897.5,-129 882.7,-126.15 866.78,-122.11 852.47,-118.12"/>
<polygon fill="#63b8ff" stroke="#63b8ff" points="1349.42,-187.89 1359.65,-185.13 1349.93,-180.91 1349.42,-187.89"/>
</a>
</g>
</g>
<!-- Node24 -->
<g id="Node000024" class="node">
<title>Node24</title>
<g id="a_Node000024"><a xlink:href="incflo_8cpp.html" target="_top" xlink:title=" ">
<polygon fill="white" stroke="#666666" points="1070,-118 907,-118 907,-88 1070,-88 1070,-118"/>
<text text-anchor="start" x="915" y="-106" font-family="Helvetica,sans-Serif" font-size="10.00">/home/runner/work/kynema</text>
<text text-anchor="middle" x="988.5" y="-95" font-family="Helvetica,sans-Serif" font-size="10.00">&#45;sgf/kynema&#45;sgf/src/incflo.cpp</text>
</a>
</g>
</g>
<!-- Node16&#45;&gt;Node24 -->
<g id="edge29_Node000016_Node000024" class="edge">
<title>Node16&#45;&gt;Node24</title>
<g id="a_edge29_Node000016_Node000024"><a xlink:title=" ">
<path fill="none" stroke="#63b8ff" d="M1349.83,-177.87C1277.21,-166.98 1170.51,-149.58 1078.5,-129 1064.42,-125.85 1049.25,-121.87 1035.45,-118.01"/>
<polygon fill="#63b8ff" stroke="#63b8ff" points="1349.44,-181.35 1359.85,-179.36 1350.47,-174.42 1349.44,-181.35"/>
</a>
</g>
</g>
<!-- Node25 -->
<g id="Node000025" class="node">
<title>Node25</title>
<g id="a_Node000025"><a xlink:href="nodal__projection__ops_8_h.html" target="_top" xlink:title=" ">
<polygon fill="white" stroke="#666666" points="1253,-123.5 1088,-123.5 1088,-82.5 1253,-82.5 1253,-123.5"/>
<text text-anchor="start" x="1096" y="-111.5" font-family="Helvetica,sans-Serif" font-size="10.00">/home/runner/work/kynema</text>
<text text-anchor="start" x="1096" y="-100.5" font-family="Helvetica,sans-Serif" font-size="10.00">&#45;sgf/kynema&#45;sgf/src/projection</text>
<text text-anchor="middle" x="1170.5" y="-89.5" font-family="Helvetica,sans-Serif" font-size="10.00">/nodal_projection_ops.H</text>
</a>
</g>
</g>
<!-- Node16&#45;&gt;Node25 -->
<g id="edge30_Node000016_Node000025" class="edge">
<title>Node16&#45;&gt;Node25</title>
<g id="a_edge30_Node000016_Node000025"><a xlink:title=" ">
<path fill="none" stroke="#63b8ff" d="M1365.78,-167.37C1323.84,-153.76 1270.99,-136.61 1230.85,-123.59"/>
<polygon fill="#63b8ff" stroke="#63b8ff" points="1364.78,-170.73 1375.37,-170.49 1366.94,-164.07 1364.78,-170.73"/>
</a>
</g>
</g>
<!-- Node28 -->
<g id="Node000028" class="node">
<title>Node28</title>
<g id="a_Node000028"><a xlink:href="init_8cpp.html" target="_top" xlink:title=" ">
<polygon fill="white" stroke="#666666" points="1422,-123.5 1271,-123.5 1271,-82.5 1422,-82.5 1422,-123.5"/>
<text text-anchor="start" x="1279" y="-111.5" font-family="Helvetica,sans-Serif" font-size="10.00">/home/runner/work/kynema</text>
<text text-anchor="start" x="1279" y="-100.5" font-family="Helvetica,sans-Serif" font-size="10.00">&#45;sgf/kynema&#45;sgf/src/setup</text>
<text text-anchor="middle" x="1346.5" y="-89.5" font-family="Helvetica,sans-Serif" font-size="10.00">/init.cpp</text>
</a>
</g>
</g>
<!-- Node16&#45;&gt;Node28 -->
<g id="edge33_Node000016_Node000028" class="edge">
<title>Node16&#45;&gt;Node28</title>
<g id="a_edge33_Node000016_Node000028"><a xlink:title=" ">
<path fill="none" stroke="#63b8ff" d="M1407.83,-163.26C1394.61,-150.48 1379.06,-135.46 1366.92,-123.74"/>
<polygon fill="#63b8ff" stroke="#63b8ff" points="1405.68,-166.05 1415.3,-170.49 1410.55,-161.02 1405.68,-166.05"/>
</a>
</g>
</g>
<!-- Node29 -->
<g id="Node000029" class="node">
<title>Node29</title>
<g id="a_Node000029"><a xlink:href="_kosovic_8cpp.html" target="_top" xlink:title=" ">
<polygon fill="white" stroke="#666666" points="1608.5,-123.5 1440.5,-123.5 1440.5,-82.5 1608.5,-82.5 1608.5,-123.5"/>
<text text-anchor="start" x="1448.5" y="-111.5" font-family="Helvetica,sans-Serif" font-size="10.00">/home/runner/work/kynema</text>
<text text-anchor="start" x="1448.5" y="-100.5" font-family="Helvetica,sans-Serif" font-size="10.00">&#45;sgf/kynema&#45;sgf/src/turbulence</text>
<text text-anchor="middle" x="1524.5" y="-89.5" font-family="Helvetica,sans-Serif" font-size="10.00">/LES/Kosovic.cpp</text>
</a>
</g>
</g>
<!-- Node16&#45;&gt;Node29 -->
<g id="edge34_Node000016_Node000029" class="edge">
<title>Node16&#45;&gt;Node29</title>
<g id="a_edge34_Node000016_Node000029"><a xlink:title=" ">
<path fill="none" stroke="#63b8ff" d="M1463.17,-163.26C1476.39,-150.48 1491.94,-135.46 1504.08,-123.74"/>
<polygon fill="#63b8ff" stroke="#63b8ff" points="1460.45,-161.02 1455.7,-170.49 1465.32,-166.05 1460.45,-161.02"/>
</a>
</g>
</g>
<!-- Node30 -->
<g id="Node000030" class="node">
<title>Node30</title>
<g id="a_Node000030"><a xlink:href="_a_b_l_anelastic_8cpp.html" target="_top" xlink:title=" ">
<polygon fill="white" stroke="#666666" points="1778,-123.5 1627,-123.5 1627,-82.5 1778,-82.5 1778,-123.5"/>
<text text-anchor="start" x="1635" y="-111.5" font-family="Helvetica,sans-Serif" font-size="10.00">/home/runner/work/kynema</text>
<text text-anchor="start" x="1635" y="-100.5" font-family="Helvetica,sans-Serif" font-size="10.00">&#45;sgf/kynema&#45;sgf/src/wind</text>
<text text-anchor="middle" x="1702.5" y="-89.5" font-family="Helvetica,sans-Serif" font-size="10.00">_energy/ABLAnelastic.cpp</text>
</a>
</g>
</g>
<!-- Node16&#45;&gt;Node30 -->
<g id="edge36_Node000016_Node000030" class="edge">
<title>Node16&#45;&gt;Node30</title>
<g id="a_edge36_Node000016_Node000030"><a xlink:title=" ">
<path fill="none" stroke="#63b8ff" d="M1505.75,-167.37C1548,-153.76 1601.25,-136.61 1641.69,-123.59"/>
<polygon fill="#63b8ff" stroke="#63b8ff" points="1504.53,-164.09 1496.09,-170.49 1506.68,-170.75 1504.53,-164.09"/>
</a>
</g>
</g>
<!-- Node31 -->
<g id="Node000031" class="node">
<title>Node31</title>
<g id="a_Node000031"><a xlink:href="_a_b_l_wall_function_8cpp.html" target="_top" xlink:title=" ">
<polygon fill="white" stroke="#666666" points="3056,-123.5 2897,-123.5 2897,-82.5 3056,-82.5 3056,-123.5"/>
<text text-anchor="start" x="2905" y="-111.5" font-family="Helvetica,sans-Serif" font-size="10.00">/home/runner/work/kynema</text>
<text text-anchor="start" x="2905" y="-100.5" font-family="Helvetica,sans-Serif" font-size="10.00">&#45;sgf/kynema&#45;sgf/src/wind</text>
<text text-anchor="middle" x="2976.5" y="-89.5" font-family="Helvetica,sans-Serif" font-size="10.00">_energy/ABLWallFunction.cpp</text>
</a>
</g>
</g>
<!-- Node16&#45;&gt;Node31 -->
<g id="edge37_Node000016_Node000031" class="edge">
<title>Node16&#45;&gt;Node31</title>
<g id="a_edge37_Node000016_Node000031"><a xlink:title=" ">
<path fill="none" stroke="#63b8ff" d="M1521.27,-182.03C1584.13,-176.46 1671.55,-169.29 1748.5,-165 2001.35,-150.91 2637.21,-167.52 2887.5,-129 2896.22,-127.66 2905.31,-125.74 2914.19,-123.55"/>
<polygon fill="#63b8ff" stroke="#63b8ff" points="1520.66,-178.57 1511.01,-182.94 1521.28,-185.54 1520.66,-178.57"/>
</a>
</g>
</g>
<!-- Node26 -->
<g id="Node000026" class="node">
<title>Node26</title>
<g id="a_Node000026"><a xlink:href="_overset_ops_8cpp.html" target="_top" xlink:title=" ">
<polygon fill="white" stroke="#666666" points="1153,-41 1000,-41 1000,0 1153,0 1153,-41"/>
<text text-anchor="start" x="1008" y="-29" font-family="Helvetica,sans-Serif" font-size="10.00">/home/runner/work/kynema</text>
<text text-anchor="start" x="1008" y="-18" font-family="Helvetica,sans-Serif" font-size="10.00">&#45;sgf/kynema&#45;sgf/src/overset</text>
<text text-anchor="middle" x="1076.5" y="-7" font-family="Helvetica,sans-Serif" font-size="10.00">/OversetOps.cpp</text>
</a>
</g>
</g>
<!-- Node25&#45;&gt;Node26 -->
<g id="edge31_Node000025_Node000026" class="edge">
<title>Node25&#45;&gt;Node26</title>
<g id="a_edge31_Node000025_Node000026"><a xlink:title=" ">
<path fill="none" stroke="#63b8ff" d="M1139.43,-75.39C1126.39,-64.22 1111.49,-51.47 1099.47,-41.17"/>
<polygon fill="#63b8ff" stroke="#63b8ff" points="1137.39,-78.25 1147.26,-82.1 1141.95,-72.94 1137.39,-78.25"/>
</a>
</g>
</g>
<!-- Node27 -->
<g id="Node000027" class="node">
<title>Node27</title>
<g id="a_Node000027"><a xlink:href="incflo__apply__nodal__projection_8cpp.html" target="_top" xlink:title=" ">
<polygon fill="white" stroke="#666666" points="1356,-41 1171,-41 1171,0 1356,0 1356,-41"/>
<text text-anchor="start" x="1179" y="-29" font-family="Helvetica,sans-Serif" font-size="10.00">/home/runner/work/kynema</text>
<text text-anchor="start" x="1179" y="-18" font-family="Helvetica,sans-Serif" font-size="10.00">&#45;sgf/kynema&#45;sgf/src/projection</text>
<text text-anchor="middle" x="1263.5" y="-7" font-family="Helvetica,sans-Serif" font-size="10.00">/incflo_apply_nodal_projection.cpp</text>
</a>
</g>
</g>
<!-- Node25&#45;&gt;Node27 -->
<g id="edge32_Node000025_Node000027" class="edge">
<title>Node25&#45;&gt;Node27</title>
<g id="a_edge32_Node000025_Node000027"><a xlink:title=" ">
<path fill="none" stroke="#63b8ff" d="M1201.24,-75.39C1214.14,-64.22 1228.88,-51.47 1240.78,-41.17"/>
<polygon fill="#63b8ff" stroke="#63b8ff" points="1198.76,-72.91 1193.49,-82.1 1203.34,-78.2 1198.76,-72.91"/>
</a>
</g>
</g>
<!-- Node32&#45;&gt;Node12 -->
<g id="edge42_Node000032_Node000012" class="edge">
<title>Node32&#45;&gt;Node12</title>
<g id="a_edge42_Node000032_Node000012"><a xlink:title=" ">
<path fill="none" stroke="#63b8ff" d="M1712.96,-325.8C1733.3,-316.54 1756.27,-305.42 1776.5,-294 1804.94,-277.94 1809.33,-269.54 1837.5,-253 1862.99,-238.03 1892.59,-222.96 1916.02,-211.54"/>
<polygon fill="#63b8ff" stroke="#63b8ff" points="1711.51,-322.61 1703.82,-329.91 1714.38,-329 1711.51,-322.61"/>
</a>
</g>
</g>
<!-- Node32&#45;&gt;Node16 -->
<g id="edge41_Node000032_Node000016" class="edge">
<title>Node32&#45;&gt;Node16</title>
<g id="a_edge41_Node000032_Node000016"><a xlink:title=" ">
<path fill="none" stroke="#63b8ff" d="M1571.62,-342.14C1506.42,-334.56 1424.49,-320.07 1403.5,-294 1384.06,-269.86 1403.6,-233.81 1419.54,-211.66"/>
<polygon fill="#63b8ff" stroke="#63b8ff" points="1571.61,-345.66 1581.93,-343.3 1572.39,-338.7 1571.61,-345.66"/>
</a>
</g>
</g>
<!-- Node32&#45;&gt;Node31 -->
<g id="edge46_Node000032_Node000031" class="edge">
<title>Node32&#45;&gt;Node31</title>
<g id="a_edge46_Node000032_Node000031"><a xlink:title=" ">
<path fill="none" stroke="#63b8ff" d="M1701.77,-324.73C1715.8,-315.9 1730.92,-305.32 1743.5,-294 1760.88,-278.35 1760.46,-270.02 1776.5,-253 1816.43,-210.64 1819.58,-186.92 1873.5,-165 1977.94,-122.54 2776.11,-146.37 2887.5,-129 2896.22,-127.64 2905.3,-125.71 2914.19,-123.52"/>
<polygon fill="#63b8ff" stroke="#63b8ff" points="1699.9,-321.77 1693.21,-329.98 1703.56,-327.73 1699.9,-321.77"/>
</a>
</g>
</g>
<!-- Node33 -->
<g id="Node000033" class="node">
<title>Node33</title>
<g id="a_Node000033"><a xlink:href="_boussinesq_bubble_8cpp.html" target="_top" xlink:title=" ">
<polygon fill="white" stroke="#666666" points="1734,-294 1581,-294 1581,-253 1734,-253 1734,-294"/>
<text text-anchor="start" x="1589" y="-282" font-family="Helvetica,sans-Serif" font-size="10.00">/home/runner/work/kynema</text>
<text text-anchor="start" x="1589" y="-271" font-family="Helvetica,sans-Serif" font-size="10.00">&#45;sgf/kynema&#45;sgf/src/physics</text>
<text text-anchor="middle" x="1657.5" y="-260" font-family="Helvetica,sans-Serif" font-size="10.00">/BoussinesqBubble.cpp</text>
</a>
</g>
</g>
<!-- Node32&#45;&gt;Node33 -->
<g id="edge40_Node000032_Node000033" class="edge">
<title>Node32&#45;&gt;Node33</title>
<g id="a_edge40_Node000032_Node000033"><a xlink:title=" ">
<path fill="none" stroke="#63b8ff" d="M1657.5,-319.69C1657.5,-311.08 1657.5,-301.9 1657.5,-294.07"/>
<polygon fill="#63b8ff" stroke="#63b8ff" points="1654,-319.79 1657.5,-329.79 1661,-319.79 1654,-319.79"/>
</a>
</g>
</g>
<!-- Node34 -->
<g id="Node000034" class="node">
<title>Node34</title>
<g id="a_Node000034"><a xlink:href="_a_b_l_stats_base_8_h.html" target="_top" xlink:title=" ">
<polygon fill="white" stroke="#666666" points="1563,-294 1412,-294 1412,-253 1563,-253 1563,-294"/>
<text text-anchor="start" x="1420" y="-282" font-family="Helvetica,sans-Serif" font-size="10.00">/home/runner/work/kynema</text>
<text text-anchor="start" x="1420" y="-271" font-family="Helvetica,sans-Serif" font-size="10.00">&#45;sgf/kynema&#45;sgf/src/wind</text>
<text text-anchor="middle" x="1487.5" y="-260" font-family="Helvetica,sans-Serif" font-size="10.00">_energy/ABLStatsBase.H</text>
</a>
</g>
</g>
<!-- Node32&#45;&gt;Node34 -->
<g id="edge43_Node000032_Node000034" class="edge">
<title>Node32&#45;&gt;Node34</title>
<g id="a_edge43_Node000032_Node000034"><a xlink:title=" ">
<path fill="none" stroke="#63b8ff" d="M1603.91,-325.86C1580.7,-315.62 1553.85,-303.77 1531.8,-294.04"/>
<polygon fill="#63b8ff" stroke="#63b8ff" points="1602.72,-329.16 1613.28,-329.99 1605.54,-322.75 1602.72,-329.16"/>
</a>
</g>
</g>
<!-- Node34&#45;&gt;Node12 -->
<g id="edge45_Node000034_Node000012" class="edge">
<title>Node34&#45;&gt;Node12</title>
<g id="a_edge45_Node000034_Node000012"><a xlink:title=" ">
<path fill="none" stroke="#63b8ff" d="M1573.32,-252.9C1686.49,-231.22 1806.37,-213.18 1881.99,-202.41"/>
<polygon fill="#63b8ff" stroke="#63b8ff" points="1572.6,-249.48 1563.45,-254.81 1573.93,-256.35 1572.6,-249.48"/>
</a>
</g>
</g>
<!-- Node34&#45;&gt;Node16 -->
<g id="edge44_Node000034_Node000016" class="edge">
<title>Node34&#45;&gt;Node16</title>
<g id="a_edge44_Node000034_Node000016"><a xlink:title=" ">
<path fill="none" stroke="#63b8ff" d="M1469.08,-243.98C1462.17,-233.29 1454.48,-221.38 1448.21,-211.67"/>
<polygon fill="#63b8ff" stroke="#63b8ff" points="1466.28,-246.1 1474.65,-252.6 1472.16,-242.3 1466.28,-246.1"/>
</a>
</g>
</g>
</g>
</svg>

<g id="navigator" transform="translate(0 0)" fill="#404254">
  <rect fill="#f2f5e9" fill-opacity="0.5" stroke="#606060" stroke-width=".5" x="0" y="0" width="60" height="60"/>
  <use id="zoomplus" xlink:href="#zoomPlus" x="17" y="9" onmousedown="handleZoom(evt,'in')"/>
  <use id="zoomminus" xlink:href="#zoomMin" x="42" y="9" onmousedown="handleZoom(evt,'out')"/>
  <use id="reset" xlink:href="#resetDef" x="30" y="36" onmousedown="handleReset()"/>
   <use id="arrowup" xlink:href="#arrowUp" x="0" y="0" onmousedown="handlePan(0,-1)"/>
  <use id="arrowright" xlink:href="#arrowRight" x="0" y="0" onmousedown="handlePan(1,0)"/>
  <use id="arrowdown" xlink:href="#arrowDown" x="0" y="0" onmousedown="handlePan(0,1)"/>
  <use id="arrowleft" xlink:href="#arrowLeft" x="0" y="0" onmousedown="handlePan(-1,0)"/>
</g>
<svg viewBox="0 0 15 15" width="100%" height="30px" preserveAspectRatio="xMaxYMin meet">
 <g id="arrow_out" transform="scale(0.3 0.3)">
  <a xlink:href="_field_plane_averaging_8_h__dep__incl_org.svg" target="_base">
   <rect id="button" ry="5" rx="5" y="6" x="6" height="38" width="38"
        fill="#f2f5e9" fill-opacity="0.5" stroke="#606060" stroke-width="1.0"/>
   <path id="arrow"
     d="M 11.500037,31.436501 C 11.940474,20.09759 22.043105,11.32322 32.158766,21.979434 L 37.068811,17.246167 C 37.068811,17.246167 37.088388,32 37.088388,32 L 22.160133,31.978069 C 22.160133,31.978069 26.997745,27.140456 26.997745,27.140456 C 18.528582,18.264221 13.291696,25.230495 11.500037,31.436501 z"
     style="fill:#404040;"/>
  </a>
 </g>
</svg>

<style type='text/css'>
<![CDATA[
[data-mouse-over-selected='false'] { opacity: 0.7; }
[data-mouse-over-selected='true']  { opacity: 1.0; }
]]>
</style>
<script type="application/ecmascript"><![CDATA[
document.addEventListener('DOMContentLoaded', (event) => {
  highlightEdges();
  highlightAdjacentNodes();
});
]]></script>
</svg>
