<?xml version="1.0" encoding="UTF-8" standalone="no"?>
<!DOCTYPE svg PUBLIC "-//W3C//DTD SVG 1.1//EN"
 "http://www.w3.org/Graphics/SVG/1.1/DTD/svg11.dtd">
<!-- Generated by graphviz version 2.43.0 (0)
 -->
<!-- Title: /home/runner/work/kynema&#45;sgf/kynema&#45;sgf/src/physics/multiphase/FreeSurfaceDamping.H Pages: 1 -->
<svg width="2581pt" height="324pt"
 viewBox="0.00 0.00 2581.00 324.00" xmlns="http://www.w3.org/2000/svg" xmlns:xlink="http://www.w3.org/1999/xlink">
<g id="graph0" class="graph" transform="scale(1 1) rotate(0) translate(4 320)">
<title>/home/runner/work/kynema&#45;sgf/kynema&#45;sgf/src/physics/multiphase/FreeSurfaceDamping.H</title>
<!-- Node1 -->
<g id="Node000001" class="node">
<title>Node1</title>
<g id="a_Node000001"><a xlink:title=" ">
<polygon fill="#999999" stroke="#666666" points="910,-316 720,-316 720,-275 910,-275 910,-316"/>
<text text-anchor="start" x="728" y="-304" font-family="Helvetica,sans-Serif" font-size="10.00">/home/runner/work/kynema</text>
<text text-anchor="start" x="728" y="-293" font-family="Helvetica,sans-Serif" font-size="10.00">&#45;sgf/kynema&#45;sgf/src/physics</text>
<text text-anchor="middle" x="815" y="-282" font-family="Helvetica,sans-Serif" font-size="10.00">/multiphase/FreeSurfaceDamping.H</text>
</a>
</g>
</g>
<!-- Node2 -->
<g id="Node000002" class="node">
<title>Node2</title>
<g id="a_Node000002"><a xlink:href="_physics_8_h.html" target="_top" xlink:title=" ">
<polygon fill="white" stroke="#666666" points="475.5,-239 370.5,-239 370.5,-220 475.5,-220 475.5,-239"/>
<text text-anchor="middle" x="423" y="-227" font-family="Helvetica,sans-Serif" font-size="10.00">src/core/Physics.H</text>
</a>
</g>
</g>
<!-- Node1&#45;&gt;Node2 -->
<g id="edge1_Node000001_Node000002" class="edge">
<title>Node1&#45;&gt;Node2</title>
<g id="a_edge1_Node000001_Node000002"><a xlink:title=" ">
<path fill="none" stroke="#63b8ff" d="M719.86,-278.97C646.98,-267.07 548.53,-251 485.39,-240.69"/>
<polygon fill="#63b8ff" stroke="#63b8ff" points="485.62,-237.18 475.19,-239.02 484.49,-244.09 485.62,-237.18"/>
</a>
</g>
</g>
<!-- Node13 -->
<g id="Node000013" class="node">
<title>Node13</title>
<g id="a_Node000013"><a xlink:title=" ">
<polygon fill="#e0e0e0" stroke="#999999" points="231.5,-184 116.5,-184 116.5,-165 231.5,-165 231.5,-184"/>
<text text-anchor="middle" x="174" y="-172" font-family="Helvetica,sans-Serif" font-size="10.00">AMReX_Geometry.H</text>
</a>
</g>
</g>
<!-- Node1&#45;&gt;Node13 -->
<g id="edge70_Node000001_Node000013" class="edge">
<title>Node1&#45;&gt;Node13</title>
<g id="a_edge70_Node000001_Node000013"><a xlink:title=" ">
<path fill="none" stroke="#63b8ff" d="M719.68,-288.57C627.13,-281.48 483.12,-266.89 361,-239 304.32,-226.06 240.69,-202.4 204.18,-187.9"/>
<polygon fill="#63b8ff" stroke="#63b8ff" points="205.21,-184.55 194.63,-184.07 202.61,-191.04 205.21,-184.55"/>
</a>
</g>
</g>
<!-- Node14 -->
<g id="Node000014" class="node">
<title>Node14</title>
<g id="a_Node000014"><a xlink:href="_field_repo_8_h.html" target="_top" xlink:title=" ">
<polygon fill="white" stroke="#666666" points="1436,-239 1320,-239 1320,-220 1436,-220 1436,-239"/>
<text text-anchor="middle" x="1378" y="-227" font-family="Helvetica,sans-Serif" font-size="10.00">src/core/FieldRepo.H</text>
</a>
</g>
</g>
<!-- Node1&#45;&gt;Node14 -->
<g id="edge15_Node000001_Node000014" class="edge">
<title>Node1&#45;&gt;Node14</title>
<g id="a_edge15_Node000001_Node000014"><a xlink:title=" ">
<path fill="none" stroke="#63b8ff" d="M910.19,-283.68C1023.56,-270.79 1210.12,-249.58 1309.95,-238.24"/>
<polygon fill="#63b8ff" stroke="#63b8ff" points="1310.38,-241.71 1319.92,-237.1 1309.59,-234.75 1310.38,-241.71"/>
</a>
</g>
</g>
<!-- Node32 -->
<g id="Node000032" class="node">
<title>Node32</title>
<g id="a_Node000032"><a xlink:href="_sim_time_8_h.html" target="_top" xlink:title=" ">
<polygon fill="white" stroke="#666666" points="2241,-184 2129,-184 2129,-165 2241,-165 2241,-184"/>
<text text-anchor="middle" x="2185" y="-172" font-family="Helvetica,sans-Serif" font-size="10.00">src/core/SimTime.H</text>
</a>
</g>
</g>
<!-- Node1&#45;&gt;Node32 -->
<g id="edge63_Node000001_Node000032" class="edge">
<title>Node1&#45;&gt;Node32</title>
<g id="a_edge63_Node000001_Node000032"><a xlink:title=" ">
<path fill="none" stroke="#63b8ff" d="M910.12,-287.6C1125.07,-271.73 1664.66,-230.47 2115,-184 2116.27,-183.87 2117.55,-183.74 2118.84,-183.6"/>
<polygon fill="#63b8ff" stroke="#63b8ff" points="2119.3,-187.07 2128.86,-182.5 2118.53,-180.11 2119.3,-187.07"/>
</a>
</g>
</g>
<!-- Node3 -->
<g id="Node000003" class="node">
<title>Node3</title>
<g id="a_Node000003"><a xlink:href="_factory_8_h.html" target="_top" xlink:title=" ">
<polygon fill="white" stroke="#666666" points="352,-184 250,-184 250,-165 352,-165 352,-184"/>
<text text-anchor="middle" x="301" y="-172" font-family="Helvetica,sans-Serif" font-size="10.00">src/core/Factory.H</text>
</a>
</g>
</g>
<!-- Node2&#45;&gt;Node3 -->
<g id="edge2_Node000002_Node000003" class="edge">
<title>Node2&#45;&gt;Node3</title>
<g id="a_edge2_Node000002_Node000003"><a xlink:title=" ">
<path fill="none" stroke="#63b8ff" d="M403.4,-219.98C383.68,-211.42 353.05,-198.11 330.42,-188.28"/>
<polygon fill="#63b8ff" stroke="#63b8ff" points="331.52,-184.94 320.96,-184.17 328.74,-191.37 331.52,-184.94"/>
</a>
</g>
</g>
<!-- Node9 -->
<g id="Node000009" class="node">
<title>Node9</title>
<g id="a_Node000009"><a xlink:href="_coll_mgr_8_h.html" target="_top" xlink:title=" ">
<polygon fill="white" stroke="#666666" points="475.5,-184 370.5,-184 370.5,-165 475.5,-165 475.5,-184"/>
<text text-anchor="middle" x="423" y="-172" font-family="Helvetica,sans-Serif" font-size="10.00">src/core/CollMgr.H</text>
</a>
</g>
</g>
<!-- Node2&#45;&gt;Node9 -->
<g id="edge8_Node000002_Node000009" class="edge">
<title>Node2&#45;&gt;Node9</title>
<g id="a_edge8_Node000002_Node000009"><a xlink:title=" ">
<path fill="none" stroke="#63b8ff" d="M423,-219.75C423,-212.8 423,-202.85 423,-194.13"/>
<polygon fill="#63b8ff" stroke="#63b8ff" points="426.5,-194.09 423,-184.09 419.5,-194.09 426.5,-194.09"/>
</a>
</g>
</g>
<!-- Node12 -->
<g id="Node000012" class="node">
<title>Node12</title>
<g id="a_Node000012"><a xlink:title=" ">
<polygon fill="#e0e0e0" stroke="#999999" points="1084.5,-74 975.5,-74 975.5,-55 1084.5,-55 1084.5,-74"/>
<text text-anchor="middle" x="1030" y="-62" font-family="Helvetica,sans-Serif" font-size="10.00">AMReX_MultiFab.H</text>
</a>
</g>
</g>
<!-- Node2&#45;&gt;Node12 -->
<g id="edge13_Node000002_Node000012" class="edge">
<title>Node2&#45;&gt;Node12</title>
<g id="a_edge13_Node000002_Node000012"><a xlink:title=" ">
<path fill="none" stroke="#63b8ff" d="M434.63,-219.73C465.4,-197.05 552.25,-136.42 635,-110 772.8,-66.01 817.1,-90.58 964.85,-74.07"/>
<polygon fill="#63b8ff" stroke="#63b8ff" points="965.67,-77.5 975.2,-72.87 964.86,-70.54 965.67,-77.5"/>
</a>
</g>
</g>
<!-- Node2&#45;&gt;Node13 -->
<g id="edge14_Node000002_Node000013" class="edge">
<title>Node2&#45;&gt;Node13</title>
<g id="a_edge14_Node000002_Node000013"><a xlink:title=" ">
<path fill="none" stroke="#63b8ff" d="M382.99,-219.98C339.83,-210.8 271.02,-196.15 224.24,-186.19"/>
<polygon fill="#63b8ff" stroke="#63b8ff" points="224.83,-182.74 214.32,-184.08 223.37,-189.59 224.83,-182.74"/>
</a>
</g>
</g>
<!-- Node4 -->
<g id="Node000004" class="node">
<title>Node4</title>
<g id="a_Node000004"><a xlink:title=" ">
<polygon fill="#e0e0e0" stroke="#999999" points="362,-129 304,-129 304,-110 362,-110 362,-129"/>
<text text-anchor="middle" x="333" y="-117" font-family="Helvetica,sans-Serif" font-size="10.00">memory</text>
</a>
</g>
</g>
<!-- Node3&#45;&gt;Node4 -->
<g id="edge3_Node000003_Node000004" class="edge">
<title>Node3&#45;&gt;Node4</title>
<g id="a_edge3_Node000003_Node000004"><a xlink:title=" ">
<path fill="none" stroke="#63b8ff" d="M306.28,-164.75C310.71,-157.42 317.16,-146.73 322.62,-137.7"/>
<polygon fill="#63b8ff" stroke="#63b8ff" points="325.64,-139.46 327.81,-129.09 319.65,-135.84 325.64,-139.46"/>
</a>
</g>
</g>
<!-- Node5 -->
<g id="Node000005" class="node">
<title>Node5</title>
<g id="a_Node000005"><a xlink:title=" ">
<polygon fill="#e0e0e0" stroke="#999999" points="511.5,-129 418.5,-129 418.5,-110 511.5,-110 511.5,-129"/>
<text text-anchor="middle" x="465" y="-117" font-family="Helvetica,sans-Serif" font-size="10.00">unordered_map</text>
</a>
</g>
</g>
<!-- Node3&#45;&gt;Node5 -->
<g id="edge4_Node000003_Node000005" class="edge">
<title>Node3&#45;&gt;Node5</title>
<g id="a_edge4_Node000003_Node000005"><a xlink:title=" ">
<path fill="none" stroke="#63b8ff" d="M327.35,-164.98C354.76,-156.13 397.89,-142.19 428.56,-132.28"/>
<polygon fill="#63b8ff" stroke="#63b8ff" points="430,-135.49 438.44,-129.08 427.85,-128.83 430,-135.49"/>
</a>
</g>
</g>
<!-- Node6 -->
<g id="Node000006" class="node">
<title>Node6</title>
<g id="a_Node000006"><a xlink:title=" ">
<polygon fill="#e0e0e0" stroke="#999999" points="248,-129 188,-129 188,-110 248,-110 248,-129"/>
<text text-anchor="middle" x="218" y="-117" font-family="Helvetica,sans-Serif" font-size="10.00">iostream</text>
</a>
</g>
</g>
<!-- Node3&#45;&gt;Node6 -->
<g id="edge5_Node000003_Node000006" class="edge">
<title>Node3&#45;&gt;Node6</title>
<g id="a_edge5_Node000003_Node000006"><a xlink:title=" ">
<path fill="none" stroke="#63b8ff" d="M287.66,-164.98C274.91,-156.84 255.45,-144.41 240.33,-134.76"/>
<polygon fill="#63b8ff" stroke="#63b8ff" points="241.89,-131.6 231.58,-129.17 238.12,-137.5 241.89,-131.6"/>
</a>
</g>
</g>
<!-- Node7 -->
<g id="Node000007" class="node">
<title>Node7</title>
<g id="a_Node000007"><a xlink:title=" ">
<polygon fill="#e0e0e0" stroke="#999999" points="90,-129 0,-129 0,-110 90,-110 90,-129"/>
<text text-anchor="middle" x="45" y="-117" font-family="Helvetica,sans-Serif" font-size="10.00">AMReX_Print.H</text>
</a>
</g>
</g>
<!-- Node3&#45;&gt;Node7 -->
<g id="edge6_Node000003_Node000007" class="edge">
<title>Node3&#45;&gt;Node7</title>
<g id="a_edge6_Node000003_Node000007"><a xlink:title=" ">
<path fill="none" stroke="#63b8ff" d="M259.87,-164.98C215.4,-155.78 144.45,-141.09 96.35,-131.13"/>
<polygon fill="#63b8ff" stroke="#63b8ff" points="96.96,-127.68 86.45,-129.08 95.54,-134.54 96.96,-127.68"/>
</a>
</g>
</g>
<!-- Node8 -->
<g id="Node000008" class="node">
<title>Node8</title>
<g id="a_Node000008"><a xlink:title=" ">
<polygon fill="#e0e0e0" stroke="#999999" points="170,-129 108,-129 108,-110 170,-110 170,-129"/>
<text text-anchor="middle" x="139" y="-117" font-family="Helvetica,sans-Serif" font-size="10.00">AMReX.H</text>
</a>
</g>
</g>
<!-- Node3&#45;&gt;Node8 -->
<g id="edge7_Node000003_Node000008" class="edge">
<title>Node3&#45;&gt;Node8</title>
<g id="a_edge7_Node000003_Node000008"><a xlink:title=" ">
<path fill="none" stroke="#63b8ff" d="M274.97,-164.98C247.89,-156.13 205.29,-142.19 174.99,-132.28"/>
<polygon fill="#63b8ff" stroke="#63b8ff" points="175.82,-128.87 165.23,-129.08 173.65,-135.52 175.82,-128.87"/>
</a>
</g>
</g>
<!-- Node9&#45;&gt;Node4 -->
<g id="edge10_Node000009_Node000004" class="edge">
<title>Node9&#45;&gt;Node4</title>
<g id="a_edge10_Node000009_Node000004"><a xlink:title=" ">
<path fill="none" stroke="#63b8ff" d="M408.54,-164.98C394.58,-156.77 373.21,-144.18 356.75,-134.49"/>
<polygon fill="#63b8ff" stroke="#63b8ff" points="358.12,-131.23 347.72,-129.17 354.56,-137.26 358.12,-131.23"/>
</a>
</g>
</g>
<!-- Node9&#45;&gt;Node5 -->
<g id="edge11_Node000009_Node000005" class="edge">
<title>Node9&#45;&gt;Node5</title>
<g id="a_edge11_Node000009_Node000005"><a xlink:title=" ">
<path fill="none" stroke="#63b8ff" d="M429.94,-164.75C435.87,-157.26 444.57,-146.28 451.82,-137.13"/>
<polygon fill="#63b8ff" stroke="#63b8ff" points="454.73,-139.1 458.19,-129.09 449.24,-134.75 454.73,-139.1"/>
</a>
</g>
</g>
<!-- Node10 -->
<g id="Node000010" class="node">
<title>Node10</title>
<g id="a_Node000010"><a xlink:title=" ">
<polygon fill="#e0e0e0" stroke="#999999" points="957,-74 913,-74 913,-55 957,-55 957,-74"/>
<text text-anchor="middle" x="935" y="-62" font-family="Helvetica,sans-Serif" font-size="10.00">string</text>
</a>
</g>
</g>
<!-- Node9&#45;&gt;Node10 -->
<g id="edge9_Node000009_Node000010" class="edge">
<title>Node9&#45;&gt;Node10</title>
<g id="a_edge9_Node000009_Node000010"><a xlink:title=" ">
<path fill="none" stroke="#63b8ff" d="M370.21,-165.48C323.99,-156.35 268.09,-138.84 295,-110 305.48,-98.76 773.95,-73.81 902.61,-67.16"/>
<polygon fill="#63b8ff" stroke="#63b8ff" points="902.83,-70.65 912.64,-66.64 902.47,-63.66 902.83,-70.65"/>
</a>
</g>
</g>
<!-- Node11 -->
<g id="Node000011" class="node">
<title>Node11</title>
<g id="a_Node000011"><a xlink:title=" ">
<polygon fill="#e0e0e0" stroke="#999999" points="1289,-74 1191,-74 1191,-55 1289,-55 1289,-74"/>
<text text-anchor="middle" x="1240" y="-62" font-family="Helvetica,sans-Serif" font-size="10.00">AMReX_Vector.H</text>
</a>
</g>
</g>
<!-- Node9&#45;&gt;Node11 -->
<g id="edge12_Node000009_Node000011" class="edge">
<title>Node9&#45;&gt;Node11</title>
<g id="a_edge12_Node000009_Node000011"><a xlink:title=" ">
<path fill="none" stroke="#63b8ff" d="M416.91,-164.83C408.19,-151.28 394.7,-125.07 409,-110 435.19,-82.39 1055.01,-76.1 1093,-74 1121.86,-72.41 1153.9,-70.56 1180.68,-69"/>
<polygon fill="#63b8ff" stroke="#63b8ff" points="1180.89,-72.49 1190.67,-68.42 1180.48,-65.51 1180.89,-72.49"/>
</a>
</g>
</g>
<!-- Node14&#45;&gt;Node5 -->
<g id="edge17_Node000014_Node000005" class="edge">
<title>Node14&#45;&gt;Node5</title>
<g id="a_edge17_Node000014_Node000005"><a xlink:title=" ">
<path fill="none" stroke="#63b8ff" d="M1319.92,-227.35C1167.96,-223.97 761.35,-212.46 630,-184 579.16,-172.98 523.33,-148.73 491.39,-133.58"/>
<polygon fill="#63b8ff" stroke="#63b8ff" points="492.8,-130.38 482.27,-129.2 489.77,-136.69 492.8,-130.38"/>
</a>
</g>
</g>
<!-- Node14&#45;&gt;Node10 -->
<g id="edge16_Node000014_Node000010" class="edge">
<title>Node14&#45;&gt;Node10</title>
<g id="a_edge16_Node000014_Node000010"><a xlink:title=" ">
<path fill="none" stroke="#63b8ff" d="M1319.59,-229.22C1212.94,-229.4 980.09,-224.57 789,-184 717.91,-168.91 676.87,-188.41 635,-129 630.14,-122.1 629.48,-116.39 635,-110 652.33,-89.91 828.39,-73.87 902.45,-67.95"/>
<polygon fill="#63b8ff" stroke="#63b8ff" points="902.91,-71.43 912.61,-67.16 902.36,-64.45 902.91,-71.43"/>
</a>
</g>
</g>
<!-- Node14&#45;&gt;Node12 -->
<g id="edge61_Node000014_Node000012" class="edge">
<title>Node14&#45;&gt;Node12</title>
<g id="a_edge61_Node000014_Node000012"><a xlink:title=" ">
<path fill="none" stroke="#63b8ff" d="M1319.81,-220.18C1231.01,-206.15 1068.31,-174.77 1034,-129 1024.58,-116.43 1024.39,-98.24 1026.08,-84.54"/>
<polygon fill="#63b8ff" stroke="#63b8ff" points="1029.59,-84.76 1027.79,-74.32 1022.69,-83.61 1029.59,-84.76"/>
</a>
</g>
</g>
<!-- Node15 -->
<g id="Node000015" class="node">
<title>Node15</title>
<g id="a_Node000015"><a xlink:href="_field_desc_types_8_h.html" target="_top" xlink:title=" ">
<polygon fill="white" stroke="#666666" points="1604.5,-74 1461.5,-74 1461.5,-55 1604.5,-55 1604.5,-74"/>
<text text-anchor="middle" x="1533" y="-62" font-family="Helvetica,sans-Serif" font-size="10.00">src/core/FieldDescTypes.H</text>
</a>
</g>
</g>
<!-- Node14&#45;&gt;Node15 -->
<g id="edge18_Node000014_Node000015" class="edge">
<title>Node14&#45;&gt;Node15</title>
<g id="a_edge18_Node000014_Node000015"><a xlink:title=" ">
<path fill="none" stroke="#63b8ff" d="M1436.24,-224.92C1583.16,-215.81 1959.01,-191.88 1985,-184 2032.43,-169.62 2057.05,-171.82 2082,-129 2086.25,-121.7 2087.72,-116.21 2082,-110 2051.02,-76.41 1760.18,-68.17 1614.85,-66.15"/>
<polygon fill="#63b8ff" stroke="#63b8ff" points="1614.69,-62.65 1604.64,-66.02 1614.6,-69.65 1614.69,-62.65"/>
</a>
</g>
</g>
<!-- Node17 -->
<g id="Node000017" class="node">
<title>Node17</title>
<g id="a_Node000017"><a xlink:href="_field_utils_8_h.html" target="_top" xlink:title=" ">
<polygon fill="white" stroke="#666666" points="2073,-129 1959,-129 1959,-110 2073,-110 2073,-129"/>
<text text-anchor="middle" x="2016" y="-117" font-family="Helvetica,sans-Serif" font-size="10.00">src/core/FieldUtils.H</text>
</a>
</g>
</g>
<!-- Node14&#45;&gt;Node17 -->
<g id="edge20_Node000014_Node000017" class="edge">
<title>Node14&#45;&gt;Node17</title>
<g id="a_edge20_Node000014_Node000017"><a xlink:title=" ">
<path fill="none" stroke="#63b8ff" d="M1436.08,-226.54C1574.14,-221.51 1913.91,-206.96 1960,-184 1980.07,-174 1996.11,-153.36 2005.79,-138.32"/>
<polygon fill="#63b8ff" stroke="#63b8ff" points="2009.01,-139.77 2011.22,-129.41 2003.03,-136.13 2009.01,-139.77"/>
</a>
</g>
</g>
<!-- Node19 -->
<g id="Node000019" class="node">
<title>Node19</title>
<g id="a_Node000019"><a xlink:href="_field_8_h.html" target="_top" xlink:title=" ">
<polygon fill="white" stroke="#666666" points="890,-184 798,-184 798,-165 890,-165 890,-184"/>
<text text-anchor="middle" x="844" y="-172" font-family="Helvetica,sans-Serif" font-size="10.00">src/core/Field.H</text>
</a>
</g>
</g>
<!-- Node14&#45;&gt;Node19 -->
<g id="edge24_Node000014_Node000019" class="edge">
<title>Node14&#45;&gt;Node19</title>
<g id="a_edge24_Node000014_Node000019"><a xlink:title=" ">
<path fill="none" stroke="#63b8ff" d="M1319.84,-222.73C1216.48,-212.47 1002.11,-191.19 900.19,-181.08"/>
<polygon fill="#63b8ff" stroke="#63b8ff" points="900.39,-177.58 890.09,-180.07 899.7,-184.55 900.39,-177.58"/>
</a>
</g>
</g>
<!-- Node25 -->
<g id="Node000025" class="node">
<title>Node25</title>
<g id="a_Node000025"><a xlink:href="_int_field_8_h.html" target="_top" xlink:title=" ">
<polygon fill="white" stroke="#666666" points="1823,-184 1719,-184 1719,-165 1823,-165 1823,-184"/>
<text text-anchor="middle" x="1771" y="-172" font-family="Helvetica,sans-Serif" font-size="10.00">src/core/IntField.H</text>
</a>
</g>
</g>
<!-- Node14&#45;&gt;Node25 -->
<g id="edge40_Node000014_Node000025" class="edge">
<title>Node14&#45;&gt;Node25</title>
<g id="a_edge40_Node000014_Node000025"><a xlink:title=" ">
<path fill="none" stroke="#63b8ff" d="M1436.41,-220.62C1509.42,-210.78 1633.85,-194 1708.65,-183.91"/>
<polygon fill="#63b8ff" stroke="#63b8ff" points="1709.43,-187.34 1718.87,-182.53 1708.49,-180.4 1709.43,-187.34"/>
</a>
</g>
</g>
<!-- Node26 -->
<g id="Node000026" class="node">
<title>Node26</title>
<g id="a_Node000026"><a xlink:title=" ">
<polygon fill="#e0e0e0" stroke="#999999" points="1827,-129 1715,-129 1715,-110 1827,-110 1827,-129"/>
<text text-anchor="middle" x="1771" y="-117" font-family="Helvetica,sans-Serif" font-size="10.00">AMReX_iMultiFab.H</text>
</a>
</g>
</g>
<!-- Node14&#45;&gt;Node26 -->
<g id="edge62_Node000014_Node000026" class="edge">
<title>Node14&#45;&gt;Node26</title>
<g id="a_edge62_Node000014_Node000026"><a xlink:title=" ">
<path fill="none" stroke="#63b8ff" d="M1424.13,-219.93C1465.71,-211.86 1528.36,-198.81 1582,-184 1637.66,-168.63 1701.03,-146.33 1738.43,-132.65"/>
<polygon fill="#63b8ff" stroke="#63b8ff" points="1740.09,-135.77 1748.27,-129.04 1737.67,-129.2 1740.09,-135.77"/>
</a>
</g>
</g>
<!-- Node27 -->
<g id="Node000027" class="node">
<title>Node27</title>
<g id="a_Node000027"><a xlink:href="_scratch_field_8_h.html" target="_top" xlink:title=" ">
<polygon fill="white" stroke="#666666" points="1323,-184 1195,-184 1195,-165 1323,-165 1323,-184"/>
<text text-anchor="middle" x="1259" y="-172" font-family="Helvetica,sans-Serif" font-size="10.00">src/core/ScratchField.H</text>
</a>
</g>
</g>
<!-- Node14&#45;&gt;Node27 -->
<g id="edge44_Node000014_Node000027" class="edge">
<title>Node14&#45;&gt;Node27</title>
<g id="a_edge44_Node000014_Node000027"><a xlink:title=" ">
<path fill="none" stroke="#63b8ff" d="M1358.88,-219.98C1339.65,-211.42 1309.77,-198.11 1287.69,-188.28"/>
<polygon fill="#63b8ff" stroke="#63b8ff" points="1289.03,-185.04 1278.47,-184.17 1286.18,-191.44 1289.03,-185.04"/>
</a>
</g>
</g>
<!-- Node30 -->
<g id="Node000030" class="node">
<title>Node30</title>
<g id="a_Node000030"><a xlink:href="_int_scratch_field_8_h.html" target="_top" xlink:title=" ">
<polygon fill="white" stroke="#666666" points="1573,-184 1433,-184 1433,-165 1573,-165 1573,-184"/>
<text text-anchor="middle" x="1503" y="-172" font-family="Helvetica,sans-Serif" font-size="10.00">src/core/IntScratchField.H</text>
</a>
</g>
</g>
<!-- Node14&#45;&gt;Node30 -->
<g id="edge52_Node000014_Node000030" class="edge">
<title>Node14&#45;&gt;Node30</title>
<g id="a_edge52_Node000014_Node000030"><a xlink:title=" ">
<path fill="none" stroke="#63b8ff" d="M1398.08,-219.98C1418.37,-211.38 1449.96,-197.99 1473.17,-188.15"/>
<polygon fill="#63b8ff" stroke="#63b8ff" points="1474.71,-191.3 1482.55,-184.17 1471.98,-184.85 1474.71,-191.3"/>
</a>
</g>
</g>
<!-- Node31 -->
<g id="Node000031" class="node">
<title>Node31</title>
<g id="a_Node000031"><a xlink:title=" ">
<polygon fill="#e0e0e0" stroke="#999999" points="1951,-184 1841,-184 1841,-165 1951,-165 1951,-184"/>
<text text-anchor="middle" x="1896" y="-172" font-family="Helvetica,sans-Serif" font-size="10.00">AMReX_AmrCore.H</text>
</a>
</g>
</g>
<!-- Node14&#45;&gt;Node31 -->
<g id="edge60_Node000014_Node000031" class="edge">
<title>Node14&#45;&gt;Node31</title>
<g id="a_edge60_Node000014_Node000031"><a xlink:title=" ">
<path fill="none" stroke="#63b8ff" d="M1436.12,-223.45C1520.6,-215.96 1682.51,-201.07 1830.67,-184.12"/>
<polygon fill="#63b8ff" stroke="#63b8ff" points="1831.32,-187.57 1840.86,-182.95 1830.52,-180.61 1831.32,-187.57"/>
</a>
</g>
</g>
<!-- Node16 -->
<g id="Node000016" class="node">
<title>Node16</title>
<g id="a_Node000016"><a xlink:title=" ">
<polygon fill="#e0e0e0" stroke="#999999" points="1138,-19 1088,-19 1088,0 1138,0 1138,-19"/>
<text text-anchor="middle" x="1113" y="-7" font-family="Helvetica,sans-Serif" font-size="10.00">cstdint</text>
</a>
</g>
</g>
<!-- Node15&#45;&gt;Node16 -->
<g id="edge19_Node000015_Node000016" class="edge">
<title>Node15&#45;&gt;Node16</title>
<g id="a_edge19_Node000015_Node000016"><a xlink:title=" ">
<path fill="none" stroke="#63b8ff" d="M1465.52,-54.98C1375.09,-43.57 1217.9,-23.74 1148.11,-14.93"/>
<polygon fill="#63b8ff" stroke="#63b8ff" points="1148.44,-11.44 1138.08,-13.66 1147.56,-18.39 1148.44,-11.44"/>
</a>
</g>
</g>
<!-- Node17&#45;&gt;Node12 -->
<g id="edge22_Node000017_Node000012" class="edge">
<title>Node17&#45;&gt;Node12</title>
<g id="a_edge22_Node000017_Node000012"><a xlink:title=" ">
<path fill="none" stroke="#63b8ff" d="M1958.76,-115.12C1931.57,-113.53 1898.61,-111.63 1869,-110 1563.71,-93.17 1487.3,-90.54 1182,-74 1153.33,-72.45 1121.63,-70.68 1094.62,-69.16"/>
<polygon fill="#63b8ff" stroke="#63b8ff" points="1094.7,-65.66 1084.52,-68.6 1094.31,-72.65 1094.7,-65.66"/>
</a>
</g>
</g>
<!-- Node17&#45;&gt;Node15 -->
<g id="edge21_Node000017_Node000015" class="edge">
<title>Node17&#45;&gt;Node15</title>
<g id="a_edge21_Node000017_Node000015"><a xlink:title=" ">
<path fill="none" stroke="#63b8ff" d="M1958.66,-111.58C1954.04,-111.04 1949.44,-110.51 1945,-110 1830.58,-96.97 1698.16,-82.84 1614.99,-74.07"/>
<polygon fill="#63b8ff" stroke="#63b8ff" points="1615.16,-70.57 1604.85,-73.01 1614.43,-77.53 1615.16,-70.57"/>
</a>
</g>
</g>
<!-- Node18 -->
<g id="Node000018" class="node">
<title>Node18</title>
<g id="a_Node000018"><a xlink:title=" ">
<polygon fill="#e0e0e0" stroke="#999999" points="2078,-74 1954,-74 1954,-55 2078,-55 2078,-74"/>
<text text-anchor="middle" x="2016" y="-62" font-family="Helvetica,sans-Serif" font-size="10.00">AMReX_Interpolater.H</text>
</a>
</g>
</g>
<!-- Node17&#45;&gt;Node18 -->
<g id="edge23_Node000017_Node000018" class="edge">
<title>Node17&#45;&gt;Node18</title>
<g id="a_edge23_Node000017_Node000018"><a xlink:title=" ">
<path fill="none" stroke="#63b8ff" d="M2016,-109.75C2016,-102.8 2016,-92.85 2016,-84.13"/>
<polygon fill="#63b8ff" stroke="#63b8ff" points="2019.5,-84.09 2016,-74.09 2012.5,-84.09 2019.5,-84.09"/>
</a>
</g>
</g>
<!-- Node19&#45;&gt;Node4 -->
<g id="edge26_Node000019_Node000004" class="edge">
<title>Node19&#45;&gt;Node4</title>
<g id="a_edge26_Node000019_Node000004"><a xlink:title=" ">
<path fill="none" stroke="#63b8ff" d="M797.95,-168.93C718.54,-161.03 550.72,-144.17 409,-129 397.05,-127.72 384.06,-126.28 372.24,-124.96"/>
<polygon fill="#63b8ff" stroke="#63b8ff" points="372.55,-121.47 362.23,-123.83 371.77,-128.43 372.55,-121.47"/>
</a>
</g>
</g>
<!-- Node19&#45;&gt;Node5 -->
<g id="edge27_Node000019_Node000005" class="edge">
<title>Node19&#45;&gt;Node5</title>
<g id="a_edge27_Node000019_Node000005"><a xlink:title=" ">
<path fill="none" stroke="#63b8ff" d="M797.91,-167.05C728.48,-157.34 597.2,-138.99 521.9,-128.46"/>
<polygon fill="#63b8ff" stroke="#63b8ff" points="522.05,-124.94 511.66,-127.03 521.08,-131.88 522.05,-124.94"/>
</a>
</g>
</g>
<!-- Node19&#45;&gt;Node10 -->
<g id="edge25_Node000019_Node000010" class="edge">
<title>Node19&#45;&gt;Node10</title>
<g id="a_edge25_Node000019_Node000010"><a xlink:title=" ">
<path fill="none" stroke="#63b8ff" d="M827.66,-164.93C807.02,-152.98 775.91,-130.45 791,-110 816.51,-75.42 868.55,-66.89 902.58,-65.22"/>
<polygon fill="#63b8ff" stroke="#63b8ff" points="903.06,-68.71 912.95,-64.9 902.84,-61.71 903.06,-68.71"/>
</a>
</g>
</g>
<!-- Node19&#45;&gt;Node12 -->
<g id="edge29_Node000019_Node000012" class="edge">
<title>Node19&#45;&gt;Node12</title>
<g id="a_edge29_Node000019_Node000012"><a xlink:title=" ">
<path fill="none" stroke="#63b8ff" d="M858.91,-164.84C891.09,-146.16 967.32,-101.9 1006.24,-79.3"/>
<polygon fill="#63b8ff" stroke="#63b8ff" points="1008.39,-82.1 1015.28,-74.05 1004.88,-76.04 1008.39,-82.1"/>
</a>
</g>
</g>
<!-- Node19&#45;&gt;Node15 -->
<g id="edge34_Node000019_Node000015" class="edge">
<title>Node19&#45;&gt;Node15</title>
<g id="a_edge34_Node000019_Node000015"><a xlink:title=" ">
<path fill="none" stroke="#63b8ff" d="M890.21,-168.49C955.61,-161.15 1078.79,-146.46 1183,-129 1224.61,-122.03 1234.54,-117.82 1276,-110 1342.33,-97.49 1418.55,-84.46 1470.65,-75.76"/>
<polygon fill="#63b8ff" stroke="#63b8ff" points="1471.45,-79.17 1480.74,-74.08 1470.3,-72.27 1471.45,-79.17"/>
</a>
</g>
</g>
<!-- Node20 -->
<g id="Node000020" class="node">
<title>Node20</title>
<g id="a_Node000020"><a xlink:title=" ">
<polygon fill="#e0e0e0" stroke="#999999" points="1659,-129 1595,-129 1595,-110 1659,-110 1659,-129"/>
<text text-anchor="middle" x="1627" y="-117" font-family="Helvetica,sans-Serif" font-size="10.00">algorithm</text>
</a>
</g>
</g>
<!-- Node19&#45;&gt;Node20 -->
<g id="edge28_Node000019_Node000020" class="edge">
<title>Node19&#45;&gt;Node20</title>
<g id="a_edge28_Node000019_Node000020"><a xlink:title=" ">
<path fill="none" stroke="#63b8ff" d="M890.03,-170.52C998.2,-163.49 1277.06,-145.24 1510,-129 1534.73,-127.28 1562.39,-125.27 1584.61,-123.64"/>
<polygon fill="#63b8ff" stroke="#63b8ff" points="1585.01,-127.12 1594.72,-122.9 1584.49,-120.14 1585.01,-127.12"/>
</a>
</g>
</g>
<!-- Node21 -->
<g id="Node000021" class="node">
<title>Node21</title>
<g id="a_Node000021"><a xlink:title=" ">
<polygon fill="#e0e0e0" stroke="#999999" points="743.5,-129 644.5,-129 644.5,-110 743.5,-110 743.5,-129"/>
<text text-anchor="middle" x="694" y="-117" font-family="Helvetica,sans-Serif" font-size="10.00">AMReX_BCRec.H</text>
</a>
</g>
</g>
<!-- Node19&#45;&gt;Node21 -->
<g id="edge30_Node000019_Node000021" class="edge">
<title>Node19&#45;&gt;Node21</title>
<g id="a_edge30_Node000019_Node000021"><a xlink:title=" ">
<path fill="none" stroke="#63b8ff" d="M819.9,-164.98C795.12,-156.23 756.3,-142.51 728.31,-132.62"/>
<polygon fill="#63b8ff" stroke="#63b8ff" points="729.13,-129.2 718.54,-129.17 726.8,-135.8 729.13,-129.2"/>
</a>
</g>
</g>
<!-- Node22 -->
<g id="Node000022" class="node">
<title>Node22</title>
<g id="a_Node000022"><a xlink:title=" ">
<polygon fill="#e0e0e0" stroke="#999999" points="887.5,-129 800.5,-129 800.5,-110 887.5,-110 887.5,-129"/>
<text text-anchor="middle" x="844" y="-117" font-family="Helvetica,sans-Serif" font-size="10.00">AMReX_Gpu.H</text>
</a>
</g>
</g>
<!-- Node19&#45;&gt;Node22 -->
<g id="edge31_Node000019_Node000022" class="edge">
<title>Node19&#45;&gt;Node22</title>
<g id="a_edge31_Node000019_Node000022"><a xlink:title=" ">
<path fill="none" stroke="#63b8ff" d="M844,-164.75C844,-157.8 844,-147.85 844,-139.13"/>
<polygon fill="#63b8ff" stroke="#63b8ff" points="847.5,-139.09 844,-129.09 840.5,-139.09 847.5,-139.09"/>
</a>
</g>
</g>
<!-- Node23 -->
<g id="Node000023" class="node">
<title>Node23</title>
<g id="a_Node000023"><a xlink:href="incflo__enums_8_h.html" target="_top" xlink:title=" ">
<polygon fill="white" stroke="#666666" points="744.5,-74 635.5,-74 635.5,-55 744.5,-55 744.5,-74"/>
<text text-anchor="middle" x="690" y="-62" font-family="Helvetica,sans-Serif" font-size="10.00">src/incflo_enums.H</text>
</a>
</g>
</g>
<!-- Node19&#45;&gt;Node23 -->
<g id="edge32_Node000019_Node000023" class="edge">
<title>Node19&#45;&gt;Node23</title>
<g id="a_edge32_Node000019_Node000023"><a xlink:title=" ">
<path fill="none" stroke="#63b8ff" d="M797.74,-170.28C742.52,-165.36 655.07,-153.8 635,-129 620.85,-111.52 643.7,-92.06 664.11,-79.35"/>
<polygon fill="#63b8ff" stroke="#63b8ff" points="666.04,-82.27 672.88,-74.18 662.49,-76.24 666.04,-82.27"/>
</a>
</g>
</g>
<!-- Node24 -->
<g id="Node000024" class="node">
<title>Node24</title>
<g id="a_Node000024"><a xlink:href="_view_field_8_h.html" target="_top" xlink:title=" ">
<polygon fill="white" stroke="#666666" points="1174,-129 1058,-129 1058,-110 1174,-110 1174,-129"/>
<text text-anchor="middle" x="1116" y="-117" font-family="Helvetica,sans-Serif" font-size="10.00">src/core/ViewField.H</text>
</a>
</g>
</g>
<!-- Node19&#45;&gt;Node24 -->
<g id="edge35_Node000019_Node000024" class="edge">
<title>Node19&#45;&gt;Node24</title>
<g id="a_edge35_Node000019_Node000024"><a xlink:title=" ">
<path fill="none" stroke="#63b8ff" d="M887.7,-164.98C935.15,-155.74 1010.97,-140.97 1062.08,-131.01"/>
<polygon fill="#63b8ff" stroke="#63b8ff" points="1062.81,-134.43 1071.96,-129.08 1061.47,-127.56 1062.81,-134.43"/>
</a>
</g>
</g>
<!-- Node23&#45;&gt;Node16 -->
<g id="edge33_Node000023_Node000016" class="edge">
<title>Node23&#45;&gt;Node16</title>
<g id="a_edge33_Node000023_Node000016"><a xlink:title=" ">
<path fill="none" stroke="#63b8ff" d="M744.87,-56.63C833.07,-45.57 1003.98,-24.16 1077.72,-14.92"/>
<polygon fill="#63b8ff" stroke="#63b8ff" points="1078.39,-18.36 1087.87,-13.65 1077.52,-11.42 1078.39,-18.36"/>
</a>
</g>
</g>
<!-- Node24&#45;&gt;Node10 -->
<g id="edge36_Node000024_Node000010" class="edge">
<title>Node24&#45;&gt;Node10</title>
<g id="a_edge36_Node000024_Node000010"><a xlink:title=" ">
<path fill="none" stroke="#63b8ff" d="M1086.92,-109.98C1054.14,-100.39 1000.99,-84.82 967.04,-74.88"/>
<polygon fill="#63b8ff" stroke="#63b8ff" points="967.74,-71.44 957.16,-71.99 965.78,-78.16 967.74,-71.44"/>
</a>
</g>
</g>
<!-- Node24&#45;&gt;Node11 -->
<g id="edge39_Node000024_Node000011" class="edge">
<title>Node24&#45;&gt;Node11</title>
<g id="a_edge39_Node000024_Node000011"><a xlink:title=" ">
<path fill="none" stroke="#63b8ff" d="M1135.92,-109.98C1156.05,-101.38 1187.38,-87.99 1210.41,-78.15"/>
<polygon fill="#63b8ff" stroke="#63b8ff" points="1211.9,-81.32 1219.71,-74.17 1209.14,-74.88 1211.9,-81.32"/>
</a>
</g>
</g>
<!-- Node24&#45;&gt;Node12 -->
<g id="edge38_Node000024_Node000012" class="edge">
<title>Node24&#45;&gt;Node12</title>
<g id="a_edge38_Node000024_Node000012"><a xlink:title=" ">
<path fill="none" stroke="#63b8ff" d="M1102.18,-109.98C1088.85,-101.77 1068.42,-89.18 1052.69,-79.49"/>
<polygon fill="#63b8ff" stroke="#63b8ff" points="1054.42,-76.44 1044.07,-74.17 1050.75,-82.4 1054.42,-76.44"/>
</a>
</g>
</g>
<!-- Node24&#45;&gt;Node15 -->
<g id="edge37_Node000024_Node000015" class="edge">
<title>Node24&#45;&gt;Node15</title>
<g id="a_edge37_Node000024_Node000015"><a xlink:title=" ">
<path fill="none" stroke="#63b8ff" d="M1174.42,-111.07C1247.94,-101.73 1374.4,-85.66 1455.82,-75.31"/>
<polygon fill="#63b8ff" stroke="#63b8ff" points="1456.53,-78.75 1466.01,-74.01 1455.65,-71.8 1456.53,-78.75"/>
</a>
</g>
</g>
<!-- Node25&#45;&gt;Node10 -->
<g id="edge41_Node000025_Node000010" class="edge">
<title>Node25&#45;&gt;Node10</title>
<g id="a_edge41_Node000025_Node000010"><a xlink:title=" ">
<path fill="none" stroke="#63b8ff" d="M1791.27,-164.85C1816.86,-152.79 1855.33,-130.15 1836,-110 1803.85,-76.49 1075.75,-81 967.44,-73.27"/>
<polygon fill="#63b8ff" stroke="#63b8ff" points="967.52,-69.76 957.22,-72.24 966.82,-76.73 967.52,-69.76"/>
</a>
</g>
</g>
<!-- Node25&#45;&gt;Node15 -->
<g id="edge42_Node000025_Node000015" class="edge">
<title>Node25&#45;&gt;Node15</title>
<g id="a_edge42_Node000025_Node000015"><a xlink:title=" ">
<path fill="none" stroke="#63b8ff" d="M1806.72,-164.95C1843.1,-154.61 1891.25,-135.39 1869,-110 1852.47,-91.13 1708.86,-77.65 1614.81,-70.76"/>
<polygon fill="#63b8ff" stroke="#63b8ff" points="1614.96,-67.26 1604.74,-70.03 1614.46,-74.24 1614.96,-67.26"/>
</a>
</g>
</g>
<!-- Node25&#45;&gt;Node26 -->
<g id="edge43_Node000025_Node000026" class="edge">
<title>Node25&#45;&gt;Node26</title>
<g id="a_edge43_Node000025_Node000026"><a xlink:title=" ">
<path fill="none" stroke="#63b8ff" d="M1771,-164.75C1771,-157.8 1771,-147.85 1771,-139.13"/>
<polygon fill="#63b8ff" stroke="#63b8ff" points="1774.5,-139.09 1771,-129.09 1767.5,-139.09 1774.5,-139.09"/>
</a>
</g>
</g>
<!-- Node27&#45;&gt;Node10 -->
<g id="edge45_Node000027_Node000010" class="edge">
<title>Node27&#45;&gt;Node10</title>
<g id="a_edge45_Node000027_Node000010"><a xlink:title=" ">
<path fill="none" stroke="#63b8ff" d="M1194.62,-167.26C1148.6,-161.26 1085.9,-149.9 1034,-129 1003.75,-116.82 972.71,-95.12 953.64,-80.52"/>
<polygon fill="#63b8ff" stroke="#63b8ff" points="955.57,-77.59 945.53,-74.19 951.26,-83.1 955.57,-77.59"/>
</a>
</g>
</g>
<!-- Node27&#45;&gt;Node11 -->
<g id="edge50_Node000027_Node000011" class="edge">
<title>Node27&#45;&gt;Node11</title>
<g id="a_edge50_Node000027_Node000011"><a xlink:title=" ">
<path fill="none" stroke="#63b8ff" d="M1257.45,-164.66C1254.37,-147.17 1247.44,-107.8 1243.3,-84.27"/>
<polygon fill="#63b8ff" stroke="#63b8ff" points="1246.7,-83.4 1241.52,-74.16 1239.81,-84.61 1246.7,-83.4"/>
</a>
</g>
</g>
<!-- Node27&#45;&gt;Node12 -->
<g id="edge49_Node000027_Node000012" class="edge">
<title>Node27&#45;&gt;Node12</title>
<g id="a_edge49_Node000027_Node000012"><a xlink:title=" ">
<path fill="none" stroke="#63b8ff" d="M1194.82,-167.1C1141.12,-160.48 1070,-148.35 1049,-129 1036.71,-117.68 1032.25,-98.78 1030.69,-84.53"/>
<polygon fill="#63b8ff" stroke="#63b8ff" points="1034.17,-84.07 1029.97,-74.34 1027.18,-84.56 1034.17,-84.07"/>
</a>
</g>
</g>
<!-- Node27&#45;&gt;Node15 -->
<g id="edge47_Node000027_Node000015" class="edge">
<title>Node27&#45;&gt;Node15</title>
<g id="a_edge47_Node000027_Node000015"><a xlink:title=" ">
<path fill="none" stroke="#63b8ff" d="M1261.57,-164.92C1266.22,-151 1277.4,-123.67 1297,-110 1321.6,-92.84 1393.08,-80.92 1450.98,-73.76"/>
<polygon fill="#63b8ff" stroke="#63b8ff" points="1451.74,-77.19 1461.25,-72.52 1450.91,-70.24 1451.74,-77.19"/>
</a>
</g>
</g>
<!-- Node27&#45;&gt;Node24 -->
<g id="edge48_Node000027_Node000024" class="edge">
<title>Node27&#45;&gt;Node24</title>
<g id="a_edge48_Node000027_Node000024"><a xlink:title=" ">
<path fill="none" stroke="#63b8ff" d="M1236.02,-164.98C1212.5,-156.27 1175.71,-142.63 1149.06,-132.75"/>
<polygon fill="#63b8ff" stroke="#63b8ff" points="1149.99,-129.36 1139.39,-129.17 1147.55,-135.93 1149.99,-129.36"/>
</a>
</g>
</g>
<!-- Node28 -->
<g id="Node000028" class="node">
<title>Node28</title>
<g id="a_Node000028"><a xlink:title=" ">
<polygon fill="#e0e0e0" stroke="#999999" points="1500.5,-129 1455.5,-129 1455.5,-110 1500.5,-110 1500.5,-129"/>
<text text-anchor="middle" x="1478" y="-117" font-family="Helvetica,sans-Serif" font-size="10.00">utility</text>
</a>
</g>
</g>
<!-- Node27&#45;&gt;Node28 -->
<g id="edge46_Node000027_Node000028" class="edge">
<title>Node27&#45;&gt;Node28</title>
<g id="a_edge46_Node000027_Node000028"><a xlink:title=" ">
<path fill="none" stroke="#63b8ff" d="M1296.91,-164.94C1332.86,-156.73 1388.65,-143.75 1445.47,-129.33"/>
<polygon fill="#63b8ff" stroke="#63b8ff" points="1446.51,-132.68 1455.34,-126.81 1444.78,-125.89 1446.51,-132.68"/>
</a>
</g>
</g>
<!-- Node29 -->
<g id="Node000029" class="node">
<title>Node29</title>
<g id="a_Node000029"><a xlink:title=" ">
<polygon fill="#e0e0e0" stroke="#999999" points="1437.5,-129 1306.5,-129 1306.5,-110 1437.5,-110 1437.5,-129"/>
<text text-anchor="middle" x="1372" y="-117" font-family="Helvetica,sans-Serif" font-size="10.00">AMReX_PhysBCFunct.H</text>
</a>
</g>
</g>
<!-- Node27&#45;&gt;Node29 -->
<g id="edge51_Node000027_Node000029" class="edge">
<title>Node27&#45;&gt;Node29</title>
<g id="a_edge51_Node000027_Node000029"><a xlink:title=" ">
<path fill="none" stroke="#63b8ff" d="M1277.16,-164.98C1295.25,-156.5 1323.28,-143.35 1344.19,-133.54"/>
<polygon fill="#63b8ff" stroke="#63b8ff" points="1345.95,-136.59 1353.51,-129.17 1342.97,-130.25 1345.95,-136.59"/>
</a>
</g>
</g>
<!-- Node30&#45;&gt;Node10 -->
<g id="edge53_Node000030_Node000010" class="edge">
<title>Node30&#45;&gt;Node10</title>
<g id="a_edge53_Node000030_Node000010"><a xlink:title=" ">
<path fill="none" stroke="#63b8ff" d="M1507.66,-164.79C1514.23,-151.18 1523.95,-124.9 1510,-110 1470.26,-67.54 1060.56,-82.7 967.21,-73.46"/>
<polygon fill="#63b8ff" stroke="#63b8ff" points="967.6,-69.98 957.23,-72.17 966.7,-76.92 967.6,-69.98"/>
</a>
</g>
</g>
<!-- Node30&#45;&gt;Node11 -->
<g id="edge58_Node000030_Node000011" class="edge">
<title>Node30&#45;&gt;Node11</title>
<g id="a_edge58_Node000030_Node000011"><a xlink:title=" ">
<path fill="none" stroke="#63b8ff" d="M1515.26,-164.94C1532.04,-152.2 1558.42,-127.85 1543,-110 1512.19,-74.33 1378.73,-66.73 1299.58,-65.42"/>
<polygon fill="#63b8ff" stroke="#63b8ff" points="1299.31,-61.91 1289.26,-65.28 1299.21,-68.91 1299.31,-61.91"/>
</a>
</g>
</g>
<!-- Node30&#45;&gt;Node15 -->
<g id="edge55_Node000030_Node000015" class="edge">
<title>Node30&#45;&gt;Node15</title>
<g id="a_edge55_Node000030_Node000015"><a xlink:title=" ">
<path fill="none" stroke="#63b8ff" d="M1563.52,-164.99C1605.13,-157.75 1655.1,-145.84 1668,-129 1689.22,-101.3 1650.73,-85.17 1609.49,-76.1"/>
<polygon fill="#63b8ff" stroke="#63b8ff" points="1610.05,-72.65 1599.55,-74.06 1608.64,-79.5 1610.05,-72.65"/>
</a>
</g>
</g>
<!-- Node30&#45;&gt;Node24 -->
<g id="edge56_Node000030_Node000024" class="edge">
<title>Node30&#45;&gt;Node24</title>
<g id="a_edge56_Node000030_Node000024"><a xlink:title=" ">
<path fill="none" stroke="#63b8ff" d="M1440.82,-164.98C1370.62,-155.37 1256.76,-139.78 1184.18,-129.84"/>
<polygon fill="#63b8ff" stroke="#63b8ff" points="1184.61,-126.36 1174.23,-128.47 1183.66,-133.3 1184.61,-126.36"/>
</a>
</g>
</g>
<!-- Node30&#45;&gt;Node26 -->
<g id="edge57_Node000030_Node000026" class="edge">
<title>Node30&#45;&gt;Node26</title>
<g id="a_edge57_Node000030_Node000026"><a xlink:title=" ">
<path fill="none" stroke="#63b8ff" d="M1546.06,-164.98C1592.71,-155.76 1667.2,-141.03 1717.56,-131.07"/>
<polygon fill="#63b8ff" stroke="#63b8ff" points="1718.47,-134.46 1727.6,-129.08 1717.11,-127.59 1718.47,-134.46"/>
</a>
</g>
</g>
<!-- Node30&#45;&gt;Node28 -->
<g id="edge54_Node000030_Node000028" class="edge">
<title>Node30&#45;&gt;Node28</title>
<g id="a_edge54_Node000030_Node000028"><a xlink:title=" ">
<path fill="none" stroke="#63b8ff" d="M1498.87,-164.75C1495.49,-157.57 1490.58,-147.18 1486.38,-138.27"/>
<polygon fill="#63b8ff" stroke="#63b8ff" points="1489.48,-136.64 1482.05,-129.09 1483.15,-139.63 1489.48,-136.64"/>
</a>
</g>
</g>
<!-- Node30&#45;&gt;Node29 -->
<g id="edge59_Node000030_Node000029" class="edge">
<title>Node30&#45;&gt;Node29</title>
<g id="a_edge59_Node000030_Node000029"><a xlink:title=" ">
<path fill="none" stroke="#63b8ff" d="M1481.95,-164.98C1460.59,-156.34 1427.3,-142.87 1402.94,-133.02"/>
<polygon fill="#63b8ff" stroke="#63b8ff" points="1404.01,-129.68 1393.43,-129.17 1401.39,-136.17 1404.01,-129.68"/>
</a>
</g>
</g>
<!-- Node32&#45;&gt;Node11 -->
<g id="edge67_Node000032_Node000011" class="edge">
<title>Node32&#45;&gt;Node11</title>
<g id="a_edge67_Node000032_Node000011"><a xlink:title=" ">
<path fill="none" stroke="#63b8ff" d="M2139.5,-164.94C2092.15,-156.03 2015.86,-141.62 1950,-129 1906.43,-120.65 1895.98,-115.84 1852,-110 1650.46,-83.23 1409.29,-71.64 1299.59,-67.48"/>
<polygon fill="#63b8ff" stroke="#63b8ff" points="1299.51,-63.97 1289.39,-67.1 1299.25,-70.97 1299.51,-63.97"/>
</a>
</g>
</g>
<!-- Node32&#45;&gt;Node20 -->
<g id="edge68_Node000032_Node000020" class="edge">
<title>Node32&#45;&gt;Node20</title>
<g id="a_edge68_Node000032_Node000020"><a xlink:title=" ">
<path fill="none" stroke="#63b8ff" d="M2128.93,-168.56C2039.46,-160.61 1858.91,-144.33 1706,-129 1694.11,-127.81 1681.22,-126.45 1669.37,-125.17"/>
<polygon fill="#63b8ff" stroke="#63b8ff" points="1669.59,-121.68 1659.28,-124.08 1668.84,-128.64 1669.59,-121.68"/>
</a>
</g>
</g>
<!-- Node33 -->
<g id="Node000033" class="node">
<title>Node33</title>
<g id="a_Node000033"><a xlink:title=" ">
<polygon fill="#e0e0e0" stroke="#999999" points="2287,-129 2195,-129 2195,-110 2287,-110 2287,-129"/>
<text text-anchor="middle" x="2241" y="-117" font-family="Helvetica,sans-Serif" font-size="10.00">AMReX_REAL.H</text>
</a>
</g>
</g>
<!-- Node32&#45;&gt;Node33 -->
<g id="edge64_Node000032_Node000033" class="edge">
<title>Node32&#45;&gt;Node33</title>
<g id="a_edge64_Node000032_Node000033"><a xlink:title=" ">
<path fill="none" stroke="#63b8ff" d="M2194,-164.98C2202.19,-157.23 2214.51,-145.58 2224.47,-136.14"/>
<polygon fill="#63b8ff" stroke="#63b8ff" points="2226.98,-138.59 2231.84,-129.17 2222.17,-133.5 2226.98,-138.59"/>
</a>
</g>
</g>
<!-- Node34 -->
<g id="Node000034" class="node">
<title>Node34</title>
<g id="a_Node000034"><a xlink:title=" ">
<polygon fill="#e0e0e0" stroke="#999999" points="2439,-129 2305,-129 2305,-110 2439,-110 2439,-129"/>
<text text-anchor="middle" x="2372" y="-117" font-family="Helvetica,sans-Serif" font-size="10.00">AMReX_GpuQualifiers.H</text>
</a>
</g>
</g>
<!-- Node32&#45;&gt;Node34 -->
<g id="edge65_Node000032_Node000034" class="edge">
<title>Node32&#45;&gt;Node34</title>
<g id="a_edge65_Node000032_Node000034"><a xlink:title=" ">
<path fill="none" stroke="#63b8ff" d="M2215.04,-164.98C2246.71,-156.01 2296.77,-141.82 2331.81,-131.89"/>
<polygon fill="#63b8ff" stroke="#63b8ff" points="2333.05,-135.18 2341.72,-129.08 2331.14,-128.44 2333.05,-135.18"/>
</a>
</g>
</g>
<!-- Node35 -->
<g id="Node000035" class="node">
<title>Node35</title>
<g id="a_Node000035"><a xlink:title=" ">
<polygon fill="#e0e0e0" stroke="#999999" points="2573,-129 2457,-129 2457,-110 2573,-110 2573,-129"/>
<text text-anchor="middle" x="2515" y="-117" font-family="Helvetica,sans-Serif" font-size="10.00">AMReX_Extension.H</text>
</a>
</g>
</g>
<!-- Node32&#45;&gt;Node35 -->
<g id="edge66_Node000032_Node000035" class="edge">
<title>Node32&#45;&gt;Node35</title>
<g id="a_edge66_Node000032_Node000035"><a xlink:title=" ">
<path fill="none" stroke="#63b8ff" d="M2238.02,-164.98C2296.27,-155.63 2389.77,-140.61 2451.78,-130.65"/>
<polygon fill="#63b8ff" stroke="#63b8ff" points="2452.52,-134.08 2461.84,-129.04 2451.41,-127.17 2452.52,-134.08"/>
</a>
</g>
</g>
<!-- Node36 -->
<g id="Node000036" class="node">
<title>Node36</title>
<g id="a_Node000036"><a xlink:title=" ">
<polygon fill="#e0e0e0" stroke="#999999" points="2176.5,-129 2129.5,-129 2129.5,-110 2176.5,-110 2176.5,-129"/>
<text text-anchor="middle" x="2153" y="-117" font-family="Helvetica,sans-Serif" font-size="10.00">cmath</text>
</a>
</g>
</g>
<!-- Node32&#45;&gt;Node36 -->
<g id="edge69_Node000032_Node000036" class="edge">
<title>Node32&#45;&gt;Node36</title>
<g id="a_edge69_Node000032_Node000036"><a xlink:title=" ">
<path fill="none" stroke="#63b8ff" d="M2179.72,-164.75C2175.29,-157.42 2168.84,-146.73 2163.38,-137.7"/>
<polygon fill="#63b8ff" stroke="#63b8ff" points="2166.35,-135.84 2158.19,-129.09 2160.36,-139.46 2166.35,-135.84"/>
</a>
</g>
</g>
</g>
</svg>
