<?xml version="1.0" encoding="UTF-8" standalone="no"?>
<!DOCTYPE svg PUBLIC "-//W3C//DTD SVG 1.1//EN"
 "http://www.w3.org/Graphics/SVG/1.1/DTD/svg11.dtd">
<!-- Generated by graphviz version 2.43.0 (0)
 -->
<!-- Title: /home/runner/work/kynema&#45;sgf/kynema&#45;sgf/src/immersed_boundary/IBTypes.H Pages: 1 -->
<svg width="1115pt" height="379pt"
 viewBox="0.00 0.00 1114.50 379.00" xmlns="http://www.w3.org/2000/svg" xmlns:xlink="http://www.w3.org/1999/xlink">
<g id="graph0" class="graph" transform="scale(1 1) rotate(0) translate(4 375)">
<title>/home/runner/work/kynema&#45;sgf/kynema&#45;sgf/src/immersed_boundary/IBTypes.H</title>
<!-- Node1 -->
<g id="Node000001" class="node">
<title>Node1</title>
<g id="a_Node000001"><a xlink:title=" ">
<polygon fill="#999999" stroke="#666666" points="632,-371 466,-371 466,-330 632,-330 632,-371"/>
<text text-anchor="start" x="474" y="-359" font-family="Helvetica,sans-Serif" font-size="10.00">/home/runner/work/kynema</text>
<text text-anchor="start" x="474" y="-348" font-family="Helvetica,sans-Serif" font-size="10.00">&#45;sgf/kynema&#45;sgf/src/immersed</text>
<text text-anchor="middle" x="549" y="-337" font-family="Helvetica,sans-Serif" font-size="10.00">_boundary/IBTypes.H</text>
</a>
</g>
</g>
<!-- Node2 -->
<g id="Node000002" class="node">
<title>Node2</title>
<g id="a_Node000002"><a xlink:href="_i_b_model_8_h.html" target="_top" xlink:title=" ">
<polygon fill="white" stroke="#666666" points="166,-123.5 0,-123.5 0,-82.5 166,-82.5 166,-123.5"/>
<text text-anchor="start" x="8" y="-111.5" font-family="Helvetica,sans-Serif" font-size="10.00">/home/runner/work/kynema</text>
<text text-anchor="start" x="8" y="-100.5" font-family="Helvetica,sans-Serif" font-size="10.00">&#45;sgf/kynema&#45;sgf/src/immersed</text>
<text text-anchor="middle" x="83" y="-89.5" font-family="Helvetica,sans-Serif" font-size="10.00">_boundary/IBModel.H</text>
</a>
</g>
</g>
<!-- Node1&#45;&gt;Node2 -->
<g id="edge1_Node000001_Node000002" class="edge">
<title>Node1&#45;&gt;Node2</title>
<g id="a_edge1_Node000001_Node000002"><a xlink:title=" ">
<path fill="none" stroke="#63b8ff" d="M455.46,-332.55C374.14,-314.33 256.16,-279.23 170,-217 135.08,-191.78 107.43,-148.64 93.31,-123.59"/>
<polygon fill="#63b8ff" stroke="#63b8ff" points="455.18,-336.07 465.69,-334.8 456.68,-329.23 455.18,-336.07"/>
</a>
</g>
</g>
<!-- Node7 -->
<g id="Node000007" class="node">
<title>Node7</title>
<g id="a_Node000007"><a xlink:href="_i_b_ops_8_h.html" target="_top" xlink:title=" ">
<polygon fill="white" stroke="#666666" points="577,-294 411,-294 411,-253 577,-253 577,-294"/>
<text text-anchor="start" x="419" y="-282" font-family="Helvetica,sans-Serif" font-size="10.00">/home/runner/work/kynema</text>
<text text-anchor="start" x="419" y="-271" font-family="Helvetica,sans-Serif" font-size="10.00">&#45;sgf/kynema&#45;sgf/src/immersed</text>
<text text-anchor="middle" x="494" y="-260" font-family="Helvetica,sans-Serif" font-size="10.00">_boundary/IBOps.H</text>
</a>
</g>
</g>
<!-- Node1&#45;&gt;Node7 -->
<g id="edge6_Node000001_Node000007" class="edge">
<title>Node1&#45;&gt;Node7</title>
<g id="a_edge6_Node000001_Node000007"><a xlink:title=" ">
<path fill="none" stroke="#63b8ff" d="M528.59,-321.67C521.87,-312.5 514.53,-302.5 508.35,-294.07"/>
<polygon fill="#63b8ff" stroke="#63b8ff" points="525.81,-323.8 534.55,-329.79 531.46,-319.66 525.81,-323.8"/>
</a>
</g>
</g>
<!-- Node8 -->
<g id="Node000008" class="node">
<title>Node8</title>
<g id="a_Node000008"><a xlink:href="bluff__body__ops_8_h.html" target="_top" xlink:title=" ">
<polygon fill="white" stroke="#666666" points="688,-217 522,-217 522,-165 688,-165 688,-217"/>
<text text-anchor="start" x="530" y="-205" font-family="Helvetica,sans-Serif" font-size="10.00">/home/runner/work/kynema</text>
<text text-anchor="start" x="530" y="-194" font-family="Helvetica,sans-Serif" font-size="10.00">&#45;sgf/kynema&#45;sgf/src/immersed</text>
<text text-anchor="start" x="530" y="-183" font-family="Helvetica,sans-Serif" font-size="10.00">_boundary/bluff_body/bluff</text>
<text text-anchor="middle" x="605" y="-172" font-family="Helvetica,sans-Serif" font-size="10.00">_body_ops.H</text>
</a>
</g>
</g>
<!-- Node1&#45;&gt;Node8 -->
<g id="edge30_Node000001_Node000008" class="edge">
<title>Node1&#45;&gt;Node8</title>
<g id="a_edge30_Node000001_Node000008"><a xlink:title=" ">
<path fill="none" stroke="#63b8ff" d="M570.87,-321.45C576.55,-313.02 582.15,-303.47 586,-294 596.17,-268.97 600.95,-238.25 603.16,-217.11"/>
<polygon fill="#63b8ff" stroke="#63b8ff" points="567.89,-319.61 564.99,-329.8 573.61,-323.64 567.89,-319.61"/>
</a>
</g>
</g>
<!-- Node13 -->
<g id="Node000013" class="node">
<title>Node13</title>
<g id="a_Node000013"><a xlink:href="_bluff_body_8_h.html" target="_top" xlink:title=" ">
<polygon fill="white" stroke="#666666" points="814.5,-294 633.5,-294 633.5,-253 814.5,-253 814.5,-294"/>
<text text-anchor="start" x="641.5" y="-282" font-family="Helvetica,sans-Serif" font-size="10.00">/home/runner/work/kynema</text>
<text text-anchor="start" x="641.5" y="-271" font-family="Helvetica,sans-Serif" font-size="10.00">&#45;sgf/kynema&#45;sgf/src/immersed</text>
<text text-anchor="middle" x="724" y="-260" font-family="Helvetica,sans-Serif" font-size="10.00">_boundary/bluff_body/BluffBody.H</text>
</a>
</g>
</g>
<!-- Node1&#45;&gt;Node13 -->
<g id="edge19_Node000001_Node000013" class="edge">
<title>Node1&#45;&gt;Node13</title>
<g id="a_edge19_Node000001_Node000013"><a xlink:title=" ">
<path fill="none" stroke="#63b8ff" d="M603.84,-326C627.81,-315.72 655.59,-303.82 678.4,-294.04"/>
<polygon fill="#63b8ff" stroke="#63b8ff" points="602.34,-322.83 594.52,-329.99 605.09,-329.27 602.34,-322.83"/>
</a>
</g>
</g>
<!-- Node3 -->
<g id="Node000003" class="node">
<title>Node3</title>
<g id="a_Node000003"><a xlink:href="_i_b_8cpp.html" target="_top" xlink:title=" ">
<polygon fill="white" stroke="#666666" points="166,-41 0,-41 0,0 166,0 166,-41"/>
<text text-anchor="start" x="8" y="-29" font-family="Helvetica,sans-Serif" font-size="10.00">/home/runner/work/kynema</text>
<text text-anchor="start" x="8" y="-18" font-family="Helvetica,sans-Serif" font-size="10.00">&#45;sgf/kynema&#45;sgf/src/immersed</text>
<text text-anchor="middle" x="83" y="-7" font-family="Helvetica,sans-Serif" font-size="10.00">_boundary/IB.cpp</text>
</a>
</g>
</g>
<!-- Node2&#45;&gt;Node3 -->
<g id="edge2_Node000002_Node000003" class="edge">
<title>Node2&#45;&gt;Node3</title>
<g id="a_edge2_Node000002_Node000003"><a xlink:title=" ">
<path fill="none" stroke="#63b8ff" d="M83,-71.87C83,-61.6 83,-50.4 83,-41.17"/>
<polygon fill="#63b8ff" stroke="#63b8ff" points="79.5,-72.1 83,-82.1 86.5,-72.1 79.5,-72.1"/>
</a>
</g>
</g>
<!-- Node4 -->
<g id="Node000004" class="node">
<title>Node4</title>
<g id="a_Node000004"><a xlink:href="_box_8cpp.html" target="_top" xlink:title=" ">
<polygon fill="white" stroke="#666666" points="355,-41 189,-41 189,0 355,0 355,-41"/>
<text text-anchor="start" x="197" y="-29" font-family="Helvetica,sans-Serif" font-size="10.00">/home/runner/work/kynema</text>
<text text-anchor="start" x="197" y="-18" font-family="Helvetica,sans-Serif" font-size="10.00">&#45;sgf/kynema&#45;sgf/src/immersed</text>
<text text-anchor="middle" x="272" y="-7" font-family="Helvetica,sans-Serif" font-size="10.00">_boundary/bluff_body/Box.cpp</text>
</a>
</g>
</g>
<!-- Node2&#45;&gt;Node4 -->
<g id="edge3_Node000002_Node000004" class="edge">
<title>Node2&#45;&gt;Node4</title>
<g id="a_edge3_Node000002_Node000004"><a xlink:title=" ">
<path fill="none" stroke="#63b8ff" d="M138.44,-78.39C166.25,-66.54 199.53,-52.37 225.92,-41.13"/>
<polygon fill="#63b8ff" stroke="#63b8ff" points="137.06,-75.17 129.23,-82.31 139.81,-81.61 137.06,-75.17"/>
</a>
</g>
</g>
<!-- Node5 -->
<g id="Node000005" class="node">
<title>Node5</title>
<g id="a_Node000005"><a xlink:href="_cylinder_8cpp.html" target="_top" xlink:title=" ">
<polygon fill="white" stroke="#666666" points="791.5,-41 606.5,-41 606.5,0 791.5,0 791.5,-41"/>
<text text-anchor="start" x="614.5" y="-29" font-family="Helvetica,sans-Serif" font-size="10.00">/home/runner/work/kynema</text>
<text text-anchor="start" x="614.5" y="-18" font-family="Helvetica,sans-Serif" font-size="10.00">&#45;sgf/kynema&#45;sgf/src/immersed</text>
<text text-anchor="middle" x="699" y="-7" font-family="Helvetica,sans-Serif" font-size="10.00">_boundary/bluff_body/Cylinder.cpp</text>
</a>
</g>
</g>
<!-- Node2&#45;&gt;Node5 -->
<g id="edge4_Node000002_Node000005" class="edge">
<title>Node2&#45;&gt;Node5</title>
<g id="a_edge4_Node000002_Node000005"><a xlink:title=" ">
<path fill="none" stroke="#63b8ff" d="M159.86,-80.14C164.96,-78.99 170.04,-77.93 175,-77 324.48,-48.96 500.8,-33.93 606.06,-26.84"/>
<polygon fill="#63b8ff" stroke="#63b8ff" points="158.97,-76.76 150.04,-82.45 160.58,-83.57 158.97,-76.76"/>
</a>
</g>
</g>
<!-- Node6 -->
<g id="Node000006" class="node">
<title>Node6</title>
<g id="a_Node000006"><a xlink:href="_sphere_8cpp.html" target="_top" xlink:title=" ">
<polygon fill="white" stroke="#666666" points="1039.5,-41 860.5,-41 860.5,0 1039.5,0 1039.5,-41"/>
<text text-anchor="start" x="868.5" y="-29" font-family="Helvetica,sans-Serif" font-size="10.00">/home/runner/work/kynema</text>
<text text-anchor="start" x="868.5" y="-18" font-family="Helvetica,sans-Serif" font-size="10.00">&#45;sgf/kynema&#45;sgf/src/immersed</text>
<text text-anchor="middle" x="950" y="-7" font-family="Helvetica,sans-Serif" font-size="10.00">_boundary/bluff_body/Sphere.cpp</text>
</a>
</g>
</g>
<!-- Node2&#45;&gt;Node6 -->
<g id="edge5_Node000002_Node000006" class="edge">
<title>Node2&#45;&gt;Node6</title>
<g id="a_edge5_Node000002_Node000006"><a xlink:title=" ">
<path fill="none" stroke="#63b8ff" d="M158.32,-80.19C163.93,-78.97 169.54,-77.89 175,-77 449.62,-32.28 522.97,-66.95 800,-41 819.61,-39.16 840.6,-36.73 860.49,-34.2"/>
<polygon fill="#63b8ff" stroke="#63b8ff" points="157.19,-76.85 148.22,-82.49 158.75,-83.68 157.19,-76.85"/>
</a>
</g>
</g>
<!-- Node7&#45;&gt;Node2 -->
<g id="edge7_Node000007_Node000002" class="edge">
<title>Node7&#45;&gt;Node2</title>
<g id="a_edge7_Node000007_Node000002"><a xlink:title=" ">
<path fill="none" stroke="#63b8ff" d="M400.95,-256.57C359.05,-247.68 309.55,-234.75 267,-217 206.8,-191.88 143.43,-148.71 109.01,-123.62"/>
<polygon fill="#63b8ff" stroke="#63b8ff" points="400.37,-260.02 410.88,-258.63 401.8,-253.17 400.37,-260.02"/>
</a>
</g>
</g>
<!-- Node7&#45;&gt;Node8 -->
<g id="edge8_Node000007_Node000008" class="edge">
<title>Node7&#45;&gt;Node8</title>
<g id="a_edge8_Node000007_Node000008"><a xlink:title=" ">
<path fill="none" stroke="#63b8ff" d="M529.43,-246.81C542.45,-237.36 557.18,-226.68 570.15,-217.28"/>
<polygon fill="#63b8ff" stroke="#63b8ff" points="527.19,-244.1 521.15,-252.81 531.3,-249.77 527.19,-244.1"/>
</a>
</g>
</g>
<!-- Node10 -->
<g id="Node000010" class="node">
<title>Node10</title>
<g id="a_Node000010"><a xlink:href="box__ops_8_h.html" target="_top" xlink:title=" ">
<polygon fill="white" stroke="#666666" points="360,-123.5 184,-123.5 184,-82.5 360,-82.5 360,-123.5"/>
<text text-anchor="start" x="192" y="-111.5" font-family="Helvetica,sans-Serif" font-size="10.00">/home/runner/work/kynema</text>
<text text-anchor="start" x="192" y="-100.5" font-family="Helvetica,sans-Serif" font-size="10.00">&#45;sgf/kynema&#45;sgf/src/immersed</text>
<text text-anchor="middle" x="272" y="-89.5" font-family="Helvetica,sans-Serif" font-size="10.00">_boundary/bluff_body/box_ops.H</text>
</a>
</g>
</g>
<!-- Node7&#45;&gt;Node10 -->
<g id="edge16_Node000007_Node000010" class="edge">
<title>Node7&#45;&gt;Node10</title>
<g id="a_edge16_Node000007_Node000010"><a xlink:title=" ">
<path fill="none" stroke="#63b8ff" d="M400.79,-257.04C354.95,-247.53 306.3,-233.91 291,-217 267.91,-191.48 267.35,-148.84 269.42,-123.88"/>
<polygon fill="#63b8ff" stroke="#63b8ff" points="400.32,-260.52 410.82,-259.07 401.71,-253.66 400.32,-260.52"/>
</a>
</g>
</g>
<!-- Node11 -->
<g id="Node000011" class="node">
<title>Node11</title>
<g id="a_Node000011"><a xlink:href="cylinder__ops_8_h.html" target="_top" xlink:title=" ">
<polygon fill="white" stroke="#666666" points="797.5,-123.5 600.5,-123.5 600.5,-82.5 797.5,-82.5 797.5,-123.5"/>
<text text-anchor="start" x="608.5" y="-111.5" font-family="Helvetica,sans-Serif" font-size="10.00">/home/runner/work/kynema</text>
<text text-anchor="start" x="608.5" y="-100.5" font-family="Helvetica,sans-Serif" font-size="10.00">&#45;sgf/kynema&#45;sgf/src/immersed</text>
<text text-anchor="middle" x="699" y="-89.5" font-family="Helvetica,sans-Serif" font-size="10.00">_boundary/bluff_body/cylinder_ops.H</text>
</a>
</g>
</g>
<!-- Node7&#45;&gt;Node11 -->
<g id="edge17_Node000007_Node000011" class="edge">
<title>Node7&#45;&gt;Node11</title>
<g id="a_edge17_Node000007_Node000011"><a xlink:title=" ">
<path fill="none" stroke="#63b8ff" d="M491.48,-242.7C491.13,-218.94 494.59,-186.23 513,-165 526.69,-149.21 570.17,-134.51 611.64,-123.5"/>
<polygon fill="#63b8ff" stroke="#63b8ff" points="487.99,-243.05 491.87,-252.91 494.99,-242.79 487.99,-243.05"/>
</a>
</g>
</g>
<!-- Node12 -->
<g id="Node000012" class="node">
<title>Node12</title>
<g id="a_Node000012"><a xlink:href="sphere__ops_8_h.html" target="_top" xlink:title=" ">
<polygon fill="white" stroke="#666666" points="1045.5,-123.5 854.5,-123.5 854.5,-82.5 1045.5,-82.5 1045.5,-123.5"/>
<text text-anchor="start" x="862.5" y="-111.5" font-family="Helvetica,sans-Serif" font-size="10.00">/home/runner/work/kynema</text>
<text text-anchor="start" x="862.5" y="-100.5" font-family="Helvetica,sans-Serif" font-size="10.00">&#45;sgf/kynema&#45;sgf/src/immersed</text>
<text text-anchor="middle" x="950" y="-89.5" font-family="Helvetica,sans-Serif" font-size="10.00">_boundary/bluff_body/sphere_ops.H</text>
</a>
</g>
</g>
<!-- Node7&#45;&gt;Node12 -->
<g id="edge18_Node000007_Node000012" class="edge">
<title>Node7&#45;&gt;Node12</title>
<g id="a_edge18_Node000007_Node000012"><a xlink:title=" ">
<path fill="none" stroke="#63b8ff" d="M587.1,-258.36C599.5,-256.53 612.06,-254.7 624,-253 683.27,-244.56 841.99,-251.39 891,-217 907.49,-205.43 930.35,-153.2 942.19,-123.97"/>
<polygon fill="#63b8ff" stroke="#63b8ff" points="586.57,-254.9 577.19,-259.83 587.6,-261.83 586.57,-254.9"/>
</a>
</g>
</g>
<!-- Node9 -->
<g id="Node000009" class="node">
<title>Node9</title>
<g id="a_Node000009"><a xlink:href="bluff__body__ops_8cpp.html" target="_top" xlink:title=" ">
<polygon fill="white" stroke="#666666" points="582,-129 416,-129 416,-77 582,-77 582,-129"/>
<text text-anchor="start" x="424" y="-117" font-family="Helvetica,sans-Serif" font-size="10.00">/home/runner/work/kynema</text>
<text text-anchor="start" x="424" y="-106" font-family="Helvetica,sans-Serif" font-size="10.00">&#45;sgf/kynema&#45;sgf/src/immersed</text>
<text text-anchor="start" x="424" y="-95" font-family="Helvetica,sans-Serif" font-size="10.00">_boundary/bluff_body/bluff</text>
<text text-anchor="middle" x="499" y="-84" font-family="Helvetica,sans-Serif" font-size="10.00">_body_ops.cpp</text>
</a>
</g>
</g>
<!-- Node8&#45;&gt;Node9 -->
<g id="edge9_Node000008_Node000009" class="edge">
<title>Node8&#45;&gt;Node9</title>
<g id="a_edge9_Node000008_Node000009"><a xlink:title=" ">
<path fill="none" stroke="#63b8ff" d="M566.06,-158.41C554.24,-148.82 541.41,-138.41 530.17,-129.29"/>
<polygon fill="#63b8ff" stroke="#63b8ff" points="564.08,-161.31 574.06,-164.89 568.49,-155.88 564.08,-161.31"/>
</a>
</g>
</g>
<!-- Node8&#45;&gt;Node10 -->
<g id="edge10_Node000008_Node000010" class="edge">
<title>Node8&#45;&gt;Node10</title>
<g id="a_edge10_Node000008_Node000010"><a xlink:title=" ">
<path fill="none" stroke="#63b8ff" d="M511.96,-165.97C460.09,-152.58 396.33,-136.11 347.57,-123.52"/>
<polygon fill="#63b8ff" stroke="#63b8ff" points="511.27,-169.41 521.83,-168.52 513.02,-162.63 511.27,-169.41"/>
</a>
</g>
</g>
<!-- Node8&#45;&gt;Node11 -->
<g id="edge12_Node000008_Node000011" class="edge">
<title>Node8&#45;&gt;Node11</title>
<g id="a_edge12_Node000008_Node000011"><a xlink:title=" ">
<path fill="none" stroke="#63b8ff" d="M640.1,-157.88C652.72,-146.34 666.56,-133.68 677.65,-123.53"/>
<polygon fill="#63b8ff" stroke="#63b8ff" points="637.46,-155.56 632.44,-164.89 642.18,-160.73 637.46,-155.56"/>
</a>
</g>
</g>
<!-- Node8&#45;&gt;Node12 -->
<g id="edge14_Node000008_Node000012" class="edge">
<title>Node8&#45;&gt;Node12</title>
<g id="a_edge14_Node000008_Node000012"><a xlink:title=" ">
<path fill="none" stroke="#63b8ff" d="M697.7,-165.08C697.8,-165.05 697.9,-165.03 698,-165 754.26,-150.63 817.81,-135.25 867.02,-123.53"/>
<polygon fill="#63b8ff" stroke="#63b8ff" points="696.94,-161.66 688.13,-167.54 698.68,-168.44 696.94,-161.66"/>
</a>
</g>
</g>
<!-- Node10&#45;&gt;Node4 -->
<g id="edge11_Node000010_Node000004" class="edge">
<title>Node10&#45;&gt;Node4</title>
<g id="a_edge11_Node000010_Node000004"><a xlink:title=" ">
<path fill="none" stroke="#63b8ff" d="M272,-71.87C272,-61.6 272,-50.4 272,-41.17"/>
<polygon fill="#63b8ff" stroke="#63b8ff" points="268.5,-72.1 272,-82.1 275.5,-72.1 268.5,-72.1"/>
</a>
</g>
</g>
<!-- Node11&#45;&gt;Node5 -->
<g id="edge13_Node000011_Node000005" class="edge">
<title>Node11&#45;&gt;Node5</title>
<g id="a_edge13_Node000011_Node000005"><a xlink:title=" ">
<path fill="none" stroke="#63b8ff" d="M699,-71.87C699,-61.6 699,-50.4 699,-41.17"/>
<polygon fill="#63b8ff" stroke="#63b8ff" points="695.5,-72.1 699,-82.1 702.5,-72.1 695.5,-72.1"/>
</a>
</g>
</g>
<!-- Node12&#45;&gt;Node6 -->
<g id="edge15_Node000012_Node000006" class="edge">
<title>Node12&#45;&gt;Node6</title>
<g id="a_edge15_Node000012_Node000006"><a xlink:title=" ">
<path fill="none" stroke="#63b8ff" d="M950,-71.87C950,-61.6 950,-50.4 950,-41.17"/>
<polygon fill="#63b8ff" stroke="#63b8ff" points="946.5,-72.1 950,-82.1 953.5,-72.1 946.5,-72.1"/>
</a>
</g>
</g>
<!-- Node13&#45;&gt;Node8 -->
<g id="edge29_Node000013_Node000008" class="edge">
<title>Node13&#45;&gt;Node8</title>
<g id="a_edge29_Node000013_Node000008"><a xlink:title=" ">
<path fill="none" stroke="#63b8ff" d="M686.42,-247.08C672.36,-237.57 656.4,-226.77 642.37,-217.28"/>
<polygon fill="#63b8ff" stroke="#63b8ff" points="684.65,-250.1 694.89,-252.81 688.57,-244.31 684.65,-250.1"/>
</a>
</g>
</g>
<!-- Node14 -->
<g id="Node000014" class="node">
<title>Node14</title>
<g id="a_Node000014"><a xlink:href="_box_8_h.html" target="_top" xlink:title=" ">
<polygon fill="white" stroke="#666666" points="466,-211.5 300,-211.5 300,-170.5 466,-170.5 466,-211.5"/>
<text text-anchor="start" x="308" y="-199.5" font-family="Helvetica,sans-Serif" font-size="10.00">/home/runner/work/kynema</text>
<text text-anchor="start" x="308" y="-188.5" font-family="Helvetica,sans-Serif" font-size="10.00">&#45;sgf/kynema&#45;sgf/src/immersed</text>
<text text-anchor="middle" x="383" y="-177.5" font-family="Helvetica,sans-Serif" font-size="10.00">_boundary/bluff_body/Box.H</text>
</a>
</g>
</g>
<!-- Node13&#45;&gt;Node14 -->
<g id="edge20_Node000013_Node000014" class="edge">
<title>Node13&#45;&gt;Node14</title>
<g id="a_edge20_Node000013_Node000014"><a xlink:title=" ">
<path fill="none" stroke="#63b8ff" d="M631.18,-250.59C579.51,-238.39 515.73,-223.33 465.76,-211.54"/>
<polygon fill="#63b8ff" stroke="#63b8ff" points="630.48,-254.02 641.02,-252.91 632.09,-247.21 630.48,-254.02"/>
</a>
</g>
</g>
<!-- Node15 -->
<g id="Node000015" class="node">
<title>Node15</title>
<g id="a_Node000015"><a xlink:href="_cylinder_8_h.html" target="_top" xlink:title=" ">
<polygon fill="white" stroke="#666666" points="881.5,-211.5 706.5,-211.5 706.5,-170.5 881.5,-170.5 881.5,-211.5"/>
<text text-anchor="start" x="714.5" y="-199.5" font-family="Helvetica,sans-Serif" font-size="10.00">/home/runner/work/kynema</text>
<text text-anchor="start" x="714.5" y="-188.5" font-family="Helvetica,sans-Serif" font-size="10.00">&#45;sgf/kynema&#45;sgf/src/immersed</text>
<text text-anchor="middle" x="794" y="-177.5" font-family="Helvetica,sans-Serif" font-size="10.00">_boundary/bluff_body/Cylinder.H</text>
</a>
</g>
</g>
<!-- Node13&#45;&gt;Node15 -->
<g id="edge23_Node000013_Node000015" class="edge">
<title>Node13&#45;&gt;Node15</title>
<g id="a_edge23_Node000013_Node000015"><a xlink:title=" ">
<path fill="none" stroke="#63b8ff" d="M747.97,-244.94C757.48,-234 768.2,-221.68 776.9,-211.67"/>
<polygon fill="#63b8ff" stroke="#63b8ff" points="745.22,-242.76 741.3,-252.6 750.51,-247.35 745.22,-242.76"/>
</a>
</g>
</g>
<!-- Node16 -->
<g id="Node000016" class="node">
<title>Node16</title>
<g id="a_Node000016"><a xlink:href="_sphere_8_h.html" target="_top" xlink:title=" ">
<polygon fill="white" stroke="#666666" points="1106.5,-211.5 937.5,-211.5 937.5,-170.5 1106.5,-170.5 1106.5,-211.5"/>
<text text-anchor="start" x="945.5" y="-199.5" font-family="Helvetica,sans-Serif" font-size="10.00">/home/runner/work/kynema</text>
<text text-anchor="start" x="945.5" y="-188.5" font-family="Helvetica,sans-Serif" font-size="10.00">&#45;sgf/kynema&#45;sgf/src/immersed</text>
<text text-anchor="middle" x="1022" y="-177.5" font-family="Helvetica,sans-Serif" font-size="10.00">_boundary/bluff_body/Sphere.H</text>
</a>
</g>
</g>
<!-- Node13&#45;&gt;Node16 -->
<g id="edge26_Node000013_Node000016" class="edge">
<title>Node13&#45;&gt;Node16</title>
<g id="a_edge26_Node000013_Node000016"><a xlink:title=" ">
<path fill="none" stroke="#63b8ff" d="M806.24,-250.28C851.2,-238.14 906.37,-223.23 949.67,-211.54"/>
<polygon fill="#63b8ff" stroke="#63b8ff" points="805.26,-246.92 796.52,-252.91 807.08,-253.68 805.26,-246.92"/>
</a>
</g>
</g>
<!-- Node14&#45;&gt;Node4 -->
<g id="edge21_Node000014_Node000004" class="edge">
<title>Node14&#45;&gt;Node4</title>
<g id="a_edge21_Node000014_Node000004"><a xlink:title=" ">
<path fill="none" stroke="#63b8ff" d="M386.26,-160.11C387.38,-135.76 385.31,-101.51 369,-77 358.57,-61.33 342.12,-49.57 325.71,-41"/>
<polygon fill="#63b8ff" stroke="#63b8ff" points="382.76,-160 385.59,-170.21 389.74,-160.46 382.76,-160"/>
</a>
</g>
</g>
<!-- Node14&#45;&gt;Node10 -->
<g id="edge22_Node000014_Node000010" class="edge">
<title>Node14&#45;&gt;Node10</title>
<g id="a_edge22_Node000014_Node000010"><a xlink:title=" ">
<path fill="none" stroke="#63b8ff" d="M349.87,-164.33C333.09,-151.33 313.03,-135.79 297.47,-123.74"/>
<polygon fill="#63b8ff" stroke="#63b8ff" points="347.76,-167.13 357.81,-170.49 352.05,-161.59 347.76,-167.13"/>
</a>
</g>
</g>
<!-- Node15&#45;&gt;Node5 -->
<g id="edge24_Node000015_Node000005" class="edge">
<title>Node15&#45;&gt;Node5</title>
<g id="a_edge24_Node000015_Node000005"><a xlink:title=" ">
<path fill="none" stroke="#63b8ff" d="M806.73,-161.07C815.29,-136.87 822.46,-102.33 807,-77 797.22,-60.99 781.19,-49.4 764.44,-41.1"/>
<polygon fill="#63b8ff" stroke="#63b8ff" points="803.45,-159.84 803.17,-170.43 809.99,-162.33 803.45,-159.84"/>
</a>
</g>
</g>
<!-- Node15&#45;&gt;Node11 -->
<g id="edge25_Node000015_Node000011" class="edge">
<title>Node15&#45;&gt;Node11</title>
<g id="a_edge25_Node000015_Node000011"><a xlink:title=" ">
<path fill="none" stroke="#63b8ff" d="M764.86,-163.62C750.66,-150.77 733.87,-135.57 720.8,-123.74"/>
<polygon fill="#63b8ff" stroke="#63b8ff" points="762.68,-166.37 772.44,-170.49 767.38,-161.18 762.68,-166.37"/>
</a>
</g>
</g>
<!-- Node16&#45;&gt;Node6 -->
<g id="edge27_Node000016_Node000006" class="edge">
<title>Node16&#45;&gt;Node6</title>
<g id="a_edge27_Node000016_Node000006"><a xlink:title=" ">
<path fill="none" stroke="#63b8ff" d="M1042.21,-161.78C1056.63,-137.88 1070.9,-103.39 1055,-77 1045.37,-61.02 1029.43,-49.4 1012.84,-41.06"/>
<polygon fill="#63b8ff" stroke="#63b8ff" points="1039.15,-160.07 1036.74,-170.39 1045.06,-163.83 1039.15,-160.07"/>
</a>
</g>
</g>
<!-- Node16&#45;&gt;Node12 -->
<g id="edge28_Node000016_Node000012" class="edge">
<title>Node16&#45;&gt;Node12</title>
<g id="a_edge28_Node000016_Node000012"><a xlink:title=" ">
<path fill="none" stroke="#63b8ff" d="M999.01,-162.54C988.45,-149.92 976.15,-135.24 966.52,-123.74"/>
<polygon fill="#63b8ff" stroke="#63b8ff" points="996.56,-165.06 1005.66,-170.49 1001.93,-160.57 996.56,-165.06"/>
</a>
</g>
</g>
</g>
</svg>
