<?xml version="1.0" encoding="UTF-8" standalone="no"?>
<!DOCTYPE svg PUBLIC "-//W3C//DTD SVG 1.1//EN"
 "http://www.w3.org/Graphics/SVG/1.1/DTD/svg11.dtd">
<!-- Generated by graphviz version 2.43.0 (0)
 -->
<!-- Title: /home/runner/work/kynema&#45;sgf/kynema&#45;sgf/src/turbulence/RANS/KOmegaSST.H Pages: 1 -->
<svg width="418pt" height="203pt"
 viewBox="0.00 0.00 418.00 203.00" xmlns="http://www.w3.org/2000/svg" xmlns:xlink="http://www.w3.org/1999/xlink">
<g id="graph0" class="graph" transform="scale(1 1) rotate(0) translate(4 199)">
<title>/home/runner/work/kynema&#45;sgf/kynema&#45;sgf/src/turbulence/RANS/KOmegaSST.H</title>
<!-- Node1 -->
<g id="Node000001" class="node">
<title>Node1</title>
<g id="a_Node000001"><a xlink:title=" ">
<polygon fill="#999999" stroke="#666666" points="224,-195 56,-195 56,-154 224,-154 224,-195"/>
<text text-anchor="start" x="64" y="-183" font-family="Helvetica,sans-Serif" font-size="10.00">/home/runner/work/kynema</text>
<text text-anchor="start" x="64" y="-172" font-family="Helvetica,sans-Serif" font-size="10.00">&#45;sgf/kynema&#45;sgf/src/turbulence</text>
<text text-anchor="middle" x="140" y="-161" font-family="Helvetica,sans-Serif" font-size="10.00">/RANS/KOmegaSST.H</text>
</a>
</g>
</g>
<!-- Node2 -->
<g id="Node000002" class="node">
<title>Node2</title>
<g id="a_Node000002"><a xlink:href="_k_omega_s_s_t_8cpp.html" target="_top" xlink:title=" ">
<polygon fill="white" stroke="#666666" points="168,-41 0,-41 0,0 168,0 168,-41"/>
<text text-anchor="start" x="8" y="-29" font-family="Helvetica,sans-Serif" font-size="10.00">/home/runner/work/kynema</text>
<text text-anchor="start" x="8" y="-18" font-family="Helvetica,sans-Serif" font-size="10.00">&#45;sgf/kynema&#45;sgf/src/turbulence</text>
<text text-anchor="middle" x="84" y="-7" font-family="Helvetica,sans-Serif" font-size="10.00">/RANS/KOmegaSST.cpp</text>
</a>
</g>
</g>
<!-- Node1&#45;&gt;Node2 -->
<g id="edge1_Node000001_Node000002" class="edge">
<title>Node1&#45;&gt;Node2</title>
<g id="a_edge1_Node000001_Node000002"><a xlink:title=" ">
<path fill="none" stroke="#63b8ff" d="M78.14,-148.81C65.7,-140.89 54.24,-130.75 47,-118 32.74,-92.88 51.05,-61.19 66.6,-41.13"/>
<polygon fill="#63b8ff" stroke="#63b8ff" points="76.48,-151.9 86.87,-153.96 80.03,-145.86 76.48,-151.9"/>
</a>
</g>
</g>
<!-- Node3 -->
<g id="Node000003" class="node">
<title>Node3</title>
<g id="a_Node000003"><a xlink:href="_k_omega_s_s_t_i_8_h.html" target="_top" xlink:title=" ">
<polygon fill="white" stroke="#666666" points="224,-118 56,-118 56,-77 224,-77 224,-118"/>
<text text-anchor="start" x="64" y="-106" font-family="Helvetica,sans-Serif" font-size="10.00">/home/runner/work/kynema</text>
<text text-anchor="start" x="64" y="-95" font-family="Helvetica,sans-Serif" font-size="10.00">&#45;sgf/kynema&#45;sgf/src/turbulence</text>
<text text-anchor="middle" x="140" y="-84" font-family="Helvetica,sans-Serif" font-size="10.00">/RANS/KOmegaSSTI.H</text>
</a>
</g>
</g>
<!-- Node1&#45;&gt;Node3 -->
<g id="edge2_Node000001_Node000003" class="edge">
<title>Node1&#45;&gt;Node3</title>
<g id="a_edge2_Node000001_Node000003"><a xlink:title=" ">
<path fill="none" stroke="#63b8ff" d="M140,-143.69C140,-135.08 140,-125.9 140,-118.07"/>
<polygon fill="#63b8ff" stroke="#63b8ff" points="136.5,-143.79 140,-153.79 143.5,-143.79 136.5,-143.79"/>
</a>
</g>
</g>
<!-- Node5 -->
<g id="Node000005" class="node">
<title>Node5</title>
<g id="a_Node000005"><a xlink:href="_k_omega_s_s_t_i_d_d_e_s_8_h.html" target="_top" xlink:title=" ">
<polygon fill="white" stroke="#666666" points="410,-118 242,-118 242,-77 410,-77 410,-118"/>
<text text-anchor="start" x="250" y="-106" font-family="Helvetica,sans-Serif" font-size="10.00">/home/runner/work/kynema</text>
<text text-anchor="start" x="250" y="-95" font-family="Helvetica,sans-Serif" font-size="10.00">&#45;sgf/kynema&#45;sgf/src/turbulence</text>
<text text-anchor="middle" x="326" y="-84" font-family="Helvetica,sans-Serif" font-size="10.00">/RANS/KOmegaSSTIDDES.H</text>
</a>
</g>
</g>
<!-- Node1&#45;&gt;Node5 -->
<g id="edge5_Node000001_Node000005" class="edge">
<title>Node1&#45;&gt;Node5</title>
<g id="a_edge5_Node000001_Node000005"><a xlink:title=" ">
<path fill="none" stroke="#63b8ff" d="M197.95,-150.13C223.5,-139.83 253.19,-127.86 277.54,-118.04"/>
<polygon fill="#63b8ff" stroke="#63b8ff" points="196.35,-147 188.38,-153.99 198.97,-153.5 196.35,-147"/>
</a>
</g>
</g>
<!-- Node3&#45;&gt;Node2 -->
<g id="edge3_Node000003_Node000002" class="edge">
<title>Node3&#45;&gt;Node2</title>
<g id="a_edge3_Node000003_Node000002"><a xlink:title=" ">
<path fill="none" stroke="#63b8ff" d="M119.22,-68.67C112.37,-59.5 104.9,-49.5 98.62,-41.07"/>
<polygon fill="#63b8ff" stroke="#63b8ff" points="116.5,-70.88 125.29,-76.79 122.11,-66.69 116.5,-70.88"/>
</a>
</g>
</g>
<!-- Node4 -->
<g id="Node000004" class="node">
<title>Node4</title>
<g id="a_Node000004"><a xlink:href="_k_omega_s_s_t_i_d_d_e_s_8cpp.html" target="_top" xlink:title=" ">
<polygon fill="white" stroke="#666666" points="382,-41 214,-41 214,0 382,0 382,-41"/>
<text text-anchor="start" x="222" y="-29" font-family="Helvetica,sans-Serif" font-size="10.00">/home/runner/work/kynema</text>
<text text-anchor="start" x="222" y="-18" font-family="Helvetica,sans-Serif" font-size="10.00">&#45;sgf/kynema&#45;sgf/src/turbulence</text>
<text text-anchor="middle" x="298" y="-7" font-family="Helvetica,sans-Serif" font-size="10.00">/RANS/KOmegaSSTIDDES.cpp</text>
</a>
</g>
</g>
<!-- Node3&#45;&gt;Node4 -->
<g id="edge4_Node000003_Node000004" class="edge">
<title>Node3&#45;&gt;Node4</title>
<g id="a_edge4_Node000003_Node000004"><a xlink:title=" ">
<path fill="none" stroke="#63b8ff" d="M190.38,-72.59C211.82,-62.41 236.51,-50.69 256.83,-41.04"/>
<polygon fill="#63b8ff" stroke="#63b8ff" points="188.63,-69.54 181.1,-76.99 191.63,-75.86 188.63,-69.54"/>
</a>
</g>
</g>
<!-- Node5&#45;&gt;Node4 -->
<g id="edge6_Node000005_Node000004" class="edge">
<title>Node5&#45;&gt;Node4</title>
<g id="a_edge6_Node000005_Node000004"><a xlink:title=" ">
<path fill="none" stroke="#63b8ff" d="M315.08,-67.26C311.81,-58.48 308.29,-49.07 305.31,-41.07"/>
<polygon fill="#63b8ff" stroke="#63b8ff" points="311.87,-68.65 318.64,-76.79 318.42,-66.2 311.87,-68.65"/>
</a>
</g>
</g>
</g>
</svg>
