<?xml version="1.0" encoding="UTF-8" standalone="no"?>
<!DOCTYPE svg PUBLIC "-//W3C//DTD SVG 1.1//EN"
 "http://www.w3.org/Graphics/SVG/1.1/DTD/svg11.dtd">
<!-- Generated by graphviz version 2.43.0 (0)
 -->
<!-- Title: /home/runner/work/kynema&#45;sgf/kynema&#45;sgf/src/wind_energy/MOData.H Pages: 1 -->
<!--zoomable 467 -->

<svg id="main" version="1.1" xmlns="http://www.w3.org/2000/svg" xmlns:xlink="http://www.w3.org/1999/xlink" xml:space="preserve" onload="init(evt)">

<style type="text/css"><![CDATA[
.node, .edge {opacity: 0.7;}
.node.selected, .edge.selected {opacity: 1;}
.edge:hover path { stroke: red; }
.edge:hover polygon { stroke: red; fill: red; }
]]></style>

<defs>
  <circle id="rim" cx="0" cy="0" r="7"/>
  <circle id="rim2" cx="0" cy="0" r="3.5"/>
  <g id="zoomPlus">
    <use xlink:href="#rim" fill="#404040"><set attributeName="fill" to="#808080" begin="zoomplus.mouseover" end="zoomplus.mouseout"/></use>
    <path d="M-4,0h8M0,-4v8" fill="none" stroke="white" stroke-width="1.5" pointer-events="none"/>
  </g>
  <g id="zoomMin">
    <use xlink:href="#rim" fill="#404040"><set attributeName="fill" to="#808080" begin="zoomminus.mouseover" end="zoomminus.mouseout"/></use>
    <path d="M-4,0h8" fill="none" stroke="white" stroke-width="1.5" pointer-events="none"/>
  </g>
  <g id="arrowUp" transform="translate(30 24)">
    <use xlink:href="#rim"/>
    <path pointer-events="none" fill="none" stroke="white" stroke-width="1.5" d="M0,-3.0v7 M-2.5,-0.5L0,-3.0L2.5,-0.5"/>
  </g>
  <g id="arrowRight" transform="rotate(90) translate(36 -43)">
    <use xlink:href="#rim"/>
    <path pointer-events="none" fill="none" stroke="white" stroke-width="1.5" d="M0,-3.0v7 M-2.5,-0.5L0,-3.0L2.5,-0.5"/>
  </g>
  <g id="arrowDown" transform="rotate(180) translate(-30 -48)">
    <use xlink:href="#rim"/>
    <path pointer-events="none" fill="none" stroke="white" stroke-width="1.5" d="M0,-3.0v7 M-2.5,-0.5L0,-3.0L2.5,-0.5"/>
  </g>
  <g id="arrowLeft" transform="rotate(270) translate(-36 17)">
    <use xlink:href="#rim"/>
    <path pointer-events="none" fill="none" stroke="white" stroke-width="1.5" d="M0,-3.0v7 M-2.5,-0.5L0,-3.0L2.5,-0.5"/>
  </g>
  <g id="resetDef">
    <use xlink:href="#rim2" fill="#404040"><set attributeName="fill" to="#808080" begin="reset.mouseover" end="reset.mouseout"/></use>
  </g>
</defs>
<script type="application/ecmascript">
var viewWidth = 3254;
var viewHeight = 467;
var sectionId = 'dynsection-1';
</script>
<script type="application/ecmascript" xlink:href="svg.min.js"/>
<svg id="graph" class="graph">
<g id="viewport">
<title>/home/runner/work/kynema&#45;sgf/kynema&#45;sgf/src/wind_energy/MOData.H</title>
<!-- Node1 -->
<g id="Node000001" class="node">
<title>Node1</title>
<g id="a_Node000001"><a xlink:title=" ">
<polygon fill="#999999" stroke="#666666" points="2598,-459 2447,-459 2447,-418 2598,-418 2598,-459"/>
<text text-anchor="start" x="2455" y="-447" font-family="Helvetica,sans-Serif" font-size="10.00">/home/runner/work/kynema</text>
<text text-anchor="start" x="2455" y="-436" font-family="Helvetica,sans-Serif" font-size="10.00">&#45;sgf/kynema&#45;sgf/src/wind</text>
<text text-anchor="middle" x="2522.5" y="-425" font-family="Helvetica,sans-Serif" font-size="10.00">_energy/MOData.H</text>
</a>
</g>
</g>
<!-- Node2 -->
<g id="Node000002" class="node">
<title>Node2</title>
<g id="a_Node000002"><a xlink:href="_drag_temp_forcing_8cpp.html" target="_top" xlink:title=" ">
<polygon fill="white" stroke="#666666" points="2133.5,-382 1971.5,-382 1971.5,-330 2133.5,-330 2133.5,-382"/>
<text text-anchor="start" x="1979.5" y="-370" font-family="Helvetica,sans-Serif" font-size="10.00">/home/runner/work/kynema</text>
<text text-anchor="start" x="1979.5" y="-359" font-family="Helvetica,sans-Serif" font-size="10.00">&#45;sgf/kynema&#45;sgf/src/equation</text>
<text text-anchor="start" x="1979.5" y="-348" font-family="Helvetica,sans-Serif" font-size="10.00">_systems/temperature/source</text>
<text text-anchor="middle" x="2052.5" y="-337" font-family="Helvetica,sans-Serif" font-size="10.00">_terms/DragTempForcing.cpp</text>
</a>
</g>
</g>
<!-- Node1&#45;&gt;Node2 -->
<g id="edge1_Node000001_Node000002" class="edge">
<title>Node1&#45;&gt;Node2</title>
<g id="a_edge1_Node000001_Node000002"><a xlink:title=" ">
<path fill="none" stroke="#63b8ff" d="M2436.72,-427.99C2359.56,-418.71 2243.32,-402.94 2143.5,-382 2140.29,-381.33 2137.03,-380.61 2133.74,-379.85"/>
<polygon fill="#63b8ff" stroke="#63b8ff" points="2436.53,-431.49 2446.87,-429.2 2437.36,-424.54 2436.53,-431.49"/>
</a>
</g>
</g>
<!-- Node3 -->
<g id="Node000003" class="node">
<title>Node3</title>
<g id="a_Node000003"><a xlink:href="_krans_axell_8cpp.html" target="_top" xlink:title=" ">
<polygon fill="white" stroke="#666666" points="2377,-376.5 2152,-376.5 2152,-335.5 2377,-335.5 2377,-376.5"/>
<text text-anchor="start" x="2160" y="-364.5" font-family="Helvetica,sans-Serif" font-size="10.00">/home/runner/work/kynema</text>
<text text-anchor="start" x="2160" y="-353.5" font-family="Helvetica,sans-Serif" font-size="10.00">&#45;sgf/kynema&#45;sgf/src/equation</text>
<text text-anchor="middle" x="2264.5" y="-342.5" font-family="Helvetica,sans-Serif" font-size="10.00">_systems/tke/source_terms/KransAxell.cpp</text>
</a>
</g>
</g>
<!-- Node1&#45;&gt;Node3 -->
<g id="edge2_Node000001_Node000003" class="edge">
<title>Node1&#45;&gt;Node3</title>
<g id="a_edge2_Node000001_Node000003"><a xlink:title=" ">
<path fill="none" stroke="#63b8ff" d="M2450.07,-414.9C2411.38,-402.83 2364.21,-388.11 2327.12,-376.54"/>
<polygon fill="#63b8ff" stroke="#63b8ff" points="2449.13,-418.27 2459.72,-417.91 2451.21,-411.59 2449.13,-418.27"/>
</a>
</g>
</g>
<!-- Node4 -->
<g id="Node000004" class="node">
<title>Node4</title>
<g id="a_Node000004"><a xlink:href="_a_b_l_wall_function_8_h.html" target="_top" xlink:title=" ">
<polygon fill="white" stroke="#666666" points="2546,-376.5 2395,-376.5 2395,-335.5 2546,-335.5 2546,-376.5"/>
<text text-anchor="start" x="2403" y="-364.5" font-family="Helvetica,sans-Serif" font-size="10.00">/home/runner/work/kynema</text>
<text text-anchor="start" x="2403" y="-353.5" font-family="Helvetica,sans-Serif" font-size="10.00">&#45;sgf/kynema&#45;sgf/src/wind</text>
<text text-anchor="middle" x="2470.5" y="-342.5" font-family="Helvetica,sans-Serif" font-size="10.00">_energy/ABLWallFunction.H</text>
</a>
</g>
</g>
<!-- Node1&#45;&gt;Node4 -->
<g id="edge3_Node000001_Node000004" class="edge">
<title>Node1&#45;&gt;Node4</title>
<g id="a_edge3_Node000001_Node000004"><a xlink:title=" ">
<path fill="none" stroke="#63b8ff" d="M2504.08,-408.98C2497.17,-398.29 2489.48,-386.38 2483.21,-376.67"/>
<polygon fill="#63b8ff" stroke="#63b8ff" points="2501.28,-411.1 2509.65,-417.6 2507.16,-407.3 2501.28,-411.1"/>
</a>
</g>
</g>
<!-- Node25 -->
<g id="Node000025" class="node">
<title>Node25</title>
<g id="a_Node000025"><a xlink:href="_a_b_l_wall_function_8cpp.html" target="_top" xlink:title=" ">
<polygon fill="white" stroke="#666666" points="3224,-123.5 3065,-123.5 3065,-82.5 3224,-82.5 3224,-123.5"/>
<text text-anchor="start" x="3073" y="-111.5" font-family="Helvetica,sans-Serif" font-size="10.00">/home/runner/work/kynema</text>
<text text-anchor="start" x="3073" y="-100.5" font-family="Helvetica,sans-Serif" font-size="10.00">&#45;sgf/kynema&#45;sgf/src/wind</text>
<text text-anchor="middle" x="3144.5" y="-89.5" font-family="Helvetica,sans-Serif" font-size="10.00">_energy/ABLWallFunction.cpp</text>
</a>
</g>
</g>
<!-- Node1&#45;&gt;Node25 -->
<g id="edge31_Node000001_Node000025" class="edge">
<title>Node1&#45;&gt;Node25</title>
<g id="a_edge31_Node000001_Node000025"><a xlink:title=" ">
<path fill="none" stroke="#63b8ff" d="M2539.17,-408.72C2555.7,-380.94 2580.54,-341.46 2594.5,-330 2673.5,-265.16 2959.31,-165.43 3084.76,-123.56"/>
<polygon fill="#63b8ff" stroke="#63b8ff" points="2535.98,-407.25 2533.91,-417.64 2542,-410.8 2535.98,-407.25"/>
</a>
</g>
</g>
<!-- Node29 -->
<g id="Node000029" class="node">
<title>Node29</title>
<g id="a_Node000029"><a xlink:href="_m_o_data_8cpp.html" target="_top" xlink:title=" ">
<polygon fill="white" stroke="#666666" points="2754,-376.5 2603,-376.5 2603,-335.5 2754,-335.5 2754,-376.5"/>
<text text-anchor="start" x="2611" y="-364.5" font-family="Helvetica,sans-Serif" font-size="10.00">/home/runner/work/kynema</text>
<text text-anchor="start" x="2611" y="-353.5" font-family="Helvetica,sans-Serif" font-size="10.00">&#45;sgf/kynema&#45;sgf/src/wind</text>
<text text-anchor="middle" x="2678.5" y="-342.5" font-family="Helvetica,sans-Serif" font-size="10.00">_energy/MOData.cpp</text>
</a>
</g>
</g>
<!-- Node1&#45;&gt;Node29 -->
<g id="edge32_Node000001_Node000029" class="edge">
<title>Node1&#45;&gt;Node29</title>
<g id="a_edge32_Node000001_Node000029"><a xlink:title=" ">
<path fill="none" stroke="#63b8ff" d="M2569.76,-413.11C2592.4,-401.43 2619.16,-387.62 2640.46,-376.63"/>
<polygon fill="#63b8ff" stroke="#63b8ff" points="2567.94,-410.11 2560.66,-417.81 2571.15,-416.33 2567.94,-410.11"/>
</a>
</g>
</g>
<!-- Node30 -->
<g id="Node000030" class="node">
<title>Node30</title>
<g id="a_Node000030"><a xlink:href="_shear_stress_8_h.html" target="_top" xlink:title=" ">
<polygon fill="white" stroke="#666666" points="3071,-376.5 2920,-376.5 2920,-335.5 3071,-335.5 3071,-376.5"/>
<text text-anchor="start" x="2928" y="-364.5" font-family="Helvetica,sans-Serif" font-size="10.00">/home/runner/work/kynema</text>
<text text-anchor="start" x="2928" y="-353.5" font-family="Helvetica,sans-Serif" font-size="10.00">&#45;sgf/kynema&#45;sgf/src/wind</text>
<text text-anchor="middle" x="2995.5" y="-342.5" font-family="Helvetica,sans-Serif" font-size="10.00">_energy/ShearStress.H</text>
</a>
</g>
</g>
<!-- Node1&#45;&gt;Node30 -->
<g id="edge33_Node000001_Node000030" class="edge">
<title>Node1&#45;&gt;Node30</title>
<g id="a_edge33_Node000001_Node000030"><a xlink:title=" ">
<path fill="none" stroke="#63b8ff" d="M2608.3,-422.9C2697.27,-407.76 2835.03,-384.31 2920,-369.85"/>
<polygon fill="#63b8ff" stroke="#63b8ff" points="2607.5,-419.48 2598.23,-424.61 2608.68,-426.38 2607.5,-419.48"/>
</a>
</g>
</g>
<!-- Node5 -->
<g id="Node000005" class="node">
<title>Node5</title>
<g id="a_Node000005"><a xlink:href="_boussinesq_bubble_8cpp.html" target="_top" xlink:title=" ">
<polygon fill="white" stroke="#666666" points="2442,-288.5 2289,-288.5 2289,-247.5 2442,-247.5 2442,-288.5"/>
<text text-anchor="start" x="2297" y="-276.5" font-family="Helvetica,sans-Serif" font-size="10.00">/home/runner/work/kynema</text>
<text text-anchor="start" x="2297" y="-265.5" font-family="Helvetica,sans-Serif" font-size="10.00">&#45;sgf/kynema&#45;sgf/src/physics</text>
<text text-anchor="middle" x="2365.5" y="-254.5" font-family="Helvetica,sans-Serif" font-size="10.00">/BoussinesqBubble.cpp</text>
</a>
</g>
</g>
<!-- Node4&#45;&gt;Node5 -->
<g id="edge4_Node000004_Node000005" class="edge">
<title>Node4&#45;&gt;Node5</title>
<g id="a_edge4_Node000004_Node000005"><a xlink:title=" ">
<path fill="none" stroke="#63b8ff" d="M2438.73,-328.98C2422.94,-316.05 2404.18,-300.68 2389.6,-288.74"/>
<polygon fill="#63b8ff" stroke="#63b8ff" points="2436.72,-331.86 2446.67,-335.49 2441.16,-326.44 2436.72,-331.86"/>
</a>
</g>
</g>
<!-- Node6 -->
<g id="Node000006" class="node">
<title>Node6</title>
<g id="a_Node000006"><a xlink:href="_a_b_l_8_h.html" target="_top" xlink:title=" ">
<polygon fill="white" stroke="#666666" points="1975,-206 1824,-206 1824,-165 1975,-165 1975,-206"/>
<text text-anchor="start" x="1832" y="-194" font-family="Helvetica,sans-Serif" font-size="10.00">/home/runner/work/kynema</text>
<text text-anchor="start" x="1832" y="-183" font-family="Helvetica,sans-Serif" font-size="10.00">&#45;sgf/kynema&#45;sgf/src/wind</text>
<text text-anchor="middle" x="1899.5" y="-172" font-family="Helvetica,sans-Serif" font-size="10.00">_energy/ABL.H</text>
</a>
</g>
</g>
<!-- Node4&#45;&gt;Node6 -->
<g id="edge5_Node000004_Node000006" class="edge">
<title>Node4&#45;&gt;Node6</title>
<g id="a_edge5_Node000004_Node000006"><a xlink:title=" ">
<path fill="none" stroke="#63b8ff" d="M2474.51,-325.35C2476.2,-299.48 2473.84,-262.91 2451.5,-242 2417.41,-210.1 2118.36,-194.69 1975.22,-189.08"/>
<polygon fill="#63b8ff" stroke="#63b8ff" points="2471.02,-325.1 2473.63,-335.36 2478,-325.71 2471.02,-325.1"/>
</a>
</g>
</g>
<!-- Node4&#45;&gt;Node25 -->
<g id="edge30_Node000004_Node000025" class="edge">
<title>Node4&#45;&gt;Node25</title>
<g id="a_edge30_Node000004_Node000025"><a xlink:title=" ">
<path fill="none" stroke="#63b8ff" d="M2475.1,-325.29C2483.55,-281.91 2505.97,-202.34 2560.5,-165 2651.68,-102.56 2947.67,-148.2 3056.5,-129 3064.63,-127.57 3073.09,-125.68 3081.41,-123.59"/>
<polygon fill="#63b8ff" stroke="#63b8ff" points="2471.64,-324.78 2473.29,-335.24 2478.53,-326.03 2471.64,-324.78"/>
</a>
</g>
</g>
<!-- Node26 -->
<g id="Node000026" class="node">
<title>Node26</title>
<g id="a_Node000026"><a xlink:href="_a_b_l_stats_8_h.html" target="_top" xlink:title=" ">
<polygon fill="white" stroke="#666666" points="1806,-206 1655,-206 1655,-165 1806,-165 1806,-206"/>
<text text-anchor="start" x="1663" y="-194" font-family="Helvetica,sans-Serif" font-size="10.00">/home/runner/work/kynema</text>
<text text-anchor="start" x="1663" y="-183" font-family="Helvetica,sans-Serif" font-size="10.00">&#45;sgf/kynema&#45;sgf/src/wind</text>
<text text-anchor="middle" x="1730.5" y="-172" font-family="Helvetica,sans-Serif" font-size="10.00">_energy/ABLStats.H</text>
</a>
</g>
</g>
<!-- Node4&#45;&gt;Node26 -->
<g id="edge25_Node000004_Node000026" class="edge">
<title>Node4&#45;&gt;Node26</title>
<g id="a_edge25_Node000004_Node000026"><a xlink:title=" ">
<path fill="none" stroke="#63b8ff" d="M2400.87,-332.98C2396.04,-331.85 2391.21,-330.84 2386.5,-330 2261.11,-307.69 1927.16,-353.4 1814.5,-294 1777.83,-274.67 1752.04,-231.53 1739.39,-206.17"/>
<polygon fill="#63b8ff" stroke="#63b8ff" points="2400.24,-336.42 2410.79,-335.44 2401.92,-329.63 2400.24,-336.42"/>
</a>
</g>
</g>
<!-- Node28 -->
<g id="Node000028" class="node">
<title>Node28</title>
<g id="a_Node000028"><a xlink:href="_a_b_l_stats_base_8_h.html" target="_top" xlink:title=" ">
<polygon fill="white" stroke="#666666" points="1975,-288.5 1824,-288.5 1824,-247.5 1975,-247.5 1975,-288.5"/>
<text text-anchor="start" x="1832" y="-276.5" font-family="Helvetica,sans-Serif" font-size="10.00">/home/runner/work/kynema</text>
<text text-anchor="start" x="1832" y="-265.5" font-family="Helvetica,sans-Serif" font-size="10.00">&#45;sgf/kynema&#45;sgf/src/wind</text>
<text text-anchor="middle" x="1899.5" y="-254.5" font-family="Helvetica,sans-Serif" font-size="10.00">_energy/ABLStatsBase.H</text>
</a>
</g>
</g>
<!-- Node4&#45;&gt;Node28 -->
<g id="edge27_Node000004_Node000028" class="edge">
<title>Node4&#45;&gt;Node28</title>
<g id="a_edge27_Node000004_Node000028"><a xlink:title=" ">
<path fill="none" stroke="#63b8ff" d="M2399.02,-332.87C2394.8,-331.83 2390.6,-330.86 2386.5,-330 2242.65,-299.8 2071.54,-282.6 1975.22,-274.6"/>
<polygon fill="#63b8ff" stroke="#63b8ff" points="2398.31,-336.3 2408.87,-335.4 2400.05,-329.52 2398.31,-336.3"/>
</a>
</g>
</g>
<!-- Node7 -->
<g id="Node000007" class="node">
<title>Node7</title>
<g id="a_Node000007"><a xlink:href="_c_f_d_sim_8cpp.html" target="_top" xlink:title=" ">
<polygon fill="white" stroke="#666666" points="2870.5,-118 2694.5,-118 2694.5,-88 2870.5,-88 2870.5,-118"/>
<text text-anchor="start" x="2702.5" y="-106" font-family="Helvetica,sans-Serif" font-size="10.00">/home/runner/work/kynema</text>
<text text-anchor="middle" x="2782.5" y="-95" font-family="Helvetica,sans-Serif" font-size="10.00">&#45;sgf/kynema&#45;sgf/src/CFDSim.cpp</text>
</a>
</g>
</g>
<!-- Node6&#45;&gt;Node7 -->
<g id="edge6_Node000006_Node000007" class="edge">
<title>Node6&#45;&gt;Node7</title>
<g id="a_edge6_Node000006_Node000007"><a xlink:title=" ">
<path fill="none" stroke="#63b8ff" d="M1985.25,-183.53C2130.35,-180.76 2433.16,-170.08 2685.5,-129 2701.81,-126.35 2719.37,-122.22 2735.01,-118.08"/>
<polygon fill="#63b8ff" stroke="#63b8ff" points="1985.01,-180.03 1975.08,-183.72 1985.14,-187.03 1985.01,-180.03"/>
</a>
</g>
</g>
<!-- Node8 -->
<g id="Node000008" class="node">
<title>Node8</title>
<g id="a_Node000008"><a xlink:href="_a_b_l_forcing_8cpp.html" target="_top" xlink:title=" ">
<polygon fill="white" stroke="#666666" points="3047,-129 2888,-129 2888,-77 3047,-77 3047,-129"/>
<text text-anchor="start" x="2896" y="-117" font-family="Helvetica,sans-Serif" font-size="10.00">/home/runner/work/kynema</text>
<text text-anchor="start" x="2896" y="-106" font-family="Helvetica,sans-Serif" font-size="10.00">&#45;sgf/kynema&#45;sgf/src/equation</text>
<text text-anchor="start" x="2896" y="-95" font-family="Helvetica,sans-Serif" font-size="10.00">_systems/icns/source_terms</text>
<text text-anchor="middle" x="2967.5" y="-84" font-family="Helvetica,sans-Serif" font-size="10.00">/ABLForcing.cpp</text>
</a>
</g>
</g>
<!-- Node6&#45;&gt;Node8 -->
<g id="edge7_Node000006_Node000008" class="edge">
<title>Node6&#45;&gt;Node8</title>
<g id="a_edge7_Node000006_Node000008"><a xlink:title=" ">
<path fill="none" stroke="#63b8ff" d="M1985.22,-182.07C2191.03,-175.84 2708.66,-157.74 2879.5,-129 2882.16,-128.55 2884.86,-128.05 2887.57,-127.51"/>
<polygon fill="#63b8ff" stroke="#63b8ff" points="1984.96,-178.57 1975.07,-182.37 1985.17,-185.57 1984.96,-178.57"/>
</a>
</g>
</g>
<!-- Node9 -->
<g id="Node000009" class="node">
<title>Node9</title>
<g id="a_Node000009"><a xlink:href="_a_b_l_mean_boussinesq_8cpp.html" target="_top" xlink:title=" ">
<polygon fill="white" stroke="#666666" points="328,-129 169,-129 169,-77 328,-77 328,-129"/>
<text text-anchor="start" x="177" y="-117" font-family="Helvetica,sans-Serif" font-size="10.00">/home/runner/work/kynema</text>
<text text-anchor="start" x="177" y="-106" font-family="Helvetica,sans-Serif" font-size="10.00">&#45;sgf/kynema&#45;sgf/src/equation</text>
<text text-anchor="start" x="177" y="-95" font-family="Helvetica,sans-Serif" font-size="10.00">_systems/icns/source_terms</text>
<text text-anchor="middle" x="248.5" y="-84" font-family="Helvetica,sans-Serif" font-size="10.00">/ABLMeanBoussinesq.cpp</text>
</a>
</g>
</g>
<!-- Node6&#45;&gt;Node9 -->
<g id="edge8_Node000006_Node000009" class="edge">
<title>Node6&#45;&gt;Node9</title>
<g id="a_edge8_Node000006_Node000009"><a xlink:title=" ">
<path fill="none" stroke="#63b8ff" d="M1813.51,-165.04C1160.72,-84.6 982.82,-227.06 336.5,-129 333.83,-128.59 331.13,-128.13 328.41,-127.62"/>
<polygon fill="#63b8ff" stroke="#63b8ff" points="1813.28,-168.54 1823.64,-166.3 1814.14,-161.59 1813.28,-168.54"/>
</a>
</g>
</g>
<!-- Node10 -->
<g id="Node000010" class="node">
<title>Node10</title>
<g id="a_Node000010"><a xlink:href="_a_b_l_meso_forcing_mom_8cpp.html" target="_top" xlink:title=" ">
<polygon fill="white" stroke="#666666" points="505,-129 346,-129 346,-77 505,-77 505,-129"/>
<text text-anchor="start" x="354" y="-117" font-family="Helvetica,sans-Serif" font-size="10.00">/home/runner/work/kynema</text>
<text text-anchor="start" x="354" y="-106" font-family="Helvetica,sans-Serif" font-size="10.00">&#45;sgf/kynema&#45;sgf/src/equation</text>
<text text-anchor="start" x="354" y="-95" font-family="Helvetica,sans-Serif" font-size="10.00">_systems/icns/source_terms</text>
<text text-anchor="middle" x="425.5" y="-84" font-family="Helvetica,sans-Serif" font-size="10.00">/ABLMesoForcingMom.cpp</text>
</a>
</g>
</g>
<!-- Node6&#45;&gt;Node10 -->
<g id="edge9_Node000006_Node000010" class="edge">
<title>Node6&#45;&gt;Node10</title>
<g id="a_edge9_Node000006_Node000010"><a xlink:title=" ">
<path fill="none" stroke="#63b8ff" d="M1813.43,-165.03C1238.85,-93.43 1081.9,-216.2 513.5,-129 510.83,-128.59 508.13,-128.13 505.41,-127.61"/>
<polygon fill="#63b8ff" stroke="#63b8ff" points="1813.27,-168.53 1823.63,-166.31 1814.15,-161.59 1813.27,-168.53"/>
</a>
</g>
</g>
<!-- Node11 -->
<g id="Node000011" class="node">
<title>Node11</title>
<g id="a_Node000011"><a xlink:href="_drag_forcing_8cpp.html" target="_top" xlink:title=" ">
<polygon fill="white" stroke="#666666" points="682,-129 523,-129 523,-77 682,-77 682,-129"/>
<text text-anchor="start" x="531" y="-117" font-family="Helvetica,sans-Serif" font-size="10.00">/home/runner/work/kynema</text>
<text text-anchor="start" x="531" y="-106" font-family="Helvetica,sans-Serif" font-size="10.00">&#45;sgf/kynema&#45;sgf/src/equation</text>
<text text-anchor="start" x="531" y="-95" font-family="Helvetica,sans-Serif" font-size="10.00">_systems/icns/source_terms</text>
<text text-anchor="middle" x="602.5" y="-84" font-family="Helvetica,sans-Serif" font-size="10.00">/DragForcing.cpp</text>
</a>
</g>
</g>
<!-- Node6&#45;&gt;Node11 -->
<g id="edge10_Node000006_Node000011" class="edge">
<title>Node6&#45;&gt;Node11</title>
<g id="a_edge10_Node000006_Node000011"><a xlink:title=" ">
<path fill="none" stroke="#63b8ff" d="M1813.7,-165.06C1317.04,-102.2 1181.11,-205.36 690.5,-129 687.83,-128.58 685.13,-128.11 682.41,-127.6"/>
<polygon fill="#63b8ff" stroke="#63b8ff" points="1813.27,-168.53 1823.63,-166.33 1814.16,-161.59 1813.27,-168.53"/>
</a>
</g>
</g>
<!-- Node12 -->
<g id="Node000012" class="node">
<title>Node12</title>
<g id="a_Node000012"><a xlink:href="_forest_forcing_8cpp.html" target="_top" xlink:title=" ">
<polygon fill="white" stroke="#666666" points="859,-129 700,-129 700,-77 859,-77 859,-129"/>
<text text-anchor="start" x="708" y="-117" font-family="Helvetica,sans-Serif" font-size="10.00">/home/runner/work/kynema</text>
<text text-anchor="start" x="708" y="-106" font-family="Helvetica,sans-Serif" font-size="10.00">&#45;sgf/kynema&#45;sgf/src/equation</text>
<text text-anchor="start" x="708" y="-95" font-family="Helvetica,sans-Serif" font-size="10.00">_systems/icns/source_terms</text>
<text text-anchor="middle" x="779.5" y="-84" font-family="Helvetica,sans-Serif" font-size="10.00">/ForestForcing.cpp</text>
</a>
</g>
</g>
<!-- Node6&#45;&gt;Node12 -->
<g id="edge11_Node000006_Node000012" class="edge">
<title>Node6&#45;&gt;Node12</title>
<g id="a_edge11_Node000006_Node000012"><a xlink:title=" ">
<path fill="none" stroke="#63b8ff" d="M1813.69,-165.05C1395.17,-110.99 1280.24,-194.51 867.5,-129 864.83,-128.58 862.13,-128.1 859.41,-127.58"/>
<polygon fill="#63b8ff" stroke="#63b8ff" points="1813.26,-168.52 1823.63,-166.35 1814.17,-161.58 1813.26,-168.52"/>
</a>
</g>
</g>
<!-- Node13 -->
<g id="Node000013" class="node">
<title>Node13</title>
<g id="a_Node000013"><a xlink:href="_hurricane_forcing_8cpp.html" target="_top" xlink:title=" ">
<polygon fill="white" stroke="#666666" points="1036,-129 877,-129 877,-77 1036,-77 1036,-129"/>
<text text-anchor="start" x="885" y="-117" font-family="Helvetica,sans-Serif" font-size="10.00">/home/runner/work/kynema</text>
<text text-anchor="start" x="885" y="-106" font-family="Helvetica,sans-Serif" font-size="10.00">&#45;sgf/kynema&#45;sgf/src/equation</text>
<text text-anchor="start" x="885" y="-95" font-family="Helvetica,sans-Serif" font-size="10.00">_systems/icns/source_terms</text>
<text text-anchor="middle" x="956.5" y="-84" font-family="Helvetica,sans-Serif" font-size="10.00">/HurricaneForcing.cpp</text>
</a>
</g>
</g>
<!-- Node6&#45;&gt;Node13 -->
<g id="edge12_Node000006_Node000013" class="edge">
<title>Node6&#45;&gt;Node13</title>
<g id="a_edge12_Node000006_Node000013"><a xlink:title=" ">
<path fill="none" stroke="#63b8ff" d="M1813.5,-165.02C1473.69,-119.82 1379.97,-183.08 1045.5,-129 1042.49,-128.51 1039.44,-127.96 1036.36,-127.36"/>
<polygon fill="#63b8ff" stroke="#63b8ff" points="1813.25,-168.51 1823.62,-166.39 1814.18,-161.58 1813.25,-168.51"/>
</a>
</g>
</g>
<!-- Node14 -->
<g id="Node000014" class="node">
<title>Node14</title>
<g id="a_Node000014"><a xlink:href="_a_b_l_meso_forcing_temp_8cpp.html" target="_top" xlink:title=" ">
<polygon fill="white" stroke="#666666" points="1234.5,-129 1054.5,-129 1054.5,-77 1234.5,-77 1234.5,-129"/>
<text text-anchor="start" x="1062.5" y="-117" font-family="Helvetica,sans-Serif" font-size="10.00">/home/runner/work/kynema</text>
<text text-anchor="start" x="1062.5" y="-106" font-family="Helvetica,sans-Serif" font-size="10.00">&#45;sgf/kynema&#45;sgf/src/equation</text>
<text text-anchor="start" x="1062.5" y="-95" font-family="Helvetica,sans-Serif" font-size="10.00">_systems/temperature/source</text>
<text text-anchor="middle" x="1144.5" y="-84" font-family="Helvetica,sans-Serif" font-size="10.00">_terms/ABLMesoForcingTemp.cpp</text>
</a>
</g>
</g>
<!-- Node6&#45;&gt;Node14 -->
<g id="edge13_Node000006_Node000014" class="edge">
<title>Node6&#45;&gt;Node14</title>
<g id="a_edge13_Node000006_Node000014"><a xlink:title=" ">
<path fill="none" stroke="#63b8ff" d="M1813.4,-164.99C1561.03,-129.49 1491.41,-167.78 1243.5,-129 1240.61,-128.55 1237.68,-128.05 1234.73,-127.51"/>
<polygon fill="#63b8ff" stroke="#63b8ff" points="1813.22,-168.5 1823.62,-166.45 1814.21,-161.57 1813.22,-168.5"/>
</a>
</g>
</g>
<!-- Node15 -->
<g id="Node000015" class="node">
<title>Node15</title>
<g id="a_Node000015"><a xlink:href="_hurricane_temp_forcing_8cpp.html" target="_top" xlink:title=" ">
<polygon fill="white" stroke="#666666" points="1434.5,-129 1252.5,-129 1252.5,-77 1434.5,-77 1434.5,-129"/>
<text text-anchor="start" x="1260.5" y="-117" font-family="Helvetica,sans-Serif" font-size="10.00">/home/runner/work/kynema</text>
<text text-anchor="start" x="1260.5" y="-106" font-family="Helvetica,sans-Serif" font-size="10.00">&#45;sgf/kynema&#45;sgf/src/equation</text>
<text text-anchor="start" x="1260.5" y="-95" font-family="Helvetica,sans-Serif" font-size="10.00">_systems/temperature/source</text>
<text text-anchor="middle" x="1343.5" y="-84" font-family="Helvetica,sans-Serif" font-size="10.00">_terms/HurricaneTempForcing.cpp</text>
</a>
</g>
</g>
<!-- Node6&#45;&gt;Node15 -->
<g id="edge14_Node000006_Node000015" class="edge">
<title>Node6&#45;&gt;Node15</title>
<g id="a_edge14_Node000006_Node000015"><a xlink:title=" ">
<path fill="none" stroke="#63b8ff" d="M1813.63,-164.98C1649.21,-139.14 1603.56,-156.62 1443.5,-129 1440.59,-128.5 1437.64,-127.96 1434.67,-127.38"/>
<polygon fill="#63b8ff" stroke="#63b8ff" points="1813.17,-168.45 1823.6,-166.58 1814.27,-161.54 1813.17,-168.45"/>
</a>
</g>
</g>
<!-- Node16 -->
<g id="Node000016" class="node">
<title>Node16</title>
<g id="a_Node000016"><a xlink:href="helics_8cpp.html" target="_top" xlink:title=" ">
<polygon fill="white" stroke="#666666" points="1618,-118 1453,-118 1453,-88 1618,-88 1618,-118"/>
<text text-anchor="start" x="1461" y="-106" font-family="Helvetica,sans-Serif" font-size="10.00">/home/runner/work/kynema</text>
<text text-anchor="middle" x="1535.5" y="-95" font-family="Helvetica,sans-Serif" font-size="10.00">&#45;sgf/kynema&#45;sgf/src/helics.cpp</text>
</a>
</g>
</g>
<!-- Node6&#45;&gt;Node16 -->
<g id="edge15_Node000006_Node000016" class="edge">
<title>Node6&#45;&gt;Node16</title>
<g id="a_edge15_Node000006_Node000016"><a xlink:title=" ">
<path fill="none" stroke="#63b8ff" d="M1813.95,-164.93C1729.54,-147.52 1706.28,-147.57 1626.5,-129 1612.62,-125.77 1597.66,-121.85 1583.96,-118.08"/>
<polygon fill="#63b8ff" stroke="#63b8ff" points="1813.48,-168.41 1823.99,-167.03 1814.91,-161.56 1813.48,-168.41"/>
</a>
</g>
</g>
<!-- Node17 -->
<g id="Node000017" class="node">
<title>Node17</title>
<g id="a_Node000017"><a xlink:href="incflo_8cpp.html" target="_top" xlink:title=" ">
<polygon fill="white" stroke="#666666" points="1799,-118 1636,-118 1636,-88 1799,-88 1799,-118"/>
<text text-anchor="start" x="1644" y="-106" font-family="Helvetica,sans-Serif" font-size="10.00">/home/runner/work/kynema</text>
<text text-anchor="middle" x="1717.5" y="-95" font-family="Helvetica,sans-Serif" font-size="10.00">&#45;sgf/kynema&#45;sgf/src/incflo.cpp</text>
</a>
</g>
</g>
<!-- Node6&#45;&gt;Node17 -->
<g id="edge16_Node000006_Node000017" class="edge">
<title>Node6&#45;&gt;Node17</title>
<g id="a_edge16_Node000006_Node000017"><a xlink:title=" ">
<path fill="none" stroke="#63b8ff" d="M1845.5,-160.62C1814.18,-146.76 1775.81,-129.79 1749.3,-118.06"/>
<polygon fill="#63b8ff" stroke="#63b8ff" points="1844.42,-163.96 1854.98,-164.81 1847.25,-157.56 1844.42,-163.96"/>
</a>
</g>
</g>
<!-- Node18 -->
<g id="Node000018" class="node">
<title>Node18</title>
<g id="a_Node000018"><a xlink:href="nodal__projection__ops_8_h.html" target="_top" xlink:title=" ">
<polygon fill="white" stroke="#666666" points="1982,-123.5 1817,-123.5 1817,-82.5 1982,-82.5 1982,-123.5"/>
<text text-anchor="start" x="1825" y="-111.5" font-family="Helvetica,sans-Serif" font-size="10.00">/home/runner/work/kynema</text>
<text text-anchor="start" x="1825" y="-100.5" font-family="Helvetica,sans-Serif" font-size="10.00">&#45;sgf/kynema&#45;sgf/src/projection</text>
<text text-anchor="middle" x="1899.5" y="-89.5" font-family="Helvetica,sans-Serif" font-size="10.00">/nodal_projection_ops.H</text>
</a>
</g>
</g>
<!-- Node6&#45;&gt;Node18 -->
<g id="edge17_Node000006_Node000018" class="edge">
<title>Node6&#45;&gt;Node18</title>
<g id="a_edge17_Node000006_Node000018"><a xlink:title=" ">
<path fill="none" stroke="#63b8ff" d="M1899.5,-154.37C1899.5,-144.1 1899.5,-132.9 1899.5,-123.67"/>
<polygon fill="#63b8ff" stroke="#63b8ff" points="1896,-154.6 1899.5,-164.6 1903,-154.6 1896,-154.6"/>
</a>
</g>
</g>
<!-- Node21 -->
<g id="Node000021" class="node">
<title>Node21</title>
<g id="a_Node000021"><a xlink:href="init_8cpp.html" target="_top" xlink:title=" ">
<polygon fill="white" stroke="#666666" points="2151,-123.5 2000,-123.5 2000,-82.5 2151,-82.5 2151,-123.5"/>
<text text-anchor="start" x="2008" y="-111.5" font-family="Helvetica,sans-Serif" font-size="10.00">/home/runner/work/kynema</text>
<text text-anchor="start" x="2008" y="-100.5" font-family="Helvetica,sans-Serif" font-size="10.00">&#45;sgf/kynema&#45;sgf/src/setup</text>
<text text-anchor="middle" x="2075.5" y="-89.5" font-family="Helvetica,sans-Serif" font-size="10.00">/init.cpp</text>
</a>
</g>
</g>
<!-- Node6&#45;&gt;Node21 -->
<g id="edge20_Node000006_Node000021" class="edge">
<title>Node6&#45;&gt;Node21</title>
<g id="a_edge20_Node000006_Node000021"><a xlink:title=" ">
<path fill="none" stroke="#63b8ff" d="M1951.8,-160.58C1977.56,-148.8 2008.23,-134.77 2032.59,-123.63"/>
<polygon fill="#63b8ff" stroke="#63b8ff" points="1950.19,-157.47 1942.55,-164.81 1953.1,-163.83 1950.19,-157.47"/>
</a>
</g>
</g>
<!-- Node22 -->
<g id="Node000022" class="node">
<title>Node22</title>
<g id="a_Node000022"><a xlink:href="_kosovic_8cpp.html" target="_top" xlink:title=" ">
<polygon fill="white" stroke="#666666" points="2337.5,-123.5 2169.5,-123.5 2169.5,-82.5 2337.5,-82.5 2337.5,-123.5"/>
<text text-anchor="start" x="2177.5" y="-111.5" font-family="Helvetica,sans-Serif" font-size="10.00">/home/runner/work/kynema</text>
<text text-anchor="start" x="2177.5" y="-100.5" font-family="Helvetica,sans-Serif" font-size="10.00">&#45;sgf/kynema&#45;sgf/src/turbulence</text>
<text text-anchor="middle" x="2253.5" y="-89.5" font-family="Helvetica,sans-Serif" font-size="10.00">/LES/Kosovic.cpp</text>
</a>
</g>
</g>
<!-- Node6&#45;&gt;Node22 -->
<g id="edge21_Node000006_Node000022" class="edge">
<title>Node6&#45;&gt;Node22</title>
<g id="a_edge21_Node000006_Node000022"><a xlink:title=" ">
<path fill="none" stroke="#63b8ff" d="M1985.13,-167.49C2036.2,-157.04 2102.23,-143.02 2160.5,-129 2167.57,-127.3 2174.92,-125.45 2182.26,-123.56"/>
<polygon fill="#63b8ff" stroke="#63b8ff" points="1984.22,-164.1 1975.12,-169.53 1985.62,-170.96 1984.22,-164.1"/>
</a>
</g>
</g>
<!-- Node23 -->
<g id="Node000023" class="node">
<title>Node23</title>
<g id="a_Node000023"><a xlink:href="_a_b_l_8cpp.html" target="_top" xlink:title=" ">
<polygon fill="white" stroke="#666666" points="2507,-123.5 2356,-123.5 2356,-82.5 2507,-82.5 2507,-123.5"/>
<text text-anchor="start" x="2364" y="-111.5" font-family="Helvetica,sans-Serif" font-size="10.00">/home/runner/work/kynema</text>
<text text-anchor="start" x="2364" y="-100.5" font-family="Helvetica,sans-Serif" font-size="10.00">&#45;sgf/kynema&#45;sgf/src/wind</text>
<text text-anchor="middle" x="2431.5" y="-89.5" font-family="Helvetica,sans-Serif" font-size="10.00">_energy/ABL.cpp</text>
</a>
</g>
</g>
<!-- Node6&#45;&gt;Node23 -->
<g id="edge22_Node000006_Node000023" class="edge">
<title>Node6&#45;&gt;Node23</title>
<g id="a_edge22_Node000006_Node000023"><a xlink:title=" ">
<path fill="none" stroke="#63b8ff" d="M1985.46,-178C2075.96,-170.19 2222.27,-154.8 2346.5,-129 2353.88,-127.47 2361.55,-125.61 2369.13,-123.6"/>
<polygon fill="#63b8ff" stroke="#63b8ff" points="1984.92,-174.54 1975.25,-178.87 1985.51,-181.51 1984.92,-174.54"/>
</a>
</g>
</g>
<!-- Node24 -->
<g id="Node000024" class="node">
<title>Node24</title>
<g id="a_Node000024"><a xlink:href="_a_b_l_anelastic_8cpp.html" target="_top" xlink:title=" ">
<polygon fill="white" stroke="#666666" points="2676,-123.5 2525,-123.5 2525,-82.5 2676,-82.5 2676,-123.5"/>
<text text-anchor="start" x="2533" y="-111.5" font-family="Helvetica,sans-Serif" font-size="10.00">/home/runner/work/kynema</text>
<text text-anchor="start" x="2533" y="-100.5" font-family="Helvetica,sans-Serif" font-size="10.00">&#45;sgf/kynema&#45;sgf/src/wind</text>
<text text-anchor="middle" x="2600.5" y="-89.5" font-family="Helvetica,sans-Serif" font-size="10.00">_energy/ABLAnelastic.cpp</text>
</a>
</g>
</g>
<!-- Node6&#45;&gt;Node24 -->
<g id="edge23_Node000006_Node000024" class="edge">
<title>Node6&#45;&gt;Node24</title>
<g id="a_edge23_Node000006_Node000024"><a xlink:title=" ">
<path fill="none" stroke="#63b8ff" d="M1985.42,-182.18C2105.32,-177.71 2329.19,-164.92 2516.5,-129 2524.12,-127.54 2532.04,-125.67 2539.83,-123.61"/>
<polygon fill="#63b8ff" stroke="#63b8ff" points="1985.07,-178.69 1975.21,-182.54 1985.33,-185.68 1985.07,-178.69"/>
</a>
</g>
</g>
<!-- Node6&#45;&gt;Node25 -->
<g id="edge24_Node000006_Node000025" class="edge">
<title>Node6&#45;&gt;Node25</title>
<g id="a_edge24_Node000006_Node000025"><a xlink:title=" ">
<path fill="none" stroke="#63b8ff" d="M1985.53,-181.51C2235.72,-172.66 2951.96,-146.12 3056.5,-129 3064.96,-127.61 3073.77,-125.7 3082.4,-123.54"/>
<polygon fill="#63b8ff" stroke="#63b8ff" points="1985.27,-178.02 1975.4,-181.87 1985.51,-185.01 1985.27,-178.02"/>
</a>
</g>
</g>
<!-- Node19 -->
<g id="Node000019" class="node">
<title>Node19</title>
<g id="a_Node000019"><a xlink:href="_overset_ops_8cpp.html" target="_top" xlink:title=" ">
<polygon fill="white" stroke="#666666" points="1882,-41 1729,-41 1729,0 1882,0 1882,-41"/>
<text text-anchor="start" x="1737" y="-29" font-family="Helvetica,sans-Serif" font-size="10.00">/home/runner/work/kynema</text>
<text text-anchor="start" x="1737" y="-18" font-family="Helvetica,sans-Serif" font-size="10.00">&#45;sgf/kynema&#45;sgf/src/overset</text>
<text text-anchor="middle" x="1805.5" y="-7" font-family="Helvetica,sans-Serif" font-size="10.00">/OversetOps.cpp</text>
</a>
</g>
</g>
<!-- Node18&#45;&gt;Node19 -->
<g id="edge18_Node000018_Node000019" class="edge">
<title>Node18&#45;&gt;Node19</title>
<g id="a_edge18_Node000018_Node000019"><a xlink:title=" ">
<path fill="none" stroke="#63b8ff" d="M1868.43,-75.39C1855.39,-64.22 1840.49,-51.47 1828.47,-41.17"/>
<polygon fill="#63b8ff" stroke="#63b8ff" points="1866.39,-78.25 1876.26,-82.1 1870.95,-72.94 1866.39,-78.25"/>
</a>
</g>
</g>
<!-- Node20 -->
<g id="Node000020" class="node">
<title>Node20</title>
<g id="a_Node000020"><a xlink:href="incflo__apply__nodal__projection_8cpp.html" target="_top" xlink:title=" ">
<polygon fill="white" stroke="#666666" points="2085,-41 1900,-41 1900,0 2085,0 2085,-41"/>
<text text-anchor="start" x="1908" y="-29" font-family="Helvetica,sans-Serif" font-size="10.00">/home/runner/work/kynema</text>
<text text-anchor="start" x="1908" y="-18" font-family="Helvetica,sans-Serif" font-size="10.00">&#45;sgf/kynema&#45;sgf/src/projection</text>
<text text-anchor="middle" x="1992.5" y="-7" font-family="Helvetica,sans-Serif" font-size="10.00">/incflo_apply_nodal_projection.cpp</text>
</a>
</g>
</g>
<!-- Node18&#45;&gt;Node20 -->
<g id="edge19_Node000018_Node000020" class="edge">
<title>Node18&#45;&gt;Node20</title>
<g id="a_edge19_Node000018_Node000020"><a xlink:title=" ">
<path fill="none" stroke="#63b8ff" d="M1930.24,-75.39C1943.14,-64.22 1957.88,-51.47 1969.78,-41.17"/>
<polygon fill="#63b8ff" stroke="#63b8ff" points="1927.76,-72.91 1922.49,-82.1 1932.34,-78.2 1927.76,-72.91"/>
</a>
</g>
</g>
<!-- Node27 -->
<g id="Node000027" class="node">
<title>Node27</title>
<g id="a_Node000027"><a xlink:href="_a_b_l_stats_8cpp.html" target="_top" xlink:title=" ">
<polygon fill="white" stroke="#666666" points="151,-123.5 0,-123.5 0,-82.5 151,-82.5 151,-123.5"/>
<text text-anchor="start" x="8" y="-111.5" font-family="Helvetica,sans-Serif" font-size="10.00">/home/runner/work/kynema</text>
<text text-anchor="start" x="8" y="-100.5" font-family="Helvetica,sans-Serif" font-size="10.00">&#45;sgf/kynema&#45;sgf/src/wind</text>
<text text-anchor="middle" x="75.5" y="-89.5" font-family="Helvetica,sans-Serif" font-size="10.00">_energy/ABLStats.cpp</text>
</a>
</g>
</g>
<!-- Node26&#45;&gt;Node27 -->
<g id="edge26_Node000026_Node000027" class="edge">
<title>Node26&#45;&gt;Node27</title>
<g id="a_edge26_Node000026_Node000027"><a xlink:title=" ">
<path fill="none" stroke="#63b8ff" d="M1644.67,-184.33C1360.06,-183.33 448.98,-176.4 159.5,-129 151.24,-127.65 142.65,-125.72 134.26,-123.53"/>
<polygon fill="#63b8ff" stroke="#63b8ff" points="1644.92,-187.83 1654.93,-184.37 1644.95,-180.83 1644.92,-187.83"/>
</a>
</g>
</g>
<!-- Node28&#45;&gt;Node6 -->
<g id="edge28_Node000028_Node000006" class="edge">
<title>Node28&#45;&gt;Node6</title>
<g id="a_edge28_Node000028_Node000006"><a xlink:title=" ">
<path fill="none" stroke="#63b8ff" d="M1899.5,-236.87C1899.5,-226.6 1899.5,-215.4 1899.5,-206.17"/>
<polygon fill="#63b8ff" stroke="#63b8ff" points="1896,-237.1 1899.5,-247.1 1903,-237.1 1896,-237.1"/>
</a>
</g>
</g>
<!-- Node28&#45;&gt;Node26 -->
<g id="edge29_Node000028_Node000026" class="edge">
<title>Node28&#45;&gt;Node26</title>
<g id="a_edge29_Node000028_Node000026"><a xlink:title=" ">
<path fill="none" stroke="#63b8ff" d="M1848.95,-242.92C1824.29,-231.17 1794.99,-217.22 1771.71,-206.13"/>
<polygon fill="#63b8ff" stroke="#63b8ff" points="1847.62,-246.17 1858.16,-247.31 1850.63,-239.85 1847.62,-246.17"/>
</a>
</g>
</g>
<!-- Node30&#45;&gt;Node25 -->
<g id="edge36_Node000030_Node000025" class="edge">
<title>Node30&#45;&gt;Node25</title>
<g id="a_edge36_Node000030_Node000025"><a xlink:title=" ">
<path fill="none" stroke="#63b8ff" d="M2990.1,-325.37C2984.48,-285.15 2980.66,-212.82 3014.5,-165 3027.97,-145.97 3048.94,-132.71 3070.13,-123.53"/>
<polygon fill="#63b8ff" stroke="#63b8ff" points="2986.65,-325.99 2991.62,-335.34 2993.57,-324.93 2986.65,-325.99"/>
</a>
</g>
</g>
<!-- Node31 -->
<g id="Node000031" class="node">
<title>Node31</title>
<g id="a_Node000031"><a xlink:href="_shear_stress_simple_8_h.html" target="_top" xlink:title=" ">
<polygon fill="white" stroke="#666666" points="3227,-294 3030,-294 3030,-242 3227,-242 3227,-294"/>
<text text-anchor="start" x="3038" y="-282" font-family="Helvetica,sans-Serif" font-size="10.00">/home/runner/work/kynema</text>
<text text-anchor="start" x="3038" y="-271" font-family="Helvetica,sans-Serif" font-size="10.00">&#45;sgf/kynema&#45;sgf/src/boundary</text>
<text text-anchor="start" x="3038" y="-260" font-family="Helvetica,sans-Serif" font-size="10.00">_conditions/wall_models/ShearStress</text>
<text text-anchor="middle" x="3128.5" y="-249" font-family="Helvetica,sans-Serif" font-size="10.00">Simple.H</text>
</a>
</g>
</g>
<!-- Node30&#45;&gt;Node31 -->
<g id="edge34_Node000030_Node000031" class="edge">
<title>Node30&#45;&gt;Node31</title>
<g id="a_edge34_Node000030_Node000031"><a xlink:title=" ">
<path fill="none" stroke="#63b8ff" d="M3034.42,-329.84C3051.71,-318.66 3072.03,-305.52 3089.35,-294.32"/>
<polygon fill="#63b8ff" stroke="#63b8ff" points="3032.18,-327.12 3025.68,-335.49 3035.98,-332.99 3032.18,-327.12"/>
</a>
</g>
</g>
<!-- Node32 -->
<g id="Node000032" class="node">
<title>Node32</title>
<g id="a_Node000032"><a xlink:href="_wall_function_8cpp.html" target="_top" xlink:title=" ">
<polygon fill="white" stroke="#666666" points="3245.5,-206 3023.5,-206 3023.5,-165 3245.5,-165 3245.5,-206"/>
<text text-anchor="start" x="3031.5" y="-194" font-family="Helvetica,sans-Serif" font-size="10.00">/home/runner/work/kynema</text>
<text text-anchor="start" x="3031.5" y="-183" font-family="Helvetica,sans-Serif" font-size="10.00">&#45;sgf/kynema&#45;sgf/src/boundary</text>
<text text-anchor="middle" x="3134.5" y="-172" font-family="Helvetica,sans-Serif" font-size="10.00">_conditions/wall_models/WallFunction.cpp</text>
</a>
</g>
</g>
<!-- Node31&#45;&gt;Node32 -->
<g id="edge35_Node000031_Node000032" class="edge">
<title>Node31&#45;&gt;Node32</title>
<g id="a_edge35_Node000031_Node000032"><a xlink:title=" ">
<path fill="none" stroke="#63b8ff" d="M3131.12,-231.87C3131.78,-223.05 3132.46,-213.9 3133.04,-206.15"/>
<polygon fill="#63b8ff" stroke="#63b8ff" points="3127.62,-231.74 3130.37,-241.97 3134.6,-232.26 3127.62,-231.74"/>
</a>
</g>
</g>
</g>
</svg>

<g id="navigator" transform="translate(0 0)" fill="#404254">
  <rect fill="#f2f5e9" fill-opacity="0.5" stroke="#606060" stroke-width=".5" x="0" y="0" width="60" height="60"/>
  <use id="zoomplus" xlink:href="#zoomPlus" x="17" y="9" onmousedown="handleZoom(evt,'in')"/>
  <use id="zoomminus" xlink:href="#zoomMin" x="42" y="9" onmousedown="handleZoom(evt,'out')"/>
  <use id="reset" xlink:href="#resetDef" x="30" y="36" onmousedown="handleReset()"/>
   <use id="arrowup" xlink:href="#arrowUp" x="0" y="0" onmousedown="handlePan(0,-1)"/>
  <use id="arrowright" xlink:href="#arrowRight" x="0" y="0" onmousedown="handlePan(1,0)"/>
  <use id="arrowdown" xlink:href="#arrowDown" x="0" y="0" onmousedown="handlePan(0,1)"/>
  <use id="arrowleft" xlink:href="#arrowLeft" x="0" y="0" onmousedown="handlePan(-1,0)"/>
</g>
<svg viewBox="0 0 15 15" width="100%" height="30px" preserveAspectRatio="xMaxYMin meet">
 <g id="arrow_out" transform="scale(0.3 0.3)">
  <a xlink:href="_m_o_data_8_h__dep__incl_org.svg" target="_base">
   <rect id="button" ry="5" rx="5" y="6" x="6" height="38" width="38"
        fill="#f2f5e9" fill-opacity="0.5" stroke="#606060" stroke-width="1.0"/>
   <path id="arrow"
     d="M 11.500037,31.436501 C 11.940474,20.09759 22.043105,11.32322 32.158766,21.979434 L 37.068811,17.246167 C 37.068811,17.246167 37.088388,32 37.088388,32 L 22.160133,31.978069 C 22.160133,31.978069 26.997745,27.140456 26.997745,27.140456 C 18.528582,18.264221 13.291696,25.230495 11.500037,31.436501 z"
     style="fill:#404040;"/>
  </a>
 </g>
</svg>

<style type='text/css'>
<![CDATA[
[data-mouse-over-selected='false'] { opacity: 0.7; }
[data-mouse-over-selected='true']  { opacity: 1.0; }
]]>
</style>
<script type="application/ecmascript"><![CDATA[
document.addEventListener('DOMContentLoaded', (event) => {
  highlightEdges();
  highlightAdjacentNodes();
});
]]></script>
</svg>
