<?xml version="1.0" encoding="UTF-8" standalone="no"?>
<!DOCTYPE svg PUBLIC "-//W3C//DTD SVG 1.1//EN"
 "http://www.w3.org/Graphics/SVG/1.1/DTD/svg11.dtd">
<!-- Generated by graphviz version 2.43.0 (0)
 -->
<!-- Title: /home/runner/work/kynema&#45;sgf/kynema&#45;sgf/src/boundary_conditions/field_boundary_fill/OceanWavesBoundary.H Pages: 1 -->
<!--zoomable 313 -->

<svg id="main" version="1.1" xmlns="http://www.w3.org/2000/svg" xmlns:xlink="http://www.w3.org/1999/xlink" xml:space="preserve" onload="init(evt)">

<style type="text/css"><![CDATA[
.node, .edge {opacity: 0.7;}
.node.selected, .edge.selected {opacity: 1;}
.edge:hover path { stroke: red; }
.edge:hover polygon { stroke: red; fill: red; }
]]></style>

<defs>
  <circle id="rim" cx="0" cy="0" r="7"/>
  <circle id="rim2" cx="0" cy="0" r="3.5"/>
  <g id="zoomPlus">
    <use xlink:href="#rim" fill="#404040"><set attributeName="fill" to="#808080" begin="zoomplus.mouseover" end="zoomplus.mouseout"/></use>
    <path d="M-4,0h8M0,-4v8" fill="none" stroke="white" stroke-width="1.5" pointer-events="none"/>
  </g>
  <g id="zoomMin">
    <use xlink:href="#rim" fill="#404040"><set attributeName="fill" to="#808080" begin="zoomminus.mouseover" end="zoomminus.mouseout"/></use>
    <path d="M-4,0h8" fill="none" stroke="white" stroke-width="1.5" pointer-events="none"/>
  </g>
  <g id="arrowUp" transform="translate(30 24)">
    <use xlink:href="#rim"/>
    <path pointer-events="none" fill="none" stroke="white" stroke-width="1.5" d="M0,-3.0v7 M-2.5,-0.5L0,-3.0L2.5,-0.5"/>
  </g>
  <g id="arrowRight" transform="rotate(90) translate(36 -43)">
    <use xlink:href="#rim"/>
    <path pointer-events="none" fill="none" stroke="white" stroke-width="1.5" d="M0,-3.0v7 M-2.5,-0.5L0,-3.0L2.5,-0.5"/>
  </g>
  <g id="arrowDown" transform="rotate(180) translate(-30 -48)">
    <use xlink:href="#rim"/>
    <path pointer-events="none" fill="none" stroke="white" stroke-width="1.5" d="M0,-3.0v7 M-2.5,-0.5L0,-3.0L2.5,-0.5"/>
  </g>
  <g id="arrowLeft" transform="rotate(270) translate(-36 17)">
    <use xlink:href="#rim"/>
    <path pointer-events="none" fill="none" stroke="white" stroke-width="1.5" d="M0,-3.0v7 M-2.5,-0.5L0,-3.0L2.5,-0.5"/>
  </g>
  <g id="resetDef">
    <use xlink:href="#rim2" fill="#404040"><set attributeName="fill" to="#808080" begin="reset.mouseover" end="reset.mouseout"/></use>
  </g>
</defs>
<script type="application/ecmascript">
var viewWidth = 1538;
var viewHeight = 313;
var sectionId = 'dynsection-1';
</script>
<script type="application/ecmascript" xlink:href="svg.min.js"/>
<svg id="graph" class="graph">
<g id="viewport">
<title>/home/runner/work/kynema&#45;sgf/kynema&#45;sgf/src/boundary_conditions/field_boundary_fill/OceanWavesBoundary.H</title>
<!-- Node1 -->
<g id="Node000001" class="node">
<title>Node1</title>
<g id="a_Node000001"><a xlink:title=" ">
<polygon fill="#999999" stroke="#666666" points="423.5,-305 261.5,-305 261.5,-253 423.5,-253 423.5,-305"/>
<text text-anchor="start" x="269.5" y="-293" font-family="Helvetica,sans-Serif" font-size="10.00">/home/runner/work/kynema</text>
<text text-anchor="start" x="269.5" y="-282" font-family="Helvetica,sans-Serif" font-size="10.00">&#45;sgf/kynema&#45;sgf/src/boundary</text>
<text text-anchor="start" x="269.5" y="-271" font-family="Helvetica,sans-Serif" font-size="10.00">_conditions/field_boundary</text>
<text text-anchor="middle" x="342.5" y="-260" font-family="Helvetica,sans-Serif" font-size="10.00">_fill/OceanWavesBoundary.H</text>
</a>
</g>
</g>
<!-- Node2 -->
<g id="Node000002" class="node">
<title>Node2</title>
<g id="a_Node000002"><a xlink:href="_ocean_waves_boundary_8cpp.html" target="_top" xlink:title=" ">
<polygon fill="white" stroke="#666666" points="165,-129 0,-129 0,-77 165,-77 165,-129"/>
<text text-anchor="start" x="8" y="-117" font-family="Helvetica,sans-Serif" font-size="10.00">/home/runner/work/kynema</text>
<text text-anchor="start" x="8" y="-106" font-family="Helvetica,sans-Serif" font-size="10.00">&#45;sgf/kynema&#45;sgf/src/boundary</text>
<text text-anchor="start" x="8" y="-95" font-family="Helvetica,sans-Serif" font-size="10.00">_conditions/field_boundary</text>
<text text-anchor="middle" x="82.5" y="-84" font-family="Helvetica,sans-Serif" font-size="10.00">_fill/OceanWavesBoundary.cpp</text>
</a>
</g>
</g>
<!-- Node1&#45;&gt;Node2 -->
<g id="edge1_Node000001_Node000002" class="edge">
<title>Node1&#45;&gt;Node2</title>
<g id="a_edge1_Node000001_Node000002"><a xlink:title=" ">
<path fill="none" stroke="#63b8ff" d="M251.51,-260.91C219.52,-251.72 184.79,-237.82 157.5,-217 127.17,-193.86 105.19,-154.76 93.14,-129.16"/>
<polygon fill="#63b8ff" stroke="#63b8ff" points="250.76,-264.34 261.33,-263.62 252.62,-257.59 250.76,-264.34"/>
</a>
</g>
</g>
<!-- Node3 -->
<g id="Node000003" class="node">
<title>Node3</title>
<g id="a_Node000003"><a xlink:href="_ocean_waves_fill_inflow_8_h.html" target="_top" xlink:title=" ">
<polygon fill="white" stroke="#666666" points="328.5,-217 166.5,-217 166.5,-165 328.5,-165 328.5,-217"/>
<text text-anchor="start" x="174.5" y="-205" font-family="Helvetica,sans-Serif" font-size="10.00">/home/runner/work/kynema</text>
<text text-anchor="start" x="174.5" y="-194" font-family="Helvetica,sans-Serif" font-size="10.00">&#45;sgf/kynema&#45;sgf/src/boundary</text>
<text text-anchor="start" x="174.5" y="-183" font-family="Helvetica,sans-Serif" font-size="10.00">_conditions/field_boundary</text>
<text text-anchor="middle" x="247.5" y="-172" font-family="Helvetica,sans-Serif" font-size="10.00">_fill/OceanWavesFillInflow.H</text>
</a>
</g>
</g>
<!-- Node1&#45;&gt;Node3 -->
<g id="edge2_Node000001_Node000003" class="edge">
<title>Node1&#45;&gt;Node3</title>
<g id="a_edge2_Node000001_Node000003"><a xlink:title=" ">
<path fill="none" stroke="#63b8ff" d="M307.3,-246.13C296.79,-236.62 285.41,-226.32 275.43,-217.29"/>
<polygon fill="#63b8ff" stroke="#63b8ff" points="305,-248.78 314.77,-252.89 309.7,-243.59 305,-248.78"/>
</a>
</g>
</g>
<!-- Node5 -->
<g id="Node000005" class="node">
<title>Node5</title>
<g id="a_Node000005"><a xlink:href="icns__advection_8cpp.html" target="_top" xlink:title=" ">
<polygon fill="white" stroke="#666666" points="528.5,-211.5 346.5,-211.5 346.5,-170.5 528.5,-170.5 528.5,-211.5"/>
<text text-anchor="start" x="354.5" y="-199.5" font-family="Helvetica,sans-Serif" font-size="10.00">/home/runner/work/kynema</text>
<text text-anchor="start" x="354.5" y="-188.5" font-family="Helvetica,sans-Serif" font-size="10.00">&#45;sgf/kynema&#45;sgf/src/equation</text>
<text text-anchor="middle" x="437.5" y="-177.5" font-family="Helvetica,sans-Serif" font-size="10.00">_systems/icns/icns_advection.cpp</text>
</a>
</g>
</g>
<!-- Node1&#45;&gt;Node5 -->
<g id="edge5_Node000001_Node000005" class="edge">
<title>Node1&#45;&gt;Node5</title>
<g id="a_edge5_Node000001_Node000005"><a xlink:title=" ">
<path fill="none" stroke="#63b8ff" d="M377.98,-245.88C390.73,-234.34 404.72,-221.68 415.93,-211.53"/>
<polygon fill="#63b8ff" stroke="#63b8ff" points="375.3,-243.59 370.23,-252.89 380,-248.78 375.3,-243.59"/>
</a>
</g>
</g>
<!-- Node6 -->
<g id="Node000006" class="node">
<title>Node6</title>
<g id="a_Node000006"><a xlink:href="_ocean_waves_8_h.html" target="_top" xlink:title=" ">
<polygon fill="white" stroke="#666666" points="711,-211.5 560,-211.5 560,-170.5 711,-170.5 711,-211.5"/>
<text text-anchor="start" x="568" y="-199.5" font-family="Helvetica,sans-Serif" font-size="10.00">/home/runner/work/kynema</text>
<text text-anchor="start" x="568" y="-188.5" font-family="Helvetica,sans-Serif" font-size="10.00">&#45;sgf/kynema&#45;sgf/src/ocean</text>
<text text-anchor="middle" x="635.5" y="-177.5" font-family="Helvetica,sans-Serif" font-size="10.00">_waves/OceanWaves.H</text>
</a>
</g>
</g>
<!-- Node1&#45;&gt;Node6 -->
<g id="edge6_Node000001_Node000006" class="edge">
<title>Node1&#45;&gt;Node6</title>
<g id="a_edge6_Node000001_Node000006"><a xlink:title=" ">
<path fill="none" stroke="#63b8ff" d="M433.52,-251.28C477.32,-238.43 528.88,-223.3 568.94,-211.54"/>
<polygon fill="#63b8ff" stroke="#63b8ff" points="432.34,-247.98 423.73,-254.16 434.31,-254.7 432.34,-247.98"/>
</a>
</g>
</g>
<!-- Node3&#45;&gt;Node2 -->
<g id="edge3_Node000003_Node000002" class="edge">
<title>Node3&#45;&gt;Node2</title>
<g id="a_edge3_Node000003_Node000002"><a xlink:title=" ">
<path fill="none" stroke="#63b8ff" d="M190.28,-160.18C170.86,-150.06 149.37,-138.86 130.73,-129.14"/>
<polygon fill="#63b8ff" stroke="#63b8ff" points="188.85,-163.38 199.33,-164.89 192.08,-157.17 188.85,-163.38"/>
</a>
</g>
</g>
<!-- Node4 -->
<g id="Node000004" class="node">
<title>Node4</title>
<g id="a_Node000004"><a xlink:href="_ocean_waves_fill_inflow_8cpp.html" target="_top" xlink:title=" ">
<polygon fill="white" stroke="#666666" points="346,-129 183,-129 183,-77 346,-77 346,-129"/>
<text text-anchor="start" x="191" y="-117" font-family="Helvetica,sans-Serif" font-size="10.00">/home/runner/work/kynema</text>
<text text-anchor="start" x="191" y="-106" font-family="Helvetica,sans-Serif" font-size="10.00">&#45;sgf/kynema&#45;sgf/src/boundary</text>
<text text-anchor="start" x="191" y="-95" font-family="Helvetica,sans-Serif" font-size="10.00">_conditions/field_boundary</text>
<text text-anchor="middle" x="264.5" y="-84" font-family="Helvetica,sans-Serif" font-size="10.00">_fill/OceanWavesFillInflow.cpp</text>
</a>
</g>
</g>
<!-- Node3&#45;&gt;Node4 -->
<g id="edge4_Node000003_Node000004" class="edge">
<title>Node3&#45;&gt;Node4</title>
<g id="a_edge4_Node000003_Node000004"><a xlink:title=" ">
<path fill="none" stroke="#63b8ff" d="M254.45,-154.84C256.15,-146.23 257.94,-137.19 259.53,-129.16"/>
<polygon fill="#63b8ff" stroke="#63b8ff" points="251.01,-154.17 252.51,-164.66 257.88,-155.53 251.01,-154.17"/>
</a>
</g>
</g>
<!-- Node7 -->
<g id="Node000007" class="node">
<title>Node7</title>
<g id="a_Node000007"><a xlink:href="_ocean_waves_8cpp.html" target="_top" xlink:title=" ">
<polygon fill="white" stroke="#666666" points="515,-123.5 364,-123.5 364,-82.5 515,-82.5 515,-123.5"/>
<text text-anchor="start" x="372" y="-111.5" font-family="Helvetica,sans-Serif" font-size="10.00">/home/runner/work/kynema</text>
<text text-anchor="start" x="372" y="-100.5" font-family="Helvetica,sans-Serif" font-size="10.00">&#45;sgf/kynema&#45;sgf/src/ocean</text>
<text text-anchor="middle" x="439.5" y="-89.5" font-family="Helvetica,sans-Serif" font-size="10.00">_waves/OceanWaves.cpp</text>
</a>
</g>
</g>
<!-- Node6&#45;&gt;Node7 -->
<g id="edge7_Node000006_Node000007" class="edge">
<title>Node6&#45;&gt;Node7</title>
<g id="a_edge7_Node000006_Node000007"><a xlink:title=" ">
<path fill="none" stroke="#63b8ff" d="M581.76,-166.42C551.11,-152.97 513.14,-136.31 484.14,-123.59"/>
<polygon fill="#63b8ff" stroke="#63b8ff" points="580.46,-169.67 591.02,-170.49 583.27,-163.26 580.46,-169.67"/>
</a>
</g>
</g>
<!-- Node8 -->
<g id="Node000008" class="node">
<title>Node8</title>
<g id="a_Node000008"><a xlink:href="linear__waves__ops_8_h.html" target="_top" xlink:title=" ">
<polygon fill="white" stroke="#666666" points="703.5,-129 533.5,-129 533.5,-77 703.5,-77 703.5,-129"/>
<text text-anchor="start" x="541.5" y="-117" font-family="Helvetica,sans-Serif" font-size="10.00">/home/runner/work/kynema</text>
<text text-anchor="start" x="541.5" y="-106" font-family="Helvetica,sans-Serif" font-size="10.00">&#45;sgf/kynema&#45;sgf/src/ocean</text>
<text text-anchor="start" x="541.5" y="-95" font-family="Helvetica,sans-Serif" font-size="10.00">_waves/relaxation_zones/linear</text>
<text text-anchor="middle" x="618.5" y="-84" font-family="Helvetica,sans-Serif" font-size="10.00">_waves_ops.H</text>
</a>
</g>
</g>
<!-- Node6&#45;&gt;Node8 -->
<g id="edge8_Node000006_Node000008" class="edge">
<title>Node6&#45;&gt;Node8</title>
<g id="a_edge8_Node000006_Node000008"><a xlink:title=" ">
<path fill="none" stroke="#63b8ff" d="M629.66,-160.44C627.65,-150.31 625.43,-139.08 623.5,-129.32"/>
<polygon fill="#63b8ff" stroke="#63b8ff" points="626.27,-161.35 631.64,-170.49 633.14,-160 626.27,-161.35"/>
</a>
</g>
</g>
<!-- Node10 -->
<g id="Node000010" class="node">
<title>Node10</title>
<g id="a_Node000010"><a xlink:href="stokes__waves__ops_8_h.html" target="_top" xlink:title=" ">
<polygon fill="white" stroke="#666666" points="895.5,-129 721.5,-129 721.5,-77 895.5,-77 895.5,-129"/>
<text text-anchor="start" x="729.5" y="-117" font-family="Helvetica,sans-Serif" font-size="10.00">/home/runner/work/kynema</text>
<text text-anchor="start" x="729.5" y="-106" font-family="Helvetica,sans-Serif" font-size="10.00">&#45;sgf/kynema&#45;sgf/src/ocean</text>
<text text-anchor="start" x="729.5" y="-95" font-family="Helvetica,sans-Serif" font-size="10.00">_waves/relaxation_zones/stokes</text>
<text text-anchor="middle" x="808.5" y="-84" font-family="Helvetica,sans-Serif" font-size="10.00">_waves_ops.H</text>
</a>
</g>
</g>
<!-- Node6&#45;&gt;Node10 -->
<g id="edge10_Node000006_Node000010" class="edge">
<title>Node6&#45;&gt;Node10</title>
<g id="a_edge10_Node000006_Node000010"><a xlink:title=" ">
<path fill="none" stroke="#63b8ff" d="M684,-165.89C707.05,-154.43 734.58,-140.74 757.89,-129.16"/>
<polygon fill="#63b8ff" stroke="#63b8ff" points="682.15,-162.9 674.76,-170.49 685.27,-169.17 682.15,-162.9"/>
</a>
</g>
</g>
<!-- Node12 -->
<g id="Node000012" class="node">
<title>Node12</title>
<g id="a_Node000012"><a xlink:href="waves2amr__ops_8_h.html" target="_top" xlink:title=" ">
<polygon fill="white" stroke="#666666" points="1149,-123.5 916,-123.5 916,-82.5 1149,-82.5 1149,-123.5"/>
<text text-anchor="start" x="924" y="-111.5" font-family="Helvetica,sans-Serif" font-size="10.00">/home/runner/work/kynema</text>
<text text-anchor="start" x="924" y="-100.5" font-family="Helvetica,sans-Serif" font-size="10.00">&#45;sgf/kynema&#45;sgf/src/ocean</text>
<text text-anchor="middle" x="1032.5" y="-89.5" font-family="Helvetica,sans-Serif" font-size="10.00">_waves/relaxation_zones/waves2amr_ops.H</text>
</a>
</g>
</g>
<!-- Node6&#45;&gt;Node12 -->
<g id="edge12_Node000006_Node000012" class="edge">
<title>Node6&#45;&gt;Node12</title>
<g id="a_edge12_Node000006_Node000012"><a xlink:title=" ">
<path fill="none" stroke="#63b8ff" d="M720.95,-171.49C786.18,-157.36 875.83,-137.94 942.22,-123.56"/>
<polygon fill="#63b8ff" stroke="#63b8ff" points="720.14,-168.08 711.11,-173.62 721.62,-174.93 720.14,-168.08"/>
</a>
</g>
</g>
<!-- Node14 -->
<g id="Node000014" class="node">
<title>Node14</title>
<g id="a_Node000014"><a xlink:href="nodal__projection__ops_8_h.html" target="_top" xlink:title=" ">
<polygon fill="white" stroke="#666666" points="1333,-123.5 1168,-123.5 1168,-82.5 1333,-82.5 1333,-123.5"/>
<text text-anchor="start" x="1176" y="-111.5" font-family="Helvetica,sans-Serif" font-size="10.00">/home/runner/work/kynema</text>
<text text-anchor="start" x="1176" y="-100.5" font-family="Helvetica,sans-Serif" font-size="10.00">&#45;sgf/kynema&#45;sgf/src/projection</text>
<text text-anchor="middle" x="1250.5" y="-89.5" font-family="Helvetica,sans-Serif" font-size="10.00">/nodal_projection_ops.H</text>
</a>
</g>
</g>
<!-- Node6&#45;&gt;Node14 -->
<g id="edge14_Node000006_Node000014" class="edge">
<title>Node6&#45;&gt;Node14</title>
<g id="a_edge14_Node000006_Node000014"><a xlink:title=" ">
<path fill="none" stroke="#63b8ff" d="M721.36,-183.84C825.29,-175.5 1005.3,-158.19 1157.5,-129 1165.63,-127.44 1174.09,-125.55 1182.45,-123.51"/>
<polygon fill="#63b8ff" stroke="#63b8ff" points="720.93,-180.36 711.23,-184.64 721.48,-187.34 720.93,-180.36"/>
</a>
</g>
</g>
<!-- Node9 -->
<g id="Node000009" class="node">
<title>Node9</title>
<g id="a_Node000009"><a xlink:href="_linear_waves_8cpp.html" target="_top" xlink:title=" ">
<polygon fill="white" stroke="#666666" points="676,-41 451,-41 451,0 676,0 676,-41"/>
<text text-anchor="start" x="459" y="-29" font-family="Helvetica,sans-Serif" font-size="10.00">/home/runner/work/kynema</text>
<text text-anchor="start" x="459" y="-18" font-family="Helvetica,sans-Serif" font-size="10.00">&#45;sgf/kynema&#45;sgf/src/ocean</text>
<text text-anchor="middle" x="563.5" y="-7" font-family="Helvetica,sans-Serif" font-size="10.00">_waves/relaxation_zones/LinearWaves.cpp</text>
</a>
</g>
</g>
<!-- Node8&#45;&gt;Node9 -->
<g id="edge9_Node000008_Node000009" class="edge">
<title>Node8&#45;&gt;Node9</title>
<g id="a_edge9_Node000008_Node000009"><a xlink:title=" ">
<path fill="none" stroke="#63b8ff" d="M595.68,-68.6C589.3,-59.25 582.57,-49.41 576.92,-41.15"/>
<polygon fill="#63b8ff" stroke="#63b8ff" points="592.87,-70.69 601.4,-76.97 598.65,-66.74 592.87,-70.69"/>
</a>
</g>
</g>
<!-- Node11 -->
<g id="Node000011" class="node">
<title>Node11</title>
<g id="a_Node000011"><a xlink:href="_stokes_waves_8cpp.html" target="_top" xlink:title=" ">
<polygon fill="white" stroke="#666666" points="921,-41 694,-41 694,0 921,0 921,-41"/>
<text text-anchor="start" x="702" y="-29" font-family="Helvetica,sans-Serif" font-size="10.00">/home/runner/work/kynema</text>
<text text-anchor="start" x="702" y="-18" font-family="Helvetica,sans-Serif" font-size="10.00">&#45;sgf/kynema&#45;sgf/src/ocean</text>
<text text-anchor="middle" x="807.5" y="-7" font-family="Helvetica,sans-Serif" font-size="10.00">_waves/relaxation_zones/StokesWaves.cpp</text>
</a>
</g>
</g>
<!-- Node10&#45;&gt;Node11 -->
<g id="edge11_Node000010_Node000011" class="edge">
<title>Node10&#45;&gt;Node11</title>
<g id="a_edge11_Node000010_Node000011"><a xlink:title=" ">
<path fill="none" stroke="#63b8ff" d="M808.06,-66.87C807.95,-58.05 807.84,-48.9 807.74,-41.15"/>
<polygon fill="#63b8ff" stroke="#63b8ff" points="804.57,-67.01 808.19,-76.97 811.56,-66.93 804.57,-67.01"/>
</a>
</g>
</g>
<!-- Node13 -->
<g id="Node000013" class="node">
<title>Node13</title>
<g id="a_Node000013"><a xlink:href="_w2_a_waves_8cpp.html" target="_top" xlink:title=" ">
<polygon fill="white" stroke="#666666" points="1156,-41 939,-41 939,0 1156,0 1156,-41"/>
<text text-anchor="start" x="947" y="-29" font-family="Helvetica,sans-Serif" font-size="10.00">/home/runner/work/kynema</text>
<text text-anchor="start" x="947" y="-18" font-family="Helvetica,sans-Serif" font-size="10.00">&#45;sgf/kynema&#45;sgf/src/ocean</text>
<text text-anchor="middle" x="1047.5" y="-7" font-family="Helvetica,sans-Serif" font-size="10.00">_waves/relaxation_zones/W2AWaves.cpp</text>
</a>
</g>
</g>
<!-- Node12&#45;&gt;Node13 -->
<g id="edge13_Node000012_Node000013" class="edge">
<title>Node12&#45;&gt;Node13</title>
<g id="a_edge13_Node000012_Node000013"><a xlink:title=" ">
<path fill="none" stroke="#63b8ff" d="M1038.05,-72.19C1039.98,-61.84 1042.1,-50.5 1043.83,-41.17"/>
<polygon fill="#63b8ff" stroke="#63b8ff" points="1034.6,-71.63 1036.21,-82.1 1041.48,-72.91 1034.6,-71.63"/>
</a>
</g>
</g>
<!-- Node15 -->
<g id="Node000015" class="node">
<title>Node15</title>
<g id="a_Node000015"><a xlink:href="_overset_ops_8cpp.html" target="_top" xlink:title=" ">
<polygon fill="white" stroke="#666666" points="1327,-41 1174,-41 1174,0 1327,0 1327,-41"/>
<text text-anchor="start" x="1182" y="-29" font-family="Helvetica,sans-Serif" font-size="10.00">/home/runner/work/kynema</text>
<text text-anchor="start" x="1182" y="-18" font-family="Helvetica,sans-Serif" font-size="10.00">&#45;sgf/kynema&#45;sgf/src/overset</text>
<text text-anchor="middle" x="1250.5" y="-7" font-family="Helvetica,sans-Serif" font-size="10.00">/OversetOps.cpp</text>
</a>
</g>
</g>
<!-- Node14&#45;&gt;Node15 -->
<g id="edge15_Node000014_Node000015" class="edge">
<title>Node14&#45;&gt;Node15</title>
<g id="a_edge15_Node000014_Node000015"><a xlink:title=" ">
<path fill="none" stroke="#63b8ff" d="M1250.5,-71.87C1250.5,-61.6 1250.5,-50.4 1250.5,-41.17"/>
<polygon fill="#63b8ff" stroke="#63b8ff" points="1247,-72.1 1250.5,-82.1 1254,-72.1 1247,-72.1"/>
</a>
</g>
</g>
<!-- Node16 -->
<g id="Node000016" class="node">
<title>Node16</title>
<g id="a_Node000016"><a xlink:href="incflo__apply__nodal__projection_8cpp.html" target="_top" xlink:title=" ">
<polygon fill="white" stroke="#666666" points="1530,-41 1345,-41 1345,0 1530,0 1530,-41"/>
<text text-anchor="start" x="1353" y="-29" font-family="Helvetica,sans-Serif" font-size="10.00">/home/runner/work/kynema</text>
<text text-anchor="start" x="1353" y="-18" font-family="Helvetica,sans-Serif" font-size="10.00">&#45;sgf/kynema&#45;sgf/src/projection</text>
<text text-anchor="middle" x="1437.5" y="-7" font-family="Helvetica,sans-Serif" font-size="10.00">/incflo_apply_nodal_projection.cpp</text>
</a>
</g>
</g>
<!-- Node14&#45;&gt;Node16 -->
<g id="edge16_Node000014_Node000016" class="edge">
<title>Node14&#45;&gt;Node16</title>
<g id="a_edge16_Node000014_Node000016"><a xlink:title=" ">
<path fill="none" stroke="#63b8ff" d="M1305.71,-78.23C1333.15,-66.42 1365.91,-52.32 1391.9,-41.13"/>
<polygon fill="#63b8ff" stroke="#63b8ff" points="1304.05,-75.14 1296.25,-82.31 1306.81,-81.57 1304.05,-75.14"/>
</a>
</g>
</g>
</g>
</svg>

<g id="navigator" transform="translate(0 0)" fill="#404254">
  <rect fill="#f2f5e9" fill-opacity="0.5" stroke="#606060" stroke-width=".5" x="0" y="0" width="60" height="60"/>
  <use id="zoomplus" xlink:href="#zoomPlus" x="17" y="9" onmousedown="handleZoom(evt,'in')"/>
  <use id="zoomminus" xlink:href="#zoomMin" x="42" y="9" onmousedown="handleZoom(evt,'out')"/>
  <use id="reset" xlink:href="#resetDef" x="30" y="36" onmousedown="handleReset()"/>
   <use id="arrowup" xlink:href="#arrowUp" x="0" y="0" onmousedown="handlePan(0,-1)"/>
  <use id="arrowright" xlink:href="#arrowRight" x="0" y="0" onmousedown="handlePan(1,0)"/>
  <use id="arrowdown" xlink:href="#arrowDown" x="0" y="0" onmousedown="handlePan(0,1)"/>
  <use id="arrowleft" xlink:href="#arrowLeft" x="0" y="0" onmousedown="handlePan(-1,0)"/>
</g>
<svg viewBox="0 0 15 15" width="100%" height="30px" preserveAspectRatio="xMaxYMin meet">
 <g id="arrow_out" transform="scale(0.3 0.3)">
  <a xlink:href="_ocean_waves_boundary_8_h__dep__incl_org.svg" target="_base">
   <rect id="button" ry="5" rx="5" y="6" x="6" height="38" width="38"
        fill="#f2f5e9" fill-opacity="0.5" stroke="#606060" stroke-width="1.0"/>
   <path id="arrow"
     d="M 11.500037,31.436501 C 11.940474,20.09759 22.043105,11.32322 32.158766,21.979434 L 37.068811,17.246167 C 37.068811,17.246167 37.088388,32 37.088388,32 L 22.160133,31.978069 C 22.160133,31.978069 26.997745,27.140456 26.997745,27.140456 C 18.528582,18.264221 13.291696,25.230495 11.500037,31.436501 z"
     style="fill:#404040;"/>
  </a>
 </g>
</svg>

<style type='text/css'>
<![CDATA[
[data-mouse-over-selected='false'] { opacity: 0.7; }
[data-mouse-over-selected='true']  { opacity: 1.0; }
]]>
</style>
<script type="application/ecmascript"><![CDATA[
document.addEventListener('DOMContentLoaded', (event) => {
  highlightEdges();
  highlightAdjacentNodes();
});
]]></script>
</svg>
