<?xml version="1.0" encoding="UTF-8" standalone="no"?>
<!DOCTYPE svg PUBLIC "-//W3C//DTD SVG 1.1//EN"
 "http://www.w3.org/Graphics/SVG/1.1/DTD/svg11.dtd">
<!-- Generated by graphviz version 2.43.0 (0)
 -->
<!-- Title: /home/runner/work/kynema&#45;sgf/kynema&#45;sgf/src/overset/OversetManager.H Pages: 1 -->
<svg width="537pt" height="203pt"
 viewBox="0.00 0.00 536.50 203.00" xmlns="http://www.w3.org/2000/svg" xmlns:xlink="http://www.w3.org/1999/xlink">
<g id="graph0" class="graph" transform="scale(1 1) rotate(0) translate(4 199)">
<title>/home/runner/work/kynema&#45;sgf/kynema&#45;sgf/src/overset/OversetManager.H</title>
<!-- Node1 -->
<g id="Node000001" class="node">
<title>Node1</title>
<g id="a_Node000001"><a xlink:title=" ">
<polygon fill="#999999" stroke="#666666" points="352.5,-195 199.5,-195 199.5,-154 352.5,-154 352.5,-195"/>
<text text-anchor="start" x="207.5" y="-183" font-family="Helvetica,sans-Serif" font-size="10.00">/home/runner/work/kynema</text>
<text text-anchor="start" x="207.5" y="-172" font-family="Helvetica,sans-Serif" font-size="10.00">&#45;sgf/kynema&#45;sgf/src/overset</text>
<text text-anchor="middle" x="276" y="-161" font-family="Helvetica,sans-Serif" font-size="10.00">/OversetManager.H</text>
</a>
</g>
</g>
<!-- Node2 -->
<g id="Node000002" class="node">
<title>Node2</title>
<g id="a_Node000002"><a xlink:href="_c_f_d_sim_8cpp.html" target="_top" xlink:title=" ">
<polygon fill="white" stroke="#666666" points="176,-112.5 0,-112.5 0,-82.5 176,-82.5 176,-112.5"/>
<text text-anchor="start" x="8" y="-100.5" font-family="Helvetica,sans-Serif" font-size="10.00">/home/runner/work/kynema</text>
<text text-anchor="middle" x="88" y="-89.5" font-family="Helvetica,sans-Serif" font-size="10.00">&#45;sgf/kynema&#45;sgf/src/CFDSim.cpp</text>
</a>
</g>
</g>
<!-- Node1&#45;&gt;Node2 -->
<g id="edge1_Node000001_Node000002" class="edge">
<title>Node1&#45;&gt;Node2</title>
<g id="a_edge1_Node000001_Node000002"><a xlink:title=" ">
<path fill="none" stroke="#63b8ff" d="M217.72,-150.25C186.81,-137.92 149.85,-123.17 123.3,-112.58"/>
<polygon fill="#63b8ff" stroke="#63b8ff" points="216.51,-153.54 227.1,-153.99 219.1,-147.03 216.51,-153.54"/>
</a>
</g>
</g>
<!-- Node3 -->
<g id="Node000003" class="node">
<title>Node3</title>
<g id="a_Node000003"><a xlink:href="incflo_8cpp.html" target="_top" xlink:title=" ">
<polygon fill="white" stroke="#666666" points="357.5,-112.5 194.5,-112.5 194.5,-82.5 357.5,-82.5 357.5,-112.5"/>
<text text-anchor="start" x="202.5" y="-100.5" font-family="Helvetica,sans-Serif" font-size="10.00">/home/runner/work/kynema</text>
<text text-anchor="middle" x="276" y="-89.5" font-family="Helvetica,sans-Serif" font-size="10.00">&#45;sgf/kynema&#45;sgf/src/incflo.cpp</text>
</a>
</g>
</g>
<!-- Node1&#45;&gt;Node3 -->
<g id="edge2_Node000001_Node000003" class="edge">
<title>Node1&#45;&gt;Node3</title>
<g id="a_edge2_Node000001_Node000003"><a xlink:title=" ">
<path fill="none" stroke="#63b8ff" d="M276,-143.61C276,-133.01 276,-121.57 276,-112.86"/>
<polygon fill="#63b8ff" stroke="#63b8ff" points="272.5,-143.79 276,-153.79 279.5,-143.79 272.5,-143.79"/>
</a>
</g>
</g>
<!-- Node4 -->
<g id="Node000004" class="node">
<title>Node4</title>
<g id="a_Node000004"><a xlink:href="_tioga_interface_8_h.html" target="_top" xlink:title=" ">
<polygon fill="white" stroke="#666666" points="528.5,-118 375.5,-118 375.5,-77 528.5,-77 528.5,-118"/>
<text text-anchor="start" x="383.5" y="-106" font-family="Helvetica,sans-Serif" font-size="10.00">/home/runner/work/kynema</text>
<text text-anchor="start" x="383.5" y="-95" font-family="Helvetica,sans-Serif" font-size="10.00">&#45;sgf/kynema&#45;sgf/src/overset</text>
<text text-anchor="middle" x="452" y="-84" font-family="Helvetica,sans-Serif" font-size="10.00">/TiogaInterface.H</text>
</a>
</g>
</g>
<!-- Node1&#45;&gt;Node4 -->
<g id="edge3_Node000001_Node000004" class="edge">
<title>Node1&#45;&gt;Node4</title>
<g id="a_edge3_Node000001_Node000004"><a xlink:title=" ">
<path fill="none" stroke="#63b8ff" d="M331.16,-150C355.26,-139.72 383.2,-127.82 406.14,-118.04"/>
<polygon fill="#63b8ff" stroke="#63b8ff" points="329.61,-146.85 321.78,-153.99 332.35,-153.29 329.61,-146.85"/>
</a>
</g>
</g>
<!-- Node5 -->
<g id="Node000005" class="node">
<title>Node5</title>
<g id="a_Node000005"><a xlink:href="_tioga_interface_8cpp.html" target="_top" xlink:title=" ">
<polygon fill="white" stroke="#666666" points="528.5,-41 375.5,-41 375.5,0 528.5,0 528.5,-41"/>
<text text-anchor="start" x="383.5" y="-29" font-family="Helvetica,sans-Serif" font-size="10.00">/home/runner/work/kynema</text>
<text text-anchor="start" x="383.5" y="-18" font-family="Helvetica,sans-Serif" font-size="10.00">&#45;sgf/kynema&#45;sgf/src/overset</text>
<text text-anchor="middle" x="452" y="-7" font-family="Helvetica,sans-Serif" font-size="10.00">/TiogaInterface.cpp</text>
</a>
</g>
</g>
<!-- Node4&#45;&gt;Node5 -->
<g id="edge4_Node000004_Node000005" class="edge">
<title>Node4&#45;&gt;Node5</title>
<g id="a_edge4_Node000004_Node000005"><a xlink:title=" ">
<path fill="none" stroke="#63b8ff" d="M452,-66.69C452,-58.08 452,-48.9 452,-41.07"/>
<polygon fill="#63b8ff" stroke="#63b8ff" points="448.5,-66.79 452,-76.79 455.5,-66.79 448.5,-66.79"/>
</a>
</g>
</g>
</g>
</svg>
