<?xml version="1.0" encoding="UTF-8" standalone="no"?>
<!DOCTYPE svg PUBLIC "-//W3C//DTD SVG 1.1//EN"
 "http://www.w3.org/Graphics/SVG/1.1/DTD/svg11.dtd">
<!-- Generated by graphviz version 2.43.0 (0)
 -->
<!-- Title: /home/runner/work/kynema&#45;sgf/kynema&#45;sgf/src/utilities/PostProcessing.H Pages: 1 -->
<svg width="2242pt" height="280pt"
 viewBox="0.00 0.00 2241.50 280.00" xmlns="http://www.w3.org/2000/svg" xmlns:xlink="http://www.w3.org/1999/xlink">
<g id="graph0" class="graph" transform="scale(1 1) rotate(0) translate(4 276)">
<title>/home/runner/work/kynema&#45;sgf/kynema&#45;sgf/src/utilities/PostProcessing.H</title>
<!-- Node1 -->
<g id="Node000001" class="node">
<title>Node1</title>
<g id="a_Node000001"><a xlink:title=" ">
<polygon fill="#999999" stroke="#666666" points="1090.5,-272 937.5,-272 937.5,-231 1090.5,-231 1090.5,-272"/>
<text text-anchor="start" x="945.5" y="-260" font-family="Helvetica,sans-Serif" font-size="10.00">/home/runner/work/kynema</text>
<text text-anchor="start" x="945.5" y="-249" font-family="Helvetica,sans-Serif" font-size="10.00">&#45;sgf/kynema&#45;sgf/src/utilities</text>
<text text-anchor="middle" x="1014" y="-238" font-family="Helvetica,sans-Serif" font-size="10.00">/PostProcessing.H</text>
</a>
</g>
</g>
<!-- Node2 -->
<g id="Node000002" class="node">
<title>Node2</title>
<g id="a_Node000002"><a xlink:href="_c_f_d_sim_8cpp.html" target="_top" xlink:title=" ">
<polygon fill="white" stroke="#666666" points="176,-189.5 0,-189.5 0,-159.5 176,-159.5 176,-189.5"/>
<text text-anchor="start" x="8" y="-177.5" font-family="Helvetica,sans-Serif" font-size="10.00">/home/runner/work/kynema</text>
<text text-anchor="middle" x="88" y="-166.5" font-family="Helvetica,sans-Serif" font-size="10.00">&#45;sgf/kynema&#45;sgf/src/CFDSim.cpp</text>
</a>
</g>
</g>
<!-- Node1&#45;&gt;Node2 -->
<g id="edge1_Node000001_Node000002" class="edge">
<title>Node1&#45;&gt;Node2</title>
<g id="a_edge1_Node000001_Node000002"><a xlink:title=" ">
<path fill="none" stroke="#63b8ff" d="M927.22,-248.44C775.91,-244.02 454.23,-230.92 185,-195 174.1,-193.55 162.59,-191.6 151.46,-189.5"/>
<polygon fill="#63b8ff" stroke="#63b8ff" points="927.28,-251.95 937.37,-248.73 927.48,-244.95 927.28,-251.95"/>
</a>
</g>
</g>
<!-- Node3 -->
<g id="Node000003" class="node">
<title>Node3</title>
<g id="a_Node000003"><a xlink:href="incflo_8cpp.html" target="_top" xlink:title=" ">
<polygon fill="white" stroke="#666666" points="357.5,-189.5 194.5,-189.5 194.5,-159.5 357.5,-159.5 357.5,-189.5"/>
<text text-anchor="start" x="202.5" y="-177.5" font-family="Helvetica,sans-Serif" font-size="10.00">/home/runner/work/kynema</text>
<text text-anchor="middle" x="276" y="-166.5" font-family="Helvetica,sans-Serif" font-size="10.00">&#45;sgf/kynema&#45;sgf/src/incflo.cpp</text>
</a>
</g>
</g>
<!-- Node1&#45;&gt;Node3 -->
<g id="edge2_Node000001_Node000003" class="edge">
<title>Node1&#45;&gt;Node3</title>
<g id="a_edge2_Node000001_Node000003"><a xlink:title=" ">
<path fill="none" stroke="#63b8ff" d="M927.06,-246.59C802.31,-240.19 565.55,-225.04 366,-195 356.2,-193.52 345.87,-191.62 335.83,-189.58"/>
<polygon fill="#63b8ff" stroke="#63b8ff" points="927.15,-250.1 937.32,-247.11 927.51,-243.11 927.15,-250.1"/>
</a>
</g>
</g>
<!-- Node4 -->
<g id="Node000004" class="node">
<title>Node4</title>
<g id="a_Node000004"><a xlink:href="incflo__advance_8cpp.html" target="_top" xlink:title=" ">
<polygon fill="white" stroke="#666666" points="526.5,-195 375.5,-195 375.5,-154 526.5,-154 526.5,-195"/>
<text text-anchor="start" x="383.5" y="-183" font-family="Helvetica,sans-Serif" font-size="10.00">/home/runner/work/kynema</text>
<text text-anchor="start" x="383.5" y="-172" font-family="Helvetica,sans-Serif" font-size="10.00">&#45;sgf/kynema&#45;sgf/src/incflo</text>
<text text-anchor="middle" x="451" y="-161" font-family="Helvetica,sans-Serif" font-size="10.00">_advance.cpp</text>
</a>
</g>
</g>
<!-- Node1&#45;&gt;Node4 -->
<g id="edge3_Node000001_Node000004" class="edge">
<title>Node1&#45;&gt;Node4</title>
<g id="a_edge3_Node000001_Node000004"><a xlink:title=" ">
<path fill="none" stroke="#63b8ff" d="M927.32,-243.42C831.05,-234.87 671.23,-218.63 535,-195 532.34,-194.54 529.65,-194.05 526.93,-193.53"/>
<polygon fill="#63b8ff" stroke="#63b8ff" points="927.03,-246.91 937.3,-244.3 927.64,-239.93 927.03,-246.91"/>
</a>
</g>
</g>
<!-- Node5 -->
<g id="Node000005" class="node">
<title>Node5</title>
<g id="a_Node000005"><a xlink:href="_post_processing_8cpp.html" target="_top" xlink:title=" ">
<polygon fill="white" stroke="#666666" points="522.5,-118 369.5,-118 369.5,-77 522.5,-77 522.5,-118"/>
<text text-anchor="start" x="377.5" y="-106" font-family="Helvetica,sans-Serif" font-size="10.00">/home/runner/work/kynema</text>
<text text-anchor="start" x="377.5" y="-95" font-family="Helvetica,sans-Serif" font-size="10.00">&#45;sgf/kynema&#45;sgf/src/utilities</text>
<text text-anchor="middle" x="446" y="-84" font-family="Helvetica,sans-Serif" font-size="10.00">/PostProcessing.cpp</text>
</a>
</g>
</g>
<!-- Node1&#45;&gt;Node5 -->
<g id="edge4_Node000001_Node000005" class="edge">
<title>Node1&#45;&gt;Node5</title>
<g id="a_edge4_Node000001_Node000005"><a xlink:title=" ">
<path fill="none" stroke="#63b8ff" d="M927.2,-245.86C872.11,-239.81 800.92,-226.06 745,-195 723.01,-182.79 727.99,-166.2 706,-154 636.57,-115.47 608.59,-134.88 531,-118 528.34,-117.42 525.63,-116.83 522.89,-116.22"/>
<polygon fill="#63b8ff" stroke="#63b8ff" points="926.98,-249.35 937.29,-246.9 927.7,-242.39 926.98,-249.35"/>
</a>
</g>
</g>
<!-- Node6 -->
<g id="Node000006" class="node">
<title>Node6</title>
<g id="a_Node000006"><a xlink:href="ascent_8_h.html" target="_top" xlink:title=" ">
<polygon fill="white" stroke="#666666" points="697.5,-195 544.5,-195 544.5,-154 697.5,-154 697.5,-195"/>
<text text-anchor="start" x="552.5" y="-183" font-family="Helvetica,sans-Serif" font-size="10.00">/home/runner/work/kynema</text>
<text text-anchor="start" x="552.5" y="-172" font-family="Helvetica,sans-Serif" font-size="10.00">&#45;sgf/kynema&#45;sgf/src/utilities</text>
<text text-anchor="middle" x="621" y="-161" font-family="Helvetica,sans-Serif" font-size="10.00">/ascent/ascent.H</text>
</a>
</g>
</g>
<!-- Node1&#45;&gt;Node6 -->
<g id="edge5_Node000001_Node000006" class="edge">
<title>Node1&#45;&gt;Node6</title>
<g id="a_edge5_Node000001_Node000006"><a xlink:title=" ">
<path fill="none" stroke="#63b8ff" d="M927.35,-235.27C866.91,-224.48 784.43,-209.41 712,-195 707.4,-194.09 702.68,-193.13 697.92,-192.15"/>
<polygon fill="#63b8ff" stroke="#63b8ff" points="926.78,-238.72 937.24,-237.03 928.01,-231.83 926.78,-238.72"/>
</a>
</g>
</g>
<!-- Node8 -->
<g id="Node000008" class="node">
<title>Node8</title>
<g id="a_Node000008"><a xlink:href="_time_averaging_8_h.html" target="_top" xlink:title=" ">
<polygon fill="white" stroke="#666666" points="909.5,-195 754.5,-195 754.5,-154 909.5,-154 909.5,-195"/>
<text text-anchor="start" x="762.5" y="-183" font-family="Helvetica,sans-Serif" font-size="10.00">/home/runner/work/kynema</text>
<text text-anchor="start" x="762.5" y="-172" font-family="Helvetica,sans-Serif" font-size="10.00">&#45;sgf/kynema&#45;sgf/src/utilities</text>
<text text-anchor="middle" x="832" y="-161" font-family="Helvetica,sans-Serif" font-size="10.00">/averaging/TimeAveraging.H</text>
</a>
</g>
</g>
<!-- Node1&#45;&gt;Node8 -->
<g id="edge7_Node000001_Node000008" class="edge">
<title>Node1&#45;&gt;Node8</title>
<g id="a_edge7_Node000001_Node000008"><a xlink:title=" ">
<path fill="none" stroke="#63b8ff" d="M957.29,-227.13C932.29,-216.83 903.25,-204.86 879.42,-195.04"/>
<polygon fill="#63b8ff" stroke="#63b8ff" points="956.08,-230.42 966.66,-230.99 958.74,-223.94 956.08,-230.42"/>
</a>
</g>
</g>
<!-- Node14 -->
<g id="Node000014" class="node">
<title>Node14</title>
<g id="a_Node000014"><a xlink:href="_enstrophy_8_h.html" target="_top" xlink:title=" ">
<polygon fill="white" stroke="#666666" points="1097,-195 931,-195 931,-154 1097,-154 1097,-195"/>
<text text-anchor="start" x="939" y="-183" font-family="Helvetica,sans-Serif" font-size="10.00">/home/runner/work/kynema</text>
<text text-anchor="start" x="939" y="-172" font-family="Helvetica,sans-Serif" font-size="10.00">&#45;sgf/kynema&#45;sgf/src/utilities</text>
<text text-anchor="middle" x="1014" y="-161" font-family="Helvetica,sans-Serif" font-size="10.00">/output_quantities/Enstrophy.H</text>
</a>
</g>
</g>
<!-- Node1&#45;&gt;Node14 -->
<g id="edge15_Node000001_Node000014" class="edge">
<title>Node1&#45;&gt;Node14</title>
<g id="a_edge15_Node000001_Node000014"><a xlink:title=" ">
<path fill="none" stroke="#63b8ff" d="M1014,-220.69C1014,-212.08 1014,-202.9 1014,-195.07"/>
<polygon fill="#63b8ff" stroke="#63b8ff" points="1010.5,-220.79 1014,-230.79 1017.5,-220.79 1010.5,-220.79"/>
</a>
</g>
</g>
<!-- Node16 -->
<g id="Node000016" class="node">
<title>Node16</title>
<g id="a_Node000016"><a xlink:href="_field_norms_8_h.html" target="_top" xlink:title=" ">
<polygon fill="white" stroke="#666666" points="1294,-195 1120,-195 1120,-154 1294,-154 1294,-195"/>
<text text-anchor="start" x="1128" y="-183" font-family="Helvetica,sans-Serif" font-size="10.00">/home/runner/work/kynema</text>
<text text-anchor="start" x="1128" y="-172" font-family="Helvetica,sans-Serif" font-size="10.00">&#45;sgf/kynema&#45;sgf/src/utilities</text>
<text text-anchor="middle" x="1207" y="-161" font-family="Helvetica,sans-Serif" font-size="10.00">/output_quantities/FieldNorms.H</text>
</a>
</g>
</g>
<!-- Node1&#45;&gt;Node16 -->
<g id="edge17_Node000001_Node000016" class="edge">
<title>Node1&#45;&gt;Node16</title>
<g id="a_edge17_Node000001_Node000016"><a xlink:title=" ">
<path fill="none" stroke="#63b8ff" d="M1073.78,-227.27C1100.37,-216.94 1131.33,-204.9 1156.71,-195.04"/>
<polygon fill="#63b8ff" stroke="#63b8ff" points="1072.26,-224.11 1064.2,-230.99 1074.79,-230.63 1072.26,-224.11"/>
</a>
</g>
</g>
<!-- Node18 -->
<g id="Node000018" class="node">
<title>Node18</title>
<g id="a_Node000018"><a xlink:href="_kinetic_energy_8_h.html" target="_top" xlink:title=" ">
<polygon fill="white" stroke="#666666" points="1504.5,-195 1319.5,-195 1319.5,-154 1504.5,-154 1504.5,-195"/>
<text text-anchor="start" x="1327.5" y="-183" font-family="Helvetica,sans-Serif" font-size="10.00">/home/runner/work/kynema</text>
<text text-anchor="start" x="1327.5" y="-172" font-family="Helvetica,sans-Serif" font-size="10.00">&#45;sgf/kynema&#45;sgf/src/utilities</text>
<text text-anchor="middle" x="1412" y="-161" font-family="Helvetica,sans-Serif" font-size="10.00">/output_quantities/KineticEnergy.H</text>
</a>
</g>
</g>
<!-- Node1&#45;&gt;Node18 -->
<g id="edge19_Node000001_Node000018" class="edge">
<title>Node1&#45;&gt;Node18</title>
<g id="a_edge19_Node000001_Node000018"><a xlink:title=" ">
<path fill="none" stroke="#63b8ff" d="M1100.9,-234.12C1165.5,-221.95 1253.49,-205.37 1319.41,-192.95"/>
<polygon fill="#63b8ff" stroke="#63b8ff" points="1099.92,-230.75 1090.74,-236.04 1101.21,-237.63 1099.92,-230.75"/>
</a>
</g>
</g>
<!-- Node20 -->
<g id="Node000020" class="node">
<title>Node20</title>
<g id="a_Node000020"><a xlink:href="_wave_energy_8_h.html" target="_top" xlink:title=" ">
<polygon fill="white" stroke="#666666" points="1709,-195 1531,-195 1531,-154 1709,-154 1709,-195"/>
<text text-anchor="start" x="1539" y="-183" font-family="Helvetica,sans-Serif" font-size="10.00">/home/runner/work/kynema</text>
<text text-anchor="start" x="1539" y="-172" font-family="Helvetica,sans-Serif" font-size="10.00">&#45;sgf/kynema&#45;sgf/src/utilities</text>
<text text-anchor="middle" x="1620" y="-161" font-family="Helvetica,sans-Serif" font-size="10.00">/output_quantities/WaveEnergy.H</text>
</a>
</g>
</g>
<!-- Node1&#45;&gt;Node20 -->
<g id="edge21_Node000001_Node000020" class="edge">
<title>Node1&#45;&gt;Node20</title>
<g id="a_edge21_Node000001_Node000020"><a xlink:title=" ">
<path fill="none" stroke="#63b8ff" d="M1100.75,-242.7C1200.48,-233.3 1368.96,-216.11 1513,-195 1518.79,-194.15 1524.75,-193.22 1530.75,-192.24"/>
<polygon fill="#63b8ff" stroke="#63b8ff" points="1100.35,-239.22 1090.72,-243.64 1101.01,-246.19 1100.35,-239.22"/>
</a>
</g>
</g>
<!-- Node22 -->
<g id="Node000022" class="node">
<title>Node22</title>
<g id="a_Node000022"><a xlink:href="_sampling_8_h.html" target="_top" xlink:title=" ">
<polygon fill="white" stroke="#666666" points="1886.5,-195 1733.5,-195 1733.5,-154 1886.5,-154 1886.5,-195"/>
<text text-anchor="start" x="1741.5" y="-183" font-family="Helvetica,sans-Serif" font-size="10.00">/home/runner/work/kynema</text>
<text text-anchor="start" x="1741.5" y="-172" font-family="Helvetica,sans-Serif" font-size="10.00">&#45;sgf/kynema&#45;sgf/src/utilities</text>
<text text-anchor="middle" x="1810" y="-161" font-family="Helvetica,sans-Serif" font-size="10.00">/sampling/Sampling.H</text>
</a>
</g>
</g>
<!-- Node1&#45;&gt;Node22 -->
<g id="edge23_Node000001_Node000022" class="edge">
<title>Node1&#45;&gt;Node22</title>
<g id="a_edge23_Node000001_Node000022"><a xlink:title=" ">
<path fill="none" stroke="#63b8ff" d="M1100.82,-247.29C1234.13,-241.55 1497.01,-226.99 1718,-195 1723.01,-194.27 1728.15,-193.44 1733.33,-192.53"/>
<polygon fill="#63b8ff" stroke="#63b8ff" points="1100.51,-243.8 1090.67,-247.73 1100.81,-250.8 1100.51,-243.8"/>
</a>
</g>
</g>
<!-- Node24 -->
<g id="Node000024" class="node">
<title>Node24</title>
<g id="a_Node000024"><a xlink:href="_subvolume_8_h.html" target="_top" xlink:title=" ">
<polygon fill="white" stroke="#666666" points="2059.5,-195 1906.5,-195 1906.5,-154 2059.5,-154 2059.5,-195"/>
<text text-anchor="start" x="1914.5" y="-183" font-family="Helvetica,sans-Serif" font-size="10.00">/home/runner/work/kynema</text>
<text text-anchor="start" x="1914.5" y="-172" font-family="Helvetica,sans-Serif" font-size="10.00">&#45;sgf/kynema&#45;sgf/src/utilities</text>
<text text-anchor="middle" x="1983" y="-161" font-family="Helvetica,sans-Serif" font-size="10.00">/subvolume/Subvolume.H</text>
</a>
</g>
</g>
<!-- Node1&#45;&gt;Node24 -->
<g id="edge25_Node000001_Node000024" class="edge">
<title>Node1&#45;&gt;Node24</title>
<g id="a_edge25_Node000001_Node000024"><a xlink:title=" ">
<path fill="none" stroke="#63b8ff" d="M1100.88,-249.49C1259.43,-246.65 1606.01,-235.87 1895,-195 1898.72,-194.47 1902.51,-193.88 1906.34,-193.22"/>
<polygon fill="#63b8ff" stroke="#63b8ff" points="1100.65,-245.99 1090.71,-249.66 1100.77,-252.99 1100.65,-245.99"/>
</a>
</g>
</g>
<!-- Node26 -->
<g id="Node000026" class="node">
<title>Node26</title>
<g id="a_Node000026"><a xlink:href="_a_b_l_stats_8_h.html" target="_top" xlink:title=" ">
<polygon fill="white" stroke="#666666" points="2233.5,-195 2082.5,-195 2082.5,-154 2233.5,-154 2233.5,-195"/>
<text text-anchor="start" x="2090.5" y="-183" font-family="Helvetica,sans-Serif" font-size="10.00">/home/runner/work/kynema</text>
<text text-anchor="start" x="2090.5" y="-172" font-family="Helvetica,sans-Serif" font-size="10.00">&#45;sgf/kynema&#45;sgf/src/wind</text>
<text text-anchor="middle" x="2158" y="-161" font-family="Helvetica,sans-Serif" font-size="10.00">_energy/ABLStats.H</text>
</a>
</g>
</g>
<!-- Node1&#45;&gt;Node26 -->
<g id="edge27_Node000001_Node000026" class="edge">
<title>Node1&#45;&gt;Node26</title>
<g id="a_edge27_Node000001_Node000026"><a xlink:title=" ">
<path fill="none" stroke="#63b8ff" d="M1100.77,-250.71C1281.67,-250.1 1711.95,-243.18 2069,-195 2073.39,-194.41 2077.88,-193.71 2082.41,-192.94"/>
<polygon fill="#63b8ff" stroke="#63b8ff" points="1100.51,-247.21 1090.52,-250.74 1100.53,-254.21 1100.51,-247.21"/>
</a>
</g>
</g>
<!-- Node7 -->
<g id="Node000007" class="node">
<title>Node7</title>
<g id="a_Node000007"><a xlink:href="ascent_8cpp.html" target="_top" xlink:title=" ">
<polygon fill="white" stroke="#666666" points="351.5,-118 198.5,-118 198.5,-77 351.5,-77 351.5,-118"/>
<text text-anchor="start" x="206.5" y="-106" font-family="Helvetica,sans-Serif" font-size="10.00">/home/runner/work/kynema</text>
<text text-anchor="start" x="206.5" y="-95" font-family="Helvetica,sans-Serif" font-size="10.00">&#45;sgf/kynema&#45;sgf/src/utilities</text>
<text text-anchor="middle" x="275" y="-84" font-family="Helvetica,sans-Serif" font-size="10.00">/ascent/ascent.cpp</text>
</a>
</g>
</g>
<!-- Node6&#45;&gt;Node7 -->
<g id="edge6_Node000006_Node000007" class="edge">
<title>Node6&#45;&gt;Node7</title>
<g id="a_edge6_Node000006_Node000007"><a xlink:title=" ">
<path fill="none" stroke="#63b8ff" d="M534.26,-153.86C455.75,-137.01 434.56,-134.22 360,-118 357.34,-117.42 354.63,-116.83 351.89,-116.22"/>
<polygon fill="#63b8ff" stroke="#63b8ff" points="533.61,-157.3 544.12,-155.99 535.08,-150.46 533.61,-157.3"/>
</a>
</g>
</g>
<!-- Node8&#45;&gt;Node5 -->
<g id="edge8_Node000008_Node000005" class="edge">
<title>Node8&#45;&gt;Node5</title>
<g id="a_edge8_Node000008_Node000005"><a xlink:title=" ">
<path fill="none" stroke="#63b8ff" d="M744.39,-154.85C742.92,-154.56 741.45,-154.28 740,-154 647.43,-136.22 623.41,-136.55 531,-118 528.33,-117.46 525.61,-116.91 522.87,-116.33"/>
<polygon fill="#63b8ff" stroke="#63b8ff" points="743.75,-158.29 754.24,-156.8 745.11,-151.42 743.75,-158.29"/>
</a>
</g>
</g>
<!-- Node9 -->
<g id="Node000009" class="node">
<title>Node9</title>
<g id="a_Node000009"><a xlink:href="_re_averaging_8_h.html" target="_top" xlink:title=" ">
<polygon fill="white" stroke="#666666" points="693.5,-118 540.5,-118 540.5,-77 693.5,-77 693.5,-118"/>
<text text-anchor="start" x="548.5" y="-106" font-family="Helvetica,sans-Serif" font-size="10.00">/home/runner/work/kynema</text>
<text text-anchor="start" x="548.5" y="-95" font-family="Helvetica,sans-Serif" font-size="10.00">&#45;sgf/kynema&#45;sgf/src/utilities</text>
<text text-anchor="middle" x="617" y="-84" font-family="Helvetica,sans-Serif" font-size="10.00">/averaging/ReAveraging.H</text>
</a>
</g>
</g>
<!-- Node8&#45;&gt;Node9 -->
<g id="edge9_Node000008_Node000009" class="edge">
<title>Node8&#45;&gt;Node9</title>
<g id="a_edge9_Node000008_Node000009"><a xlink:title=" ">
<path fill="none" stroke="#63b8ff" d="M766.57,-150.67C736.69,-140.25 701.66,-128.03 673.02,-118.04"/>
<polygon fill="#63b8ff" stroke="#63b8ff" points="765.48,-154 776.07,-153.99 767.78,-147.39 765.48,-154"/>
</a>
</g>
</g>
<!-- Node11 -->
<g id="Node000011" class="node">
<title>Node11</title>
<g id="a_Node000011"><a xlink:href="_time_averaging_8cpp.html" target="_top" xlink:title=" ">
<polygon fill="white" stroke="#666666" points="765.5,-41 600.5,-41 600.5,0 765.5,0 765.5,-41"/>
<text text-anchor="start" x="608.5" y="-29" font-family="Helvetica,sans-Serif" font-size="10.00">/home/runner/work/kynema</text>
<text text-anchor="start" x="608.5" y="-18" font-family="Helvetica,sans-Serif" font-size="10.00">&#45;sgf/kynema&#45;sgf/src/utilities</text>
<text text-anchor="middle" x="683" y="-7" font-family="Helvetica,sans-Serif" font-size="10.00">/averaging/TimeAveraging.cpp</text>
</a>
</g>
</g>
<!-- Node8&#45;&gt;Node11 -->
<g id="edge14_Node000008_Node000011" class="edge">
<title>Node8&#45;&gt;Node11</title>
<g id="a_edge14_Node000008_Node000011"><a xlink:title=" ">
<path fill="none" stroke="#63b8ff" d="M781.77,-148.73C767.56,-140.24 752.77,-129.85 741,-118 718.41,-95.26 700.96,-62.05 691.33,-41.12"/>
<polygon fill="#63b8ff" stroke="#63b8ff" points="780.09,-151.81 790.51,-153.77 783.59,-145.75 780.09,-151.81"/>
</a>
</g>
</g>
<!-- Node12 -->
<g id="Node000012" class="node">
<title>Node12</title>
<g id="a_Node000012"><a xlink:href="_reynolds_stress_8_h.html" target="_top" xlink:title=" ">
<polygon fill="white" stroke="#666666" points="907.5,-118 750.5,-118 750.5,-77 907.5,-77 907.5,-118"/>
<text text-anchor="start" x="758.5" y="-106" font-family="Helvetica,sans-Serif" font-size="10.00">/home/runner/work/kynema</text>
<text text-anchor="start" x="758.5" y="-95" font-family="Helvetica,sans-Serif" font-size="10.00">&#45;sgf/kynema&#45;sgf/src/utilities</text>
<text text-anchor="middle" x="829" y="-84" font-family="Helvetica,sans-Serif" font-size="10.00">/averaging/ReynoldsStress.H</text>
</a>
</g>
</g>
<!-- Node8&#45;&gt;Node12 -->
<g id="edge12_Node000008_Node000012" class="edge">
<title>Node8&#45;&gt;Node12</title>
<g id="a_edge12_Node000008_Node000012"><a xlink:title=" ">
<path fill="none" stroke="#63b8ff" d="M830.81,-143.69C830.46,-135.08 830.1,-125.9 829.78,-118.07"/>
<polygon fill="#63b8ff" stroke="#63b8ff" points="827.31,-143.94 831.21,-153.79 834.31,-143.66 827.31,-143.94"/>
</a>
</g>
</g>
<!-- Node10 -->
<g id="Node000010" class="node">
<title>Node10</title>
<g id="a_Node000010"><a xlink:href="_re_averaging_8cpp.html" target="_top" xlink:title=" ">
<polygon fill="white" stroke="#666666" points="582.5,-41 429.5,-41 429.5,0 582.5,0 582.5,-41"/>
<text text-anchor="start" x="437.5" y="-29" font-family="Helvetica,sans-Serif" font-size="10.00">/home/runner/work/kynema</text>
<text text-anchor="start" x="437.5" y="-18" font-family="Helvetica,sans-Serif" font-size="10.00">&#45;sgf/kynema&#45;sgf/src/utilities</text>
<text text-anchor="middle" x="506" y="-7" font-family="Helvetica,sans-Serif" font-size="10.00">/averaging/ReAveraging.cpp</text>
</a>
</g>
</g>
<!-- Node9&#45;&gt;Node10 -->
<g id="edge10_Node000009_Node000010" class="edge">
<title>Node9&#45;&gt;Node10</title>
<g id="a_edge10_Node000009_Node000010"><a xlink:title=" ">
<path fill="none" stroke="#63b8ff" d="M579.81,-71.37C565.24,-61.53 548.79,-50.41 535.12,-41.17"/>
<polygon fill="#63b8ff" stroke="#63b8ff" points="577.88,-74.29 588.13,-76.99 581.8,-68.49 577.88,-74.29"/>
</a>
</g>
</g>
<!-- Node9&#45;&gt;Node11 -->
<g id="edge11_Node000009_Node000011" class="edge">
<title>Node9&#45;&gt;Node11</title>
<g id="a_edge11_Node000009_Node000011"><a xlink:title=" ">
<path fill="none" stroke="#63b8ff" d="M640.99,-69.23C649.2,-59.91 658.21,-49.67 665.78,-41.07"/>
<polygon fill="#63b8ff" stroke="#63b8ff" points="638.32,-66.98 634.34,-76.79 643.57,-71.6 638.32,-66.98"/>
</a>
</g>
</g>
<!-- Node13 -->
<g id="Node000013" class="node">
<title>Node13</title>
<g id="a_Node000013"><a xlink:href="_reynolds_stress_8cpp.html" target="_top" xlink:title=" ">
<polygon fill="white" stroke="#666666" points="950.5,-41 783.5,-41 783.5,0 950.5,0 950.5,-41"/>
<text text-anchor="start" x="791.5" y="-29" font-family="Helvetica,sans-Serif" font-size="10.00">/home/runner/work/kynema</text>
<text text-anchor="start" x="791.5" y="-18" font-family="Helvetica,sans-Serif" font-size="10.00">&#45;sgf/kynema&#45;sgf/src/utilities</text>
<text text-anchor="middle" x="867" y="-7" font-family="Helvetica,sans-Serif" font-size="10.00">/averaging/ReynoldsStress.cpp</text>
</a>
</g>
</g>
<!-- Node12&#45;&gt;Node13 -->
<g id="edge13_Node000012_Node000013" class="edge">
<title>Node12&#45;&gt;Node13</title>
<g id="a_edge13_Node000012_Node000013"><a xlink:title=" ">
<path fill="none" stroke="#63b8ff" d="M843.53,-67.83C848.06,-58.89 852.95,-49.24 857.08,-41.07"/>
<polygon fill="#63b8ff" stroke="#63b8ff" points="840.38,-66.29 838.98,-76.79 846.63,-69.46 840.38,-66.29"/>
</a>
</g>
</g>
<!-- Node15 -->
<g id="Node000015" class="node">
<title>Node15</title>
<g id="a_Node000015"><a xlink:href="_enstrophy_8cpp.html" target="_top" xlink:title=" ">
<polygon fill="white" stroke="#666666" points="1102,-118 926,-118 926,-77 1102,-77 1102,-118"/>
<text text-anchor="start" x="934" y="-106" font-family="Helvetica,sans-Serif" font-size="10.00">/home/runner/work/kynema</text>
<text text-anchor="start" x="934" y="-95" font-family="Helvetica,sans-Serif" font-size="10.00">&#45;sgf/kynema&#45;sgf/src/utilities</text>
<text text-anchor="middle" x="1014" y="-84" font-family="Helvetica,sans-Serif" font-size="10.00">/output_quantities/Enstrophy.cpp</text>
</a>
</g>
</g>
<!-- Node14&#45;&gt;Node15 -->
<g id="edge16_Node000014_Node000015" class="edge">
<title>Node14&#45;&gt;Node15</title>
<g id="a_edge16_Node000014_Node000015"><a xlink:title=" ">
<path fill="none" stroke="#63b8ff" d="M1014,-143.69C1014,-135.08 1014,-125.9 1014,-118.07"/>
<polygon fill="#63b8ff" stroke="#63b8ff" points="1010.5,-143.79 1014,-153.79 1017.5,-143.79 1010.5,-143.79"/>
</a>
</g>
</g>
<!-- Node17 -->
<g id="Node000017" class="node">
<title>Node17</title>
<g id="a_Node000017"><a xlink:href="_field_norms_8cpp.html" target="_top" xlink:title=" ">
<polygon fill="white" stroke="#666666" points="1304,-118 1120,-118 1120,-77 1304,-77 1304,-118"/>
<text text-anchor="start" x="1128" y="-106" font-family="Helvetica,sans-Serif" font-size="10.00">/home/runner/work/kynema</text>
<text text-anchor="start" x="1128" y="-95" font-family="Helvetica,sans-Serif" font-size="10.00">&#45;sgf/kynema&#45;sgf/src/utilities</text>
<text text-anchor="middle" x="1212" y="-84" font-family="Helvetica,sans-Serif" font-size="10.00">/output_quantities/FieldNorms.cpp</text>
</a>
</g>
</g>
<!-- Node16&#45;&gt;Node17 -->
<g id="edge18_Node000016_Node000017" class="edge">
<title>Node16&#45;&gt;Node17</title>
<g id="a_edge18_Node000016_Node000017"><a xlink:title=" ">
<path fill="none" stroke="#63b8ff" d="M1208.99,-143.69C1209.56,-135.08 1210.17,-125.9 1210.7,-118.07"/>
<polygon fill="#63b8ff" stroke="#63b8ff" points="1205.49,-143.58 1208.31,-153.79 1212.47,-144.05 1205.49,-143.58"/>
</a>
</g>
</g>
<!-- Node19 -->
<g id="Node000019" class="node">
<title>Node19</title>
<g id="a_Node000019"><a xlink:href="_kinetic_energy_8cpp.html" target="_top" xlink:title=" ">
<polygon fill="white" stroke="#666666" points="1516,-118 1322,-118 1322,-77 1516,-77 1516,-118"/>
<text text-anchor="start" x="1330" y="-106" font-family="Helvetica,sans-Serif" font-size="10.00">/home/runner/work/kynema</text>
<text text-anchor="start" x="1330" y="-95" font-family="Helvetica,sans-Serif" font-size="10.00">&#45;sgf/kynema&#45;sgf/src/utilities</text>
<text text-anchor="middle" x="1419" y="-84" font-family="Helvetica,sans-Serif" font-size="10.00">/output_quantities/KineticEnergy.cpp</text>
</a>
</g>
</g>
<!-- Node18&#45;&gt;Node19 -->
<g id="edge20_Node000018_Node000019" class="edge">
<title>Node18&#45;&gt;Node19</title>
<g id="a_edge20_Node000018_Node000019"><a xlink:title=" ">
<path fill="none" stroke="#63b8ff" d="M1414.78,-143.69C1415.59,-135.08 1416.44,-125.9 1417.17,-118.07"/>
<polygon fill="#63b8ff" stroke="#63b8ff" points="1411.28,-143.51 1413.84,-153.79 1418.25,-144.16 1411.28,-143.51"/>
</a>
</g>
</g>
<!-- Node21 -->
<g id="Node000021" class="node">
<title>Node21</title>
<g id="a_Node000021"><a xlink:href="_wave_energy_8cpp.html" target="_top" xlink:title=" ">
<polygon fill="white" stroke="#666666" points="1722,-118 1534,-118 1534,-77 1722,-77 1722,-118"/>
<text text-anchor="start" x="1542" y="-106" font-family="Helvetica,sans-Serif" font-size="10.00">/home/runner/work/kynema</text>
<text text-anchor="start" x="1542" y="-95" font-family="Helvetica,sans-Serif" font-size="10.00">&#45;sgf/kynema&#45;sgf/src/utilities</text>
<text text-anchor="middle" x="1628" y="-84" font-family="Helvetica,sans-Serif" font-size="10.00">/output_quantities/WaveEnergy.cpp</text>
</a>
</g>
</g>
<!-- Node20&#45;&gt;Node21 -->
<g id="edge22_Node000020_Node000021" class="edge">
<title>Node20&#45;&gt;Node21</title>
<g id="a_edge22_Node000020_Node000021"><a xlink:title=" ">
<path fill="none" stroke="#63b8ff" d="M1623.18,-143.69C1624.1,-135.08 1625.08,-125.9 1625.91,-118.07"/>
<polygon fill="#63b8ff" stroke="#63b8ff" points="1619.68,-143.48 1622.1,-153.79 1626.64,-144.22 1619.68,-143.48"/>
</a>
</g>
</g>
<!-- Node23 -->
<g id="Node000023" class="node">
<title>Node23</title>
<g id="a_Node000023"><a xlink:href="_sampling_8cpp.html" target="_top" xlink:title=" ">
<polygon fill="white" stroke="#666666" points="1893.5,-118 1740.5,-118 1740.5,-77 1893.5,-77 1893.5,-118"/>
<text text-anchor="start" x="1748.5" y="-106" font-family="Helvetica,sans-Serif" font-size="10.00">/home/runner/work/kynema</text>
<text text-anchor="start" x="1748.5" y="-95" font-family="Helvetica,sans-Serif" font-size="10.00">&#45;sgf/kynema&#45;sgf/src/utilities</text>
<text text-anchor="middle" x="1817" y="-84" font-family="Helvetica,sans-Serif" font-size="10.00">/sampling/Sampling.cpp</text>
</a>
</g>
</g>
<!-- Node22&#45;&gt;Node23 -->
<g id="edge24_Node000022_Node000023" class="edge">
<title>Node22&#45;&gt;Node23</title>
<g id="a_edge24_Node000022_Node000023"><a xlink:title=" ">
<path fill="none" stroke="#63b8ff" d="M1812.78,-143.69C1813.59,-135.08 1814.44,-125.9 1815.17,-118.07"/>
<polygon fill="#63b8ff" stroke="#63b8ff" points="1809.28,-143.51 1811.84,-153.79 1816.25,-144.16 1809.28,-143.51"/>
</a>
</g>
</g>
<!-- Node25 -->
<g id="Node000025" class="node">
<title>Node25</title>
<g id="a_Node000025"><a xlink:href="_subvolume_8cpp.html" target="_top" xlink:title=" ">
<polygon fill="white" stroke="#666666" points="2064.5,-118 1911.5,-118 1911.5,-77 2064.5,-77 2064.5,-118"/>
<text text-anchor="start" x="1919.5" y="-106" font-family="Helvetica,sans-Serif" font-size="10.00">/home/runner/work/kynema</text>
<text text-anchor="start" x="1919.5" y="-95" font-family="Helvetica,sans-Serif" font-size="10.00">&#45;sgf/kynema&#45;sgf/src/utilities</text>
<text text-anchor="middle" x="1988" y="-84" font-family="Helvetica,sans-Serif" font-size="10.00">/subvolume/Subvolume.cpp</text>
</a>
</g>
</g>
<!-- Node24&#45;&gt;Node25 -->
<g id="edge26_Node000024_Node000025" class="edge">
<title>Node24&#45;&gt;Node25</title>
<g id="a_edge26_Node000024_Node000025"><a xlink:title=" ">
<path fill="none" stroke="#63b8ff" d="M1984.99,-143.69C1985.56,-135.08 1986.17,-125.9 1986.7,-118.07"/>
<polygon fill="#63b8ff" stroke="#63b8ff" points="1981.49,-143.58 1984.31,-153.79 1988.47,-144.05 1981.49,-143.58"/>
</a>
</g>
</g>
<!-- Node27 -->
<g id="Node000027" class="node">
<title>Node27</title>
<g id="a_Node000027"><a xlink:href="_a_b_l_stats_8cpp.html" target="_top" xlink:title=" ">
<polygon fill="white" stroke="#666666" points="2233.5,-118 2082.5,-118 2082.5,-77 2233.5,-77 2233.5,-118"/>
<text text-anchor="start" x="2090.5" y="-106" font-family="Helvetica,sans-Serif" font-size="10.00">/home/runner/work/kynema</text>
<text text-anchor="start" x="2090.5" y="-95" font-family="Helvetica,sans-Serif" font-size="10.00">&#45;sgf/kynema&#45;sgf/src/wind</text>
<text text-anchor="middle" x="2158" y="-84" font-family="Helvetica,sans-Serif" font-size="10.00">_energy/ABLStats.cpp</text>
</a>
</g>
</g>
<!-- Node26&#45;&gt;Node27 -->
<g id="edge28_Node000026_Node000027" class="edge">
<title>Node26&#45;&gt;Node27</title>
<g id="a_edge28_Node000026_Node000027"><a xlink:title=" ">
<path fill="none" stroke="#63b8ff" d="M2158,-143.69C2158,-135.08 2158,-125.9 2158,-118.07"/>
<polygon fill="#63b8ff" stroke="#63b8ff" points="2154.5,-143.79 2158,-153.79 2161.5,-143.79 2154.5,-143.79"/>
</a>
</g>
</g>
</g>
</svg>
