<?xml version="1.0" encoding="UTF-8" standalone="no"?>
<!DOCTYPE svg PUBLIC "-//W3C//DTD SVG 1.1//EN"
 "http://www.w3.org/Graphics/SVG/1.1/DTD/svg11.dtd">
<!-- Generated by graphviz version 2.43.0 (0)
 -->
<!-- Title: /home/runner/work/kynema&#45;sgf/kynema&#45;sgf/src/physics/udfs/PowerLawProfile.H Pages: 1 -->
<svg width="513pt" height="280pt"
 viewBox="0.00 0.00 512.50 280.00" xmlns="http://www.w3.org/2000/svg" xmlns:xlink="http://www.w3.org/1999/xlink">
<g id="graph0" class="graph" transform="scale(1 1) rotate(0) translate(4 276)">
<title>/home/runner/work/kynema&#45;sgf/kynema&#45;sgf/src/physics/udfs/PowerLawProfile.H</title>
<!-- Node1 -->
<g id="Node000001" class="node">
<title>Node1</title>
<g id="a_Node000001"><a xlink:title=" ">
<polygon fill="#999999" stroke="#666666" points="333.5,-272 180.5,-272 180.5,-231 333.5,-231 333.5,-272"/>
<text text-anchor="start" x="188.5" y="-260" font-family="Helvetica,sans-Serif" font-size="10.00">/home/runner/work/kynema</text>
<text text-anchor="start" x="188.5" y="-249" font-family="Helvetica,sans-Serif" font-size="10.00">&#45;sgf/kynema&#45;sgf/src/physics</text>
<text text-anchor="middle" x="257" y="-238" font-family="Helvetica,sans-Serif" font-size="10.00">/udfs/PowerLawProfile.H</text>
</a>
</g>
</g>
<!-- Node2 -->
<g id="Node000002" class="node">
<title>Node2</title>
<g id="a_Node000002"><a xlink:href="velocity__bcs_8_h.html" target="_top" xlink:title=" ">
<polygon fill="white" stroke="#666666" points="162,-195 0,-195 0,-154 162,-154 162,-195"/>
<text text-anchor="start" x="8" y="-183" font-family="Helvetica,sans-Serif" font-size="10.00">/home/runner/work/kynema</text>
<text text-anchor="start" x="8" y="-172" font-family="Helvetica,sans-Serif" font-size="10.00">&#45;sgf/kynema&#45;sgf/src/boundary</text>
<text text-anchor="middle" x="81" y="-161" font-family="Helvetica,sans-Serif" font-size="10.00">_conditions/velocity_bcs.H</text>
</a>
</g>
</g>
<!-- Node1&#45;&gt;Node2 -->
<g id="edge1_Node000001_Node000002" class="edge">
<title>Node1&#45;&gt;Node2</title>
<g id="a_edge1_Node000001_Node000002"><a xlink:title=" ">
<path fill="none" stroke="#63b8ff" d="M201.84,-227C177.74,-216.72 149.8,-204.82 126.86,-195.04"/>
<polygon fill="#63b8ff" stroke="#63b8ff" points="200.65,-230.29 211.22,-230.99 203.39,-223.85 200.65,-230.29"/>
</a>
</g>
</g>
<!-- Node5 -->
<g id="Node000005" class="node">
<title>Node5</title>
<g id="a_Node000005"><a xlink:href="_power_law_profile_8cpp.html" target="_top" xlink:title=" ">
<polygon fill="white" stroke="#666666" points="333.5,-195 180.5,-195 180.5,-154 333.5,-154 333.5,-195"/>
<text text-anchor="start" x="188.5" y="-183" font-family="Helvetica,sans-Serif" font-size="10.00">/home/runner/work/kynema</text>
<text text-anchor="start" x="188.5" y="-172" font-family="Helvetica,sans-Serif" font-size="10.00">&#45;sgf/kynema&#45;sgf/src/physics</text>
<text text-anchor="middle" x="257" y="-161" font-family="Helvetica,sans-Serif" font-size="10.00">/udfs/PowerLawProfile.cpp</text>
</a>
</g>
</g>
<!-- Node1&#45;&gt;Node5 -->
<g id="edge4_Node000001_Node000005" class="edge">
<title>Node1&#45;&gt;Node5</title>
<g id="a_edge4_Node000001_Node000005"><a xlink:title=" ">
<path fill="none" stroke="#63b8ff" d="M257,-220.69C257,-212.08 257,-202.9 257,-195.07"/>
<polygon fill="#63b8ff" stroke="#63b8ff" points="253.5,-220.79 257,-230.79 260.5,-220.79 253.5,-220.79"/>
</a>
</g>
</g>
<!-- Node6 -->
<g id="Node000006" class="node">
<title>Node6</title>
<g id="a_Node000006"><a xlink:href="_u_d_f_8cpp.html" target="_top" xlink:title=" ">
<polygon fill="white" stroke="#666666" points="504.5,-195 351.5,-195 351.5,-154 504.5,-154 504.5,-195"/>
<text text-anchor="start" x="359.5" y="-183" font-family="Helvetica,sans-Serif" font-size="10.00">/home/runner/work/kynema</text>
<text text-anchor="start" x="359.5" y="-172" font-family="Helvetica,sans-Serif" font-size="10.00">&#45;sgf/kynema&#45;sgf/src/physics</text>
<text text-anchor="middle" x="428" y="-161" font-family="Helvetica,sans-Serif" font-size="10.00">/udfs/UDF.cpp</text>
</a>
</g>
</g>
<!-- Node1&#45;&gt;Node6 -->
<g id="edge5_Node000001_Node000006" class="edge">
<title>Node1&#45;&gt;Node6</title>
<g id="a_edge5_Node000001_Node000006"><a xlink:title=" ">
<path fill="none" stroke="#63b8ff" d="M310.9,-226.86C334.25,-216.62 361.25,-204.77 383.44,-195.04"/>
<polygon fill="#63b8ff" stroke="#63b8ff" points="309.23,-223.77 301.48,-230.99 312.05,-230.18 309.23,-223.77"/>
</a>
</g>
</g>
<!-- Node3 -->
<g id="Node000003" class="node">
<title>Node3</title>
<g id="a_Node000003"><a xlink:href="icns__bcop_8_h.html" target="_top" xlink:title=" ">
<polygon fill="white" stroke="#666666" points="160.5,-118 1.5,-118 1.5,-77 160.5,-77 160.5,-118"/>
<text text-anchor="start" x="9.5" y="-106" font-family="Helvetica,sans-Serif" font-size="10.00">/home/runner/work/kynema</text>
<text text-anchor="start" x="9.5" y="-95" font-family="Helvetica,sans-Serif" font-size="10.00">&#45;sgf/kynema&#45;sgf/src/equation</text>
<text text-anchor="middle" x="81" y="-84" font-family="Helvetica,sans-Serif" font-size="10.00">_systems/icns/icns_bcop.H</text>
</a>
</g>
</g>
<!-- Node2&#45;&gt;Node3 -->
<g id="edge2_Node000002_Node000003" class="edge">
<title>Node2&#45;&gt;Node3</title>
<g id="a_edge2_Node000002_Node000003"><a xlink:title=" ">
<path fill="none" stroke="#63b8ff" d="M81,-143.69C81,-135.08 81,-125.9 81,-118.07"/>
<polygon fill="#63b8ff" stroke="#63b8ff" points="77.5,-143.79 81,-153.79 84.5,-143.79 77.5,-143.79"/>
</a>
</g>
</g>
<!-- Node4 -->
<g id="Node000004" class="node">
<title>Node4</title>
<g id="a_Node000004"><a xlink:href="icns_8cpp.html" target="_top" xlink:title=" ">
<polygon fill="white" stroke="#666666" points="160.5,-41 1.5,-41 1.5,0 160.5,0 160.5,-41"/>
<text text-anchor="start" x="9.5" y="-29" font-family="Helvetica,sans-Serif" font-size="10.00">/home/runner/work/kynema</text>
<text text-anchor="start" x="9.5" y="-18" font-family="Helvetica,sans-Serif" font-size="10.00">&#45;sgf/kynema&#45;sgf/src/equation</text>
<text text-anchor="middle" x="81" y="-7" font-family="Helvetica,sans-Serif" font-size="10.00">_systems/icns/icns.cpp</text>
</a>
</g>
</g>
<!-- Node3&#45;&gt;Node4 -->
<g id="edge3_Node000003_Node000004" class="edge">
<title>Node3&#45;&gt;Node4</title>
<g id="a_edge3_Node000003_Node000004"><a xlink:title=" ">
<path fill="none" stroke="#63b8ff" d="M81,-66.69C81,-58.08 81,-48.9 81,-41.07"/>
<polygon fill="#63b8ff" stroke="#63b8ff" points="77.5,-66.79 81,-76.79 84.5,-66.79 77.5,-66.79"/>
</a>
</g>
</g>
</g>
</svg>
