<?xml version="1.0" encoding="UTF-8" standalone="no"?>
<!DOCTYPE svg PUBLIC "-//W3C//DTD SVG 1.1//EN"
 "http://www.w3.org/Graphics/SVG/1.1/DTD/svg11.dtd">
<!-- Generated by graphviz version 2.43.0 (0)
 -->
<!-- Title: /home/runner/work/kynema&#45;sgf/kynema&#45;sgf/src/utilities/sampling/RadarSampler.H Pages: 1 -->
<!--zoomable 423 -->

<svg id="main" version="1.1" xmlns="http://www.w3.org/2000/svg" xmlns:xlink="http://www.w3.org/1999/xlink" xml:space="preserve" onload="init(evt)">

<style type="text/css"><![CDATA[
.node, .edge {opacity: 0.7;}
.node.selected, .edge.selected {opacity: 1;}
.edge:hover path { stroke: red; }
.edge:hover polygon { stroke: red; fill: red; }
]]></style>

<defs>
  <circle id="rim" cx="0" cy="0" r="7"/>
  <circle id="rim2" cx="0" cy="0" r="3.5"/>
  <g id="zoomPlus">
    <use xlink:href="#rim" fill="#404040"><set attributeName="fill" to="#808080" begin="zoomplus.mouseover" end="zoomplus.mouseout"/></use>
    <path d="M-4,0h8M0,-4v8" fill="none" stroke="white" stroke-width="1.5" pointer-events="none"/>
  </g>
  <g id="zoomMin">
    <use xlink:href="#rim" fill="#404040"><set attributeName="fill" to="#808080" begin="zoomminus.mouseover" end="zoomminus.mouseout"/></use>
    <path d="M-4,0h8" fill="none" stroke="white" stroke-width="1.5" pointer-events="none"/>
  </g>
  <g id="arrowUp" transform="translate(30 24)">
    <use xlink:href="#rim"/>
    <path pointer-events="none" fill="none" stroke="white" stroke-width="1.5" d="M0,-3.0v7 M-2.5,-0.5L0,-3.0L2.5,-0.5"/>
  </g>
  <g id="arrowRight" transform="rotate(90) translate(36 -43)">
    <use xlink:href="#rim"/>
    <path pointer-events="none" fill="none" stroke="white" stroke-width="1.5" d="M0,-3.0v7 M-2.5,-0.5L0,-3.0L2.5,-0.5"/>
  </g>
  <g id="arrowDown" transform="rotate(180) translate(-30 -48)">
    <use xlink:href="#rim"/>
    <path pointer-events="none" fill="none" stroke="white" stroke-width="1.5" d="M0,-3.0v7 M-2.5,-0.5L0,-3.0L2.5,-0.5"/>
  </g>
  <g id="arrowLeft" transform="rotate(270) translate(-36 17)">
    <use xlink:href="#rim"/>
    <path pointer-events="none" fill="none" stroke="white" stroke-width="1.5" d="M0,-3.0v7 M-2.5,-0.5L0,-3.0L2.5,-0.5"/>
  </g>
  <g id="resetDef">
    <use xlink:href="#rim2" fill="#404040"><set attributeName="fill" to="#808080" begin="reset.mouseover" end="reset.mouseout"/></use>
  </g>
</defs>
<script type="application/ecmascript">
var viewWidth = 1750;
var viewHeight = 423;
var sectionId = 'dynsection-0';
</script>
<script type="application/ecmascript" xlink:href="svg.min.js"/>
<svg id="graph" class="graph">
<g id="viewport">
<title>/home/runner/work/kynema&#45;sgf/kynema&#45;sgf/src/utilities/sampling/RadarSampler.H</title>
<!-- Node1 -->
<g id="Node000001" class="node">
<title>Node1</title>
<g id="a_Node000001"><a xlink:title=" ">
<polygon fill="#999999" stroke="#666666" points="1036.5,-415 883.5,-415 883.5,-374 1036.5,-374 1036.5,-415"/>
<text text-anchor="start" x="891.5" y="-403" font-family="Helvetica,sans-Serif" font-size="10.00">/home/runner/work/kynema</text>
<text text-anchor="start" x="891.5" y="-392" font-family="Helvetica,sans-Serif" font-size="10.00">&#45;sgf/kynema&#45;sgf/src/utilities</text>
<text text-anchor="middle" x="960" y="-381" font-family="Helvetica,sans-Serif" font-size="10.00">/sampling/RadarSampler.H</text>
</a>
</g>
</g>
<!-- Node2 -->
<g id="Node000002" class="node">
<title>Node2</title>
<g id="a_Node000002"><a xlink:title=" ">
<polygon fill="#e0e0e0" stroke="#999999" points="1012,-266.5 962,-266.5 962,-247.5 1012,-247.5 1012,-266.5"/>
<text text-anchor="middle" x="987" y="-254.5" font-family="Helvetica,sans-Serif" font-size="10.00">cstdint</text>
</a>
</g>
</g>
<!-- Node1&#45;&gt;Node2 -->
<g id="edge1_Node000001_Node000002" class="edge">
<title>Node1&#45;&gt;Node2</title>
<g id="a_edge1_Node000001_Node000002"><a xlink:title=" ">
<path fill="none" stroke="#63b8ff" d="M963.93,-373.8C969.12,-347.71 978.22,-302.04 983.3,-276.55"/>
<polygon fill="#63b8ff" stroke="#63b8ff" points="986.75,-277.18 985.27,-266.69 979.88,-275.81 986.75,-277.18"/>
</a>
</g>
</g>
<!-- Node3 -->
<g id="Node000003" class="node">
<title>Node3</title>
<g id="a_Node000003"><a xlink:href="_sampler_base_8_h.html" target="_top" xlink:title=" ">
<polygon fill="white" stroke="#666666" points="861.5,-151 742.5,-151 742.5,-121 861.5,-121 861.5,-151"/>
<text text-anchor="start" x="750.5" y="-139" font-family="Helvetica,sans-Serif" font-size="10.00">src/utilities/sampling</text>
<text text-anchor="middle" x="802" y="-128" font-family="Helvetica,sans-Serif" font-size="10.00">/SamplerBase.H</text>
</a>
</g>
</g>
<!-- Node1&#45;&gt;Node3 -->
<g id="edge2_Node000001_Node000003" class="edge">
<title>Node1&#45;&gt;Node3</title>
<g id="a_edge2_Node000001_Node000003"><a xlink:title=" ">
<path fill="none" stroke="#63b8ff" d="M883.31,-390.75C844.87,-385.01 801.43,-370.93 777,-338 737.42,-284.64 769.88,-200.57 789.6,-160.18"/>
<polygon fill="#63b8ff" stroke="#63b8ff" points="792.79,-161.62 794.17,-151.12 786.54,-158.47 792.79,-161.62"/>
</a>
</g>
</g>
<!-- Node16 -->
<g id="Node000016" class="node">
<title>Node16</title>
<g id="a_Node000016"><a xlink:title=" ">
<polygon fill="#e0e0e0" stroke="#999999" points="1105,-19 1013,-19 1013,0 1105,0 1105,-19"/>
<text text-anchor="middle" x="1059" y="-7" font-family="Helvetica,sans-Serif" font-size="10.00">AMReX_REAL.H</text>
</a>
</g>
</g>
<!-- Node1&#45;&gt;Node16 -->
<g id="edge56_Node000001_Node000016" class="edge">
<title>Node1&#45;&gt;Node16</title>
<g id="a_edge56_Node000001_Node000016"><a xlink:title=" ">
<path fill="none" stroke="#63b8ff" d="M955.85,-373.61C950.47,-344.39 942.9,-288.31 953,-242 971.59,-156.76 1024.52,-65.36 1047.79,-27.96"/>
<polygon fill="#63b8ff" stroke="#63b8ff" points="1050.9,-29.59 1053.27,-19.27 1044.98,-25.86 1050.9,-29.59"/>
</a>
</g>
</g>
<!-- Node21 -->
<g id="Node000021" class="node">
<title>Node21</title>
<g id="a_Node000021"><a xlink:href="_sampling_utils_8_h.html" target="_top" xlink:title=" ">
<polygon fill="white" stroke="#666666" points="1156.5,-338 1037.5,-338 1037.5,-308 1156.5,-308 1156.5,-338"/>
<text text-anchor="start" x="1045.5" y="-326" font-family="Helvetica,sans-Serif" font-size="10.00">src/utilities/sampling</text>
<text text-anchor="middle" x="1097" y="-315" font-family="Helvetica,sans-Serif" font-size="10.00">/SamplingUtils.H</text>
</a>
</g>
</g>
<!-- Node1&#45;&gt;Node21 -->
<g id="edge23_Node000001_Node000021" class="edge">
<title>Node1&#45;&gt;Node21</title>
<g id="a_edge23_Node000001_Node000021"><a xlink:title=" ">
<path fill="none" stroke="#63b8ff" d="M998.53,-373.96C1017.84,-364.16 1041.12,-352.35 1060.19,-342.67"/>
<polygon fill="#63b8ff" stroke="#63b8ff" points="1061.85,-345.76 1069.18,-338.11 1058.68,-339.52 1061.85,-345.76"/>
</a>
</g>
</g>
<!-- Node22 -->
<g id="Node000022" class="node">
<title>Node22</title>
<g id="a_Node000022"><a xlink:href="vector__space_8_h.html" target="_top" xlink:title=" ">
<polygon fill="white" stroke="#666666" points="1497.5,-272 1394.5,-272 1394.5,-242 1497.5,-242 1497.5,-272"/>
<text text-anchor="start" x="1402.5" y="-260" font-family="Helvetica,sans-Serif" font-size="10.00">src/core/vs/vector</text>
<text text-anchor="middle" x="1446" y="-249" font-family="Helvetica,sans-Serif" font-size="10.00">_space.H</text>
</a>
</g>
</g>
<!-- Node1&#45;&gt;Node22 -->
<g id="edge55_Node000001_Node000022" class="edge">
<title>Node1&#45;&gt;Node22</title>
<g id="a_edge55_Node000001_Node000022"><a xlink:title=" ">
<path fill="none" stroke="#63b8ff" d="M1033.49,-373.99C1072.83,-363.47 1122.1,-350.18 1166,-338 1242.75,-316.7 1331.07,-291.32 1387.66,-274.95"/>
<polygon fill="#63b8ff" stroke="#63b8ff" points="1388.87,-278.24 1397.5,-272.1 1386.92,-271.52 1388.87,-278.24"/>
</a>
</g>
</g>
<!-- Node36 -->
<g id="Node000036" class="node">
<title>Node36</title>
<g id="a_Node000036"><a xlink:href="_line_sampler_8_h.html" target="_top" xlink:title=" ">
<polygon fill="white" stroke="#666666" points="905.5,-338 786.5,-338 786.5,-308 905.5,-308 905.5,-338"/>
<text text-anchor="start" x="794.5" y="-326" font-family="Helvetica,sans-Serif" font-size="10.00">src/utilities/sampling</text>
<text text-anchor="middle" x="846" y="-315" font-family="Helvetica,sans-Serif" font-size="10.00">/LineSampler.H</text>
</a>
</g>
</g>
<!-- Node1&#45;&gt;Node36 -->
<g id="edge53_Node000001_Node000036" class="edge">
<title>Node1&#45;&gt;Node36</title>
<g id="a_edge53_Node000001_Node000036"><a xlink:title=" ">
<path fill="none" stroke="#63b8ff" d="M927.94,-373.96C912.31,-364.42 893.55,-352.99 877.94,-343.47"/>
<polygon fill="#63b8ff" stroke="#63b8ff" points="879.51,-340.33 869.15,-338.11 875.87,-346.31 879.51,-340.33"/>
</a>
</g>
</g>
<!-- Node4 -->
<g id="Node000004" class="node">
<title>Node4</title>
<g id="a_Node000004"><a xlink:title=" ">
<polygon fill="#e0e0e0" stroke="#999999" points="936,-79.5 826,-79.5 826,-60.5 936,-60.5 936,-79.5"/>
<text text-anchor="middle" x="881" y="-67.5" font-family="Helvetica,sans-Serif" font-size="10.00">AMReX_RealVect.H</text>
</a>
</g>
</g>
<!-- Node3&#45;&gt;Node4 -->
<g id="edge3_Node000003_Node000004" class="edge">
<title>Node3&#45;&gt;Node4</title>
<g id="a_edge3_Node000003_Node000004"><a xlink:title=" ">
<path fill="none" stroke="#63b8ff" d="M819.53,-120.8C832.21,-110.53 849.32,-96.67 862.26,-86.18"/>
<polygon fill="#63b8ff" stroke="#63b8ff" points="864.52,-88.86 870.08,-79.84 860.11,-83.42 864.52,-88.86"/>
</a>
</g>
</g>
<!-- Node5 -->
<g id="Node000005" class="node">
<title>Node5</title>
<g id="a_Node000005"><a xlink:href="_factory_8_h.html" target="_top" xlink:title=" ">
<polygon fill="white" stroke="#666666" points="297,-79.5 195,-79.5 195,-60.5 297,-60.5 297,-79.5"/>
<text text-anchor="middle" x="246" y="-67.5" font-family="Helvetica,sans-Serif" font-size="10.00">src/core/Factory.H</text>
</a>
</g>
</g>
<!-- Node3&#45;&gt;Node5 -->
<g id="edge4_Node000003_Node000005" class="edge">
<title>Node3&#45;&gt;Node5</title>
<g id="a_edge4_Node000003_Node000005"><a xlink:title=" ">
<path fill="none" stroke="#63b8ff" d="M742.5,-128.15C636.25,-115.92 414.97,-90.45 307.38,-78.07"/>
<polygon fill="#63b8ff" stroke="#63b8ff" points="307.67,-74.58 297.33,-76.91 306.87,-81.53 307.67,-74.58"/>
</a>
</g>
</g>
<!-- Node11 -->
<g id="Node000011" class="node">
<title>Node11</title>
<g id="a_Node000011"><a xlink:href="nc__interface_8_h.html" target="_top" xlink:title=" ">
<polygon fill="white" stroke="#666666" points="658,-85 552,-85 552,-55 658,-55 658,-85"/>
<text text-anchor="start" x="560" y="-73" font-family="Helvetica,sans-Serif" font-size="10.00">src/utilities/ncutils</text>
<text text-anchor="middle" x="605" y="-62" font-family="Helvetica,sans-Serif" font-size="10.00">/nc_interface.H</text>
</a>
</g>
</g>
<!-- Node3&#45;&gt;Node11 -->
<g id="edge10_Node000003_Node000011" class="edge">
<title>Node3&#45;&gt;Node11</title>
<g id="a_edge10_Node000003_Node000011"><a xlink:title=" ">
<path fill="none" stroke="#63b8ff" d="M758.77,-120.95C729,-111.28 689.28,-98.38 657.66,-88.11"/>
<polygon fill="#63b8ff" stroke="#63b8ff" points="658.72,-84.77 648.13,-85.01 656.56,-91.43 658.72,-84.77"/>
</a>
</g>
</g>
<!-- Node3&#45;&gt;Node16 -->
<g id="edge21_Node000003_Node000016" class="edge">
<title>Node3&#45;&gt;Node16</title>
<g id="a_edge21_Node000003_Node000016"><a xlink:title=" ">
<path fill="none" stroke="#63b8ff" d="M851.51,-120.95C879.61,-112.18 915.04,-99.76 945,-85 980.23,-67.65 1017.74,-41.45 1039.74,-25.19"/>
<polygon fill="#63b8ff" stroke="#63b8ff" points="1041.99,-27.87 1047.9,-19.08 1037.8,-22.27 1041.99,-27.87"/>
</a>
</g>
</g>
<!-- Node17 -->
<g id="Node000017" class="node">
<title>Node17</title>
<g id="a_Node000017"><a xlink:href="constants_8_h.html" target="_top" xlink:title=" ">
<polygon fill="white" stroke="#666666" points="807.5,-79.5 676.5,-79.5 676.5,-60.5 807.5,-60.5 807.5,-79.5"/>
<text text-anchor="middle" x="742" y="-67.5" font-family="Helvetica,sans-Serif" font-size="10.00">src/utilities/constants.H</text>
</a>
</g>
</g>
<!-- Node3&#45;&gt;Node17 -->
<g id="edge17_Node000003_Node000017" class="edge">
<title>Node3&#45;&gt;Node17</title>
<g id="a_edge17_Node000003_Node000017"><a xlink:title=" ">
<path fill="none" stroke="#63b8ff" d="M788.68,-120.8C779.42,-110.92 767.05,-97.72 757.37,-87.39"/>
<polygon fill="#63b8ff" stroke="#63b8ff" points="759.68,-84.75 750.29,-79.84 754.58,-89.53 759.68,-84.75"/>
</a>
</g>
</g>
<!-- Node20 -->
<g id="Node000020" class="node">
<title>Node20</title>
<g id="a_Node000020"><a xlink:title=" ">
<polygon fill="#e0e0e0" stroke="#999999" points="1368.5,-19 1311.5,-19 1311.5,0 1368.5,0 1368.5,-19"/>
<text text-anchor="middle" x="1340" y="-7" font-family="Helvetica,sans-Serif" font-size="10.00">ostream</text>
</a>
</g>
</g>
<!-- Node3&#45;&gt;Node20 -->
<g id="edge22_Node000003_Node000020" class="edge">
<title>Node3&#45;&gt;Node20</title>
<g id="a_edge22_Node000003_Node000020"><a xlink:title=" ">
<path fill="none" stroke="#63b8ff" d="M861.81,-135.8C944.45,-135.14 1097.14,-127.5 1219,-85 1258.48,-71.23 1298.73,-43.03 1321.41,-25.55"/>
<polygon fill="#63b8ff" stroke="#63b8ff" points="1323.78,-28.15 1329.48,-19.22 1319.45,-22.64 1323.78,-28.15"/>
</a>
</g>
</g>
<!-- Node6 -->
<g id="Node000006" class="node">
<title>Node6</title>
<g id="a_Node000006"><a xlink:title=" ">
<polygon fill="#e0e0e0" stroke="#999999" points="58,-19 0,-19 0,0 58,0 58,-19"/>
<text text-anchor="middle" x="29" y="-7" font-family="Helvetica,sans-Serif" font-size="10.00">memory</text>
</a>
</g>
</g>
<!-- Node5&#45;&gt;Node6 -->
<g id="edge5_Node000005_Node000006" class="edge">
<title>Node5&#45;&gt;Node6</title>
<g id="a_edge5_Node000005_Node000006"><a xlink:title=" ">
<path fill="none" stroke="#63b8ff" d="M214.45,-60.49C175.68,-50.04 109.91,-32.31 68.01,-21.02"/>
<polygon fill="#63b8ff" stroke="#63b8ff" points="68.73,-17.58 58.16,-18.36 66.9,-24.34 68.73,-17.58"/>
</a>
</g>
</g>
<!-- Node7 -->
<g id="Node000007" class="node">
<title>Node7</title>
<g id="a_Node000007"><a xlink:title=" ">
<polygon fill="#e0e0e0" stroke="#999999" points="435.5,-19 342.5,-19 342.5,0 435.5,0 435.5,-19"/>
<text text-anchor="middle" x="389" y="-7" font-family="Helvetica,sans-Serif" font-size="10.00">unordered_map</text>
</a>
</g>
</g>
<!-- Node5&#45;&gt;Node7 -->
<g id="edge6_Node000005_Node000007" class="edge">
<title>Node5&#45;&gt;Node7</title>
<g id="a_edge6_Node000005_Node000007"><a xlink:title=" ">
<path fill="none" stroke="#63b8ff" d="M266.79,-60.49C290.94,-50.62 330.98,-34.23 358.62,-22.93"/>
<polygon fill="#63b8ff" stroke="#63b8ff" points="360.25,-26.04 368.18,-19.02 357.6,-19.56 360.25,-26.04"/>
</a>
</g>
</g>
<!-- Node8 -->
<g id="Node000008" class="node">
<title>Node8</title>
<g id="a_Node000008"><a xlink:title=" ">
<polygon fill="#e0e0e0" stroke="#999999" points="136,-19 76,-19 76,0 136,0 136,-19"/>
<text text-anchor="middle" x="106" y="-7" font-family="Helvetica,sans-Serif" font-size="10.00">iostream</text>
</a>
</g>
</g>
<!-- Node5&#45;&gt;Node8 -->
<g id="edge7_Node000005_Node000008" class="edge">
<title>Node5&#45;&gt;Node8</title>
<g id="a_edge7_Node000005_Node000008"><a xlink:title=" ">
<path fill="none" stroke="#63b8ff" d="M225.64,-60.49C202,-50.62 162.8,-34.23 135.75,-22.93"/>
<polygon fill="#63b8ff" stroke="#63b8ff" points="136.96,-19.64 126.38,-19.02 134.26,-26.1 136.96,-19.64"/>
</a>
</g>
</g>
<!-- Node9 -->
<g id="Node000009" class="node">
<title>Node9</title>
<g id="a_Node000009"><a xlink:title=" ">
<polygon fill="#e0e0e0" stroke="#999999" points="244,-19 154,-19 154,0 244,0 244,-19"/>
<text text-anchor="middle" x="199" y="-7" font-family="Helvetica,sans-Serif" font-size="10.00">AMReX_Print.H</text>
</a>
</g>
</g>
<!-- Node5&#45;&gt;Node9 -->
<g id="edge8_Node000005_Node000009" class="edge">
<title>Node5&#45;&gt;Node9</title>
<g id="a_edge8_Node000005_Node000009"><a xlink:title=" ">
<path fill="none" stroke="#63b8ff" d="M239.06,-60.37C232.05,-51.64 221.04,-37.93 212.33,-27.09"/>
<polygon fill="#63b8ff" stroke="#63b8ff" points="214.96,-24.77 205.96,-19.17 209.5,-29.16 214.96,-24.77"/>
</a>
</g>
</g>
<!-- Node10 -->
<g id="Node000010" class="node">
<title>Node10</title>
<g id="a_Node000010"><a xlink:title=" ">
<polygon fill="#e0e0e0" stroke="#999999" points="324,-19 262,-19 262,0 324,0 324,-19"/>
<text text-anchor="middle" x="293" y="-7" font-family="Helvetica,sans-Serif" font-size="10.00">AMReX.H</text>
</a>
</g>
</g>
<!-- Node5&#45;&gt;Node10 -->
<g id="edge9_Node000005_Node000010" class="edge">
<title>Node5&#45;&gt;Node10</title>
<g id="a_edge9_Node000005_Node000010"><a xlink:title=" ">
<path fill="none" stroke="#63b8ff" d="M252.94,-60.37C259.95,-51.64 270.96,-37.93 279.67,-27.09"/>
<polygon fill="#63b8ff" stroke="#63b8ff" points="282.5,-29.16 286.04,-19.17 277.04,-24.77 282.5,-29.16"/>
</a>
</g>
</g>
<!-- Node11&#45;&gt;Node7 -->
<g id="edge12_Node000011_Node000007" class="edge">
<title>Node11&#45;&gt;Node7</title>
<g id="a_edge12_Node000011_Node000007"><a xlink:title=" ">
<path fill="none" stroke="#63b8ff" d="M553.26,-54.99C515.66,-44.8 465.44,-31.2 430.47,-21.73"/>
<polygon fill="#63b8ff" stroke="#63b8ff" points="431.15,-18.29 420.58,-19.05 429.32,-25.05 431.15,-18.29"/>
</a>
</g>
</g>
<!-- Node12 -->
<g id="Node000012" class="node">
<title>Node12</title>
<g id="a_Node000012"><a xlink:title=" ">
<polygon fill="#e0e0e0" stroke="#999999" points="733,-19 689,-19 689,0 733,0 733,-19"/>
<text text-anchor="middle" x="711" y="-7" font-family="Helvetica,sans-Serif" font-size="10.00">string</text>
</a>
</g>
</g>
<!-- Node11&#45;&gt;Node12 -->
<g id="edge11_Node000011_Node000012" class="edge">
<title>Node11&#45;&gt;Node12</title>
<g id="a_edge11_Node000011_Node000012"><a xlink:title=" ">
<path fill="none" stroke="#63b8ff" d="M630.39,-54.99C647.29,-45.66 669.38,-33.47 686.16,-24.21"/>
<polygon fill="#63b8ff" stroke="#63b8ff" points="688.28,-27.04 695.35,-19.14 684.9,-20.91 688.28,-27.04"/>
</a>
</g>
</g>
<!-- Node13 -->
<g id="Node000013" class="node">
<title>Node13</title>
<g id="a_Node000013"><a xlink:title=" ">
<polygon fill="#e0e0e0" stroke="#999999" points="670.5,-19 623.5,-19 623.5,0 670.5,0 670.5,-19"/>
<text text-anchor="middle" x="647" y="-7" font-family="Helvetica,sans-Serif" font-size="10.00">vector</text>
</a>
</g>
</g>
<!-- Node11&#45;&gt;Node13 -->
<g id="edge13_Node000011_Node000013" class="edge">
<title>Node11&#45;&gt;Node13</title>
<g id="a_edge13_Node000011_Node000013"><a xlink:title=" ">
<path fill="none" stroke="#63b8ff" d="M615.17,-54.84C621.08,-46.61 628.56,-36.18 634.79,-27.51"/>
<polygon fill="#63b8ff" stroke="#63b8ff" points="637.72,-29.43 640.71,-19.27 632.03,-25.35 637.72,-29.43"/>
</a>
</g>
</g>
<!-- Node14 -->
<g id="Node000014" class="node">
<title>Node14</title>
<g id="a_Node000014"><a xlink:title=" ">
<polygon fill="#e0e0e0" stroke="#999999" points="510,-19 454,-19 454,0 510,0 510,-19"/>
<text text-anchor="middle" x="482" y="-7" font-family="Helvetica,sans-Serif" font-size="10.00">netcdf.h</text>
</a>
</g>
</g>
<!-- Node11&#45;&gt;Node14 -->
<g id="edge14_Node000011_Node000014" class="edge">
<title>Node11&#45;&gt;Node14</title>
<g id="a_edge14_Node000011_Node000014"><a xlink:title=" ">
<path fill="none" stroke="#63b8ff" d="M575.54,-54.99C555.38,-45.4 528.86,-32.79 509.2,-23.44"/>
<polygon fill="#63b8ff" stroke="#63b8ff" points="510.7,-20.27 500.16,-19.14 507.69,-26.6 510.7,-20.27"/>
</a>
</g>
</g>
<!-- Node15 -->
<g id="Node000015" class="node">
<title>Node15</title>
<g id="a_Node000015"><a xlink:title=" ">
<polygon fill="#e0e0e0" stroke="#999999" points="605.5,-19 528.5,-19 528.5,0 605.5,0 605.5,-19"/>
<text text-anchor="middle" x="567" y="-7" font-family="Helvetica,sans-Serif" font-size="10.00">netcdf_par.h</text>
</a>
</g>
</g>
<!-- Node11&#45;&gt;Node15 -->
<g id="edge15_Node000011_Node000015" class="edge">
<title>Node11&#45;&gt;Node15</title>
<g id="a_edge15_Node000011_Node000015"><a xlink:title=" ">
<path fill="none" stroke="#63b8ff" d="M595.8,-54.84C590.51,-46.69 583.82,-36.4 578.22,-27.78"/>
<polygon fill="#63b8ff" stroke="#63b8ff" points="581.08,-25.75 572.69,-19.27 575.21,-29.56 581.08,-25.75"/>
</a>
</g>
</g>
<!-- Node11&#45;&gt;Node16 -->
<g id="edge16_Node000011_Node000016" class="edge">
<title>Node11&#45;&gt;Node16</title>
<g id="a_edge16_Node000011_Node000016"><a xlink:title=" ">
<path fill="none" stroke="#63b8ff" d="M658.02,-56.6C661.05,-56.03 664.06,-55.49 667,-55 812.41,-30.9 852.91,-38.17 1002.78,-19.09"/>
<polygon fill="#63b8ff" stroke="#63b8ff" points="1003.34,-22.55 1012.81,-17.8 1002.44,-15.61 1003.34,-22.55"/>
</a>
</g>
</g>
<!-- Node17&#45;&gt;Node16 -->
<g id="edge18_Node000017_Node000016" class="edge">
<title>Node17&#45;&gt;Node16</title>
<g id="a_edge18_Node000017_Node000016"><a xlink:title=" ">
<path fill="none" stroke="#63b8ff" d="M787.61,-60.47C797.31,-58.66 807.49,-56.76 817,-55 880.53,-43.23 953.46,-29.84 1002.51,-20.84"/>
<polygon fill="#63b8ff" stroke="#63b8ff" points="1003.39,-24.24 1012.6,-18.99 1002.13,-17.35 1003.39,-24.24"/>
</a>
</g>
</g>
<!-- Node18 -->
<g id="Node000018" class="node">
<title>Node18</title>
<g id="a_Node000018"><a xlink:title=" ">
<polygon fill="#e0e0e0" stroke="#999999" points="995,-19 903,-19 903,0 995,0 995,-19"/>
<text text-anchor="middle" x="949" y="-7" font-family="Helvetica,sans-Serif" font-size="10.00">AMReX_Math.H</text>
</a>
</g>
</g>
<!-- Node17&#45;&gt;Node18 -->
<g id="edge19_Node000017_Node000018" class="edge">
<title>Node17&#45;&gt;Node18</title>
<g id="a_edge19_Node000017_Node000018"><a xlink:title=" ">
<path fill="none" stroke="#63b8ff" d="M772.1,-60.49C808.28,-50.27 869.11,-33.08 909.16,-21.76"/>
<polygon fill="#63b8ff" stroke="#63b8ff" points="910.19,-25.1 918.86,-19.02 908.29,-18.37 910.19,-25.1"/>
</a>
</g>
</g>
<!-- Node19 -->
<g id="Node000019" class="node">
<title>Node19</title>
<g id="a_Node000019"><a xlink:title=" ">
<polygon fill="#e0e0e0" stroke="#999999" points="885,-19 751,-19 751,0 885,0 885,-19"/>
<text text-anchor="middle" x="818" y="-7" font-family="Helvetica,sans-Serif" font-size="10.00">AMReX_GpuQualifiers.H</text>
</a>
</g>
</g>
<!-- Node17&#45;&gt;Node19 -->
<g id="edge20_Node000017_Node000019" class="edge">
<title>Node17&#45;&gt;Node19</title>
<g id="a_edge20_Node000017_Node000019"><a xlink:title=" ">
<path fill="none" stroke="#63b8ff" d="M753.21,-60.37C765.11,-51.21 784.14,-36.56 798.51,-25.51"/>
<polygon fill="#63b8ff" stroke="#63b8ff" points="800.95,-28.04 806.74,-19.17 796.68,-22.49 800.95,-28.04"/>
</a>
</g>
</g>
<!-- Node21&#45;&gt;Node2 -->
<g id="edge25_Node000021_Node000002" class="edge">
<title>Node21&#45;&gt;Node2</title>
<g id="a_edge25_Node000021_Node000002"><a xlink:title=" ">
<path fill="none" stroke="#63b8ff" d="M1072.86,-307.95C1054.33,-297.18 1028.9,-282.38 1010.53,-271.69"/>
<polygon fill="#63b8ff" stroke="#63b8ff" points="1012.04,-268.52 1001.64,-266.52 1008.52,-274.57 1012.04,-268.52"/>
</a>
</g>
</g>
<!-- Node21&#45;&gt;Node12 -->
<g id="edge24_Node000021_Node000012" class="edge">
<title>Node21&#45;&gt;Node12</title>
<g id="a_edge24_Node000021_Node000012"><a xlink:title=" ">
<path fill="none" stroke="#63b8ff" d="M1090.94,-307.97C1068.98,-257.79 992.4,-88.44 945,-55 872.69,-3.98 834.08,-36.71 743.14,-18.96"/>
<polygon fill="#63b8ff" stroke="#63b8ff" points="743.8,-15.52 733.29,-16.88 742.35,-22.37 743.8,-15.52"/>
</a>
</g>
</g>
<!-- Node21&#45;&gt;Node16 -->
<g id="edge52_Node000021_Node000016" class="edge">
<title>Node21&#45;&gt;Node16</title>
<g id="a_edge52_Node000021_Node000016"><a xlink:title=" ">
<path fill="none" stroke="#63b8ff" d="M1093.43,-307.92C1087.92,-284.95 1078,-237.95 1078,-197.5 1078,-197.5 1078,-197.5 1078,-135 1078,-97.06 1069.27,-53.35 1063.65,-29.13"/>
<polygon fill="#63b8ff" stroke="#63b8ff" points="1067,-28.09 1061.25,-19.19 1060.19,-29.73 1067,-28.09"/>
</a>
</g>
</g>
<!-- Node21&#45;&gt;Node22 -->
<g id="edge26_Node000021_Node000022" class="edge">
<title>Node21&#45;&gt;Node22</title>
<g id="a_edge26_Node000021_Node000022"><a xlink:title=" ">
<path fill="none" stroke="#63b8ff" d="M1156.75,-312.59C1212.95,-303.52 1299.67,-288.96 1384.64,-272.01"/>
<polygon fill="#63b8ff" stroke="#63b8ff" points="1385.34,-275.43 1394.46,-270.03 1383.96,-268.57 1385.34,-275.43"/>
</a>
</g>
</g>
<!-- Node33 -->
<g id="Node000033" class="node">
<title>Node33</title>
<g id="a_Node000033"><a xlink:href="tensor__ops_8_h.html" target="_top" xlink:title=" ">
<polygon fill="white" stroke="#666666" points="1210,-85 1106,-85 1106,-55 1210,-55 1210,-85"/>
<text text-anchor="start" x="1114" y="-73" font-family="Helvetica,sans-Serif" font-size="10.00">src/utilities/tensor</text>
<text text-anchor="middle" x="1158" y="-62" font-family="Helvetica,sans-Serif" font-size="10.00">_ops.H</text>
</a>
</g>
</g>
<!-- Node21&#45;&gt;Node33 -->
<g id="edge47_Node000021_Node000033" class="edge">
<title>Node21&#45;&gt;Node33</title>
<g id="a_edge47_Node000021_Node000033"><a xlink:title=" ">
<path fill="none" stroke="#63b8ff" d="M1100.45,-307.79C1110.48,-266.54 1139.65,-146.5 1152.18,-94.96"/>
<polygon fill="#63b8ff" stroke="#63b8ff" points="1155.62,-95.6 1154.58,-85.06 1148.82,-93.95 1155.62,-95.6"/>
</a>
</g>
</g>
<!-- Node34 -->
<g id="Node000034" class="node">
<title>Node34</title>
<g id="a_Node000034"><a xlink:title=" ">
<polygon fill="#e0e0e0" stroke="#999999" points="1259.5,-266.5 1144.5,-266.5 1144.5,-247.5 1259.5,-247.5 1259.5,-266.5"/>
<text text-anchor="middle" x="1202" y="-254.5" font-family="Helvetica,sans-Serif" font-size="10.00">AMReX_Geometry.H</text>
</a>
</g>
</g>
<!-- Node21&#45;&gt;Node34 -->
<g id="edge50_Node000021_Node000034" class="edge">
<title>Node21&#45;&gt;Node34</title>
<g id="a_edge50_Node000021_Node000034"><a xlink:title=" ">
<path fill="none" stroke="#63b8ff" d="M1120.04,-307.95C1137.56,-297.27 1161.56,-282.65 1179.06,-271.98"/>
<polygon fill="#63b8ff" stroke="#63b8ff" points="1181.31,-274.71 1188.03,-266.52 1177.67,-268.73 1181.31,-274.71"/>
</a>
</g>
</g>
<!-- Node35 -->
<g id="Node000035" class="node">
<title>Node35</title>
<g id="a_Node000035"><a xlink:title=" ">
<polygon fill="#e0e0e0" stroke="#999999" points="1376,-266.5 1278,-266.5 1278,-247.5 1376,-247.5 1376,-266.5"/>
<text text-anchor="middle" x="1327" y="-254.5" font-family="Helvetica,sans-Serif" font-size="10.00">AMReX_Vector.H</text>
</a>
</g>
</g>
<!-- Node21&#45;&gt;Node35 -->
<g id="edge51_Node000021_Node000035" class="edge">
<title>Node21&#45;&gt;Node35</title>
<g id="a_edge51_Node000021_Node000035"><a xlink:title=" ">
<path fill="none" stroke="#63b8ff" d="M1147.47,-307.95C1189.23,-296.34 1247.77,-280.05 1286.51,-269.27"/>
<polygon fill="#63b8ff" stroke="#63b8ff" points="1287.7,-272.57 1296.39,-266.52 1285.82,-265.83 1287.7,-272.57"/>
</a>
</g>
</g>
<!-- Node23 -->
<g id="Node000023" class="node">
<title>Node23</title>
<g id="a_Node000023"><a xlink:href="vector_8_h.html" target="_top" xlink:title=" ">
<polygon fill="white" stroke="#666666" points="1602.5,-145.5 1489.5,-145.5 1489.5,-126.5 1602.5,-126.5 1602.5,-145.5"/>
<text text-anchor="middle" x="1546" y="-133.5" font-family="Helvetica,sans-Serif" font-size="10.00">src/core/vs/vector.H</text>
</a>
</g>
</g>
<!-- Node22&#45;&gt;Node23 -->
<g id="edge27_Node000022_Node000023" class="edge">
<title>Node22&#45;&gt;Node23</title>
<g id="a_edge27_Node000022_Node000023"><a xlink:title=" ">
<path fill="none" stroke="#63b8ff" d="M1459.23,-241.76C1468.32,-231.87 1480.58,-218.3 1491,-206 1505.78,-188.55 1522.03,-167.99 1533.01,-153.87"/>
<polygon fill="#63b8ff" stroke="#63b8ff" points="1536.03,-155.68 1539.39,-145.63 1530.5,-151.4 1536.03,-155.68"/>
</a>
</g>
</g>
<!-- Node29 -->
<g id="Node000029" class="node">
<title>Node29</title>
<g id="a_Node000029"><a xlink:href="tensor_8_h.html" target="_top" xlink:title=" ">
<polygon fill="white" stroke="#666666" points="1481.5,-206 1368.5,-206 1368.5,-187 1481.5,-187 1481.5,-206"/>
<text text-anchor="middle" x="1425" y="-194" font-family="Helvetica,sans-Serif" font-size="10.00">src/core/vs/tensor.H</text>
</a>
</g>
</g>
<!-- Node22&#45;&gt;Node29 -->
<g id="edge35_Node000022_Node000029" class="edge">
<title>Node22&#45;&gt;Node29</title>
<g id="a_edge35_Node000022_Node000029"><a xlink:title=" ">
<path fill="none" stroke="#63b8ff" d="M1440.92,-241.84C1438.12,-234.04 1434.61,-224.27 1431.6,-215.89"/>
<polygon fill="#63b8ff" stroke="#63b8ff" points="1434.82,-214.5 1428.15,-206.27 1428.23,-216.86 1434.82,-214.5"/>
</a>
</g>
</g>
<!-- Node24 -->
<g id="Node000024" class="node">
<title>Node24</title>
<g id="a_Node000024"><a xlink:title=" ">
<polygon fill="#e0e0e0" stroke="#999999" points="1293.5,-19 1206.5,-19 1206.5,0 1293.5,0 1293.5,-19"/>
<text text-anchor="middle" x="1250" y="-7" font-family="Helvetica,sans-Serif" font-size="10.00">AMReX_Gpu.H</text>
</a>
</g>
</g>
<!-- Node23&#45;&gt;Node24 -->
<g id="edge28_Node000023_Node000024" class="edge">
<title>Node23&#45;&gt;Node24</title>
<g id="a_edge28_Node000023_Node000024"><a xlink:title=" ">
<path fill="none" stroke="#63b8ff" d="M1507.25,-126.43C1447.97,-113.23 1340.77,-89.05 1333,-85 1305.08,-70.43 1279.13,-44.3 1263.92,-27.18"/>
<polygon fill="#63b8ff" stroke="#63b8ff" points="1266.18,-24.44 1256.99,-19.16 1260.88,-29.02 1266.18,-24.44"/>
</a>
</g>
</g>
<!-- Node25 -->
<g id="Node000025" class="node">
<title>Node25</title>
<g id="a_Node000025"><a xlink:href="vstraits_8_h.html" target="_top" xlink:title=" ">
<polygon fill="white" stroke="#666666" points="1741.5,-79.5 1622.5,-79.5 1622.5,-60.5 1741.5,-60.5 1741.5,-79.5"/>
<text text-anchor="middle" x="1682" y="-67.5" font-family="Helvetica,sans-Serif" font-size="10.00">src/core/vs/vstraits.H</text>
</a>
</g>
</g>
<!-- Node23&#45;&gt;Node25 -->
<g id="edge29_Node000023_Node000025" class="edge">
<title>Node23&#45;&gt;Node25</title>
<g id="a_edge29_Node000023_Node000025"><a xlink:title=" ">
<path fill="none" stroke="#63b8ff" d="M1564.34,-126.37C1587.46,-115.49 1627.41,-96.69 1654.27,-84.05"/>
<polygon fill="#63b8ff" stroke="#63b8ff" points="1655.96,-87.12 1663.51,-79.7 1652.98,-80.79 1655.96,-87.12"/>
</a>
</g>
</g>
<!-- Node27 -->
<g id="Node000027" class="node">
<title>Node27</title>
<g id="a_Node000027"><a xlink:href="vector_i_8_h.html" target="_top" xlink:title=" ">
<polygon fill="white" stroke="#666666" points="1604,-79.5 1488,-79.5 1488,-60.5 1604,-60.5 1604,-79.5"/>
<text text-anchor="middle" x="1546" y="-67.5" font-family="Helvetica,sans-Serif" font-size="10.00">src/core/vs/vectorI.H</text>
</a>
</g>
</g>
<!-- Node23&#45;&gt;Node27 -->
<g id="edge31_Node000023_Node000027" class="edge">
<title>Node23&#45;&gt;Node27</title>
<g id="a_edge31_Node000023_Node000027"><a xlink:title=" ">
<path fill="none" stroke="#63b8ff" d="M1541.21,-126.37C1539.22,-117.07 1538.75,-101.98 1539.78,-89.9"/>
<polygon fill="#63b8ff" stroke="#63b8ff" points="1543.26,-90.29 1541.15,-79.91 1536.32,-89.34 1543.26,-90.29"/>
</a>
</g>
</g>
<!-- Node26 -->
<g id="Node000026" class="node">
<title>Node26</title>
<g id="a_Node000026"><a xlink:title=" ">
<polygon fill="#e0e0e0" stroke="#999999" points="1704,-19 1660,-19 1660,0 1704,0 1704,-19"/>
<text text-anchor="middle" x="1682" y="-7" font-family="Helvetica,sans-Serif" font-size="10.00">limits</text>
</a>
</g>
</g>
<!-- Node25&#45;&gt;Node26 -->
<g id="edge30_Node000025_Node000026" class="edge">
<title>Node25&#45;&gt;Node26</title>
<g id="a_edge30_Node000025_Node000026"><a xlink:title=" ">
<path fill="none" stroke="#63b8ff" d="M1682,-60.37C1682,-52.25 1682,-39.81 1682,-29.39"/>
<polygon fill="#63b8ff" stroke="#63b8ff" points="1685.5,-29.17 1682,-19.17 1678.5,-29.17 1685.5,-29.17"/>
</a>
</g>
</g>
<!-- Node27&#45;&gt;Node20 -->
<g id="edge32_Node000027_Node000020" class="edge">
<title>Node27&#45;&gt;Node20</title>
<g id="a_edge32_Node000027_Node000020"><a xlink:title=" ">
<path fill="none" stroke="#63b8ff" d="M1516.05,-60.49C1479.63,-50.15 1418.11,-32.68 1378.29,-21.37"/>
<polygon fill="#63b8ff" stroke="#63b8ff" points="1379.24,-18 1368.66,-18.64 1377.33,-24.74 1379.24,-18"/>
</a>
</g>
</g>
<!-- Node27&#45;&gt;Node23 -->
<g id="edge34_Node000027_Node000023" class="edge">
<title>Node27&#45;&gt;Node23</title>
<g id="a_edge34_Node000027_Node000023"><a xlink:title=" ">
<path fill="none" stroke="#63b8ff" d="M1550.85,-79.91C1552.8,-89.32 1553.25,-104.43 1552.19,-116.45"/>
<polygon fill="#63b8ff" stroke="#63b8ff" points="1548.72,-115.98 1550.79,-126.37 1555.65,-116.96 1548.72,-115.98"/>
</a>
</g>
</g>
<!-- Node28 -->
<g id="Node000028" class="node">
<title>Node28</title>
<g id="a_Node000028"><a xlink:title=" ">
<polygon fill="#e0e0e0" stroke="#999999" points="1510.5,-19 1463.5,-19 1463.5,0 1510.5,0 1510.5,-19"/>
<text text-anchor="middle" x="1487" y="-7" font-family="Helvetica,sans-Serif" font-size="10.00">cmath</text>
</a>
</g>
</g>
<!-- Node27&#45;&gt;Node28 -->
<g id="edge33_Node000027_Node000028" class="edge">
<title>Node27&#45;&gt;Node28</title>
<g id="a_edge33_Node000027_Node000028"><a xlink:title=" ">
<path fill="none" stroke="#63b8ff" d="M1537.29,-60.37C1528.32,-51.47 1514.12,-37.39 1503.09,-26.45"/>
<polygon fill="#63b8ff" stroke="#63b8ff" points="1505.31,-23.72 1495.74,-19.17 1500.38,-28.69 1505.31,-23.72"/>
</a>
</g>
</g>
<!-- Node29&#45;&gt;Node23 -->
<g id="edge38_Node000029_Node000023" class="edge">
<title>Node29&#45;&gt;Node23</title>
<g id="a_edge38_Node000029_Node000023"><a xlink:title=" ">
<path fill="none" stroke="#63b8ff" d="M1442.59,-186.99C1462.76,-177.25 1496.02,-161.16 1519.36,-149.88"/>
<polygon fill="#63b8ff" stroke="#63b8ff" points="1520.9,-153.02 1528.38,-145.52 1517.86,-146.72 1520.9,-153.02"/>
</a>
</g>
</g>
<!-- Node29&#45;&gt;Node24 -->
<g id="edge36_Node000029_Node000024" class="edge">
<title>Node29&#45;&gt;Node24</title>
<g id="a_edge36_Node000029_Node000024"><a xlink:title=" ">
<path fill="none" stroke="#63b8ff" d="M1405.62,-186.98C1388.84,-179.06 1364.45,-166.23 1346,-151 1303.79,-116.16 1272.4,-58.17 1258.27,-28.78"/>
<polygon fill="#63b8ff" stroke="#63b8ff" points="1261.27,-26.92 1253.86,-19.34 1254.93,-29.88 1261.27,-26.92"/>
</a>
</g>
</g>
<!-- Node29&#45;&gt;Node25 -->
<g id="edge37_Node000029_Node000025" class="edge">
<title>Node29&#45;&gt;Node25</title>
<g id="a_edge37_Node000029_Node000025"><a xlink:title=" ">
<path fill="none" stroke="#63b8ff" d="M1481.59,-191.13C1520.56,-186.02 1572.28,-174.96 1612,-151 1638.11,-135.25 1659.67,-106.51 1671.68,-88.11"/>
<polygon fill="#63b8ff" stroke="#63b8ff" points="1674.7,-89.88 1677.07,-79.55 1668.78,-86.15 1674.7,-89.88"/>
</a>
</g>
</g>
<!-- Node30 -->
<g id="Node000030" class="node">
<title>Node30</title>
<g id="a_Node000030"><a xlink:href="tensor_i_8_h.html" target="_top" xlink:title=" ">
<polygon fill="white" stroke="#666666" points="1471,-145.5 1355,-145.5 1355,-126.5 1471,-126.5 1471,-145.5"/>
<text text-anchor="middle" x="1413" y="-133.5" font-family="Helvetica,sans-Serif" font-size="10.00">src/core/vs/tensorI.H</text>
</a>
</g>
</g>
<!-- Node29&#45;&gt;Node30 -->
<g id="edge39_Node000029_Node000030" class="edge">
<title>Node29&#45;&gt;Node30</title>
<g id="a_edge39_Node000029_Node000030"><a xlink:title=" ">
<path fill="none" stroke="#63b8ff" d="M1418.27,-186.87C1414.85,-178.75 1411.83,-166.31 1410.52,-155.89"/>
<polygon fill="#63b8ff" stroke="#63b8ff" points="1413.99,-155.4 1409.81,-145.67 1407.01,-155.88 1413.99,-155.4"/>
</a>
</g>
</g>
<!-- Node30&#45;&gt;Node28 -->
<g id="edge40_Node000030_Node000028" class="edge">
<title>Node30&#45;&gt;Node28</title>
<g id="a_edge40_Node000030_Node000028"><a xlink:title=" ">
<path fill="none" stroke="#63b8ff" d="M1418.09,-126.44C1430.13,-106.19 1460.57,-54.97 1476.66,-27.9"/>
<polygon fill="#63b8ff" stroke="#63b8ff" points="1479.78,-29.5 1481.88,-19.12 1473.76,-25.93 1479.78,-29.5"/>
</a>
</g>
</g>
<!-- Node30&#45;&gt;Node29 -->
<g id="edge41_Node000030_Node000029" class="edge">
<title>Node30&#45;&gt;Node29</title>
<g id="a_edge41_Node000030_Node000029"><a xlink:title=" ">
<path fill="none" stroke="#63b8ff" d="M1419.74,-145.67C1423.16,-153.8 1426.18,-166.24 1427.49,-176.66"/>
<polygon fill="#63b8ff" stroke="#63b8ff" points="1424.01,-177.13 1428.18,-186.87 1431,-176.65 1424.01,-177.13"/>
</a>
</g>
</g>
<!-- Node31 -->
<g id="Node000031" class="node">
<title>Node31</title>
<g id="a_Node000031"><a xlink:href="trig__ops_8_h.html" target="_top" xlink:title=" ">
<polygon fill="white" stroke="#666666" points="1432,-85 1342,-85 1342,-55 1432,-55 1432,-85"/>
<text text-anchor="start" x="1350" y="-73" font-family="Helvetica,sans-Serif" font-size="10.00">src/utilities/trig</text>
<text text-anchor="middle" x="1387" y="-62" font-family="Helvetica,sans-Serif" font-size="10.00">_ops.H</text>
</a>
</g>
</g>
<!-- Node30&#45;&gt;Node31 -->
<g id="edge42_Node000030_Node000031" class="edge">
<title>Node30&#45;&gt;Node31</title>
<g id="a_edge42_Node000030_Node000031"><a xlink:title=" ">
<path fill="none" stroke="#63b8ff" d="M1409.49,-126.37C1406.22,-118.32 1401.2,-105.94 1396.72,-94.93"/>
<polygon fill="#63b8ff" stroke="#63b8ff" points="1399.84,-93.31 1392.83,-85.36 1393.36,-95.94 1399.84,-93.31"/>
</a>
</g>
</g>
<!-- Node31&#45;&gt;Node16 -->
<g id="edge45_Node000031_Node000016" class="edge">
<title>Node31&#45;&gt;Node16</title>
<g id="a_edge45_Node000031_Node000016"><a xlink:title=" ">
<path fill="none" stroke="#63b8ff" d="M1341.74,-60.93C1282.6,-50.38 1179.07,-31.91 1115.04,-20.5"/>
<polygon fill="#63b8ff" stroke="#63b8ff" points="1115.58,-17.04 1105.12,-18.73 1114.35,-23.93 1115.58,-17.04"/>
</a>
</g>
</g>
<!-- Node31&#45;&gt;Node24 -->
<g id="edge46_Node000031_Node000024" class="edge">
<title>Node31&#45;&gt;Node24</title>
<g id="a_edge46_Node000031_Node000024"><a xlink:title=" ">
<path fill="none" stroke="#63b8ff" d="M1354.19,-54.99C1331.53,-45.31 1301.65,-32.56 1279.7,-23.18"/>
<polygon fill="#63b8ff" stroke="#63b8ff" points="1280.8,-19.85 1270.23,-19.14 1278.05,-26.29 1280.8,-19.85"/>
</a>
</g>
</g>
<!-- Node31&#45;&gt;Node28 -->
<g id="edge43_Node000031_Node000028" class="edge">
<title>Node31&#45;&gt;Node28</title>
<g id="a_edge43_Node000031_Node000028"><a xlink:title=" ">
<path fill="none" stroke="#63b8ff" d="M1410.95,-54.99C1426.89,-45.66 1447.73,-33.47 1463.56,-24.21"/>
<polygon fill="#63b8ff" stroke="#63b8ff" points="1465.37,-27.21 1472.23,-19.14 1461.83,-21.17 1465.37,-27.21"/>
</a>
</g>
</g>
<!-- Node32 -->
<g id="Node000032" class="node">
<title>Node32</title>
<g id="a_Node000032"><a xlink:title=" ">
<polygon fill="#e0e0e0" stroke="#999999" points="1445.5,-19 1386.5,-19 1386.5,0 1445.5,0 1445.5,-19"/>
<text text-anchor="middle" x="1416" y="-7" font-family="Helvetica,sans-Serif" font-size="10.00">numbers</text>
</a>
</g>
</g>
<!-- Node31&#45;&gt;Node32 -->
<g id="edge44_Node000031_Node000032" class="edge">
<title>Node31&#45;&gt;Node32</title>
<g id="a_edge44_Node000031_Node000032"><a xlink:title=" ">
<path fill="none" stroke="#63b8ff" d="M1394.02,-54.84C1397.97,-46.87 1402.94,-36.84 1407.16,-28.33"/>
<polygon fill="#63b8ff" stroke="#63b8ff" points="1410.35,-29.78 1411.65,-19.27 1404.08,-26.67 1410.35,-29.78"/>
</a>
</g>
</g>
<!-- Node33&#45;&gt;Node16 -->
<g id="edge49_Node000033_Node000016" class="edge">
<title>Node33&#45;&gt;Node16</title>
<g id="a_edge49_Node000033_Node000016"><a xlink:title=" ">
<path fill="none" stroke="#63b8ff" d="M1134.29,-54.99C1118.65,-45.75 1098.26,-33.7 1082.64,-24.47"/>
<polygon fill="#63b8ff" stroke="#63b8ff" points="1084.01,-21.21 1073.62,-19.14 1080.45,-27.24 1084.01,-21.21"/>
</a>
</g>
</g>
<!-- Node33&#45;&gt;Node24 -->
<g id="edge48_Node000033_Node000024" class="edge">
<title>Node33&#45;&gt;Node24</title>
<g id="a_edge48_Node000033_Node000024"><a xlink:title=" ">
<path fill="none" stroke="#63b8ff" d="M1180.27,-54.84C1194.67,-45.68 1213.33,-33.82 1227.73,-24.66"/>
<polygon fill="#63b8ff" stroke="#63b8ff" points="1229.92,-27.41 1236.48,-19.09 1226.17,-21.51 1229.92,-27.41"/>
</a>
</g>
</g>
<!-- Node36&#45;&gt;Node3 -->
<g id="edge54_Node000036_Node000003" class="edge">
<title>Node36&#45;&gt;Node3</title>
<g id="a_edge54_Node000036_Node000003"><a xlink:title=" ">
<path fill="none" stroke="#63b8ff" d="M842.62,-307.79C835.12,-276.24 816.99,-200.04 807.7,-160.97"/>
<polygon fill="#63b8ff" stroke="#63b8ff" points="811.05,-159.92 805.33,-151 804.24,-161.54 811.05,-159.92"/>
</a>
</g>
</g>
</g>
</svg>

<g id="navigator" transform="translate(0 0)" fill="#404254">
  <rect fill="#f2f5e9" fill-opacity="0.5" stroke="#606060" stroke-width=".5" x="0" y="0" width="60" height="60"/>
  <use id="zoomplus" xlink:href="#zoomPlus" x="17" y="9" onmousedown="handleZoom(evt,'in')"/>
  <use id="zoomminus" xlink:href="#zoomMin" x="42" y="9" onmousedown="handleZoom(evt,'out')"/>
  <use id="reset" xlink:href="#resetDef" x="30" y="36" onmousedown="handleReset()"/>
   <use id="arrowup" xlink:href="#arrowUp" x="0" y="0" onmousedown="handlePan(0,-1)"/>
  <use id="arrowright" xlink:href="#arrowRight" x="0" y="0" onmousedown="handlePan(1,0)"/>
  <use id="arrowdown" xlink:href="#arrowDown" x="0" y="0" onmousedown="handlePan(0,1)"/>
  <use id="arrowleft" xlink:href="#arrowLeft" x="0" y="0" onmousedown="handlePan(-1,0)"/>
</g>
<svg viewBox="0 0 15 15" width="100%" height="30px" preserveAspectRatio="xMaxYMin meet">
 <g id="arrow_out" transform="scale(0.3 0.3)">
  <a xlink:href="_radar_sampler_8_h__incl_org.svg" target="_base">
   <rect id="button" ry="5" rx="5" y="6" x="6" height="38" width="38"
        fill="#f2f5e9" fill-opacity="0.5" stroke="#606060" stroke-width="1.0"/>
   <path id="arrow"
     d="M 11.500037,31.436501 C 11.940474,20.09759 22.043105,11.32322 32.158766,21.979434 L 37.068811,17.246167 C 37.068811,17.246167 37.088388,32 37.088388,32 L 22.160133,31.978069 C 22.160133,31.978069 26.997745,27.140456 26.997745,27.140456 C 18.528582,18.264221 13.291696,25.230495 11.500037,31.436501 z"
     style="fill:#404040;"/>
  </a>
 </g>
</svg>

<style type='text/css'>
<![CDATA[
[data-mouse-over-selected='false'] { opacity: 0.7; }
[data-mouse-over-selected='true']  { opacity: 1.0; }
]]>
</style>
<script type="application/ecmascript"><![CDATA[
document.addEventListener('DOMContentLoaded', (event) => {
  highlightEdges();
  highlightAdjacentNodes();
});
]]></script>
</svg>
