<?xml version="1.0" encoding="UTF-8" standalone="no"?>
<!DOCTYPE svg PUBLIC "-//W3C//DTD SVG 1.1//EN"
 "http://www.w3.org/Graphics/SVG/1.1/DTD/svg11.dtd">
<!-- Generated by graphviz version 2.43.0 (0)
 -->
<!-- Title: /home/runner/work/kynema&#45;sgf/kynema&#45;sgf/src/utilities/tagging/RefinementCriteria.H Pages: 1 -->
<!--zoomable 280 -->

<svg id="main" version="1.1" xmlns="http://www.w3.org/2000/svg" xmlns:xlink="http://www.w3.org/1999/xlink" xml:space="preserve" onload="init(evt)">

<style type="text/css"><![CDATA[
.node, .edge {opacity: 0.7;}
.node.selected, .edge.selected {opacity: 1;}
.edge:hover path { stroke: red; }
.edge:hover polygon { stroke: red; fill: red; }
]]></style>

<defs>
  <circle id="rim" cx="0" cy="0" r="7"/>
  <circle id="rim2" cx="0" cy="0" r="3.5"/>
  <g id="zoomPlus">
    <use xlink:href="#rim" fill="#404040"><set attributeName="fill" to="#808080" begin="zoomplus.mouseover" end="zoomplus.mouseout"/></use>
    <path d="M-4,0h8M0,-4v8" fill="none" stroke="white" stroke-width="1.5" pointer-events="none"/>
  </g>
  <g id="zoomMin">
    <use xlink:href="#rim" fill="#404040"><set attributeName="fill" to="#808080" begin="zoomminus.mouseover" end="zoomminus.mouseout"/></use>
    <path d="M-4,0h8" fill="none" stroke="white" stroke-width="1.5" pointer-events="none"/>
  </g>
  <g id="arrowUp" transform="translate(30 24)">
    <use xlink:href="#rim"/>
    <path pointer-events="none" fill="none" stroke="white" stroke-width="1.5" d="M0,-3.0v7 M-2.5,-0.5L0,-3.0L2.5,-0.5"/>
  </g>
  <g id="arrowRight" transform="rotate(90) translate(36 -43)">
    <use xlink:href="#rim"/>
    <path pointer-events="none" fill="none" stroke="white" stroke-width="1.5" d="M0,-3.0v7 M-2.5,-0.5L0,-3.0L2.5,-0.5"/>
  </g>
  <g id="arrowDown" transform="rotate(180) translate(-30 -48)">
    <use xlink:href="#rim"/>
    <path pointer-events="none" fill="none" stroke="white" stroke-width="1.5" d="M0,-3.0v7 M-2.5,-0.5L0,-3.0L2.5,-0.5"/>
  </g>
  <g id="arrowLeft" transform="rotate(270) translate(-36 17)">
    <use xlink:href="#rim"/>
    <path pointer-events="none" fill="none" stroke="white" stroke-width="1.5" d="M0,-3.0v7 M-2.5,-0.5L0,-3.0L2.5,-0.5"/>
  </g>
  <g id="resetDef">
    <use xlink:href="#rim2" fill="#404040"><set attributeName="fill" to="#808080" begin="reset.mouseover" end="reset.mouseout"/></use>
  </g>
</defs>
<script type="application/ecmascript">
var viewWidth = 2276;
var viewHeight = 280;
var sectionId = 'dynsection-1';
</script>
<script type="application/ecmascript" xlink:href="svg.min.js"/>
<svg id="graph" class="graph">
<g id="viewport">
<title>/home/runner/work/kynema&#45;sgf/kynema&#45;sgf/src/utilities/tagging/RefinementCriteria.H</title>
<!-- Node1 -->
<g id="Node000001" class="node">
<title>Node1</title>
<g id="a_Node000001"><a xlink:title=" ">
<polygon fill="#999999" stroke="#666666" points="1070.5,-272 908.5,-272 908.5,-231 1070.5,-231 1070.5,-272"/>
<text text-anchor="start" x="916.5" y="-260" font-family="Helvetica,sans-Serif" font-size="10.00">/home/runner/work/kynema</text>
<text text-anchor="start" x="916.5" y="-249" font-family="Helvetica,sans-Serif" font-size="10.00">&#45;sgf/kynema&#45;sgf/src/utilities</text>
<text text-anchor="middle" x="989.5" y="-238" font-family="Helvetica,sans-Serif" font-size="10.00">/tagging/RefinementCriteria.H</text>
</a>
</g>
</g>
<!-- Node2 -->
<g id="Node000002" class="node">
<title>Node2</title>
<g id="a_Node000002"><a xlink:href="incflo_8cpp.html" target="_top" xlink:title=" ">
<polygon fill="white" stroke="#666666" points="203,-189.5 40,-189.5 40,-159.5 203,-159.5 203,-189.5"/>
<text text-anchor="start" x="48" y="-177.5" font-family="Helvetica,sans-Serif" font-size="10.00">/home/runner/work/kynema</text>
<text text-anchor="middle" x="121.5" y="-166.5" font-family="Helvetica,sans-Serif" font-size="10.00">&#45;sgf/kynema&#45;sgf/src/incflo.cpp</text>
</a>
</g>
</g>
<!-- Node1&#45;&gt;Node2 -->
<g id="edge1_Node000001_Node000002" class="edge">
<title>Node1&#45;&gt;Node2</title>
<g id="a_edge1_Node000001_Node000002"><a xlink:title=" ">
<path fill="none" stroke="#63b8ff" d="M898.11,-247.73C753.21,-242.5 462.08,-228.49 217.5,-195 206.8,-193.53 195.5,-191.6 184.56,-189.51"/>
<polygon fill="#63b8ff" stroke="#63b8ff" points="898.17,-251.24 908.29,-248.1 898.42,-244.24 898.17,-251.24"/>
</a>
</g>
</g>
<!-- Node3 -->
<g id="Node000003" class="node">
<title>Node3</title>
<g id="a_Node000003"><a xlink:href="init_8cpp.html" target="_top" xlink:title=" ">
<polygon fill="white" stroke="#666666" points="151,-118 0,-118 0,-77 151,-77 151,-118"/>
<text text-anchor="start" x="8" y="-106" font-family="Helvetica,sans-Serif" font-size="10.00">/home/runner/work/kynema</text>
<text text-anchor="start" x="8" y="-95" font-family="Helvetica,sans-Serif" font-size="10.00">&#45;sgf/kynema&#45;sgf/src/setup</text>
<text text-anchor="middle" x="75.5" y="-84" font-family="Helvetica,sans-Serif" font-size="10.00">/init.cpp</text>
</a>
</g>
</g>
<!-- Node1&#45;&gt;Node3 -->
<g id="edge2_Node000001_Node000003" class="edge">
<title>Node1&#45;&gt;Node3</title>
<g id="a_edge2_Node000001_Node000003"><a xlink:title=" ">
<path fill="none" stroke="#63b8ff" d="M897.99,-247.3C713.1,-240.31 307.66,-222.1 250.5,-195 227.77,-184.23 232.27,-168.18 211.5,-154 189.49,-138.98 162.79,-126.97 138.89,-118.02"/>
<polygon fill="#63b8ff" stroke="#63b8ff" points="898.12,-250.81 908.24,-247.69 898.38,-243.82 898.12,-250.81"/>
</a>
</g>
</g>
<!-- Node4 -->
<g id="Node000004" class="node">
<title>Node4</title>
<g id="a_Node000004"><a xlink:href="_cart_box_refinement_8_h.html" target="_top" xlink:title=" ">
<polygon fill="white" stroke="#666666" points="425,-195 260,-195 260,-154 425,-154 425,-195"/>
<text text-anchor="start" x="268" y="-183" font-family="Helvetica,sans-Serif" font-size="10.00">/home/runner/work/kynema</text>
<text text-anchor="start" x="268" y="-172" font-family="Helvetica,sans-Serif" font-size="10.00">&#45;sgf/kynema&#45;sgf/src/utilities</text>
<text text-anchor="middle" x="342.5" y="-161" font-family="Helvetica,sans-Serif" font-size="10.00">/tagging/CartBoxRefinement.H</text>
</a>
</g>
</g>
<!-- Node1&#45;&gt;Node4 -->
<g id="edge3_Node000001_Node000004" class="edge">
<title>Node1&#45;&gt;Node4</title>
<g id="a_edge3_Node000001_Node000004"><a xlink:title=" ">
<path fill="none" stroke="#63b8ff" d="M898,-243.71C789.3,-235.07 602.63,-218.4 443.5,-195 437.49,-194.12 431.3,-193.12 425.08,-192.07"/>
<polygon fill="#63b8ff" stroke="#63b8ff" points="898.03,-247.23 908.28,-244.53 898.58,-240.25 898.03,-247.23"/>
</a>
</g>
</g>
<!-- Node6 -->
<g id="Node000006" class="node">
<title>Node6</title>
<g id="a_Node000006"><a xlink:href="_curvature_refinement_8_h.html" target="_top" xlink:title=" ">
<polygon fill="white" stroke="#666666" points="626.5,-195 452.5,-195 452.5,-154 626.5,-154 626.5,-195"/>
<text text-anchor="start" x="460.5" y="-183" font-family="Helvetica,sans-Serif" font-size="10.00">/home/runner/work/kynema</text>
<text text-anchor="start" x="460.5" y="-172" font-family="Helvetica,sans-Serif" font-size="10.00">&#45;sgf/kynema&#45;sgf/src/utilities</text>
<text text-anchor="middle" x="539.5" y="-161" font-family="Helvetica,sans-Serif" font-size="10.00">/tagging/CurvatureRefinement.H</text>
</a>
</g>
</g>
<!-- Node1&#45;&gt;Node6 -->
<g id="edge6_Node000001_Node000006" class="edge">
<title>Node1&#45;&gt;Node6</title>
<g id="a_edge6_Node000001_Node000006"><a xlink:title=" ">
<path fill="none" stroke="#63b8ff" d="M898.17,-236.92C827.46,-226.19 727.13,-210.49 639.5,-195 635.32,-194.26 631.04,-193.49 626.73,-192.7"/>
<polygon fill="#63b8ff" stroke="#63b8ff" points="897.97,-240.43 908.39,-238.47 899.02,-233.51 897.97,-240.43"/>
</a>
</g>
</g>
<!-- Node8 -->
<g id="Node000008" class="node">
<title>Node8</title>
<g id="a_Node000008"><a xlink:href="_field_refinement_8_h.html" target="_top" xlink:title=" ">
<polygon fill="white" stroke="#666666" points="802,-195 649,-195 649,-154 802,-154 802,-195"/>
<text text-anchor="start" x="657" y="-183" font-family="Helvetica,sans-Serif" font-size="10.00">/home/runner/work/kynema</text>
<text text-anchor="start" x="657" y="-172" font-family="Helvetica,sans-Serif" font-size="10.00">&#45;sgf/kynema&#45;sgf/src/utilities</text>
<text text-anchor="middle" x="725.5" y="-161" font-family="Helvetica,sans-Serif" font-size="10.00">/tagging/FieldRefinement.H</text>
</a>
</g>
</g>
<!-- Node1&#45;&gt;Node8 -->
<g id="edge8_Node000001_Node000008" class="edge">
<title>Node1&#45;&gt;Node8</title>
<g id="a_edge8_Node000001_Node000008"><a xlink:title=" ">
<path fill="none" stroke="#63b8ff" d="M911.05,-228.21C873.96,-217.68 830.07,-205.21 794.29,-195.04"/>
<polygon fill="#63b8ff" stroke="#63b8ff" points="910.25,-231.62 920.83,-230.99 912.16,-224.89 910.25,-231.62"/>
</a>
</g>
</g>
<!-- Node10 -->
<g id="Node000010" class="node">
<title>Node10</title>
<g id="a_Node000010"><a xlink:href="_geometry_refinement_8_h.html" target="_top" xlink:title=" ">
<polygon fill="white" stroke="#666666" points="1077,-195 902,-195 902,-154 1077,-154 1077,-195"/>
<text text-anchor="start" x="910" y="-183" font-family="Helvetica,sans-Serif" font-size="10.00">/home/runner/work/kynema</text>
<text text-anchor="start" x="910" y="-172" font-family="Helvetica,sans-Serif" font-size="10.00">&#45;sgf/kynema&#45;sgf/src/utilities</text>
<text text-anchor="middle" x="989.5" y="-161" font-family="Helvetica,sans-Serif" font-size="10.00">/tagging/GeometryRefinement.H</text>
</a>
</g>
</g>
<!-- Node1&#45;&gt;Node10 -->
<g id="edge10_Node000001_Node000010" class="edge">
<title>Node1&#45;&gt;Node10</title>
<g id="a_edge10_Node000001_Node000010"><a xlink:title=" ">
<path fill="none" stroke="#63b8ff" d="M989.5,-220.69C989.5,-212.08 989.5,-202.9 989.5,-195.07"/>
<polygon fill="#63b8ff" stroke="#63b8ff" points="986,-220.79 989.5,-230.79 993,-220.79 986,-220.79"/>
</a>
</g>
</g>
<!-- Node18 -->
<g id="Node000018" class="node">
<title>Node18</title>
<g id="a_Node000018"><a xlink:href="_gradient_mag_refinement_8_h.html" target="_top" xlink:title=" ">
<polygon fill="white" stroke="#666666" points="1284,-195 1095,-195 1095,-154 1284,-154 1284,-195"/>
<text text-anchor="start" x="1103" y="-183" font-family="Helvetica,sans-Serif" font-size="10.00">/home/runner/work/kynema</text>
<text text-anchor="start" x="1103" y="-172" font-family="Helvetica,sans-Serif" font-size="10.00">&#45;sgf/kynema&#45;sgf/src/utilities</text>
<text text-anchor="middle" x="1189.5" y="-161" font-family="Helvetica,sans-Serif" font-size="10.00">/tagging/GradientMagRefinement.H</text>
</a>
</g>
</g>
<!-- Node1&#45;&gt;Node18 -->
<g id="edge18_Node000001_Node000018" class="edge">
<title>Node1&#45;&gt;Node18</title>
<g id="a_edge18_Node000001_Node000018"><a xlink:title=" ">
<path fill="none" stroke="#63b8ff" d="M1051.09,-227.4C1078.73,-217.04 1110.97,-204.95 1137.39,-195.04"/>
<polygon fill="#63b8ff" stroke="#63b8ff" points="1049.66,-224.2 1041.53,-230.99 1052.12,-230.76 1049.66,-224.2"/>
</a>
</g>
</g>
<!-- Node20 -->
<g id="Node000020" class="node">
<title>Node20</title>
<g id="a_Node000020"><a xlink:href="_overset_refinement_8_h.html" target="_top" xlink:title=" ">
<polygon fill="white" stroke="#666666" points="1466.5,-195 1302.5,-195 1302.5,-154 1466.5,-154 1466.5,-195"/>
<text text-anchor="start" x="1310.5" y="-183" font-family="Helvetica,sans-Serif" font-size="10.00">/home/runner/work/kynema</text>
<text text-anchor="start" x="1310.5" y="-172" font-family="Helvetica,sans-Serif" font-size="10.00">&#45;sgf/kynema&#45;sgf/src/utilities</text>
<text text-anchor="middle" x="1384.5" y="-161" font-family="Helvetica,sans-Serif" font-size="10.00">/tagging/OversetRefinement.H</text>
</a>
</g>
</g>
<!-- Node1&#45;&gt;Node20 -->
<g id="edge20_Node000001_Node000020" class="edge">
<title>Node1&#45;&gt;Node20</title>
<g id="a_edge20_Node000001_Node000020"><a xlink:title=" ">
<path fill="none" stroke="#63b8ff" d="M1080.5,-234.51C1140.74,-223.76 1221.43,-209.04 1292.5,-195 1295.7,-194.37 1298.97,-193.71 1302.26,-193.05"/>
<polygon fill="#63b8ff" stroke="#63b8ff" points="1079.87,-231.07 1070.64,-236.27 1081.1,-237.96 1079.87,-231.07"/>
</a>
</g>
</g>
<!-- Node22 -->
<g id="Node000022" class="node">
<title>Node22</title>
<g id="a_Node000022"><a xlink:href="_q_criterion_refinement_8_h.html" target="_top" xlink:title=" ">
<polygon fill="white" stroke="#666666" points="1660.5,-195 1484.5,-195 1484.5,-154 1660.5,-154 1660.5,-195"/>
<text text-anchor="start" x="1492.5" y="-183" font-family="Helvetica,sans-Serif" font-size="10.00">/home/runner/work/kynema</text>
<text text-anchor="start" x="1492.5" y="-172" font-family="Helvetica,sans-Serif" font-size="10.00">&#45;sgf/kynema&#45;sgf/src/utilities</text>
<text text-anchor="middle" x="1572.5" y="-161" font-family="Helvetica,sans-Serif" font-size="10.00">/tagging/QCriterionRefinement.H</text>
</a>
</g>
</g>
<!-- Node1&#45;&gt;Node22 -->
<g id="edge22_Node000001_Node000022" class="edge">
<title>Node1&#45;&gt;Node22</title>
<g id="a_edge22_Node000001_Node000022"><a xlink:title=" ">
<path fill="none" stroke="#63b8ff" d="M1080.77,-242.4C1178.68,-233.18 1338.57,-216.54 1475.5,-195 1478.38,-194.55 1481.31,-194.07 1484.27,-193.57"/>
<polygon fill="#63b8ff" stroke="#63b8ff" points="1080.25,-238.94 1070.62,-243.36 1080.9,-245.91 1080.25,-238.94"/>
</a>
</g>
</g>
<!-- Node24 -->
<g id="Node000024" class="node">
<title>Node24</title>
<g id="a_Node000024"><a xlink:href="_refinement_criteria_8cpp.html" target="_top" xlink:title=" ">
<polygon fill="white" stroke="#666666" points="1850.5,-195 1678.5,-195 1678.5,-154 1850.5,-154 1850.5,-195"/>
<text text-anchor="start" x="1686.5" y="-183" font-family="Helvetica,sans-Serif" font-size="10.00">/home/runner/work/kynema</text>
<text text-anchor="start" x="1686.5" y="-172" font-family="Helvetica,sans-Serif" font-size="10.00">&#45;sgf/kynema&#45;sgf/src/utilities</text>
<text text-anchor="middle" x="1764.5" y="-161" font-family="Helvetica,sans-Serif" font-size="10.00">/tagging/RefinementCriteria.cpp</text>
</a>
</g>
</g>
<!-- Node1&#45;&gt;Node24 -->
<g id="edge24_Node000001_Node000024" class="edge">
<title>Node1&#45;&gt;Node24</title>
<g id="a_edge24_Node000001_Node000024"><a xlink:title=" ">
<path fill="none" stroke="#63b8ff" d="M1081.09,-246.55C1212.06,-240.1 1460.15,-224.92 1669.5,-195 1672.42,-194.58 1675.38,-194.13 1678.37,-193.65"/>
<polygon fill="#63b8ff" stroke="#63b8ff" points="1080.53,-243.07 1070.71,-247.05 1080.87,-250.06 1080.53,-243.07"/>
</a>
</g>
</g>
<!-- Node25 -->
<g id="Node000025" class="node">
<title>Node25</title>
<g id="a_Node000025"><a xlink:href="_vorticity_mag_refinement_8_h.html" target="_top" xlink:title=" ">
<polygon fill="white" stroke="#666666" points="2159.5,-195 1971.5,-195 1971.5,-154 2159.5,-154 2159.5,-195"/>
<text text-anchor="start" x="1979.5" y="-183" font-family="Helvetica,sans-Serif" font-size="10.00">/home/runner/work/kynema</text>
<text text-anchor="start" x="1979.5" y="-172" font-family="Helvetica,sans-Serif" font-size="10.00">&#45;sgf/kynema&#45;sgf/src/utilities</text>
<text text-anchor="middle" x="2065.5" y="-161" font-family="Helvetica,sans-Serif" font-size="10.00">/tagging/VorticityMagRefinement.H</text>
</a>
</g>
</g>
<!-- Node1&#45;&gt;Node25 -->
<g id="edge25_Node000001_Node000025" class="edge">
<title>Node1&#45;&gt;Node25</title>
<g id="a_edge25_Node000001_Node000025"><a xlink:title=" ">
<path fill="none" stroke="#63b8ff" d="M1080.7,-245.6C1239.19,-236.89 1575.67,-217.48 1859.5,-195 1896.12,-192.1 1936.35,-188.41 1971.46,-185.01"/>
<polygon fill="#63b8ff" stroke="#63b8ff" points="1080.31,-242.12 1070.52,-246.16 1080.7,-249.11 1080.31,-242.12"/>
</a>
</g>
</g>
<!-- Node4&#45;&gt;Node3 -->
<g id="edge4_Node000004_Node000003" class="edge">
<title>Node4&#45;&gt;Node3</title>
<g id="a_edge4_Node000004_Node000003"><a xlink:title=" ">
<path fill="none" stroke="#63b8ff" d="M263.16,-151.21C225.65,-140.68 181.26,-128.21 145.07,-118.04"/>
<polygon fill="#63b8ff" stroke="#63b8ff" points="262.47,-154.66 273.05,-153.99 264.37,-147.92 262.47,-154.66"/>
</a>
</g>
</g>
<!-- Node5 -->
<g id="Node000005" class="node">
<title>Node5</title>
<g id="a_Node000005"><a xlink:href="_cart_box_refinement_8cpp.html" target="_top" xlink:title=" ">
<polygon fill="white" stroke="#666666" points="344,-118 169,-118 169,-77 344,-77 344,-118"/>
<text text-anchor="start" x="177" y="-106" font-family="Helvetica,sans-Serif" font-size="10.00">/home/runner/work/kynema</text>
<text text-anchor="start" x="177" y="-95" font-family="Helvetica,sans-Serif" font-size="10.00">&#45;sgf/kynema&#45;sgf/src/utilities</text>
<text text-anchor="middle" x="256.5" y="-84" font-family="Helvetica,sans-Serif" font-size="10.00">/tagging/CartBoxRefinement.cpp</text>
</a>
</g>
</g>
<!-- Node4&#45;&gt;Node5 -->
<g id="edge5_Node000004_Node000005" class="edge">
<title>Node4&#45;&gt;Node5</title>
<g id="a_edge5_Node000004_Node000005"><a xlink:title=" ">
<path fill="none" stroke="#63b8ff" d="M312.19,-147.07C301.25,-137.52 289.1,-126.93 278.94,-118.07"/>
<polygon fill="#63b8ff" stroke="#63b8ff" points="310.07,-149.86 319.9,-153.79 314.67,-144.58 310.07,-149.86"/>
</a>
</g>
</g>
<!-- Node7 -->
<g id="Node000007" class="node">
<title>Node7</title>
<g id="a_Node000007"><a xlink:href="_curvature_refinement_8cpp.html" target="_top" xlink:title=" ">
<polygon fill="white" stroke="#666666" points="546.5,-118 362.5,-118 362.5,-77 546.5,-77 546.5,-118"/>
<text text-anchor="start" x="370.5" y="-106" font-family="Helvetica,sans-Serif" font-size="10.00">/home/runner/work/kynema</text>
<text text-anchor="start" x="370.5" y="-95" font-family="Helvetica,sans-Serif" font-size="10.00">&#45;sgf/kynema&#45;sgf/src/utilities</text>
<text text-anchor="middle" x="454.5" y="-84" font-family="Helvetica,sans-Serif" font-size="10.00">/tagging/CurvatureRefinement.cpp</text>
</a>
</g>
</g>
<!-- Node6&#45;&gt;Node7 -->
<g id="edge7_Node000006_Node000007" class="edge">
<title>Node6&#45;&gt;Node7</title>
<g id="a_edge7_Node000006_Node000007"><a xlink:title=" ">
<path fill="none" stroke="#63b8ff" d="M509.55,-147.07C498.73,-137.52 486.72,-126.93 476.68,-118.07"/>
<polygon fill="#63b8ff" stroke="#63b8ff" points="507.35,-149.8 517.17,-153.79 511.98,-144.55 507.35,-149.8"/>
</a>
</g>
</g>
<!-- Node9 -->
<g id="Node000009" class="node">
<title>Node9</title>
<g id="a_Node000009"><a xlink:href="_field_refinement_8cpp.html" target="_top" xlink:title=" ">
<polygon fill="white" stroke="#666666" points="724,-118 565,-118 565,-77 724,-77 724,-118"/>
<text text-anchor="start" x="573" y="-106" font-family="Helvetica,sans-Serif" font-size="10.00">/home/runner/work/kynema</text>
<text text-anchor="start" x="573" y="-95" font-family="Helvetica,sans-Serif" font-size="10.00">&#45;sgf/kynema&#45;sgf/src/utilities</text>
<text text-anchor="middle" x="644.5" y="-84" font-family="Helvetica,sans-Serif" font-size="10.00">/tagging/FieldRefinement.cpp</text>
</a>
</g>
</g>
<!-- Node8&#45;&gt;Node9 -->
<g id="edge9_Node000008_Node000009" class="edge">
<title>Node8&#45;&gt;Node9</title>
<g id="a_edge9_Node000008_Node000009"><a xlink:title=" ">
<path fill="none" stroke="#63b8ff" d="M696.65,-146.79C686.42,-137.32 675.11,-126.84 665.64,-118.07"/>
<polygon fill="#63b8ff" stroke="#63b8ff" points="694.5,-149.57 704.22,-153.79 699.26,-144.43 694.5,-149.57"/>
</a>
</g>
</g>
<!-- Node11 -->
<g id="Node000011" class="node">
<title>Node11</title>
<g id="a_Node000011"><a xlink:href="_box_refiner_8_h.html" target="_top" xlink:title=" ">
<polygon fill="white" stroke="#666666" points="895,-118 742,-118 742,-77 895,-77 895,-118"/>
<text text-anchor="start" x="750" y="-106" font-family="Helvetica,sans-Serif" font-size="10.00">/home/runner/work/kynema</text>
<text text-anchor="start" x="750" y="-95" font-family="Helvetica,sans-Serif" font-size="10.00">&#45;sgf/kynema&#45;sgf/src/utilities</text>
<text text-anchor="middle" x="818.5" y="-84" font-family="Helvetica,sans-Serif" font-size="10.00">/tagging/BoxRefiner.H</text>
</a>
</g>
</g>
<!-- Node10&#45;&gt;Node11 -->
<g id="edge11_Node000010_Node000011" class="edge">
<title>Node10&#45;&gt;Node11</title>
<g id="a_edge11_Node000010_Node000011"><a xlink:title=" ">
<path fill="none" stroke="#63b8ff" d="M935.6,-149.86C912.25,-139.62 885.25,-127.77 863.06,-118.04"/>
<polygon fill="#63b8ff" stroke="#63b8ff" points="934.45,-153.18 945.02,-153.99 937.27,-146.77 934.45,-153.18"/>
</a>
</g>
</g>
<!-- Node13 -->
<g id="Node000013" class="node">
<title>Node13</title>
<g id="a_Node000013"><a xlink:href="_cylinder_refiner_8_h.html" target="_top" xlink:title=" ">
<polygon fill="white" stroke="#666666" points="1066,-118 913,-118 913,-77 1066,-77 1066,-118"/>
<text text-anchor="start" x="921" y="-106" font-family="Helvetica,sans-Serif" font-size="10.00">/home/runner/work/kynema</text>
<text text-anchor="start" x="921" y="-95" font-family="Helvetica,sans-Serif" font-size="10.00">&#45;sgf/kynema&#45;sgf/src/utilities</text>
<text text-anchor="middle" x="989.5" y="-84" font-family="Helvetica,sans-Serif" font-size="10.00">/tagging/CylinderRefiner.H</text>
</a>
</g>
</g>
<!-- Node10&#45;&gt;Node13 -->
<g id="edge13_Node000010_Node000013" class="edge">
<title>Node10&#45;&gt;Node13</title>
<g id="a_edge13_Node000010_Node000013"><a xlink:title=" ">
<path fill="none" stroke="#63b8ff" d="M989.5,-143.69C989.5,-135.08 989.5,-125.9 989.5,-118.07"/>
<polygon fill="#63b8ff" stroke="#63b8ff" points="986,-143.79 989.5,-153.79 993,-143.79 986,-143.79"/>
</a>
</g>
</g>
<!-- Node15 -->
<g id="Node000015" class="node">
<title>Node15</title>
<g id="a_Node000015"><a xlink:href="_geometry_refinement_8cpp.html" target="_top" xlink:title=" ">
<polygon fill="white" stroke="#666666" points="1269,-118 1084,-118 1084,-77 1269,-77 1269,-118"/>
<text text-anchor="start" x="1092" y="-106" font-family="Helvetica,sans-Serif" font-size="10.00">/home/runner/work/kynema</text>
<text text-anchor="start" x="1092" y="-95" font-family="Helvetica,sans-Serif" font-size="10.00">&#45;sgf/kynema&#45;sgf/src/utilities</text>
<text text-anchor="middle" x="1176.5" y="-84" font-family="Helvetica,sans-Serif" font-size="10.00">/tagging/GeometryRefinement.cpp</text>
</a>
</g>
</g>
<!-- Node10&#45;&gt;Node15 -->
<g id="edge15_Node000010_Node000015" class="edge">
<title>Node10&#45;&gt;Node15</title>
<g id="a_edge15_Node000010_Node000015"><a xlink:title=" ">
<path fill="none" stroke="#63b8ff" d="M1047.43,-150.27C1073.19,-139.94 1103.19,-127.9 1127.78,-118.04"/>
<polygon fill="#63b8ff" stroke="#63b8ff" points="1046.12,-147.02 1038.14,-153.99 1048.73,-153.52 1046.12,-147.02"/>
</a>
</g>
</g>
<!-- Node16 -->
<g id="Node000016" class="node">
<title>Node16</title>
<g id="a_Node000016"><a xlink:href="_u_d_f_refiner_8_h.html" target="_top" xlink:title=" ">
<polygon fill="white" stroke="#666666" points="1440,-118 1287,-118 1287,-77 1440,-77 1440,-118"/>
<text text-anchor="start" x="1295" y="-106" font-family="Helvetica,sans-Serif" font-size="10.00">/home/runner/work/kynema</text>
<text text-anchor="start" x="1295" y="-95" font-family="Helvetica,sans-Serif" font-size="10.00">&#45;sgf/kynema&#45;sgf/src/utilities</text>
<text text-anchor="middle" x="1363.5" y="-84" font-family="Helvetica,sans-Serif" font-size="10.00">/tagging/UDFRefiner.H</text>
</a>
</g>
</g>
<!-- Node10&#45;&gt;Node16 -->
<g id="edge16_Node000010_Node000016" class="edge">
<title>Node10&#45;&gt;Node16</title>
<g id="a_edge16_Node000010_Node000016"><a xlink:title=" ">
<path fill="none" stroke="#63b8ff" d="M1086.99,-153.73C1172.37,-137.21 1195.55,-134.97 1277.5,-118 1280.5,-117.38 1283.55,-116.74 1286.64,-116.08"/>
<polygon fill="#63b8ff" stroke="#63b8ff" points="1086.27,-150.3 1077.12,-155.64 1087.61,-157.17 1086.27,-150.3"/>
</a>
</g>
</g>
<!-- Node12 -->
<g id="Node000012" class="node">
<title>Node12</title>
<g id="a_Node000012"><a xlink:href="_box_refiner_8cpp.html" target="_top" xlink:title=" ">
<polygon fill="white" stroke="#666666" points="895,-41 742,-41 742,0 895,0 895,-41"/>
<text text-anchor="start" x="750" y="-29" font-family="Helvetica,sans-Serif" font-size="10.00">/home/runner/work/kynema</text>
<text text-anchor="start" x="750" y="-18" font-family="Helvetica,sans-Serif" font-size="10.00">&#45;sgf/kynema&#45;sgf/src/utilities</text>
<text text-anchor="middle" x="818.5" y="-7" font-family="Helvetica,sans-Serif" font-size="10.00">/tagging/BoxRefiner.cpp</text>
</a>
</g>
</g>
<!-- Node11&#45;&gt;Node12 -->
<g id="edge12_Node000011_Node000012" class="edge">
<title>Node11&#45;&gt;Node12</title>
<g id="a_edge12_Node000011_Node000012"><a xlink:title=" ">
<path fill="none" stroke="#63b8ff" d="M818.5,-66.69C818.5,-58.08 818.5,-48.9 818.5,-41.07"/>
<polygon fill="#63b8ff" stroke="#63b8ff" points="815,-66.79 818.5,-76.79 822,-66.79 815,-66.79"/>
</a>
</g>
</g>
<!-- Node14 -->
<g id="Node000014" class="node">
<title>Node14</title>
<g id="a_Node000014"><a xlink:href="_cylinder_refiner_8cpp.html" target="_top" xlink:title=" ">
<polygon fill="white" stroke="#666666" points="1067.5,-41 913.5,-41 913.5,0 1067.5,0 1067.5,-41"/>
<text text-anchor="start" x="921.5" y="-29" font-family="Helvetica,sans-Serif" font-size="10.00">/home/runner/work/kynema</text>
<text text-anchor="start" x="921.5" y="-18" font-family="Helvetica,sans-Serif" font-size="10.00">&#45;sgf/kynema&#45;sgf/src/utilities</text>
<text text-anchor="middle" x="990.5" y="-7" font-family="Helvetica,sans-Serif" font-size="10.00">/tagging/CylinderRefiner.cpp</text>
</a>
</g>
</g>
<!-- Node13&#45;&gt;Node14 -->
<g id="edge14_Node000013_Node000014" class="edge">
<title>Node13&#45;&gt;Node14</title>
<g id="a_edge14_Node000013_Node000014"><a xlink:title=" ">
<path fill="none" stroke="#63b8ff" d="M989.9,-66.69C990.01,-58.08 990.13,-48.9 990.24,-41.07"/>
<polygon fill="#63b8ff" stroke="#63b8ff" points="986.4,-66.75 989.76,-76.79 993.4,-66.84 986.4,-66.75"/>
</a>
</g>
</g>
<!-- Node17 -->
<g id="Node000017" class="node">
<title>Node17</title>
<g id="a_Node000017"><a xlink:href="_u_d_f_refiner_8cpp.html" target="_top" xlink:title=" ">
<polygon fill="white" stroke="#666666" points="1440,-41 1287,-41 1287,0 1440,0 1440,-41"/>
<text text-anchor="start" x="1295" y="-29" font-family="Helvetica,sans-Serif" font-size="10.00">/home/runner/work/kynema</text>
<text text-anchor="start" x="1295" y="-18" font-family="Helvetica,sans-Serif" font-size="10.00">&#45;sgf/kynema&#45;sgf/src/utilities</text>
<text text-anchor="middle" x="1363.5" y="-7" font-family="Helvetica,sans-Serif" font-size="10.00">/tagging/UDFRefiner.cpp</text>
</a>
</g>
</g>
<!-- Node16&#45;&gt;Node17 -->
<g id="edge17_Node000016_Node000017" class="edge">
<title>Node16&#45;&gt;Node17</title>
<g id="a_edge17_Node000016_Node000017"><a xlink:title=" ">
<path fill="none" stroke="#63b8ff" d="M1363.5,-66.69C1363.5,-58.08 1363.5,-48.9 1363.5,-41.07"/>
<polygon fill="#63b8ff" stroke="#63b8ff" points="1360,-66.79 1363.5,-76.79 1367,-66.79 1360,-66.79"/>
</a>
</g>
</g>
<!-- Node19 -->
<g id="Node000019" class="node">
<title>Node19</title>
<g id="a_Node000019"><a xlink:href="_gradient_mag_refinement_8cpp.html" target="_top" xlink:title=" ">
<polygon fill="white" stroke="#666666" points="1657,-118 1458,-118 1458,-77 1657,-77 1657,-118"/>
<text text-anchor="start" x="1466" y="-106" font-family="Helvetica,sans-Serif" font-size="10.00">/home/runner/work/kynema</text>
<text text-anchor="start" x="1466" y="-95" font-family="Helvetica,sans-Serif" font-size="10.00">&#45;sgf/kynema&#45;sgf/src/utilities</text>
<text text-anchor="middle" x="1557.5" y="-84" font-family="Helvetica,sans-Serif" font-size="10.00">/tagging/GradientMagRefinement.cpp</text>
</a>
</g>
</g>
<!-- Node18&#45;&gt;Node19 -->
<g id="edge19_Node000018_Node000019" class="edge">
<title>Node18&#45;&gt;Node19</title>
<g id="a_edge19_Node000018_Node000019"><a xlink:title=" ">
<path fill="none" stroke="#63b8ff" d="M1294.32,-152.14C1347.01,-141.4 1410.41,-128.48 1461.77,-118.01"/>
<polygon fill="#63b8ff" stroke="#63b8ff" points="1293.37,-148.76 1284.27,-154.19 1294.77,-155.62 1293.37,-148.76"/>
</a>
</g>
</g>
<!-- Node21 -->
<g id="Node000021" class="node">
<title>Node21</title>
<g id="a_Node000021"><a xlink:href="_overset_refinement_8cpp.html" target="_top" xlink:title=" ">
<polygon fill="white" stroke="#666666" points="1849.5,-118 1675.5,-118 1675.5,-77 1849.5,-77 1849.5,-118"/>
<text text-anchor="start" x="1683.5" y="-106" font-family="Helvetica,sans-Serif" font-size="10.00">/home/runner/work/kynema</text>
<text text-anchor="start" x="1683.5" y="-95" font-family="Helvetica,sans-Serif" font-size="10.00">&#45;sgf/kynema&#45;sgf/src/utilities</text>
<text text-anchor="middle" x="1762.5" y="-84" font-family="Helvetica,sans-Serif" font-size="10.00">/tagging/OversetRefinement.cpp</text>
</a>
</g>
</g>
<!-- Node20&#45;&gt;Node21 -->
<g id="edge21_Node000020_Node000021" class="edge">
<title>Node20&#45;&gt;Node21</title>
<g id="a_edge21_Node000020_Node000021"><a xlink:title=" ">
<path fill="none" stroke="#63b8ff" d="M1476.88,-153.74C1561.42,-136.79 1584.28,-133.86 1665.5,-118 1668.7,-117.37 1671.97,-116.73 1675.26,-116.09"/>
<polygon fill="#63b8ff" stroke="#63b8ff" points="1475.93,-150.36 1466.82,-155.77 1477.32,-157.23 1475.93,-150.36"/>
</a>
</g>
</g>
<!-- Node23 -->
<g id="Node000023" class="node">
<title>Node23</title>
<g id="a_Node000023"><a xlink:href="_q_criterion_refinement_8cpp.html" target="_top" xlink:title=" ">
<polygon fill="white" stroke="#666666" points="2053,-118 1868,-118 1868,-77 2053,-77 2053,-118"/>
<text text-anchor="start" x="1876" y="-106" font-family="Helvetica,sans-Serif" font-size="10.00">/home/runner/work/kynema</text>
<text text-anchor="start" x="1876" y="-95" font-family="Helvetica,sans-Serif" font-size="10.00">&#45;sgf/kynema&#45;sgf/src/utilities</text>
<text text-anchor="middle" x="1960.5" y="-84" font-family="Helvetica,sans-Serif" font-size="10.00">/tagging/QCriterionRefinement.cpp</text>
</a>
</g>
</g>
<!-- Node22&#45;&gt;Node23 -->
<g id="edge23_Node000022_Node000023" class="edge">
<title>Node22&#45;&gt;Node23</title>
<g id="a_edge23_Node000022_Node000023"><a xlink:title=" ">
<path fill="none" stroke="#63b8ff" d="M1670.57,-153.8C1755.07,-137.29 1777.62,-133.43 1858.5,-118 1861.6,-117.41 1864.75,-116.81 1867.93,-116.2"/>
<polygon fill="#63b8ff" stroke="#63b8ff" points="1669.66,-150.41 1660.52,-155.76 1671.01,-157.28 1669.66,-150.41"/>
</a>
</g>
</g>
<!-- Node26 -->
<g id="Node000026" class="node">
<title>Node26</title>
<g id="a_Node000026"><a xlink:href="_vorticity_mag_refinement_8cpp.html" target="_top" xlink:title=" ">
<polygon fill="white" stroke="#666666" points="2268,-118 2071,-118 2071,-77 2268,-77 2268,-118"/>
<text text-anchor="start" x="2079" y="-106" font-family="Helvetica,sans-Serif" font-size="10.00">/home/runner/work/kynema</text>
<text text-anchor="start" x="2079" y="-95" font-family="Helvetica,sans-Serif" font-size="10.00">&#45;sgf/kynema&#45;sgf/src/utilities</text>
<text text-anchor="middle" x="2169.5" y="-84" font-family="Helvetica,sans-Serif" font-size="10.00">/tagging/VorticityMagRefinement.cpp</text>
</a>
</g>
</g>
<!-- Node25&#45;&gt;Node26 -->
<g id="edge26_Node000025_Node000026" class="edge">
<title>Node25&#45;&gt;Node26</title>
<g id="a_edge26_Node000025_Node000026"><a xlink:title=" ">
<path fill="none" stroke="#63b8ff" d="M2100.73,-148.09C2114.28,-138.32 2129.53,-127.32 2142.22,-118.17"/>
<polygon fill="#63b8ff" stroke="#63b8ff" points="2098.62,-145.3 2092.55,-153.99 2102.71,-150.98 2098.62,-145.3"/>
</a>
</g>
</g>
</g>
</svg>

<g id="navigator" transform="translate(0 0)" fill="#404254">
  <rect fill="#f2f5e9" fill-opacity="0.5" stroke="#606060" stroke-width=".5" x="0" y="0" width="60" height="60"/>
  <use id="zoomplus" xlink:href="#zoomPlus" x="17" y="9" onmousedown="handleZoom(evt,'in')"/>
  <use id="zoomminus" xlink:href="#zoomMin" x="42" y="9" onmousedown="handleZoom(evt,'out')"/>
  <use id="reset" xlink:href="#resetDef" x="30" y="36" onmousedown="handleReset()"/>
   <use id="arrowup" xlink:href="#arrowUp" x="0" y="0" onmousedown="handlePan(0,-1)"/>
  <use id="arrowright" xlink:href="#arrowRight" x="0" y="0" onmousedown="handlePan(1,0)"/>
  <use id="arrowdown" xlink:href="#arrowDown" x="0" y="0" onmousedown="handlePan(0,1)"/>
  <use id="arrowleft" xlink:href="#arrowLeft" x="0" y="0" onmousedown="handlePan(-1,0)"/>
</g>
<svg viewBox="0 0 15 15" width="100%" height="30px" preserveAspectRatio="xMaxYMin meet">
 <g id="arrow_out" transform="scale(0.3 0.3)">
  <a xlink:href="_refinement_criteria_8_h__dep__incl_org.svg" target="_base">
   <rect id="button" ry="5" rx="5" y="6" x="6" height="38" width="38"
        fill="#f2f5e9" fill-opacity="0.5" stroke="#606060" stroke-width="1.0"/>
   <path id="arrow"
     d="M 11.500037,31.436501 C 11.940474,20.09759 22.043105,11.32322 32.158766,21.979434 L 37.068811,17.246167 C 37.068811,17.246167 37.088388,32 37.088388,32 L 22.160133,31.978069 C 22.160133,31.978069 26.997745,27.140456 26.997745,27.140456 C 18.528582,18.264221 13.291696,25.230495 11.500037,31.436501 z"
     style="fill:#404040;"/>
  </a>
 </g>
</svg>

<style type='text/css'>
<![CDATA[
[data-mouse-over-selected='false'] { opacity: 0.7; }
[data-mouse-over-selected='true']  { opacity: 1.0; }
]]>
</style>
<script type="application/ecmascript"><![CDATA[
document.addEventListener('DOMContentLoaded', (event) => {
  highlightEdges();
  highlightAdjacentNodes();
});
]]></script>
</svg>
