<?xml version="1.0" encoding="UTF-8" standalone="no"?>
<!DOCTYPE svg PUBLIC "-//W3C//DTD SVG 1.1//EN"
 "http://www.w3.org/Graphics/SVG/1.1/DTD/svg11.dtd">
<!-- Generated by graphviz version 2.43.0 (0)
 -->
<!-- Title: /home/runner/work/kynema&#45;sgf/kynema&#45;sgf/src/ocean_waves/relaxation_zones/RelaxationZones.H Pages: 1 -->
<svg width="1049pt" height="313pt"
 viewBox="0.00 0.00 1049.00 313.00" xmlns="http://www.w3.org/2000/svg" xmlns:xlink="http://www.w3.org/1999/xlink">
<g id="graph0" class="graph" transform="scale(1 1) rotate(0) translate(4 309)">
<title>/home/runner/work/kynema&#45;sgf/kynema&#45;sgf/src/ocean_waves/relaxation_zones/RelaxationZones.H</title>
<!-- Node1 -->
<g id="Node000001" class="node">
<title>Node1</title>
<g id="a_Node000001"><a xlink:title=" ">
<polygon fill="#999999" stroke="#666666" points="615,-305 420,-305 420,-253 615,-253 615,-305"/>
<text text-anchor="start" x="428" y="-293" font-family="Helvetica,sans-Serif" font-size="10.00">/home/runner/work/kynema</text>
<text text-anchor="start" x="428" y="-282" font-family="Helvetica,sans-Serif" font-size="10.00">&#45;sgf/kynema&#45;sgf/src/ocean</text>
<text text-anchor="start" x="428" y="-271" font-family="Helvetica,sans-Serif" font-size="10.00">_waves/relaxation_zones/Relaxation</text>
<text text-anchor="middle" x="517.5" y="-260" font-family="Helvetica,sans-Serif" font-size="10.00">Zones.H</text>
</a>
</g>
</g>
<!-- Node2 -->
<g id="Node000002" class="node">
<title>Node2</title>
<g id="a_Node000002"><a xlink:href="_linear_waves_8_h.html" target="_top" xlink:title=" ">
<polygon fill="white" stroke="#666666" points="279,-211.5 64,-211.5 64,-170.5 279,-170.5 279,-211.5"/>
<text text-anchor="start" x="72" y="-199.5" font-family="Helvetica,sans-Serif" font-size="10.00">/home/runner/work/kynema</text>
<text text-anchor="start" x="72" y="-188.5" font-family="Helvetica,sans-Serif" font-size="10.00">&#45;sgf/kynema&#45;sgf/src/ocean</text>
<text text-anchor="middle" x="171.5" y="-177.5" font-family="Helvetica,sans-Serif" font-size="10.00">_waves/relaxation_zones/LinearWaves.H</text>
</a>
</g>
</g>
<!-- Node1&#45;&gt;Node2 -->
<g id="edge1_Node000001_Node000002" class="edge">
<title>Node1&#45;&gt;Node2</title>
<g id="a_edge1_Node000001_Node000002"><a xlink:title=" ">
<path fill="none" stroke="#63b8ff" d="M409.87,-251.25C358.19,-238.4 297.39,-223.29 250.13,-211.54"/>
<polygon fill="#63b8ff" stroke="#63b8ff" points="409.19,-254.69 419.74,-253.7 410.88,-247.89 409.19,-254.69"/>
</a>
</g>
</g>
<!-- Node5 -->
<g id="Node000005" class="node">
<title>Node5</title>
<g id="a_Node000005"><a xlink:href="_stokes_waves_8_h.html" target="_top" xlink:title=" ">
<polygon fill="white" stroke="#666666" points="515.5,-211.5 297.5,-211.5 297.5,-170.5 515.5,-170.5 515.5,-211.5"/>
<text text-anchor="start" x="305.5" y="-199.5" font-family="Helvetica,sans-Serif" font-size="10.00">/home/runner/work/kynema</text>
<text text-anchor="start" x="305.5" y="-188.5" font-family="Helvetica,sans-Serif" font-size="10.00">&#45;sgf/kynema&#45;sgf/src/ocean</text>
<text text-anchor="middle" x="406.5" y="-177.5" font-family="Helvetica,sans-Serif" font-size="10.00">_waves/relaxation_zones/StokesWaves.H</text>
</a>
</g>
</g>
<!-- Node1&#45;&gt;Node5 -->
<g id="edge5_Node000001_Node000005" class="edge">
<title>Node1&#45;&gt;Node5</title>
<g id="a_edge5_Node000001_Node000005"><a xlink:title=" ">
<path fill="none" stroke="#63b8ff" d="M476.89,-246.54C461.77,-234.82 445.05,-221.87 431.71,-211.53"/>
<polygon fill="#63b8ff" stroke="#63b8ff" points="475.05,-249.54 485.1,-252.89 479.33,-244 475.05,-249.54"/>
</a>
</g>
</g>
<!-- Node8 -->
<g id="Node000008" class="node">
<title>Node8</title>
<g id="a_Node000008"><a xlink:href="_w2_a_waves_8_h.html" target="_top" xlink:title=" ">
<polygon fill="white" stroke="#666666" points="964,-211.5 757,-211.5 757,-170.5 964,-170.5 964,-211.5"/>
<text text-anchor="start" x="765" y="-199.5" font-family="Helvetica,sans-Serif" font-size="10.00">/home/runner/work/kynema</text>
<text text-anchor="start" x="765" y="-188.5" font-family="Helvetica,sans-Serif" font-size="10.00">&#45;sgf/kynema&#45;sgf/src/ocean</text>
<text text-anchor="middle" x="860.5" y="-177.5" font-family="Helvetica,sans-Serif" font-size="10.00">_waves/relaxation_zones/W2AWaves.H</text>
</a>
</g>
</g>
<!-- Node1&#45;&gt;Node8 -->
<g id="edge9_Node000001_Node000008" class="edge">
<title>Node1&#45;&gt;Node8</title>
<g id="a_edge9_Node000001_Node000008"><a xlink:title=" ">
<path fill="none" stroke="#63b8ff" d="M625.09,-251.02C676.18,-238.22 736.09,-223.19 782.68,-211.51"/>
<polygon fill="#63b8ff" stroke="#63b8ff" points="624.18,-247.64 615.33,-253.47 625.88,-254.43 624.18,-247.64"/>
</a>
</g>
</g>
<!-- Node11 -->
<g id="Node000011" class="node">
<title>Node11</title>
<g id="a_Node000011"><a xlink:href="relaxation__zones__ops_8_h.html" target="_top" xlink:title=" ">
<polygon fill="white" stroke="#666666" points="725.5,-217 533.5,-217 533.5,-165 725.5,-165 725.5,-217"/>
<text text-anchor="start" x="541.5" y="-205" font-family="Helvetica,sans-Serif" font-size="10.00">/home/runner/work/kynema</text>
<text text-anchor="start" x="541.5" y="-194" font-family="Helvetica,sans-Serif" font-size="10.00">&#45;sgf/kynema&#45;sgf/src/ocean</text>
<text text-anchor="start" x="541.5" y="-183" font-family="Helvetica,sans-Serif" font-size="10.00">_waves/relaxation_zones/relaxation</text>
<text text-anchor="middle" x="629.5" y="-172" font-family="Helvetica,sans-Serif" font-size="10.00">_zones_ops.H</text>
</a>
</g>
</g>
<!-- Node1&#45;&gt;Node11 -->
<g id="edge13_Node000001_Node000011" class="edge">
<title>Node1&#45;&gt;Node11</title>
<g id="a_edge13_Node000001_Node000011"><a xlink:title=" ">
<path fill="none" stroke="#63b8ff" d="M558.28,-246.69C570.87,-237.02 584.58,-226.49 596.57,-217.29"/>
<polygon fill="#63b8ff" stroke="#63b8ff" points="556,-244.03 550.2,-252.89 560.26,-249.58 556,-244.03"/>
</a>
</g>
</g>
<!-- Node3 -->
<g id="Node000003" class="node">
<title>Node3</title>
<g id="a_Node000003"><a xlink:href="_linear_waves_8cpp.html" target="_top" xlink:title=" ">
<polygon fill="white" stroke="#666666" points="225,-41 0,-41 0,0 225,0 225,-41"/>
<text text-anchor="start" x="8" y="-29" font-family="Helvetica,sans-Serif" font-size="10.00">/home/runner/work/kynema</text>
<text text-anchor="start" x="8" y="-18" font-family="Helvetica,sans-Serif" font-size="10.00">&#45;sgf/kynema&#45;sgf/src/ocean</text>
<text text-anchor="middle" x="112.5" y="-7" font-family="Helvetica,sans-Serif" font-size="10.00">_waves/relaxation_zones/LinearWaves.cpp</text>
</a>
</g>
</g>
<!-- Node2&#45;&gt;Node3 -->
<g id="edge2_Node000002_Node000003" class="edge">
<title>Node2&#45;&gt;Node3</title>
<g id="a_edge2_Node000002_Node000003"><a xlink:title=" ">
<path fill="none" stroke="#63b8ff" d="M133.35,-163.72C122.61,-154.16 112.29,-142.37 106.5,-129 94.1,-100.35 100.43,-63.33 106.33,-41.06"/>
<polygon fill="#63b8ff" stroke="#63b8ff" points="131.27,-166.54 141.18,-170.27 135.76,-161.17 131.27,-166.54"/>
</a>
</g>
</g>
<!-- Node4 -->
<g id="Node000004" class="node">
<title>Node4</title>
<g id="a_Node000004"><a xlink:href="linear__waves__ops_8_h.html" target="_top" xlink:title=" ">
<polygon fill="white" stroke="#666666" points="285.5,-129 115.5,-129 115.5,-77 285.5,-77 285.5,-129"/>
<text text-anchor="start" x="123.5" y="-117" font-family="Helvetica,sans-Serif" font-size="10.00">/home/runner/work/kynema</text>
<text text-anchor="start" x="123.5" y="-106" font-family="Helvetica,sans-Serif" font-size="10.00">&#45;sgf/kynema&#45;sgf/src/ocean</text>
<text text-anchor="start" x="123.5" y="-95" font-family="Helvetica,sans-Serif" font-size="10.00">_waves/relaxation_zones/linear</text>
<text text-anchor="middle" x="200.5" y="-84" font-family="Helvetica,sans-Serif" font-size="10.00">_waves_ops.H</text>
</a>
</g>
</g>
<!-- Node2&#45;&gt;Node4 -->
<g id="edge3_Node000002_Node000004" class="edge">
<title>Node2&#45;&gt;Node4</title>
<g id="a_edge3_Node000002_Node000004"><a xlink:title=" ">
<path fill="none" stroke="#63b8ff" d="M181.36,-160.76C184.8,-150.55 188.64,-139.18 191.96,-129.32"/>
<polygon fill="#63b8ff" stroke="#63b8ff" points="177.96,-159.89 178.08,-170.49 184.59,-162.13 177.96,-159.89"/>
</a>
</g>
</g>
<!-- Node4&#45;&gt;Node3 -->
<g id="edge4_Node000004_Node000003" class="edge">
<title>Node4&#45;&gt;Node3</title>
<g id="a_edge4_Node000004_Node000003"><a xlink:title=" ">
<path fill="none" stroke="#63b8ff" d="M165.54,-70.02C154.87,-60.26 143.47,-49.83 133.98,-41.15"/>
<polygon fill="#63b8ff" stroke="#63b8ff" points="163.4,-72.8 173.14,-76.97 168.12,-67.64 163.4,-72.8"/>
</a>
</g>
</g>
<!-- Node6 -->
<g id="Node000006" class="node">
<title>Node6</title>
<g id="a_Node000006"><a xlink:href="_stokes_waves_8cpp.html" target="_top" xlink:title=" ">
<polygon fill="white" stroke="#666666" points="494,-41 267,-41 267,0 494,0 494,-41"/>
<text text-anchor="start" x="275" y="-29" font-family="Helvetica,sans-Serif" font-size="10.00">/home/runner/work/kynema</text>
<text text-anchor="start" x="275" y="-18" font-family="Helvetica,sans-Serif" font-size="10.00">&#45;sgf/kynema&#45;sgf/src/ocean</text>
<text text-anchor="middle" x="380.5" y="-7" font-family="Helvetica,sans-Serif" font-size="10.00">_waves/relaxation_zones/StokesWaves.cpp</text>
</a>
</g>
</g>
<!-- Node5&#45;&gt;Node6 -->
<g id="edge6_Node000005_Node000006" class="edge">
<title>Node5&#45;&gt;Node6</title>
<g id="a_edge6_Node000005_Node000006"><a xlink:title=" ">
<path fill="none" stroke="#63b8ff" d="M362.59,-164.22C350.58,-154.79 339.08,-142.95 332.5,-129 322.64,-108.1 324.43,-98.66 332.5,-77 337.57,-63.39 347.64,-50.9 357.26,-41.22"/>
<polygon fill="#63b8ff" stroke="#63b8ff" points="360.8,-167.25 370.93,-170.36 364.95,-161.61 360.8,-167.25"/>
</a>
</g>
</g>
<!-- Node7 -->
<g id="Node000007" class="node">
<title>Node7</title>
<g id="a_Node000007"><a xlink:href="stokes__waves__ops_8_h.html" target="_top" xlink:title=" ">
<polygon fill="white" stroke="#666666" points="515.5,-129 341.5,-129 341.5,-77 515.5,-77 515.5,-129"/>
<text text-anchor="start" x="349.5" y="-117" font-family="Helvetica,sans-Serif" font-size="10.00">/home/runner/work/kynema</text>
<text text-anchor="start" x="349.5" y="-106" font-family="Helvetica,sans-Serif" font-size="10.00">&#45;sgf/kynema&#45;sgf/src/ocean</text>
<text text-anchor="start" x="349.5" y="-95" font-family="Helvetica,sans-Serif" font-size="10.00">_waves/relaxation_zones/stokes</text>
<text text-anchor="middle" x="428.5" y="-84" font-family="Helvetica,sans-Serif" font-size="10.00">_waves_ops.H</text>
</a>
</g>
</g>
<!-- Node5&#45;&gt;Node7 -->
<g id="edge7_Node000005_Node000007" class="edge">
<title>Node5&#45;&gt;Node7</title>
<g id="a_edge7_Node000005_Node000007"><a xlink:title=" ">
<path fill="none" stroke="#63b8ff" d="M413.98,-160.76C416.59,-150.55 419.5,-139.18 422.02,-129.32"/>
<polygon fill="#63b8ff" stroke="#63b8ff" points="410.58,-159.93 411.49,-170.49 417.36,-161.66 410.58,-159.93"/>
</a>
</g>
</g>
<!-- Node7&#45;&gt;Node6 -->
<g id="edge8_Node000007_Node000006" class="edge">
<title>Node7&#45;&gt;Node6</title>
<g id="a_edge8_Node000007_Node000006"><a xlink:title=" ">
<path fill="none" stroke="#63b8ff" d="M408.41,-68.31C402.89,-59.05 397.09,-49.32 392.21,-41.15"/>
<polygon fill="#63b8ff" stroke="#63b8ff" points="405.45,-70.17 413.58,-76.97 411.46,-66.59 405.45,-70.17"/>
</a>
</g>
</g>
<!-- Node9 -->
<g id="Node000009" class="node">
<title>Node9</title>
<g id="a_Node000009"><a xlink:href="_w2_a_waves_8cpp.html" target="_top" xlink:title=" ">
<polygon fill="white" stroke="#666666" points="1041,-41 824,-41 824,0 1041,0 1041,-41"/>
<text text-anchor="start" x="832" y="-29" font-family="Helvetica,sans-Serif" font-size="10.00">/home/runner/work/kynema</text>
<text text-anchor="start" x="832" y="-18" font-family="Helvetica,sans-Serif" font-size="10.00">&#45;sgf/kynema&#45;sgf/src/ocean</text>
<text text-anchor="middle" x="932.5" y="-7" font-family="Helvetica,sans-Serif" font-size="10.00">_waves/relaxation_zones/W2AWaves.cpp</text>
</a>
</g>
</g>
<!-- Node8&#45;&gt;Node9 -->
<g id="edge10_Node000008_Node000009" class="edge">
<title>Node8&#45;&gt;Node9</title>
<g id="a_edge10_Node000008_Node000009"><a xlink:title=" ">
<path fill="none" stroke="#63b8ff" d="M942.98,-165.87C959.83,-157.02 975.46,-145.07 985.5,-129 997.74,-109.4 994.1,-98.45 985.5,-77 979.9,-63.03 968.92,-50.57 958.39,-41.02"/>
<polygon fill="#63b8ff" stroke="#63b8ff" points="940.99,-162.94 933.52,-170.47 944.05,-169.24 940.99,-162.94"/>
</a>
</g>
</g>
<!-- Node10 -->
<g id="Node000010" class="node">
<title>Node10</title>
<g id="a_Node000010"><a xlink:href="waves2amr__ops_8_h.html" target="_top" xlink:title=" ">
<polygon fill="white" stroke="#666666" points="977,-123.5 744,-123.5 744,-82.5 977,-82.5 977,-123.5"/>
<text text-anchor="start" x="752" y="-111.5" font-family="Helvetica,sans-Serif" font-size="10.00">/home/runner/work/kynema</text>
<text text-anchor="start" x="752" y="-100.5" font-family="Helvetica,sans-Serif" font-size="10.00">&#45;sgf/kynema&#45;sgf/src/ocean</text>
<text text-anchor="middle" x="860.5" y="-89.5" font-family="Helvetica,sans-Serif" font-size="10.00">_waves/relaxation_zones/waves2amr_ops.H</text>
</a>
</g>
</g>
<!-- Node8&#45;&gt;Node10 -->
<g id="edge11_Node000008_Node000010" class="edge">
<title>Node8&#45;&gt;Node10</title>
<g id="a_edge11_Node000008_Node000010"><a xlink:title=" ">
<path fill="none" stroke="#63b8ff" d="M860.5,-160.36C860.5,-148.26 860.5,-134.58 860.5,-123.74"/>
<polygon fill="#63b8ff" stroke="#63b8ff" points="857,-160.49 860.5,-170.49 864,-160.49 857,-160.49"/>
</a>
</g>
</g>
<!-- Node10&#45;&gt;Node9 -->
<g id="edge12_Node000010_Node000009" class="edge">
<title>Node10&#45;&gt;Node9</title>
<g id="a_edge12_Node000010_Node000009"><a xlink:title=" ">
<path fill="none" stroke="#63b8ff" d="M885.15,-74.44C894.93,-63.5 905.96,-51.18 914.91,-41.17"/>
<polygon fill="#63b8ff" stroke="#63b8ff" points="882.36,-72.31 878.3,-82.1 887.57,-76.98 882.36,-72.31"/>
</a>
</g>
</g>
<!-- Node11&#45;&gt;Node4 -->
<g id="edge14_Node000011_Node000004" class="edge">
<title>Node11&#45;&gt;Node4</title>
<g id="a_edge14_Node000011_Node000004"><a xlink:title=" ">
<path fill="none" stroke="#63b8ff" d="M523.52,-164.83C437.92,-146.79 414.74,-144.5 332.5,-129 317.37,-126.15 301.27,-123.11 285.7,-120.16"/>
<polygon fill="#63b8ff" stroke="#63b8ff" points="522.9,-168.28 533.41,-166.93 524.35,-161.43 522.9,-168.28"/>
</a>
</g>
</g>
<!-- Node11&#45;&gt;Node7 -->
<g id="edge16_Node000011_Node000007" class="edge">
<title>Node11&#45;&gt;Node7</title>
<g id="a_edge16_Node000011_Node000007"><a xlink:title=" ">
<path fill="none" stroke="#63b8ff" d="M561.4,-160.86C537.33,-150.56 510.48,-139.08 487.25,-129.14"/>
<polygon fill="#63b8ff" stroke="#63b8ff" points="560.25,-164.18 570.82,-164.89 563.01,-157.74 560.25,-164.18"/>
</a>
</g>
</g>
<!-- Node11&#45;&gt;Node10 -->
<g id="edge17_Node000011_Node000010" class="edge">
<title>Node11&#45;&gt;Node10</title>
<g id="a_edge17_Node000011_Node000010"><a xlink:title=" ">
<path fill="none" stroke="#63b8ff" d="M706.65,-161.28C739.96,-148.88 778.08,-134.68 808.04,-123.53"/>
<polygon fill="#63b8ff" stroke="#63b8ff" points="705.09,-158.12 696.94,-164.89 707.53,-164.69 705.09,-158.12"/>
</a>
</g>
</g>
<!-- Node12 -->
<g id="Node000012" class="node">
<title>Node12</title>
<g id="a_Node000012"><a xlink:href="relaxation__zones__ops_8cpp.html" target="_top" xlink:title=" ">
<polygon fill="white" stroke="#666666" points="725.5,-129 533.5,-129 533.5,-77 725.5,-77 725.5,-129"/>
<text text-anchor="start" x="541.5" y="-117" font-family="Helvetica,sans-Serif" font-size="10.00">/home/runner/work/kynema</text>
<text text-anchor="start" x="541.5" y="-106" font-family="Helvetica,sans-Serif" font-size="10.00">&#45;sgf/kynema&#45;sgf/src/ocean</text>
<text text-anchor="start" x="541.5" y="-95" font-family="Helvetica,sans-Serif" font-size="10.00">_waves/relaxation_zones/relaxation</text>
<text text-anchor="middle" x="629.5" y="-84" font-family="Helvetica,sans-Serif" font-size="10.00">_zones_ops.cpp</text>
</a>
</g>
</g>
<!-- Node11&#45;&gt;Node12 -->
<g id="edge15_Node000011_Node000012" class="edge">
<title>Node11&#45;&gt;Node12</title>
<g id="a_edge15_Node000011_Node000012"><a xlink:title=" ">
<path fill="none" stroke="#63b8ff" d="M629.5,-154.56C629.5,-146.04 629.5,-137.1 629.5,-129.16"/>
<polygon fill="#63b8ff" stroke="#63b8ff" points="626,-154.66 629.5,-164.66 633,-154.66 626,-154.66"/>
</a>
</g>
</g>
</g>
</svg>
