<?xml version="1.0" encoding="UTF-8" standalone="no"?>
<!DOCTYPE svg PUBLIC "-//W3C//DTD SVG 1.1//EN"
 "http://www.w3.org/Graphics/SVG/1.1/DTD/svg11.dtd">
<!-- Generated by graphviz version 2.43.0 (0)
 -->
<!-- Title: /home/runner/work/kynema&#45;sgf/kynema&#45;sgf/src/equation_systems/sdr/SDRSource.H Pages: 1 -->
<svg width="737pt" height="280pt"
 viewBox="0.00 0.00 737.00 280.00" xmlns="http://www.w3.org/2000/svg" xmlns:xlink="http://www.w3.org/1999/xlink">
<g id="graph0" class="graph" transform="scale(1 1) rotate(0) translate(4 276)">
<title>/home/runner/work/kynema&#45;sgf/kynema&#45;sgf/src/equation_systems/sdr/SDRSource.H</title>
<!-- Node1 -->
<g id="Node000001" class="node">
<title>Node1</title>
<g id="a_Node000001"><a xlink:title=" ">
<polygon fill="#999999" stroke="#666666" points="501,-272 342,-272 342,-231 501,-231 501,-272"/>
<text text-anchor="start" x="350" y="-260" font-family="Helvetica,sans-Serif" font-size="10.00">/home/runner/work/kynema</text>
<text text-anchor="start" x="350" y="-249" font-family="Helvetica,sans-Serif" font-size="10.00">&#45;sgf/kynema&#45;sgf/src/equation</text>
<text text-anchor="middle" x="421.5" y="-238" font-family="Helvetica,sans-Serif" font-size="10.00">_systems/sdr/SDRSource.H</text>
</a>
</g>
</g>
<!-- Node2 -->
<g id="Node000002" class="node">
<title>Node2</title>
<g id="a_Node000002"><a xlink:href="_s_d_r_8_h.html" target="_top" xlink:title=" ">
<polygon fill="white" stroke="#666666" points="403,-195 244,-195 244,-154 403,-154 403,-195"/>
<text text-anchor="start" x="252" y="-183" font-family="Helvetica,sans-Serif" font-size="10.00">/home/runner/work/kynema</text>
<text text-anchor="start" x="252" y="-172" font-family="Helvetica,sans-Serif" font-size="10.00">&#45;sgf/kynema&#45;sgf/src/equation</text>
<text text-anchor="middle" x="323.5" y="-161" font-family="Helvetica,sans-Serif" font-size="10.00">_systems/sdr/SDR.H</text>
</a>
</g>
</g>
<!-- Node1&#45;&gt;Node2 -->
<g id="edge1_Node000001_Node000002" class="edge">
<title>Node1&#45;&gt;Node2</title>
<g id="a_edge1_Node000001_Node000002"><a xlink:title=" ">
<path fill="none" stroke="#63b8ff" d="M387.94,-224.82C375.26,-215.11 361.05,-204.24 349.21,-195.17"/>
<polygon fill="#63b8ff" stroke="#63b8ff" points="385.94,-227.69 396.01,-230.99 390.19,-222.13 385.94,-227.69"/>
</a>
</g>
</g>
<!-- Node8 -->
<g id="Node000008" class="node">
<title>Node8</title>
<g id="a_Node000008"><a xlink:href="_s_d_r_src_8_h.html" target="_top" xlink:title=" ">
<polygon fill="white" stroke="#666666" points="672,-195 473,-195 473,-154 672,-154 672,-195"/>
<text text-anchor="start" x="481" y="-183" font-family="Helvetica,sans-Serif" font-size="10.00">/home/runner/work/kynema</text>
<text text-anchor="start" x="481" y="-172" font-family="Helvetica,sans-Serif" font-size="10.00">&#45;sgf/kynema&#45;sgf/src/equation</text>
<text text-anchor="middle" x="572.5" y="-161" font-family="Helvetica,sans-Serif" font-size="10.00">_systems/sdr/source_terms/SDRSrc.H</text>
</a>
</g>
</g>
<!-- Node1&#45;&gt;Node8 -->
<g id="edge10_Node000001_Node000008" class="edge">
<title>Node1&#45;&gt;Node8</title>
<g id="a_edge10_Node000001_Node000008"><a xlink:title=" ">
<path fill="none" stroke="#63b8ff" d="M469.92,-226.45C490.35,-216.3 513.82,-204.64 533.16,-195.04"/>
<polygon fill="#63b8ff" stroke="#63b8ff" points="468.18,-223.41 460.78,-230.99 471.29,-229.68 468.18,-223.41"/>
</a>
</g>
</g>
<!-- Node3 -->
<g id="Node000003" class="node">
<title>Node3</title>
<g id="a_Node000003"><a xlink:href="_s_d_r_8cpp.html" target="_top" xlink:title=" ">
<polygon fill="white" stroke="#666666" points="159,-41 0,-41 0,0 159,0 159,-41"/>
<text text-anchor="start" x="8" y="-29" font-family="Helvetica,sans-Serif" font-size="10.00">/home/runner/work/kynema</text>
<text text-anchor="start" x="8" y="-18" font-family="Helvetica,sans-Serif" font-size="10.00">&#45;sgf/kynema&#45;sgf/src/equation</text>
<text text-anchor="middle" x="79.5" y="-7" font-family="Helvetica,sans-Serif" font-size="10.00">_systems/sdr/SDR.cpp</text>
</a>
</g>
</g>
<!-- Node2&#45;&gt;Node3 -->
<g id="edge2_Node000002_Node000003" class="edge">
<title>Node2&#45;&gt;Node3</title>
<g id="a_edge2_Node000002_Node000003"><a xlink:title=" ">
<path fill="none" stroke="#63b8ff" d="M233.61,-165.48C169.73,-157.71 91.81,-143.27 71.5,-118 54.12,-96.38 62.47,-62.54 70.6,-41.22"/>
<polygon fill="#63b8ff" stroke="#63b8ff" points="233.39,-168.98 243.73,-166.68 234.21,-162.03 233.39,-168.98"/>
</a>
</g>
</g>
<!-- Node4 -->
<g id="Node000004" class="node">
<title>Node4</title>
<g id="a_Node000004"><a xlink:href="sdr__ops_8_h.html" target="_top" xlink:title=" ">
<polygon fill="white" stroke="#666666" points="240,-118 81,-118 81,-77 240,-77 240,-118"/>
<text text-anchor="start" x="89" y="-106" font-family="Helvetica,sans-Serif" font-size="10.00">/home/runner/work/kynema</text>
<text text-anchor="start" x="89" y="-95" font-family="Helvetica,sans-Serif" font-size="10.00">&#45;sgf/kynema&#45;sgf/src/equation</text>
<text text-anchor="middle" x="160.5" y="-84" font-family="Helvetica,sans-Serif" font-size="10.00">_systems/sdr/sdr_ops.H</text>
</a>
</g>
</g>
<!-- Node2&#45;&gt;Node4 -->
<g id="edge3_Node000002_Node000004" class="edge">
<title>Node2&#45;&gt;Node4</title>
<g id="a_edge3_Node000002_Node000004"><a xlink:title=" ">
<path fill="none" stroke="#63b8ff" d="M271.82,-149.72C249.64,-139.51 224.03,-127.73 202.97,-118.04"/>
<polygon fill="#63b8ff" stroke="#63b8ff" points="270.55,-152.99 281.1,-153.99 273.48,-146.63 270.55,-152.99"/>
</a>
</g>
</g>
<!-- Node5 -->
<g id="Node000005" class="node">
<title>Node5</title>
<g id="a_Node000005"><a xlink:href="_k_omega_s_s_t_8cpp.html" target="_top" xlink:title=" ">
<polygon fill="white" stroke="#666666" points="360.5,-41 192.5,-41 192.5,0 360.5,0 360.5,-41"/>
<text text-anchor="start" x="200.5" y="-29" font-family="Helvetica,sans-Serif" font-size="10.00">/home/runner/work/kynema</text>
<text text-anchor="start" x="200.5" y="-18" font-family="Helvetica,sans-Serif" font-size="10.00">&#45;sgf/kynema&#45;sgf/src/turbulence</text>
<text text-anchor="middle" x="276.5" y="-7" font-family="Helvetica,sans-Serif" font-size="10.00">/RANS/KOmegaSST.cpp</text>
</a>
</g>
</g>
<!-- Node2&#45;&gt;Node5 -->
<g id="edge5_Node000002_Node000005" class="edge">
<title>Node2&#45;&gt;Node5</title>
<g id="a_edge5_Node000002_Node000005"><a xlink:title=" ">
<path fill="none" stroke="#63b8ff" d="M301.13,-145.65C295.44,-137.21 289.97,-127.62 286.5,-118 277.37,-92.64 275.75,-61.29 275.81,-41.34"/>
<polygon fill="#63b8ff" stroke="#63b8ff" points="298.41,-147.85 307.06,-153.97 304.11,-143.79 298.41,-147.85"/>
</a>
</g>
</g>
<!-- Node6 -->
<g id="Node000006" class="node">
<title>Node6</title>
<g id="a_Node000006"><a xlink:href="_k_omega_s_s_t_i_8_h.html" target="_top" xlink:title=" ">
<polygon fill="white" stroke="#666666" points="463.5,-118 295.5,-118 295.5,-77 463.5,-77 463.5,-118"/>
<text text-anchor="start" x="303.5" y="-106" font-family="Helvetica,sans-Serif" font-size="10.00">/home/runner/work/kynema</text>
<text text-anchor="start" x="303.5" y="-95" font-family="Helvetica,sans-Serif" font-size="10.00">&#45;sgf/kynema&#45;sgf/src/turbulence</text>
<text text-anchor="middle" x="379.5" y="-84" font-family="Helvetica,sans-Serif" font-size="10.00">/RANS/KOmegaSSTI.H</text>
</a>
</g>
</g>
<!-- Node2&#45;&gt;Node6 -->
<g id="edge6_Node000002_Node000006" class="edge">
<title>Node2&#45;&gt;Node6</title>
<g id="a_edge6_Node000002_Node000006"><a xlink:title=" ">
<path fill="none" stroke="#63b8ff" d="M344.28,-145.67C351.13,-136.5 358.6,-126.5 364.88,-118.07"/>
<polygon fill="#63b8ff" stroke="#63b8ff" points="341.39,-143.69 338.21,-153.79 347,-147.88 341.39,-143.69"/>
</a>
</g>
</g>
<!-- Node7 -->
<g id="Node000007" class="node">
<title>Node7</title>
<g id="a_Node000007"><a xlink:href="_k_omega_s_s_t_i_d_d_e_s_8cpp.html" target="_top" xlink:title=" ">
<polygon fill="white" stroke="#666666" points="565.5,-41 397.5,-41 397.5,0 565.5,0 565.5,-41"/>
<text text-anchor="start" x="405.5" y="-29" font-family="Helvetica,sans-Serif" font-size="10.00">/home/runner/work/kynema</text>
<text text-anchor="start" x="405.5" y="-18" font-family="Helvetica,sans-Serif" font-size="10.00">&#45;sgf/kynema&#45;sgf/src/turbulence</text>
<text text-anchor="middle" x="481.5" y="-7" font-family="Helvetica,sans-Serif" font-size="10.00">/RANS/KOmegaSSTIDDES.cpp</text>
</a>
</g>
</g>
<!-- Node2&#45;&gt;Node7 -->
<g id="edge9_Node000002_Node000007" class="edge">
<title>Node2&#45;&gt;Node7</title>
<g id="a_edge9_Node000002_Node000007"><a xlink:title=" ">
<path fill="none" stroke="#63b8ff" d="M413.09,-157.94C435.76,-149.73 457.81,-137.18 472.5,-118 489.38,-95.96 488.24,-62.24 485.3,-41.06"/>
<polygon fill="#63b8ff" stroke="#63b8ff" points="411.73,-154.71 403.36,-161.2 413.95,-161.34 411.73,-154.71"/>
</a>
</g>
</g>
<!-- Node4&#45;&gt;Node3 -->
<g id="edge4_Node000004_Node000003" class="edge">
<title>Node4&#45;&gt;Node3</title>
<g id="a_edge4_Node000004_Node000003"><a xlink:title=" ">
<path fill="none" stroke="#63b8ff" d="M131.65,-69.79C121.42,-60.32 110.11,-49.84 100.64,-41.07"/>
<polygon fill="#63b8ff" stroke="#63b8ff" points="129.5,-72.57 139.22,-76.79 134.26,-67.43 129.5,-72.57"/>
</a>
</g>
</g>
<!-- Node6&#45;&gt;Node5 -->
<g id="edge7_Node000006_Node000005" class="edge">
<title>Node6&#45;&gt;Node5</title>
<g id="a_edge7_Node000006_Node000005"><a xlink:title=" ">
<path fill="none" stroke="#63b8ff" d="M344.61,-71.09C331.19,-61.32 316.08,-50.32 303.52,-41.17"/>
<polygon fill="#63b8ff" stroke="#63b8ff" points="342.56,-73.93 352.71,-76.99 346.68,-68.27 342.56,-73.93"/>
</a>
</g>
</g>
<!-- Node6&#45;&gt;Node7 -->
<g id="edge8_Node000006_Node000007" class="edge">
<title>Node6&#45;&gt;Node7</title>
<g id="a_edge8_Node000006_Node000007"><a xlink:title=" ">
<path fill="none" stroke="#63b8ff" d="M414.43,-70.82C427.62,-61.11 442.42,-50.24 454.75,-41.17"/>
<polygon fill="#63b8ff" stroke="#63b8ff" points="412.02,-68.25 406.03,-76.99 416.16,-73.89 412.02,-68.25"/>
</a>
</g>
</g>
<!-- Node9 -->
<g id="Node000009" class="node">
<title>Node9</title>
<g id="a_Node000009"><a xlink:href="_s_d_r_src_8cpp.html" target="_top" xlink:title=" ">
<polygon fill="white" stroke="#666666" points="729,-118 520,-118 520,-77 729,-77 729,-118"/>
<text text-anchor="start" x="528" y="-106" font-family="Helvetica,sans-Serif" font-size="10.00">/home/runner/work/kynema</text>
<text text-anchor="start" x="528" y="-95" font-family="Helvetica,sans-Serif" font-size="10.00">&#45;sgf/kynema&#45;sgf/src/equation</text>
<text text-anchor="middle" x="624.5" y="-84" font-family="Helvetica,sans-Serif" font-size="10.00">_systems/sdr/source_terms/SDRSrc.cpp</text>
</a>
</g>
</g>
<!-- Node8&#45;&gt;Node9 -->
<g id="edge11_Node000008_Node000009" class="edge">
<title>Node8&#45;&gt;Node9</title>
<g id="a_edge11_Node000008_Node000009"><a xlink:title=" ">
<path fill="none" stroke="#63b8ff" d="M591.99,-145.39C598.3,-136.3 605.15,-126.41 610.93,-118.07"/>
<polygon fill="#63b8ff" stroke="#63b8ff" points="588.98,-143.58 586.16,-153.79 594.74,-147.57 588.98,-143.58"/>
</a>
</g>
</g>
</g>
</svg>
