<?xml version="1.0" encoding="UTF-8" standalone="no"?>
<!DOCTYPE svg PUBLIC "-//W3C//DTD SVG 1.1//EN"
 "http://www.w3.org/Graphics/SVG/1.1/DTD/svg11.dtd">
<!-- Generated by graphviz version 2.43.0 (0)
 -->
<!-- Title: /home/runner/work/kynema&#45;sgf/kynema&#45;sgf/src/utilities/sampling/SamplingUtils.H Pages: 1 -->
<svg width="1234pt" height="203pt"
 viewBox="0.00 0.00 1233.50 203.00" xmlns="http://www.w3.org/2000/svg" xmlns:xlink="http://www.w3.org/1999/xlink">
<g id="graph0" class="graph" transform="scale(1 1) rotate(0) translate(4 199)">
<title>/home/runner/work/kynema&#45;sgf/kynema&#45;sgf/src/utilities/sampling/SamplingUtils.H</title>
<!-- Node1 -->
<g id="Node000001" class="node">
<title>Node1</title>
<g id="a_Node000001"><a xlink:title=" ">
<polygon fill="#999999" stroke="#666666" points="697,-195 544,-195 544,-154 697,-154 697,-195"/>
<text text-anchor="start" x="552" y="-183" font-family="Helvetica,sans-Serif" font-size="10.00">/home/runner/work/kynema</text>
<text text-anchor="start" x="552" y="-172" font-family="Helvetica,sans-Serif" font-size="10.00">&#45;sgf/kynema&#45;sgf/src/utilities</text>
<text text-anchor="middle" x="620.5" y="-161" font-family="Helvetica,sans-Serif" font-size="10.00">/sampling/SamplingUtils.H</text>
</a>
</g>
</g>
<!-- Node2 -->
<g id="Node000002" class="node">
<title>Node2</title>
<g id="a_Node000002"><a xlink:href="_d_t_u_spinner_sampler_8_h.html" target="_top" xlink:title=" ">
<polygon fill="white" stroke="#666666" points="180.5,-118 4.5,-118 4.5,-77 180.5,-77 180.5,-118"/>
<text text-anchor="start" x="12.5" y="-106" font-family="Helvetica,sans-Serif" font-size="10.00">/home/runner/work/kynema</text>
<text text-anchor="start" x="12.5" y="-95" font-family="Helvetica,sans-Serif" font-size="10.00">&#45;sgf/kynema&#45;sgf/src/utilities</text>
<text text-anchor="middle" x="92.5" y="-84" font-family="Helvetica,sans-Serif" font-size="10.00">/sampling/DTUSpinnerSampler.H</text>
</a>
</g>
</g>
<!-- Node1&#45;&gt;Node2 -->
<g id="edge1_Node000001_Node000002" class="edge">
<title>Node1&#45;&gt;Node2</title>
<g id="a_edge1_Node000001_Node000002"><a xlink:title=" ">
<path fill="none" stroke="#63b8ff" d="M533.85,-164.16C446.63,-154.32 308.37,-137.58 189.5,-118 186.62,-117.53 183.69,-117.03 180.74,-116.51"/>
<polygon fill="#63b8ff" stroke="#63b8ff" points="533.64,-167.65 543.96,-165.29 534.42,-160.7 533.64,-167.65"/>
</a>
</g>
</g>
<!-- Node4 -->
<g id="Node000004" class="node">
<title>Node4</title>
<g id="a_Node000004"><a xlink:href="_line_sampler_8cpp.html" target="_top" xlink:title=" ">
<polygon fill="white" stroke="#666666" points="352,-118 199,-118 199,-77 352,-77 352,-118"/>
<text text-anchor="start" x="207" y="-106" font-family="Helvetica,sans-Serif" font-size="10.00">/home/runner/work/kynema</text>
<text text-anchor="start" x="207" y="-95" font-family="Helvetica,sans-Serif" font-size="10.00">&#45;sgf/kynema&#45;sgf/src/utilities</text>
<text text-anchor="middle" x="275.5" y="-84" font-family="Helvetica,sans-Serif" font-size="10.00">/sampling/LineSampler.cpp</text>
</a>
</g>
</g>
<!-- Node1&#45;&gt;Node4 -->
<g id="edge3_Node000001_Node000004" class="edge">
<title>Node1&#45;&gt;Node4</title>
<g id="a_edge3_Node000001_Node000004"><a xlink:title=" ">
<path fill="none" stroke="#63b8ff" d="M534,-155.38C483.39,-144.69 418.27,-130.79 360.5,-118 357.84,-117.41 355.13,-116.81 352.4,-116.2"/>
<polygon fill="#63b8ff" stroke="#63b8ff" points="533.42,-158.83 543.93,-157.47 534.86,-151.98 533.42,-158.83"/>
</a>
</g>
</g>
<!-- Node5 -->
<g id="Node000005" class="node">
<title>Node5</title>
<g id="a_Node000005"><a xlink:href="_plane_sampler_8cpp.html" target="_top" xlink:title=" ">
<polygon fill="white" stroke="#666666" points="525,-118 370,-118 370,-77 525,-77 525,-118"/>
<text text-anchor="start" x="378" y="-106" font-family="Helvetica,sans-Serif" font-size="10.00">/home/runner/work/kynema</text>
<text text-anchor="start" x="378" y="-95" font-family="Helvetica,sans-Serif" font-size="10.00">&#45;sgf/kynema&#45;sgf/src/utilities</text>
<text text-anchor="middle" x="447.5" y="-84" font-family="Helvetica,sans-Serif" font-size="10.00">/sampling/PlaneSampler.cpp</text>
</a>
</g>
</g>
<!-- Node1&#45;&gt;Node5 -->
<g id="edge4_Node000001_Node000005" class="edge">
<title>Node1&#45;&gt;Node5</title>
<g id="a_edge4_Node000001_Node000005"><a xlink:title=" ">
<path fill="none" stroke="#63b8ff" d="M566.28,-150C542.59,-139.72 515.13,-127.82 492.58,-118.04"/>
<polygon fill="#63b8ff" stroke="#63b8ff" points="564.93,-153.22 575.5,-153.99 567.72,-146.8 564.93,-153.22"/>
</a>
</g>
</g>
<!-- Node6 -->
<g id="Node000006" class="node">
<title>Node6</title>
<g id="a_Node000006"><a xlink:href="_probe_sampler_8cpp.html" target="_top" xlink:title=" ">
<polygon fill="white" stroke="#666666" points="698,-118 543,-118 543,-77 698,-77 698,-118"/>
<text text-anchor="start" x="551" y="-106" font-family="Helvetica,sans-Serif" font-size="10.00">/home/runner/work/kynema</text>
<text text-anchor="start" x="551" y="-95" font-family="Helvetica,sans-Serif" font-size="10.00">&#45;sgf/kynema&#45;sgf/src/utilities</text>
<text text-anchor="middle" x="620.5" y="-84" font-family="Helvetica,sans-Serif" font-size="10.00">/sampling/ProbeSampler.cpp</text>
</a>
</g>
</g>
<!-- Node1&#45;&gt;Node6 -->
<g id="edge5_Node000001_Node000006" class="edge">
<title>Node1&#45;&gt;Node6</title>
<g id="a_edge5_Node000001_Node000006"><a xlink:title=" ">
<path fill="none" stroke="#63b8ff" d="M620.5,-143.69C620.5,-135.08 620.5,-125.9 620.5,-118.07"/>
<polygon fill="#63b8ff" stroke="#63b8ff" points="617,-143.79 620.5,-153.79 624,-143.79 617,-143.79"/>
</a>
</g>
</g>
<!-- Node7 -->
<g id="Node000007" class="node">
<title>Node7</title>
<g id="a_Node000007"><a xlink:href="_radar_sampler_8_h.html" target="_top" xlink:title=" ">
<polygon fill="white" stroke="#666666" points="869,-118 716,-118 716,-77 869,-77 869,-118"/>
<text text-anchor="start" x="724" y="-106" font-family="Helvetica,sans-Serif" font-size="10.00">/home/runner/work/kynema</text>
<text text-anchor="start" x="724" y="-95" font-family="Helvetica,sans-Serif" font-size="10.00">&#45;sgf/kynema&#45;sgf/src/utilities</text>
<text text-anchor="middle" x="792.5" y="-84" font-family="Helvetica,sans-Serif" font-size="10.00">/sampling/RadarSampler.H</text>
</a>
</g>
</g>
<!-- Node1&#45;&gt;Node7 -->
<g id="edge6_Node000001_Node000007" class="edge">
<title>Node1&#45;&gt;Node7</title>
<g id="a_edge6_Node000001_Node000007"><a xlink:title=" ">
<path fill="none" stroke="#63b8ff" d="M674.72,-149.86C698.2,-139.62 725.36,-127.77 747.68,-118.04"/>
<polygon fill="#63b8ff" stroke="#63b8ff" points="673.01,-146.79 665.24,-153.99 675.81,-153.2 673.01,-146.79"/>
</a>
</g>
</g>
<!-- Node9 -->
<g id="Node000009" class="node">
<title>Node9</title>
<g id="a_Node000009"><a xlink:href="_sampling_utils_8cpp.html" target="_top" xlink:title=" ">
<polygon fill="white" stroke="#666666" points="1043.5,-118 887.5,-118 887.5,-77 1043.5,-77 1043.5,-118"/>
<text text-anchor="start" x="895.5" y="-106" font-family="Helvetica,sans-Serif" font-size="10.00">/home/runner/work/kynema</text>
<text text-anchor="start" x="895.5" y="-95" font-family="Helvetica,sans-Serif" font-size="10.00">&#45;sgf/kynema&#45;sgf/src/utilities</text>
<text text-anchor="middle" x="965.5" y="-84" font-family="Helvetica,sans-Serif" font-size="10.00">/sampling/SamplingUtils.cpp</text>
</a>
</g>
</g>
<!-- Node1&#45;&gt;Node9 -->
<g id="edge8_Node000001_Node000009" class="edge">
<title>Node1&#45;&gt;Node9</title>
<g id="a_edge8_Node000001_Node000009"><a xlink:title=" ">
<path fill="none" stroke="#63b8ff" d="M706.85,-155.12C756.99,-144.4 821.34,-130.55 878.5,-118 881.37,-117.37 884.3,-116.72 887.25,-116.07"/>
<polygon fill="#63b8ff" stroke="#63b8ff" points="706.07,-151.71 697.02,-157.22 707.53,-158.55 706.07,-151.71"/>
</a>
</g>
</g>
<!-- Node10 -->
<g id="Node000010" class="node">
<title>Node10</title>
<g id="a_Node000010"><a xlink:href="_volume_sampler_8cpp.html" target="_top" xlink:title=" ">
<polygon fill="white" stroke="#666666" points="1225.5,-118 1061.5,-118 1061.5,-77 1225.5,-77 1225.5,-118"/>
<text text-anchor="start" x="1069.5" y="-106" font-family="Helvetica,sans-Serif" font-size="10.00">/home/runner/work/kynema</text>
<text text-anchor="start" x="1069.5" y="-95" font-family="Helvetica,sans-Serif" font-size="10.00">&#45;sgf/kynema&#45;sgf/src/utilities</text>
<text text-anchor="middle" x="1143.5" y="-84" font-family="Helvetica,sans-Serif" font-size="10.00">/sampling/VolumeSampler.cpp</text>
</a>
</g>
</g>
<!-- Node1&#45;&gt;Node10 -->
<g id="edge9_Node000001_Node000010" class="edge">
<title>Node1&#45;&gt;Node10</title>
<g id="a_edge9_Node000001_Node000010"><a xlink:title=" ">
<path fill="none" stroke="#63b8ff" d="M707.41,-164.49C794.87,-154.91 933.49,-138.36 1052.5,-118 1055.37,-117.51 1058.28,-116.99 1061.22,-116.45"/>
<polygon fill="#63b8ff" stroke="#63b8ff" points="706.82,-161.03 697.26,-165.59 707.58,-167.99 706.82,-161.03"/>
</a>
</g>
</g>
<!-- Node3 -->
<g id="Node000003" class="node">
<title>Node3</title>
<g id="a_Node000003"><a xlink:href="_d_t_u_spinner_sampler_8cpp.html" target="_top" xlink:title=" ">
<polygon fill="white" stroke="#666666" points="185,-41 0,-41 0,0 185,0 185,-41"/>
<text text-anchor="start" x="8" y="-29" font-family="Helvetica,sans-Serif" font-size="10.00">/home/runner/work/kynema</text>
<text text-anchor="start" x="8" y="-18" font-family="Helvetica,sans-Serif" font-size="10.00">&#45;sgf/kynema&#45;sgf/src/utilities</text>
<text text-anchor="middle" x="92.5" y="-7" font-family="Helvetica,sans-Serif" font-size="10.00">/sampling/DTUSpinnerSampler.cpp</text>
</a>
</g>
</g>
<!-- Node2&#45;&gt;Node3 -->
<g id="edge2_Node000002_Node000003" class="edge">
<title>Node2&#45;&gt;Node3</title>
<g id="a_edge2_Node000002_Node000003"><a xlink:title=" ">
<path fill="none" stroke="#63b8ff" d="M92.5,-66.69C92.5,-58.08 92.5,-48.9 92.5,-41.07"/>
<polygon fill="#63b8ff" stroke="#63b8ff" points="89,-66.79 92.5,-76.79 96,-66.79 89,-66.79"/>
</a>
</g>
</g>
<!-- Node8 -->
<g id="Node000008" class="node">
<title>Node8</title>
<g id="a_Node000008"><a xlink:href="_radar_sampler_8cpp.html" target="_top" xlink:title=" ">
<polygon fill="white" stroke="#666666" points="870.5,-41 714.5,-41 714.5,0 870.5,0 870.5,-41"/>
<text text-anchor="start" x="722.5" y="-29" font-family="Helvetica,sans-Serif" font-size="10.00">/home/runner/work/kynema</text>
<text text-anchor="start" x="722.5" y="-18" font-family="Helvetica,sans-Serif" font-size="10.00">&#45;sgf/kynema&#45;sgf/src/utilities</text>
<text text-anchor="middle" x="792.5" y="-7" font-family="Helvetica,sans-Serif" font-size="10.00">/sampling/RadarSampler.cpp</text>
</a>
</g>
</g>
<!-- Node7&#45;&gt;Node8 -->
<g id="edge7_Node000007_Node000008" class="edge">
<title>Node7&#45;&gt;Node8</title>
<g id="a_edge7_Node000007_Node000008"><a xlink:title=" ">
<path fill="none" stroke="#63b8ff" d="M792.5,-66.69C792.5,-58.08 792.5,-48.9 792.5,-41.07"/>
<polygon fill="#63b8ff" stroke="#63b8ff" points="789,-66.79 792.5,-76.79 796,-66.79 789,-66.79"/>
</a>
</g>
</g>
</g>
</svg>
