<?xml version="1.0" encoding="UTF-8" standalone="no"?>
<!DOCTYPE svg PUBLIC "-//W3C//DTD SVG 1.1//EN"
 "http://www.w3.org/Graphics/SVG/1.1/DTD/svg11.dtd">
<!-- Generated by graphviz version 2.43.0 (0)
 -->
<!-- Title: /home/runner/work/kynema&#45;sgf/kynema&#45;sgf/src/utilities/sampling/SamplerBase.H Pages: 1 -->
<svg width="1748pt" height="357pt"
 viewBox="0.00 0.00 1748.00 357.00" xmlns="http://www.w3.org/2000/svg" xmlns:xlink="http://www.w3.org/1999/xlink">
<g id="graph0" class="graph" transform="scale(1 1) rotate(0) translate(4 353)">
<title>/home/runner/work/kynema&#45;sgf/kynema&#45;sgf/src/utilities/sampling/SamplerBase.H</title>
<!-- Node1 -->
<g id="Node000001" class="node">
<title>Node1</title>
<g id="a_Node000001"><a xlink:title=" ">
<polygon fill="#999999" stroke="#666666" points="1024,-349 871,-349 871,-308 1024,-308 1024,-349"/>
<text text-anchor="start" x="879" y="-337" font-family="Helvetica,sans-Serif" font-size="10.00">/home/runner/work/kynema</text>
<text text-anchor="start" x="879" y="-326" font-family="Helvetica,sans-Serif" font-size="10.00">&#45;sgf/kynema&#45;sgf/src/utilities</text>
<text text-anchor="middle" x="947.5" y="-315" font-family="Helvetica,sans-Serif" font-size="10.00">/sampling/SamplerBase.H</text>
</a>
</g>
</g>
<!-- Node2 -->
<g id="Node000002" class="node">
<title>Node2</title>
<g id="a_Node000002"><a xlink:href="_free_surface_sampler_8_h.html" target="_top" xlink:title=" ">
<polygon fill="white" stroke="#666666" points="301.5,-272 125.5,-272 125.5,-231 301.5,-231 301.5,-272"/>
<text text-anchor="start" x="133.5" y="-260" font-family="Helvetica,sans-Serif" font-size="10.00">/home/runner/work/kynema</text>
<text text-anchor="start" x="133.5" y="-249" font-family="Helvetica,sans-Serif" font-size="10.00">&#45;sgf/kynema&#45;sgf/src/utilities</text>
<text text-anchor="middle" x="213.5" y="-238" font-family="Helvetica,sans-Serif" font-size="10.00">/sampling/FreeSurfaceSampler.H</text>
</a>
</g>
</g>
<!-- Node1&#45;&gt;Node2 -->
<g id="edge1_Node000001_Node000002" class="edge">
<title>Node1&#45;&gt;Node2</title>
<g id="a_edge1_Node000001_Node000002"><a xlink:title=" ">
<path fill="none" stroke="#63b8ff" d="M860.74,-318.88C752.35,-308.08 561.19,-288.93 397.5,-272 366.35,-268.78 332.23,-265.18 301.93,-261.96"/>
<polygon fill="#63b8ff" stroke="#63b8ff" points="860.67,-322.39 870.97,-319.9 861.36,-315.43 860.67,-322.39"/>
</a>
</g>
</g>
<!-- Node4 -->
<g id="Node000004" class="node">
<title>Node4</title>
<g id="a_Node000004"><a xlink:href="_line_sampler_8_h.html" target="_top" xlink:title=" ">
<polygon fill="white" stroke="#666666" points="560,-272 407,-272 407,-231 560,-231 560,-272"/>
<text text-anchor="start" x="415" y="-260" font-family="Helvetica,sans-Serif" font-size="10.00">/home/runner/work/kynema</text>
<text text-anchor="start" x="415" y="-249" font-family="Helvetica,sans-Serif" font-size="10.00">&#45;sgf/kynema&#45;sgf/src/utilities</text>
<text text-anchor="middle" x="483.5" y="-238" font-family="Helvetica,sans-Serif" font-size="10.00">/sampling/LineSampler.H</text>
</a>
</g>
</g>
<!-- Node1&#45;&gt;Node4 -->
<g id="edge3_Node000001_Node000004" class="edge">
<title>Node1&#45;&gt;Node4</title>
<g id="a_edge3_Node000001_Node000004"><a xlink:title=" ">
<path fill="none" stroke="#63b8ff" d="M860.83,-313.49C774.42,-299.52 642.98,-278.28 560.23,-264.9"/>
<polygon fill="#63b8ff" stroke="#63b8ff" points="860.45,-316.97 870.88,-315.12 861.57,-310.06 860.45,-316.97"/>
</a>
</g>
</g>
<!-- Node10 -->
<g id="Node000010" class="node">
<title>Node10</title>
<g id="a_Node000010"><a xlink:href="_radar_sampler_8_h.html" target="_top" xlink:title=" ">
<polygon fill="white" stroke="#666666" points="698,-195 545,-195 545,-154 698,-154 698,-195"/>
<text text-anchor="start" x="553" y="-183" font-family="Helvetica,sans-Serif" font-size="10.00">/home/runner/work/kynema</text>
<text text-anchor="start" x="553" y="-172" font-family="Helvetica,sans-Serif" font-size="10.00">&#45;sgf/kynema&#45;sgf/src/utilities</text>
<text text-anchor="middle" x="621.5" y="-161" font-family="Helvetica,sans-Serif" font-size="10.00">/sampling/RadarSampler.H</text>
</a>
</g>
</g>
<!-- Node1&#45;&gt;Node10 -->
<g id="edge15_Node000001_Node000010" class="edge">
<title>Node1&#45;&gt;Node10</title>
<g id="a_edge15_Node000001_Node000010"><a xlink:title=" ">
<path fill="none" stroke="#63b8ff" d="M860.74,-324.37C807.84,-318.86 740.94,-305.15 690.5,-272 661.58,-253 640.9,-217.38 630.1,-195.13"/>
<polygon fill="#63b8ff" stroke="#63b8ff" points="860.49,-327.86 870.78,-325.34 861.16,-320.89 860.49,-327.86"/>
</a>
</g>
</g>
<!-- Node12 -->
<g id="Node000012" class="node">
<title>Node12</title>
<g id="a_Node000012"><a xlink:href="_plane_sampler_8_h.html" target="_top" xlink:title=" ">
<polygon fill="white" stroke="#666666" points="853,-272 700,-272 700,-231 853,-231 853,-272"/>
<text text-anchor="start" x="708" y="-260" font-family="Helvetica,sans-Serif" font-size="10.00">/home/runner/work/kynema</text>
<text text-anchor="start" x="708" y="-249" font-family="Helvetica,sans-Serif" font-size="10.00">&#45;sgf/kynema&#45;sgf/src/utilities</text>
<text text-anchor="middle" x="776.5" y="-238" font-family="Helvetica,sans-Serif" font-size="10.00">/sampling/PlaneSampler.H</text>
</a>
</g>
</g>
<!-- Node1&#45;&gt;Node12 -->
<g id="edge11_Node000001_Node000012" class="edge">
<title>Node1&#45;&gt;Node12</title>
<g id="a_edge11_Node000001_Node000012"><a xlink:title=" ">
<path fill="none" stroke="#63b8ff" d="M893.6,-303.86C870.25,-293.62 843.25,-281.77 821.06,-272.04"/>
<polygon fill="#63b8ff" stroke="#63b8ff" points="892.45,-307.18 903.02,-307.99 895.27,-300.77 892.45,-307.18"/>
</a>
</g>
</g>
<!-- Node14 -->
<g id="Node000014" class="node">
<title>Node14</title>
<g id="a_Node000014"><a xlink:href="_probe_sampler_8_h.html" target="_top" xlink:title=" ">
<polygon fill="white" stroke="#666666" points="1024,-272 871,-272 871,-231 1024,-231 1024,-272"/>
<text text-anchor="start" x="879" y="-260" font-family="Helvetica,sans-Serif" font-size="10.00">/home/runner/work/kynema</text>
<text text-anchor="start" x="879" y="-249" font-family="Helvetica,sans-Serif" font-size="10.00">&#45;sgf/kynema&#45;sgf/src/utilities</text>
<text text-anchor="middle" x="947.5" y="-238" font-family="Helvetica,sans-Serif" font-size="10.00">/sampling/ProbeSampler.H</text>
</a>
</g>
</g>
<!-- Node1&#45;&gt;Node14 -->
<g id="edge13_Node000001_Node000014" class="edge">
<title>Node1&#45;&gt;Node14</title>
<g id="a_edge13_Node000001_Node000014"><a xlink:title=" ">
<path fill="none" stroke="#63b8ff" d="M947.5,-297.69C947.5,-289.08 947.5,-279.9 947.5,-272.07"/>
<polygon fill="#63b8ff" stroke="#63b8ff" points="944,-297.79 947.5,-307.79 951,-297.79 944,-297.79"/>
</a>
</g>
</g>
<!-- Node16 -->
<g id="Node000016" class="node">
<title>Node16</title>
<g id="a_Node000016"><a xlink:href="_sampling_8_h.html" target="_top" xlink:title=" ">
<polygon fill="white" stroke="#666666" points="1195,-272 1042,-272 1042,-231 1195,-231 1195,-272"/>
<text text-anchor="start" x="1050" y="-260" font-family="Helvetica,sans-Serif" font-size="10.00">/home/runner/work/kynema</text>
<text text-anchor="start" x="1050" y="-249" font-family="Helvetica,sans-Serif" font-size="10.00">&#45;sgf/kynema&#45;sgf/src/utilities</text>
<text text-anchor="middle" x="1118.5" y="-238" font-family="Helvetica,sans-Serif" font-size="10.00">/sampling/Sampling.H</text>
</a>
</g>
</g>
<!-- Node1&#45;&gt;Node16 -->
<g id="edge16_Node000001_Node000016" class="edge">
<title>Node1&#45;&gt;Node16</title>
<g id="a_edge16_Node000001_Node000016"><a xlink:title=" ">
<path fill="none" stroke="#63b8ff" d="M1001.4,-303.86C1024.75,-293.62 1051.75,-281.77 1073.94,-272.04"/>
<polygon fill="#63b8ff" stroke="#63b8ff" points="999.73,-300.77 991.98,-307.99 1002.55,-307.18 999.73,-300.77"/>
</a>
</g>
</g>
<!-- Node18 -->
<g id="Node000018" class="node">
<title>Node18</title>
<g id="a_Node000018"><a xlink:href="_sampling_container_8cpp.html" target="_top" xlink:title=" ">
<polygon fill="white" stroke="#666666" points="1393.5,-272 1213.5,-272 1213.5,-231 1393.5,-231 1393.5,-272"/>
<text text-anchor="start" x="1221.5" y="-260" font-family="Helvetica,sans-Serif" font-size="10.00">/home/runner/work/kynema</text>
<text text-anchor="start" x="1221.5" y="-249" font-family="Helvetica,sans-Serif" font-size="10.00">&#45;sgf/kynema&#45;sgf/src/utilities</text>
<text text-anchor="middle" x="1303.5" y="-238" font-family="Helvetica,sans-Serif" font-size="10.00">/sampling/SamplingContainer.cpp</text>
</a>
</g>
</g>
<!-- Node1&#45;&gt;Node18 -->
<g id="edge18_Node000001_Node000018" class="edge">
<title>Node1&#45;&gt;Node18</title>
<g id="a_edge18_Node000001_Node000018"><a xlink:title=" ">
<path fill="none" stroke="#63b8ff" d="M1034.26,-309.22C1088.55,-297.78 1158.37,-283.08 1213.3,-271.5"/>
<polygon fill="#63b8ff" stroke="#63b8ff" points="1033.37,-305.83 1024.31,-311.32 1034.82,-312.68 1033.37,-305.83"/>
</a>
</g>
</g>
<!-- Node19 -->
<g id="Node000019" class="node">
<title>Node19</title>
<g id="a_Node000019"><a xlink:href="_volume_sampler_8_h.html" target="_top" xlink:title=" ">
<polygon fill="white" stroke="#666666" points="1567,-272 1412,-272 1412,-231 1567,-231 1567,-272"/>
<text text-anchor="start" x="1420" y="-260" font-family="Helvetica,sans-Serif" font-size="10.00">/home/runner/work/kynema</text>
<text text-anchor="start" x="1420" y="-249" font-family="Helvetica,sans-Serif" font-size="10.00">&#45;sgf/kynema&#45;sgf/src/utilities</text>
<text text-anchor="middle" x="1489.5" y="-238" font-family="Helvetica,sans-Serif" font-size="10.00">/sampling/VolumeSampler.H</text>
</a>
</g>
</g>
<!-- Node1&#45;&gt;Node19 -->
<g id="edge19_Node000001_Node000019" class="edge">
<title>Node1&#45;&gt;Node19</title>
<g id="a_edge19_Node000001_Node000019"><a xlink:title=" ">
<path fill="none" stroke="#63b8ff" d="M1034.4,-319.49C1126.25,-310.41 1275.14,-293.99 1402.5,-272 1405.55,-271.47 1408.66,-270.91 1411.79,-270.32"/>
<polygon fill="#63b8ff" stroke="#63b8ff" points="1033.93,-316.02 1024.32,-320.48 1034.61,-322.98 1033.93,-316.02"/>
</a>
</g>
</g>
<!-- Node21 -->
<g id="Node000021" class="node">
<title>Node21</title>
<g id="a_Node000021"><a xlink:href="_a_b_l_stats_8_h.html" target="_top" xlink:title=" ">
<polygon fill="white" stroke="#666666" points="1738,-272 1587,-272 1587,-231 1738,-231 1738,-272"/>
<text text-anchor="start" x="1595" y="-260" font-family="Helvetica,sans-Serif" font-size="10.00">/home/runner/work/kynema</text>
<text text-anchor="start" x="1595" y="-249" font-family="Helvetica,sans-Serif" font-size="10.00">&#45;sgf/kynema&#45;sgf/src/wind</text>
<text text-anchor="middle" x="1662.5" y="-238" font-family="Helvetica,sans-Serif" font-size="10.00">_energy/ABLStats.H</text>
</a>
</g>
</g>
<!-- Node1&#45;&gt;Node21 -->
<g id="edge21_Node000001_Node000021" class="edge">
<title>Node1&#45;&gt;Node21</title>
<g id="a_edge21_Node000001_Node000021"><a xlink:title=" ">
<path fill="none" stroke="#63b8ff" d="M1034.41,-323.55C1156.19,-317.16 1384.25,-302.14 1576.5,-272 1579.83,-271.48 1583.22,-270.9 1586.64,-270.29"/>
<polygon fill="#63b8ff" stroke="#63b8ff" points="1034.2,-320.05 1024.4,-324.06 1034.56,-327.04 1034.2,-320.05"/>
</a>
</g>
</g>
<!-- Node3 -->
<g id="Node000003" class="node">
<title>Node3</title>
<g id="a_Node000003"><a xlink:href="_free_surface_sampler_8cpp.html" target="_top" xlink:title=" ">
<polygon fill="white" stroke="#666666" points="185,-195 0,-195 0,-154 185,-154 185,-195"/>
<text text-anchor="start" x="8" y="-183" font-family="Helvetica,sans-Serif" font-size="10.00">/home/runner/work/kynema</text>
<text text-anchor="start" x="8" y="-172" font-family="Helvetica,sans-Serif" font-size="10.00">&#45;sgf/kynema&#45;sgf/src/utilities</text>
<text text-anchor="middle" x="92.5" y="-161" font-family="Helvetica,sans-Serif" font-size="10.00">/sampling/FreeSurfaceSampler.cpp</text>
</a>
</g>
</g>
<!-- Node2&#45;&gt;Node3 -->
<g id="edge2_Node000002_Node000003" class="edge">
<title>Node2&#45;&gt;Node3</title>
<g id="a_edge2_Node000002_Node000003"><a xlink:title=" ">
<path fill="none" stroke="#63b8ff" d="M173.4,-225.64C157.42,-215.74 139.28,-204.5 124.24,-195.17"/>
<polygon fill="#63b8ff" stroke="#63b8ff" points="171.68,-228.7 182.02,-230.99 175.37,-222.75 171.68,-228.7"/>
</a>
</g>
</g>
<!-- Node5 -->
<g id="Node000005" class="node">
<title>Node5</title>
<g id="a_Node000005"><a xlink:href="_lidar_sampler_8_h.html" target="_top" xlink:title=" ">
<polygon fill="white" stroke="#666666" points="356,-195 203,-195 203,-154 356,-154 356,-195"/>
<text text-anchor="start" x="211" y="-183" font-family="Helvetica,sans-Serif" font-size="10.00">/home/runner/work/kynema</text>
<text text-anchor="start" x="211" y="-172" font-family="Helvetica,sans-Serif" font-size="10.00">&#45;sgf/kynema&#45;sgf/src/utilities</text>
<text text-anchor="middle" x="279.5" y="-161" font-family="Helvetica,sans-Serif" font-size="10.00">/sampling/LidarSampler.H</text>
</a>
</g>
</g>
<!-- Node4&#45;&gt;Node5 -->
<g id="edge4_Node000004_Node000005" class="edge">
<title>Node4&#45;&gt;Node5</title>
<g id="a_edge4_Node000004_Node000005"><a xlink:title=" ">
<path fill="none" stroke="#63b8ff" d="M421.05,-227.54C392.78,-217.15 359.71,-204.99 332.65,-195.04"/>
<polygon fill="#63b8ff" stroke="#63b8ff" points="419.84,-230.82 430.43,-230.99 422.26,-224.25 419.84,-230.82"/>
</a>
</g>
</g>
<!-- Node9 -->
<g id="Node000009" class="node">
<title>Node9</title>
<g id="a_Node000009"><a xlink:href="_line_sampler_8cpp.html" target="_top" xlink:title=" ">
<polygon fill="white" stroke="#666666" points="527,-195 374,-195 374,-154 527,-154 527,-195"/>
<text text-anchor="start" x="382" y="-183" font-family="Helvetica,sans-Serif" font-size="10.00">/home/runner/work/kynema</text>
<text text-anchor="start" x="382" y="-172" font-family="Helvetica,sans-Serif" font-size="10.00">&#45;sgf/kynema&#45;sgf/src/utilities</text>
<text text-anchor="middle" x="450.5" y="-161" font-family="Helvetica,sans-Serif" font-size="10.00">/sampling/LineSampler.cpp</text>
</a>
</g>
</g>
<!-- Node4&#45;&gt;Node9 -->
<g id="edge8_Node000004_Node000009" class="edge">
<title>Node4&#45;&gt;Node9</title>
<g id="a_edge8_Node000004_Node000009"><a xlink:title=" ">
<path fill="none" stroke="#63b8ff" d="M470.76,-221.55C466.86,-212.69 462.67,-203.15 459.11,-195.07"/>
<polygon fill="#63b8ff" stroke="#63b8ff" points="467.6,-223.05 474.83,-230.79 474.01,-220.23 467.6,-223.05"/>
</a>
</g>
</g>
<!-- Node4&#45;&gt;Node10 -->
<g id="edge9_Node000004_Node000010" class="edge">
<title>Node4&#45;&gt;Node10</title>
<g id="a_edge9_Node000004_Node000010"><a xlink:title=" ">
<path fill="none" stroke="#63b8ff" d="M528.22,-226.19C546.7,-216.15 567.83,-204.67 585.3,-195.17"/>
<polygon fill="#63b8ff" stroke="#63b8ff" points="526.51,-223.14 519.4,-230.99 529.86,-229.29 526.51,-223.14"/>
</a>
</g>
</g>
<!-- Node6 -->
<g id="Node000006" class="node">
<title>Node6</title>
<g id="a_Node000006"><a xlink:href="_d_t_u_spinner_sampler_8_h.html" target="_top" xlink:title=" ">
<polygon fill="white" stroke="#666666" points="269.5,-118 93.5,-118 93.5,-77 269.5,-77 269.5,-118"/>
<text text-anchor="start" x="101.5" y="-106" font-family="Helvetica,sans-Serif" font-size="10.00">/home/runner/work/kynema</text>
<text text-anchor="start" x="101.5" y="-95" font-family="Helvetica,sans-Serif" font-size="10.00">&#45;sgf/kynema&#45;sgf/src/utilities</text>
<text text-anchor="middle" x="181.5" y="-84" font-family="Helvetica,sans-Serif" font-size="10.00">/sampling/DTUSpinnerSampler.H</text>
</a>
</g>
</g>
<!-- Node5&#45;&gt;Node6 -->
<g id="edge5_Node000005_Node000006" class="edge">
<title>Node5&#45;&gt;Node6</title>
<g id="a_edge5_Node000005_Node000006"><a xlink:title=" ">
<path fill="none" stroke="#63b8ff" d="M245.94,-147.82C233.26,-138.11 219.05,-127.24 207.21,-118.17"/>
<polygon fill="#63b8ff" stroke="#63b8ff" points="243.94,-150.69 254.01,-153.99 248.19,-145.13 243.94,-150.69"/>
</a>
</g>
</g>
<!-- Node8 -->
<g id="Node000008" class="node">
<title>Node8</title>
<g id="a_Node000008"><a xlink:href="_lidar_sampler_8cpp.html" target="_top" xlink:title=" ">
<polygon fill="white" stroke="#666666" points="441,-118 288,-118 288,-77 441,-77 441,-118"/>
<text text-anchor="start" x="296" y="-106" font-family="Helvetica,sans-Serif" font-size="10.00">/home/runner/work/kynema</text>
<text text-anchor="start" x="296" y="-95" font-family="Helvetica,sans-Serif" font-size="10.00">&#45;sgf/kynema&#45;sgf/src/utilities</text>
<text text-anchor="middle" x="364.5" y="-84" font-family="Helvetica,sans-Serif" font-size="10.00">/sampling/LidarSampler.cpp</text>
</a>
</g>
</g>
<!-- Node5&#45;&gt;Node8 -->
<g id="edge7_Node000005_Node000008" class="edge">
<title>Node5&#45;&gt;Node8</title>
<g id="a_edge7_Node000005_Node000008"><a xlink:title=" ">
<path fill="none" stroke="#63b8ff" d="M309.45,-147.07C320.27,-137.52 332.28,-126.93 342.32,-118.07"/>
<polygon fill="#63b8ff" stroke="#63b8ff" points="307.02,-144.55 301.83,-153.79 311.65,-149.8 307.02,-144.55"/>
</a>
</g>
</g>
<!-- Node7 -->
<g id="Node000007" class="node">
<title>Node7</title>
<g id="a_Node000007"><a xlink:href="_d_t_u_spinner_sampler_8cpp.html" target="_top" xlink:title=" ">
<polygon fill="white" stroke="#666666" points="274,-41 89,-41 89,0 274,0 274,-41"/>
<text text-anchor="start" x="97" y="-29" font-family="Helvetica,sans-Serif" font-size="10.00">/home/runner/work/kynema</text>
<text text-anchor="start" x="97" y="-18" font-family="Helvetica,sans-Serif" font-size="10.00">&#45;sgf/kynema&#45;sgf/src/utilities</text>
<text text-anchor="middle" x="181.5" y="-7" font-family="Helvetica,sans-Serif" font-size="10.00">/sampling/DTUSpinnerSampler.cpp</text>
</a>
</g>
</g>
<!-- Node6&#45;&gt;Node7 -->
<g id="edge6_Node000006_Node000007" class="edge">
<title>Node6&#45;&gt;Node7</title>
<g id="a_edge6_Node000006_Node000007"><a xlink:title=" ">
<path fill="none" stroke="#63b8ff" d="M181.5,-66.69C181.5,-58.08 181.5,-48.9 181.5,-41.07"/>
<polygon fill="#63b8ff" stroke="#63b8ff" points="178,-66.79 181.5,-76.79 185,-66.79 178,-66.79"/>
</a>
</g>
</g>
<!-- Node11 -->
<g id="Node000011" class="node">
<title>Node11</title>
<g id="a_Node000011"><a xlink:href="_radar_sampler_8cpp.html" target="_top" xlink:title=" ">
<polygon fill="white" stroke="#666666" points="699.5,-118 543.5,-118 543.5,-77 699.5,-77 699.5,-118"/>
<text text-anchor="start" x="551.5" y="-106" font-family="Helvetica,sans-Serif" font-size="10.00">/home/runner/work/kynema</text>
<text text-anchor="start" x="551.5" y="-95" font-family="Helvetica,sans-Serif" font-size="10.00">&#45;sgf/kynema&#45;sgf/src/utilities</text>
<text text-anchor="middle" x="621.5" y="-84" font-family="Helvetica,sans-Serif" font-size="10.00">/sampling/RadarSampler.cpp</text>
</a>
</g>
</g>
<!-- Node10&#45;&gt;Node11 -->
<g id="edge10_Node000010_Node000011" class="edge">
<title>Node10&#45;&gt;Node11</title>
<g id="a_edge10_Node000010_Node000011"><a xlink:title=" ">
<path fill="none" stroke="#63b8ff" d="M621.5,-143.69C621.5,-135.08 621.5,-125.9 621.5,-118.07"/>
<polygon fill="#63b8ff" stroke="#63b8ff" points="618,-143.79 621.5,-153.79 625,-143.79 618,-143.79"/>
</a>
</g>
</g>
<!-- Node13 -->
<g id="Node000013" class="node">
<title>Node13</title>
<g id="a_Node000013"><a xlink:href="_plane_sampler_8cpp.html" target="_top" xlink:title=" ">
<polygon fill="white" stroke="#666666" points="871,-195 716,-195 716,-154 871,-154 871,-195"/>
<text text-anchor="start" x="724" y="-183" font-family="Helvetica,sans-Serif" font-size="10.00">/home/runner/work/kynema</text>
<text text-anchor="start" x="724" y="-172" font-family="Helvetica,sans-Serif" font-size="10.00">&#45;sgf/kynema&#45;sgf/src/utilities</text>
<text text-anchor="middle" x="793.5" y="-161" font-family="Helvetica,sans-Serif" font-size="10.00">/sampling/PlaneSampler.cpp</text>
</a>
</g>
</g>
<!-- Node12&#45;&gt;Node13 -->
<g id="edge12_Node000012_Node000013" class="edge">
<title>Node12&#45;&gt;Node13</title>
<g id="a_edge12_Node000012_Node000013"><a xlink:title=" ">
<path fill="none" stroke="#63b8ff" d="M783.19,-220.98C785.16,-212.28 787.27,-202.98 789.06,-195.07"/>
<polygon fill="#63b8ff" stroke="#63b8ff" points="779.76,-220.27 780.97,-230.79 786.59,-221.82 779.76,-220.27"/>
</a>
</g>
</g>
<!-- Node15 -->
<g id="Node000015" class="node">
<title>Node15</title>
<g id="a_Node000015"><a xlink:href="_probe_sampler_8cpp.html" target="_top" xlink:title=" ">
<polygon fill="white" stroke="#666666" points="1044,-195 889,-195 889,-154 1044,-154 1044,-195"/>
<text text-anchor="start" x="897" y="-183" font-family="Helvetica,sans-Serif" font-size="10.00">/home/runner/work/kynema</text>
<text text-anchor="start" x="897" y="-172" font-family="Helvetica,sans-Serif" font-size="10.00">&#45;sgf/kynema&#45;sgf/src/utilities</text>
<text text-anchor="middle" x="966.5" y="-161" font-family="Helvetica,sans-Serif" font-size="10.00">/sampling/ProbeSampler.cpp</text>
</a>
</g>
</g>
<!-- Node14&#45;&gt;Node15 -->
<g id="edge14_Node000014_Node000015" class="edge">
<title>Node14&#45;&gt;Node15</title>
<g id="a_edge14_Node000014_Node000015"><a xlink:title=" ">
<path fill="none" stroke="#63b8ff" d="M954.98,-220.98C957.18,-212.28 959.54,-202.98 961.54,-195.07"/>
<polygon fill="#63b8ff" stroke="#63b8ff" points="951.56,-220.24 952.49,-230.79 958.34,-221.96 951.56,-220.24"/>
</a>
</g>
</g>
<!-- Node17 -->
<g id="Node000017" class="node">
<title>Node17</title>
<g id="a_Node000017"><a xlink:href="_sampling_8cpp.html" target="_top" xlink:title=" ">
<polygon fill="white" stroke="#666666" points="1215,-195 1062,-195 1062,-154 1215,-154 1215,-195"/>
<text text-anchor="start" x="1070" y="-183" font-family="Helvetica,sans-Serif" font-size="10.00">/home/runner/work/kynema</text>
<text text-anchor="start" x="1070" y="-172" font-family="Helvetica,sans-Serif" font-size="10.00">&#45;sgf/kynema&#45;sgf/src/utilities</text>
<text text-anchor="middle" x="1138.5" y="-161" font-family="Helvetica,sans-Serif" font-size="10.00">/sampling/Sampling.cpp</text>
</a>
</g>
</g>
<!-- Node16&#45;&gt;Node17 -->
<g id="edge17_Node000016_Node000017" class="edge">
<title>Node16&#45;&gt;Node17</title>
<g id="a_edge17_Node000016_Node000017"><a xlink:title=" ">
<path fill="none" stroke="#63b8ff" d="M1126.37,-220.98C1128.69,-212.28 1131.17,-202.98 1133.28,-195.07"/>
<polygon fill="#63b8ff" stroke="#63b8ff" points="1122.95,-220.23 1123.75,-230.79 1129.71,-222.03 1122.95,-220.23"/>
</a>
</g>
</g>
<!-- Node20 -->
<g id="Node000020" class="node">
<title>Node20</title>
<g id="a_Node000020"><a xlink:href="_volume_sampler_8cpp.html" target="_top" xlink:title=" ">
<polygon fill="white" stroke="#666666" points="1570.5,-195 1406.5,-195 1406.5,-154 1570.5,-154 1570.5,-195"/>
<text text-anchor="start" x="1414.5" y="-183" font-family="Helvetica,sans-Serif" font-size="10.00">/home/runner/work/kynema</text>
<text text-anchor="start" x="1414.5" y="-172" font-family="Helvetica,sans-Serif" font-size="10.00">&#45;sgf/kynema&#45;sgf/src/utilities</text>
<text text-anchor="middle" x="1488.5" y="-161" font-family="Helvetica,sans-Serif" font-size="10.00">/sampling/VolumeSampler.cpp</text>
</a>
</g>
</g>
<!-- Node19&#45;&gt;Node20 -->
<g id="edge20_Node000019_Node000020" class="edge">
<title>Node19&#45;&gt;Node20</title>
<g id="a_edge20_Node000019_Node000020"><a xlink:title=" ">
<path fill="none" stroke="#63b8ff" d="M1489.1,-220.69C1488.99,-212.08 1488.87,-202.9 1488.76,-195.07"/>
<polygon fill="#63b8ff" stroke="#63b8ff" points="1485.6,-220.84 1489.24,-230.79 1492.6,-220.75 1485.6,-220.84"/>
</a>
</g>
</g>
<!-- Node22 -->
<g id="Node000022" class="node">
<title>Node22</title>
<g id="a_Node000022"><a xlink:href="_a_b_l_stats_8cpp.html" target="_top" xlink:title=" ">
<polygon fill="white" stroke="#666666" points="1740,-195 1589,-195 1589,-154 1740,-154 1740,-195"/>
<text text-anchor="start" x="1597" y="-183" font-family="Helvetica,sans-Serif" font-size="10.00">/home/runner/work/kynema</text>
<text text-anchor="start" x="1597" y="-172" font-family="Helvetica,sans-Serif" font-size="10.00">&#45;sgf/kynema&#45;sgf/src/wind</text>
<text text-anchor="middle" x="1664.5" y="-161" font-family="Helvetica,sans-Serif" font-size="10.00">_energy/ABLStats.cpp</text>
</a>
</g>
</g>
<!-- Node21&#45;&gt;Node22 -->
<g id="edge22_Node000021_Node000022" class="edge">
<title>Node21&#45;&gt;Node22</title>
<g id="a_edge22_Node000021_Node000022"><a xlink:title=" ">
<path fill="none" stroke="#63b8ff" d="M1663.29,-220.69C1663.52,-212.08 1663.77,-202.9 1663.98,-195.07"/>
<polygon fill="#63b8ff" stroke="#63b8ff" points="1659.79,-220.7 1663.03,-230.79 1666.79,-220.89 1659.79,-220.7"/>
</a>
</g>
</g>
</g>
</svg>
