<?xml version="1.0" encoding="UTF-8" standalone="no"?>
<!DOCTYPE svg PUBLIC "-//W3C//DTD SVG 1.1//EN"
 "http://www.w3.org/Graphics/SVG/1.1/DTD/svg11.dtd">
<!-- Generated by graphviz version 2.43.0 (0)
 -->
<!-- Title: /home/runner/work/kynema&#45;sgf/kynema&#45;sgf/src/utilities/sampling/SamplingUtils.cpp Pages: 1 -->
<svg width="940pt" height="401pt"
 viewBox="0.00 0.00 939.50 401.00" xmlns="http://www.w3.org/2000/svg" xmlns:xlink="http://www.w3.org/1999/xlink">
<g id="graph0" class="graph" transform="scale(1 1) rotate(0) translate(4 397)">
<title>/home/runner/work/kynema&#45;sgf/kynema&#45;sgf/src/utilities/sampling/SamplingUtils.cpp</title>
<!-- Node1 -->
<g id="Node000001" class="node">
<title>Node1</title>
<g id="a_Node000001"><a xlink:title=" ">
<polygon fill="#999999" stroke="#666666" points="665,-393 509,-393 509,-352 665,-352 665,-393"/>
<text text-anchor="start" x="517" y="-381" font-family="Helvetica,sans-Serif" font-size="10.00">/home/runner/work/kynema</text>
<text text-anchor="start" x="517" y="-370" font-family="Helvetica,sans-Serif" font-size="10.00">&#45;sgf/kynema&#45;sgf/src/utilities</text>
<text text-anchor="middle" x="587" y="-359" font-family="Helvetica,sans-Serif" font-size="10.00">/sampling/SamplingUtils.cpp</text>
</a>
</g>
</g>
<!-- Node2 -->
<g id="Node000002" class="node">
<title>Node2</title>
<g id="a_Node000002"><a xlink:title=" ">
<polygon fill="#e0e0e0" stroke="#999999" points="64,-316 0,-316 0,-297 64,-297 64,-316"/>
<text text-anchor="middle" x="32" y="-304" font-family="Helvetica,sans-Serif" font-size="10.00">algorithm</text>
</a>
</g>
</g>
<!-- Node1&#45;&gt;Node2 -->
<g id="edge1_Node000001_Node000002" class="edge">
<title>Node1&#45;&gt;Node2</title>
<g id="a_edge1_Node000001_Node000002"><a xlink:title=" ">
<path fill="none" stroke="#63b8ff" d="M508.73,-364.78C408.6,-355.77 229.93,-338.29 78,-316 76.73,-315.81 75.45,-315.62 74.16,-315.42"/>
<polygon fill="#63b8ff" stroke="#63b8ff" points="74.56,-311.94 64.12,-313.75 73.41,-318.84 74.56,-311.94"/>
</a>
</g>
</g>
<!-- Node3 -->
<g id="Node000003" class="node">
<title>Node3</title>
<g id="a_Node000003"><a xlink:title=" ">
<polygon fill="#e0e0e0" stroke="#999999" points="413.5,-19 366.5,-19 366.5,0 413.5,0 413.5,-19"/>
<text text-anchor="middle" x="390" y="-7" font-family="Helvetica,sans-Serif" font-size="10.00">cmath</text>
</a>
</g>
</g>
<!-- Node1&#45;&gt;Node3 -->
<g id="edge2_Node000001_Node000003" class="edge">
<title>Node1&#45;&gt;Node3</title>
<g id="a_edge2_Node000001_Node000003"><a xlink:title=" ">
<path fill="none" stroke="#63b8ff" d="M508.84,-367.95C369.35,-359.46 92,-331.9 92,-247 92,-247 92,-247 92,-129.5 92,-95.33 85.69,-77.96 111,-55 149.96,-19.65 293.14,-27.88 345,-19 348.66,-18.37 352.49,-17.69 356.3,-17"/>
<polygon fill="#63b8ff" stroke="#63b8ff" points="357.02,-20.42 366.21,-15.15 355.73,-13.54 357.02,-20.42"/>
</a>
</g>
</g>
<!-- Node4 -->
<g id="Node000004" class="node">
<title>Node4</title>
<g id="a_Node000004"><a xlink:href="_sampling_utils_8_h.html" target="_top" xlink:title=" ">
<polygon fill="white" stroke="#666666" points="634.5,-316 539.5,-316 539.5,-297 634.5,-297 634.5,-316"/>
<text text-anchor="middle" x="587" y="-304" font-family="Helvetica,sans-Serif" font-size="10.00">SamplingUtils.H</text>
</a>
</g>
</g>
<!-- Node1&#45;&gt;Node4 -->
<g id="edge3_Node000001_Node000004" class="edge">
<title>Node1&#45;&gt;Node4</title>
<g id="a_edge3_Node000001_Node000004"><a xlink:title=" ">
<path fill="none" stroke="#63b8ff" d="M587,-351.95C587,-343.85 587,-334.5 587,-326.47"/>
<polygon fill="#63b8ff" stroke="#63b8ff" points="590.5,-326.26 587,-316.26 583.5,-326.26 590.5,-326.26"/>
</a>
</g>
</g>
<!-- Node18 -->
<g id="Node000018" class="node">
<title>Node18</title>
<g id="a_Node000018"><a xlink:title=" ">
<polygon fill="#e0e0e0" stroke="#999999" points="761,-19 669,-19 669,0 761,0 761,-19"/>
<text text-anchor="middle" x="715" y="-7" font-family="Helvetica,sans-Serif" font-size="10.00">AMReX_REAL.H</text>
</a>
</g>
</g>
<!-- Node1&#45;&gt;Node18 -->
<g id="edge34_Node000001_Node000018" class="edge">
<title>Node1&#45;&gt;Node18</title>
<g id="a_edge34_Node000001_Node000018"><a xlink:title=" ">
<path fill="none" stroke="#63b8ff" d="M665.14,-354.93C720.14,-338.15 784,-305.97 784,-247 784,-247 784,-247 784,-129.5 784,-87.78 751.87,-47.59 731.46,-26.27"/>
<polygon fill="#63b8ff" stroke="#63b8ff" points="733.83,-23.69 724.31,-19.05 728.86,-28.62 733.83,-23.69"/>
</a>
</g>
</g>
<!-- Node22 -->
<g id="Node000022" class="node">
<title>Node22</title>
<g id="a_Node000022"><a xlink:title=" ">
<polygon fill="#e0e0e0" stroke="#999999" points="931.5,-316 812.5,-316 812.5,-297 931.5,-297 931.5,-316"/>
<text text-anchor="middle" x="872" y="-304" font-family="Helvetica,sans-Serif" font-size="10.00">AMReX_ParmParse.H</text>
</a>
</g>
</g>
<!-- Node1&#45;&gt;Node22 -->
<g id="edge33_Node000001_Node000022" class="edge">
<title>Node1&#45;&gt;Node22</title>
<g id="a_edge33_Node000001_Node000022"><a xlink:title=" ">
<path fill="none" stroke="#63b8ff" d="M665.25,-353.93C716.06,-342.52 780.64,-328.02 823.98,-318.28"/>
<polygon fill="#63b8ff" stroke="#63b8ff" points="824.99,-321.64 833.98,-316.04 823.46,-314.81 824.99,-321.64"/>
</a>
</g>
</g>
<!-- Node5 -->
<g id="Node000005" class="node">
<title>Node5</title>
<g id="a_Node000005"><a xlink:title=" ">
<polygon fill="#e0e0e0" stroke="#999999" points="609,-255.5 565,-255.5 565,-236.5 609,-236.5 609,-255.5"/>
<text text-anchor="middle" x="587" y="-243.5" font-family="Helvetica,sans-Serif" font-size="10.00">string</text>
</a>
</g>
</g>
<!-- Node4&#45;&gt;Node5 -->
<g id="edge4_Node000004_Node000005" class="edge">
<title>Node4&#45;&gt;Node5</title>
<g id="a_edge4_Node000004_Node000005"><a xlink:title=" ">
<path fill="none" stroke="#63b8ff" d="M587,-296.87C587,-288.75 587,-276.31 587,-265.89"/>
<polygon fill="#63b8ff" stroke="#63b8ff" points="590.5,-265.67 587,-255.67 583.5,-265.67 590.5,-265.67"/>
</a>
</g>
</g>
<!-- Node6 -->
<g id="Node000006" class="node">
<title>Node6</title>
<g id="a_Node000006"><a xlink:title=" ">
<polygon fill="#e0e0e0" stroke="#999999" points="677,-255.5 627,-255.5 627,-236.5 677,-236.5 677,-255.5"/>
<text text-anchor="middle" x="652" y="-243.5" font-family="Helvetica,sans-Serif" font-size="10.00">cstdint</text>
</a>
</g>
</g>
<!-- Node4&#45;&gt;Node6 -->
<g id="edge5_Node000004_Node000006" class="edge">
<title>Node4&#45;&gt;Node6</title>
<g id="a_edge5_Node000004_Node000006"><a xlink:title=" ">
<path fill="none" stroke="#63b8ff" d="M596.59,-296.87C606.58,-287.88 622.43,-273.61 634.63,-262.64"/>
<polygon fill="#63b8ff" stroke="#63b8ff" points="637.28,-264.96 642.37,-255.67 632.6,-259.76 637.28,-264.96"/>
</a>
</g>
</g>
<!-- Node7 -->
<g id="Node000007" class="node">
<title>Node7</title>
<g id="a_Node000007"><a xlink:href="vector__space_8_h.html" target="_top" xlink:title=" ">
<polygon fill="white" stroke="#666666" points="297.5,-261 194.5,-261 194.5,-231 297.5,-231 297.5,-261"/>
<text text-anchor="start" x="202.5" y="-249" font-family="Helvetica,sans-Serif" font-size="10.00">src/core/vs/vector</text>
<text text-anchor="middle" x="246" y="-238" font-family="Helvetica,sans-Serif" font-size="10.00">_space.H</text>
</a>
</g>
</g>
<!-- Node4&#45;&gt;Node7 -->
<g id="edge6_Node000004_Node000007" class="edge">
<title>Node4&#45;&gt;Node7</title>
<g id="a_edge6_Node000004_Node000007"><a xlink:title=" ">
<path fill="none" stroke="#63b8ff" d="M539.08,-298.99C485.09,-291.41 394.48,-277.97 307.68,-261.25"/>
<polygon fill="#63b8ff" stroke="#63b8ff" points="308.14,-257.78 297.66,-259.3 306.81,-264.65 308.14,-257.78"/>
</a>
</g>
</g>
<!-- Node4&#45;&gt;Node18 -->
<g id="edge32_Node000004_Node000018" class="edge">
<title>Node4&#45;&gt;Node18</title>
<g id="a_edge32_Node000004_Node000018"><a xlink:title=" ">
<path fill="none" stroke="#63b8ff" d="M631.41,-296.95C655.68,-290.44 684.99,-279.36 706,-261 734.3,-236.28 746,-224.08 746,-186.5 746,-186.5 746,-186.5 746,-129.5 746,-92.82 732.04,-51.78 722.86,-28.75"/>
<polygon fill="#63b8ff" stroke="#63b8ff" points="725.98,-27.16 718.93,-19.25 719.51,-29.83 725.98,-27.16"/>
</a>
</g>
</g>
<!-- Node19 -->
<g id="Node000019" class="node">
<title>Node19</title>
<g id="a_Node000019"><a xlink:href="tensor__ops_8_h.html" target="_top" xlink:title=" ">
<polygon fill="white" stroke="#666666" points="718,-85 614,-85 614,-55 718,-55 718,-85"/>
<text text-anchor="start" x="622" y="-73" font-family="Helvetica,sans-Serif" font-size="10.00">src/utilities/tensor</text>
<text text-anchor="middle" x="666" y="-62" font-family="Helvetica,sans-Serif" font-size="10.00">_ops.H</text>
</a>
</g>
</g>
<!-- Node4&#45;&gt;Node19 -->
<g id="edge27_Node000004_Node000019" class="edge">
<title>Node4&#45;&gt;Node19</title>
<g id="a_edge27_Node000004_Node000019"><a xlink:title=" ">
<path fill="none" stroke="#63b8ff" d="M631.76,-296.92C651.95,-290.58 673.92,-279.67 686,-261 719.41,-209.36 693.92,-132.84 677.34,-94.58"/>
<polygon fill="#63b8ff" stroke="#63b8ff" points="680.45,-92.97 673.15,-85.29 674.07,-95.84 680.45,-92.97"/>
</a>
</g>
</g>
<!-- Node20 -->
<g id="Node000020" class="node">
<title>Node20</title>
<g id="a_Node000020"><a xlink:title=" ">
<polygon fill="#e0e0e0" stroke="#999999" points="430.5,-255.5 315.5,-255.5 315.5,-236.5 430.5,-236.5 430.5,-255.5"/>
<text text-anchor="middle" x="373" y="-243.5" font-family="Helvetica,sans-Serif" font-size="10.00">AMReX_Geometry.H</text>
</a>
</g>
</g>
<!-- Node4&#45;&gt;Node20 -->
<g id="edge30_Node000004_Node000020" class="edge">
<title>Node4&#45;&gt;Node20</title>
<g id="a_edge30_Node000004_Node000020"><a xlink:title=" ">
<path fill="none" stroke="#63b8ff" d="M555.88,-296.99C518.4,-286.75 455.32,-269.5 413.93,-258.19"/>
<polygon fill="#63b8ff" stroke="#63b8ff" points="414.72,-254.78 404.15,-255.52 412.88,-261.53 414.72,-254.78"/>
</a>
</g>
</g>
<!-- Node21 -->
<g id="Node000021" class="node">
<title>Node21</title>
<g id="a_Node000021"><a xlink:title=" ">
<polygon fill="#e0e0e0" stroke="#999999" points="547,-255.5 449,-255.5 449,-236.5 547,-236.5 547,-255.5"/>
<text text-anchor="middle" x="498" y="-243.5" font-family="Helvetica,sans-Serif" font-size="10.00">AMReX_Vector.H</text>
</a>
</g>
</g>
<!-- Node4&#45;&gt;Node21 -->
<g id="edge31_Node000004_Node000021" class="edge">
<title>Node4&#45;&gt;Node21</title>
<g id="a_edge31_Node000004_Node000021"><a xlink:title=" ">
<path fill="none" stroke="#63b8ff" d="M573.87,-296.87C559.67,-287.54 536.8,-272.51 519.88,-261.38"/>
<polygon fill="#63b8ff" stroke="#63b8ff" points="521.47,-258.24 511.19,-255.67 517.62,-264.08 521.47,-258.24"/>
</a>
</g>
</g>
<!-- Node8 -->
<g id="Node000008" class="node">
<title>Node8</title>
<g id="a_Node000008"><a xlink:href="vector_8_h.html" target="_top" xlink:title=" ">
<polygon fill="white" stroke="#666666" points="291.5,-140 178.5,-140 178.5,-121 291.5,-121 291.5,-140"/>
<text text-anchor="middle" x="235" y="-128" font-family="Helvetica,sans-Serif" font-size="10.00">src/core/vs/vector.H</text>
</a>
</g>
</g>
<!-- Node7&#45;&gt;Node8 -->
<g id="edge7_Node000007_Node000008" class="edge">
<title>Node7&#45;&gt;Node8</title>
<g id="a_edge7_Node000007_Node000008"><a xlink:title=" ">
<path fill="none" stroke="#63b8ff" d="M244.61,-230.63C242.63,-210.21 239,-172.81 236.82,-150.24"/>
<polygon fill="#63b8ff" stroke="#63b8ff" points="240.29,-149.85 235.85,-140.23 233.33,-150.52 240.29,-149.85"/>
</a>
</g>
</g>
<!-- Node14 -->
<g id="Node000014" class="node">
<title>Node14</title>
<g id="a_Node000014"><a xlink:href="tensor_8_h.html" target="_top" xlink:title=" ">
<polygon fill="white" stroke="#666666" points="420.5,-195 307.5,-195 307.5,-176 420.5,-176 420.5,-195"/>
<text text-anchor="middle" x="364" y="-183" font-family="Helvetica,sans-Serif" font-size="10.00">src/core/vs/tensor.H</text>
</a>
</g>
</g>
<!-- Node7&#45;&gt;Node14 -->
<g id="edge15_Node000007_Node000014" class="edge">
<title>Node7&#45;&gt;Node14</title>
<g id="a_edge15_Node000007_Node000014"><a xlink:title=" ">
<path fill="none" stroke="#63b8ff" d="M274.26,-230.99C293.42,-221.49 318.58,-209.02 337.39,-199.69"/>
<polygon fill="#63b8ff" stroke="#63b8ff" points="339.17,-202.72 346.57,-195.14 336.06,-196.45 339.17,-202.72"/>
</a>
</g>
</g>
<!-- Node9 -->
<g id="Node000009" class="node">
<title>Node9</title>
<g id="a_Node000009"><a xlink:title=" ">
<polygon fill="#e0e0e0" stroke="#999999" points="619.5,-19 532.5,-19 532.5,0 619.5,0 619.5,-19"/>
<text text-anchor="middle" x="576" y="-7" font-family="Helvetica,sans-Serif" font-size="10.00">AMReX_Gpu.H</text>
</a>
</g>
</g>
<!-- Node8&#45;&gt;Node9 -->
<g id="edge8_Node000008_Node000009" class="edge">
<title>Node8&#45;&gt;Node9</title>
<g id="a_edge8_Node000008_Node000009"><a xlink:title=" ">
<path fill="none" stroke="#63b8ff" d="M291.54,-123.5C371.34,-114.64 509.5,-97.75 529,-85 549.35,-71.69 562.55,-46.18 569.64,-28.75"/>
<polygon fill="#63b8ff" stroke="#63b8ff" points="573.01,-29.72 573.26,-19.13 566.46,-27.25 573.01,-29.72"/>
</a>
</g>
</g>
<!-- Node10 -->
<g id="Node000010" class="node">
<title>Node10</title>
<g id="a_Node000010"><a xlink:href="vstraits_8_h.html" target="_top" xlink:title=" ">
<polygon fill="white" stroke="#666666" points="373.5,-79.5 254.5,-79.5 254.5,-60.5 373.5,-60.5 373.5,-79.5"/>
<text text-anchor="middle" x="314" y="-67.5" font-family="Helvetica,sans-Serif" font-size="10.00">src/core/vs/vstraits.H</text>
</a>
</g>
</g>
<!-- Node8&#45;&gt;Node10 -->
<g id="edge9_Node000008_Node000010" class="edge">
<title>Node8&#45;&gt;Node10</title>
<g id="a_edge9_Node000008_Node000010"><a xlink:title=" ">
<path fill="none" stroke="#63b8ff" d="M246.66,-120.87C259.14,-111.62 279.18,-96.78 294.16,-85.69"/>
<polygon fill="#63b8ff" stroke="#63b8ff" points="296.34,-88.43 302.3,-79.67 292.18,-82.81 296.34,-88.43"/>
</a>
</g>
</g>
<!-- Node12 -->
<g id="Node000012" class="node">
<title>Node12</title>
<g id="a_Node000012"><a xlink:href="vector_i_8_h.html" target="_top" xlink:title=" ">
<polygon fill="white" stroke="#666666" points="236,-79.5 120,-79.5 120,-60.5 236,-60.5 236,-79.5"/>
<text text-anchor="middle" x="178" y="-67.5" font-family="Helvetica,sans-Serif" font-size="10.00">src/core/vs/vectorI.H</text>
</a>
</g>
</g>
<!-- Node8&#45;&gt;Node12 -->
<g id="edge11_Node000008_Node000012" class="edge">
<title>Node8&#45;&gt;Node12</title>
<g id="a_edge11_Node000008_Node000012"><a xlink:title=" ">
<path fill="none" stroke="#63b8ff" d="M221.63,-120.87C211.24,-112.14 197.49,-98.43 188.01,-87.59"/>
<polygon fill="#63b8ff" stroke="#63b8ff" points="190.54,-85.16 181.48,-79.67 185.14,-89.61 190.54,-85.16"/>
</a>
</g>
</g>
<!-- Node11 -->
<g id="Node000011" class="node">
<title>Node11</title>
<g id="a_Node000011"><a xlink:title=" ">
<polygon fill="#e0e0e0" stroke="#999999" points="336,-19 292,-19 292,0 336,0 336,-19"/>
<text text-anchor="middle" x="314" y="-7" font-family="Helvetica,sans-Serif" font-size="10.00">limits</text>
</a>
</g>
</g>
<!-- Node10&#45;&gt;Node11 -->
<g id="edge10_Node000010_Node000011" class="edge">
<title>Node10&#45;&gt;Node11</title>
<g id="a_edge10_Node000010_Node000011"><a xlink:title=" ">
<path fill="none" stroke="#63b8ff" d="M314,-60.37C314,-52.25 314,-39.81 314,-29.39"/>
<polygon fill="#63b8ff" stroke="#63b8ff" points="317.5,-29.17 314,-19.17 310.5,-29.17 317.5,-29.17"/>
</a>
</g>
</g>
<!-- Node12&#45;&gt;Node3 -->
<g id="edge13_Node000012_Node000003" class="edge">
<title>Node12&#45;&gt;Node3</title>
<g id="a_edge13_Node000012_Node000003"><a xlink:title=" ">
<path fill="none" stroke="#63b8ff" d="M208.83,-60.49C248.21,-49.63 316.12,-30.89 356.67,-19.7"/>
<polygon fill="#63b8ff" stroke="#63b8ff" points="357.64,-23.06 366.35,-17.03 355.78,-16.31 357.64,-23.06"/>
</a>
</g>
</g>
<!-- Node12&#45;&gt;Node8 -->
<g id="edge14_Node000012_Node000008" class="edge">
<title>Node12&#45;&gt;Node8</title>
<g id="a_edge14_Node000012_Node000008"><a xlink:title=" ">
<path fill="none" stroke="#63b8ff" d="M191.41,-79.67C201.81,-88.41 215.56,-102.12 225.02,-112.95"/>
<polygon fill="#63b8ff" stroke="#63b8ff" points="222.49,-115.37 231.54,-120.87 227.89,-110.92 222.49,-115.37"/>
</a>
</g>
</g>
<!-- Node13 -->
<g id="Node000013" class="node">
<title>Node13</title>
<g id="a_Node000013"><a xlink:title=" ">
<polygon fill="#e0e0e0" stroke="#999999" points="206.5,-19 149.5,-19 149.5,0 206.5,0 206.5,-19"/>
<text text-anchor="middle" x="178" y="-7" font-family="Helvetica,sans-Serif" font-size="10.00">ostream</text>
</a>
</g>
</g>
<!-- Node12&#45;&gt;Node13 -->
<g id="edge12_Node000012_Node000013" class="edge">
<title>Node12&#45;&gt;Node13</title>
<g id="a_edge12_Node000012_Node000013"><a xlink:title=" ">
<path fill="none" stroke="#63b8ff" d="M178,-60.37C178,-52.25 178,-39.81 178,-29.39"/>
<polygon fill="#63b8ff" stroke="#63b8ff" points="181.5,-29.17 178,-19.17 174.5,-29.17 181.5,-29.17"/>
</a>
</g>
</g>
<!-- Node14&#45;&gt;Node8 -->
<g id="edge18_Node000014_Node000008" class="edge">
<title>Node14&#45;&gt;Node8</title>
<g id="a_edge18_Node000014_Node000008"><a xlink:title=" ">
<path fill="none" stroke="#63b8ff" d="M343.27,-175.98C322.24,-167.34 289.45,-153.87 265.46,-144.02"/>
<polygon fill="#63b8ff" stroke="#63b8ff" points="266.68,-140.73 256.1,-140.17 264.02,-147.21 266.68,-140.73"/>
</a>
</g>
</g>
<!-- Node14&#45;&gt;Node9 -->
<g id="edge16_Node000014_Node000009" class="edge">
<title>Node14&#45;&gt;Node9</title>
<g id="a_edge16_Node000014_Node000009"><a xlink:title=" ">
<path fill="none" stroke="#63b8ff" d="M402.49,-175.9C447.29,-163.75 519.85,-136.99 557,-85 568.74,-68.57 573.24,-45.54 574.96,-29.45"/>
<polygon fill="#63b8ff" stroke="#63b8ff" points="578.47,-29.4 575.78,-19.16 571.49,-28.84 578.47,-29.4"/>
</a>
</g>
</g>
<!-- Node14&#45;&gt;Node10 -->
<g id="edge17_Node000014_Node000010" class="edge">
<title>Node14&#45;&gt;Node10</title>
<g id="a_edge17_Node000014_Node000010"><a xlink:title=" ">
<path fill="none" stroke="#63b8ff" d="M358.58,-175.86C353.2,-167.05 344.91,-152.89 339,-140 331.38,-123.37 324.44,-103.68 319.82,-89.6"/>
<polygon fill="#63b8ff" stroke="#63b8ff" points="323.02,-88.13 316.64,-79.68 316.36,-90.27 323.02,-88.13"/>
</a>
</g>
</g>
<!-- Node15 -->
<g id="Node000015" class="node">
<title>Node15</title>
<g id="a_Node000015"><a xlink:href="tensor_i_8_h.html" target="_top" xlink:title=" ">
<polygon fill="white" stroke="#666666" points="464,-140 348,-140 348,-121 464,-121 464,-140"/>
<text text-anchor="middle" x="406" y="-128" font-family="Helvetica,sans-Serif" font-size="10.00">src/core/vs/tensorI.H</text>
</a>
</g>
</g>
<!-- Node14&#45;&gt;Node15 -->
<g id="edge19_Node000014_Node000015" class="edge">
<title>Node14&#45;&gt;Node15</title>
<g id="a_edge19_Node000014_Node000015"><a xlink:title=" ">
<path fill="none" stroke="#63b8ff" d="M365.77,-175.75C370.18,-168.11 378.76,-156.82 387.01,-147.56"/>
<polygon fill="#63b8ff" stroke="#63b8ff" points="389.74,-149.76 394.06,-140.09 384.65,-144.96 389.74,-149.76"/>
</a>
</g>
</g>
<!-- Node15&#45;&gt;Node3 -->
<g id="edge20_Node000015_Node000003" class="edge">
<title>Node15&#45;&gt;Node3</title>
<g id="a_edge20_Node000015_Node000003"><a xlink:title=" ">
<path fill="none" stroke="#63b8ff" d="M404.85,-120.94C402.29,-101.91 396.08,-55.69 392.55,-29.47"/>
<polygon fill="#63b8ff" stroke="#63b8ff" points="395.98,-28.75 391.18,-19.3 389.05,-29.68 395.98,-28.75"/>
</a>
</g>
</g>
<!-- Node15&#45;&gt;Node14 -->
<g id="edge21_Node000015_Node000014" class="edge">
<title>Node15&#45;&gt;Node14</title>
<g id="a_edge21_Node000015_Node000014"><a xlink:title=" ">
<path fill="none" stroke="#63b8ff" d="M404.32,-140.09C399.97,-147.68 391.42,-158.95 383.17,-168.24"/>
<polygon fill="#63b8ff" stroke="#63b8ff" points="380.41,-166.07 376.1,-175.75 385.5,-170.86 380.41,-166.07"/>
</a>
</g>
</g>
<!-- Node16 -->
<g id="Node000016" class="node">
<title>Node16</title>
<g id="a_Node000016"><a xlink:href="trig__ops_8_h.html" target="_top" xlink:title=" ">
<polygon fill="white" stroke="#666666" points="520,-85 430,-85 430,-55 520,-55 520,-85"/>
<text text-anchor="start" x="438" y="-73" font-family="Helvetica,sans-Serif" font-size="10.00">src/utilities/trig</text>
<text text-anchor="middle" x="475" y="-62" font-family="Helvetica,sans-Serif" font-size="10.00">_ops.H</text>
</a>
</g>
</g>
<!-- Node15&#45;&gt;Node16 -->
<g id="edge22_Node000015_Node000016" class="edge">
<title>Node15&#45;&gt;Node16</title>
<g id="a_edge22_Node000015_Node000016"><a xlink:title=" ">
<path fill="none" stroke="#63b8ff" d="M416.18,-120.87C425.2,-113.22 438.72,-101.76 450.53,-91.75"/>
<polygon fill="#63b8ff" stroke="#63b8ff" points="452.99,-94.25 458.35,-85.11 448.46,-88.91 452.99,-94.25"/>
</a>
</g>
</g>
<!-- Node16&#45;&gt;Node3 -->
<g id="edge23_Node000016_Node000003" class="edge">
<title>Node16&#45;&gt;Node3</title>
<g id="a_edge23_Node000016_Node000003"><a xlink:title=" ">
<path fill="none" stroke="#63b8ff" d="M454.42,-54.84C441.33,-45.83 424.41,-34.18 411.2,-25.09"/>
<polygon fill="#63b8ff" stroke="#63b8ff" points="412.96,-22.05 402.74,-19.27 408.99,-27.82 412.96,-22.05"/>
</a>
</g>
</g>
<!-- Node16&#45;&gt;Node9 -->
<g id="edge26_Node000016_Node000009" class="edge">
<title>Node16&#45;&gt;Node9</title>
<g id="a_edge26_Node000016_Node000009"><a xlink:title=" ">
<path fill="none" stroke="#63b8ff" d="M499.19,-54.99C515.29,-45.66 536.34,-33.47 552.33,-24.21"/>
<polygon fill="#63b8ff" stroke="#63b8ff" points="554.19,-27.18 561.08,-19.14 550.68,-21.12 554.19,-27.18"/>
</a>
</g>
</g>
<!-- Node17 -->
<g id="Node000017" class="node">
<title>Node17</title>
<g id="a_Node000017"><a xlink:title=" ">
<polygon fill="#e0e0e0" stroke="#999999" points="504.5,-19 445.5,-19 445.5,0 504.5,0 504.5,-19"/>
<text text-anchor="middle" x="475" y="-7" font-family="Helvetica,sans-Serif" font-size="10.00">numbers</text>
</a>
</g>
</g>
<!-- Node16&#45;&gt;Node17 -->
<g id="edge24_Node000016_Node000017" class="edge">
<title>Node16&#45;&gt;Node17</title>
<g id="a_edge24_Node000016_Node000017"><a xlink:title=" ">
<path fill="none" stroke="#63b8ff" d="M475,-54.84C475,-47.21 475,-37.7 475,-29.45"/>
<polygon fill="#63b8ff" stroke="#63b8ff" points="478.5,-29.27 475,-19.27 471.5,-29.27 478.5,-29.27"/>
</a>
</g>
</g>
<!-- Node16&#45;&gt;Node18 -->
<g id="edge25_Node000016_Node000018" class="edge">
<title>Node16&#45;&gt;Node18</title>
<g id="a_edge25_Node000016_Node000018"><a xlink:title=" ">
<path fill="none" stroke="#63b8ff" d="M520.14,-58C563.01,-47.55 627.09,-31.93 669.93,-21.48"/>
<polygon fill="#63b8ff" stroke="#63b8ff" points="670.92,-24.85 679.81,-19.08 669.26,-18.05 670.92,-24.85"/>
</a>
</g>
</g>
<!-- Node19&#45;&gt;Node9 -->
<g id="edge28_Node000019_Node000009" class="edge">
<title>Node19&#45;&gt;Node9</title>
<g id="a_edge28_Node000019_Node000009"><a xlink:title=" ">
<path fill="none" stroke="#63b8ff" d="M644.21,-54.84C630.13,-45.68 611.87,-33.82 597.79,-24.66"/>
<polygon fill="#63b8ff" stroke="#63b8ff" points="599.51,-21.61 589.22,-19.09 595.7,-27.48 599.51,-21.61"/>
</a>
</g>
</g>
<!-- Node19&#45;&gt;Node18 -->
<g id="edge29_Node000019_Node000018" class="edge">
<title>Node19&#45;&gt;Node18</title>
<g id="a_edge29_Node000019_Node000018"><a xlink:title=" ">
<path fill="none" stroke="#63b8ff" d="M677.86,-54.84C684.9,-46.43 693.86,-35.74 701.21,-26.96"/>
<polygon fill="#63b8ff" stroke="#63b8ff" points="703.92,-29.18 707.66,-19.27 698.55,-24.68 703.92,-29.18"/>
</a>
</g>
</g>
</g>
</svg>
