<?xml version="1.0" encoding="UTF-8" standalone="no"?>
<!DOCTYPE svg PUBLIC "-//W3C//DTD SVG 1.1//EN"
 "http://www.w3.org/Graphics/SVG/1.1/DTD/svg11.dtd">
<!-- Generated by graphviz version 2.43.0 (0)
 -->
<!-- Title: /home/runner/work/kynema&#45;sgf/kynema&#45;sgf/src/equation_systems/SourceTerm.H Pages: 1 -->
<svg width="1013pt" height="302pt"
 viewBox="0.00 0.00 1013.00 302.00" xmlns="http://www.w3.org/2000/svg" xmlns:xlink="http://www.w3.org/1999/xlink">
<g id="graph0" class="graph" transform="scale(1 1) rotate(0) translate(4 298)">
<title>/home/runner/work/kynema&#45;sgf/kynema&#45;sgf/src/equation_systems/SourceTerm.H</title>
<!-- Node1 -->
<g id="Node000001" class="node">
<title>Node1</title>
<g id="a_Node000001"><a xlink:title=" ">
<polygon fill="#999999" stroke="#666666" points="420,-294 261,-294 261,-253 420,-253 420,-294"/>
<text text-anchor="start" x="269" y="-282" font-family="Helvetica,sans-Serif" font-size="10.00">/home/runner/work/kynema</text>
<text text-anchor="start" x="269" y="-271" font-family="Helvetica,sans-Serif" font-size="10.00">&#45;sgf/kynema&#45;sgf/src/equation</text>
<text text-anchor="middle" x="340.5" y="-260" font-family="Helvetica,sans-Serif" font-size="10.00">_systems/SourceTerm.H</text>
</a>
</g>
</g>
<!-- Node2 -->
<g id="Node000002" class="node">
<title>Node2</title>
<g id="a_Node000002"><a xlink:href="levelset_8_h.html" target="_top" xlink:title=" ">
<polygon fill="white" stroke="#666666" points="222,-211.5 63,-211.5 63,-170.5 222,-170.5 222,-211.5"/>
<text text-anchor="start" x="71" y="-199.5" font-family="Helvetica,sans-Serif" font-size="10.00">/home/runner/work/kynema</text>
<text text-anchor="start" x="71" y="-188.5" font-family="Helvetica,sans-Serif" font-size="10.00">&#45;sgf/kynema&#45;sgf/src/equation</text>
<text text-anchor="middle" x="142.5" y="-177.5" font-family="Helvetica,sans-Serif" font-size="10.00">_systems/levelset/levelset.H</text>
</a>
</g>
</g>
<!-- Node1&#45;&gt;Node2 -->
<g id="edge1_Node000001_Node000002" class="edge">
<title>Node1&#45;&gt;Node2</title>
<g id="a_edge1_Node000001_Node000002"><a xlink:title=" ">
<path fill="none" stroke="#63b8ff" d="M283.02,-249.13C253.69,-237.21 218.42,-222.87 190.56,-211.54"/>
<polygon fill="#63b8ff" stroke="#63b8ff" points="281.74,-252.39 292.32,-252.91 284.37,-245.9 281.74,-252.39"/>
</a>
</g>
</g>
<!-- Node5 -->
<g id="Node000005" class="node">
<title>Node5</title>
<g id="a_Node000005"><a xlink:href="passive__scalar_8_h.html" target="_top" xlink:title=" ">
<polygon fill="white" stroke="#666666" points="430,-217 251,-217 251,-165 430,-165 430,-217"/>
<text text-anchor="start" x="259" y="-205" font-family="Helvetica,sans-Serif" font-size="10.00">/home/runner/work/kynema</text>
<text text-anchor="start" x="259" y="-194" font-family="Helvetica,sans-Serif" font-size="10.00">&#45;sgf/kynema&#45;sgf/src/equation</text>
<text text-anchor="start" x="259" y="-183" font-family="Helvetica,sans-Serif" font-size="10.00">_systems/passive_scalar/passive</text>
<text text-anchor="middle" x="340.5" y="-172" font-family="Helvetica,sans-Serif" font-size="10.00">_scalar.H</text>
</a>
</g>
</g>
<!-- Node1&#45;&gt;Node5 -->
<g id="edge5_Node000001_Node000005" class="edge">
<title>Node1&#45;&gt;Node5</title>
<g id="a_edge5_Node000001_Node000005"><a xlink:title=" ">
<path fill="none" stroke="#63b8ff" d="M340.5,-242.49C340.5,-234.15 340.5,-225.19 340.5,-217.16"/>
<polygon fill="#63b8ff" stroke="#63b8ff" points="337,-242.6 340.5,-252.6 344,-242.6 337,-242.6"/>
</a>
</g>
</g>
<!-- Node7 -->
<g id="Node000007" class="node">
<title>Node7</title>
<g id="a_Node000007"><a xlink:href="vof_8_h.html" target="_top" xlink:title=" ">
<polygon fill="white" stroke="#666666" points="648,-211.5 489,-211.5 489,-170.5 648,-170.5 648,-211.5"/>
<text text-anchor="start" x="497" y="-199.5" font-family="Helvetica,sans-Serif" font-size="10.00">/home/runner/work/kynema</text>
<text text-anchor="start" x="497" y="-188.5" font-family="Helvetica,sans-Serif" font-size="10.00">&#45;sgf/kynema&#45;sgf/src/equation</text>
<text text-anchor="middle" x="568.5" y="-177.5" font-family="Helvetica,sans-Serif" font-size="10.00">_systems/vof/vof.H</text>
</a>
</g>
</g>
<!-- Node1&#45;&gt;Node7 -->
<g id="edge7_Node000001_Node000007" class="edge">
<title>Node1&#45;&gt;Node7</title>
<g id="a_edge7_Node000001_Node000007"><a xlink:title=" ">
<path fill="none" stroke="#63b8ff" d="M405.81,-249.44C439.76,-237.45 480.8,-222.97 513.16,-211.54"/>
<polygon fill="#63b8ff" stroke="#63b8ff" points="404.25,-246.28 395.98,-252.91 406.58,-252.88 404.25,-246.28"/>
</a>
</g>
</g>
<!-- Node3 -->
<g id="Node000003" class="node">
<title>Node3</title>
<g id="a_Node000003"><a xlink:href="levelset_8cpp.html" target="_top" xlink:title=" ">
<polygon fill="white" stroke="#666666" points="167,-41 0,-41 0,0 167,0 167,-41"/>
<text text-anchor="start" x="8" y="-29" font-family="Helvetica,sans-Serif" font-size="10.00">/home/runner/work/kynema</text>
<text text-anchor="start" x="8" y="-18" font-family="Helvetica,sans-Serif" font-size="10.00">&#45;sgf/kynema&#45;sgf/src/equation</text>
<text text-anchor="middle" x="83.5" y="-7" font-family="Helvetica,sans-Serif" font-size="10.00">_systems/levelset/levelset.cpp</text>
</a>
</g>
</g>
<!-- Node2&#45;&gt;Node3 -->
<g id="edge2_Node000002_Node000003" class="edge">
<title>Node2&#45;&gt;Node3</title>
<g id="a_edge2_Node000002_Node000003"><a xlink:title=" ">
<path fill="none" stroke="#63b8ff" d="M81.19,-165.38C66.22,-156.27 52.06,-144.32 43.5,-129 32.23,-108.82 36.4,-98.99 43.5,-77 47.77,-63.78 56.49,-51.05 64.7,-41.12"/>
<polygon fill="#63b8ff" stroke="#63b8ff" points="79.64,-168.52 90.07,-170.41 83.1,-162.43 79.64,-168.52"/>
</a>
</g>
</g>
<!-- Node4 -->
<g id="Node000004" class="node">
<title>Node4</title>
<g id="a_Node000004"><a xlink:href="levelset__ops_8_h.html" target="_top" xlink:title=" ">
<polygon fill="white" stroke="#666666" points="232.5,-123.5 52.5,-123.5 52.5,-82.5 232.5,-82.5 232.5,-123.5"/>
<text text-anchor="start" x="60.5" y="-111.5" font-family="Helvetica,sans-Serif" font-size="10.00">/home/runner/work/kynema</text>
<text text-anchor="start" x="60.5" y="-100.5" font-family="Helvetica,sans-Serif" font-size="10.00">&#45;sgf/kynema&#45;sgf/src/equation</text>
<text text-anchor="middle" x="142.5" y="-89.5" font-family="Helvetica,sans-Serif" font-size="10.00">_systems/levelset/levelset_ops.H</text>
</a>
</g>
</g>
<!-- Node2&#45;&gt;Node4 -->
<g id="edge3_Node000002_Node000004" class="edge">
<title>Node2&#45;&gt;Node4</title>
<g id="a_edge3_Node000002_Node000004"><a xlink:title=" ">
<path fill="none" stroke="#63b8ff" d="M142.5,-160.36C142.5,-148.26 142.5,-134.58 142.5,-123.74"/>
<polygon fill="#63b8ff" stroke="#63b8ff" points="139,-160.49 142.5,-170.49 146,-160.49 139,-160.49"/>
</a>
</g>
</g>
<!-- Node4&#45;&gt;Node3 -->
<g id="edge4_Node000004_Node000003" class="edge">
<title>Node4&#45;&gt;Node3</title>
<g id="a_edge4_Node000004_Node000003"><a xlink:title=" ">
<path fill="none" stroke="#63b8ff" d="M121.83,-73.8C113.93,-63.02 105.11,-50.98 97.92,-41.17"/>
<polygon fill="#63b8ff" stroke="#63b8ff" points="119.18,-76.1 127.92,-82.1 124.83,-71.97 119.18,-76.1"/>
</a>
</g>
</g>
<!-- Node6 -->
<g id="Node000006" class="node">
<title>Node6</title>
<g id="a_Node000006"><a xlink:href="passive__scalar_8cpp.html" target="_top" xlink:title=" ">
<polygon fill="white" stroke="#666666" points="430,-129 251,-129 251,-77 430,-77 430,-129"/>
<text text-anchor="start" x="259" y="-117" font-family="Helvetica,sans-Serif" font-size="10.00">/home/runner/work/kynema</text>
<text text-anchor="start" x="259" y="-106" font-family="Helvetica,sans-Serif" font-size="10.00">&#45;sgf/kynema&#45;sgf/src/equation</text>
<text text-anchor="start" x="259" y="-95" font-family="Helvetica,sans-Serif" font-size="10.00">_systems/passive_scalar/passive</text>
<text text-anchor="middle" x="340.5" y="-84" font-family="Helvetica,sans-Serif" font-size="10.00">_scalar.cpp</text>
</a>
</g>
</g>
<!-- Node5&#45;&gt;Node6 -->
<g id="edge6_Node000005_Node000006" class="edge">
<title>Node5&#45;&gt;Node6</title>
<g id="a_edge6_Node000005_Node000006"><a xlink:title=" ">
<path fill="none" stroke="#63b8ff" d="M340.5,-154.56C340.5,-146.04 340.5,-137.1 340.5,-129.16"/>
<polygon fill="#63b8ff" stroke="#63b8ff" points="337,-154.66 340.5,-164.66 344,-154.66 337,-154.66"/>
</a>
</g>
</g>
<!-- Node8 -->
<g id="Node000008" class="node">
<title>Node8</title>
<g id="a_Node000008"><a xlink:href="vof_8cpp.html" target="_top" xlink:title=" ">
<polygon fill="white" stroke="#666666" points="738,-41 579,-41 579,0 738,0 738,-41"/>
<text text-anchor="start" x="587" y="-29" font-family="Helvetica,sans-Serif" font-size="10.00">/home/runner/work/kynema</text>
<text text-anchor="start" x="587" y="-18" font-family="Helvetica,sans-Serif" font-size="10.00">&#45;sgf/kynema&#45;sgf/src/equation</text>
<text text-anchor="middle" x="658.5" y="-7" font-family="Helvetica,sans-Serif" font-size="10.00">_systems/vof/vof.cpp</text>
</a>
</g>
</g>
<!-- Node7&#45;&gt;Node8 -->
<g id="edge8_Node000007_Node000008" class="edge">
<title>Node7&#45;&gt;Node8</title>
<g id="a_edge8_Node000007_Node000008"><a xlink:title=" ">
<path fill="none" stroke="#63b8ff" d="M512.84,-164.94C498.78,-155.75 485.43,-143.87 477.5,-129 466.62,-108.61 463.76,-95.58 477.5,-77 500.85,-45.42 541.84,-31.23 578.91,-25.07"/>
<polygon fill="#63b8ff" stroke="#63b8ff" points="511.28,-168.09 521.64,-170.31 514.93,-162.11 511.28,-168.09"/>
</a>
</g>
</g>
<!-- Node9 -->
<g id="Node000009" class="node">
<title>Node9</title>
<g id="a_Node000009"><a xlink:href="vof__advection_8_h.html" target="_top" xlink:title=" ">
<polygon fill="white" stroke="#666666" points="650.5,-123.5 486.5,-123.5 486.5,-82.5 650.5,-82.5 650.5,-123.5"/>
<text text-anchor="start" x="494.5" y="-111.5" font-family="Helvetica,sans-Serif" font-size="10.00">/home/runner/work/kynema</text>
<text text-anchor="start" x="494.5" y="-100.5" font-family="Helvetica,sans-Serif" font-size="10.00">&#45;sgf/kynema&#45;sgf/src/equation</text>
<text text-anchor="middle" x="568.5" y="-89.5" font-family="Helvetica,sans-Serif" font-size="10.00">_systems/vof/vof_advection.H</text>
</a>
</g>
</g>
<!-- Node7&#45;&gt;Node9 -->
<g id="edge9_Node000007_Node000009" class="edge">
<title>Node7&#45;&gt;Node9</title>
<g id="a_edge9_Node000007_Node000009"><a xlink:title=" ">
<path fill="none" stroke="#63b8ff" d="M568.5,-160.36C568.5,-148.26 568.5,-134.58 568.5,-123.74"/>
<polygon fill="#63b8ff" stroke="#63b8ff" points="565,-160.49 568.5,-170.49 572,-160.49 565,-160.49"/>
</a>
</g>
</g>
<!-- Node10 -->
<g id="Node000010" class="node">
<title>Node10</title>
<g id="a_Node000010"><a xlink:href="vof__bcop_8_h.html" target="_top" xlink:title=" ">
<polygon fill="white" stroke="#666666" points="828,-123.5 669,-123.5 669,-82.5 828,-82.5 828,-123.5"/>
<text text-anchor="start" x="677" y="-111.5" font-family="Helvetica,sans-Serif" font-size="10.00">/home/runner/work/kynema</text>
<text text-anchor="start" x="677" y="-100.5" font-family="Helvetica,sans-Serif" font-size="10.00">&#45;sgf/kynema&#45;sgf/src/equation</text>
<text text-anchor="middle" x="748.5" y="-89.5" font-family="Helvetica,sans-Serif" font-size="10.00">_systems/vof/vof_bcop.H</text>
</a>
</g>
</g>
<!-- Node7&#45;&gt;Node10 -->
<g id="edge11_Node000007_Node000010" class="edge">
<title>Node7&#45;&gt;Node10</title>
<g id="a_edge11_Node000007_Node000010"><a xlink:title=" ">
<path fill="none" stroke="#63b8ff" d="M618.58,-166.07C646.6,-152.68 681.1,-136.2 707.51,-123.59"/>
<polygon fill="#63b8ff" stroke="#63b8ff" points="616.86,-163.02 609.34,-170.49 619.88,-169.33 616.86,-163.02"/>
</a>
</g>
</g>
<!-- Node11 -->
<g id="Node000011" class="node">
<title>Node11</title>
<g id="a_Node000011"><a xlink:href="vof__ops_8_h.html" target="_top" xlink:title=" ">
<polygon fill="white" stroke="#666666" points="1005,-123.5 846,-123.5 846,-82.5 1005,-82.5 1005,-123.5"/>
<text text-anchor="start" x="854" y="-111.5" font-family="Helvetica,sans-Serif" font-size="10.00">/home/runner/work/kynema</text>
<text text-anchor="start" x="854" y="-100.5" font-family="Helvetica,sans-Serif" font-size="10.00">&#45;sgf/kynema&#45;sgf/src/equation</text>
<text text-anchor="middle" x="925.5" y="-89.5" font-family="Helvetica,sans-Serif" font-size="10.00">_systems/vof/vof_ops.H</text>
</a>
</g>
</g>
<!-- Node7&#45;&gt;Node11 -->
<g id="edge13_Node000007_Node000011" class="edge">
<title>Node7&#45;&gt;Node11</title>
<g id="a_edge13_Node000007_Node000011"><a xlink:title=" ">
<path fill="none" stroke="#63b8ff" d="M658.17,-170.93C710.61,-159.46 778,-144.19 837.5,-129 844.12,-127.31 850.99,-125.48 857.86,-123.61"/>
<polygon fill="#63b8ff" stroke="#63b8ff" points="657.24,-167.55 648.22,-173.1 658.74,-174.39 657.24,-167.55"/>
</a>
</g>
</g>
<!-- Node9&#45;&gt;Node8 -->
<g id="edge10_Node000009_Node000008" class="edge">
<title>Node9&#45;&gt;Node8</title>
<g id="a_edge10_Node000009_Node000008"><a xlink:title=" ">
<path fill="none" stroke="#63b8ff" d="M598.25,-75.39C610.74,-64.22 625,-51.47 636.51,-41.17"/>
<polygon fill="#63b8ff" stroke="#63b8ff" points="595.87,-72.83 590.75,-82.1 600.53,-78.04 595.87,-72.83"/>
</a>
</g>
</g>
<!-- Node10&#45;&gt;Node8 -->
<g id="edge12_Node000010_Node000008" class="edge">
<title>Node10&#45;&gt;Node8</title>
<g id="a_edge12_Node000010_Node000008"><a xlink:title=" ">
<path fill="none" stroke="#63b8ff" d="M718.75,-75.39C706.26,-64.22 692,-51.47 680.49,-41.17"/>
<polygon fill="#63b8ff" stroke="#63b8ff" points="716.47,-78.04 726.25,-82.1 721.13,-72.83 716.47,-78.04"/>
</a>
</g>
</g>
<!-- Node11&#45;&gt;Node8 -->
<g id="edge14_Node000011_Node000008" class="edge">
<title>Node11&#45;&gt;Node8</title>
<g id="a_edge14_Node000011_Node000008"><a xlink:title=" ">
<path fill="none" stroke="#63b8ff" d="M850.8,-79.48C810.71,-67.39 761.77,-52.64 723.3,-41.04"/>
<polygon fill="#63b8ff" stroke="#63b8ff" points="849.94,-82.87 860.53,-82.41 851.96,-76.17 849.94,-82.87"/>
</a>
</g>
</g>
</g>
</svg>
