<?xml version="1.0" encoding="UTF-8" standalone="no"?>
<!DOCTYPE svg PUBLIC "-//W3C//DTD SVG 1.1//EN"
 "http://www.w3.org/Graphics/SVG/1.1/DTD/svg11.dtd">
<!-- Generated by graphviz version 2.43.0 (0)
 -->
<!-- Title: /home/runner/work/kynema&#45;sgf/kynema&#45;sgf/src/ocean_waves/relaxation_zones/StokesWaves.H Pages: 1 -->
<svg width="267pt" height="214pt"
 viewBox="0.00 0.00 266.50 214.00" xmlns="http://www.w3.org/2000/svg" xmlns:xlink="http://www.w3.org/1999/xlink">
<g id="graph0" class="graph" transform="scale(1 1) rotate(0) translate(4 210)">
<title>/home/runner/work/kynema&#45;sgf/kynema&#45;sgf/src/ocean_waves/relaxation_zones/StokesWaves.H</title>
<!-- Node1 -->
<g id="Node000001" class="node">
<title>Node1</title>
<g id="a_Node000001"><a xlink:title=" ">
<polygon fill="#999999" stroke="#666666" points="222.5,-206 4.5,-206 4.5,-165 222.5,-165 222.5,-206"/>
<text text-anchor="start" x="12.5" y="-194" font-family="Helvetica,sans-Serif" font-size="10.00">/home/runner/work/kynema</text>
<text text-anchor="start" x="12.5" y="-183" font-family="Helvetica,sans-Serif" font-size="10.00">&#45;sgf/kynema&#45;sgf/src/ocean</text>
<text text-anchor="middle" x="113.5" y="-172" font-family="Helvetica,sans-Serif" font-size="10.00">_waves/relaxation_zones/StokesWaves.H</text>
</a>
</g>
</g>
<!-- Node2 -->
<g id="Node000002" class="node">
<title>Node2</title>
<g id="a_Node000002"><a xlink:href="_stokes_waves_8cpp.html" target="_top" xlink:title=" ">
<polygon fill="white" stroke="#666666" points="227,-41 0,-41 0,0 227,0 227,-41"/>
<text text-anchor="start" x="8" y="-29" font-family="Helvetica,sans-Serif" font-size="10.00">/home/runner/work/kynema</text>
<text text-anchor="start" x="8" y="-18" font-family="Helvetica,sans-Serif" font-size="10.00">&#45;sgf/kynema&#45;sgf/src/ocean</text>
<text text-anchor="middle" x="113.5" y="-7" font-family="Helvetica,sans-Serif" font-size="10.00">_waves/relaxation_zones/StokesWaves.cpp</text>
</a>
</g>
</g>
<!-- Node1&#45;&gt;Node2 -->
<g id="edge1_Node000001_Node000002" class="edge">
<title>Node1&#45;&gt;Node2</title>
<g id="a_edge1_Node000001_Node000002"><a xlink:title=" ">
<path fill="none" stroke="#63b8ff" d="M89.73,-156.73C83.93,-148.35 78.52,-138.77 75.5,-129 68.67,-106.92 68.67,-99.08 75.5,-77 79.57,-63.84 87.97,-51.02 95.83,-41.02"/>
<polygon fill="#63b8ff" stroke="#63b8ff" points="87.07,-159.02 95.83,-164.98 92.7,-154.86 87.07,-159.02"/>
</a>
</g>
</g>
<!-- Node3 -->
<g id="Node000003" class="node">
<title>Node3</title>
<g id="a_Node000003"><a xlink:href="stokes__waves__ops_8_h.html" target="_top" xlink:title=" ">
<polygon fill="white" stroke="#666666" points="258.5,-129 84.5,-129 84.5,-77 258.5,-77 258.5,-129"/>
<text text-anchor="start" x="92.5" y="-117" font-family="Helvetica,sans-Serif" font-size="10.00">/home/runner/work/kynema</text>
<text text-anchor="start" x="92.5" y="-106" font-family="Helvetica,sans-Serif" font-size="10.00">&#45;sgf/kynema&#45;sgf/src/ocean</text>
<text text-anchor="start" x="92.5" y="-95" font-family="Helvetica,sans-Serif" font-size="10.00">_waves/relaxation_zones/stokes</text>
<text text-anchor="middle" x="171.5" y="-84" font-family="Helvetica,sans-Serif" font-size="10.00">_waves_ops.H</text>
</a>
</g>
</g>
<!-- Node1&#45;&gt;Node3 -->
<g id="edge2_Node000001_Node000003" class="edge">
<title>Node1&#45;&gt;Node3</title>
<g id="a_edge2_Node000001_Node000003"><a xlink:title=" ">
<path fill="none" stroke="#63b8ff" d="M133.73,-156.43C140.12,-147.55 147.14,-137.81 153.38,-129.16"/>
<polygon fill="#63b8ff" stroke="#63b8ff" points="130.84,-154.44 127.84,-164.6 136.52,-158.53 130.84,-154.44"/>
</a>
</g>
</g>
<!-- Node3&#45;&gt;Node2 -->
<g id="edge3_Node000003_Node000002" class="edge">
<title>Node3&#45;&gt;Node2</title>
<g id="a_edge3_Node000003_Node000002"><a xlink:title=" ">
<path fill="none" stroke="#63b8ff" d="M147.43,-68.6C140.7,-59.25 133.61,-49.41 127.65,-41.15"/>
<polygon fill="#63b8ff" stroke="#63b8ff" points="144.78,-70.9 153.47,-76.97 150.46,-66.81 144.78,-70.9"/>
</a>
</g>
</g>
</g>
</svg>
