<?xml version="1.0" encoding="UTF-8" standalone="no"?>
<!DOCTYPE svg PUBLIC "-//W3C//DTD SVG 1.1//EN"
 "http://www.w3.org/Graphics/SVG/1.1/DTD/svg11.dtd">
<!-- Generated by graphviz version 2.43.0 (0)
 -->
<!-- Title: /home/runner/work/kynema&#45;sgf/kynema&#45;sgf/src/turbulence/TurbModel.H Pages: 1 -->
<svg width="1702pt" height="368pt"
 viewBox="0.00 0.00 1702.00 368.00" xmlns="http://www.w3.org/2000/svg" xmlns:xlink="http://www.w3.org/1999/xlink">
<g id="graph0" class="graph" transform="scale(1 1) rotate(0) translate(4 364)">
<title>/home/runner/work/kynema&#45;sgf/kynema&#45;sgf/src/turbulence/TurbModel.H</title>
<!-- Node1 -->
<g id="Node000001" class="node">
<title>Node1</title>
<g id="a_Node000001"><a xlink:title=" ">
<polygon fill="#999999" stroke="#666666" points="540,-360 372,-360 372,-319 540,-319 540,-360"/>
<text text-anchor="start" x="380" y="-348" font-family="Helvetica,sans-Serif" font-size="10.00">/home/runner/work/kynema</text>
<text text-anchor="start" x="380" y="-337" font-family="Helvetica,sans-Serif" font-size="10.00">&#45;sgf/kynema&#45;sgf/src/turbulence</text>
<text text-anchor="middle" x="456" y="-326" font-family="Helvetica,sans-Serif" font-size="10.00">/TurbModel.H</text>
</a>
</g>
</g>
<!-- Node2 -->
<g id="Node000002" class="node">
<title>Node2</title>
<g id="a_Node000002"><a xlink:href="_laminar_model_8_h.html" target="_top" xlink:title=" ">
<polygon fill="white" stroke="#666666" points="447,-283 279,-283 279,-242 447,-242 447,-283"/>
<text text-anchor="start" x="287" y="-271" font-family="Helvetica,sans-Serif" font-size="10.00">/home/runner/work/kynema</text>
<text text-anchor="start" x="287" y="-260" font-family="Helvetica,sans-Serif" font-size="10.00">&#45;sgf/kynema&#45;sgf/src/turbulence</text>
<text text-anchor="middle" x="363" y="-249" font-family="Helvetica,sans-Serif" font-size="10.00">/LaminarModel.H</text>
</a>
</g>
</g>
<!-- Node1&#45;&gt;Node2 -->
<g id="edge1_Node000001_Node000002" class="edge">
<title>Node1&#45;&gt;Node2</title>
<g id="a_edge1_Node000001_Node000002"><a xlink:title=" ">
<path fill="none" stroke="#63b8ff" d="M423.57,-312.35C411.65,-302.73 398.36,-292.01 387.27,-283.07"/>
<polygon fill="#63b8ff" stroke="#63b8ff" points="421.58,-315.24 431.57,-318.79 425.98,-309.79 421.58,-315.24"/>
</a>
</g>
</g>
<!-- Node4 -->
<g id="Node000004" class="node">
<title>Node4</title>
<g id="a_Node000004"><a xlink:href="_turb_model_base_8_h.html" target="_top" xlink:title=" ">
<polygon fill="white" stroke="#666666" points="819,-283 651,-283 651,-242 819,-242 819,-283"/>
<text text-anchor="start" x="659" y="-271" font-family="Helvetica,sans-Serif" font-size="10.00">/home/runner/work/kynema</text>
<text text-anchor="start" x="659" y="-260" font-family="Helvetica,sans-Serif" font-size="10.00">&#45;sgf/kynema&#45;sgf/src/turbulence</text>
<text text-anchor="middle" x="735" y="-249" font-family="Helvetica,sans-Serif" font-size="10.00">/TurbModelBase.H</text>
</a>
</g>
</g>
<!-- Node1&#45;&gt;Node4 -->
<g id="edge3_Node000001_Node000004" class="edge">
<title>Node1&#45;&gt;Node4</title>
<g id="a_edge3_Node000001_Node000004"><a xlink:title=" ">
<path fill="none" stroke="#63b8ff" d="M538.4,-316.35C577.71,-305.78 624.33,-293.25 662.3,-283.04"/>
<polygon fill="#63b8ff" stroke="#63b8ff" points="537.32,-313.01 528.58,-318.99 539.14,-319.77 537.32,-313.01"/>
</a>
</g>
</g>
<!-- Node3 -->
<g id="Node000003" class="node">
<title>Node3</title>
<g id="a_Node000003"><a xlink:href="_laminar_model_8cpp.html" target="_top" xlink:title=" ">
<polygon fill="white" stroke="#666666" points="168,-206 0,-206 0,-165 168,-165 168,-206"/>
<text text-anchor="start" x="8" y="-194" font-family="Helvetica,sans-Serif" font-size="10.00">/home/runner/work/kynema</text>
<text text-anchor="start" x="8" y="-183" font-family="Helvetica,sans-Serif" font-size="10.00">&#45;sgf/kynema&#45;sgf/src/turbulence</text>
<text text-anchor="middle" x="84" y="-172" font-family="Helvetica,sans-Serif" font-size="10.00">/LaminarModel.cpp</text>
</a>
</g>
</g>
<!-- Node2&#45;&gt;Node3 -->
<g id="edge2_Node000002_Node000003" class="edge">
<title>Node2&#45;&gt;Node3</title>
<g id="a_edge2_Node000002_Node000003"><a xlink:title=" ">
<path fill="none" stroke="#63b8ff" d="M280.6,-239.35C241.29,-228.78 194.67,-216.25 156.7,-206.04"/>
<polygon fill="#63b8ff" stroke="#63b8ff" points="279.86,-242.77 290.42,-241.99 281.68,-236.01 279.86,-242.77"/>
</a>
</g>
</g>
<!-- Node5 -->
<g id="Node000005" class="node">
<title>Node5</title>
<g id="a_Node000005"><a xlink:href="_a_m_d_8_h.html" target="_top" xlink:title=" ">
<polygon fill="white" stroke="#666666" points="354,-206 186,-206 186,-165 354,-165 354,-206"/>
<text text-anchor="start" x="194" y="-194" font-family="Helvetica,sans-Serif" font-size="10.00">/home/runner/work/kynema</text>
<text text-anchor="start" x="194" y="-183" font-family="Helvetica,sans-Serif" font-size="10.00">&#45;sgf/kynema&#45;sgf/src/turbulence</text>
<text text-anchor="middle" x="270" y="-172" font-family="Helvetica,sans-Serif" font-size="10.00">/LES/AMD.H</text>
</a>
</g>
</g>
<!-- Node4&#45;&gt;Node5 -->
<g id="edge4_Node000004_Node000005" class="edge">
<title>Node4&#45;&gt;Node5</title>
<g id="a_edge4_Node000004_Node000005"><a xlink:title=" ">
<path fill="none" stroke="#63b8ff" d="M640.98,-249.02C565.62,-238.65 457.27,-222.9 363,-206 360.08,-205.48 357.11,-204.93 354.11,-204.37"/>
<polygon fill="#63b8ff" stroke="#63b8ff" points="640.54,-252.5 650.93,-250.39 641.49,-245.56 640.54,-252.5"/>
</a>
</g>
</g>
<!-- Node7 -->
<g id="Node000007" class="node">
<title>Node7</title>
<g id="a_Node000007"><a xlink:href="_a_m_d_no_therm_8_h.html" target="_top" xlink:title=" ">
<polygon fill="white" stroke="#666666" points="540,-206 372,-206 372,-165 540,-165 540,-206"/>
<text text-anchor="start" x="380" y="-194" font-family="Helvetica,sans-Serif" font-size="10.00">/home/runner/work/kynema</text>
<text text-anchor="start" x="380" y="-183" font-family="Helvetica,sans-Serif" font-size="10.00">&#45;sgf/kynema&#45;sgf/src/turbulence</text>
<text text-anchor="middle" x="456" y="-172" font-family="Helvetica,sans-Serif" font-size="10.00">/LES/AMDNoTherm.H</text>
</a>
</g>
</g>
<!-- Node4&#45;&gt;Node7 -->
<g id="edge6_Node000004_Node000007" class="edge">
<title>Node4&#45;&gt;Node7</title>
<g id="a_edge6_Node000004_Node000007"><a xlink:title=" ">
<path fill="none" stroke="#63b8ff" d="M652.6,-239.35C613.29,-228.78 566.67,-216.25 528.7,-206.04"/>
<polygon fill="#63b8ff" stroke="#63b8ff" points="651.86,-242.77 662.42,-241.99 653.68,-236.01 651.86,-242.77"/>
</a>
</g>
</g>
<!-- Node9 -->
<g id="Node000009" class="node">
<title>Node9</title>
<g id="a_Node000009"><a xlink:href="_kosovic_8_h.html" target="_top" xlink:title=" ">
<polygon fill="white" stroke="#666666" points="726,-206 558,-206 558,-165 726,-165 726,-206"/>
<text text-anchor="start" x="566" y="-194" font-family="Helvetica,sans-Serif" font-size="10.00">/home/runner/work/kynema</text>
<text text-anchor="start" x="566" y="-183" font-family="Helvetica,sans-Serif" font-size="10.00">&#45;sgf/kynema&#45;sgf/src/turbulence</text>
<text text-anchor="middle" x="642" y="-172" font-family="Helvetica,sans-Serif" font-size="10.00">/LES/Kosovic.H</text>
</a>
</g>
</g>
<!-- Node4&#45;&gt;Node9 -->
<g id="edge8_Node000004_Node000009" class="edge">
<title>Node4&#45;&gt;Node9</title>
<g id="a_edge8_Node000004_Node000009"><a xlink:title=" ">
<path fill="none" stroke="#63b8ff" d="M702.57,-235.35C690.65,-225.73 677.36,-215.01 666.27,-206.07"/>
<polygon fill="#63b8ff" stroke="#63b8ff" points="700.58,-238.24 710.57,-241.79 704.98,-232.79 700.58,-238.24"/>
</a>
</g>
</g>
<!-- Node12 -->
<g id="Node000012" class="node">
<title>Node12</title>
<g id="a_Node000012"><a xlink:href="_one_eq_ksgs_8_h.html" target="_top" xlink:title=" ">
<polygon fill="white" stroke="#666666" points="912,-206 744,-206 744,-165 912,-165 912,-206"/>
<text text-anchor="start" x="752" y="-194" font-family="Helvetica,sans-Serif" font-size="10.00">/home/runner/work/kynema</text>
<text text-anchor="start" x="752" y="-183" font-family="Helvetica,sans-Serif" font-size="10.00">&#45;sgf/kynema&#45;sgf/src/turbulence</text>
<text text-anchor="middle" x="828" y="-172" font-family="Helvetica,sans-Serif" font-size="10.00">/LES/OneEqKsgs.H</text>
</a>
</g>
</g>
<!-- Node4&#45;&gt;Node12 -->
<g id="edge11_Node000004_Node000012" class="edge">
<title>Node4&#45;&gt;Node12</title>
<g id="a_edge11_Node000004_Node000012"><a xlink:title=" ">
<path fill="none" stroke="#63b8ff" d="M767.43,-235.35C779.35,-225.73 792.64,-215.01 803.73,-206.07"/>
<polygon fill="#63b8ff" stroke="#63b8ff" points="765.02,-232.79 759.43,-241.79 769.42,-238.24 765.02,-232.79"/>
</a>
</g>
</g>
<!-- Node14 -->
<g id="Node000014" class="node">
<title>Node14</title>
<g id="a_Node000014"><a xlink:href="_smagorinsky_8_h.html" target="_top" xlink:title=" ">
<polygon fill="white" stroke="#666666" points="1098,-206 930,-206 930,-165 1098,-165 1098,-206"/>
<text text-anchor="start" x="938" y="-194" font-family="Helvetica,sans-Serif" font-size="10.00">/home/runner/work/kynema</text>
<text text-anchor="start" x="938" y="-183" font-family="Helvetica,sans-Serif" font-size="10.00">&#45;sgf/kynema&#45;sgf/src/turbulence</text>
<text text-anchor="middle" x="1014" y="-172" font-family="Helvetica,sans-Serif" font-size="10.00">/LES/Smagorinsky.H</text>
</a>
</g>
</g>
<!-- Node4&#45;&gt;Node14 -->
<g id="edge13_Node000004_Node000014" class="edge">
<title>Node4&#45;&gt;Node14</title>
<g id="a_edge13_Node000004_Node000014"><a xlink:title=" ">
<path fill="none" stroke="#63b8ff" d="M817.4,-239.35C856.71,-228.78 903.33,-216.25 941.3,-206.04"/>
<polygon fill="#63b8ff" stroke="#63b8ff" points="816.32,-236.01 807.58,-241.99 818.14,-242.77 816.32,-236.01"/>
</a>
</g>
</g>
<!-- Node16 -->
<g id="Node000016" class="node">
<title>Node16</title>
<g id="a_Node000016"><a xlink:href="_k_l_axell_8_h.html" target="_top" xlink:title=" ">
<polygon fill="white" stroke="#666666" points="1284,-206 1116,-206 1116,-165 1284,-165 1284,-206"/>
<text text-anchor="start" x="1124" y="-194" font-family="Helvetica,sans-Serif" font-size="10.00">/home/runner/work/kynema</text>
<text text-anchor="start" x="1124" y="-183" font-family="Helvetica,sans-Serif" font-size="10.00">&#45;sgf/kynema&#45;sgf/src/turbulence</text>
<text text-anchor="middle" x="1200" y="-172" font-family="Helvetica,sans-Serif" font-size="10.00">/RANS/KLAxell.H</text>
</a>
</g>
</g>
<!-- Node4&#45;&gt;Node16 -->
<g id="edge15_Node000004_Node000016" class="edge">
<title>Node4&#45;&gt;Node16</title>
<g id="a_edge15_Node000004_Node000016"><a xlink:title=" ">
<path fill="none" stroke="#63b8ff" d="M829.02,-249.02C904.38,-238.65 1012.73,-222.9 1107,-206 1109.92,-205.48 1112.89,-204.93 1115.89,-204.37"/>
<polygon fill="#63b8ff" stroke="#63b8ff" points="828.51,-245.56 819.07,-250.39 829.46,-252.5 828.51,-245.56"/>
</a>
</g>
</g>
<!-- Node18 -->
<g id="Node000018" class="node">
<title>Node18</title>
<g id="a_Node000018"><a xlink:href="_k_omega_s_s_t_8_h.html" target="_top" xlink:title=" ">
<polygon fill="white" stroke="#666666" points="1489,-206 1321,-206 1321,-165 1489,-165 1489,-206"/>
<text text-anchor="start" x="1329" y="-194" font-family="Helvetica,sans-Serif" font-size="10.00">/home/runner/work/kynema</text>
<text text-anchor="start" x="1329" y="-183" font-family="Helvetica,sans-Serif" font-size="10.00">&#45;sgf/kynema&#45;sgf/src/turbulence</text>
<text text-anchor="middle" x="1405" y="-172" font-family="Helvetica,sans-Serif" font-size="10.00">/RANS/KOmegaSST.H</text>
</a>
</g>
</g>
<!-- Node4&#45;&gt;Node18 -->
<g id="edge17_Node000004_Node000018" class="edge">
<title>Node4&#45;&gt;Node18</title>
<g id="a_edge17_Node000004_Node000018"><a xlink:title=" ">
<path fill="none" stroke="#63b8ff" d="M829.54,-254.22C940.72,-245.17 1130.71,-228.17 1293,-206 1302,-204.77 1311.37,-203.35 1320.71,-201.86"/>
<polygon fill="#63b8ff" stroke="#63b8ff" points="829.05,-250.75 819.36,-255.05 829.61,-257.73 829.05,-250.75"/>
</a>
</g>
</g>
<!-- Node6 -->
<g id="Node000006" class="node">
<title>Node6</title>
<g id="a_Node000006"><a xlink:href="_a_m_d_8cpp.html" target="_top" xlink:title=" ">
<polygon fill="white" stroke="#666666" points="178,-123.5 10,-123.5 10,-82.5 178,-82.5 178,-123.5"/>
<text text-anchor="start" x="18" y="-111.5" font-family="Helvetica,sans-Serif" font-size="10.00">/home/runner/work/kynema</text>
<text text-anchor="start" x="18" y="-100.5" font-family="Helvetica,sans-Serif" font-size="10.00">&#45;sgf/kynema&#45;sgf/src/turbulence</text>
<text text-anchor="middle" x="94" y="-89.5" font-family="Helvetica,sans-Serif" font-size="10.00">/LES/AMD.cpp</text>
</a>
</g>
</g>
<!-- Node5&#45;&gt;Node6 -->
<g id="edge5_Node000005_Node000006" class="edge">
<title>Node5&#45;&gt;Node6</title>
<g id="a_edge5_Node000005_Node000006"><a xlink:title=" ">
<path fill="none" stroke="#63b8ff" d="M217.7,-160.58C191.94,-148.8 161.27,-134.77 136.91,-123.63"/>
<polygon fill="#63b8ff" stroke="#63b8ff" points="216.4,-163.83 226.95,-164.81 219.31,-157.47 216.4,-163.83"/>
</a>
</g>
</g>
<!-- Node8 -->
<g id="Node000008" class="node">
<title>Node8</title>
<g id="a_Node000008"><a xlink:href="_a_m_d_no_therm_8cpp.html" target="_top" xlink:title=" ">
<polygon fill="white" stroke="#666666" points="364,-123.5 196,-123.5 196,-82.5 364,-82.5 364,-123.5"/>
<text text-anchor="start" x="204" y="-111.5" font-family="Helvetica,sans-Serif" font-size="10.00">/home/runner/work/kynema</text>
<text text-anchor="start" x="204" y="-100.5" font-family="Helvetica,sans-Serif" font-size="10.00">&#45;sgf/kynema&#45;sgf/src/turbulence</text>
<text text-anchor="middle" x="280" y="-89.5" font-family="Helvetica,sans-Serif" font-size="10.00">/LES/AMDNoTherm.cpp</text>
</a>
</g>
</g>
<!-- Node7&#45;&gt;Node8 -->
<g id="edge7_Node000007_Node000008" class="edge">
<title>Node7&#45;&gt;Node8</title>
<g id="a_edge7_Node000007_Node000008"><a xlink:title=" ">
<path fill="none" stroke="#63b8ff" d="M403.7,-160.58C377.94,-148.8 347.27,-134.77 322.91,-123.63"/>
<polygon fill="#63b8ff" stroke="#63b8ff" points="402.4,-163.83 412.95,-164.81 405.31,-157.47 402.4,-163.83"/>
</a>
</g>
</g>
<!-- Node10 -->
<g id="Node000010" class="node">
<title>Node10</title>
<g id="a_Node000010"><a xlink:href="_non_linear_s_g_s_term_8cpp.html" target="_top" xlink:title=" ">
<polygon fill="white" stroke="#666666" points="540.5,-129 381.5,-129 381.5,-77 540.5,-77 540.5,-129"/>
<text text-anchor="start" x="389.5" y="-117" font-family="Helvetica,sans-Serif" font-size="10.00">/home/runner/work/kynema</text>
<text text-anchor="start" x="389.5" y="-106" font-family="Helvetica,sans-Serif" font-size="10.00">&#45;sgf/kynema&#45;sgf/src/equation</text>
<text text-anchor="start" x="389.5" y="-95" font-family="Helvetica,sans-Serif" font-size="10.00">_systems/icns/source_terms</text>
<text text-anchor="middle" x="461" y="-84" font-family="Helvetica,sans-Serif" font-size="10.00">/NonLinearSGSTerm.cpp</text>
</a>
</g>
</g>
<!-- Node9&#45;&gt;Node10 -->
<g id="edge9_Node000009_Node000010" class="edge">
<title>Node9&#45;&gt;Node10</title>
<g id="a_edge9_Node000009_Node000010"><a xlink:title=" ">
<path fill="none" stroke="#63b8ff" d="M588.39,-160.66C566.07,-150.73 540.12,-139.19 517.5,-129.13"/>
<polygon fill="#63b8ff" stroke="#63b8ff" points="587.16,-163.94 597.72,-164.81 590.01,-157.55 587.16,-163.94"/>
</a>
</g>
</g>
<!-- Node11 -->
<g id="Node000011" class="node">
<title>Node11</title>
<g id="a_Node000011"><a xlink:href="_kosovic_8cpp.html" target="_top" xlink:title=" ">
<polygon fill="white" stroke="#666666" points="726,-123.5 558,-123.5 558,-82.5 726,-82.5 726,-123.5"/>
<text text-anchor="start" x="566" y="-111.5" font-family="Helvetica,sans-Serif" font-size="10.00">/home/runner/work/kynema</text>
<text text-anchor="start" x="566" y="-100.5" font-family="Helvetica,sans-Serif" font-size="10.00">&#45;sgf/kynema&#45;sgf/src/turbulence</text>
<text text-anchor="middle" x="642" y="-89.5" font-family="Helvetica,sans-Serif" font-size="10.00">/LES/Kosovic.cpp</text>
</a>
</g>
</g>
<!-- Node9&#45;&gt;Node11 -->
<g id="edge10_Node000009_Node000011" class="edge">
<title>Node9&#45;&gt;Node11</title>
<g id="a_edge10_Node000009_Node000011"><a xlink:title=" ">
<path fill="none" stroke="#63b8ff" d="M642,-154.37C642,-144.1 642,-132.9 642,-123.67"/>
<polygon fill="#63b8ff" stroke="#63b8ff" points="638.5,-154.6 642,-164.6 645.5,-154.6 638.5,-154.6"/>
</a>
</g>
</g>
<!-- Node13 -->
<g id="Node000013" class="node">
<title>Node13</title>
<g id="a_Node000013"><a xlink:href="_one_eq_ksgs_8cpp.html" target="_top" xlink:title=" ">
<polygon fill="white" stroke="#666666" points="912,-123.5 744,-123.5 744,-82.5 912,-82.5 912,-123.5"/>
<text text-anchor="start" x="752" y="-111.5" font-family="Helvetica,sans-Serif" font-size="10.00">/home/runner/work/kynema</text>
<text text-anchor="start" x="752" y="-100.5" font-family="Helvetica,sans-Serif" font-size="10.00">&#45;sgf/kynema&#45;sgf/src/turbulence</text>
<text text-anchor="middle" x="828" y="-89.5" font-family="Helvetica,sans-Serif" font-size="10.00">/LES/OneEqKsgs.cpp</text>
</a>
</g>
</g>
<!-- Node12&#45;&gt;Node13 -->
<g id="edge12_Node000012_Node000013" class="edge">
<title>Node12&#45;&gt;Node13</title>
<g id="a_edge12_Node000012_Node000013"><a xlink:title=" ">
<path fill="none" stroke="#63b8ff" d="M828,-154.37C828,-144.1 828,-132.9 828,-123.67"/>
<polygon fill="#63b8ff" stroke="#63b8ff" points="824.5,-154.6 828,-164.6 831.5,-154.6 824.5,-154.6"/>
</a>
</g>
</g>
<!-- Node15 -->
<g id="Node000015" class="node">
<title>Node15</title>
<g id="a_Node000015"><a xlink:href="_smagorinsky_8cpp.html" target="_top" xlink:title=" ">
<polygon fill="white" stroke="#666666" points="1098,-123.5 930,-123.5 930,-82.5 1098,-82.5 1098,-123.5"/>
<text text-anchor="start" x="938" y="-111.5" font-family="Helvetica,sans-Serif" font-size="10.00">/home/runner/work/kynema</text>
<text text-anchor="start" x="938" y="-100.5" font-family="Helvetica,sans-Serif" font-size="10.00">&#45;sgf/kynema&#45;sgf/src/turbulence</text>
<text text-anchor="middle" x="1014" y="-89.5" font-family="Helvetica,sans-Serif" font-size="10.00">/LES/Smagorinsky.cpp</text>
</a>
</g>
</g>
<!-- Node14&#45;&gt;Node15 -->
<g id="edge14_Node000014_Node000015" class="edge">
<title>Node14&#45;&gt;Node15</title>
<g id="a_edge14_Node000014_Node000015"><a xlink:title=" ">
<path fill="none" stroke="#63b8ff" d="M1014,-154.37C1014,-144.1 1014,-132.9 1014,-123.67"/>
<polygon fill="#63b8ff" stroke="#63b8ff" points="1010.5,-154.6 1014,-164.6 1017.5,-154.6 1010.5,-154.6"/>
</a>
</g>
</g>
<!-- Node17 -->
<g id="Node000017" class="node">
<title>Node17</title>
<g id="a_Node000017"><a xlink:href="_k_l_axell_8cpp.html" target="_top" xlink:title=" ">
<polygon fill="white" stroke="#666666" points="1284,-123.5 1116,-123.5 1116,-82.5 1284,-82.5 1284,-123.5"/>
<text text-anchor="start" x="1124" y="-111.5" font-family="Helvetica,sans-Serif" font-size="10.00">/home/runner/work/kynema</text>
<text text-anchor="start" x="1124" y="-100.5" font-family="Helvetica,sans-Serif" font-size="10.00">&#45;sgf/kynema&#45;sgf/src/turbulence</text>
<text text-anchor="middle" x="1200" y="-89.5" font-family="Helvetica,sans-Serif" font-size="10.00">/RANS/KLAxell.cpp</text>
</a>
</g>
</g>
<!-- Node16&#45;&gt;Node17 -->
<g id="edge16_Node000016_Node000017" class="edge">
<title>Node16&#45;&gt;Node17</title>
<g id="a_edge16_Node000016_Node000017"><a xlink:title=" ">
<path fill="none" stroke="#63b8ff" d="M1200,-154.37C1200,-144.1 1200,-132.9 1200,-123.67"/>
<polygon fill="#63b8ff" stroke="#63b8ff" points="1196.5,-154.6 1200,-164.6 1203.5,-154.6 1196.5,-154.6"/>
</a>
</g>
</g>
<!-- Node19 -->
<g id="Node000019" class="node">
<title>Node19</title>
<g id="a_Node000019"><a xlink:href="_k_omega_s_s_t_8cpp.html" target="_top" xlink:title=" ">
<polygon fill="white" stroke="#666666" points="1452,-41 1284,-41 1284,0 1452,0 1452,-41"/>
<text text-anchor="start" x="1292" y="-29" font-family="Helvetica,sans-Serif" font-size="10.00">/home/runner/work/kynema</text>
<text text-anchor="start" x="1292" y="-18" font-family="Helvetica,sans-Serif" font-size="10.00">&#45;sgf/kynema&#45;sgf/src/turbulence</text>
<text text-anchor="middle" x="1368" y="-7" font-family="Helvetica,sans-Serif" font-size="10.00">/RANS/KOmegaSST.cpp</text>
</a>
</g>
</g>
<!-- Node18&#45;&gt;Node19 -->
<g id="edge18_Node000018_Node000019" class="edge">
<title>Node18&#45;&gt;Node19</title>
<g id="a_edge18_Node000018_Node000019"><a xlink:title=" ">
<path fill="none" stroke="#63b8ff" d="M1357.41,-159.02C1346.81,-150.92 1336.95,-140.9 1331,-129 1320.66,-108.33 1324.3,-99.12 1331,-77 1334.96,-63.92 1343.13,-51.11 1350.79,-41.09"/>
<polygon fill="#63b8ff" stroke="#63b8ff" points="1355.43,-161.9 1365.62,-164.84 1359.48,-156.2 1355.43,-161.9"/>
</a>
</g>
</g>
<!-- Node20 -->
<g id="Node000020" class="node">
<title>Node20</title>
<g id="a_Node000020"><a xlink:href="_k_omega_s_s_t_i_8_h.html" target="_top" xlink:title=" ">
<polygon fill="white" stroke="#666666" points="1508,-123.5 1340,-123.5 1340,-82.5 1508,-82.5 1508,-123.5"/>
<text text-anchor="start" x="1348" y="-111.5" font-family="Helvetica,sans-Serif" font-size="10.00">/home/runner/work/kynema</text>
<text text-anchor="start" x="1348" y="-100.5" font-family="Helvetica,sans-Serif" font-size="10.00">&#45;sgf/kynema&#45;sgf/src/turbulence</text>
<text text-anchor="middle" x="1424" y="-89.5" font-family="Helvetica,sans-Serif" font-size="10.00">/RANS/KOmegaSSTI.H</text>
</a>
</g>
</g>
<!-- Node18&#45;&gt;Node20 -->
<g id="edge19_Node000018_Node000020" class="edge">
<title>Node18&#45;&gt;Node20</title>
<g id="a_edge19_Node000018_Node000020"><a xlink:title=" ">
<path fill="none" stroke="#63b8ff" d="M1412.04,-154.69C1414.48,-144.34 1417.16,-133 1419.36,-123.67"/>
<polygon fill="#63b8ff" stroke="#63b8ff" points="1408.59,-154.06 1409.7,-164.6 1415.4,-155.67 1408.59,-154.06"/>
</a>
</g>
</g>
<!-- Node22 -->
<g id="Node000022" class="node">
<title>Node22</title>
<g id="a_Node000022"><a xlink:href="_k_omega_s_s_t_i_d_d_e_s_8_h.html" target="_top" xlink:title=" ">
<polygon fill="white" stroke="#666666" points="1694,-123.5 1526,-123.5 1526,-82.5 1694,-82.5 1694,-123.5"/>
<text text-anchor="start" x="1534" y="-111.5" font-family="Helvetica,sans-Serif" font-size="10.00">/home/runner/work/kynema</text>
<text text-anchor="start" x="1534" y="-100.5" font-family="Helvetica,sans-Serif" font-size="10.00">&#45;sgf/kynema&#45;sgf/src/turbulence</text>
<text text-anchor="middle" x="1610" y="-89.5" font-family="Helvetica,sans-Serif" font-size="10.00">/RANS/KOmegaSSTIDDES.H</text>
</a>
</g>
</g>
<!-- Node18&#45;&gt;Node22 -->
<g id="edge22_Node000018_Node000022" class="edge">
<title>Node18&#45;&gt;Node22</title>
<g id="a_edge22_Node000018_Node000022"><a xlink:title=" ">
<path fill="none" stroke="#63b8ff" d="M1464.51,-161.13C1494.88,-149.21 1531.39,-134.87 1560.25,-123.54"/>
<polygon fill="#63b8ff" stroke="#63b8ff" points="1462.92,-158 1454.89,-164.91 1465.47,-164.51 1462.92,-158"/>
</a>
</g>
</g>
<!-- Node20&#45;&gt;Node19 -->
<g id="edge20_Node000020_Node000019" class="edge">
<title>Node20&#45;&gt;Node19</title>
<g id="a_edge20_Node000020_Node000019"><a xlink:title=" ">
<path fill="none" stroke="#63b8ff" d="M1404.38,-73.8C1396.89,-63.02 1388.51,-50.98 1381.68,-41.17"/>
<polygon fill="#63b8ff" stroke="#63b8ff" points="1401.57,-75.89 1410.16,-82.1 1407.32,-71.89 1401.57,-75.89"/>
</a>
</g>
</g>
<!-- Node21 -->
<g id="Node000021" class="node">
<title>Node21</title>
<g id="a_Node000021"><a xlink:href="_k_omega_s_s_t_i_d_d_e_s_8cpp.html" target="_top" xlink:title=" ">
<polygon fill="white" stroke="#666666" points="1666,-41 1498,-41 1498,0 1666,0 1666,-41"/>
<text text-anchor="start" x="1506" y="-29" font-family="Helvetica,sans-Serif" font-size="10.00">/home/runner/work/kynema</text>
<text text-anchor="start" x="1506" y="-18" font-family="Helvetica,sans-Serif" font-size="10.00">&#45;sgf/kynema&#45;sgf/src/turbulence</text>
<text text-anchor="middle" x="1582" y="-7" font-family="Helvetica,sans-Serif" font-size="10.00">/RANS/KOmegaSSTIDDES.cpp</text>
</a>
</g>
</g>
<!-- Node20&#45;&gt;Node21 -->
<g id="edge21_Node000020_Node000021" class="edge">
<title>Node20&#45;&gt;Node21</title>
<g id="a_edge21_Node000020_Node000021"><a xlink:title=" ">
<path fill="none" stroke="#63b8ff" d="M1471.56,-77.77C1494.56,-66.05 1521.8,-52.17 1543.47,-41.13"/>
<polygon fill="#63b8ff" stroke="#63b8ff" points="1469.97,-74.65 1462.65,-82.31 1473.15,-80.89 1469.97,-74.65"/>
</a>
</g>
</g>
<!-- Node22&#45;&gt;Node21 -->
<g id="edge23_Node000022_Node000021" class="edge">
<title>Node22&#45;&gt;Node21</title>
<g id="a_edge23_Node000022_Node000021"><a xlink:title=" ">
<path fill="none" stroke="#63b8ff" d="M1599.74,-72.51C1596.11,-62.07 1592.12,-50.59 1588.84,-41.17"/>
<polygon fill="#63b8ff" stroke="#63b8ff" points="1596.49,-73.81 1603.08,-82.1 1603.1,-71.51 1596.49,-73.81"/>
</a>
</g>
</g>
</g>
</svg>
