<?xml version="1.0" encoding="UTF-8" standalone="no"?>
<!DOCTYPE svg PUBLIC "-//W3C//DTD SVG 1.1//EN"
 "http://www.w3.org/Graphics/SVG/1.1/DTD/svg11.dtd">
<!-- Generated by graphviz version 2.43.0 (0)
 -->
<!-- Title: /home/runner/work/kynema&#45;sgf/kynema&#45;sgf/src/wind_energy/actuator/actuator_opsI.H Pages: 1 -->
<svg width="1676pt" height="478pt"
 viewBox="0.00 0.00 1675.50 478.00" xmlns="http://www.w3.org/2000/svg" xmlns:xlink="http://www.w3.org/1999/xlink">
<g id="graph0" class="graph" transform="scale(1 1) rotate(0) translate(4 474)">
<title>/home/runner/work/kynema&#45;sgf/kynema&#45;sgf/src/wind_energy/actuator/actuator_opsI.H</title>
<!-- Node1 -->
<g id="Node000001" class="node">
<title>Node1</title>
<g id="a_Node000001"><a xlink:title=" ">
<polygon fill="#999999" stroke="#666666" points="1109.5,-470 930.5,-470 930.5,-429 1109.5,-429 1109.5,-470"/>
<text text-anchor="start" x="938.5" y="-458" font-family="Helvetica,sans-Serif" font-size="10.00">/home/runner/work/kynema</text>
<text text-anchor="start" x="938.5" y="-447" font-family="Helvetica,sans-Serif" font-size="10.00">&#45;sgf/kynema&#45;sgf/src/wind</text>
<text text-anchor="middle" x="1020" y="-436" font-family="Helvetica,sans-Serif" font-size="10.00">_energy/actuator/actuator_opsI.H</text>
</a>
</g>
</g>
<!-- Node2 -->
<g id="Node000002" class="node">
<title>Node2</title>
<g id="a_Node000002"><a xlink:href="actuator__ops_8_h.html" target="_top" xlink:title=" ">
<polygon fill="white" stroke="#666666" points="1108,-393 932,-393 932,-352 1108,-352 1108,-393"/>
<text text-anchor="start" x="940" y="-381" font-family="Helvetica,sans-Serif" font-size="10.00">/home/runner/work/kynema</text>
<text text-anchor="start" x="940" y="-370" font-family="Helvetica,sans-Serif" font-size="10.00">&#45;sgf/kynema&#45;sgf/src/wind</text>
<text text-anchor="middle" x="1020" y="-359" font-family="Helvetica,sans-Serif" font-size="10.00">_energy/actuator/actuator_ops.H</text>
</a>
</g>
</g>
<!-- Node1&#45;&gt;Node2 -->
<g id="edge1_Node000001_Node000002" class="edge">
<title>Node1&#45;&gt;Node2</title>
<g id="a_edge1_Node000001_Node000002"><a xlink:title=" ">
<path fill="none" stroke="#63b8ff" d="M1020,-418.69C1020,-410.08 1020,-400.9 1020,-393.07"/>
<polygon fill="#63b8ff" stroke="#63b8ff" points="1016.5,-418.79 1020,-428.79 1023.5,-418.79 1016.5,-418.79"/>
</a>
</g>
</g>
<!-- Node3 -->
<g id="Node000003" class="node">
<title>Node3</title>
<g id="a_Node000003"><a xlink:href="_act_src_line_op_8_h.html" target="_top" xlink:title=" ">
<polygon fill="white" stroke="#666666" points="616.5,-310.5 439.5,-310.5 439.5,-269.5 616.5,-269.5 616.5,-310.5"/>
<text text-anchor="start" x="447.5" y="-298.5" font-family="Helvetica,sans-Serif" font-size="10.00">/home/runner/work/kynema</text>
<text text-anchor="start" x="447.5" y="-287.5" font-family="Helvetica,sans-Serif" font-size="10.00">&#45;sgf/kynema&#45;sgf/src/wind</text>
<text text-anchor="middle" x="528" y="-276.5" font-family="Helvetica,sans-Serif" font-size="10.00">_energy/actuator/ActSrcLineOp.H</text>
</a>
</g>
</g>
<!-- Node2&#45;&gt;Node3 -->
<g id="edge2_Node000002_Node000003" class="edge">
<title>Node2&#45;&gt;Node3</title>
<g id="a_edge2_Node000002_Node000003"><a xlink:title=" ">
<path fill="none" stroke="#63b8ff" d="M921.73,-360.25C842.59,-350.53 728.68,-335.07 630,-316 621.59,-314.37 612.82,-312.5 604.12,-310.53"/>
<polygon fill="#63b8ff" stroke="#63b8ff" points="921.33,-363.73 931.68,-361.46 922.18,-356.78 921.33,-363.73"/>
</a>
</g>
</g>
<!-- Node4 -->
<g id="Node000004" class="node">
<title>Node4</title>
<g id="a_Node000004"><a xlink:href="_actuator_model_8_h.html" target="_top" xlink:title=" ">
<polygon fill="white" stroke="#666666" points="916,-222.5 732,-222.5 732,-181.5 916,-181.5 916,-222.5"/>
<text text-anchor="start" x="740" y="-210.5" font-family="Helvetica,sans-Serif" font-size="10.00">/home/runner/work/kynema</text>
<text text-anchor="start" x="740" y="-199.5" font-family="Helvetica,sans-Serif" font-size="10.00">&#45;sgf/kynema&#45;sgf/src/wind</text>
<text text-anchor="middle" x="824" y="-188.5" font-family="Helvetica,sans-Serif" font-size="10.00">_energy/actuator/ActuatorModel.H</text>
</a>
</g>
</g>
<!-- Node2&#45;&gt;Node4 -->
<g id="edge13_Node000002_Node000004" class="edge">
<title>Node2&#45;&gt;Node4</title>
<g id="a_edge13_Node000002_Node000004"><a xlink:title=" ">
<path fill="none" stroke="#63b8ff" d="M921.53,-370.05C827.6,-366.32 695.73,-354.21 663,-316 647.97,-298.45 649.87,-283.02 663,-264 679.05,-240.76 705.19,-226.36 731.78,-217.45"/>
<polygon fill="#63b8ff" stroke="#63b8ff" points="921.51,-373.55 931.64,-370.42 921.77,-366.55 921.51,-373.55"/>
</a>
</g>
</g>
<!-- Node14 -->
<g id="Node000014" class="node">
<title>Node14</title>
<g id="a_Node000014"><a xlink:href="_act_src_disk_op_8_h.html" target="_top" xlink:title=" ">
<polygon fill="white" stroke="#666666" points="874,-310.5 672,-310.5 672,-269.5 874,-269.5 874,-310.5"/>
<text text-anchor="start" x="680" y="-298.5" font-family="Helvetica,sans-Serif" font-size="10.00">/home/runner/work/kynema</text>
<text text-anchor="start" x="680" y="-287.5" font-family="Helvetica,sans-Serif" font-size="10.00">&#45;sgf/kynema&#45;sgf/src/wind</text>
<text text-anchor="middle" x="773" y="-276.5" font-family="Helvetica,sans-Serif" font-size="10.00">_energy/actuator/disk/ActSrcDiskOp.H</text>
</a>
</g>
</g>
<!-- Node2&#45;&gt;Node14 -->
<g id="edge14_Node000002_Node000014" class="edge">
<title>Node2&#45;&gt;Node14</title>
<g id="a_edge14_Node000002_Node000014"><a xlink:title=" ">
<path fill="none" stroke="#63b8ff" d="M950.19,-348.75C913.23,-336.7 868.31,-322.06 832.95,-310.54"/>
<polygon fill="#63b8ff" stroke="#63b8ff" points="949.3,-352.14 959.89,-351.91 951.47,-345.48 949.3,-352.14"/>
</a>
</g>
</g>
<!-- Node15 -->
<g id="Node000015" class="node">
<title>Node15</title>
<g id="a_Node000015"><a xlink:href="disk__ops_8_h.html" target="_top" xlink:title=" ">
<polygon fill="white" stroke="#666666" points="421.5,-310.5 242.5,-310.5 242.5,-269.5 421.5,-269.5 421.5,-310.5"/>
<text text-anchor="start" x="250.5" y="-298.5" font-family="Helvetica,sans-Serif" font-size="10.00">/home/runner/work/kynema</text>
<text text-anchor="start" x="250.5" y="-287.5" font-family="Helvetica,sans-Serif" font-size="10.00">&#45;sgf/kynema&#45;sgf/src/wind</text>
<text text-anchor="middle" x="332" y="-276.5" font-family="Helvetica,sans-Serif" font-size="10.00">_energy/actuator/disk/disk_ops.H</text>
</a>
</g>
</g>
<!-- Node2&#45;&gt;Node15 -->
<g id="edge16_Node000002_Node000015" class="edge">
<title>Node2&#45;&gt;Node15</title>
<g id="a_edge16_Node000002_Node000015"><a xlink:title=" ">
<path fill="none" stroke="#63b8ff" d="M921.91,-366.96C804.32,-360.44 601.63,-345.78 430,-316 421.26,-314.48 412.16,-312.59 403.17,-310.54"/>
<polygon fill="#63b8ff" stroke="#63b8ff" points="921.79,-370.46 931.97,-367.51 922.17,-363.47 921.79,-370.46"/>
</a>
</g>
</g>
<!-- Node21 -->
<g id="Node000021" class="node">
<title>Node21</title>
<g id="a_Node000021"><a xlink:href="_act_src_disk_op___turbine_8_h.html" target="_top" xlink:title=" ">
<polygon fill="white" stroke="#666666" points="1043.5,-316 892.5,-316 892.5,-264 1043.5,-264 1043.5,-316"/>
<text text-anchor="start" x="900.5" y="-304" font-family="Helvetica,sans-Serif" font-size="10.00">/home/runner/work/kynema</text>
<text text-anchor="start" x="900.5" y="-293" font-family="Helvetica,sans-Serif" font-size="10.00">&#45;sgf/kynema&#45;sgf/src/wind</text>
<text text-anchor="start" x="900.5" y="-282" font-family="Helvetica,sans-Serif" font-size="10.00">_energy/actuator/turbine</text>
<text text-anchor="middle" x="968" y="-271" font-family="Helvetica,sans-Serif" font-size="10.00">/ActSrcDiskOp_Turbine.H</text>
</a>
</g>
</g>
<!-- Node2&#45;&gt;Node21 -->
<g id="edge25_Node000002_Node000021" class="edge">
<title>Node2&#45;&gt;Node21</title>
<g id="a_edge25_Node000002_Node000021"><a xlink:title=" ">
<path fill="none" stroke="#63b8ff" d="M1001.69,-343.15C996,-334.35 989.78,-324.72 984.25,-316.16"/>
<polygon fill="#63b8ff" stroke="#63b8ff" points="998.78,-345.1 1007.15,-351.6 1004.66,-341.3 998.78,-345.1"/>
</a>
</g>
</g>
<!-- Node22 -->
<g id="Node000022" class="node">
<title>Node22</title>
<g id="a_Node000022"><a xlink:href="turbine__external__ops_8_h.html" target="_top" xlink:title=" ">
<polygon fill="white" stroke="#666666" points="1285,-228 1109,-228 1109,-176 1285,-176 1285,-228"/>
<text text-anchor="start" x="1117" y="-216" font-family="Helvetica,sans-Serif" font-size="10.00">/home/runner/work/kynema</text>
<text text-anchor="start" x="1117" y="-205" font-family="Helvetica,sans-Serif" font-size="10.00">&#45;sgf/kynema&#45;sgf/src/wind</text>
<text text-anchor="start" x="1117" y="-194" font-family="Helvetica,sans-Serif" font-size="10.00">_energy/actuator/turbine</text>
<text text-anchor="middle" x="1197" y="-183" font-family="Helvetica,sans-Serif" font-size="10.00">/external/turbine_external_ops.H</text>
</a>
</g>
</g>
<!-- Node2&#45;&gt;Node22 -->
<g id="edge27_Node000002_Node000022" class="edge">
<title>Node2&#45;&gt;Node22</title>
<g id="a_edge27_Node000002_Node000022"><a xlink:title=" ">
<path fill="none" stroke="#63b8ff" d="M1046.71,-344.46C1068.57,-322.5 1100.43,-290.88 1129,-264 1141.71,-252.05 1156.05,-239.1 1168.27,-228.23"/>
<polygon fill="#63b8ff" stroke="#63b8ff" points="1043.98,-342.24 1039.42,-351.8 1048.95,-347.17 1043.98,-342.24"/>
</a>
</g>
</g>
<!-- Node25 -->
<g id="Node000025" class="node">
<title>Node25</title>
<g id="a_Node000025"><a xlink:href="turbine__external__utils_8_h.html" target="_top" xlink:title=" ">
<polygon fill="white" stroke="#666666" points="1318,-316 1138,-316 1138,-264 1318,-264 1318,-316"/>
<text text-anchor="start" x="1146" y="-304" font-family="Helvetica,sans-Serif" font-size="10.00">/home/runner/work/kynema</text>
<text text-anchor="start" x="1146" y="-293" font-family="Helvetica,sans-Serif" font-size="10.00">&#45;sgf/kynema&#45;sgf/src/wind</text>
<text text-anchor="start" x="1146" y="-282" font-family="Helvetica,sans-Serif" font-size="10.00">_energy/actuator/turbine</text>
<text text-anchor="middle" x="1228" y="-271" font-family="Helvetica,sans-Serif" font-size="10.00">/external/turbine_external_utils.H</text>
</a>
</g>
</g>
<!-- Node2&#45;&gt;Node25 -->
<g id="edge32_Node000002_Node000025" class="edge">
<title>Node2&#45;&gt;Node25</title>
<g id="a_edge32_Node000002_Node000025"><a xlink:title=" ">
<path fill="none" stroke="#63b8ff" d="M1080.01,-348.28C1106.1,-338.18 1136.71,-326.33 1163.31,-316.04"/>
<polygon fill="#63b8ff" stroke="#63b8ff" points="1078.68,-345.04 1070.62,-351.91 1081.21,-351.57 1078.68,-345.04"/>
</a>
</g>
</g>
<!-- Node26 -->
<g id="Node000026" class="node">
<title>Node26</title>
<g id="a_Node000026"><a xlink:href="fixed__wing__ops_8_h.html" target="_top" xlink:title=" ">
<polygon fill="white" stroke="#666666" points="1091,-228 939,-228 939,-176 1091,-176 1091,-228"/>
<text text-anchor="start" x="947" y="-216" font-family="Helvetica,sans-Serif" font-size="10.00">/home/runner/work/kynema</text>
<text text-anchor="start" x="947" y="-205" font-family="Helvetica,sans-Serif" font-size="10.00">&#45;sgf/kynema&#45;sgf/src/wind</text>
<text text-anchor="start" x="947" y="-194" font-family="Helvetica,sans-Serif" font-size="10.00">_energy/actuator/wing/fixed</text>
<text text-anchor="middle" x="1015" y="-183" font-family="Helvetica,sans-Serif" font-size="10.00">_wing_ops.H</text>
</a>
</g>
</g>
<!-- Node2&#45;&gt;Node26 -->
<g id="edge34_Node000002_Node000026" class="edge">
<title>Node2&#45;&gt;Node26</title>
<g id="a_edge34_Node000002_Node000026"><a xlink:title=" ">
<path fill="none" stroke="#63b8ff" d="M1040.71,-343.28C1045.73,-334.91 1050.4,-325.45 1053,-316 1059.12,-293.72 1059.35,-286.22 1053,-264 1049.36,-251.28 1042.22,-238.64 1035.1,-228.19"/>
<polygon fill="#63b8ff" stroke="#63b8ff" points="1037.65,-341.57 1035.2,-351.88 1043.54,-345.35 1037.65,-341.57"/>
</a>
</g>
</g>
<!-- Node27 -->
<g id="Node000027" class="node">
<title>Node27</title>
<g id="a_Node000027"><a xlink:href="flat__plate__ops_8_h.html" target="_top" xlink:title=" ">
<polygon fill="white" stroke="#666666" points="1624.5,-228 1473.5,-228 1473.5,-176 1624.5,-176 1624.5,-228"/>
<text text-anchor="start" x="1481.5" y="-216" font-family="Helvetica,sans-Serif" font-size="10.00">/home/runner/work/kynema</text>
<text text-anchor="start" x="1481.5" y="-205" font-family="Helvetica,sans-Serif" font-size="10.00">&#45;sgf/kynema&#45;sgf/src/wind</text>
<text text-anchor="start" x="1481.5" y="-194" font-family="Helvetica,sans-Serif" font-size="10.00">_energy/actuator/wing/flat</text>
<text text-anchor="middle" x="1549" y="-183" font-family="Helvetica,sans-Serif" font-size="10.00">_plate_ops.H</text>
</a>
</g>
</g>
<!-- Node2&#45;&gt;Node27 -->
<g id="edge36_Node000002_Node000027" class="edge">
<title>Node2&#45;&gt;Node27</title>
<g id="a_edge36_Node000002_Node000027"><a xlink:title=" ">
<path fill="none" stroke="#63b8ff" d="M1118.41,-367.16C1258.49,-360.05 1501.75,-343.83 1531,-316 1554.46,-293.68 1555.34,-253.97 1552.89,-228.07"/>
<polygon fill="#63b8ff" stroke="#63b8ff" points="1117.91,-363.68 1108.1,-367.68 1118.26,-370.68 1117.91,-363.68"/>
</a>
</g>
</g>
<!-- Node28 -->
<g id="Node000028" class="node">
<title>Node28</title>
<g id="a_Node000028"><a xlink:href="wing__ops_8_h.html" target="_top" xlink:title=" ">
<polygon fill="white" stroke="#666666" points="1521.5,-310.5 1336.5,-310.5 1336.5,-269.5 1521.5,-269.5 1521.5,-310.5"/>
<text text-anchor="start" x="1344.5" y="-298.5" font-family="Helvetica,sans-Serif" font-size="10.00">/home/runner/work/kynema</text>
<text text-anchor="start" x="1344.5" y="-287.5" font-family="Helvetica,sans-Serif" font-size="10.00">&#45;sgf/kynema&#45;sgf/src/wind</text>
<text text-anchor="middle" x="1429" y="-276.5" font-family="Helvetica,sans-Serif" font-size="10.00">_energy/actuator/wing/wing_ops.H</text>
</a>
</g>
</g>
<!-- Node2&#45;&gt;Node28 -->
<g id="edge38_Node000002_Node000028" class="edge">
<title>Node2&#45;&gt;Node28</title>
<g id="a_edge38_Node000002_Node000028"><a xlink:title=" ">
<path fill="none" stroke="#63b8ff" d="M1118.19,-355.33C1178.6,-344.99 1257.5,-330.79 1327,-316 1334.94,-314.31 1343.19,-312.46 1351.42,-310.54"/>
<polygon fill="#63b8ff" stroke="#63b8ff" points="1117.55,-351.89 1108.28,-357.02 1118.73,-358.79 1117.55,-351.89"/>
</a>
</g>
</g>
<!-- Node3&#45;&gt;Node4 -->
<g id="edge3_Node000003_Node000004" class="edge">
<title>Node3&#45;&gt;Node4</title>
<g id="a_edge3_Node000003_Node000004"><a xlink:title=" ">
<path fill="none" stroke="#63b8ff" d="M605.01,-266.63C652.08,-252.95 711.7,-235.63 756.84,-222.51"/>
<polygon fill="#63b8ff" stroke="#63b8ff" points="603.79,-263.33 595.17,-269.49 605.75,-270.06 603.79,-263.33"/>
</a>
</g>
</g>
<!-- Node5 -->
<g id="Node000005" class="node">
<title>Node5</title>
<g id="a_Node000005"><a xlink:href="_actuator_8_h.html" target="_top" xlink:title=" ">
<polygon fill="white" stroke="#666666" points="802.5,-134.5 649.5,-134.5 649.5,-93.5 802.5,-93.5 802.5,-134.5"/>
<text text-anchor="start" x="657.5" y="-122.5" font-family="Helvetica,sans-Serif" font-size="10.00">/home/runner/work/kynema</text>
<text text-anchor="start" x="657.5" y="-111.5" font-family="Helvetica,sans-Serif" font-size="10.00">&#45;sgf/kynema&#45;sgf/src/wind</text>
<text text-anchor="middle" x="726" y="-100.5" font-family="Helvetica,sans-Serif" font-size="10.00">_energy/actuator/Actuator.H</text>
</a>
</g>
</g>
<!-- Node4&#45;&gt;Node5 -->
<g id="edge4_Node000004_Node000005" class="edge">
<title>Node4&#45;&gt;Node5</title>
<g id="a_edge4_Node000004_Node000005"><a xlink:title=" ">
<path fill="none" stroke="#63b8ff" d="M793.94,-174.62C779.29,-161.77 761.97,-146.57 748.49,-134.74"/>
<polygon fill="#63b8ff" stroke="#63b8ff" points="791.94,-177.52 801.76,-181.49 796.55,-172.26 791.94,-177.52"/>
</a>
</g>
</g>
<!-- Node9 -->
<g id="Node000009" class="node">
<title>Node9</title>
<g id="a_Node000009"><a xlink:href="_actuator_disk_8cpp.html" target="_top" xlink:title=" ">
<polygon fill="white" stroke="#666666" points="448.5,-134.5 239.5,-134.5 239.5,-93.5 448.5,-93.5 448.5,-134.5"/>
<text text-anchor="start" x="247.5" y="-122.5" font-family="Helvetica,sans-Serif" font-size="10.00">/home/runner/work/kynema</text>
<text text-anchor="start" x="247.5" y="-111.5" font-family="Helvetica,sans-Serif" font-size="10.00">&#45;sgf/kynema&#45;sgf/src/wind</text>
<text text-anchor="middle" x="344" y="-100.5" font-family="Helvetica,sans-Serif" font-size="10.00">_energy/actuator/disk/ActuatorDisk.cpp</text>
</a>
</g>
</g>
<!-- Node4&#45;&gt;Node9 -->
<g id="edge8_Node000004_Node000009" class="edge">
<title>Node4&#45;&gt;Node9</title>
<g id="a_edge8_Node000004_Node000009"><a xlink:title=" ">
<path fill="none" stroke="#63b8ff" d="M721.45,-185.34C647.94,-173.76 546.65,-157.1 458,-140 449.15,-138.29 439.93,-136.42 430.73,-134.5"/>
<polygon fill="#63b8ff" stroke="#63b8ff" points="721.22,-188.84 731.64,-186.93 722.3,-181.93 721.22,-188.84"/>
</a>
</g>
</g>
<!-- Node10 -->
<g id="Node000010" class="node">
<title>Node10</title>
<g id="a_Node000010"><a xlink:href="_turbine_fast_8cpp.html" target="_top" xlink:title=" ">
<polygon fill="white" stroke="#666666" points="1235.5,-52 1084.5,-52 1084.5,0 1235.5,0 1235.5,-52"/>
<text text-anchor="start" x="1092.5" y="-40" font-family="Helvetica,sans-Serif" font-size="10.00">/home/runner/work/kynema</text>
<text text-anchor="start" x="1092.5" y="-29" font-family="Helvetica,sans-Serif" font-size="10.00">&#45;sgf/kynema&#45;sgf/src/wind</text>
<text text-anchor="start" x="1092.5" y="-18" font-family="Helvetica,sans-Serif" font-size="10.00">_energy/actuator/turbine</text>
<text text-anchor="middle" x="1160" y="-7" font-family="Helvetica,sans-Serif" font-size="10.00">/fast/TurbineFast.cpp</text>
</a>
</g>
</g>
<!-- Node4&#45;&gt;Node10 -->
<g id="edge9_Node000004_Node000010" class="edge">
<title>Node4&#45;&gt;Node10</title>
<g id="a_edge9_Node000004_Node000010"><a xlink:title=" ">
<path fill="none" stroke="#63b8ff" d="M823.9,-171.15C825.51,-145.41 832.11,-109.12 855,-88 918.17,-29.72 960.78,-69.13 1045,-52 1057.71,-49.41 1071.2,-46.57 1084.28,-43.76"/>
<polygon fill="#63b8ff" stroke="#63b8ff" points="820.39,-171.34 823.49,-181.47 827.39,-171.62 820.39,-171.34"/>
</a>
</g>
</g>
<!-- Node11 -->
<g id="Node000011" class="node">
<title>Node11</title>
<g id="a_Node000011"><a xlink:href="_turbine_kynema_8cpp.html" target="_top" xlink:title=" ">
<polygon fill="white" stroke="#666666" points="1534.5,-52 1377.5,-52 1377.5,0 1534.5,0 1534.5,-52"/>
<text text-anchor="start" x="1385.5" y="-40" font-family="Helvetica,sans-Serif" font-size="10.00">/home/runner/work/kynema</text>
<text text-anchor="start" x="1385.5" y="-29" font-family="Helvetica,sans-Serif" font-size="10.00">&#45;sgf/kynema&#45;sgf/src/wind</text>
<text text-anchor="start" x="1385.5" y="-18" font-family="Helvetica,sans-Serif" font-size="10.00">_energy/actuator/turbine</text>
<text text-anchor="middle" x="1456" y="-7" font-family="Helvetica,sans-Serif" font-size="10.00">/kynema/TurbineKynema.cpp</text>
</a>
</g>
</g>
<!-- Node4&#45;&gt;Node11 -->
<g id="edge10_Node000004_Node000011" class="edge">
<title>Node4&#45;&gt;Node11</title>
<g id="a_edge10_Node000004_Node000011"><a xlink:title=" ">
<path fill="none" stroke="#63b8ff" d="M838.82,-172.17C855.41,-140.43 881,-93.18 889,-88 955.74,-44.77 1165.96,-60.68 1245,-52 1288.82,-47.19 1337.7,-41.42 1377.38,-36.64"/>
<polygon fill="#63b8ff" stroke="#63b8ff" points="835.71,-170.57 834.2,-181.06 841.92,-173.8 835.71,-170.57"/>
</a>
</g>
</g>
<!-- Node12 -->
<g id="Node000012" class="node">
<title>Node12</title>
<g id="a_Node000012"><a xlink:href="_fixed_wing_8cpp.html" target="_top" xlink:title=" ">
<polygon fill="white" stroke="#666666" points="1096.5,-134.5 897.5,-134.5 897.5,-93.5 1096.5,-93.5 1096.5,-134.5"/>
<text text-anchor="start" x="905.5" y="-122.5" font-family="Helvetica,sans-Serif" font-size="10.00">/home/runner/work/kynema</text>
<text text-anchor="start" x="905.5" y="-111.5" font-family="Helvetica,sans-Serif" font-size="10.00">&#45;sgf/kynema&#45;sgf/src/wind</text>
<text text-anchor="middle" x="997" y="-100.5" font-family="Helvetica,sans-Serif" font-size="10.00">_energy/actuator/wing/FixedWing.cpp</text>
</a>
</g>
</g>
<!-- Node4&#45;&gt;Node12 -->
<g id="edge11_Node000004_Node000012" class="edge">
<title>Node4&#45;&gt;Node12</title>
<g id="a_edge11_Node000004_Node000012"><a xlink:title=" ">
<path fill="none" stroke="#63b8ff" d="M872.48,-176.9C899.35,-163.54 932.33,-147.15 957.6,-134.59"/>
<polygon fill="#63b8ff" stroke="#63b8ff" points="870.65,-173.9 863.26,-181.49 873.77,-180.17 870.65,-173.9"/>
</a>
</g>
</g>
<!-- Node13 -->
<g id="Node000013" class="node">
<title>Node13</title>
<g id="a_Node000013"><a xlink:href="_flat_plate_8cpp.html" target="_top" xlink:title=" ">
<polygon fill="white" stroke="#666666" points="1476,-134.5 1284,-134.5 1284,-93.5 1476,-93.5 1476,-134.5"/>
<text text-anchor="start" x="1292" y="-122.5" font-family="Helvetica,sans-Serif" font-size="10.00">/home/runner/work/kynema</text>
<text text-anchor="start" x="1292" y="-111.5" font-family="Helvetica,sans-Serif" font-size="10.00">&#45;sgf/kynema&#45;sgf/src/wind</text>
<text text-anchor="middle" x="1380" y="-100.5" font-family="Helvetica,sans-Serif" font-size="10.00">_energy/actuator/wing/FlatPlate.cpp</text>
</a>
</g>
</g>
<!-- Node4&#45;&gt;Node13 -->
<g id="edge12_Node000004_Node000013" class="edge">
<title>Node4&#45;&gt;Node13</title>
<g id="a_edge12_Node000004_Node000013"><a xlink:title=" ">
<path fill="none" stroke="#63b8ff" d="M911.46,-179.45C917.72,-178.19 923.94,-177.03 930,-176 1082,-150.25 1123.03,-165.91 1275,-140 1284.14,-138.44 1293.68,-136.55 1303.11,-134.51"/>
<polygon fill="#63b8ff" stroke="#63b8ff" points="910.71,-176.03 901.63,-181.49 912.13,-182.89 910.71,-176.03"/>
</a>
</g>
</g>
<!-- Node6 -->
<g id="Node000006" class="node">
<title>Node6</title>
<g id="a_Node000006"><a xlink:href="_actuator_forcing_8cpp.html" target="_top" xlink:title=" ">
<polygon fill="white" stroke="#666666" points="626.5,-52 467.5,-52 467.5,0 626.5,0 626.5,-52"/>
<text text-anchor="start" x="475.5" y="-40" font-family="Helvetica,sans-Serif" font-size="10.00">/home/runner/work/kynema</text>
<text text-anchor="start" x="475.5" y="-29" font-family="Helvetica,sans-Serif" font-size="10.00">&#45;sgf/kynema&#45;sgf/src/equation</text>
<text text-anchor="start" x="475.5" y="-18" font-family="Helvetica,sans-Serif" font-size="10.00">_systems/icns/source_terms</text>
<text text-anchor="middle" x="547" y="-7" font-family="Helvetica,sans-Serif" font-size="10.00">/ActuatorForcing.cpp</text>
</a>
</g>
</g>
<!-- Node5&#45;&gt;Node6 -->
<g id="edge5_Node000005_Node000006" class="edge">
<title>Node5&#45;&gt;Node6</title>
<g id="a_edge5_Node000005_Node000006"><a xlink:title=" ">
<path fill="none" stroke="#63b8ff" d="M676.13,-89.04C652.22,-77.55 623.59,-63.8 599.36,-52.16"/>
<polygon fill="#63b8ff" stroke="#63b8ff" points="674.85,-92.31 685.38,-93.49 677.88,-86 674.85,-92.31"/>
</a>
</g>
</g>
<!-- Node7 -->
<g id="Node000007" class="node">
<title>Node7</title>
<g id="a_Node000007"><a xlink:href="_actuator_8cpp.html" target="_top" xlink:title=" ">
<polygon fill="white" stroke="#666666" points="807.5,-46.5 644.5,-46.5 644.5,-5.5 807.5,-5.5 807.5,-46.5"/>
<text text-anchor="start" x="652.5" y="-34.5" font-family="Helvetica,sans-Serif" font-size="10.00">/home/runner/work/kynema</text>
<text text-anchor="start" x="652.5" y="-23.5" font-family="Helvetica,sans-Serif" font-size="10.00">&#45;sgf/kynema&#45;sgf/src/wind</text>
<text text-anchor="middle" x="726" y="-12.5" font-family="Helvetica,sans-Serif" font-size="10.00">_energy/actuator/Actuator.cpp</text>
</a>
</g>
</g>
<!-- Node5&#45;&gt;Node7 -->
<g id="edge6_Node000005_Node000007" class="edge">
<title>Node5&#45;&gt;Node7</title>
<g id="a_edge6_Node000005_Node000007"><a xlink:title=" ">
<path fill="none" stroke="#63b8ff" d="M726,-83.36C726,-71.26 726,-57.58 726,-46.74"/>
<polygon fill="#63b8ff" stroke="#63b8ff" points="722.5,-83.49 726,-93.49 729.5,-83.49 722.5,-83.49"/>
</a>
</g>
</g>
<!-- Node8 -->
<g id="Node000008" class="node">
<title>Node8</title>
<g id="a_Node000008"><a xlink:href="_actuator_container_8cpp.html" target="_top" xlink:title=" ">
<polygon fill="white" stroke="#666666" points="1036,-46.5 826,-46.5 826,-5.5 1036,-5.5 1036,-46.5"/>
<text text-anchor="start" x="834" y="-34.5" font-family="Helvetica,sans-Serif" font-size="10.00">/home/runner/work/kynema</text>
<text text-anchor="start" x="834" y="-23.5" font-family="Helvetica,sans-Serif" font-size="10.00">&#45;sgf/kynema&#45;sgf/src/wind</text>
<text text-anchor="middle" x="931" y="-12.5" font-family="Helvetica,sans-Serif" font-size="10.00">_energy/actuator/ActuatorContainer.cpp</text>
</a>
</g>
</g>
<!-- Node5&#45;&gt;Node8 -->
<g id="edge7_Node000005_Node000008" class="edge">
<title>Node5&#45;&gt;Node8</title>
<g id="a_edge7_Node000005_Node000008"><a xlink:title=" ">
<path fill="none" stroke="#63b8ff" d="M781.79,-89.6C813.92,-76.12 853.85,-59.37 884.31,-46.59"/>
<polygon fill="#63b8ff" stroke="#63b8ff" points="780.39,-86.39 772.52,-93.49 783.09,-92.84 780.39,-86.39"/>
</a>
</g>
</g>
<!-- Node14&#45;&gt;Node4 -->
<g id="edge15_Node000014_Node000004" class="edge">
<title>Node14&#45;&gt;Node4</title>
<g id="a_edge15_Node000014_Node000004"><a xlink:title=" ">
<path fill="none" stroke="#63b8ff" d="M789.71,-260.82C797.1,-248.37 805.6,-234.02 812.3,-222.74"/>
<polygon fill="#63b8ff" stroke="#63b8ff" points="786.66,-259.1 784.57,-269.49 792.68,-262.67 786.66,-259.1"/>
</a>
</g>
</g>
<!-- Node16 -->
<g id="Node000016" class="node">
<title>Node16</title>
<g id="a_Node000016"><a xlink:href="_joukowsky__ops_8_h.html" target="_top" xlink:title=" ">
<polygon fill="white" stroke="#666666" points="448.5,-222.5 239.5,-222.5 239.5,-181.5 448.5,-181.5 448.5,-222.5"/>
<text text-anchor="start" x="247.5" y="-210.5" font-family="Helvetica,sans-Serif" font-size="10.00">/home/runner/work/kynema</text>
<text text-anchor="start" x="247.5" y="-199.5" font-family="Helvetica,sans-Serif" font-size="10.00">&#45;sgf/kynema&#45;sgf/src/wind</text>
<text text-anchor="middle" x="344" y="-188.5" font-family="Helvetica,sans-Serif" font-size="10.00">_energy/actuator/disk/Joukowsky_ops.H</text>
</a>
</g>
</g>
<!-- Node15&#45;&gt;Node16 -->
<g id="edge17_Node000015_Node000016" class="edge">
<title>Node15&#45;&gt;Node16</title>
<g id="a_edge17_Node000015_Node000016"><a xlink:title=" ">
<path fill="none" stroke="#63b8ff" d="M336.14,-259.36C337.82,-247.26 339.73,-233.58 341.25,-222.74"/>
<polygon fill="#63b8ff" stroke="#63b8ff" points="332.64,-259.1 334.72,-269.49 339.57,-260.06 332.64,-259.1"/>
</a>
</g>
</g>
<!-- Node17 -->
<g id="Node000017" class="node">
<title>Node17</title>
<g id="a_Node000017"><a xlink:href="_joukowsky__ops_8cpp.html" target="_top" xlink:title=" ">
<polygon fill="white" stroke="#666666" points="176,-140 0,-140 0,-88 176,-88 176,-140"/>
<text text-anchor="start" x="8" y="-128" font-family="Helvetica,sans-Serif" font-size="10.00">/home/runner/work/kynema</text>
<text text-anchor="start" x="8" y="-117" font-family="Helvetica,sans-Serif" font-size="10.00">&#45;sgf/kynema&#45;sgf/src/wind</text>
<text text-anchor="start" x="8" y="-106" font-family="Helvetica,sans-Serif" font-size="10.00">_energy/actuator/disk/Joukowsky</text>
<text text-anchor="middle" x="88" y="-95" font-family="Helvetica,sans-Serif" font-size="10.00">_ops.cpp</text>
</a>
</g>
</g>
<!-- Node15&#45;&gt;Node17 -->
<g id="edge20_Node000015_Node000017" class="edge">
<title>Node15&#45;&gt;Node17</title>
<g id="a_edge20_Node000015_Node000017"><a xlink:title=" ">
<path fill="none" stroke="#63b8ff" d="M232.41,-279.53C164.27,-270.74 82.5,-254.88 61,-228 40.84,-202.8 56.43,-164.96 70.95,-140.12"/>
<polygon fill="#63b8ff" stroke="#63b8ff" points="232,-283 242.36,-280.77 232.87,-276.06 232,-283"/>
</a>
</g>
</g>
<!-- Node18 -->
<g id="Node000018" class="node">
<title>Node18</title>
<g id="a_Node000018"><a xlink:href="disk__ops_8cpp.html" target="_top" xlink:title=" ">
<polygon fill="white" stroke="#666666" points="221.5,-228 70.5,-228 70.5,-176 221.5,-176 221.5,-228"/>
<text text-anchor="start" x="78.5" y="-216" font-family="Helvetica,sans-Serif" font-size="10.00">/home/runner/work/kynema</text>
<text text-anchor="start" x="78.5" y="-205" font-family="Helvetica,sans-Serif" font-size="10.00">&#45;sgf/kynema&#45;sgf/src/wind</text>
<text text-anchor="start" x="78.5" y="-194" font-family="Helvetica,sans-Serif" font-size="10.00">_energy/actuator/disk/disk</text>
<text text-anchor="middle" x="146" y="-183" font-family="Helvetica,sans-Serif" font-size="10.00">_ops.cpp</text>
</a>
</g>
</g>
<!-- Node15&#45;&gt;Node18 -->
<g id="edge21_Node000015_Node000018" class="edge">
<title>Node15&#45;&gt;Node18</title>
<g id="a_edge21_Node000015_Node000018"><a xlink:title=" ">
<path fill="none" stroke="#63b8ff" d="M280.51,-265.19C255.6,-253.68 225.69,-239.85 200.41,-228.16"/>
<polygon fill="#63b8ff" stroke="#63b8ff" points="279.25,-268.47 289.79,-269.49 282.19,-262.11 279.25,-268.47"/>
</a>
</g>
</g>
<!-- Node19 -->
<g id="Node000019" class="node">
<title>Node19</title>
<g id="a_Node000019"><a xlink:href="uniform__ct__ops_8_h.html" target="_top" xlink:title=" ">
<polygon fill="white" stroke="#666666" points="631,-228 467,-228 467,-176 631,-176 631,-228"/>
<text text-anchor="start" x="475" y="-216" font-family="Helvetica,sans-Serif" font-size="10.00">/home/runner/work/kynema</text>
<text text-anchor="start" x="475" y="-205" font-family="Helvetica,sans-Serif" font-size="10.00">&#45;sgf/kynema&#45;sgf/src/wind</text>
<text text-anchor="start" x="475" y="-194" font-family="Helvetica,sans-Serif" font-size="10.00">_energy/actuator/disk/uniform</text>
<text text-anchor="middle" x="549" y="-183" font-family="Helvetica,sans-Serif" font-size="10.00">_ct_ops.H</text>
</a>
</g>
</g>
<!-- Node15&#45;&gt;Node19 -->
<g id="edge22_Node000015_Node000019" class="edge">
<title>Node15&#45;&gt;Node19</title>
<g id="a_edge22_Node000015_Node000019"><a xlink:title=" ">
<path fill="none" stroke="#63b8ff" d="M390.54,-265.8C419.9,-254.16 455.5,-240.05 485.52,-228.16"/>
<polygon fill="#63b8ff" stroke="#63b8ff" points="389.25,-262.55 381.24,-269.49 391.83,-269.05 389.25,-262.55"/>
</a>
</g>
</g>
<!-- Node16&#45;&gt;Node9 -->
<g id="edge18_Node000016_Node000009" class="edge">
<title>Node16&#45;&gt;Node9</title>
<g id="a_edge18_Node000016_Node000009"><a xlink:title=" ">
<path fill="none" stroke="#63b8ff" d="M344,-171.36C344,-159.26 344,-145.58 344,-134.74"/>
<polygon fill="#63b8ff" stroke="#63b8ff" points="340.5,-171.49 344,-181.49 347.5,-171.49 340.5,-171.49"/>
</a>
</g>
</g>
<!-- Node16&#45;&gt;Node17 -->
<g id="edge19_Node000016_Node000017" class="edge">
<title>Node16&#45;&gt;Node17</title>
<g id="a_edge19_Node000016_Node000017"><a xlink:title=" ">
<path fill="none" stroke="#63b8ff" d="M276.29,-178.25C241.4,-166.53 198.76,-152.21 162.89,-140.16"/>
<polygon fill="#63b8ff" stroke="#63b8ff" points="275.32,-181.62 285.91,-181.49 277.54,-174.98 275.32,-181.62"/>
</a>
</g>
</g>
<!-- Node19&#45;&gt;Node9 -->
<g id="edge23_Node000019_Node000009" class="edge">
<title>Node19&#45;&gt;Node9</title>
<g id="a_edge23_Node000019_Node000009"><a xlink:title=" ">
<path fill="none" stroke="#63b8ff" d="M479.77,-171.96C450.39,-159.63 416.91,-145.59 390.56,-134.53"/>
<polygon fill="#63b8ff" stroke="#63b8ff" points="478.58,-175.25 489.15,-175.89 481.29,-168.8 478.58,-175.25"/>
</a>
</g>
</g>
<!-- Node20 -->
<g id="Node000020" class="node">
<title>Node20</title>
<g id="a_Node000020"><a xlink:href="uniform__ct__ops_8cpp.html" target="_top" xlink:title=" ">
<polygon fill="white" stroke="#666666" points="631,-140 467,-140 467,-88 631,-88 631,-140"/>
<text text-anchor="start" x="475" y="-128" font-family="Helvetica,sans-Serif" font-size="10.00">/home/runner/work/kynema</text>
<text text-anchor="start" x="475" y="-117" font-family="Helvetica,sans-Serif" font-size="10.00">&#45;sgf/kynema&#45;sgf/src/wind</text>
<text text-anchor="start" x="475" y="-106" font-family="Helvetica,sans-Serif" font-size="10.00">_energy/actuator/disk/uniform</text>
<text text-anchor="middle" x="549" y="-95" font-family="Helvetica,sans-Serif" font-size="10.00">_ct_ops.cpp</text>
</a>
</g>
</g>
<!-- Node19&#45;&gt;Node20 -->
<g id="edge24_Node000019_Node000020" class="edge">
<title>Node19&#45;&gt;Node20</title>
<g id="a_edge24_Node000019_Node000020"><a xlink:title=" ">
<path fill="none" stroke="#63b8ff" d="M549,-165.56C549,-157.04 549,-148.1 549,-140.16"/>
<polygon fill="#63b8ff" stroke="#63b8ff" points="545.5,-165.66 549,-175.66 552.5,-165.66 545.5,-165.66"/>
</a>
</g>
</g>
<!-- Node21&#45;&gt;Node4 -->
<g id="edge26_Node000021_Node000004" class="edge">
<title>Node21&#45;&gt;Node4</title>
<g id="a_edge26_Node000021_Node000004"><a xlink:title=" ">
<path fill="none" stroke="#63b8ff" d="M917.22,-258.67C897.11,-246.66 874.58,-233.21 856.7,-222.53"/>
<polygon fill="#63b8ff" stroke="#63b8ff" points="915.58,-261.77 925.96,-263.89 919.17,-255.76 915.58,-261.77"/>
</a>
</g>
</g>
<!-- Node23 -->
<g id="Node000023" class="node">
<title>Node23</title>
<g id="a_Node000023"><a xlink:href="turbine__fast__ops_8_h.html" target="_top" xlink:title=" ">
<polygon fill="white" stroke="#666666" points="1265.5,-140 1114.5,-140 1114.5,-88 1265.5,-88 1265.5,-140"/>
<text text-anchor="start" x="1122.5" y="-128" font-family="Helvetica,sans-Serif" font-size="10.00">/home/runner/work/kynema</text>
<text text-anchor="start" x="1122.5" y="-117" font-family="Helvetica,sans-Serif" font-size="10.00">&#45;sgf/kynema&#45;sgf/src/wind</text>
<text text-anchor="start" x="1122.5" y="-106" font-family="Helvetica,sans-Serif" font-size="10.00">_energy/actuator/turbine</text>
<text text-anchor="middle" x="1190" y="-95" font-family="Helvetica,sans-Serif" font-size="10.00">/fast/turbine_fast_ops.H</text>
</a>
</g>
</g>
<!-- Node22&#45;&gt;Node23 -->
<g id="edge28_Node000022_Node000023" class="edge">
<title>Node22&#45;&gt;Node23</title>
<g id="a_edge28_Node000022_Node000023"><a xlink:title=" ">
<path fill="none" stroke="#63b8ff" d="M1194.12,-165.56C1193.42,-157.04 1192.69,-148.1 1192.05,-140.16"/>
<polygon fill="#63b8ff" stroke="#63b8ff" points="1190.64,-165.98 1194.94,-175.66 1197.61,-165.41 1190.64,-165.98"/>
</a>
</g>
</g>
<!-- Node24 -->
<g id="Node000024" class="node">
<title>Node24</title>
<g id="a_Node000024"><a xlink:href="turbine__kynema__ops_8_h.html" target="_top" xlink:title=" ">
<polygon fill="white" stroke="#666666" points="1667.5,-140 1494.5,-140 1494.5,-88 1667.5,-88 1667.5,-140"/>
<text text-anchor="start" x="1502.5" y="-128" font-family="Helvetica,sans-Serif" font-size="10.00">/home/runner/work/kynema</text>
<text text-anchor="start" x="1502.5" y="-117" font-family="Helvetica,sans-Serif" font-size="10.00">&#45;sgf/kynema&#45;sgf/src/wind</text>
<text text-anchor="start" x="1502.5" y="-106" font-family="Helvetica,sans-Serif" font-size="10.00">_energy/actuator/turbine</text>
<text text-anchor="middle" x="1581" y="-95" font-family="Helvetica,sans-Serif" font-size="10.00">/kynema/turbine_kynema_ops.H</text>
</a>
</g>
</g>
<!-- Node22&#45;&gt;Node24 -->
<g id="edge30_Node000022_Node000024" class="edge">
<title>Node22&#45;&gt;Node24</title>
<g id="a_edge30_Node000022_Node000024"><a xlink:title=" ">
<path fill="none" stroke="#63b8ff" d="M1295.05,-175.83C1380.01,-157.31 1403.75,-158.21 1485,-140 1488.11,-139.3 1491.27,-138.58 1494.46,-137.83"/>
<polygon fill="#63b8ff" stroke="#63b8ff" points="1294.24,-172.42 1285.23,-178 1295.75,-179.26 1294.24,-172.42"/>
</a>
</g>
</g>
<!-- Node23&#45;&gt;Node10 -->
<g id="edge29_Node000023_Node000010" class="edge">
<title>Node23&#45;&gt;Node10</title>
<g id="a_edge29_Node000023_Node000010"><a xlink:title=" ">
<path fill="none" stroke="#63b8ff" d="M1177.83,-78.12C1174.8,-69.43 1171.61,-60.28 1168.78,-52.16"/>
<polygon fill="#63b8ff" stroke="#63b8ff" points="1174.56,-79.37 1181.16,-87.66 1181.17,-77.07 1174.56,-79.37"/>
</a>
</g>
</g>
<!-- Node24&#45;&gt;Node11 -->
<g id="edge31_Node000024_Node000011" class="edge">
<title>Node24&#45;&gt;Node11</title>
<g id="a_edge31_Node000024_Node000011"><a xlink:title=" ">
<path fill="none" stroke="#63b8ff" d="M1535.89,-81.96C1521.72,-72.22 1506.27,-61.58 1492.75,-52.29"/>
<polygon fill="#63b8ff" stroke="#63b8ff" points="1534.29,-85.11 1544.51,-87.89 1538.25,-79.34 1534.29,-85.11"/>
</a>
</g>
</g>
<!-- Node25&#45;&gt;Node22 -->
<g id="edge33_Node000025_Node000022" class="edge">
<title>Node25&#45;&gt;Node22</title>
<g id="a_edge33_Node000025_Node000022"><a xlink:title=" ">
<path fill="none" stroke="#63b8ff" d="M1215.43,-254.12C1212.29,-245.43 1209,-236.28 1206.07,-228.16"/>
<polygon fill="#63b8ff" stroke="#63b8ff" points="1212.18,-255.44 1218.87,-263.66 1218.77,-253.07 1212.18,-255.44"/>
</a>
</g>
</g>
<!-- Node26&#45;&gt;Node12 -->
<g id="edge35_Node000026_Node000012" class="edge">
<title>Node26&#45;&gt;Node12</title>
<g id="a_edge35_Node000026_Node000012"><a xlink:title=" ">
<path fill="none" stroke="#63b8ff" d="M1007.63,-165.78C1005.41,-155.18 1003.05,-143.92 1001.12,-134.7"/>
<polygon fill="#63b8ff" stroke="#63b8ff" points="1004.22,-166.59 1009.7,-175.66 1011.07,-165.16 1004.22,-166.59"/>
</a>
</g>
</g>
<!-- Node27&#45;&gt;Node13 -->
<g id="edge37_Node000027_Node000013" class="edge">
<title>Node27&#45;&gt;Node13</title>
<g id="a_edge37_Node000027_Node000013"><a xlink:title=" ">
<path fill="none" stroke="#63b8ff" d="M1490.67,-171.32C1466.75,-159.15 1439.73,-145.4 1418.38,-134.53"/>
<polygon fill="#63b8ff" stroke="#63b8ff" points="1489.16,-174.48 1499.66,-175.89 1492.34,-168.24 1489.16,-174.48"/>
</a>
</g>
</g>
<!-- Node28&#45;&gt;Node26 -->
<g id="edge39_Node000028_Node000026" class="edge">
<title>Node28&#45;&gt;Node26</title>
<g id="a_edge39_Node000028_Node000026"><a xlink:title=" ">
<path fill="none" stroke="#63b8ff" d="M1342.32,-267.24C1337.15,-266.1 1332.01,-265.01 1327,-264 1226.86,-243.82 1199.65,-250.46 1100,-228 1097.15,-227.36 1094.25,-226.67 1091.33,-225.96"/>
<polygon fill="#63b8ff" stroke="#63b8ff" points="1341.77,-270.7 1352.29,-269.48 1343.3,-263.87 1341.77,-270.7"/>
</a>
</g>
</g>
<!-- Node28&#45;&gt;Node27 -->
<g id="edge40_Node000028_Node000027" class="edge">
<title>Node28&#45;&gt;Node27</title>
<g id="a_edge40_Node000028_Node000027"><a xlink:title=" ">
<path fill="none" stroke="#63b8ff" d="M1464.54,-263.53C1480.05,-252.41 1498.19,-239.41 1513.67,-228.32"/>
<polygon fill="#63b8ff" stroke="#63b8ff" points="1462.32,-260.82 1456.23,-269.49 1466.4,-266.5 1462.32,-260.82"/>
</a>
</g>
</g>
<!-- Node29 -->
<g id="Node000029" class="node">
<title>Node29</title>
<g id="a_Node000029"><a xlink:href="wing__ops_8cpp.html" target="_top" xlink:title=" ">
<polygon fill="white" stroke="#666666" points="1455,-228 1303,-228 1303,-176 1455,-176 1455,-228"/>
<text text-anchor="start" x="1311" y="-216" font-family="Helvetica,sans-Serif" font-size="10.00">/home/runner/work/kynema</text>
<text text-anchor="start" x="1311" y="-205" font-family="Helvetica,sans-Serif" font-size="10.00">&#45;sgf/kynema&#45;sgf/src/wind</text>
<text text-anchor="start" x="1311" y="-194" font-family="Helvetica,sans-Serif" font-size="10.00">_energy/actuator/wing/wing</text>
<text text-anchor="middle" x="1379" y="-183" font-family="Helvetica,sans-Serif" font-size="10.00">_ops.cpp</text>
</a>
</g>
</g>
<!-- Node28&#45;&gt;Node29 -->
<g id="edge41_Node000028_Node000029" class="edge">
<title>Node28&#45;&gt;Node29</title>
<g id="a_edge41_Node000028_Node000029"><a xlink:title=" ">
<path fill="none" stroke="#63b8ff" d="M1412.55,-260.71C1406.48,-250.26 1399.63,-238.49 1393.72,-228.32"/>
<polygon fill="#63b8ff" stroke="#63b8ff" points="1409.6,-262.6 1417.65,-269.49 1415.65,-259.08 1409.6,-262.6"/>
</a>
</g>
</g>
</g>
</svg>
