<?xml version="1.0" encoding="UTF-8" standalone="no"?>
<!DOCTYPE svg PUBLIC "-//W3C//DTD SVG 1.1//EN"
 "http://www.w3.org/Graphics/SVG/1.1/DTD/svg11.dtd">
<!-- Generated by graphviz version 2.43.0 (0)
 -->
<!-- Title: /home/runner/work/kynema&#45;sgf/kynema&#45;sgf/src/wind_energy/actuator/actuator_utils.H Pages: 1 -->
<svg width="1923pt" height="599pt"
 viewBox="0.00 0.00 1923.00 599.00" xmlns="http://www.w3.org/2000/svg" xmlns:xlink="http://www.w3.org/1999/xlink">
<g id="graph0" class="graph" transform="scale(1 1) rotate(0) translate(4 595)">
<title>/home/runner/work/kynema&#45;sgf/kynema&#45;sgf/src/wind_energy/actuator/actuator_utils.H</title>
<!-- Node1 -->
<g id="Node000001" class="node">
<title>Node1</title>
<g id="a_Node000001"><a xlink:title=" ">
<polygon fill="#999999" stroke="#666666" points="979,-591 828,-591 828,-539 979,-539 979,-591"/>
<text text-anchor="start" x="836" y="-579" font-family="Helvetica,sans-Serif" font-size="10.00">/home/runner/work/kynema</text>
<text text-anchor="start" x="836" y="-568" font-family="Helvetica,sans-Serif" font-size="10.00">&#45;sgf/kynema&#45;sgf/src/wind</text>
<text text-anchor="start" x="836" y="-557" font-family="Helvetica,sans-Serif" font-size="10.00">_energy/actuator/actuator</text>
<text text-anchor="middle" x="903.5" y="-546" font-family="Helvetica,sans-Serif" font-size="10.00">_utils.H</text>
</a>
</g>
</g>
<!-- Node2 -->
<g id="Node000002" class="node">
<title>Node2</title>
<g id="a_Node000002"><a xlink:href="_act_src_line_op_8_h.html" target="_top" xlink:title=" ">
<polygon fill="white" stroke="#666666" points="464,-321.5 287,-321.5 287,-280.5 464,-280.5 464,-321.5"/>
<text text-anchor="start" x="295" y="-309.5" font-family="Helvetica,sans-Serif" font-size="10.00">/home/runner/work/kynema</text>
<text text-anchor="start" x="295" y="-298.5" font-family="Helvetica,sans-Serif" font-size="10.00">&#45;sgf/kynema&#45;sgf/src/wind</text>
<text text-anchor="middle" x="375.5" y="-287.5" font-family="Helvetica,sans-Serif" font-size="10.00">_energy/actuator/ActSrcLineOp.H</text>
</a>
</g>
</g>
<!-- Node1&#45;&gt;Node2 -->
<g id="edge1_Node000001_Node000002" class="edge">
<title>Node1&#45;&gt;Node2</title>
<g id="a_edge1_Node000001_Node000002"><a xlink:title=" ">
<path fill="none" stroke="#63b8ff" d="M817.93,-549.09C772.54,-539.37 716.57,-524.44 669.5,-503 559.21,-452.77 445.46,-361.63 398.2,-321.67"/>
<polygon fill="#63b8ff" stroke="#63b8ff" points="817.24,-552.52 827.75,-551.15 818.68,-545.67 817.24,-552.52"/>
</a>
</g>
</g>
<!-- Node13 -->
<g id="Node000013" class="node">
<title>Node13</title>
<g id="a_Node000013"><a xlink:href="actuator__ops_i_8_h.html" target="_top" xlink:title=" ">
<polygon fill="white" stroke="#666666" points="902,-497.5 723,-497.5 723,-456.5 902,-456.5 902,-497.5"/>
<text text-anchor="start" x="731" y="-485.5" font-family="Helvetica,sans-Serif" font-size="10.00">/home/runner/work/kynema</text>
<text text-anchor="start" x="731" y="-474.5" font-family="Helvetica,sans-Serif" font-size="10.00">&#45;sgf/kynema&#45;sgf/src/wind</text>
<text text-anchor="middle" x="812.5" y="-463.5" font-family="Helvetica,sans-Serif" font-size="10.00">_energy/actuator/actuator_opsI.H</text>
</a>
</g>
</g>
<!-- Node1&#45;&gt;Node13 -->
<g id="edge12_Node000001_Node000013" class="edge">
<title>Node1&#45;&gt;Node13</title>
<g id="a_edge12_Node000001_Node000013"><a xlink:title=" ">
<path fill="none" stroke="#63b8ff" d="M869.34,-531.72C857.24,-520.28 844,-507.77 833.35,-497.7"/>
<polygon fill="#63b8ff" stroke="#63b8ff" points="867.02,-534.34 876.69,-538.66 871.83,-529.25 867.02,-534.34"/>
</a>
</g>
</g>
<!-- Node15 -->
<g id="Node000015" class="node">
<title>Node15</title>
<g id="a_Node000015"><a xlink:href="_act_src_disk_op_8_h.html" target="_top" xlink:title=" ">
<polygon fill="white" stroke="#666666" points="721.5,-321.5 519.5,-321.5 519.5,-280.5 721.5,-280.5 721.5,-321.5"/>
<text text-anchor="start" x="527.5" y="-309.5" font-family="Helvetica,sans-Serif" font-size="10.00">/home/runner/work/kynema</text>
<text text-anchor="start" x="527.5" y="-298.5" font-family="Helvetica,sans-Serif" font-size="10.00">&#45;sgf/kynema&#45;sgf/src/wind</text>
<text text-anchor="middle" x="620.5" y="-287.5" font-family="Helvetica,sans-Serif" font-size="10.00">_energy/actuator/disk/ActSrcDiskOp.H</text>
</a>
</g>
</g>
<!-- Node1&#45;&gt;Node15 -->
<g id="edge45_Node000001_Node000015" class="edge">
<title>Node1&#45;&gt;Node15</title>
<g id="a_edge45_Node000001_Node000015"><a xlink:title=" ">
<path fill="none" stroke="#63b8ff" d="M817.91,-552.1C782.22,-543.46 742.44,-528.59 713.5,-503 657.04,-453.08 632.52,-361.78 624.13,-321.72"/>
<polygon fill="#63b8ff" stroke="#63b8ff" points="817.32,-555.55 827.85,-554.37 818.88,-548.73 817.32,-555.55"/>
</a>
</g>
</g>
<!-- Node22 -->
<g id="Node000022" class="node">
<title>Node22</title>
<g id="a_Node000022"><a xlink:href="_act_src_disk_op___turbine_8_h.html" target="_top" xlink:title=" ">
<polygon fill="white" stroke="#666666" points="269,-327 118,-327 118,-275 269,-275 269,-327"/>
<text text-anchor="start" x="126" y="-315" font-family="Helvetica,sans-Serif" font-size="10.00">/home/runner/work/kynema</text>
<text text-anchor="start" x="126" y="-304" font-family="Helvetica,sans-Serif" font-size="10.00">&#45;sgf/kynema&#45;sgf/src/wind</text>
<text text-anchor="start" x="126" y="-293" font-family="Helvetica,sans-Serif" font-size="10.00">_energy/actuator/turbine</text>
<text text-anchor="middle" x="193.5" y="-282" font-family="Helvetica,sans-Serif" font-size="10.00">/ActSrcDiskOp_Turbine.H</text>
</a>
</g>
</g>
<!-- Node1&#45;&gt;Node22 -->
<g id="edge49_Node000001_Node000022" class="edge">
<title>Node1&#45;&gt;Node22</title>
<g id="a_edge49_Node000001_Node000022"><a xlink:title=" ">
<path fill="none" stroke="#63b8ff" d="M817.52,-555.27C750.05,-546.71 654.49,-530.79 574.5,-503 441.51,-456.8 298.09,-369.85 231.49,-327.07"/>
<polygon fill="#63b8ff" stroke="#63b8ff" points="817.33,-558.77 827.69,-556.53 818.19,-551.82 817.33,-558.77"/>
</a>
</g>
</g>
<!-- Node23 -->
<g id="Node000023" class="node">
<title>Node23</title>
<g id="a_Node000023"><a xlink:href="turbine__external__ops_8_h.html" target="_top" xlink:title=" ">
<polygon fill="white" stroke="#666666" points="1794.5,-239 1618.5,-239 1618.5,-187 1794.5,-187 1794.5,-239"/>
<text text-anchor="start" x="1626.5" y="-227" font-family="Helvetica,sans-Serif" font-size="10.00">/home/runner/work/kynema</text>
<text text-anchor="start" x="1626.5" y="-216" font-family="Helvetica,sans-Serif" font-size="10.00">&#45;sgf/kynema&#45;sgf/src/wind</text>
<text text-anchor="start" x="1626.5" y="-205" font-family="Helvetica,sans-Serif" font-size="10.00">_energy/actuator/turbine</text>
<text text-anchor="middle" x="1706.5" y="-194" font-family="Helvetica,sans-Serif" font-size="10.00">/external/turbine_external_ops.H</text>
</a>
</g>
</g>
<!-- Node1&#45;&gt;Node23 -->
<g id="edge50_Node000001_Node000023" class="edge">
<title>Node1&#45;&gt;Node23</title>
<g id="a_edge50_Node000001_Node000023"><a xlink:title=" ">
<path fill="none" stroke="#63b8ff" d="M988.83,-543.34C1034.08,-532.06 1090.5,-517.46 1140.5,-503 1385.83,-432.03 1520.44,-520.17 1687.5,-327 1708.45,-302.77 1710.56,-264.33 1709.25,-239.13"/>
<polygon fill="#63b8ff" stroke="#63b8ff" points="987.92,-539.96 979.06,-545.77 989.61,-546.75 987.92,-539.96"/>
</a>
</g>
</g>
<!-- Node26 -->
<g id="Node000026" class="node">
<title>Node26</title>
<g id="a_Node000026"><a xlink:href="turbine__external__utils_8_h.html" target="_top" xlink:title=" ">
<polygon fill="white" stroke="#666666" points="1678.5,-327 1498.5,-327 1498.5,-275 1678.5,-275 1678.5,-327"/>
<text text-anchor="start" x="1506.5" y="-315" font-family="Helvetica,sans-Serif" font-size="10.00">/home/runner/work/kynema</text>
<text text-anchor="start" x="1506.5" y="-304" font-family="Helvetica,sans-Serif" font-size="10.00">&#45;sgf/kynema&#45;sgf/src/wind</text>
<text text-anchor="start" x="1506.5" y="-293" font-family="Helvetica,sans-Serif" font-size="10.00">_energy/actuator/turbine</text>
<text text-anchor="middle" x="1588.5" y="-282" font-family="Helvetica,sans-Serif" font-size="10.00">/external/turbine_external_utils.H</text>
</a>
</g>
</g>
<!-- Node1&#45;&gt;Node26 -->
<g id="edge51_Node000001_Node000026" class="edge">
<title>Node1&#45;&gt;Node26</title>
<g id="a_edge51_Node000001_Node000026"><a xlink:title=" ">
<path fill="none" stroke="#63b8ff" d="M978.33,-535.38C1113.24,-483.78 1395.11,-375.97 1522.94,-327.07"/>
<polygon fill="#63b8ff" stroke="#63b8ff" points="976.96,-532.16 968.87,-539 979.46,-538.69 976.96,-532.16"/>
</a>
</g>
</g>
<!-- Node31 -->
<g id="Node000031" class="node">
<title>Node31</title>
<g id="a_Node000031"><a xlink:href="actuator__utils_8cpp.html" target="_top" xlink:title=" ">
<polygon fill="white" stroke="#666666" points="1886,-503 1735,-503 1735,-451 1886,-451 1886,-503"/>
<text text-anchor="start" x="1743" y="-491" font-family="Helvetica,sans-Serif" font-size="10.00">/home/runner/work/kynema</text>
<text text-anchor="start" x="1743" y="-480" font-family="Helvetica,sans-Serif" font-size="10.00">&#45;sgf/kynema&#45;sgf/src/wind</text>
<text text-anchor="start" x="1743" y="-469" font-family="Helvetica,sans-Serif" font-size="10.00">_energy/actuator/actuator</text>
<text text-anchor="middle" x="1810.5" y="-458" font-family="Helvetica,sans-Serif" font-size="10.00">_utils.cpp</text>
</a>
</g>
</g>
<!-- Node1&#45;&gt;Node31 -->
<g id="edge44_Node000001_Node000031" class="edge">
<title>Node1&#45;&gt;Node31</title>
<g id="a_edge44_Node000001_Node000031"><a xlink:title=" ">
<path fill="none" stroke="#63b8ff" d="M989.05,-563.12C1138.52,-560.36 1456.49,-549.06 1720.5,-503 1725.13,-502.19 1729.87,-501.25 1734.63,-500.2"/>
<polygon fill="#63b8ff" stroke="#63b8ff" points="988.95,-559.62 979.01,-563.3 989.07,-566.62 988.95,-559.62"/>
</a>
</g>
</g>
<!-- Node32 -->
<g id="Node000032" class="node">
<title>Node32</title>
<g id="a_Node000032"><a xlink:href="disk__spreading_8_h.html" target="_top" xlink:title=" ">
<polygon fill="white" stroke="#666666" points="1067,-415 916,-415 916,-363 1067,-363 1067,-415"/>
<text text-anchor="start" x="924" y="-403" font-family="Helvetica,sans-Serif" font-size="10.00">/home/runner/work/kynema</text>
<text text-anchor="start" x="924" y="-392" font-family="Helvetica,sans-Serif" font-size="10.00">&#45;sgf/kynema&#45;sgf/src/wind</text>
<text text-anchor="start" x="924" y="-381" font-family="Helvetica,sans-Serif" font-size="10.00">_energy/actuator/disk/disk</text>
<text text-anchor="middle" x="991.5" y="-370" font-family="Helvetica,sans-Serif" font-size="10.00">_spreading.H</text>
</a>
</g>
</g>
<!-- Node1&#45;&gt;Node32 -->
<g id="edge46_Node000001_Node000032" class="edge">
<title>Node1&#45;&gt;Node32</title>
<g id="a_edge46_Node000001_Node000032"><a xlink:title=" ">
<path fill="none" stroke="#63b8ff" d="M920.87,-529.66C937.94,-495.9 963.6,-445.18 978.83,-415.05"/>
<polygon fill="#63b8ff" stroke="#63b8ff" points="917.69,-528.2 916.3,-538.7 923.93,-531.35 917.69,-528.2"/>
</a>
</g>
</g>
<!-- Node3 -->
<g id="Node000003" class="node">
<title>Node3</title>
<g id="a_Node000003"><a xlink:href="_actuator_model_8_h.html" target="_top" xlink:title=" ">
<polygon fill="white" stroke="#666666" points="435.5,-233.5 251.5,-233.5 251.5,-192.5 435.5,-192.5 435.5,-233.5"/>
<text text-anchor="start" x="259.5" y="-221.5" font-family="Helvetica,sans-Serif" font-size="10.00">/home/runner/work/kynema</text>
<text text-anchor="start" x="259.5" y="-210.5" font-family="Helvetica,sans-Serif" font-size="10.00">&#45;sgf/kynema&#45;sgf/src/wind</text>
<text text-anchor="middle" x="343.5" y="-199.5" font-family="Helvetica,sans-Serif" font-size="10.00">_energy/actuator/ActuatorModel.H</text>
</a>
</g>
</g>
<!-- Node2&#45;&gt;Node3 -->
<g id="edge2_Node000002_Node000003" class="edge">
<title>Node2&#45;&gt;Node3</title>
<g id="a_edge2_Node000002_Node000003"><a xlink:title=" ">
<path fill="none" stroke="#63b8ff" d="M364.74,-271.09C360.17,-258.81 354.96,-244.8 350.84,-233.74"/>
<polygon fill="#63b8ff" stroke="#63b8ff" points="361.47,-272.33 368.24,-280.49 368.03,-269.89 361.47,-272.33"/>
</a>
</g>
</g>
<!-- Node4 -->
<g id="Node000004" class="node">
<title>Node4</title>
<g id="a_Node000004"><a xlink:href="_actuator_8_h.html" target="_top" xlink:title=" ">
<polygon fill="white" stroke="#666666" points="335,-140 182,-140 182,-99 335,-99 335,-140"/>
<text text-anchor="start" x="190" y="-128" font-family="Helvetica,sans-Serif" font-size="10.00">/home/runner/work/kynema</text>
<text text-anchor="start" x="190" y="-117" font-family="Helvetica,sans-Serif" font-size="10.00">&#45;sgf/kynema&#45;sgf/src/wind</text>
<text text-anchor="middle" x="258.5" y="-106" font-family="Helvetica,sans-Serif" font-size="10.00">_energy/actuator/Actuator.H</text>
</a>
</g>
</g>
<!-- Node3&#45;&gt;Node4 -->
<g id="edge3_Node000003_Node000004" class="edge">
<title>Node3&#45;&gt;Node4</title>
<g id="a_edge3_Node000003_Node000004"><a xlink:title=" ">
<path fill="none" stroke="#63b8ff" d="M317.97,-184.52C304.64,-170.17 288.66,-152.96 276.62,-140"/>
<polygon fill="#63b8ff" stroke="#63b8ff" points="315.69,-187.2 325.06,-192.15 320.81,-182.44 315.69,-187.2"/>
</a>
</g>
</g>
<!-- Node8 -->
<g id="Node000008" class="node">
<title>Node8</title>
<g id="a_Node000008"><a xlink:href="_actuator_disk_8cpp.html" target="_top" xlink:title=" ">
<polygon fill="white" stroke="#666666" points="1380,-140 1171,-140 1171,-99 1380,-99 1380,-140"/>
<text text-anchor="start" x="1179" y="-128" font-family="Helvetica,sans-Serif" font-size="10.00">/home/runner/work/kynema</text>
<text text-anchor="start" x="1179" y="-117" font-family="Helvetica,sans-Serif" font-size="10.00">&#45;sgf/kynema&#45;sgf/src/wind</text>
<text text-anchor="middle" x="1275.5" y="-106" font-family="Helvetica,sans-Serif" font-size="10.00">_energy/actuator/disk/ActuatorDisk.cpp</text>
</a>
</g>
</g>
<!-- Node3&#45;&gt;Node8 -->
<g id="edge7_Node000003_Node000008" class="edge">
<title>Node3&#45;&gt;Node8</title>
<g id="a_edge7_Node000003_Node000008"><a xlink:title=" ">
<path fill="none" stroke="#63b8ff" d="M425.31,-190.36C431.77,-189.08 438.23,-187.93 444.5,-187 746.93,-142.06 828.35,-190.8 1131.5,-151 1151.9,-148.32 1173.7,-144.31 1194.02,-140.07"/>
<polygon fill="#63b8ff" stroke="#63b8ff" points="424.24,-187.01 415.17,-192.49 425.67,-193.86 424.24,-187.01"/>
</a>
</g>
</g>
<!-- Node9 -->
<g id="Node000009" class="node">
<title>Node9</title>
<g id="a_Node000009"><a xlink:href="_turbine_fast_8cpp.html" target="_top" xlink:title=" ">
<polygon fill="white" stroke="#666666" points="1225,-52 1074,-52 1074,0 1225,0 1225,-52"/>
<text text-anchor="start" x="1082" y="-40" font-family="Helvetica,sans-Serif" font-size="10.00">/home/runner/work/kynema</text>
<text text-anchor="start" x="1082" y="-29" font-family="Helvetica,sans-Serif" font-size="10.00">&#45;sgf/kynema&#45;sgf/src/wind</text>
<text text-anchor="start" x="1082" y="-18" font-family="Helvetica,sans-Serif" font-size="10.00">_energy/actuator/turbine</text>
<text text-anchor="middle" x="1149.5" y="-7" font-family="Helvetica,sans-Serif" font-size="10.00">/fast/TurbineFast.cpp</text>
</a>
</g>
</g>
<!-- Node3&#45;&gt;Node9 -->
<g id="edge8_Node000003_Node000009" class="edge">
<title>Node3&#45;&gt;Node9</title>
<g id="a_edge8_Node000003_Node000009"><a xlink:title=" ">
<path fill="none" stroke="#63b8ff" d="M345.17,-182.33C348.53,-153.3 358.46,-110.3 387.5,-88 441.12,-46.83 892.08,-32.55 1073.93,-28.44"/>
<polygon fill="#63b8ff" stroke="#63b8ff" points="341.68,-182.03 344.21,-192.32 348.65,-182.71 341.68,-182.03"/>
</a>
</g>
</g>
<!-- Node10 -->
<g id="Node000010" class="node">
<title>Node10</title>
<g id="a_Node000010"><a xlink:href="_turbine_kynema_f_m_b_8cpp.html" target="_top" xlink:title=" ">
<polygon fill="white" stroke="#666666" points="1690,-52 1487,-52 1487,0 1690,0 1690,-52"/>
<text text-anchor="start" x="1495" y="-40" font-family="Helvetica,sans-Serif" font-size="10.00">/home/runner/work/kynema</text>
<text text-anchor="start" x="1495" y="-29" font-family="Helvetica,sans-Serif" font-size="10.00">&#45;sgf/kynema&#45;sgf/src/wind</text>
<text text-anchor="start" x="1495" y="-18" font-family="Helvetica,sans-Serif" font-size="10.00">_energy/actuator/turbine</text>
<text text-anchor="middle" x="1588.5" y="-7" font-family="Helvetica,sans-Serif" font-size="10.00">/kynema_fmb/TurbineKynemaFMB.cpp</text>
</a>
</g>
</g>
<!-- Node3&#45;&gt;Node10 -->
<g id="edge9_Node000003_Node000010" class="edge">
<title>Node3&#45;&gt;Node10</title>
<g id="a_edge9_Node000003_Node000010"><a xlink:title=" ">
<path fill="none" stroke="#63b8ff" d="M362.4,-183.8C369.17,-173.55 376.78,-161.82 383.5,-151 400.63,-123.41 392.68,-104.75 420.5,-88 498.06,-41.3 1144.12,-57.19 1234.5,-52 1319.54,-47.12 1415.97,-40.22 1486.69,-34.9"/>
<polygon fill="#63b8ff" stroke="#63b8ff" points="359.33,-182.11 356.72,-192.38 365.16,-185.98 359.33,-182.11"/>
</a>
</g>
</g>
<!-- Node11 -->
<g id="Node000011" class="node">
<title>Node11</title>
<g id="a_Node000011"><a xlink:href="_fixed_wing_8cpp.html" target="_top" xlink:title=" ">
<polygon fill="white" stroke="#666666" points="629,-140 430,-140 430,-99 629,-99 629,-140"/>
<text text-anchor="start" x="438" y="-128" font-family="Helvetica,sans-Serif" font-size="10.00">/home/runner/work/kynema</text>
<text text-anchor="start" x="438" y="-117" font-family="Helvetica,sans-Serif" font-size="10.00">&#45;sgf/kynema&#45;sgf/src/wind</text>
<text text-anchor="middle" x="529.5" y="-106" font-family="Helvetica,sans-Serif" font-size="10.00">_energy/actuator/wing/FixedWing.cpp</text>
</a>
</g>
</g>
<!-- Node3&#45;&gt;Node11 -->
<g id="edge10_Node000003_Node000011" class="edge">
<title>Node3&#45;&gt;Node11</title>
<g id="a_edge10_Node000003_Node000011"><a xlink:title=" ">
<path fill="none" stroke="#63b8ff" d="M392.53,-187.88C422.84,-172.97 461.24,-154.08 489.66,-140.1"/>
<polygon fill="#63b8ff" stroke="#63b8ff" points="390.83,-184.82 383.4,-192.37 393.92,-191.1 390.83,-184.82"/>
</a>
</g>
</g>
<!-- Node12 -->
<g id="Node000012" class="node">
<title>Node12</title>
<g id="a_Node000012"><a xlink:href="_flat_plate_8cpp.html" target="_top" xlink:title=" ">
<polygon fill="white" stroke="#666666" points="869.5,-140 677.5,-140 677.5,-99 869.5,-99 869.5,-140"/>
<text text-anchor="start" x="685.5" y="-128" font-family="Helvetica,sans-Serif" font-size="10.00">/home/runner/work/kynema</text>
<text text-anchor="start" x="685.5" y="-117" font-family="Helvetica,sans-Serif" font-size="10.00">&#45;sgf/kynema&#45;sgf/src/wind</text>
<text text-anchor="middle" x="773.5" y="-106" font-family="Helvetica,sans-Serif" font-size="10.00">_energy/actuator/wing/FlatPlate.cpp</text>
</a>
</g>
</g>
<!-- Node3&#45;&gt;Node12 -->
<g id="edge11_Node000003_Node000012" class="edge">
<title>Node3&#45;&gt;Node12</title>
<g id="a_edge11_Node000003_Node000012"><a xlink:title=" ">
<path fill="none" stroke="#63b8ff" d="M430.24,-190.18C435.06,-189.08 439.84,-188.01 444.5,-187 529.78,-168.51 552.03,-168.55 637.5,-151 654.09,-147.59 671.78,-143.77 688.72,-140.01"/>
<polygon fill="#63b8ff" stroke="#63b8ff" points="429.27,-186.82 420.32,-192.49 430.85,-193.64 429.27,-186.82"/>
</a>
</g>
</g>
<!-- Node5 -->
<g id="Node000005" class="node">
<title>Node5</title>
<g id="a_Node000005"><a xlink:href="_actuator_forcing_8cpp.html" target="_top" xlink:title=" ">
<polygon fill="white" stroke="#666666" points="159,-52 0,-52 0,0 159,0 159,-52"/>
<text text-anchor="start" x="8" y="-40" font-family="Helvetica,sans-Serif" font-size="10.00">/home/runner/work/kynema</text>
<text text-anchor="start" x="8" y="-29" font-family="Helvetica,sans-Serif" font-size="10.00">&#45;sgf/kynema&#45;sgf/src/equation</text>
<text text-anchor="start" x="8" y="-18" font-family="Helvetica,sans-Serif" font-size="10.00">_systems/icns/source_terms</text>
<text text-anchor="middle" x="79.5" y="-7" font-family="Helvetica,sans-Serif" font-size="10.00">/ActuatorForcing.cpp</text>
</a>
</g>
</g>
<!-- Node4&#45;&gt;Node5 -->
<g id="edge4_Node000004_Node000005" class="edge">
<title>Node4&#45;&gt;Node5</title>
<g id="a_edge4_Node000004_Node000005"><a xlink:title=" ">
<path fill="none" stroke="#63b8ff" d="M210.99,-94.22C185.5,-81.18 154.12,-65.14 128.41,-52"/>
<polygon fill="#63b8ff" stroke="#63b8ff" points="209.6,-97.44 220.1,-98.87 212.79,-91.2 209.6,-97.44"/>
</a>
</g>
</g>
<!-- Node6 -->
<g id="Node000006" class="node">
<title>Node6</title>
<g id="a_Node000006"><a xlink:href="_actuator_8cpp.html" target="_top" xlink:title=" ">
<polygon fill="white" stroke="#666666" points="340,-46.5 177,-46.5 177,-5.5 340,-5.5 340,-46.5"/>
<text text-anchor="start" x="185" y="-34.5" font-family="Helvetica,sans-Serif" font-size="10.00">/home/runner/work/kynema</text>
<text text-anchor="start" x="185" y="-23.5" font-family="Helvetica,sans-Serif" font-size="10.00">&#45;sgf/kynema&#45;sgf/src/wind</text>
<text text-anchor="middle" x="258.5" y="-12.5" font-family="Helvetica,sans-Serif" font-size="10.00">_energy/actuator/Actuator.cpp</text>
</a>
</g>
</g>
<!-- Node4&#45;&gt;Node6 -->
<g id="edge5_Node000004_Node000006" class="edge">
<title>Node4&#45;&gt;Node6</title>
<g id="a_edge5_Node000004_Node000006"><a xlink:title=" ">
<path fill="none" stroke="#63b8ff" d="M258.5,-88.6C258.5,-74.77 258.5,-58.74 258.5,-46.5"/>
<polygon fill="#63b8ff" stroke="#63b8ff" points="255,-88.65 258.5,-98.65 262,-88.65 255,-88.65"/>
</a>
</g>
</g>
<!-- Node7 -->
<g id="Node000007" class="node">
<title>Node7</title>
<g id="a_Node000007"><a xlink:href="_actuator_container_8cpp.html" target="_top" xlink:title=" ">
<polygon fill="white" stroke="#666666" points="568.5,-46.5 358.5,-46.5 358.5,-5.5 568.5,-5.5 568.5,-46.5"/>
<text text-anchor="start" x="366.5" y="-34.5" font-family="Helvetica,sans-Serif" font-size="10.00">/home/runner/work/kynema</text>
<text text-anchor="start" x="366.5" y="-23.5" font-family="Helvetica,sans-Serif" font-size="10.00">&#45;sgf/kynema&#45;sgf/src/wind</text>
<text text-anchor="middle" x="463.5" y="-12.5" font-family="Helvetica,sans-Serif" font-size="10.00">_energy/actuator/ActuatorContainer.cpp</text>
</a>
</g>
</g>
<!-- Node4&#45;&gt;Node7 -->
<g id="edge6_Node000004_Node000007" class="edge">
<title>Node4&#45;&gt;Node7</title>
<g id="a_edge6_Node000004_Node000007"><a xlink:title=" ">
<path fill="none" stroke="#63b8ff" d="M311.42,-94.88C344.96,-79.91 387.82,-60.78 419.49,-46.64"/>
<polygon fill="#63b8ff" stroke="#63b8ff" points="309.93,-91.71 302.23,-98.98 312.78,-98.1 309.93,-91.71"/>
</a>
</g>
</g>
<!-- Node14 -->
<g id="Node000014" class="node">
<title>Node14</title>
<g id="a_Node000014"><a xlink:href="actuator__ops_8_h.html" target="_top" xlink:title=" ">
<polygon fill="white" stroke="#666666" points="897.5,-409.5 721.5,-409.5 721.5,-368.5 897.5,-368.5 897.5,-409.5"/>
<text text-anchor="start" x="729.5" y="-397.5" font-family="Helvetica,sans-Serif" font-size="10.00">/home/runner/work/kynema</text>
<text text-anchor="start" x="729.5" y="-386.5" font-family="Helvetica,sans-Serif" font-size="10.00">&#45;sgf/kynema&#45;sgf/src/wind</text>
<text text-anchor="middle" x="809.5" y="-375.5" font-family="Helvetica,sans-Serif" font-size="10.00">_energy/actuator/actuator_ops.H</text>
</a>
</g>
</g>
<!-- Node13&#45;&gt;Node14 -->
<g id="edge13_Node000013_Node000014" class="edge">
<title>Node13&#45;&gt;Node14</title>
<g id="a_edge13_Node000013_Node000014"><a xlink:title=" ">
<path fill="none" stroke="#63b8ff" d="M811.47,-446.36C811.04,-434.26 810.57,-420.58 810.19,-409.74"/>
<polygon fill="#63b8ff" stroke="#63b8ff" points="807.97,-446.61 811.82,-456.49 814.97,-446.37 807.97,-446.61"/>
</a>
</g>
</g>
<!-- Node14&#45;&gt;Node2 -->
<g id="edge14_Node000014_Node000002" class="edge">
<title>Node14&#45;&gt;Node2</title>
<g id="a_edge14_Node000014_Node000002"><a xlink:title=" ">
<path fill="none" stroke="#63b8ff" d="M711.48,-371.55C645.22,-360.04 555.85,-343.78 477.5,-327 469.57,-325.3 461.31,-323.44 453.08,-321.52"/>
<polygon fill="#63b8ff" stroke="#63b8ff" points="711.05,-375.02 721.5,-373.28 712.24,-368.13 711.05,-375.02"/>
</a>
</g>
</g>
<!-- Node14&#45;&gt;Node3 -->
<g id="edge15_Node000014_Node000003" class="edge">
<title>Node14&#45;&gt;Node3</title>
<g id="a_edge15_Node000014_Node000003"><a xlink:title=" ">
<path fill="none" stroke="#63b8ff" d="M711.27,-385.77C649.42,-380.26 570.27,-365.35 510.5,-327 486.41,-311.54 494.56,-293.24 472.5,-275 451.21,-257.4 423.99,-243.56 400.05,-233.54"/>
<polygon fill="#63b8ff" stroke="#63b8ff" points="711.18,-389.27 721.43,-386.6 711.75,-382.3 711.18,-389.27"/>
</a>
</g>
</g>
<!-- Node14&#45;&gt;Node15 -->
<g id="edge16_Node000014_Node000015" class="edge">
<title>Node14&#45;&gt;Node15</title>
<g id="a_edge16_Node000014_Node000015"><a xlink:title=" ">
<path fill="none" stroke="#63b8ff" d="M757.3,-364.25C727.81,-350.83 691.39,-334.26 663.54,-321.59"/>
<polygon fill="#63b8ff" stroke="#63b8ff" points="756.06,-367.53 766.61,-368.49 758.96,-361.16 756.06,-367.53"/>
</a>
</g>
</g>
<!-- Node16 -->
<g id="Node000016" class="node">
<title>Node16</title>
<g id="a_Node000016"><a xlink:href="disk__ops_8_h.html" target="_top" xlink:title=" ">
<polygon fill="white" stroke="#666666" points="1197,-321.5 1018,-321.5 1018,-280.5 1197,-280.5 1197,-321.5"/>
<text text-anchor="start" x="1026" y="-309.5" font-family="Helvetica,sans-Serif" font-size="10.00">/home/runner/work/kynema</text>
<text text-anchor="start" x="1026" y="-298.5" font-family="Helvetica,sans-Serif" font-size="10.00">&#45;sgf/kynema&#45;sgf/src/wind</text>
<text text-anchor="middle" x="1107.5" y="-287.5" font-family="Helvetica,sans-Serif" font-size="10.00">_energy/actuator/disk/disk_ops.H</text>
</a>
</g>
</g>
<!-- Node14&#45;&gt;Node16 -->
<g id="edge18_Node000014_Node000016" class="edge">
<title>Node14&#45;&gt;Node16</title>
<g id="a_edge18_Node000014_Node000016"><a xlink:title=" ">
<path fill="none" stroke="#63b8ff" d="M886.73,-365.71C934.17,-352.02 994.35,-334.66 1039.89,-321.51"/>
<polygon fill="#63b8ff" stroke="#63b8ff" points="885.76,-362.35 877.12,-368.49 887.7,-369.08 885.76,-362.35"/>
</a>
</g>
</g>
<!-- Node14&#45;&gt;Node22 -->
<g id="edge27_Node000014_Node000022" class="edge">
<title>Node14&#45;&gt;Node22</title>
<g id="a_edge27_Node000014_Node000022"><a xlink:title=" ">
<path fill="none" stroke="#63b8ff" d="M711.03,-381.89C603.63,-374.03 427.06,-357.58 277.5,-327 274.82,-326.45 272.1,-325.86 269.35,-325.22"/>
<polygon fill="#63b8ff" stroke="#63b8ff" points="710.98,-385.4 721.21,-382.63 711.49,-378.42 710.98,-385.4"/>
</a>
</g>
</g>
<!-- Node14&#45;&gt;Node23 -->
<g id="edge29_Node000014_Node000023" class="edge">
<title>Node14&#45;&gt;Node23</title>
<g id="a_edge29_Node000014_Node000023"><a xlink:title=" ">
<path fill="none" stroke="#63b8ff" d="M890.9,-366.19C896.16,-365.04 901.4,-363.96 906.5,-363 1038.48,-338.19 1074.17,-349.83 1206.5,-327 1351.86,-301.92 1518.59,-261.95 1618.09,-236.88"/>
<polygon fill="#63b8ff" stroke="#63b8ff" points="889.75,-362.86 880.77,-368.49 891.3,-369.69 889.75,-362.86"/>
</a>
</g>
</g>
<!-- Node14&#45;&gt;Node26 -->
<g id="edge34_Node000014_Node000026" class="edge">
<title>Node14&#45;&gt;Node26</title>
<g id="a_edge34_Node000014_Node000026"><a xlink:title=" ">
<path fill="none" stroke="#63b8ff" d="M888.67,-366.29C894.68,-365.04 900.67,-363.92 906.5,-363 1160.71,-322.7 1229.97,-365.22 1484.5,-327 1489.09,-326.31 1493.78,-325.52 1498.5,-324.65"/>
<polygon fill="#63b8ff" stroke="#63b8ff" points="887.6,-362.94 878.58,-368.49 889.09,-369.78 887.6,-362.94"/>
</a>
</g>
</g>
<!-- Node27 -->
<g id="Node000027" class="node">
<title>Node27</title>
<g id="a_Node000027"><a xlink:href="fixed__wing__ops_8_h.html" target="_top" xlink:title=" ">
<polygon fill="white" stroke="#666666" points="605.5,-239 453.5,-239 453.5,-187 605.5,-187 605.5,-239"/>
<text text-anchor="start" x="461.5" y="-227" font-family="Helvetica,sans-Serif" font-size="10.00">/home/runner/work/kynema</text>
<text text-anchor="start" x="461.5" y="-216" font-family="Helvetica,sans-Serif" font-size="10.00">&#45;sgf/kynema&#45;sgf/src/wind</text>
<text text-anchor="start" x="461.5" y="-205" font-family="Helvetica,sans-Serif" font-size="10.00">_energy/actuator/wing/fixed</text>
<text text-anchor="middle" x="529.5" y="-194" font-family="Helvetica,sans-Serif" font-size="10.00">_wing_ops.H</text>
</a>
</g>
</g>
<!-- Node14&#45;&gt;Node27 -->
<g id="edge36_Node000014_Node000027" class="edge">
<title>Node14&#45;&gt;Node27</title>
<g id="a_edge36_Node000014_Node000027"><a xlink:title=" ">
<path fill="none" stroke="#63b8ff" d="M790.28,-360.04C767.58,-327.07 732.58,-276.51 730.5,-275 727.78,-273.03 661.47,-253.08 605.75,-236.52"/>
<polygon fill="#63b8ff" stroke="#63b8ff" points="787.49,-362.16 796.05,-368.41 793.26,-358.19 787.49,-362.16"/>
</a>
</g>
</g>
<!-- Node28 -->
<g id="Node000028" class="node">
<title>Node28</title>
<g id="a_Node000028"><a xlink:href="flat__plate__ops_8_h.html" target="_top" xlink:title=" ">
<polygon fill="white" stroke="#666666" points="945,-239 794,-239 794,-187 945,-187 945,-239"/>
<text text-anchor="start" x="802" y="-227" font-family="Helvetica,sans-Serif" font-size="10.00">/home/runner/work/kynema</text>
<text text-anchor="start" x="802" y="-216" font-family="Helvetica,sans-Serif" font-size="10.00">&#45;sgf/kynema&#45;sgf/src/wind</text>
<text text-anchor="start" x="802" y="-205" font-family="Helvetica,sans-Serif" font-size="10.00">_energy/actuator/wing/flat</text>
<text text-anchor="middle" x="869.5" y="-194" font-family="Helvetica,sans-Serif" font-size="10.00">_plate_ops.H</text>
</a>
</g>
</g>
<!-- Node14&#45;&gt;Node28 -->
<g id="edge38_Node000014_Node000028" class="edge">
<title>Node14&#45;&gt;Node28</title>
<g id="a_edge38_Node000014_Node000028"><a xlink:title=" ">
<path fill="none" stroke="#63b8ff" d="M894.83,-365.26C928.23,-354.49 960.88,-340.94 970.5,-327 983.63,-307.98 981.86,-295.13 970.5,-275 961.99,-259.92 948.1,-248.16 933.3,-239.15"/>
<polygon fill="#63b8ff" stroke="#63b8ff" points="893.42,-362.03 884.93,-368.37 895.52,-368.71 893.42,-362.03"/>
</a>
</g>
</g>
<!-- Node29 -->
<g id="Node000029" class="node">
<title>Node29</title>
<g id="a_Node000029"><a xlink:href="wing__ops_8_h.html" target="_top" xlink:title=" ">
<polygon fill="white" stroke="#666666" points="962,-321.5 777,-321.5 777,-280.5 962,-280.5 962,-321.5"/>
<text text-anchor="start" x="785" y="-309.5" font-family="Helvetica,sans-Serif" font-size="10.00">/home/runner/work/kynema</text>
<text text-anchor="start" x="785" y="-298.5" font-family="Helvetica,sans-Serif" font-size="10.00">&#45;sgf/kynema&#45;sgf/src/wind</text>
<text text-anchor="middle" x="869.5" y="-287.5" font-family="Helvetica,sans-Serif" font-size="10.00">_energy/actuator/wing/wing_ops.H</text>
</a>
</g>
</g>
<!-- Node14&#45;&gt;Node29 -->
<g id="edge40_Node000014_Node000029" class="edge">
<title>Node14&#45;&gt;Node29</title>
<g id="a_edge40_Node000014_Node000029"><a xlink:title=" ">
<path fill="none" stroke="#63b8ff" d="M828.91,-360.18C837.65,-347.64 847.78,-333.13 855.73,-321.74"/>
<polygon fill="#63b8ff" stroke="#63b8ff" points="825.97,-358.28 823.11,-368.49 831.71,-362.29 825.97,-358.28"/>
</a>
</g>
</g>
<!-- Node15&#45;&gt;Node3 -->
<g id="edge17_Node000015_Node000003" class="edge">
<title>Node15&#45;&gt;Node3</title>
<g id="a_edge17_Node000015_Node000003"><a xlink:title=" ">
<path fill="none" stroke="#63b8ff" d="M547.9,-277.46C504.02,-263.84 448.63,-246.64 406.59,-233.59"/>
<polygon fill="#63b8ff" stroke="#63b8ff" points="547.06,-280.86 557.64,-280.49 549.13,-274.18 547.06,-280.86"/>
</a>
</g>
</g>
<!-- Node17 -->
<g id="Node000017" class="node">
<title>Node17</title>
<g id="a_Node000017"><a xlink:href="_joukowsky__ops_8_h.html" target="_top" xlink:title=" ">
<polygon fill="white" stroke="#666666" points="1380,-233.5 1171,-233.5 1171,-192.5 1380,-192.5 1380,-233.5"/>
<text text-anchor="start" x="1179" y="-221.5" font-family="Helvetica,sans-Serif" font-size="10.00">/home/runner/work/kynema</text>
<text text-anchor="start" x="1179" y="-210.5" font-family="Helvetica,sans-Serif" font-size="10.00">&#45;sgf/kynema&#45;sgf/src/wind</text>
<text text-anchor="middle" x="1275.5" y="-199.5" font-family="Helvetica,sans-Serif" font-size="10.00">_energy/actuator/disk/Joukowsky_ops.H</text>
</a>
</g>
</g>
<!-- Node16&#45;&gt;Node17 -->
<g id="edge19_Node000016_Node000017" class="edge">
<title>Node16&#45;&gt;Node17</title>
<g id="a_edge19_Node000016_Node000017"><a xlink:title=" ">
<path fill="none" stroke="#63b8ff" d="M1154.58,-275.9C1180.68,-262.54 1212.7,-246.15 1237.24,-233.59"/>
<polygon fill="#63b8ff" stroke="#63b8ff" points="1152.93,-272.81 1145.62,-280.49 1156.12,-279.04 1152.93,-272.81"/>
</a>
</g>
</g>
<!-- Node18 -->
<g id="Node000018" class="node">
<title>Node18</title>
<g id="a_Node000018"><a xlink:href="_joukowsky__ops_8cpp.html" target="_top" xlink:title=" ">
<polygon fill="white" stroke="#666666" points="1122.5,-145.5 946.5,-145.5 946.5,-93.5 1122.5,-93.5 1122.5,-145.5"/>
<text text-anchor="start" x="954.5" y="-133.5" font-family="Helvetica,sans-Serif" font-size="10.00">/home/runner/work/kynema</text>
<text text-anchor="start" x="954.5" y="-122.5" font-family="Helvetica,sans-Serif" font-size="10.00">&#45;sgf/kynema&#45;sgf/src/wind</text>
<text text-anchor="start" x="954.5" y="-111.5" font-family="Helvetica,sans-Serif" font-size="10.00">_energy/actuator/disk/Joukowsky</text>
<text text-anchor="middle" x="1034.5" y="-100.5" font-family="Helvetica,sans-Serif" font-size="10.00">_ops.cpp</text>
</a>
</g>
</g>
<!-- Node16&#45;&gt;Node18 -->
<g id="edge22_Node000016_Node000018" class="edge">
<title>Node16&#45;&gt;Node18</title>
<g id="a_edge22_Node000016_Node000018"><a xlink:title=" ">
<path fill="none" stroke="#63b8ff" d="M1033.48,-275.72C1017.23,-266.8 1002.03,-254.85 992.5,-239 974.61,-209.26 995.15,-170.75 1013.27,-145.84"/>
<polygon fill="#63b8ff" stroke="#63b8ff" points="1032.1,-278.95 1042.6,-280.38 1035.28,-272.71 1032.1,-278.95"/>
</a>
</g>
</g>
<!-- Node19 -->
<g id="Node000019" class="node">
<title>Node19</title>
<g id="a_Node000019"><a xlink:href="disk__ops_8cpp.html" target="_top" xlink:title=" ">
<polygon fill="white" stroke="#666666" points="1153,-239 1002,-239 1002,-187 1153,-187 1153,-239"/>
<text text-anchor="start" x="1010" y="-227" font-family="Helvetica,sans-Serif" font-size="10.00">/home/runner/work/kynema</text>
<text text-anchor="start" x="1010" y="-216" font-family="Helvetica,sans-Serif" font-size="10.00">&#45;sgf/kynema&#45;sgf/src/wind</text>
<text text-anchor="start" x="1010" y="-205" font-family="Helvetica,sans-Serif" font-size="10.00">_energy/actuator/disk/disk</text>
<text text-anchor="middle" x="1077.5" y="-194" font-family="Helvetica,sans-Serif" font-size="10.00">_ops.cpp</text>
</a>
</g>
</g>
<!-- Node16&#45;&gt;Node19 -->
<g id="edge23_Node000016_Node000019" class="edge">
<title>Node16&#45;&gt;Node19</title>
<g id="a_edge23_Node000016_Node000019"><a xlink:title=" ">
<path fill="none" stroke="#63b8ff" d="M1097.3,-270.76C1093.74,-260.55 1089.77,-249.18 1086.33,-239.32"/>
<polygon fill="#63b8ff" stroke="#63b8ff" points="1094.09,-272.2 1100.69,-280.49 1100.7,-269.89 1094.09,-272.2"/>
</a>
</g>
</g>
<!-- Node20 -->
<g id="Node000020" class="node">
<title>Node20</title>
<g id="a_Node000020"><a xlink:href="uniform__ct__ops_8_h.html" target="_top" xlink:title=" ">
<polygon fill="white" stroke="#666666" points="1562.5,-239 1398.5,-239 1398.5,-187 1562.5,-187 1562.5,-239"/>
<text text-anchor="start" x="1406.5" y="-227" font-family="Helvetica,sans-Serif" font-size="10.00">/home/runner/work/kynema</text>
<text text-anchor="start" x="1406.5" y="-216" font-family="Helvetica,sans-Serif" font-size="10.00">&#45;sgf/kynema&#45;sgf/src/wind</text>
<text text-anchor="start" x="1406.5" y="-205" font-family="Helvetica,sans-Serif" font-size="10.00">_energy/actuator/disk/uniform</text>
<text text-anchor="middle" x="1480.5" y="-194" font-family="Helvetica,sans-Serif" font-size="10.00">_ct_ops.H</text>
</a>
</g>
</g>
<!-- Node16&#45;&gt;Node20 -->
<g id="edge24_Node000016_Node000020" class="edge">
<title>Node16&#45;&gt;Node20</title>
<g id="a_edge24_Node000016_Node000020"><a xlink:title=" ">
<path fill="none" stroke="#63b8ff" d="M1206.95,-279.88C1261.1,-268.58 1329.16,-253.8 1389.5,-239 1392.36,-238.3 1395.28,-237.57 1398.21,-236.82"/>
<polygon fill="#63b8ff" stroke="#63b8ff" points="1206.09,-276.49 1197.01,-281.95 1207.51,-283.34 1206.09,-276.49"/>
</a>
</g>
</g>
<!-- Node17&#45;&gt;Node8 -->
<g id="edge20_Node000017_Node000008" class="edge">
<title>Node17&#45;&gt;Node8</title>
<g id="a_edge20_Node000017_Node000008"><a xlink:title=" ">
<path fill="none" stroke="#63b8ff" d="M1275.5,-182.1C1275.5,-168.27 1275.5,-152.24 1275.5,-140"/>
<polygon fill="#63b8ff" stroke="#63b8ff" points="1272,-182.15 1275.5,-192.15 1279,-182.15 1272,-182.15"/>
</a>
</g>
</g>
<!-- Node17&#45;&gt;Node18 -->
<g id="edge21_Node000017_Node000018" class="edge">
<title>Node17&#45;&gt;Node18</title>
<g id="a_edge21_Node000017_Node000018"><a xlink:title=" ">
<path fill="none" stroke="#63b8ff" d="M1214.53,-188.85C1179.74,-175.64 1136.1,-159.08 1100.51,-145.56"/>
<polygon fill="#63b8ff" stroke="#63b8ff" points="1213.5,-192.21 1224.1,-192.48 1215.99,-185.66 1213.5,-192.21"/>
</a>
</g>
</g>
<!-- Node20&#45;&gt;Node8 -->
<g id="edge25_Node000020_Node000008" class="edge">
<title>Node20&#45;&gt;Node8</title>
<g id="a_edge25_Node000020_Node000008"><a xlink:title=" ">
<path fill="none" stroke="#63b8ff" d="M1414.98,-182.76C1383.76,-168.82 1347.26,-152.53 1319.43,-140.11"/>
<polygon fill="#63b8ff" stroke="#63b8ff" points="1413.92,-186.12 1424.48,-187 1416.78,-179.73 1413.92,-186.12"/>
</a>
</g>
</g>
<!-- Node21 -->
<g id="Node000021" class="node">
<title>Node21</title>
<g id="a_Node000021"><a xlink:href="uniform__ct__ops_8cpp.html" target="_top" xlink:title=" ">
<polygon fill="white" stroke="#666666" points="1562.5,-145.5 1398.5,-145.5 1398.5,-93.5 1562.5,-93.5 1562.5,-145.5"/>
<text text-anchor="start" x="1406.5" y="-133.5" font-family="Helvetica,sans-Serif" font-size="10.00">/home/runner/work/kynema</text>
<text text-anchor="start" x="1406.5" y="-122.5" font-family="Helvetica,sans-Serif" font-size="10.00">&#45;sgf/kynema&#45;sgf/src/wind</text>
<text text-anchor="start" x="1406.5" y="-111.5" font-family="Helvetica,sans-Serif" font-size="10.00">_energy/actuator/disk/uniform</text>
<text text-anchor="middle" x="1480.5" y="-100.5" font-family="Helvetica,sans-Serif" font-size="10.00">_ct_ops.cpp</text>
</a>
</g>
</g>
<!-- Node20&#45;&gt;Node21 -->
<g id="edge26_Node000020_Node000021" class="edge">
<title>Node20&#45;&gt;Node21</title>
<g id="a_edge26_Node000020_Node000021"><a xlink:title=" ">
<path fill="none" stroke="#63b8ff" d="M1480.5,-176.96C1480.5,-166.58 1480.5,-155.42 1480.5,-145.79"/>
<polygon fill="#63b8ff" stroke="#63b8ff" points="1477,-177 1480.5,-187 1484,-177 1477,-177"/>
</a>
</g>
</g>
<!-- Node22&#45;&gt;Node3 -->
<g id="edge28_Node000022_Node000003" class="edge">
<title>Node22&#45;&gt;Node3</title>
<g id="a_edge28_Node000022_Node000003"><a xlink:title=" ">
<path fill="none" stroke="#63b8ff" d="M246.12,-269.83C267.13,-257.78 290.73,-244.25 309.43,-233.53"/>
<polygon fill="#63b8ff" stroke="#63b8ff" points="244.22,-266.88 237.29,-274.89 247.71,-272.96 244.22,-266.88"/>
</a>
</g>
</g>
<!-- Node24 -->
<g id="Node000024" class="node">
<title>Node24</title>
<g id="a_Node000024"><a xlink:href="turbine__fast__ops_8_h.html" target="_top" xlink:title=" ">
<polygon fill="white" stroke="#666666" points="1732,-145.5 1581,-145.5 1581,-93.5 1732,-93.5 1732,-145.5"/>
<text text-anchor="start" x="1589" y="-133.5" font-family="Helvetica,sans-Serif" font-size="10.00">/home/runner/work/kynema</text>
<text text-anchor="start" x="1589" y="-122.5" font-family="Helvetica,sans-Serif" font-size="10.00">&#45;sgf/kynema&#45;sgf/src/wind</text>
<text text-anchor="start" x="1589" y="-111.5" font-family="Helvetica,sans-Serif" font-size="10.00">_energy/actuator/turbine</text>
<text text-anchor="middle" x="1656.5" y="-100.5" font-family="Helvetica,sans-Serif" font-size="10.00">/fast/turbine_fast_ops.H</text>
</a>
</g>
</g>
<!-- Node23&#45;&gt;Node24 -->
<g id="edge30_Node000023_Node000024" class="edge">
<title>Node23&#45;&gt;Node24</title>
<g id="a_edge30_Node000023_Node000024"><a xlink:title=" ">
<path fill="none" stroke="#63b8ff" d="M1687.88,-177.93C1682.06,-167.28 1675.75,-155.73 1670.32,-145.79"/>
<polygon fill="#63b8ff" stroke="#63b8ff" points="1684.97,-179.9 1692.84,-187 1691.11,-176.54 1684.97,-179.9"/>
</a>
</g>
</g>
<!-- Node25 -->
<g id="Node000025" class="node">
<title>Node25</title>
<g id="a_Node000025"><a xlink:href="turbine__kynema__fmb__ops_8_h.html" target="_top" xlink:title=" ">
<polygon fill="white" stroke="#666666" points="1915,-151 1750,-151 1750,-88 1915,-88 1915,-151"/>
<text text-anchor="start" x="1758" y="-139" font-family="Helvetica,sans-Serif" font-size="10.00">/home/runner/work/kynema</text>
<text text-anchor="start" x="1758" y="-128" font-family="Helvetica,sans-Serif" font-size="10.00">&#45;sgf/kynema&#45;sgf/src/wind</text>
<text text-anchor="start" x="1758" y="-117" font-family="Helvetica,sans-Serif" font-size="10.00">_energy/actuator/turbine</text>
<text text-anchor="start" x="1758" y="-106" font-family="Helvetica,sans-Serif" font-size="10.00">/kynema_fmb/turbine_kynema</text>
<text text-anchor="middle" x="1832.5" y="-95" font-family="Helvetica,sans-Serif" font-size="10.00">_fmb_ops.H</text>
</a>
</g>
</g>
<!-- Node23&#45;&gt;Node25 -->
<g id="edge32_Node000023_Node000025" class="edge">
<title>Node23&#45;&gt;Node25</title>
<g id="a_edge32_Node000023_Node000025"><a xlink:title=" ">
<path fill="none" stroke="#63b8ff" d="M1749.05,-181.1C1762.41,-171.4 1777.15,-160.69 1790.48,-151.02"/>
<polygon fill="#63b8ff" stroke="#63b8ff" points="1746.96,-178.29 1740.93,-187 1751.08,-183.95 1746.96,-178.29"/>
</a>
</g>
</g>
<!-- Node24&#45;&gt;Node9 -->
<g id="edge31_Node000024_Node000009" class="edge">
<title>Node24&#45;&gt;Node9</title>
<g id="a_edge31_Node000024_Node000009"><a xlink:title=" ">
<path fill="none" stroke="#63b8ff" d="M1580.67,-90.44C1577.59,-89.57 1574.52,-88.75 1571.5,-88 1452.26,-58.31 1310.22,-41.47 1225.09,-33.31"/>
<polygon fill="#63b8ff" stroke="#63b8ff" points="1579.96,-93.88 1590.54,-93.38 1581.96,-87.17 1579.96,-93.88"/>
</a>
</g>
</g>
<!-- Node25&#45;&gt;Node10 -->
<g id="edge33_Node000025_Node000010" class="edge">
<title>Node25&#45;&gt;Node10</title>
<g id="a_edge33_Node000025_Node000010"><a xlink:title=" ">
<path fill="none" stroke="#63b8ff" d="M1741.35,-84.32C1712.83,-73.62 1681.92,-62.03 1655.4,-52.09"/>
<polygon fill="#63b8ff" stroke="#63b8ff" points="1740.32,-87.67 1750.91,-87.9 1742.78,-81.12 1740.32,-87.67"/>
</a>
</g>
</g>
<!-- Node26&#45;&gt;Node23 -->
<g id="edge35_Node000026_Node000023" class="edge">
<title>Node26&#45;&gt;Node23</title>
<g id="a_edge35_Node000026_Node000023"><a xlink:title=" ">
<path fill="none" stroke="#63b8ff" d="M1631.09,-268.96C1644.46,-259.22 1659.05,-248.58 1671.81,-239.29"/>
<polygon fill="#63b8ff" stroke="#63b8ff" points="1628.97,-266.18 1622.95,-274.89 1633.09,-271.83 1628.97,-266.18"/>
</a>
</g>
</g>
<!-- Node27&#45;&gt;Node11 -->
<g id="edge37_Node000027_Node000011" class="edge">
<title>Node27&#45;&gt;Node11</title>
<g id="a_edge37_Node000027_Node000011"><a xlink:title=" ">
<path fill="none" stroke="#63b8ff" d="M529.5,-176.91C529.5,-164.49 529.5,-150.95 529.5,-140.26"/>
<polygon fill="#63b8ff" stroke="#63b8ff" points="526,-177 529.5,-187 533,-177 526,-177"/>
</a>
</g>
</g>
<!-- Node28&#45;&gt;Node12 -->
<g id="edge39_Node000028_Node000012" class="edge">
<title>Node28&#45;&gt;Node12</title>
<g id="a_edge39_Node000028_Node000012"><a xlink:title=" ">
<path fill="none" stroke="#63b8ff" d="M835.79,-179.87C821.94,-166.67 806.35,-151.81 794.23,-140.26"/>
<polygon fill="#63b8ff" stroke="#63b8ff" points="833.61,-182.63 843.27,-187 838.44,-177.56 833.61,-182.63"/>
</a>
</g>
</g>
<!-- Node29&#45;&gt;Node27 -->
<g id="edge41_Node000029_Node000027" class="edge">
<title>Node29&#45;&gt;Node27</title>
<g id="a_edge41_Node000029_Node000027"><a xlink:title=" ">
<path fill="none" stroke="#63b8ff" d="M776.97,-278.11C710.72,-262.39 630.5,-243.26 614.5,-239 611.68,-238.25 608.8,-237.47 605.9,-236.67"/>
<polygon fill="#63b8ff" stroke="#63b8ff" points="776.51,-281.6 787.05,-280.5 778.13,-274.79 776.51,-281.6"/>
</a>
</g>
</g>
<!-- Node29&#45;&gt;Node28 -->
<g id="edge42_Node000029_Node000028" class="edge">
<title>Node29&#45;&gt;Node28</title>
<g id="a_edge42_Node000029_Node000028"><a xlink:title=" ">
<path fill="none" stroke="#63b8ff" d="M869.5,-270.44C869.5,-260.31 869.5,-249.08 869.5,-239.32"/>
<polygon fill="#63b8ff" stroke="#63b8ff" points="866,-270.49 869.5,-280.49 873,-270.49 866,-270.49"/>
</a>
</g>
</g>
<!-- Node30 -->
<g id="Node000030" class="node">
<title>Node30</title>
<g id="a_Node000030"><a xlink:href="wing__ops_8cpp.html" target="_top" xlink:title=" ">
<polygon fill="white" stroke="#666666" points="775.5,-239 623.5,-239 623.5,-187 775.5,-187 775.5,-239"/>
<text text-anchor="start" x="631.5" y="-227" font-family="Helvetica,sans-Serif" font-size="10.00">/home/runner/work/kynema</text>
<text text-anchor="start" x="631.5" y="-216" font-family="Helvetica,sans-Serif" font-size="10.00">&#45;sgf/kynema&#45;sgf/src/wind</text>
<text text-anchor="start" x="631.5" y="-205" font-family="Helvetica,sans-Serif" font-size="10.00">_energy/actuator/wing/wing</text>
<text text-anchor="middle" x="699.5" y="-194" font-family="Helvetica,sans-Serif" font-size="10.00">_ops.cpp</text>
</a>
</g>
</g>
<!-- Node29&#45;&gt;Node30 -->
<g id="edge43_Node000029_Node000030" class="edge">
<title>Node29&#45;&gt;Node30</title>
<g id="a_edge43_Node000029_Node000030"><a xlink:title=" ">
<path fill="none" stroke="#63b8ff" d="M821.84,-275.89C799.19,-264.43 772.13,-250.74 749.23,-239.16"/>
<polygon fill="#63b8ff" stroke="#63b8ff" points="820.42,-279.09 830.92,-280.49 823.58,-272.85 820.42,-279.09"/>
</a>
</g>
</g>
<!-- Node32&#45;&gt;Node8 -->
<g id="edge48_Node000032_Node000008" class="edge">
<title>Node32&#45;&gt;Node8</title>
<g id="a_edge48_Node000032_Node000008"><a xlink:title=" ">
<path fill="none" stroke="#63b8ff" d="M1077.37,-368.84C1235.05,-333.26 1556.15,-258.8 1571.5,-239 1585.66,-220.74 1586.17,-204.86 1571.5,-187 1519.16,-123.29 1469.82,-169.67 1389.5,-151 1375.23,-147.68 1360.04,-143.84 1345.56,-140.02"/>
<polygon fill="#63b8ff" stroke="#63b8ff" points="1076.21,-365.52 1067.22,-371.13 1077.75,-372.34 1076.21,-365.52"/>
</a>
</g>
</g>
<!-- Node32&#45;&gt;Node15 -->
<g id="edge47_Node000032_Node000015" class="edge">
<title>Node32&#45;&gt;Node15</title>
<g id="a_edge47_Node000032_Node000015"><a xlink:title=" ">
<path fill="none" stroke="#63b8ff" d="M905.71,-362.87C838.9,-346.13 773.61,-332.16 721.19,-321.53"/>
<polygon fill="#63b8ff" stroke="#63b8ff" points="905.03,-366.31 915.58,-365.36 906.74,-359.52 905.03,-366.31"/>
</a>
</g>
</g>
</g>
</svg>
