<?xml version="1.0" encoding="UTF-8" standalone="no"?>
<!DOCTYPE svg PUBLIC "-//W3C//DTD SVG 1.1//EN"
 "http://www.w3.org/Graphics/SVG/1.1/DTD/svg11.dtd">
<!-- Generated by graphviz version 2.43.0 (0)
 -->
<!-- Title: /home/runner/work/kynema&#45;sgf/kynema&#45;sgf/src/wind_energy/actuator/actuator_opsI.H Pages: 1 -->
<!--zoomable 489 -->

<svg id="main" version="1.1" xmlns="http://www.w3.org/2000/svg" xmlns:xlink="http://www.w3.org/1999/xlink" xml:space="preserve" onload="init(evt)">

<style type="text/css"><![CDATA[
.node, .edge {opacity: 0.7;}
.node.selected, .edge.selected {opacity: 1;}
.edge:hover path { stroke: red; }
.edge:hover polygon { stroke: red; fill: red; }
]]></style>

<defs>
  <circle id="rim" cx="0" cy="0" r="7"/>
  <circle id="rim2" cx="0" cy="0" r="3.5"/>
  <g id="zoomPlus">
    <use xlink:href="#rim" fill="#404040"><set attributeName="fill" to="#808080" begin="zoomplus.mouseover" end="zoomplus.mouseout"/></use>
    <path d="M-4,0h8M0,-4v8" fill="none" stroke="white" stroke-width="1.5" pointer-events="none"/>
  </g>
  <g id="zoomMin">
    <use xlink:href="#rim" fill="#404040"><set attributeName="fill" to="#808080" begin="zoomminus.mouseover" end="zoomminus.mouseout"/></use>
    <path d="M-4,0h8" fill="none" stroke="white" stroke-width="1.5" pointer-events="none"/>
  </g>
  <g id="arrowUp" transform="translate(30 24)">
    <use xlink:href="#rim"/>
    <path pointer-events="none" fill="none" stroke="white" stroke-width="1.5" d="M0,-3.0v7 M-2.5,-0.5L0,-3.0L2.5,-0.5"/>
  </g>
  <g id="arrowRight" transform="rotate(90) translate(36 -43)">
    <use xlink:href="#rim"/>
    <path pointer-events="none" fill="none" stroke="white" stroke-width="1.5" d="M0,-3.0v7 M-2.5,-0.5L0,-3.0L2.5,-0.5"/>
  </g>
  <g id="arrowDown" transform="rotate(180) translate(-30 -48)">
    <use xlink:href="#rim"/>
    <path pointer-events="none" fill="none" stroke="white" stroke-width="1.5" d="M0,-3.0v7 M-2.5,-0.5L0,-3.0L2.5,-0.5"/>
  </g>
  <g id="arrowLeft" transform="rotate(270) translate(-36 17)">
    <use xlink:href="#rim"/>
    <path pointer-events="none" fill="none" stroke="white" stroke-width="1.5" d="M0,-3.0v7 M-2.5,-0.5L0,-3.0L2.5,-0.5"/>
  </g>
  <g id="resetDef">
    <use xlink:href="#rim2" fill="#404040"><set attributeName="fill" to="#808080" begin="reset.mouseover" end="reset.mouseout"/></use>
  </g>
</defs>
<script type="application/ecmascript">
var viewWidth = 1987;
var viewHeight = 489;
var sectionId = 'dynsection-1';
</script>
<script type="application/ecmascript" xlink:href="svg.min.js"/>
<svg id="graph" class="graph">
<g id="viewport">
<title>/home/runner/work/kynema&#45;sgf/kynema&#45;sgf/src/wind_energy/actuator/actuator_opsI.H</title>
<!-- Node1 -->
<g id="Node000001" class="node">
<title>Node1</title>
<g id="a_Node000001"><a xlink:title=" ">
<polygon fill="#999999" stroke="#666666" points="1259.5,-481 1080.5,-481 1080.5,-440 1259.5,-440 1259.5,-481"/>
<text text-anchor="start" x="1088.5" y="-469" font-family="Helvetica,sans-Serif" font-size="10.00">/home/runner/work/kynema</text>
<text text-anchor="start" x="1088.5" y="-458" font-family="Helvetica,sans-Serif" font-size="10.00">&#45;sgf/kynema&#45;sgf/src/wind</text>
<text text-anchor="middle" x="1170" y="-447" font-family="Helvetica,sans-Serif" font-size="10.00">_energy/actuator/actuator_opsI.H</text>
</a>
</g>
</g>
<!-- Node2 -->
<g id="Node000002" class="node">
<title>Node2</title>
<g id="a_Node000002"><a xlink:href="actuator__ops_8_h.html" target="_top" xlink:title=" ">
<polygon fill="white" stroke="#666666" points="1258,-404 1082,-404 1082,-363 1258,-363 1258,-404"/>
<text text-anchor="start" x="1090" y="-392" font-family="Helvetica,sans-Serif" font-size="10.00">/home/runner/work/kynema</text>
<text text-anchor="start" x="1090" y="-381" font-family="Helvetica,sans-Serif" font-size="10.00">&#45;sgf/kynema&#45;sgf/src/wind</text>
<text text-anchor="middle" x="1170" y="-370" font-family="Helvetica,sans-Serif" font-size="10.00">_energy/actuator/actuator_ops.H</text>
</a>
</g>
</g>
<!-- Node1&#45;&gt;Node2 -->
<g id="edge1_Node000001_Node000002" class="edge">
<title>Node1&#45;&gt;Node2</title>
<g id="a_edge1_Node000001_Node000002"><a xlink:title=" ">
<path fill="none" stroke="#63b8ff" d="M1170,-429.69C1170,-421.08 1170,-411.9 1170,-404.07"/>
<polygon fill="#63b8ff" stroke="#63b8ff" points="1166.5,-429.79 1170,-439.79 1173.5,-429.79 1166.5,-429.79"/>
</a>
</g>
</g>
<!-- Node3 -->
<g id="Node000003" class="node">
<title>Node3</title>
<g id="a_Node000003"><a xlink:href="_act_src_line_op_8_h.html" target="_top" xlink:title=" ">
<polygon fill="white" stroke="#666666" points="1635.5,-321.5 1458.5,-321.5 1458.5,-280.5 1635.5,-280.5 1635.5,-321.5"/>
<text text-anchor="start" x="1466.5" y="-309.5" font-family="Helvetica,sans-Serif" font-size="10.00">/home/runner/work/kynema</text>
<text text-anchor="start" x="1466.5" y="-298.5" font-family="Helvetica,sans-Serif" font-size="10.00">&#45;sgf/kynema&#45;sgf/src/wind</text>
<text text-anchor="middle" x="1547" y="-287.5" font-family="Helvetica,sans-Serif" font-size="10.00">_energy/actuator/ActSrcLineOp.H</text>
</a>
</g>
</g>
<!-- Node2&#45;&gt;Node3 -->
<g id="edge2_Node000002_Node000003" class="edge">
<title>Node2&#45;&gt;Node3</title>
<g id="a_edge2_Node000002_Node000003"><a xlink:title=" ">
<path fill="none" stroke="#63b8ff" d="M1268.12,-364.46C1321.97,-354.2 1389.84,-340.7 1450,-327 1457.46,-325.3 1465.22,-323.45 1472.96,-321.54"/>
<polygon fill="#63b8ff" stroke="#63b8ff" points="1267.41,-361.03 1258.23,-366.34 1268.71,-367.91 1267.41,-361.03"/>
</a>
</g>
</g>
<!-- Node4 -->
<g id="Node000004" class="node">
<title>Node4</title>
<g id="a_Node000004"><a xlink:href="_actuator_model_8_h.html" target="_top" xlink:title=" ">
<polygon fill="white" stroke="#666666" points="1338,-233.5 1154,-233.5 1154,-192.5 1338,-192.5 1338,-233.5"/>
<text text-anchor="start" x="1162" y="-221.5" font-family="Helvetica,sans-Serif" font-size="10.00">/home/runner/work/kynema</text>
<text text-anchor="start" x="1162" y="-210.5" font-family="Helvetica,sans-Serif" font-size="10.00">&#45;sgf/kynema&#45;sgf/src/wind</text>
<text text-anchor="middle" x="1246" y="-199.5" font-family="Helvetica,sans-Serif" font-size="10.00">_energy/actuator/ActuatorModel.H</text>
</a>
</g>
</g>
<!-- Node2&#45;&gt;Node4 -->
<g id="edge14_Node000002_Node000004" class="edge">
<title>Node2&#45;&gt;Node4</title>
<g id="a_edge14_Node000002_Node000004"><a xlink:title=" ">
<path fill="none" stroke="#63b8ff" d="M1093.83,-358.09C1080.37,-350.3 1068.09,-340.15 1060,-327 1047.89,-307.32 1046.44,-293.72 1060,-275 1081.73,-245 1118.68,-229.49 1153.94,-221.57"/>
<polygon fill="#63b8ff" stroke="#63b8ff" points="1092.34,-361.26 1102.81,-362.88 1095.63,-355.08 1092.34,-361.26"/>
</a>
</g>
</g>
<!-- Node15 -->
<g id="Node000015" class="node">
<title>Node15</title>
<g id="a_Node000015"><a xlink:href="_act_src_disk_op_8_h.html" target="_top" xlink:title=" ">
<polygon fill="white" stroke="#666666" points="1271,-321.5 1069,-321.5 1069,-280.5 1271,-280.5 1271,-321.5"/>
<text text-anchor="start" x="1077" y="-309.5" font-family="Helvetica,sans-Serif" font-size="10.00">/home/runner/work/kynema</text>
<text text-anchor="start" x="1077" y="-298.5" font-family="Helvetica,sans-Serif" font-size="10.00">&#45;sgf/kynema&#45;sgf/src/wind</text>
<text text-anchor="middle" x="1170" y="-287.5" font-family="Helvetica,sans-Serif" font-size="10.00">_energy/actuator/disk/ActSrcDiskOp.H</text>
</a>
</g>
</g>
<!-- Node2&#45;&gt;Node15 -->
<g id="edge15_Node000002_Node000015" class="edge">
<title>Node2&#45;&gt;Node15</title>
<g id="a_edge15_Node000002_Node000015"><a xlink:title=" ">
<path fill="none" stroke="#63b8ff" d="M1170,-352.37C1170,-342.1 1170,-330.9 1170,-321.67"/>
<polygon fill="#63b8ff" stroke="#63b8ff" points="1166.5,-352.6 1170,-362.6 1173.5,-352.6 1166.5,-352.6"/>
</a>
</g>
</g>
<!-- Node16 -->
<g id="Node000016" class="node">
<title>Node16</title>
<g id="a_Node000016"><a xlink:href="disk__ops_8_h.html" target="_top" xlink:title=" ">
<polygon fill="white" stroke="#666666" points="418.5,-321.5 239.5,-321.5 239.5,-280.5 418.5,-280.5 418.5,-321.5"/>
<text text-anchor="start" x="247.5" y="-309.5" font-family="Helvetica,sans-Serif" font-size="10.00">/home/runner/work/kynema</text>
<text text-anchor="start" x="247.5" y="-298.5" font-family="Helvetica,sans-Serif" font-size="10.00">&#45;sgf/kynema&#45;sgf/src/wind</text>
<text text-anchor="middle" x="329" y="-287.5" font-family="Helvetica,sans-Serif" font-size="10.00">_energy/actuator/disk/disk_ops.H</text>
</a>
</g>
</g>
<!-- Node2&#45;&gt;Node16 -->
<g id="edge17_Node000002_Node000016" class="edge">
<title>Node2&#45;&gt;Node16</title>
<g id="a_edge17_Node000002_Node000016"><a xlink:title=" ">
<path fill="none" stroke="#63b8ff" d="M1071.85,-373.11C907.09,-357.33 577.35,-325.77 418.54,-310.57"/>
<polygon fill="#63b8ff" stroke="#63b8ff" points="1071.7,-376.61 1081.98,-374.08 1072.36,-369.64 1071.7,-376.61"/>
</a>
</g>
</g>
<!-- Node22 -->
<g id="Node000022" class="node">
<title>Node22</title>
<g id="a_Node000022"><a xlink:href="actuator__sector__ops_8_h.html" target="_top" xlink:title=" ">
<polygon fill="white" stroke="#666666" points="1013,-327 837,-327 837,-275 1013,-275 1013,-327"/>
<text text-anchor="start" x="845" y="-315" font-family="Helvetica,sans-Serif" font-size="10.00">/home/runner/work/kynema</text>
<text text-anchor="start" x="845" y="-304" font-family="Helvetica,sans-Serif" font-size="10.00">&#45;sgf/kynema&#45;sgf/src/wind</text>
<text text-anchor="start" x="845" y="-293" font-family="Helvetica,sans-Serif" font-size="10.00">_energy/actuator/sector/actuator</text>
<text text-anchor="middle" x="925" y="-282" font-family="Helvetica,sans-Serif" font-size="10.00">_sector_ops.H</text>
</a>
</g>
</g>
<!-- Node2&#45;&gt;Node22 -->
<g id="edge26_Node000002_Node000022" class="edge">
<title>Node2&#45;&gt;Node22</title>
<g id="a_edge26_Node000002_Node000022"><a xlink:title=" ">
<path fill="none" stroke="#63b8ff" d="M1100.53,-359.67C1069.54,-349.49 1032.94,-337.47 1001.2,-327.04"/>
<polygon fill="#63b8ff" stroke="#63b8ff" points="1099.79,-363.11 1110.38,-362.91 1101.97,-356.46 1099.79,-363.11"/>
</a>
</g>
</g>
<!-- Node24 -->
<g id="Node000024" class="node">
<title>Node24</title>
<g id="a_Node000024"><a xlink:href="_act_src_disk_op___turbine_8_h.html" target="_top" xlink:title=" ">
<polygon fill="white" stroke="#666666" points="1440.5,-327 1289.5,-327 1289.5,-275 1440.5,-275 1440.5,-327"/>
<text text-anchor="start" x="1297.5" y="-315" font-family="Helvetica,sans-Serif" font-size="10.00">/home/runner/work/kynema</text>
<text text-anchor="start" x="1297.5" y="-304" font-family="Helvetica,sans-Serif" font-size="10.00">&#45;sgf/kynema&#45;sgf/src/wind</text>
<text text-anchor="start" x="1297.5" y="-293" font-family="Helvetica,sans-Serif" font-size="10.00">_energy/actuator/turbine</text>
<text text-anchor="middle" x="1365" y="-282" font-family="Helvetica,sans-Serif" font-size="10.00">/ActSrcDiskOp_Turbine.H</text>
</a>
</g>
</g>
<!-- Node2&#45;&gt;Node24 -->
<g id="edge29_Node000002_Node000024" class="edge">
<title>Node2&#45;&gt;Node24</title>
<g id="a_edge29_Node000002_Node000024"><a xlink:title=" ">
<path fill="none" stroke="#63b8ff" d="M1227.11,-358.92C1251.31,-348.93 1279.54,-337.28 1304.13,-327.13"/>
<polygon fill="#63b8ff" stroke="#63b8ff" points="1225.61,-355.76 1217.7,-362.81 1228.28,-362.23 1225.61,-355.76"/>
</a>
</g>
</g>
<!-- Node25 -->
<g id="Node000025" class="node">
<title>Node25</title>
<g id="a_Node000025"><a xlink:href="turbine__external__ops_8_h.html" target="_top" xlink:title=" ">
<polygon fill="white" stroke="#666666" points="818,-239 642,-239 642,-187 818,-187 818,-239"/>
<text text-anchor="start" x="650" y="-227" font-family="Helvetica,sans-Serif" font-size="10.00">/home/runner/work/kynema</text>
<text text-anchor="start" x="650" y="-216" font-family="Helvetica,sans-Serif" font-size="10.00">&#45;sgf/kynema&#45;sgf/src/wind</text>
<text text-anchor="start" x="650" y="-205" font-family="Helvetica,sans-Serif" font-size="10.00">_energy/actuator/turbine</text>
<text text-anchor="middle" x="730" y="-194" font-family="Helvetica,sans-Serif" font-size="10.00">/external/turbine_external_ops.H</text>
</a>
</g>
</g>
<!-- Node2&#45;&gt;Node25 -->
<g id="edge31_Node000002_Node000025" class="edge">
<title>Node2&#45;&gt;Node25</title>
<g id="a_edge31_Node000002_Node000025"><a xlink:title=" ">
<path fill="none" stroke="#63b8ff" d="M1071.5,-379.39C923.78,-373.69 658.96,-359.09 630,-327 614.52,-309.84 618.69,-295.15 630,-275 638.46,-259.93 652.33,-248.14 667.08,-239.11"/>
<polygon fill="#63b8ff" stroke="#63b8ff" points="1071.81,-382.9 1081.93,-379.78 1072.07,-375.91 1071.81,-382.9"/>
</a>
</g>
</g>
<!-- Node28 -->
<g id="Node000028" class="node">
<title>Node28</title>
<g id="a_Node000028"><a xlink:href="turbine__external__utils_8_h.html" target="_top" xlink:title=" ">
<polygon fill="white" stroke="#666666" points="819,-327 639,-327 639,-275 819,-275 819,-327"/>
<text text-anchor="start" x="647" y="-315" font-family="Helvetica,sans-Serif" font-size="10.00">/home/runner/work/kynema</text>
<text text-anchor="start" x="647" y="-304" font-family="Helvetica,sans-Serif" font-size="10.00">&#45;sgf/kynema&#45;sgf/src/wind</text>
<text text-anchor="start" x="647" y="-293" font-family="Helvetica,sans-Serif" font-size="10.00">_energy/actuator/turbine</text>
<text text-anchor="middle" x="729" y="-282" font-family="Helvetica,sans-Serif" font-size="10.00">/external/turbine_external_utils.H</text>
</a>
</g>
</g>
<!-- Node2&#45;&gt;Node28 -->
<g id="edge36_Node000002_Node000028" class="edge">
<title>Node2&#45;&gt;Node28</title>
<g id="a_edge36_Node000002_Node000028"><a xlink:title=" ">
<path fill="none" stroke="#63b8ff" d="M1071.82,-368.87C1003.23,-358.79 909.69,-343.91 828,-327 825.05,-326.39 822.05,-325.75 819.03,-325.09"/>
<polygon fill="#63b8ff" stroke="#63b8ff" points="1071.35,-372.34 1081.75,-370.32 1072.36,-365.41 1071.35,-372.34"/>
</a>
</g>
</g>
<!-- Node29 -->
<g id="Node000029" class="node">
<title>Node29</title>
<g id="a_Node000029"><a xlink:href="fixed__wing__ops_8_h.html" target="_top" xlink:title=" ">
<polygon fill="white" stroke="#666666" points="1639,-239 1487,-239 1487,-187 1639,-187 1639,-239"/>
<text text-anchor="start" x="1495" y="-227" font-family="Helvetica,sans-Serif" font-size="10.00">/home/runner/work/kynema</text>
<text text-anchor="start" x="1495" y="-216" font-family="Helvetica,sans-Serif" font-size="10.00">&#45;sgf/kynema&#45;sgf/src/wind</text>
<text text-anchor="start" x="1495" y="-205" font-family="Helvetica,sans-Serif" font-size="10.00">_energy/actuator/wing/fixed</text>
<text text-anchor="middle" x="1563" y="-194" font-family="Helvetica,sans-Serif" font-size="10.00">_wing_ops.H</text>
</a>
</g>
</g>
<!-- Node2&#45;&gt;Node29 -->
<g id="edge38_Node000002_Node000029" class="edge">
<title>Node2&#45;&gt;Node29</title>
<g id="a_edge38_Node000002_Node000029"><a xlink:title=" ">
<path fill="none" stroke="#63b8ff" d="M1268.33,-377.88C1400.12,-370.67 1620.42,-354.62 1645,-327 1660.36,-309.74 1655.38,-295.65 1645,-275 1637.67,-260.41 1625.02,-248.43 1611.82,-239.07"/>
<polygon fill="#63b8ff" stroke="#63b8ff" points="1268.02,-374.39 1258.22,-378.43 1268.39,-381.38 1268.02,-374.39"/>
</a>
</g>
</g>
<!-- Node30 -->
<g id="Node000030" class="node">
<title>Node30</title>
<g id="a_Node000030"><a xlink:href="flat__plate__ops_8_h.html" target="_top" xlink:title=" ">
<polygon fill="white" stroke="#666666" points="1978.5,-239 1827.5,-239 1827.5,-187 1978.5,-187 1978.5,-239"/>
<text text-anchor="start" x="1835.5" y="-227" font-family="Helvetica,sans-Serif" font-size="10.00">/home/runner/work/kynema</text>
<text text-anchor="start" x="1835.5" y="-216" font-family="Helvetica,sans-Serif" font-size="10.00">&#45;sgf/kynema&#45;sgf/src/wind</text>
<text text-anchor="start" x="1835.5" y="-205" font-family="Helvetica,sans-Serif" font-size="10.00">_energy/actuator/wing/flat</text>
<text text-anchor="middle" x="1903" y="-194" font-family="Helvetica,sans-Serif" font-size="10.00">_plate_ops.H</text>
</a>
</g>
</g>
<!-- Node2&#45;&gt;Node30 -->
<g id="edge40_Node000002_Node000030" class="edge">
<title>Node2&#45;&gt;Node30</title>
<g id="a_edge40_Node000002_Node000030"><a xlink:title=" ">
<path fill="none" stroke="#63b8ff" d="M1268.24,-381.51C1453.65,-378.68 1840.66,-367.91 1885,-327 1908.8,-305.04 1909.59,-265.24 1907.02,-239.21"/>
<polygon fill="#63b8ff" stroke="#63b8ff" points="1268.16,-378.01 1258.21,-381.66 1268.26,-385.01 1268.16,-378.01"/>
</a>
</g>
</g>
<!-- Node31 -->
<g id="Node000031" class="node">
<title>Node31</title>
<g id="a_Node000031"><a xlink:href="wing__ops_8_h.html" target="_top" xlink:title=" ">
<polygon fill="white" stroke="#666666" points="1875.5,-321.5 1690.5,-321.5 1690.5,-280.5 1875.5,-280.5 1875.5,-321.5"/>
<text text-anchor="start" x="1698.5" y="-309.5" font-family="Helvetica,sans-Serif" font-size="10.00">/home/runner/work/kynema</text>
<text text-anchor="start" x="1698.5" y="-298.5" font-family="Helvetica,sans-Serif" font-size="10.00">&#45;sgf/kynema&#45;sgf/src/wind</text>
<text text-anchor="middle" x="1783" y="-287.5" font-family="Helvetica,sans-Serif" font-size="10.00">_energy/actuator/wing/wing_ops.H</text>
</a>
</g>
</g>
<!-- Node2&#45;&gt;Node31 -->
<g id="edge42_Node000002_Node000031" class="edge">
<title>Node2&#45;&gt;Node31</title>
<g id="a_edge42_Node000002_Node000031"><a xlink:title=" ">
<path fill="none" stroke="#63b8ff" d="M1268.42,-375.32C1370.93,-367.01 1535.96,-351.26 1677,-327 1686.13,-325.43 1695.65,-323.54 1705.07,-321.52"/>
<polygon fill="#63b8ff" stroke="#63b8ff" points="1268.07,-371.84 1258.39,-376.13 1268.63,-378.82 1268.07,-371.84"/>
</a>
</g>
</g>
<!-- Node3&#45;&gt;Node4 -->
<g id="edge3_Node000003_Node000004" class="edge">
<title>Node3&#45;&gt;Node4</title>
<g id="a_edge3_Node000003_Node000004"><a xlink:title=" ">
<path fill="none" stroke="#63b8ff" d="M1468.99,-277.71C1421.08,-264.02 1360.29,-246.66 1314.29,-233.51"/>
<polygon fill="#63b8ff" stroke="#63b8ff" points="1468.12,-281.1 1478.7,-280.49 1470.04,-274.37 1468.12,-281.1"/>
</a>
</g>
</g>
<!-- Node5 -->
<g id="Node000005" class="node">
<title>Node5</title>
<g id="a_Node000005"><a xlink:href="_actuator_8_h.html" target="_top" xlink:title=" ">
<polygon fill="white" stroke="#666666" points="1427.5,-140 1274.5,-140 1274.5,-99 1427.5,-99 1427.5,-140"/>
<text text-anchor="start" x="1282.5" y="-128" font-family="Helvetica,sans-Serif" font-size="10.00">/home/runner/work/kynema</text>
<text text-anchor="start" x="1282.5" y="-117" font-family="Helvetica,sans-Serif" font-size="10.00">&#45;sgf/kynema&#45;sgf/src/wind</text>
<text text-anchor="middle" x="1351" y="-106" font-family="Helvetica,sans-Serif" font-size="10.00">_energy/actuator/Actuator.H</text>
</a>
</g>
</g>
<!-- Node4&#45;&gt;Node5 -->
<g id="edge4_Node000004_Node000005" class="edge">
<title>Node4&#45;&gt;Node5</title>
<g id="a_edge4_Node000004_Node000005"><a xlink:title=" ">
<path fill="none" stroke="#63b8ff" d="M1276.37,-185.54C1293.01,-171.03 1313.3,-153.36 1328.51,-140.1"/>
<polygon fill="#63b8ff" stroke="#63b8ff" points="1273.76,-183.16 1268.53,-192.37 1278.36,-188.44 1273.76,-183.16"/>
</a>
</g>
</g>
<!-- Node9 -->
<g id="Node000009" class="node">
<title>Node9</title>
<g id="a_Node000009"><a xlink:href="_actuator_disk_8cpp.html" target="_top" xlink:title=" ">
<polygon fill="white" stroke="#666666" points="633.5,-140 424.5,-140 424.5,-99 633.5,-99 633.5,-140"/>
<text text-anchor="start" x="432.5" y="-128" font-family="Helvetica,sans-Serif" font-size="10.00">/home/runner/work/kynema</text>
<text text-anchor="start" x="432.5" y="-117" font-family="Helvetica,sans-Serif" font-size="10.00">&#45;sgf/kynema&#45;sgf/src/wind</text>
<text text-anchor="middle" x="529" y="-106" font-family="Helvetica,sans-Serif" font-size="10.00">_energy/actuator/disk/ActuatorDisk.cpp</text>
</a>
</g>
</g>
<!-- Node4&#45;&gt;Node9 -->
<g id="edge8_Node000004_Node000009" class="edge">
<title>Node4&#45;&gt;Node9</title>
<g id="a_edge8_Node000004_Node000009"><a xlink:title=" ">
<path fill="none" stroke="#63b8ff" d="M1143.84,-200.24C1105.63,-195.93 1061.84,-191.11 1022,-187 853.25,-169.59 808.93,-181.21 642,-151 626.3,-148.16 609.61,-144.19 594,-140.06"/>
<polygon fill="#63b8ff" stroke="#63b8ff" points="1143.62,-203.73 1153.95,-201.38 1144.4,-196.78 1143.62,-203.73"/>
</a>
</g>
</g>
<!-- Node10 -->
<g id="Node000010" class="node">
<title>Node10</title>
<g id="a_Node000010"><a xlink:href="_actuator_sector_8cpp.html" target="_top" xlink:title=" ">
<polygon fill="white" stroke="#666666" points="1180,-145.5 1004,-145.5 1004,-93.5 1180,-93.5 1180,-145.5"/>
<text text-anchor="start" x="1012" y="-133.5" font-family="Helvetica,sans-Serif" font-size="10.00">/home/runner/work/kynema</text>
<text text-anchor="start" x="1012" y="-122.5" font-family="Helvetica,sans-Serif" font-size="10.00">&#45;sgf/kynema&#45;sgf/src/wind</text>
<text text-anchor="start" x="1012" y="-111.5" font-family="Helvetica,sans-Serif" font-size="10.00">_energy/actuator/sector/Actuator</text>
<text text-anchor="middle" x="1092" y="-100.5" font-family="Helvetica,sans-Serif" font-size="10.00">Sector.cpp</text>
</a>
</g>
</g>
<!-- Node4&#45;&gt;Node10 -->
<g id="edge9_Node000004_Node000010" class="edge">
<title>Node4&#45;&gt;Node10</title>
<g id="a_edge9_Node000004_Node000010"><a xlink:title=" ">
<path fill="none" stroke="#63b8ff" d="M1204.26,-187.2C1182.48,-174.26 1155.91,-158.47 1134.08,-145.5"/>
<polygon fill="#63b8ff" stroke="#63b8ff" points="1202.58,-190.27 1212.96,-192.37 1206.15,-184.25 1202.58,-190.27"/>
</a>
</g>
</g>
<!-- Node11 -->
<g id="Node000011" class="node">
<title>Node11</title>
<g id="a_Node000011"><a xlink:href="_turbine_fast_8cpp.html" target="_top" xlink:title=" ">
<polygon fill="white" stroke="#666666" points="1057.5,-52 906.5,-52 906.5,0 1057.5,0 1057.5,-52"/>
<text text-anchor="start" x="914.5" y="-40" font-family="Helvetica,sans-Serif" font-size="10.00">/home/runner/work/kynema</text>
<text text-anchor="start" x="914.5" y="-29" font-family="Helvetica,sans-Serif" font-size="10.00">&#45;sgf/kynema&#45;sgf/src/wind</text>
<text text-anchor="start" x="914.5" y="-18" font-family="Helvetica,sans-Serif" font-size="10.00">_energy/actuator/turbine</text>
<text text-anchor="middle" x="982" y="-7" font-family="Helvetica,sans-Serif" font-size="10.00">/fast/TurbineFast.cpp</text>
</a>
</g>
</g>
<!-- Node4&#45;&gt;Node11 -->
<g id="edge10_Node000004_Node000011" class="edge">
<title>Node4&#45;&gt;Node11</title>
<g id="a_edge10_Node000004_Node000011"><a xlink:title=" ">
<path fill="none" stroke="#63b8ff" d="M1248.6,-182.39C1249.34,-154.44 1245.76,-113.17 1222,-88 1220.53,-86.44 1127.43,-63.07 1057.64,-45.72"/>
<polygon fill="#63b8ff" stroke="#63b8ff" points="1245.1,-182.23 1248.14,-192.39 1252.09,-182.56 1245.1,-182.23"/>
</a>
</g>
</g>
<!-- Node12 -->
<g id="Node000012" class="node">
<title>Node12</title>
<g id="a_Node000012"><a xlink:href="_turbine_kynema_f_m_b_8cpp.html" target="_top" xlink:title=" ">
<polygon fill="white" stroke="#666666" points="853.5,-52 650.5,-52 650.5,0 853.5,0 853.5,-52"/>
<text text-anchor="start" x="658.5" y="-40" font-family="Helvetica,sans-Serif" font-size="10.00">/home/runner/work/kynema</text>
<text text-anchor="start" x="658.5" y="-29" font-family="Helvetica,sans-Serif" font-size="10.00">&#45;sgf/kynema&#45;sgf/src/wind</text>
<text text-anchor="start" x="658.5" y="-18" font-family="Helvetica,sans-Serif" font-size="10.00">_energy/actuator/turbine</text>
<text text-anchor="middle" x="752" y="-7" font-family="Helvetica,sans-Serif" font-size="10.00">/kynema_fmb/TurbineKynemaFMB.cpp</text>
</a>
</g>
</g>
<!-- Node4&#45;&gt;Node12 -->
<g id="edge11_Node000004_Node000012" class="edge">
<title>Node4&#45;&gt;Node12</title>
<g id="a_edge11_Node000004_Node000012"><a xlink:title=" ">
<path fill="none" stroke="#63b8ff" d="M1234.28,-182.66C1220.13,-147.93 1197.23,-94.01 1189,-88 1136.22,-49.41 961.68,-61.56 897,-52 882.97,-49.93 868.22,-47.58 853.7,-45.17"/>
<polygon fill="#63b8ff" stroke="#63b8ff" points="1231.19,-184.37 1238.19,-192.32 1237.68,-181.74 1231.19,-184.37"/>
</a>
</g>
</g>
<!-- Node13 -->
<g id="Node000013" class="node">
<title>Node13</title>
<g id="a_Node000013"><a xlink:href="_fixed_wing_8cpp.html" target="_top" xlink:title=" ">
<polygon fill="white" stroke="#666666" points="1653.5,-140 1454.5,-140 1454.5,-99 1653.5,-99 1653.5,-140"/>
<text text-anchor="start" x="1462.5" y="-128" font-family="Helvetica,sans-Serif" font-size="10.00">/home/runner/work/kynema</text>
<text text-anchor="start" x="1462.5" y="-117" font-family="Helvetica,sans-Serif" font-size="10.00">&#45;sgf/kynema&#45;sgf/src/wind</text>
<text text-anchor="middle" x="1554" y="-106" font-family="Helvetica,sans-Serif" font-size="10.00">_energy/actuator/wing/FixedWing.cpp</text>
</a>
</g>
</g>
<!-- Node4&#45;&gt;Node13 -->
<g id="edge12_Node000004_Node000013" class="edge">
<title>Node4&#45;&gt;Node13</title>
<g id="a_edge12_Node000004_Node000013"><a xlink:title=" ">
<path fill="none" stroke="#63b8ff" d="M1321.36,-189.61C1372.41,-174.45 1439.22,-154.6 1488.14,-140.07"/>
<polygon fill="#63b8ff" stroke="#63b8ff" points="1320.29,-186.28 1311.7,-192.48 1322.28,-192.99 1320.29,-186.28"/>
</a>
</g>
</g>
<!-- Node14 -->
<g id="Node000014" class="node">
<title>Node14</title>
<g id="a_Node000014"><a xlink:href="_flat_plate_8cpp.html" target="_top" xlink:title=" ">
<polygon fill="white" stroke="#666666" points="1927,-140 1735,-140 1735,-99 1927,-99 1927,-140"/>
<text text-anchor="start" x="1743" y="-128" font-family="Helvetica,sans-Serif" font-size="10.00">/home/runner/work/kynema</text>
<text text-anchor="start" x="1743" y="-117" font-family="Helvetica,sans-Serif" font-size="10.00">&#45;sgf/kynema&#45;sgf/src/wind</text>
<text text-anchor="middle" x="1831" y="-106" font-family="Helvetica,sans-Serif" font-size="10.00">_energy/actuator/wing/FlatPlate.cpp</text>
</a>
</g>
</g>
<!-- Node4&#45;&gt;Node14 -->
<g id="edge13_Node000004_Node000014" class="edge">
<title>Node4&#45;&gt;Node14</title>
<g id="a_edge13_Node000004_Node000014"><a xlink:title=" ">
<path fill="none" stroke="#63b8ff" d="M1348.18,-198.05C1432.69,-186.27 1555.8,-168.57 1663,-151 1686.26,-147.19 1711.27,-142.8 1734.71,-138.57"/>
<polygon fill="#63b8ff" stroke="#63b8ff" points="1347.49,-194.61 1338.07,-199.46 1348.45,-201.55 1347.49,-194.61"/>
</a>
</g>
</g>
<!-- Node6 -->
<g id="Node000006" class="node">
<title>Node6</title>
<g id="a_Node000006"><a xlink:href="_actuator_forcing_8cpp.html" target="_top" xlink:title=" ">
<polygon fill="white" stroke="#666666" points="1251.5,-52 1092.5,-52 1092.5,0 1251.5,0 1251.5,-52"/>
<text text-anchor="start" x="1100.5" y="-40" font-family="Helvetica,sans-Serif" font-size="10.00">/home/runner/work/kynema</text>
<text text-anchor="start" x="1100.5" y="-29" font-family="Helvetica,sans-Serif" font-size="10.00">&#45;sgf/kynema&#45;sgf/src/equation</text>
<text text-anchor="start" x="1100.5" y="-18" font-family="Helvetica,sans-Serif" font-size="10.00">_systems/icns/source_terms</text>
<text text-anchor="middle" x="1172" y="-7" font-family="Helvetica,sans-Serif" font-size="10.00">/ActuatorForcing.cpp</text>
</a>
</g>
</g>
<!-- Node5&#45;&gt;Node6 -->
<g id="edge5_Node000005_Node000006" class="edge">
<title>Node5&#45;&gt;Node6</title>
<g id="a_edge5_Node000005_Node000006"><a xlink:title=" ">
<path fill="none" stroke="#63b8ff" d="M1303.49,-94.22C1278,-81.18 1246.62,-65.14 1220.91,-52"/>
<polygon fill="#63b8ff" stroke="#63b8ff" points="1302.1,-97.44 1312.6,-98.87 1305.29,-91.2 1302.1,-97.44"/>
</a>
</g>
</g>
<!-- Node7 -->
<g id="Node000007" class="node">
<title>Node7</title>
<g id="a_Node000007"><a xlink:href="_actuator_8cpp.html" target="_top" xlink:title=" ">
<polygon fill="white" stroke="#666666" points="1432.5,-46.5 1269.5,-46.5 1269.5,-5.5 1432.5,-5.5 1432.5,-46.5"/>
<text text-anchor="start" x="1277.5" y="-34.5" font-family="Helvetica,sans-Serif" font-size="10.00">/home/runner/work/kynema</text>
<text text-anchor="start" x="1277.5" y="-23.5" font-family="Helvetica,sans-Serif" font-size="10.00">&#45;sgf/kynema&#45;sgf/src/wind</text>
<text text-anchor="middle" x="1351" y="-12.5" font-family="Helvetica,sans-Serif" font-size="10.00">_energy/actuator/Actuator.cpp</text>
</a>
</g>
</g>
<!-- Node5&#45;&gt;Node7 -->
<g id="edge6_Node000005_Node000007" class="edge">
<title>Node5&#45;&gt;Node7</title>
<g id="a_edge6_Node000005_Node000007"><a xlink:title=" ">
<path fill="none" stroke="#63b8ff" d="M1351,-88.6C1351,-74.77 1351,-58.74 1351,-46.5"/>
<polygon fill="#63b8ff" stroke="#63b8ff" points="1347.5,-88.65 1351,-98.65 1354.5,-88.65 1347.5,-88.65"/>
</a>
</g>
</g>
<!-- Node8 -->
<g id="Node000008" class="node">
<title>Node8</title>
<g id="a_Node000008"><a xlink:href="_actuator_container_8cpp.html" target="_top" xlink:title=" ">
<polygon fill="white" stroke="#666666" points="1661,-46.5 1451,-46.5 1451,-5.5 1661,-5.5 1661,-46.5"/>
<text text-anchor="start" x="1459" y="-34.5" font-family="Helvetica,sans-Serif" font-size="10.00">/home/runner/work/kynema</text>
<text text-anchor="start" x="1459" y="-23.5" font-family="Helvetica,sans-Serif" font-size="10.00">&#45;sgf/kynema&#45;sgf/src/wind</text>
<text text-anchor="middle" x="1556" y="-12.5" font-family="Helvetica,sans-Serif" font-size="10.00">_energy/actuator/ActuatorContainer.cpp</text>
</a>
</g>
</g>
<!-- Node5&#45;&gt;Node8 -->
<g id="edge7_Node000005_Node000008" class="edge">
<title>Node5&#45;&gt;Node8</title>
<g id="a_edge7_Node000005_Node000008"><a xlink:title=" ">
<path fill="none" stroke="#63b8ff" d="M1403.92,-94.88C1437.46,-79.91 1480.32,-60.78 1511.99,-46.64"/>
<polygon fill="#63b8ff" stroke="#63b8ff" points="1402.43,-91.71 1394.73,-98.98 1405.28,-98.1 1402.43,-91.71"/>
</a>
</g>
</g>
<!-- Node15&#45;&gt;Node4 -->
<g id="edge16_Node000015_Node000004" class="edge">
<title>Node15&#45;&gt;Node4</title>
<g id="a_edge16_Node000015_Node000004"><a xlink:title=" ">
<path fill="none" stroke="#63b8ff" d="M1193.94,-272.9C1205.17,-260.2 1218.3,-245.35 1228.56,-233.74"/>
<polygon fill="#63b8ff" stroke="#63b8ff" points="1191.24,-270.67 1187.25,-280.49 1196.49,-275.31 1191.24,-270.67"/>
</a>
</g>
</g>
<!-- Node17 -->
<g id="Node000017" class="node">
<title>Node17</title>
<g id="a_Node000017"><a xlink:href="_joukowsky__ops_8_h.html" target="_top" xlink:title=" ">
<polygon fill="white" stroke="#666666" points="433.5,-233.5 224.5,-233.5 224.5,-192.5 433.5,-192.5 433.5,-233.5"/>
<text text-anchor="start" x="232.5" y="-221.5" font-family="Helvetica,sans-Serif" font-size="10.00">/home/runner/work/kynema</text>
<text text-anchor="start" x="232.5" y="-210.5" font-family="Helvetica,sans-Serif" font-size="10.00">&#45;sgf/kynema&#45;sgf/src/wind</text>
<text text-anchor="middle" x="329" y="-199.5" font-family="Helvetica,sans-Serif" font-size="10.00">_energy/actuator/disk/Joukowsky_ops.H</text>
</a>
</g>
</g>
<!-- Node16&#45;&gt;Node17 -->
<g id="edge18_Node000016_Node000017" class="edge">
<title>Node16&#45;&gt;Node17</title>
<g id="a_edge18_Node000016_Node000017"><a xlink:title=" ">
<path fill="none" stroke="#63b8ff" d="M329,-270.36C329,-258.26 329,-244.58 329,-233.74"/>
<polygon fill="#63b8ff" stroke="#63b8ff" points="325.5,-270.49 329,-280.49 332.5,-270.49 325.5,-270.49"/>
</a>
</g>
</g>
<!-- Node18 -->
<g id="Node000018" class="node">
<title>Node18</title>
<g id="a_Node000018"><a xlink:href="_joukowsky__ops_8cpp.html" target="_top" xlink:title=" ">
<polygon fill="white" stroke="#666666" points="176,-145.5 0,-145.5 0,-93.5 176,-93.5 176,-145.5"/>
<text text-anchor="start" x="8" y="-133.5" font-family="Helvetica,sans-Serif" font-size="10.00">/home/runner/work/kynema</text>
<text text-anchor="start" x="8" y="-122.5" font-family="Helvetica,sans-Serif" font-size="10.00">&#45;sgf/kynema&#45;sgf/src/wind</text>
<text text-anchor="start" x="8" y="-111.5" font-family="Helvetica,sans-Serif" font-size="10.00">_energy/actuator/disk/Joukowsky</text>
<text text-anchor="middle" x="88" y="-100.5" font-family="Helvetica,sans-Serif" font-size="10.00">_ops.cpp</text>
</a>
</g>
</g>
<!-- Node16&#45;&gt;Node18 -->
<g id="edge21_Node000016_Node000018" class="edge">
<title>Node16&#45;&gt;Node18</title>
<g id="a_edge21_Node000016_Node000018"><a xlink:title=" ">
<path fill="none" stroke="#63b8ff" d="M229.4,-291.64C157.43,-283.3 68.99,-267.48 46,-239 23.79,-211.49 46.51,-171.34 66.19,-145.57"/>
<polygon fill="#63b8ff" stroke="#63b8ff" points="229.11,-295.13 239.44,-292.77 229.89,-288.18 229.11,-295.13"/>
</a>
</g>
</g>
<!-- Node19 -->
<g id="Node000019" class="node">
<title>Node19</title>
<g id="a_Node000019"><a xlink:href="disk__ops_8cpp.html" target="_top" xlink:title=" ">
<polygon fill="white" stroke="#666666" points="206.5,-239 55.5,-239 55.5,-187 206.5,-187 206.5,-239"/>
<text text-anchor="start" x="63.5" y="-227" font-family="Helvetica,sans-Serif" font-size="10.00">/home/runner/work/kynema</text>
<text text-anchor="start" x="63.5" y="-216" font-family="Helvetica,sans-Serif" font-size="10.00">&#45;sgf/kynema&#45;sgf/src/wind</text>
<text text-anchor="start" x="63.5" y="-205" font-family="Helvetica,sans-Serif" font-size="10.00">_energy/actuator/disk/disk</text>
<text text-anchor="middle" x="131" y="-194" font-family="Helvetica,sans-Serif" font-size="10.00">_ops.cpp</text>
</a>
</g>
</g>
<!-- Node16&#45;&gt;Node19 -->
<g id="edge22_Node000016_Node000019" class="edge">
<title>Node16&#45;&gt;Node19</title>
<g id="a_edge22_Node000016_Node000019"><a xlink:title=" ">
<path fill="none" stroke="#63b8ff" d="M274.89,-276.5C248.23,-264.92 216.07,-250.95 188.92,-239.16"/>
<polygon fill="#63b8ff" stroke="#63b8ff" points="273.5,-279.71 284.07,-280.49 276.29,-273.29 273.5,-279.71"/>
</a>
</g>
</g>
<!-- Node20 -->
<g id="Node000020" class="node">
<title>Node20</title>
<g id="a_Node000020"><a xlink:href="uniform__ct__ops_8_h.html" target="_top" xlink:title=" ">
<polygon fill="white" stroke="#666666" points="616,-239 452,-239 452,-187 616,-187 616,-239"/>
<text text-anchor="start" x="460" y="-227" font-family="Helvetica,sans-Serif" font-size="10.00">/home/runner/work/kynema</text>
<text text-anchor="start" x="460" y="-216" font-family="Helvetica,sans-Serif" font-size="10.00">&#45;sgf/kynema&#45;sgf/src/wind</text>
<text text-anchor="start" x="460" y="-205" font-family="Helvetica,sans-Serif" font-size="10.00">_energy/actuator/disk/uniform</text>
<text text-anchor="middle" x="534" y="-194" font-family="Helvetica,sans-Serif" font-size="10.00">_ct_ops.H</text>
</a>
</g>
</g>
<!-- Node16&#45;&gt;Node20 -->
<g id="edge23_Node000016_Node000020" class="edge">
<title>Node16&#45;&gt;Node20</title>
<g id="a_edge23_Node000016_Node000020"><a xlink:title=" ">
<path fill="none" stroke="#63b8ff" d="M385.02,-276.5C412.62,-264.92 445.92,-250.95 474.03,-239.16"/>
<polygon fill="#63b8ff" stroke="#63b8ff" points="383.39,-273.39 375.52,-280.49 386.09,-279.84 383.39,-273.39"/>
</a>
</g>
</g>
<!-- Node17&#45;&gt;Node9 -->
<g id="edge19_Node000017_Node000009" class="edge">
<title>Node17&#45;&gt;Node9</title>
<g id="a_edge19_Node000017_Node000009"><a xlink:title=" ">
<path fill="none" stroke="#63b8ff" d="M381.3,-188.07C413.95,-173.13 455.47,-154.14 486.17,-140.1"/>
<polygon fill="#63b8ff" stroke="#63b8ff" points="379.54,-185.03 371.91,-192.37 382.45,-191.39 379.54,-185.03"/>
</a>
</g>
</g>
<!-- Node17&#45;&gt;Node18 -->
<g id="edge20_Node000017_Node000018" class="edge">
<title>Node17&#45;&gt;Node18</title>
<g id="a_edge20_Node000017_Node000018"><a xlink:title=" ">
<path fill="none" stroke="#63b8ff" d="M268.03,-188.85C233.24,-175.64 189.6,-159.08 154.01,-145.56"/>
<polygon fill="#63b8ff" stroke="#63b8ff" points="267,-192.21 277.6,-192.48 269.49,-185.66 267,-192.21"/>
</a>
</g>
</g>
<!-- Node20&#45;&gt;Node9 -->
<g id="edge24_Node000020_Node000009" class="edge">
<title>Node20&#45;&gt;Node9</title>
<g id="a_edge24_Node000020_Node000009"><a xlink:title=" ">
<path fill="none" stroke="#63b8ff" d="M532.08,-176.91C531.4,-164.49 530.66,-150.95 530.08,-140.26"/>
<polygon fill="#63b8ff" stroke="#63b8ff" points="528.59,-177.2 532.63,-187 535.58,-176.82 528.59,-177.2"/>
</a>
</g>
</g>
<!-- Node21 -->
<g id="Node000021" class="node">
<title>Node21</title>
<g id="a_Node000021"><a xlink:href="uniform__ct__ops_8cpp.html" target="_top" xlink:title=" ">
<polygon fill="white" stroke="#666666" points="406,-145.5 242,-145.5 242,-93.5 406,-93.5 406,-145.5"/>
<text text-anchor="start" x="250" y="-133.5" font-family="Helvetica,sans-Serif" font-size="10.00">/home/runner/work/kynema</text>
<text text-anchor="start" x="250" y="-122.5" font-family="Helvetica,sans-Serif" font-size="10.00">&#45;sgf/kynema&#45;sgf/src/wind</text>
<text text-anchor="start" x="250" y="-111.5" font-family="Helvetica,sans-Serif" font-size="10.00">_energy/actuator/disk/uniform</text>
<text text-anchor="middle" x="324" y="-100.5" font-family="Helvetica,sans-Serif" font-size="10.00">_ct_ops.cpp</text>
</a>
</g>
</g>
<!-- Node20&#45;&gt;Node21 -->
<g id="edge25_Node000020_Node000021" class="edge">
<title>Node20&#45;&gt;Node21</title>
<g id="a_edge25_Node000020_Node000021"><a xlink:title=" ">
<path fill="none" stroke="#63b8ff" d="M467.44,-183C439.88,-170.99 408.23,-157.2 381.68,-145.63"/>
<polygon fill="#63b8ff" stroke="#63b8ff" points="466.05,-186.21 476.62,-187 468.85,-179.79 466.05,-186.21"/>
</a>
</g>
</g>
<!-- Node22&#45;&gt;Node10 -->
<g id="edge27_Node000022_Node000010" class="edge">
<title>Node22&#45;&gt;Node10</title>
<g id="a_edge27_Node000022_Node000010"><a xlink:title=" ">
<path fill="none" stroke="#63b8ff" d="M983.57,-269.45C997.14,-260.74 1010.85,-250.46 1022,-239 1048.82,-211.42 1069.59,-171.66 1081.32,-145.95"/>
<polygon fill="#63b8ff" stroke="#63b8ff" points="981.36,-266.7 974.71,-274.94 985.05,-272.65 981.36,-266.7"/>
</a>
</g>
</g>
<!-- Node23 -->
<g id="Node000023" class="node">
<title>Node23</title>
<g id="a_Node000023"><a xlink:href="actuator__sector__ops_8cpp.html" target="_top" xlink:title=" ">
<polygon fill="white" stroke="#666666" points="1013,-239 837,-239 837,-187 1013,-187 1013,-239"/>
<text text-anchor="start" x="845" y="-227" font-family="Helvetica,sans-Serif" font-size="10.00">/home/runner/work/kynema</text>
<text text-anchor="start" x="845" y="-216" font-family="Helvetica,sans-Serif" font-size="10.00">&#45;sgf/kynema&#45;sgf/src/wind</text>
<text text-anchor="start" x="845" y="-205" font-family="Helvetica,sans-Serif" font-size="10.00">_energy/actuator/sector/actuator</text>
<text text-anchor="middle" x="925" y="-194" font-family="Helvetica,sans-Serif" font-size="10.00">_sector_ops.cpp</text>
</a>
</g>
</g>
<!-- Node22&#45;&gt;Node23 -->
<g id="edge28_Node000022_Node000023" class="edge">
<title>Node22&#45;&gt;Node23</title>
<g id="a_edge28_Node000022_Node000023"><a xlink:title=" ">
<path fill="none" stroke="#63b8ff" d="M925,-264.56C925,-256.04 925,-247.1 925,-239.16"/>
<polygon fill="#63b8ff" stroke="#63b8ff" points="921.5,-264.66 925,-274.66 928.5,-264.66 921.5,-264.66"/>
</a>
</g>
</g>
<!-- Node24&#45;&gt;Node4 -->
<g id="edge30_Node000024_Node000004" class="edge">
<title>Node24&#45;&gt;Node4</title>
<g id="a_edge30_Node000024_Node000004"><a xlink:title=" ">
<path fill="none" stroke="#63b8ff" d="M1321.91,-268.86C1305.58,-257.06 1287.46,-243.97 1273.03,-233.53"/>
<polygon fill="#63b8ff" stroke="#63b8ff" points="1320.11,-271.87 1330.26,-274.89 1324.21,-266.2 1320.11,-271.87"/>
</a>
</g>
</g>
<!-- Node26 -->
<g id="Node000026" class="node">
<title>Node26</title>
<g id="a_Node000026"><a xlink:href="turbine__fast__ops_8_h.html" target="_top" xlink:title=" ">
<polygon fill="white" stroke="#666666" points="985.5,-145.5 834.5,-145.5 834.5,-93.5 985.5,-93.5 985.5,-145.5"/>
<text text-anchor="start" x="842.5" y="-133.5" font-family="Helvetica,sans-Serif" font-size="10.00">/home/runner/work/kynema</text>
<text text-anchor="start" x="842.5" y="-122.5" font-family="Helvetica,sans-Serif" font-size="10.00">&#45;sgf/kynema&#45;sgf/src/wind</text>
<text text-anchor="start" x="842.5" y="-111.5" font-family="Helvetica,sans-Serif" font-size="10.00">_energy/actuator/turbine</text>
<text text-anchor="middle" x="910" y="-100.5" font-family="Helvetica,sans-Serif" font-size="10.00">/fast/turbine_fast_ops.H</text>
</a>
</g>
</g>
<!-- Node25&#45;&gt;Node26 -->
<g id="edge32_Node000025_Node000026" class="edge">
<title>Node25&#45;&gt;Node26</title>
<g id="a_edge32_Node000025_Node000026"><a xlink:title=" ">
<path fill="none" stroke="#63b8ff" d="M788.29,-182.37C811.61,-170.51 838.2,-157 860.56,-145.63"/>
<polygon fill="#63b8ff" stroke="#63b8ff" points="786.51,-179.35 779.19,-187 789.69,-185.59 786.51,-179.35"/>
</a>
</g>
</g>
<!-- Node27 -->
<g id="Node000027" class="node">
<title>Node27</title>
<g id="a_Node000027"><a xlink:href="turbine__kynema__fmb__ops_8_h.html" target="_top" xlink:title=" ">
<polygon fill="white" stroke="#666666" points="816.5,-151 651.5,-151 651.5,-88 816.5,-88 816.5,-151"/>
<text text-anchor="start" x="659.5" y="-139" font-family="Helvetica,sans-Serif" font-size="10.00">/home/runner/work/kynema</text>
<text text-anchor="start" x="659.5" y="-128" font-family="Helvetica,sans-Serif" font-size="10.00">&#45;sgf/kynema&#45;sgf/src/wind</text>
<text text-anchor="start" x="659.5" y="-117" font-family="Helvetica,sans-Serif" font-size="10.00">_energy/actuator/turbine</text>
<text text-anchor="start" x="659.5" y="-106" font-family="Helvetica,sans-Serif" font-size="10.00">/kynema_fmb/turbine_kynema</text>
<text text-anchor="middle" x="734" y="-95" font-family="Helvetica,sans-Serif" font-size="10.00">_fmb_ops.H</text>
</a>
</g>
</g>
<!-- Node25&#45;&gt;Node27 -->
<g id="edge34_Node000025_Node000027" class="edge">
<title>Node25&#45;&gt;Node27</title>
<g id="a_edge34_Node000025_Node000027"><a xlink:title=" ">
<path fill="none" stroke="#63b8ff" d="M731.53,-176.93C731.91,-168.39 732.3,-159.32 732.67,-151.02"/>
<polygon fill="#63b8ff" stroke="#63b8ff" points="728.03,-176.85 731.09,-187 735.03,-177.16 728.03,-176.85"/>
</a>
</g>
</g>
<!-- Node26&#45;&gt;Node11 -->
<g id="edge33_Node000026_Node000011" class="edge">
<title>Node26&#45;&gt;Node11</title>
<g id="a_edge33_Node000026_Node000011"><a xlink:title=" ">
<path fill="none" stroke="#63b8ff" d="M936.05,-85.4C944.64,-74.48 954.04,-62.53 962.1,-52.29"/>
<polygon fill="#63b8ff" stroke="#63b8ff" points="933.11,-83.47 929.67,-93.5 938.61,-87.8 933.11,-83.47"/>
</a>
</g>
</g>
<!-- Node27&#45;&gt;Node12 -->
<g id="edge35_Node000027_Node000012" class="edge">
<title>Node27&#45;&gt;Node12</title>
<g id="a_edge35_Node000027_Node000012"><a xlink:title=" ">
<path fill="none" stroke="#63b8ff" d="M742.03,-77.7C743.75,-68.95 745.52,-59.96 747.08,-52.02"/>
<polygon fill="#63b8ff" stroke="#63b8ff" points="738.54,-77.29 740.04,-87.78 745.41,-78.64 738.54,-77.29"/>
</a>
</g>
</g>
<!-- Node28&#45;&gt;Node25 -->
<g id="edge37_Node000028_Node000025" class="edge">
<title>Node28&#45;&gt;Node25</title>
<g id="a_edge37_Node000028_Node000025"><a xlink:title=" ">
<path fill="none" stroke="#63b8ff" d="M729.41,-264.56C729.51,-256.04 729.62,-247.1 729.71,-239.16"/>
<polygon fill="#63b8ff" stroke="#63b8ff" points="725.91,-264.62 729.29,-274.66 732.91,-264.7 725.91,-264.62"/>
</a>
</g>
</g>
<!-- Node29&#45;&gt;Node13 -->
<g id="edge39_Node000029_Node000013" class="edge">
<title>Node29&#45;&gt;Node13</title>
<g id="a_edge39_Node000029_Node000013"><a xlink:title=" ">
<path fill="none" stroke="#63b8ff" d="M1559.55,-176.91C1558.33,-164.49 1557,-150.95 1555.94,-140.26"/>
<polygon fill="#63b8ff" stroke="#63b8ff" points="1556.08,-177.39 1560.54,-187 1563.04,-176.7 1556.08,-177.39"/>
</a>
</g>
</g>
<!-- Node30&#45;&gt;Node14 -->
<g id="edge41_Node000030_Node000014" class="edge">
<title>Node30&#45;&gt;Node14</title>
<g id="a_edge41_Node000030_Node000014"><a xlink:title=" ">
<path fill="none" stroke="#63b8ff" d="M1877.14,-179.13C1866.9,-166.12 1855.47,-151.59 1846.55,-140.26"/>
<polygon fill="#63b8ff" stroke="#63b8ff" points="1874.39,-181.3 1883.33,-187 1879.89,-176.97 1874.39,-181.3"/>
</a>
</g>
</g>
<!-- Node31&#45;&gt;Node29 -->
<g id="edge43_Node000031_Node000029" class="edge">
<title>Node31&#45;&gt;Node29</title>
<g id="a_edge43_Node000031_Node000029"><a xlink:title=" ">
<path fill="none" stroke="#63b8ff" d="M1723.65,-276.8C1693.89,-265.16 1657.79,-251.05 1627.36,-239.16"/>
<polygon fill="#63b8ff" stroke="#63b8ff" points="1722.49,-280.1 1733.08,-280.49 1725.04,-273.58 1722.49,-280.1"/>
</a>
</g>
</g>
<!-- Node31&#45;&gt;Node30 -->
<g id="edge44_Node000031_Node000030" class="edge">
<title>Node31&#45;&gt;Node30</title>
<g id="a_edge44_Node000031_Node000030"><a xlink:title=" ">
<path fill="none" stroke="#63b8ff" d="M1818.54,-274.53C1834.05,-263.41 1852.19,-250.41 1867.67,-239.32"/>
<polygon fill="#63b8ff" stroke="#63b8ff" points="1816.32,-271.82 1810.23,-280.49 1820.4,-277.5 1816.32,-271.82"/>
</a>
</g>
</g>
<!-- Node32 -->
<g id="Node000032" class="node">
<title>Node32</title>
<g id="a_Node000032"><a xlink:href="wing__ops_8cpp.html" target="_top" xlink:title=" ">
<polygon fill="white" stroke="#666666" points="1809,-239 1657,-239 1657,-187 1809,-187 1809,-239"/>
<text text-anchor="start" x="1665" y="-227" font-family="Helvetica,sans-Serif" font-size="10.00">/home/runner/work/kynema</text>
<text text-anchor="start" x="1665" y="-216" font-family="Helvetica,sans-Serif" font-size="10.00">&#45;sgf/kynema&#45;sgf/src/wind</text>
<text text-anchor="start" x="1665" y="-205" font-family="Helvetica,sans-Serif" font-size="10.00">_energy/actuator/wing/wing</text>
<text text-anchor="middle" x="1733" y="-194" font-family="Helvetica,sans-Serif" font-size="10.00">_ops.cpp</text>
</a>
</g>
</g>
<!-- Node31&#45;&gt;Node32 -->
<g id="edge45_Node000031_Node000032" class="edge">
<title>Node31&#45;&gt;Node32</title>
<g id="a_edge45_Node000031_Node000032"><a xlink:title=" ">
<path fill="none" stroke="#63b8ff" d="M1766.55,-271.71C1760.48,-261.26 1753.63,-249.49 1747.72,-239.32"/>
<polygon fill="#63b8ff" stroke="#63b8ff" points="1763.6,-273.6 1771.65,-280.49 1769.65,-270.08 1763.6,-273.6"/>
</a>
</g>
</g>
</g>
</svg>

<g id="navigator" transform="translate(0 0)" fill="#404254">
  <rect fill="#f2f5e9" fill-opacity="0.5" stroke="#606060" stroke-width=".5" x="0" y="0" width="60" height="60"/>
  <use id="zoomplus" xlink:href="#zoomPlus" x="17" y="9" onmousedown="handleZoom(evt,'in')"/>
  <use id="zoomminus" xlink:href="#zoomMin" x="42" y="9" onmousedown="handleZoom(evt,'out')"/>
  <use id="reset" xlink:href="#resetDef" x="30" y="36" onmousedown="handleReset()"/>
   <use id="arrowup" xlink:href="#arrowUp" x="0" y="0" onmousedown="handlePan(0,-1)"/>
  <use id="arrowright" xlink:href="#arrowRight" x="0" y="0" onmousedown="handlePan(1,0)"/>
  <use id="arrowdown" xlink:href="#arrowDown" x="0" y="0" onmousedown="handlePan(0,1)"/>
  <use id="arrowleft" xlink:href="#arrowLeft" x="0" y="0" onmousedown="handlePan(-1,0)"/>
</g>
<svg viewBox="0 0 15 15" width="100%" height="30px" preserveAspectRatio="xMaxYMin meet">
 <g id="arrow_out" transform="scale(0.3 0.3)">
  <a xlink:href="actuator__ops_i_8_h__dep__incl_org.svg" target="_base">
   <rect id="button" ry="5" rx="5" y="6" x="6" height="38" width="38"
        fill="#f2f5e9" fill-opacity="0.5" stroke="#606060" stroke-width="1.0"/>
   <path id="arrow"
     d="M 11.500037,31.436501 C 11.940474,20.09759 22.043105,11.32322 32.158766,21.979434 L 37.068811,17.246167 C 37.068811,17.246167 37.088388,32 37.088388,32 L 22.160133,31.978069 C 22.160133,31.978069 26.997745,27.140456 26.997745,27.140456 C 18.528582,18.264221 13.291696,25.230495 11.500037,31.436501 z"
     style="fill:#404040;"/>
  </a>
 </g>
</svg>

<style type='text/css'>
<![CDATA[
[data-mouse-over-selected='false'] { opacity: 0.7; }
[data-mouse-over-selected='true']  { opacity: 1.0; }
]]>
</style>
<script type="application/ecmascript"><![CDATA[
document.addEventListener('DOMContentLoaded', (event) => {
  highlightEdges();
  highlightAdjacentNodes();
});
]]></script>
</svg>
