<?xml version="1.0" encoding="UTF-8" standalone="no"?>
<!DOCTYPE svg PUBLIC "-//W3C//DTD SVG 1.1//EN"
 "http://www.w3.org/Graphics/SVG/1.1/DTD/svg11.dtd">
<!-- Generated by graphviz version 2.43.0 (0)
 -->
<!-- Title: /home/runner/work/kynema&#45;sgf/kynema&#45;sgf/src/immersed_boundary/bluff_body/bluff_body_ops.H Pages: 1 -->
<svg width="793pt" height="225pt"
 viewBox="0.00 0.00 792.50 225.00" xmlns="http://www.w3.org/2000/svg" xmlns:xlink="http://www.w3.org/1999/xlink">
<g id="graph0" class="graph" transform="scale(1 1) rotate(0) translate(4 221)">
<title>/home/runner/work/kynema&#45;sgf/kynema&#45;sgf/src/immersed_boundary/bluff_body/bluff_body_ops.H</title>
<!-- Node1 -->
<g id="Node000001" class="node">
<title>Node1</title>
<g id="a_Node000001"><a xlink:title=" ">
<polygon fill="#999999" stroke="#666666" points="457,-217 291,-217 291,-165 457,-165 457,-217"/>
<text text-anchor="start" x="299" y="-205" font-family="Helvetica,sans-Serif" font-size="10.00">/home/runner/work/kynema</text>
<text text-anchor="start" x="299" y="-194" font-family="Helvetica,sans-Serif" font-size="10.00">&#45;sgf/kynema&#45;sgf/src/immersed</text>
<text text-anchor="start" x="299" y="-183" font-family="Helvetica,sans-Serif" font-size="10.00">_boundary/bluff_body/bluff</text>
<text text-anchor="middle" x="374" y="-172" font-family="Helvetica,sans-Serif" font-size="10.00">_body_ops.H</text>
</a>
</g>
</g>
<!-- Node2 -->
<g id="Node000002" class="node">
<title>Node2</title>
<g id="a_Node000002"><a xlink:href="bluff__body__ops_8cpp.html" target="_top" xlink:title=" ">
<polygon fill="white" stroke="#666666" points="166,-129 0,-129 0,-77 166,-77 166,-129"/>
<text text-anchor="start" x="8" y="-117" font-family="Helvetica,sans-Serif" font-size="10.00">/home/runner/work/kynema</text>
<text text-anchor="start" x="8" y="-106" font-family="Helvetica,sans-Serif" font-size="10.00">&#45;sgf/kynema&#45;sgf/src/immersed</text>
<text text-anchor="start" x="8" y="-95" font-family="Helvetica,sans-Serif" font-size="10.00">_boundary/bluff_body/bluff</text>
<text text-anchor="middle" x="83" y="-84" font-family="Helvetica,sans-Serif" font-size="10.00">_body_ops.cpp</text>
</a>
</g>
</g>
<!-- Node1&#45;&gt;Node2 -->
<g id="edge1_Node000001_Node000002" class="edge">
<title>Node1&#45;&gt;Node2</title>
<g id="a_edge1_Node000001_Node000002"><a xlink:title=" ">
<path fill="none" stroke="#63b8ff" d="M280.86,-162.47C244,-151.58 201.97,-139.16 166.15,-128.57"/>
<polygon fill="#63b8ff" stroke="#63b8ff" points="280.03,-165.88 290.61,-165.36 282.01,-159.17 280.03,-165.88"/>
</a>
</g>
</g>
<!-- Node3 -->
<g id="Node000003" class="node">
<title>Node3</title>
<g id="a_Node000003"><a xlink:href="box__ops_8_h.html" target="_top" xlink:title=" ">
<polygon fill="white" stroke="#666666" points="360,-123.5 184,-123.5 184,-82.5 360,-82.5 360,-123.5"/>
<text text-anchor="start" x="192" y="-111.5" font-family="Helvetica,sans-Serif" font-size="10.00">/home/runner/work/kynema</text>
<text text-anchor="start" x="192" y="-100.5" font-family="Helvetica,sans-Serif" font-size="10.00">&#45;sgf/kynema&#45;sgf/src/immersed</text>
<text text-anchor="middle" x="272" y="-89.5" font-family="Helvetica,sans-Serif" font-size="10.00">_boundary/bluff_body/box_ops.H</text>
</a>
</g>
</g>
<!-- Node1&#45;&gt;Node3 -->
<g id="edge2_Node000001_Node000003" class="edge">
<title>Node1&#45;&gt;Node3</title>
<g id="a_edge2_Node000001_Node000003"><a xlink:title=" ">
<path fill="none" stroke="#63b8ff" d="M336.3,-158.21C322.5,-146.58 307.31,-133.77 295.16,-123.53"/>
<polygon fill="#63b8ff" stroke="#63b8ff" points="334.32,-161.12 344.22,-164.89 338.83,-155.77 334.32,-161.12"/>
</a>
</g>
</g>
<!-- Node5 -->
<g id="Node000005" class="node">
<title>Node5</title>
<g id="a_Node000005"><a xlink:href="cylinder__ops_8_h.html" target="_top" xlink:title=" ">
<polygon fill="white" stroke="#666666" points="575.5,-123.5 378.5,-123.5 378.5,-82.5 575.5,-82.5 575.5,-123.5"/>
<text text-anchor="start" x="386.5" y="-111.5" font-family="Helvetica,sans-Serif" font-size="10.00">/home/runner/work/kynema</text>
<text text-anchor="start" x="386.5" y="-100.5" font-family="Helvetica,sans-Serif" font-size="10.00">&#45;sgf/kynema&#45;sgf/src/immersed</text>
<text text-anchor="middle" x="477" y="-89.5" font-family="Helvetica,sans-Serif" font-size="10.00">_boundary/bluff_body/cylinder_ops.H</text>
</a>
</g>
</g>
<!-- Node1&#45;&gt;Node5 -->
<g id="edge4_Node000001_Node000005" class="edge">
<title>Node1&#45;&gt;Node5</title>
<g id="a_edge4_Node000001_Node000005"><a xlink:title=" ">
<path fill="none" stroke="#63b8ff" d="M412.07,-158.21C426,-146.58 441.34,-133.77 453.61,-123.53"/>
<polygon fill="#63b8ff" stroke="#63b8ff" points="409.5,-155.8 404.07,-164.89 413.99,-161.17 409.5,-155.8"/>
</a>
</g>
</g>
<!-- Node7 -->
<g id="Node000007" class="node">
<title>Node7</title>
<g id="a_Node000007"><a xlink:href="sphere__ops_8_h.html" target="_top" xlink:title=" ">
<polygon fill="white" stroke="#666666" points="784.5,-123.5 593.5,-123.5 593.5,-82.5 784.5,-82.5 784.5,-123.5"/>
<text text-anchor="start" x="601.5" y="-111.5" font-family="Helvetica,sans-Serif" font-size="10.00">/home/runner/work/kynema</text>
<text text-anchor="start" x="601.5" y="-100.5" font-family="Helvetica,sans-Serif" font-size="10.00">&#45;sgf/kynema&#45;sgf/src/immersed</text>
<text text-anchor="middle" x="689" y="-89.5" font-family="Helvetica,sans-Serif" font-size="10.00">_boundary/bluff_body/sphere_ops.H</text>
</a>
</g>
</g>
<!-- Node1&#45;&gt;Node7 -->
<g id="edge6_Node000001_Node000007" class="edge">
<title>Node1&#45;&gt;Node7</title>
<g id="a_edge6_Node000001_Node000007"><a xlink:title=" ">
<path fill="none" stroke="#63b8ff" d="M466.97,-164.62C515.05,-151.49 572.84,-135.71 617.41,-123.55"/>
<polygon fill="#63b8ff" stroke="#63b8ff" points="465.9,-161.28 457.17,-167.29 467.74,-168.03 465.9,-161.28"/>
</a>
</g>
</g>
<!-- Node4 -->
<g id="Node000004" class="node">
<title>Node4</title>
<g id="a_Node000004"><a xlink:href="_box_8cpp.html" target="_top" xlink:title=" ">
<polygon fill="white" stroke="#666666" points="355,-41 189,-41 189,0 355,0 355,-41"/>
<text text-anchor="start" x="197" y="-29" font-family="Helvetica,sans-Serif" font-size="10.00">/home/runner/work/kynema</text>
<text text-anchor="start" x="197" y="-18" font-family="Helvetica,sans-Serif" font-size="10.00">&#45;sgf/kynema&#45;sgf/src/immersed</text>
<text text-anchor="middle" x="272" y="-7" font-family="Helvetica,sans-Serif" font-size="10.00">_boundary/bluff_body/Box.cpp</text>
</a>
</g>
</g>
<!-- Node3&#45;&gt;Node4 -->
<g id="edge3_Node000003_Node000004" class="edge">
<title>Node3&#45;&gt;Node4</title>
<g id="a_edge3_Node000003_Node000004"><a xlink:title=" ">
<path fill="none" stroke="#63b8ff" d="M272,-71.87C272,-61.6 272,-50.4 272,-41.17"/>
<polygon fill="#63b8ff" stroke="#63b8ff" points="268.5,-72.1 272,-82.1 275.5,-72.1 268.5,-72.1"/>
</a>
</g>
</g>
<!-- Node6 -->
<g id="Node000006" class="node">
<title>Node6</title>
<g id="a_Node000006"><a xlink:href="_cylinder_8cpp.html" target="_top" xlink:title=" ">
<polygon fill="white" stroke="#666666" points="569.5,-41 384.5,-41 384.5,0 569.5,0 569.5,-41"/>
<text text-anchor="start" x="392.5" y="-29" font-family="Helvetica,sans-Serif" font-size="10.00">/home/runner/work/kynema</text>
<text text-anchor="start" x="392.5" y="-18" font-family="Helvetica,sans-Serif" font-size="10.00">&#45;sgf/kynema&#45;sgf/src/immersed</text>
<text text-anchor="middle" x="477" y="-7" font-family="Helvetica,sans-Serif" font-size="10.00">_boundary/bluff_body/Cylinder.cpp</text>
</a>
</g>
</g>
<!-- Node5&#45;&gt;Node6 -->
<g id="edge5_Node000005_Node000006" class="edge">
<title>Node5&#45;&gt;Node6</title>
<g id="a_edge5_Node000005_Node000006"><a xlink:title=" ">
<path fill="none" stroke="#63b8ff" d="M477,-71.87C477,-61.6 477,-50.4 477,-41.17"/>
<polygon fill="#63b8ff" stroke="#63b8ff" points="473.5,-72.1 477,-82.1 480.5,-72.1 473.5,-72.1"/>
</a>
</g>
</g>
<!-- Node8 -->
<g id="Node000008" class="node">
<title>Node8</title>
<g id="a_Node000008"><a xlink:href="_sphere_8cpp.html" target="_top" xlink:title=" ">
<polygon fill="white" stroke="#666666" points="778.5,-41 599.5,-41 599.5,0 778.5,0 778.5,-41"/>
<text text-anchor="start" x="607.5" y="-29" font-family="Helvetica,sans-Serif" font-size="10.00">/home/runner/work/kynema</text>
<text text-anchor="start" x="607.5" y="-18" font-family="Helvetica,sans-Serif" font-size="10.00">&#45;sgf/kynema&#45;sgf/src/immersed</text>
<text text-anchor="middle" x="689" y="-7" font-family="Helvetica,sans-Serif" font-size="10.00">_boundary/bluff_body/Sphere.cpp</text>
</a>
</g>
</g>
<!-- Node7&#45;&gt;Node8 -->
<g id="edge7_Node000007_Node000008" class="edge">
<title>Node7&#45;&gt;Node8</title>
<g id="a_edge7_Node000007_Node000008"><a xlink:title=" ">
<path fill="none" stroke="#63b8ff" d="M689,-71.87C689,-61.6 689,-50.4 689,-41.17"/>
<polygon fill="#63b8ff" stroke="#63b8ff" points="685.5,-72.1 689,-82.1 692.5,-72.1 685.5,-72.1"/>
</a>
</g>
</g>
</g>
</svg>
