<?xml version="1.0" encoding="UTF-8" standalone="no"?>
<!DOCTYPE svg PUBLIC "-//W3C//DTD SVG 1.1//EN"
 "http://www.w3.org/Graphics/SVG/1.1/DTD/svg11.dtd">
<!-- Generated by graphviz version 2.43.0 (0)
 -->
<!-- Title: kynema_sgf::actuator::ops::ActSrcOp&lt; ActTrait, SrcTrait, typename &gt; Pages: 1 -->
<svg width="530pt" height="386pt"
 viewBox="0.00 0.00 530.00 385.50" xmlns="http://www.w3.org/2000/svg" xmlns:xlink="http://www.w3.org/1999/xlink">
<g id="graph0" class="graph" transform="scale(1 1) rotate(0) translate(4 381.5)">
<title>kynema_sgf::actuator::ops::ActSrcOp&lt; ActTrait, SrcTrait, typename &gt;</title>
<!-- Node1 -->
<g id="Node000001" class="node">
<title>Node1</title>
<g id="a_Node000001"><a xlink:title=" ">
<polygon fill="#999999" stroke="#666666" points="141,-168 0,-168 0,-127 141,-127 141,-168"/>
<text text-anchor="start" x="8" y="-156" font-family="Helvetica,sans-Serif" font-size="10.00">kynema_sgf::actuator</text>
<text text-anchor="start" x="8" y="-145" font-family="Helvetica,sans-Serif" font-size="10.00">::ops::ActSrcOp&lt; ActTrait,</text>
<text text-anchor="middle" x="70.5" y="-134" font-family="Helvetica,sans-Serif" font-size="10.00"> SrcTrait, typename &gt;</text>
</a>
</g>
</g>
<!-- Node2 -->
<g id="Node000002" class="node">
<title>Node2</title>
<g id="a_Node000002"><a xlink:href="classkynema__sgf_1_1actuator_1_1ops_1_1_act_src_op.html" target="_top" xlink:title=" ">
<polygon fill="white" stroke="#666666" points="520.5,-343.5 347.5,-343.5 347.5,-291.5 520.5,-291.5 520.5,-343.5"/>
<text text-anchor="start" x="355.5" y="-331.5" font-family="Helvetica,sans-Serif" font-size="10.00">kynema_sgf::actuator</text>
<text text-anchor="start" x="355.5" y="-320.5" font-family="Helvetica,sans-Serif" font-size="10.00">::ops::ActSrcOp&lt; T, ActSrcDisk,</text>
<text text-anchor="start" x="355.5" y="-309.5" font-family="Helvetica,sans-Serif" font-size="10.00"> std::enable_if_t&lt; std::is</text>
<text text-anchor="middle" x="434" y="-298.5" font-family="Helvetica,sans-Serif" font-size="10.00">_base_of_v&lt; DiskType, T &gt; &gt; &gt;</text>
</a>
</g>
</g>
<!-- Node1&#45;&gt;Node2 -->
<g id="edge1_Node000001_Node000002" class="edge">
<title>Node1&#45;&gt;Node2</title>
<g id="a_edge1_Node000001_Node000002"><a xlink:title=" ">
<path fill="none" stroke="orange" stroke-dasharray="5,2" d="M80.07,-177.72C91.71,-212.64 116.15,-268.72 159,-295.5 214.75,-330.33 289.84,-334.05 347.31,-330.05"/>
<polygon fill="orange" stroke="orange" points="83.36,-176.51 76.99,-168.05 76.68,-178.64 83.36,-176.51"/>
</a>
</g>
<text text-anchor="start" x="162.5" y="-366" font-family="Helvetica,sans-Serif" font-size="10.00" fill="grey">&lt; T, ActSrcDisk, std</text>
<text text-anchor="start" x="162.5" y="-351" font-family="Helvetica,sans-Serif" font-size="10.00" fill="grey">  ::enable_if_t&lt; std::is</text>
<text text-anchor="start" x="162.5" y="-336" font-family="Helvetica,sans-Serif" font-size="10.00" fill="grey">  _base_of_v&lt; DiskType, T &gt; &gt; &gt;</text>
</g>
<!-- Node3 -->
<g id="Node000003" class="node">
<title>Node3</title>
<g id="a_Node000003"><a xlink:href="classkynema__sgf_1_1actuator_1_1ops_1_1_act_src_op_3_01_act_trait_00_01_act_src_disk_00_01std_1_ebca356fcd5bf2d26a89d157a4d97d95.html" target="_top" xlink:title=" ">
<polygon fill="white" stroke="#666666" points="508.5,-264 359.5,-264 359.5,-201 508.5,-201 508.5,-264"/>
<text text-anchor="start" x="367.5" y="-252" font-family="Helvetica,sans-Serif" font-size="10.00">kynema_sgf::actuator</text>
<text text-anchor="start" x="367.5" y="-241" font-family="Helvetica,sans-Serif" font-size="10.00">::ops::ActSrcOp&lt; ActTrait,</text>
<text text-anchor="start" x="367.5" y="-230" font-family="Helvetica,sans-Serif" font-size="10.00"> ActSrcDisk, std::enable</text>
<text text-anchor="start" x="367.5" y="-219" font-family="Helvetica,sans-Serif" font-size="10.00">_if_t&lt; std::is_base_of_v</text>
<text text-anchor="middle" x="434" y="-208" font-family="Helvetica,sans-Serif" font-size="10.00">&lt; DiskType, ActTrait &gt; &gt; &gt;</text>
</a>
</g>
</g>
<!-- Node1&#45;&gt;Node3 -->
<g id="edge2_Node000001_Node000003" class="edge">
<title>Node1&#45;&gt;Node3</title>
<g id="a_edge2_Node000001_Node000003"><a xlink:title=" ">
<path fill="none" stroke="orange" stroke-dasharray="5,2" d="M100.79,-174.81C116.76,-188 137.6,-202.64 159,-210.5 194.5,-223.54 291.08,-228.87 359.49,-231.03"/>
<polygon fill="orange" stroke="orange" points="102.79,-171.92 92.91,-168.09 98.25,-177.24 102.79,-171.92"/>
</a>
</g>
<text text-anchor="start" x="176.5" y="-280.5" font-family="Helvetica,sans-Serif" font-size="10.00" fill="grey">&lt; ActTrait, ActSrcDisk,</text>
<text text-anchor="start" x="176.5" y="-265.5" font-family="Helvetica,sans-Serif" font-size="10.00" fill="grey">   std::enable_if_t&lt; std</text>
<text text-anchor="start" x="176.5" y="-250.5" font-family="Helvetica,sans-Serif" font-size="10.00" fill="grey">  ::is_base_of_v&lt; DiskType,</text>
<text text-anchor="start" x="176.5" y="-235.5" font-family="Helvetica,sans-Serif" font-size="10.00" fill="grey">   ActTrait &gt; &gt; &gt;</text>
</g>
<!-- Node4 -->
<g id="Node000004" class="node">
<title>Node4</title>
<g id="a_Node000004"><a xlink:href="classkynema__sgf_1_1actuator_1_1ops_1_1_act_src_op_3_01_act_trait_00_01_act_src_disk_00_01std_1_447bd02f6c910383ef6e444e74c1f851.html" target="_top" xlink:title=" ">
<polygon fill="white" stroke="#666666" points="515,-181 353,-181 353,-118 515,-118 515,-181"/>
<text text-anchor="start" x="361" y="-169" font-family="Helvetica,sans-Serif" font-size="10.00">kynema_sgf::actuator</text>
<text text-anchor="start" x="361" y="-158" font-family="Helvetica,sans-Serif" font-size="10.00">::ops::ActSrcOp&lt; ActTrait,</text>
<text text-anchor="start" x="361" y="-147" font-family="Helvetica,sans-Serif" font-size="10.00"> ActSrcDisk, std::enable</text>
<text text-anchor="start" x="361" y="-136" font-family="Helvetica,sans-Serif" font-size="10.00">_if_t&lt; std::is_base_of_v</text>
<text text-anchor="middle" x="434" y="-125" font-family="Helvetica,sans-Serif" font-size="10.00">&lt; TurbineType, ActTrait &gt; &gt; &gt;</text>
</a>
</g>
</g>
<!-- Node1&#45;&gt;Node4 -->
<g id="edge3_Node000001_Node000004" class="edge">
<title>Node1&#45;&gt;Node4</title>
<g id="a_edge3_Node000001_Node000004"><a xlink:title=" ">
<path fill="none" stroke="orange" stroke-dasharray="5,2" d="M151.4,-147.7C202.01,-147.85 268.84,-148.1 328,-148.5 336.02,-148.55 344.39,-148.62 352.74,-148.69"/>
<polygon fill="orange" stroke="orange" points="151.19,-144.2 141.17,-147.67 151.16,-151.2 151.19,-144.2"/>
</a>
</g>
<text text-anchor="start" x="169.5" y="-199.5" font-family="Helvetica,sans-Serif" font-size="10.00" fill="grey">&lt; ActTrait, ActSrcDisk,</text>
<text text-anchor="start" x="169.5" y="-184.5" font-family="Helvetica,sans-Serif" font-size="10.00" fill="grey">   std::enable_if_t&lt; std</text>
<text text-anchor="start" x="169.5" y="-169.5" font-family="Helvetica,sans-Serif" font-size="10.00" fill="grey">  ::is_base_of_v&lt; TurbineType,</text>
<text text-anchor="start" x="169.5" y="-154.5" font-family="Helvetica,sans-Serif" font-size="10.00" fill="grey">   ActTrait &gt; &gt; &gt;</text>
</g>
<!-- Node5 -->
<g id="Node000005" class="node">
<title>Node5</title>
<g id="a_Node000005"><a xlink:href="classkynema__sgf_1_1actuator_1_1ops_1_1_act_src_op_3_01_act_trait_00_01_act_src_line_01_4.html" target="_top" xlink:title=" ">
<polygon fill="white" stroke="#666666" points="504.5,-100 363.5,-100 363.5,-59 504.5,-59 504.5,-100"/>
<text text-anchor="start" x="371.5" y="-88" font-family="Helvetica,sans-Serif" font-size="10.00">kynema_sgf::actuator</text>
<text text-anchor="start" x="371.5" y="-77" font-family="Helvetica,sans-Serif" font-size="10.00">::ops::ActSrcOp&lt; ActTrait,</text>
<text text-anchor="middle" x="434" y="-66" font-family="Helvetica,sans-Serif" font-size="10.00"> ActSrcLine &gt;</text>
</a>
</g>
</g>
<!-- Node1&#45;&gt;Node5 -->
<g id="edge4_Node000001_Node000005" class="edge">
<title>Node1&#45;&gt;Node5</title>
<g id="a_edge4_Node000001_Node000005"><a xlink:title=" ">
<path fill="none" stroke="orange" stroke-dasharray="5,2" d="M150.99,-128.19C153.69,-127.61 156.37,-127.04 159,-126.5 228.14,-112.29 307.71,-98.98 363.22,-90.17"/>
<polygon fill="orange" stroke="orange" points="150.15,-124.79 141.14,-130.35 151.66,-131.62 150.15,-124.79"/>
</a>
</g>
<text text-anchor="start" x="185.5" y="-132" font-family="Helvetica,sans-Serif" font-size="10.00" fill="grey">&lt; ActTrait, ActSrcLine &gt;</text>
</g>
<!-- Node6 -->
<g id="Node000006" class="node">
<title>Node6</title>
<g id="a_Node000006"><a xlink:href="classkynema__sgf_1_1actuator_1_1ops_1_1_act_src_op_3_01_actuator_sector_00_01_act_src_sector_01_4.html" target="_top" xlink:title=" ">
<polygon fill="white" stroke="#666666" points="522,-41 346,-41 346,0 522,0 522,-41"/>
<text text-anchor="start" x="354" y="-29" font-family="Helvetica,sans-Serif" font-size="10.00">kynema_sgf::actuator</text>
<text text-anchor="start" x="354" y="-18" font-family="Helvetica,sans-Serif" font-size="10.00">::ops::ActSrcOp&lt; ActuatorSector,</text>
<text text-anchor="middle" x="434" y="-7" font-family="Helvetica,sans-Serif" font-size="10.00"> ActSrcSector &gt;</text>
</a>
</g>
</g>
<!-- Node1&#45;&gt;Node6 -->
<g id="edge5_Node000001_Node000006" class="edge">
<title>Node1&#45;&gt;Node6</title>
<g id="a_edge5_Node000001_Node000006"><a xlink:title=" ">
<path fill="none" stroke="orange" stroke-dasharray="5,2" d="M92.3,-118.73C108.23,-98.99 132.01,-74 159,-60.5 216.94,-31.52 289.8,-21.97 345.82,-19.42"/>
<polygon fill="orange" stroke="orange" points="89.37,-116.79 85.96,-126.82 94.88,-121.11 89.37,-116.79"/>
</a>
</g>
<text text-anchor="start" x="183.5" y="-81.5" font-family="Helvetica,sans-Serif" font-size="10.00" fill="grey">&lt; ActuatorSector, ActSrc</text>
<text text-anchor="start" x="183.5" y="-66.5" font-family="Helvetica,sans-Serif" font-size="10.00" fill="grey">  Sector &gt;</text>
</g>
</g>
</svg>
