<?xml version="1.0" encoding="UTF-8" standalone="no"?>
<!DOCTYPE svg PUBLIC "-//W3C//DTD SVG 1.1//EN"
 "http://www.w3.org/Graphics/SVG/1.1/DTD/svg11.dtd">
<!-- Generated by graphviz version 2.43.0 (0)
 -->
<!-- Title: kynema_sgf::actuator::ActDataHolder&lt; ActTrait &gt; Pages: 1 -->
<svg width="557pt" height="304pt"
 viewBox="0.00 0.00 557.00 304.00" xmlns="http://www.w3.org/2000/svg" xmlns:xlink="http://www.w3.org/1999/xlink">
<g id="graph0" class="graph" transform="scale(1 1) rotate(0) translate(4 300)">
<title>kynema_sgf::actuator::ActDataHolder&lt; ActTrait &gt;</title>
<!-- Node1 -->
<g id="Node000001" class="node">
<title>Node1</title>
<g id="a_Node000001"><a xlink:title=" ">
<polygon fill="#999999" stroke="#666666" points="153,-166 0,-166 0,-136 153,-136 153,-166"/>
<text text-anchor="start" x="8" y="-154" font-family="Helvetica,sans-Serif" font-size="10.00">kynema_sgf::actuator</text>
<text text-anchor="middle" x="76.5" y="-143" font-family="Helvetica,sans-Serif" font-size="10.00">::ActDataHolder&lt; ActTrait &gt;</text>
</a>
</g>
</g>
<!-- Node2 -->
<g id="Node000002" class="node">
<title>Node2</title>
<g id="a_Node000002"><a xlink:href="classkynema__sgf_1_1actuator_1_1_act_data_holder.html" target="_top" xlink:title=" ">
<polygon fill="white" stroke="#666666" points="538.5,-292 371.5,-292 371.5,-262 538.5,-262 538.5,-292"/>
<text text-anchor="start" x="379.5" y="-280" font-family="Helvetica,sans-Serif" font-size="10.00">kynema_sgf::actuator</text>
<text text-anchor="middle" x="455" y="-269" font-family="Helvetica,sans-Serif" font-size="10.00">::ActDataHolder&lt; Joukowsky &gt;</text>
</a>
</g>
</g>
<!-- Node1&#45;&gt;Node2 -->
<g id="edge1_Node000001_Node000002" class="edge">
<title>Node1&#45;&gt;Node2</title>
<g id="a_edge1_Node000001_Node000002"><a xlink:title=" ">
<path fill="none" stroke="orange" stroke-dasharray="5,2" d="M94.2,-174.34C110.99,-195.82 138.91,-226.6 171,-242 233.71,-272.09 312.83,-279.7 371.46,-280.43"/>
<polygon fill="orange" stroke="orange" points="96.96,-172.18 88.13,-166.34 91.39,-176.42 96.96,-172.18"/>
</a>
</g>
<text text-anchor="start" x="220" y="-284.5" font-family="Helvetica,sans-Serif" font-size="10.00" fill="grey">&lt; Joukowsky &gt;</text>
</g>
<!-- Node3 -->
<g id="Node000003" class="node">
<title>Node3</title>
<g id="a_Node000003"><a xlink:href="classkynema__sgf_1_1actuator_1_1_act_data_holder.html" target="_top" xlink:title=" ">
<polygon fill="white" stroke="#666666" points="538.5,-244 371.5,-244 371.5,-214 538.5,-214 538.5,-244"/>
<text text-anchor="start" x="379.5" y="-232" font-family="Helvetica,sans-Serif" font-size="10.00">kynema_sgf::actuator</text>
<text text-anchor="middle" x="455" y="-221" font-family="Helvetica,sans-Serif" font-size="10.00">::ActDataHolder&lt; UniformCt &gt;</text>
</a>
</g>
</g>
<!-- Node1&#45;&gt;Node3 -->
<g id="edge2_Node000001_Node000003" class="edge">
<title>Node1&#45;&gt;Node3</title>
<g id="a_edge2_Node000001_Node000003"><a xlink:title=" ">
<path fill="none" stroke="orange" stroke-dasharray="5,2" d="M114.75,-170.79C131.51,-178.88 151.81,-187.6 171,-193 236.91,-211.55 314.17,-220.56 371.29,-224.93"/>
<polygon fill="orange" stroke="orange" points="115.84,-167.42 105.33,-166.12 112.74,-173.7 115.84,-167.42"/>
</a>
</g>
<text text-anchor="start" x="221" y="-226.5" font-family="Helvetica,sans-Serif" font-size="10.00" fill="grey">&lt; UniformCt &gt;</text>
</g>
<!-- Node4 -->
<g id="Node000004" class="node">
<title>Node4</title>
<g id="a_Node000004"><a xlink:href="classkynema__sgf_1_1actuator_1_1_act_data_holder.html" target="_top" xlink:title=" ">
<polygon fill="white" stroke="#666666" points="549,-196 361,-196 361,-166 549,-166 549,-196"/>
<text text-anchor="start" x="369" y="-184" font-family="Helvetica,sans-Serif" font-size="10.00">kynema_sgf::actuator</text>
<text text-anchor="middle" x="455" y="-173" font-family="Helvetica,sans-Serif" font-size="10.00">::ActDataHolder&lt; ActuatorSector &gt;</text>
</a>
</g>
</g>
<!-- Node1&#45;&gt;Node4 -->
<g id="edge3_Node000001_Node000004" class="edge">
<title>Node1&#45;&gt;Node4</title>
<g id="a_edge3_Node000001_Node000004"><a xlink:title=" ">
<path fill="none" stroke="orange" stroke-dasharray="5,2" d="M163.22,-158.36C165.85,-158.58 168.44,-158.79 171,-159 234.36,-164.17 305.73,-169.72 360.94,-173.95"/>
<polygon fill="orange" stroke="orange" points="163.28,-154.85 153.02,-157.51 162.7,-161.83 163.28,-154.85"/>
</a>
</g>
<text text-anchor="start" x="210" y="-177.5" font-family="Helvetica,sans-Serif" font-size="10.00" fill="grey">&lt; ActuatorSector &gt;</text>
</g>
<!-- Node5 -->
<g id="Node000005" class="node">
<title>Node5</title>
<g id="a_Node000005"><a xlink:href="classkynema__sgf_1_1actuator_1_1_act_data_holder.html" target="_top" xlink:title=" ">
<polygon fill="white" stroke="#666666" points="537.5,-148 372.5,-148 372.5,-96 537.5,-96 537.5,-148"/>
<text text-anchor="start" x="380.5" y="-136" font-family="Helvetica,sans-Serif" font-size="10.00">kynema_sgf::actuator</text>
<text text-anchor="start" x="380.5" y="-125" font-family="Helvetica,sans-Serif" font-size="10.00">::ActDataHolder&lt; TurbineFrom</text>
<text text-anchor="start" x="380.5" y="-114" font-family="Helvetica,sans-Serif" font-size="10.00">ExtSolver&lt; SolverTurbine,</text>
<text text-anchor="middle" x="455" y="-103" font-family="Helvetica,sans-Serif" font-size="10.00"> SolverData &gt; &gt;</text>
</a>
</g>
</g>
<!-- Node1&#45;&gt;Node5 -->
<g id="edge4_Node000001_Node000005" class="edge">
<title>Node1&#45;&gt;Node5</title>
<g id="a_edge4_Node000001_Node000005"><a xlink:title=" ">
<path fill="none" stroke="orange" stroke-dasharray="5,2" d="M136.8,-133.57C148.06,-130.89 159.82,-128.51 171,-127 238.44,-117.88 315.75,-117.16 372.5,-118.43"/>
<polygon fill="orange" stroke="orange" points="135.92,-130.18 127.05,-135.99 137.6,-136.97 135.92,-130.18"/>
</a>
</g>
<text text-anchor="start" x="174" y="-148" font-family="Helvetica,sans-Serif" font-size="10.00" fill="grey">&lt; TurbineFromExtSolver</text>
<text text-anchor="start" x="174" y="-133" font-family="Helvetica,sans-Serif" font-size="10.00" fill="grey">  &lt; SolverTurbine, SolverData &gt; &gt;</text>
</g>
<!-- Node6 -->
<g id="Node000006" class="node">
<title>Node6</title>
<g id="a_Node000006"><a xlink:href="classkynema__sgf_1_1actuator_1_1_act_data_holder.html" target="_top" xlink:title=" ">
<polygon fill="white" stroke="#666666" points="538.5,-78 371.5,-78 371.5,-48 538.5,-48 538.5,-78"/>
<text text-anchor="start" x="379.5" y="-66" font-family="Helvetica,sans-Serif" font-size="10.00">kynema_sgf::actuator</text>
<text text-anchor="middle" x="455" y="-55" font-family="Helvetica,sans-Serif" font-size="10.00">::ActDataHolder&lt; FixedWing &gt;</text>
</a>
</g>
</g>
<!-- Node1&#45;&gt;Node6 -->
<g id="edge5_Node000001_Node000006" class="edge">
<title>Node1&#45;&gt;Node6</title>
<g id="a_edge5_Node000001_Node000006"><a xlink:title=" ">
<path fill="none" stroke="orange" stroke-dasharray="5,2" d="M106.17,-129.89C123.94,-117.92 147.74,-103.81 171,-96 236.06,-74.16 313.73,-66.3 371.23,-63.68"/>
<polygon fill="orange" stroke="orange" points="103.7,-127.34 97.46,-135.91 107.68,-133.1 103.7,-127.34"/>
</a>
</g>
<text text-anchor="start" x="221" y="-101.5" font-family="Helvetica,sans-Serif" font-size="10.00" fill="grey">&lt; FixedWing &gt;</text>
</g>
<!-- Node7 -->
<g id="Node000007" class="node">
<title>Node7</title>
<g id="a_Node000007"><a xlink:href="classkynema__sgf_1_1actuator_1_1_act_data_holder.html" target="_top" xlink:title=" ">
<polygon fill="white" stroke="#666666" points="535,-30 375,-30 375,0 535,0 535,-30"/>
<text text-anchor="start" x="383" y="-18" font-family="Helvetica,sans-Serif" font-size="10.00">kynema_sgf::actuator</text>
<text text-anchor="middle" x="455" y="-7" font-family="Helvetica,sans-Serif" font-size="10.00">::ActDataHolder&lt; FlatPlate &gt;</text>
</a>
</g>
</g>
<!-- Node1&#45;&gt;Node7 -->
<g id="edge6_Node000001_Node000007" class="edge">
<title>Node1&#45;&gt;Node7</title>
<g id="a_edge6_Node000001_Node000007"><a xlink:title=" ">
<path fill="none" stroke="orange" stroke-dasharray="5,2" d="M90.91,-127.03C106.54,-101.63 134.9,-62.68 171,-44 234.06,-11.38 315.53,-6.25 374.86,-8.02"/>
<polygon fill="orange" stroke="orange" points="87.85,-125.33 85.73,-135.71 93.86,-128.91 87.85,-125.33"/>
</a>
</g>
<text text-anchor="start" x="224" y="-49.5" font-family="Helvetica,sans-Serif" font-size="10.00" fill="grey">&lt; FlatPlate &gt;</text>
</g>
</g>
</svg>
