<?xml version="1.0" encoding="UTF-8" standalone="no"?>
<!DOCTYPE svg PUBLIC "-//W3C//DTD SVG 1.1//EN"
 "http://www.w3.org/Graphics/SVG/1.1/DTD/svg11.dtd">
<!-- Generated by graphviz version 2.43.0 (0)
 -->
<!-- Title: kynema_sgf::PlaneFillInflow Pages: 1 -->
<!--zoomable 479 -->

<svg id="main" version="1.1" xmlns="http://www.w3.org/2000/svg" xmlns:xlink="http://www.w3.org/1999/xlink" xml:space="preserve" onload="init(evt)">

<style type="text/css"><![CDATA[
.node, .edge {opacity: 0.7;}
.node.selected, .edge.selected {opacity: 1;}
.edge:hover path { stroke: red; }
.edge:hover polygon { stroke: red; fill: red; }
]]></style>

<defs>
  <circle id="rim" cx="0" cy="0" r="7"/>
  <circle id="rim2" cx="0" cy="0" r="3.5"/>
  <g id="zoomPlus">
    <use xlink:href="#rim" fill="#404040"><set attributeName="fill" to="#808080" begin="zoomplus.mouseover" end="zoomplus.mouseout"/></use>
    <path d="M-4,0h8M0,-4v8" fill="none" stroke="white" stroke-width="1.5" pointer-events="none"/>
  </g>
  <g id="zoomMin">
    <use xlink:href="#rim" fill="#404040"><set attributeName="fill" to="#808080" begin="zoomminus.mouseover" end="zoomminus.mouseout"/></use>
    <path d="M-4,0h8" fill="none" stroke="white" stroke-width="1.5" pointer-events="none"/>
  </g>
  <g id="arrowUp" transform="translate(30 24)">
    <use xlink:href="#rim"/>
    <path pointer-events="none" fill="none" stroke="white" stroke-width="1.5" d="M0,-3.0v7 M-2.5,-0.5L0,-3.0L2.5,-0.5"/>
  </g>
  <g id="arrowRight" transform="rotate(90) translate(36 -43)">
    <use xlink:href="#rim"/>
    <path pointer-events="none" fill="none" stroke="white" stroke-width="1.5" d="M0,-3.0v7 M-2.5,-0.5L0,-3.0L2.5,-0.5"/>
  </g>
  <g id="arrowDown" transform="rotate(180) translate(-30 -48)">
    <use xlink:href="#rim"/>
    <path pointer-events="none" fill="none" stroke="white" stroke-width="1.5" d="M0,-3.0v7 M-2.5,-0.5L0,-3.0L2.5,-0.5"/>
  </g>
  <g id="arrowLeft" transform="rotate(270) translate(-36 17)">
    <use xlink:href="#rim"/>
    <path pointer-events="none" fill="none" stroke="white" stroke-width="1.5" d="M0,-3.0v7 M-2.5,-0.5L0,-3.0L2.5,-0.5"/>
  </g>
  <g id="resetDef">
    <use xlink:href="#rim2" fill="#404040"><set attributeName="fill" to="#808080" begin="reset.mouseover" end="reset.mouseout"/></use>
  </g>
</defs>
<script type="application/ecmascript">
var viewWidth = 2488;
var viewHeight = 479;
var sectionId = 'dynsection-1';
</script>
<script type="application/ecmascript" xlink:href="svg.min.js"/>
<svg id="graph" class="graph">
<g id="viewport">
<title>kynema_sgf::PlaneFillInflow</title>
<!-- Node1 -->
<g id="Node000001" class="node">
<title>Node1</title>
<g id="a_Node000001"><a xlink:title=" ">
<polygon fill="#999999" stroke="#666666" points="2480,-127 2328,-127 2328,-108 2480,-108 2480,-127"/>
<text text-anchor="middle" x="2404" y="-115" font-family="Helvetica,sans-Serif" font-size="10.00">kynema_sgf::PlaneFillInflow</text>
</a>
</g>
</g>
<!-- Node2 -->
<g id="Node000002" class="node">
<title>Node2</title>
<g id="a_Node000002"><a xlink:href="classkynema__sgf_1_1_field_fill_patch_ops.html" target="_top" xlink:title=" ">
<polygon fill="white" stroke="#666666" points="2291,-359.5 2146,-359.5 2146,-329.5 2291,-329.5 2291,-359.5"/>
<text text-anchor="start" x="2154" y="-347.5" font-family="Helvetica,sans-Serif" font-size="10.00">kynema_sgf::FieldFillPatch</text>
<text text-anchor="middle" x="2218.5" y="-336.5" font-family="Helvetica,sans-Serif" font-size="10.00">Ops&lt; FieldBCDirichlet &gt;</text>
</a>
</g>
</g>
<!-- Node2&#45;&gt;Node1 -->
<g id="edge1_Node000001_Node000002" class="edge">
<title>Node2&#45;&gt;Node1</title>
<g id="a_edge1_Node000001_Node000002"><a xlink:title=" ">
<path fill="none" stroke="#63b8ff" d="M2238.13,-321.45C2277.53,-272.71 2367.93,-160.89 2395.12,-127.25"/>
<polygon fill="#63b8ff" stroke="#63b8ff" points="2235.39,-319.28 2231.82,-329.25 2240.83,-323.68 2235.39,-319.28"/>
</a>
</g>
</g>
<!-- Node3 -->
<g id="Node000003" class="node">
<title>Node3</title>
<g id="a_Node000003"><a xlink:href="classkynema__sgf_1_1_field_fill_patch_ops_base.html" target="_top" xlink:title=" ">
<polygon fill="white" stroke="#666666" points="262,-447.5 117,-447.5 117,-417.5 262,-417.5 262,-447.5"/>
<text text-anchor="start" x="125" y="-435.5" font-family="Helvetica,sans-Serif" font-size="10.00">kynema_sgf::FieldFillPatch</text>
<text text-anchor="middle" x="189.5" y="-424.5" font-family="Helvetica,sans-Serif" font-size="10.00">OpsBase</text>
</a>
</g>
</g>
<!-- Node3&#45;&gt;Node2 -->
<g id="edge2_Node000002_Node000003" class="edge">
<title>Node3&#45;&gt;Node2</title>
<g id="a_edge2_Node000002_Node000003"><a xlink:title=" ">
<path fill="none" stroke="#63b8ff" d="M272.32,-447.1C339.44,-457.82 437.06,-470.5 523,-470.5 523,-470.5 523,-470.5 1931.5,-470.5 2040.29,-470.5 2154.1,-393.21 2198.34,-359.7"/>
<polygon fill="#63b8ff" stroke="#63b8ff" points="272.66,-443.61 262.23,-445.47 271.54,-450.52 272.66,-443.61"/>
</a>
</g>
</g>
<!-- Node17 -->
<g id="Node000017" class="node">
<title>Node17</title>
<g id="a_Node000017"><a xlink:title=" ">
<polygon fill="white" stroke="#666666" points="604,-404.5 444,-404.5 444,-374.5 604,-374.5 604,-404.5"/>
<text text-anchor="start" x="452" y="-392.5" font-family="Helvetica,sans-Serif" font-size="10.00">std::unique_ptr&lt; kynema</text>
<text text-anchor="middle" x="524" y="-381.5" font-family="Helvetica,sans-Serif" font-size="10.00">_sgf::FieldFillPatchOpsBase &gt;</text>
</a>
</g>
</g>
<!-- Node3&#45;&gt;Node17 -->
<g id="edge20_Node000017_Node000003" class="edge">
<title>Node3&#45;&gt;Node17</title>
<g id="a_edge20_Node000017_Node000003"><a xlink:title=" ">
<path fill="none" stroke="#9a32cd" stroke-dasharray="5,2" d="M236.21,-413.87C250.05,-409 265.45,-404.32 280,-401.5 334.01,-391.03 395.97,-388.11 443.8,-387.77"/>
<polygon fill="#9a32cd" stroke="#9a32cd" points="234.63,-410.72 226.43,-417.43 237.03,-417.3 234.63,-410.72"/>
</a>
</g>
<text text-anchor="start" x="346" y="-407" font-family="Helvetica,sans-Serif" font-size="10.00" fill="grey">ptr</text>
</g>
<!-- Node21 -->
<g id="Node000021" class="node">
<title>Node21</title>
<g id="a_Node000021"><a xlink:href="classkynema__sgf_1_1_field_fill_patch_ops.html" target="_top" xlink:title=" ">
<polygon fill="white" stroke="#666666" points="2003,-324.5 1858,-324.5 1858,-294.5 2003,-294.5 2003,-324.5"/>
<text text-anchor="start" x="1866" y="-312.5" font-family="Helvetica,sans-Serif" font-size="10.00">kynema_sgf::FieldFillPatch</text>
<text text-anchor="middle" x="1930.5" y="-301.5" font-family="Helvetica,sans-Serif" font-size="10.00">Ops&lt; BCOpCreator &gt;</text>
</a>
</g>
</g>
<!-- Node3&#45;&gt;Node21 -->
<g id="edge28_Node000021_Node000003" class="edge">
<title>Node3&#45;&gt;Node21</title>
<g id="a_edge28_Node000021_Node000003"><a xlink:title=" ">
<path fill="none" stroke="#63b8ff" d="M272.29,-432.5C339.59,-432.5 437.48,-432.5 523,-432.5 523,-432.5 523,-432.5 1362.5,-432.5 1508.9,-432.5 1538.25,-380.96 1681,-348.5 1739.98,-335.09 1807.88,-324.78 1857.78,-318.13"/>
<polygon fill="#63b8ff" stroke="#63b8ff" points="272.17,-429 262.17,-432.5 272.17,-436 272.17,-429"/>
</a>
</g>
</g>
<!-- Node4 -->
<g id="Node000004" class="node">
<title>Node4</title>
<g id="a_Node000004"><a xlink:href="classkynema__sgf_1_1_sim_time.html" target="_top" xlink:title=" ">
<polygon fill="white" stroke="#666666" points="1173,-184 1048,-184 1048,-165 1173,-165 1173,-184"/>
<text text-anchor="middle" x="1110.5" y="-172" font-family="Helvetica,sans-Serif" font-size="10.00">kynema_sgf::SimTime</text>
</a>
</g>
</g>
<!-- Node4&#45;&gt;Node2 -->
<g id="edge3_Node000002_Node000004" class="edge">
<title>Node4&#45;&gt;Node2</title>
<g id="a_edge3_Node000002_Node000004"><a xlink:title=" ">
<path fill="none" stroke="#9a32cd" stroke-dasharray="5,2" d="M1183.44,-173.99C1288.85,-173.81 1491.38,-175.57 1663,-189.5 1742.13,-195.92 1762.78,-195.06 1840,-213.5 1968.88,-244.27 2115.58,-302.05 2181.77,-329.4"/>
<polygon fill="#9a32cd" stroke="#9a32cd" points="1183.23,-170.49 1173.24,-174.02 1183.24,-177.49 1183.23,-170.49"/>
</a>
</g>
<text text-anchor="start" x="1572" y="-195" font-family="Helvetica,sans-Serif" font-size="10.00" fill="grey">m_time</text>
</g>
<!-- Node4&#45;&gt;Node21 -->
<g id="edge29_Node000021_Node000004" class="edge">
<title>Node4&#45;&gt;Node21</title>
<g id="a_edge29_Node000021_Node000004"><a xlink:title=" ">
<path fill="none" stroke="#9a32cd" stroke-dasharray="5,2" d="M1159.7,-186.61C1169.72,-189.17 1180.21,-191.89 1190,-194.5 1198.02,-196.64 1199.82,-198.06 1208,-199.5 1485.74,-248.28 1573.27,-163.99 1840,-255.5 1866.09,-264.45 1892.75,-281.81 1910.11,-294.44"/>
<polygon fill="#9a32cd" stroke="#9a32cd" points="1160.43,-183.18 1149.87,-184.1 1158.7,-189.96 1160.43,-183.18"/>
</a>
</g>
<text text-anchor="start" x="1460" y="-220" font-family="Helvetica,sans-Serif" font-size="10.00" fill="grey">m_time</text>
</g>
<!-- Node23 -->
<g id="Node000023" class="node">
<title>Node23</title>
<g id="a_Node000023"><a xlink:href="classkynema__sgf_1_1_boundary_plane.html" target="_top" xlink:title=" ">
<polygon fill="white" stroke="#666666" points="1439,-101 1284,-101 1284,-82 1439,-82 1439,-101"/>
<text text-anchor="middle" x="1361.5" y="-89" font-family="Helvetica,sans-Serif" font-size="10.00">kynema_sgf::BoundaryPlane</text>
</a>
</g>
</g>
<!-- Node4&#45;&gt;Node23 -->
<g id="edge35_Node000023_Node000004" class="edge">
<title>Node4&#45;&gt;Node23</title>
<g id="a_edge35_Node000023_Node000004"><a xlink:title=" ">
<path fill="none" stroke="#9a32cd" stroke-dasharray="5,2" d="M1131.54,-158.98C1150.26,-145.3 1179.52,-125.97 1208,-115.5 1231.9,-106.71 1259.06,-101.14 1283.77,-97.61"/>
<polygon fill="#9a32cd" stroke="#9a32cd" points="1129.4,-156.2 1123.49,-164.99 1133.59,-161.81 1129.4,-156.2"/>
</a>
</g>
<text text-anchor="start" x="1218" y="-121" font-family="Helvetica,sans-Serif" font-size="10.00" fill="grey">m_time</text>
</g>
<!-- Node5 -->
<g id="Node000005" class="node">
<title>Node5</title>
<g id="a_Node000005"><a xlink:title=" ">
<polygon fill="white" stroke="#666666" points="746,-144 634,-144 634,-125 746,-125 746,-144"/>
<text text-anchor="middle" x="690" y="-132" font-family="Helvetica,sans-Serif" font-size="10.00">std::vector&lt; bool &gt;</text>
</a>
</g>
</g>
<!-- Node5&#45;&gt;Node4 -->
<g id="edge4_Node000004_Node000005" class="edge">
<title>Node5&#45;&gt;Node4</title>
<g id="a_edge4_Node000004_Node000005"><a xlink:title=" ">
<path fill="none" stroke="#9a32cd" stroke-dasharray="5,2" d="M756.27,-141.21C804.52,-146.13 871.84,-152.89 931,-158.5 969.87,-162.19 1013.53,-166.1 1047.94,-169.14"/>
<polygon fill="#9a32cd" stroke="#9a32cd" points="756.58,-137.72 746.27,-140.19 755.87,-144.69 756.58,-137.72"/>
</a>
</g>
<text text-anchor="start" x="779.5" y="-163" font-family="Helvetica,sans-Serif" font-size="10.00" fill="grey">m_postprocess_enforce_dt</text>
</g>
<!-- Node6 -->
<g id="Node000006" class="node">
<title>Node6</title>
<g id="a_Node000006"><a xlink:title=" ">
<polygon fill="white" stroke="#666666" points="401.5,-228 304.5,-228 304.5,-209 401.5,-209 401.5,-228"/>
<text text-anchor="middle" x="353" y="-216" font-family="Helvetica,sans-Serif" font-size="10.00">std::vector&lt; T &gt;</text>
</a>
</g>
</g>
<!-- Node6&#45;&gt;Node5 -->
<g id="edge5_Node000005_Node000006" class="edge">
<title>Node6&#45;&gt;Node5</title>
<g id="a_edge5_Node000005_Node000006"><a xlink:title=" ">
<path fill="none" stroke="orange" stroke-dasharray="5,2" d="M411.66,-216.38C464.18,-212.48 542.67,-201.6 604,-171.5 613.61,-166.78 612.69,-160.77 622,-155.5 630.27,-150.82 639.73,-147.04 648.87,-144.04"/>
<polygon fill="orange" stroke="orange" points="411.25,-212.9 401.51,-217.08 411.73,-219.89 411.25,-212.9"/>
</a>
</g>
<text text-anchor="start" x="502" y="-219" font-family="Helvetica,sans-Serif" font-size="10.00" fill="grey">&lt; bool &gt;</text>
</g>
<!-- Node7 -->
<g id="Node000007" class="node">
<title>Node7</title>
<g id="a_Node000007"><a xlink:title=" ">
<polygon fill="white" stroke="#666666" points="29,-272 0,-272 0,-253 29,-253 29,-272"/>
<text text-anchor="middle" x="14.5" y="-260" font-family="Helvetica,sans-Serif" font-size="10.00">T</text>
</a>
</g>
</g>
<!-- Node7&#45;&gt;Node6 -->
<g id="edge6_Node000006_Node000007" class="edge">
<title>Node7&#45;&gt;Node6</title>
<g id="a_edge6_Node000006_Node000007"><a xlink:title=" ">
<path fill="none" stroke="#9a32cd" stroke-dasharray="5,2" d="M38.86,-255.94C59.31,-250.45 89.9,-242.83 117,-238.5 181.49,-228.19 256.84,-222.96 304.49,-220.49"/>
<polygon fill="#9a32cd" stroke="#9a32cd" points="37.89,-252.58 29.16,-258.59 39.73,-259.33 37.89,-252.58"/>
</a>
</g>
<text text-anchor="start" x="50" y="-259" font-family="Helvetica,sans-Serif" font-size="10.00" fill="grey">elements</text>
</g>
<!-- Node13 -->
<g id="Node000013" class="node">
<title>Node13</title>
<g id="a_Node000013"><a xlink:title=" ">
<polygon fill="white" stroke="#666666" points="581,-162.5 467,-162.5 467,-132.5 581,-132.5 581,-162.5"/>
<text text-anchor="start" x="475" y="-150.5" font-family="Helvetica,sans-Serif" font-size="10.00">std::unordered_map</text>
<text text-anchor="middle" x="524" y="-139.5" font-family="Helvetica,sans-Serif" font-size="10.00">&lt; K, T &gt;</text>
</a>
</g>
</g>
<!-- Node7&#45;&gt;Node13 -->
<g id="edge14_Node000013_Node000007" class="edge">
<title>Node7&#45;&gt;Node13</title>
<g id="a_edge14_Node000013_Node000007"><a xlink:title=" ">
<path fill="none" stroke="#9a32cd" stroke-dasharray="5,2" d="M35.08,-246.75C38.94,-243.88 43.03,-241 47,-238.5 76.58,-219.83 83.63,-213 117,-202.5 119.08,-201.85 355.96,-169.95 466.89,-155.04"/>
<polygon fill="#9a32cd" stroke="#9a32cd" points="32.91,-244 27.11,-252.87 37.17,-249.55 32.91,-244"/>
</a>
</g>
<text text-anchor="start" x="166.5" y="-208" font-family="Helvetica,sans-Serif" font-size="10.00" fill="grey">elements</text>
</g>
<!-- Node18 -->
<g id="Node000018" class="node">
<title>Node18</title>
<g id="a_Node000018"><a xlink:title=" ">
<polygon fill="white" stroke="#666666" points="248.5,-355 130.5,-355 130.5,-336 248.5,-336 248.5,-355"/>
<text text-anchor="middle" x="189.5" y="-343" font-family="Helvetica,sans-Serif" font-size="10.00">std::unique_ptr&lt; T &gt;</text>
</a>
</g>
</g>
<!-- Node7&#45;&gt;Node18 -->
<g id="edge22_Node000018_Node000007" class="edge">
<title>Node7&#45;&gt;Node18</title>
<g id="a_edge22_Node000018_Node000007"><a xlink:title=" ">
<path fill="none" stroke="#9a32cd" stroke-dasharray="5,2" d="M20.5,-282.12C25.07,-295.91 33.26,-313.61 47,-323.5 70.8,-340.64 102.73,-346.66 130.23,-348.16"/>
<polygon fill="#9a32cd" stroke="#9a32cd" points="23.74,-280.74 17.58,-272.12 17.03,-282.7 23.74,-280.74"/>
</a>
</g>
<text text-anchor="start" x="66" y="-349" font-family="Helvetica,sans-Serif" font-size="10.00" fill="grey">ptr</text>
</g>
<!-- Node19 -->
<g id="Node000019" class="node">
<title>Node19</title>
<g id="a_Node000019"><a xlink:title=" ">
<polygon fill="white" stroke="#666666" points="412,-319 294,-319 294,-300 412,-300 412,-319"/>
<text text-anchor="middle" x="353" y="-307" font-family="Helvetica,sans-Serif" font-size="10.00">std::shared_ptr&lt; T &gt;</text>
</a>
</g>
</g>
<!-- Node7&#45;&gt;Node19 -->
<g id="edge24_Node000019_Node000007" class="edge">
<title>Node7&#45;&gt;Node19</title>
<g id="a_edge24_Node000019_Node000007"><a xlink:title=" ">
<path fill="none" stroke="#9a32cd" stroke-dasharray="5,2" d="M38.72,-271.92C41.49,-272.87 44.29,-273.76 47,-274.5 77.45,-282.82 85.72,-282.29 117,-286.5 177.13,-294.59 246.28,-301.01 293.92,-304.99"/>
<polygon fill="#9a32cd" stroke="#9a32cd" points="39.7,-268.55 29.11,-268.35 37.26,-275.11 39.7,-268.55"/>
</a>
</g>
<text text-anchor="start" x="66" y="-289" font-family="Helvetica,sans-Serif" font-size="10.00" fill="grey">ptr</text>
</g>
<!-- Node8 -->
<g id="Node000008" class="node">
<title>Node8</title>
<g id="a_Node000008"><a xlink:href="classkynema__sgf_1_1_field.html" target="_top" xlink:title=" ">
<polygon fill="white" stroke="#666666" points="1413.5,-319 1309.5,-319 1309.5,-300 1413.5,-300 1413.5,-319"/>
<text text-anchor="middle" x="1361.5" y="-307" font-family="Helvetica,sans-Serif" font-size="10.00">kynema_sgf::Field</text>
</a>
</g>
</g>
<!-- Node8&#45;&gt;Node2 -->
<g id="edge7_Node000002_Node000008" class="edge">
<title>Node8&#45;&gt;Node2</title>
<g id="a_edge7_Node000002_Node000008"><a xlink:title=" ">
<path fill="none" stroke="#9a32cd" stroke-dasharray="5,2" d="M1423.73,-319.28C1452.56,-323.49 1487.47,-328 1519,-330.5 1741.65,-348.15 1797.71,-348.39 2021,-353.5 2068.54,-354.59 2080.5,-355.88 2128,-353.5 2133.77,-353.21 2139.74,-352.82 2145.74,-352.35"/>
<polygon fill="#9a32cd" stroke="#9a32cd" points="1424.21,-315.82 1413.8,-317.81 1423.18,-322.74 1424.21,-315.82"/>
</a>
</g>
<text text-anchor="start" x="1742.5" y="-354" font-family="Helvetica,sans-Serif" font-size="10.00" fill="grey">m_field</text>
</g>
<!-- Node20 -->
<g id="Node000020" class="node">
<title>Node20</title>
<g id="a_Node000020"><a xlink:href="structkynema__sgf_1_1_field_b_c_dirichlet.html" target="_top" xlink:title=" ">
<polygon fill="white" stroke="#666666" points="1840,-435 1681,-435 1681,-416 1840,-416 1840,-435"/>
<text text-anchor="middle" x="1760.5" y="-423" font-family="Helvetica,sans-Serif" font-size="10.00">kynema_sgf::FieldBCDirichlet</text>
</a>
</g>
</g>
<!-- Node8&#45;&gt;Node20 -->
<g id="edge26_Node000020_Node000008" class="edge">
<title>Node8&#45;&gt;Node20</title>
<g id="a_edge26_Node000020_Node000008"><a xlink:title=" ">
<path fill="none" stroke="#9a32cd" stroke-dasharray="5,2" d="M1382.71,-325.25C1401.07,-338.77 1429.44,-357.74 1457,-368.5 1529.93,-396.97 1618.46,-411.52 1680.84,-418.76"/>
<polygon fill="#9a32cd" stroke="#9a32cd" points="1384.64,-322.32 1374.54,-319.11 1380.43,-327.92 1384.64,-322.32"/>
</a>
</g>
<text text-anchor="start" x="1461" y="-387" font-family="Helvetica,sans-Serif" font-size="10.00" fill="grey">m_field</text>
</g>
<!-- Node8&#45;&gt;Node21 -->
<g id="edge30_Node000021_Node000008" class="edge">
<title>Node8&#45;&gt;Node21</title>
<g id="a_edge30_Node000021_Node000008"><a xlink:title=" ">
<path fill="none" stroke="#9a32cd" stroke-dasharray="5,2" d="M1423.74,-309.5C1529.31,-309.5 1745.05,-309.5 1857.58,-309.5"/>
<polygon fill="#9a32cd" stroke="#9a32cd" points="1423.57,-306 1413.57,-309.5 1423.57,-313 1423.57,-306"/>
</a>
</g>
<text text-anchor="start" x="1573" y="-315" font-family="Helvetica,sans-Serif" font-size="10.00" fill="grey">m_field</text>
</g>
<!-- Node22 -->
<g id="Node000022" class="node">
<title>Node22</title>
<g id="a_Node000022"><a xlink:href="structkynema__sgf_1_1_b_c_op_creator.html" target="_top" xlink:title=" ">
<polygon fill="white" stroke="#666666" points="1663,-273.5 1519,-273.5 1519,-243.5 1663,-243.5 1663,-273.5"/>
<text text-anchor="start" x="1527" y="-261.5" font-family="Helvetica,sans-Serif" font-size="10.00">kynema_sgf::BCOpCreator</text>
<text text-anchor="middle" x="1591" y="-250.5" font-family="Helvetica,sans-Serif" font-size="10.00">&lt; InflowOp, WallOp &gt;</text>
</a>
</g>
</g>
<!-- Node8&#45;&gt;Node22 -->
<g id="edge32_Node000022_Node000008" class="edge">
<title>Node8&#45;&gt;Node22</title>
<g id="a_edge32_Node000022_Node000008"><a xlink:title=" ">
<path fill="none" stroke="#9a32cd" stroke-dasharray="5,2" d="M1397.68,-296.4C1415.29,-290.24 1437.06,-283.23 1457,-278.5 1476.88,-273.78 1498.71,-269.95 1518.83,-266.95"/>
<polygon fill="#9a32cd" stroke="#9a32cd" points="1396.09,-293.25 1387.84,-299.9 1398.43,-299.85 1396.09,-293.25"/>
</a>
</g>
<text text-anchor="start" x="1461" y="-284" font-family="Helvetica,sans-Serif" font-size="10.00" fill="grey">m_field</text>
</g>
<!-- Node9 -->
<g id="Node000009" class="node">
<title>Node9</title>
<g id="a_Node000009"><a xlink:href="classkynema__sgf_1_1_field_repo.html" target="_top" xlink:title=" ">
<polygon fill="white" stroke="#666666" points="1175,-223 1046,-223 1046,-204 1175,-204 1175,-223"/>
<text text-anchor="middle" x="1110.5" y="-211" font-family="Helvetica,sans-Serif" font-size="10.00">kynema_sgf::FieldRepo</text>
</a>
</g>
</g>
<!-- Node9&#45;&gt;Node8 -->
<g id="edge8_Node000008_Node000009" class="edge">
<title>Node9&#45;&gt;Node8</title>
<g id="a_edge8_Node000008_Node000009"><a xlink:title=" ">
<path fill="none" stroke="#9a32cd" stroke-dasharray="5,2" d="M1184.99,-224.01C1211.2,-229.22 1240.53,-236.77 1266,-247.5 1298.55,-261.21 1332.05,-286.29 1349.07,-299.98"/>
<polygon fill="#9a32cd" stroke="#9a32cd" points="1185.59,-220.56 1175.12,-222.13 1184.28,-227.44 1185.59,-220.56"/>
</a>
</g>
<text text-anchor="start" x="1219" y="-253" font-family="Helvetica,sans-Serif" font-size="10.00" fill="grey">m_repo</text>
</g>
<!-- Node9&#45;&gt;Node23 -->
<g id="edge36_Node000023_Node000009" class="edge">
<title>Node9&#45;&gt;Node23</title>
<g id="a_edge36_Node000023_Node000009"><a xlink:title=" ">
<path fill="none" stroke="#9a32cd" stroke-dasharray="5,2" d="M1165.51,-201.15C1173.84,-198.65 1182.24,-195.76 1190,-192.5 1252.16,-166.36 1319.08,-121.04 1347.04,-101.24"/>
<polygon fill="#9a32cd" stroke="#9a32cd" points="1164.47,-197.8 1155.81,-203.91 1166.38,-204.54 1164.47,-197.8"/>
</a>
</g>
<text text-anchor="start" x="1219" y="-190" font-family="Helvetica,sans-Serif" font-size="10.00" fill="grey">m_repo</text>
</g>
<!-- Node10 -->
<g id="Node000010" class="node">
<title>Node10</title>
<g id="a_Node000010"><a xlink:title=" ">
<polygon fill="white" stroke="#666666" points="905.5,-228.5 783.5,-228.5 783.5,-198.5 905.5,-198.5 905.5,-228.5"/>
<text text-anchor="start" x="791.5" y="-216.5" font-family="Helvetica,sans-Serif" font-size="10.00">std::unordered_map</text>
<text text-anchor="middle" x="844.5" y="-205.5" font-family="Helvetica,sans-Serif" font-size="10.00">&lt; std::string, size_t &gt;</text>
</a>
</g>
</g>
<!-- Node10&#45;&gt;Node9 -->
<g id="edge9_Node000009_Node000010" class="edge">
<title>Node10&#45;&gt;Node9</title>
<g id="a_edge9_Node000009_Node000010"><a xlink:title=" ">
<path fill="none" stroke="#9a32cd" stroke-dasharray="5,2" d="M915.78,-213.5C956.21,-213.5 1006.59,-213.5 1045.84,-213.5"/>
<polygon fill="#9a32cd" stroke="#9a32cd" points="915.74,-210 905.74,-213.5 915.74,-217 915.74,-210"/>
</a>
</g>
<text text-anchor="start" x="936" y="-234.5" font-family="Helvetica,sans-Serif" font-size="10.00" fill="grey">m_fid_map</text>
<text text-anchor="start" x="936" y="-219.5" font-family="Helvetica,sans-Serif" font-size="10.00" fill="grey">m_int_fid_map</text>
</g>
<!-- Node11 -->
<g id="Node000011" class="node">
<title>Node11</title>
<g id="a_Node000011"><a xlink:title=" ">
<polygon fill="white" stroke="#666666" points="556.5,-272 491.5,-272 491.5,-253 556.5,-253 556.5,-272"/>
<text text-anchor="middle" x="524" y="-260" font-family="Helvetica,sans-Serif" font-size="10.00">std::string</text>
</a>
</g>
</g>
<!-- Node11&#45;&gt;Node8 -->
<g id="edge15_Node000008_Node000011" class="edge">
<title>Node11&#45;&gt;Node8</title>
<g id="a_edge15_Node000008_Node000011"><a xlink:title=" ">
<path fill="none" stroke="#9a32cd" stroke-dasharray="5,2" d="M567.03,-264.86C706.99,-272.74 1157.02,-298.05 1309.46,-306.63"/>
<polygon fill="#9a32cd" stroke="#9a32cd" points="566.91,-261.35 556.73,-264.29 566.52,-268.34 566.91,-261.35"/>
</a>
</g>
<text text-anchor="start" x="951" y="-295" font-family="Helvetica,sans-Serif" font-size="10.00" fill="grey">m_name</text>
</g>
<!-- Node11&#45;&gt;Node10 -->
<g id="edge10_Node000010_Node000011" class="edge">
<title>Node11&#45;&gt;Node10</title>
<g id="a_edge10_Node000010_Node000011"><a xlink:title=" ">
<path fill="none" stroke="#9a32cd" stroke-dasharray="5,2" d="M567,-253.71C584.03,-250.3 603.91,-246.49 622,-243.5 676.36,-234.5 738.57,-226.26 783.19,-220.7"/>
<polygon fill="#9a32cd" stroke="#9a32cd" points="565.91,-250.36 556.81,-255.78 567.3,-257.22 565.91,-250.36"/>
</a>
</g>
<text text-anchor="start" x="679" y="-249" font-family="Helvetica,sans-Serif" font-size="10.00" fill="grey">keys</text>
</g>
<!-- Node16 -->
<g id="Node000016" class="node">
<title>Node16</title>
<g id="a_Node000016"><a xlink:href="structkynema__sgf_1_1_field_info.html" target="_top" xlink:title=" ">
<polygon fill="white" stroke="#666666" points="906,-395 783,-395 783,-376 906,-376 906,-395"/>
<text text-anchor="middle" x="844.5" y="-383" font-family="Helvetica,sans-Serif" font-size="10.00">kynema_sgf::FieldInfo</text>
</a>
</g>
</g>
<!-- Node11&#45;&gt;Node16 -->
<g id="edge18_Node000016_Node000011" class="edge">
<title>Node11&#45;&gt;Node16</title>
<g id="a_edge18_Node000016_Node000011"><a xlink:title=" ">
<path fill="none" stroke="#9a32cd" stroke-dasharray="5,2" d="M566.97,-273.08C583.99,-277.21 603.88,-281.82 622,-285.5 682.08,-297.69 702.81,-281.82 758,-308.5 791.99,-324.93 822.39,-359.07 835.98,-375.81"/>
<polygon fill="#9a32cd" stroke="#9a32cd" points="567.32,-269.57 556.78,-270.59 565.66,-276.37 567.32,-269.57"/>
</a>
</g>
<text text-anchor="start" x="657" y="-314" font-family="Helvetica,sans-Serif" font-size="10.00" fill="grey">m_basename</text>
</g>
<!-- Node11&#45;&gt;Node23 -->
<g id="edge37_Node000023_Node000011" class="edge">
<title>Node11&#45;&gt;Node23</title>
<g id="a_edge37_Node000023_Node000011"><a xlink:title=" ">
<path fill="none" stroke="#9a32cd" stroke-dasharray="5,2" d="M566.61,-255.2C579.98,-251.06 593.92,-244.59 604,-234.5 620.99,-217.49 603.07,-198.31 622,-183.5 673.17,-143.48 850.17,-172.02 913,-155.5 921.47,-153.27 922.63,-150.07 931,-147.5 1050.57,-110.72 1083.64,-111.1 1208,-97.5 1232.63,-94.81 1259.61,-93.28 1283.94,-92.43"/>
<polygon fill="#9a32cd" stroke="#9a32cd" points="565.3,-251.93 556.57,-257.93 567.14,-258.68 565.3,-251.93"/>
</a>
</g>
<text text-anchor="start" x="943" y="-198.5" font-family="Helvetica,sans-Serif" font-size="10.00" fill="grey">m_filename</text>
<text text-anchor="start" x="943" y="-183.5" font-family="Helvetica,sans-Serif" font-size="10.00" fill="grey">m_out_fmt</text>
<text text-anchor="start" x="943" y="-168.5" font-family="Helvetica,sans-Serif" font-size="10.00" fill="grey">m_time_file</text>
<text text-anchor="start" x="943" y="-153.5" font-family="Helvetica,sans-Serif" font-size="10.00" fill="grey">m_title</text>
</g>
<!-- Node12 -->
<g id="Node000012" class="node">
<title>Node12</title>
<g id="a_Node000012"><a xlink:title=" ">
<polygon fill="white" stroke="#666666" points="241.5,-277.5 137.5,-277.5 137.5,-247.5 241.5,-247.5 241.5,-277.5"/>
<text text-anchor="start" x="145.5" y="-265.5" font-family="Helvetica,sans-Serif" font-size="10.00">std::basic_string&lt;</text>
<text text-anchor="middle" x="189.5" y="-254.5" font-family="Helvetica,sans-Serif" font-size="10.00"> Char &gt;</text>
</a>
</g>
</g>
<!-- Node12&#45;&gt;Node11 -->
<g id="edge11_Node000011_Node000012" class="edge">
<title>Node12&#45;&gt;Node11</title>
<g id="a_edge11_Node000011_Node000012"><a xlink:title=" ">
<path fill="none" stroke="#63b8ff" d="M251.85,-262.5C322.64,-262.5 436.34,-262.5 491.27,-262.5"/>
<polygon fill="#63b8ff" stroke="#63b8ff" points="251.72,-259 241.72,-262.5 251.72,-266 251.72,-259"/>
</a>
</g>
</g>
<!-- Node13&#45;&gt;Node10 -->
<g id="edge12_Node000010_Node000013" class="edge">
<title>Node13&#45;&gt;Node10</title>
<g id="a_edge12_Node000010_Node000013"><a xlink:title=" ">
<path fill="none" stroke="orange" stroke-dasharray="5,2" d="M591.13,-161.2C647.7,-172.93 728.44,-189.66 783.25,-201.02"/>
<polygon fill="orange" stroke="orange" points="591.71,-157.75 581.21,-159.15 590.29,-164.6 591.71,-157.75"/>
</a>
</g>
<text text-anchor="start" x="637" y="-200" font-family="Helvetica,sans-Serif" font-size="10.00" fill="grey">&lt; std::string, size_t &gt;</text>
</g>
<!-- Node26 -->
<g id="Node000026" class="node">
<title>Node26</title>
<g id="a_Node000026"><a xlink:title=" ">
<polygon fill="white" stroke="#666666" points="901.5,-53.5 787.5,-53.5 787.5,-23.5 901.5,-23.5 901.5,-53.5"/>
<text text-anchor="start" x="795.5" y="-41.5" font-family="Helvetica,sans-Serif" font-size="10.00">std::unordered_map</text>
<text text-anchor="middle" x="844.5" y="-30.5" font-family="Helvetica,sans-Serif" font-size="10.00">&lt; int, int &gt;</text>
</a>
</g>
</g>
<!-- Node13&#45;&gt;Node26 -->
<g id="edge40_Node000026_Node000013" class="edge">
<title>Node13&#45;&gt;Node26</title>
<g id="a_edge40_Node000026_Node000013"><a xlink:title=" ">
<path fill="none" stroke="orange" stroke-dasharray="5,2" d="M560.11,-127.59C578.2,-117.89 600.85,-106.61 622,-98.5 676.87,-77.46 742.04,-60.75 787.43,-50.36"/>
<polygon fill="orange" stroke="orange" points="558.21,-124.63 551.1,-132.49 561.56,-130.78 558.21,-124.63"/>
</a>
</g>
<text text-anchor="start" x="663" y="-104" font-family="Helvetica,sans-Serif" font-size="10.00" fill="grey">&lt; int, int &gt;</text>
</g>
<!-- Node14 -->
<g id="Node000014" class="node">
<title>Node14</title>
<g id="a_Node000014"><a xlink:title=" ">
<polygon fill="white" stroke="#666666" points="204,-138 175,-138 175,-119 204,-119 204,-138"/>
<text text-anchor="middle" x="189.5" y="-126" font-family="Helvetica,sans-Serif" font-size="10.00">K</text>
</a>
</g>
</g>
<!-- Node14&#45;&gt;Node13 -->
<g id="edge13_Node000013_Node000014" class="edge">
<title>Node14&#45;&gt;Node13</title>
<g id="a_edge13_Node000013_Node000014"><a xlink:title=" ">
<path fill="none" stroke="#9a32cd" stroke-dasharray="5,2" d="M214.38,-129.86C266.77,-132.86 393.02,-140.07 466.8,-144.29"/>
<polygon fill="#9a32cd" stroke="#9a32cd" points="214.55,-126.37 204.36,-129.29 214.15,-133.36 214.55,-126.37"/>
</a>
</g>
<text text-anchor="start" x="342" y="-148" font-family="Helvetica,sans-Serif" font-size="10.00" fill="grey">keys</text>
</g>
<!-- Node15 -->
<g id="Node000015" class="node">
<title>Node15</title>
<g id="a_Node000015"><a xlink:title=" ">
<polygon fill="white" stroke="#666666" points="1180.5,-362.5 1040.5,-362.5 1040.5,-332.5 1180.5,-332.5 1180.5,-362.5"/>
<text text-anchor="start" x="1048.5" y="-350.5" font-family="Helvetica,sans-Serif" font-size="10.00">std::shared_ptr&lt; kynema</text>
<text text-anchor="middle" x="1110.5" y="-339.5" font-family="Helvetica,sans-Serif" font-size="10.00">_sgf::FieldInfo &gt;</text>
</a>
</g>
</g>
<!-- Node15&#45;&gt;Node8 -->
<g id="edge16_Node000008_Node000015" class="edge">
<title>Node15&#45;&gt;Node8</title>
<g id="a_edge16_Node000008_Node000015"><a xlink:title=" ">
<path fill="none" stroke="#9a32cd" stroke-dasharray="5,2" d="M1190.74,-335.41C1229.49,-329.49 1275,-322.55 1309.14,-317.34"/>
<polygon fill="#9a32cd" stroke="#9a32cd" points="1189.89,-332 1180.53,-336.97 1190.94,-338.92 1189.89,-332"/>
</a>
</g>
<text text-anchor="start" x="1220" y="-337" font-family="Helvetica,sans-Serif" font-size="10.00" fill="grey">m_info</text>
</g>
<!-- Node16&#45;&gt;Node15 -->
<g id="edge17_Node000015_Node000016" class="edge">
<title>Node16&#45;&gt;Node15</title>
<g id="a_edge17_Node000015_Node000016"><a xlink:title=" ">
<path fill="none" stroke="#9a32cd" stroke-dasharray="5,2" d="M916.28,-375.39C946.13,-371.11 981.26,-366.08 1013,-361.5 1021.88,-360.22 1031.22,-358.87 1040.45,-357.53"/>
<polygon fill="#9a32cd" stroke="#9a32cd" points="915.77,-371.92 906.37,-376.8 916.76,-378.85 915.77,-371.92"/>
</a>
</g>
<text text-anchor="start" x="965" y="-378" font-family="Helvetica,sans-Serif" font-size="10.00" fill="grey">ptr</text>
</g>
<!-- Node17&#45;&gt;Node16 -->
<g id="edge19_Node000016_Node000017" class="edge">
<title>Node17&#45;&gt;Node16</title>
<g id="a_edge19_Node000016_Node000017"><a xlink:title=" ">
<path fill="none" stroke="#9a32cd" stroke-dasharray="5,2" d="M614.36,-388.38C668.13,-387.7 735.16,-386.86 782.8,-386.26"/>
<polygon fill="#9a32cd" stroke="#9a32cd" points="614.09,-384.88 604.14,-388.51 614.18,-391.88 614.09,-384.88"/>
</a>
</g>
<text text-anchor="start" x="654" y="-393" font-family="Helvetica,sans-Serif" font-size="10.00" fill="grey">m_fillpatch_op</text>
</g>
<!-- Node18&#45;&gt;Node17 -->
<g id="edge21_Node000017_Node000018" class="edge">
<title>Node18&#45;&gt;Node17</title>
<g id="a_edge21_Node000017_Node000018"><a xlink:title=" ">
<path fill="none" stroke="orange" stroke-dasharray="5,2" d="M258.74,-339.48C306.33,-337.15 370.92,-337.75 426,-351.5 434.68,-353.67 435.79,-356.95 444,-360.5 455.27,-365.37 467.64,-370.16 479.19,-374.41"/>
<polygon fill="orange" stroke="orange" points="258.34,-336 248.55,-340.04 258.72,-342.99 258.34,-336"/>
</a>
</g>
<text text-anchor="start" x="283" y="-372.5" font-family="Helvetica,sans-Serif" font-size="10.00" fill="grey">&lt; kynema_sgf::FieldFillPatch</text>
<text text-anchor="start" x="283" y="-357.5" font-family="Helvetica,sans-Serif" font-size="10.00" fill="grey">  OpsBase &gt;</text>
</g>
<!-- Node19&#45;&gt;Node15 -->
<g id="edge23_Node000015_Node000019" class="edge">
<title>Node19&#45;&gt;Node15</title>
<g id="a_edge23_Node000015_Node000019"><a xlink:title=" ">
<path fill="none" stroke="orange" stroke-dasharray="5,2" d="M422.18,-313.84C476.34,-317.23 554,-321.94 622,-325.5 771.12,-333.32 945.98,-340.8 1040.46,-344.7"/>
<polygon fill="orange" stroke="orange" points="422.22,-310.34 412.02,-313.21 421.78,-317.33 422.22,-310.34"/>
</a>
</g>
<text text-anchor="start" x="625" y="-337" font-family="Helvetica,sans-Serif" font-size="10.00" fill="grey">&lt; kynema_sgf::FieldInfo &gt;</text>
</g>
<!-- Node20&#45;&gt;Node2 -->
<g id="edge25_Node000002_Node000020" class="edge">
<title>Node20&#45;&gt;Node2</title>
<g id="a_edge25_Node000002_Node000020"><a xlink:title=" ">
<path fill="none" stroke="#9a32cd" stroke-dasharray="5,2" d="M1850.57,-421.59C1925.58,-416.7 2035.18,-405.77 2128,-381.5 2148.17,-376.23 2169.8,-367.38 2186.74,-359.66"/>
<polygon fill="#9a32cd" stroke="#9a32cd" points="1849.99,-418.12 1840.23,-422.25 1850.43,-425.11 1849.99,-418.12"/>
</a>
</g>
<text text-anchor="start" x="1916.5" y="-426" font-family="Helvetica,sans-Serif" font-size="10.00" fill="grey">m_op</text>
</g>
<!-- Node21&#45;&gt;Node2 -->
<g id="edge27_Node000002_Node000021" class="edge">
<title>Node21&#45;&gt;Node2</title>
<g id="a_edge27_Node000002_Node000021"><a xlink:title=" ">
<path fill="none" stroke="orange" stroke-dasharray="5,2" d="M2013.44,-319.53C2055.18,-324.64 2105.46,-330.79 2145.67,-335.71"/>
<polygon fill="orange" stroke="orange" points="2013.65,-316.03 2003.3,-318.29 2012.8,-322.98 2013.65,-316.03"/>
</a>
</g>
<text text-anchor="start" x="2024.5" y="-338" font-family="Helvetica,sans-Serif" font-size="10.00" fill="grey">&lt; FieldBCDirichlet &gt;</text>
</g>
<!-- Node22&#45;&gt;Node21 -->
<g id="edge31_Node000021_Node000022" class="edge">
<title>Node22&#45;&gt;Node21</title>
<g id="a_edge31_Node000021_Node000022"><a xlink:title=" ">
<path fill="none" stroke="#9a32cd" stroke-dasharray="5,2" d="M1673.41,-259.89C1722.17,-262 1785.14,-266.98 1840,-278.5 1857.7,-282.22 1876.72,-288.46 1892.65,-294.38"/>
<polygon fill="#9a32cd" stroke="#9a32cd" points="1673.37,-256.39 1663.23,-259.48 1673.09,-263.38 1673.37,-256.39"/>
</a>
</g>
<text text-anchor="start" x="1746.5" y="-284" font-family="Helvetica,sans-Serif" font-size="10.00" fill="grey">m_op</text>
</g>
<!-- Node23&#45;&gt;Node1 -->
<g id="edge33_Node000001_Node000023" class="edge">
<title>Node23&#45;&gt;Node1</title>
<g id="a_edge33_Node000001_Node000023"><a xlink:title=" ">
<path fill="none" stroke="#9a32cd" stroke-dasharray="5,2" d="M1449.06,-99.33C1491.49,-102.54 1543.38,-105.5 1590,-105.5 1590,-105.5 1590,-105.5 2219.5,-105.5 2255.1,-105.5 2294.5,-107.78 2327.63,-110.35"/>
<polygon fill="#9a32cd" stroke="#9a32cd" points="1449.28,-95.84 1439.04,-98.56 1448.74,-102.82 1449.28,-95.84"/>
</a>
</g>
<text text-anchor="start" x="1892.5" y="-111" font-family="Helvetica,sans-Serif" font-size="10.00" fill="grey">m_bndry_plane</text>
</g>
<!-- Node24 -->
<g id="Node000024" class="node">
<title>Node24</title>
<g id="a_Node000024"><a xlink:title=" ">
<polygon fill="white" stroke="#666666" points="1190,-67.5 1031,-67.5 1031,-37.5 1190,-37.5 1190,-67.5"/>
<text text-anchor="start" x="1039" y="-55.5" font-family="Helvetica,sans-Serif" font-size="10.00">kynema_sgf::FieldBoundary</text>
<text text-anchor="middle" x="1110.5" y="-44.5" font-family="Helvetica,sans-Serif" font-size="10.00">::Register&lt; BoundaryPlane &gt;</text>
</a>
</g>
</g>
<!-- Node24&#45;&gt;Node23 -->
<g id="edge34_Node000023_Node000024" class="edge">
<title>Node24&#45;&gt;Node23</title>
<g id="a_edge34_Node000023_Node000024"><a xlink:title=" ">
<path fill="none" stroke="#63b8ff" d="M1200.17,-58.78C1221.79,-60.95 1244.8,-63.8 1266,-67.5 1286.84,-71.14 1309.86,-76.94 1327.96,-81.94"/>
<polygon fill="#63b8ff" stroke="#63b8ff" points="1200.3,-55.27 1190.01,-57.8 1199.63,-62.24 1200.3,-55.27"/>
</a>
</g>
</g>
<!-- Node25 -->
<g id="Node000025" class="node">
<title>Node25</title>
<g id="a_Node000025"><a xlink:href="classkynema__sgf_1_1_inlet_data.html" target="_top" xlink:title=" ">
<polygon fill="white" stroke="#666666" points="1173.5,-19 1047.5,-19 1047.5,0 1173.5,0 1173.5,-19"/>
<text text-anchor="middle" x="1110.5" y="-7" font-family="Helvetica,sans-Serif" font-size="10.00">kynema_sgf::InletData</text>
</a>
</g>
</g>
<!-- Node25&#45;&gt;Node23 -->
<g id="edge38_Node000023_Node000025" class="edge">
<title>Node25&#45;&gt;Node23</title>
<g id="a_edge38_Node000023_Node000025"><a xlink:title=" ">
<path fill="none" stroke="#9a32cd" stroke-dasharray="5,2" d="M1183.54,-18.71C1209.96,-23.32 1239.8,-30.01 1266,-39.5 1296.28,-50.47 1328.53,-70.17 1346.44,-81.92"/>
<polygon fill="#9a32cd" stroke="#9a32cd" points="1184.03,-15.24 1173.59,-17.04 1182.87,-22.15 1184.03,-15.24"/>
</a>
</g>
<text text-anchor="start" x="1211" y="-45" font-family="Helvetica,sans-Serif" font-size="10.00" fill="grey">m_in_data</text>
</g>
<!-- Node26&#45;&gt;Node25 -->
<g id="edge39_Node000025_Node000026" class="edge">
<title>Node26&#45;&gt;Node25</title>
<g id="a_edge39_Node000025_Node000026"><a xlink:title=" ">
<path fill="none" stroke="#9a32cd" stroke-dasharray="5,2" d="M911.83,-31.21C953.37,-26.65 1006.54,-20.81 1047.27,-16.34"/>
<polygon fill="#9a32cd" stroke="#9a32cd" points="911.37,-27.74 901.81,-32.31 912.13,-34.7 911.37,-27.74"/>
</a>
</g>
<text text-anchor="start" x="934" y="-34" font-family="Helvetica,sans-Serif" font-size="10.00" fill="grey">m_components</text>
</g>
</g>
</svg>

<g id="navigator" transform="translate(0 0)" fill="#404254">
  <rect fill="#f2f5e9" fill-opacity="0.5" stroke="#606060" stroke-width=".5" x="0" y="0" width="60" height="60"/>
  <use id="zoomplus" xlink:href="#zoomPlus" x="17" y="9" onmousedown="handleZoom(evt,'in')"/>
  <use id="zoomminus" xlink:href="#zoomMin" x="42" y="9" onmousedown="handleZoom(evt,'out')"/>
  <use id="reset" xlink:href="#resetDef" x="30" y="36" onmousedown="handleReset()"/>
   <use id="arrowup" xlink:href="#arrowUp" x="0" y="0" onmousedown="handlePan(0,-1)"/>
  <use id="arrowright" xlink:href="#arrowRight" x="0" y="0" onmousedown="handlePan(1,0)"/>
  <use id="arrowdown" xlink:href="#arrowDown" x="0" y="0" onmousedown="handlePan(0,1)"/>
  <use id="arrowleft" xlink:href="#arrowLeft" x="0" y="0" onmousedown="handlePan(-1,0)"/>
</g>
<svg viewBox="0 0 15 15" width="100%" height="30px" preserveAspectRatio="xMaxYMin meet">
 <g id="arrow_out" transform="scale(0.3 0.3)">
  <a xlink:href="classkynema__sgf_1_1_plane_fill_inflow__coll__graph_org.svg" target="_base">
   <rect id="button" ry="5" rx="5" y="6" x="6" height="38" width="38"
        fill="#f2f5e9" fill-opacity="0.5" stroke="#606060" stroke-width="1.0"/>
   <path id="arrow"
     d="M 11.500037,31.436501 C 11.940474,20.09759 22.043105,11.32322 32.158766,21.979434 L 37.068811,17.246167 C 37.068811,17.246167 37.088388,32 37.088388,32 L 22.160133,31.978069 C 22.160133,31.978069 26.997745,27.140456 26.997745,27.140456 C 18.528582,18.264221 13.291696,25.230495 11.500037,31.436501 z"
     style="fill:#404040;"/>
  </a>
 </g>
</svg>

<style type='text/css'>
<![CDATA[
[data-mouse-over-selected='false'] { opacity: 0.7; }
[data-mouse-over-selected='true']  { opacity: 1.0; }
]]>
</style>
<script type="application/ecmascript"><![CDATA[
document.addEventListener('DOMContentLoaded', (event) => {
  highlightEdges();
  highlightAdjacentNodes();
});
]]></script>
</svg>
