<?xml version="1.0" encoding="UTF-8" standalone="no"?>
<!DOCTYPE svg PUBLIC "-//W3C//DTD SVG 1.1//EN"
 "http://www.w3.org/Graphics/SVG/1.1/DTD/svg11.dtd">
<!-- Generated by graphviz version 2.43.0 (0)
 -->
<!-- Title: /home/runner/work/kynema&#45;sgf/kynema&#45;sgf/src/physics Pages: 1 -->
<svg width="631pt" height="196pt"
 viewBox="0.00 0.00 631.00 196.00" xmlns="http://www.w3.org/2000/svg" xmlns:xlink="http://www.w3.org/1999/xlink">
<g id="graph0" class="graph" transform="scale(1 1) rotate(0) translate(4 192)">
<title>/home/runner/work/kynema&#45;sgf/kynema&#45;sgf/src/physics</title>
<g id="clust1" class="cluster">
<title>clusterdir_61f6b646fc8bb47b7307ce57a92ecf1c</title>
<g id="a_clust1"><a xlink:href="dir_61f6b646fc8bb47b7307ce57a92ecf1c.html" target="_top" xlink:title="src">
<polygon fill="#edf0f7" stroke="#7f7f7f" stroke-dasharray="5,2" points="8,-8 8,-180 615,-180 615,-8 8,-8"/>
<text text-anchor="middle" x="311.5" y="-168" font-family="Helvetica,sans-Serif" font-size="10.00">src</text>
</a>
</g>
</g>
<g id="clust2" class="cluster">
<title>clusterdir_ddcea0517a7b80a55be019748a9389a4</title>
<g id="a_clust2"><a xlink:href="dir_ddcea0517a7b80a55be019748a9389a4.html" target="_top">
<polygon fill="#edf0f7" stroke="#404040" stroke-width="2" points="325,-63 325,-153 543,-153 543,-63 325,-63"/>
</a>
</g>
</g>
<!-- dir_0a302c6baedf52e9cfdc9fc1cbccbefa -->
<g id="node1" class="node">
<title>dir_0a302c6baedf52e9cfdc9fc1cbccbefa</title>
<g id="a_node1"><a xlink:href="dir_0a302c6baedf52e9cfdc9fc1cbccbefa.html" target="_top" xlink:title="equation_systems">
<polygon fill="#a2b4d6" stroke="red" points="590,-35 484,-35 484,-16 590,-16 590,-35"/>
<text text-anchor="middle" x="537" y="-23" font-family="Helvetica,sans-Serif" font-size="10.00">equation_systems</text>
</a>
</g>
</g>
<!-- dir_1e81ec2858f8c09f6adc44292f32a0c3 -->
<g id="node2" class="node">
<title>dir_1e81ec2858f8c09f6adc44292f32a0c3</title>
<g id="a_node2"><a xlink:href="dir_1e81ec2858f8c09f6adc44292f32a0c3.html" target="_top" xlink:title="boundary_conditions">
<polygon fill="#a2b4d6" stroke="red" points="134,-90 16,-90 16,-71 134,-71 134,-90"/>
<text text-anchor="middle" x="75" y="-78" font-family="Helvetica,sans-Serif" font-size="10.00">boundary_conditions</text>
</a>
</g>
</g>
<!-- dir_4c19a60307109eba79b0431678f4e7a6 -->
<g id="node3" class="node">
<title>dir_4c19a60307109eba79b0431678f4e7a6</title>
<g id="a_node3"><a xlink:href="dir_4c19a60307109eba79b0431678f4e7a6.html" target="_top" xlink:title="turbulence">
<polygon fill="#a2b4d6" stroke="red" points="220,-90 152,-90 152,-71 220,-71 220,-90"/>
<text text-anchor="middle" x="186" y="-78" font-family="Helvetica,sans-Serif" font-size="10.00">turbulence</text>
</a>
</g>
</g>
<!-- dir_7407723fafe4509a43b392903c8f7fbf -->
<g id="node4" class="node">
<title>dir_7407723fafe4509a43b392903c8f7fbf</title>
<g id="a_node4"><a xlink:href="dir_7407723fafe4509a43b392903c8f7fbf.html" target="_top" xlink:title="fvm">
<polygon fill="#a2b4d6" stroke="#404040" points="587,-90 551,-90 551,-71 587,-71 587,-90"/>
<text text-anchor="middle" x="569" y="-78" font-family="Helvetica,sans-Serif" font-size="10.00">fvm</text>
</a>
</g>
</g>
<!-- dir_a80d9316c48aa709b9bc78e2b746db24 -->
<g id="node5" class="node">
<title>dir_a80d9316c48aa709b9bc78e2b746db24</title>
<g id="a_node5"><a xlink:href="dir_a80d9316c48aa709b9bc78e2b746db24.html" target="_top" xlink:title="wind_energy">
<polygon fill="#a2b4d6" stroke="red" points="317.5,-90 238.5,-90 238.5,-71 317.5,-71 317.5,-90"/>
<text text-anchor="middle" x="278" y="-78" font-family="Helvetica,sans-Serif" font-size="10.00">wind_energy</text>
</a>
</g>
</g>
<!-- dir_b275fe914c86728e4bacb4b0e2726274 -->
<g id="node6" class="node">
<title>dir_b275fe914c86728e4bacb4b0e2726274</title>
<g id="a_node6"><a xlink:href="dir_b275fe914c86728e4bacb4b0e2726274.html" target="_top" xlink:title="core">
<polygon fill="#a2b4d6" stroke="red" points="466,-35 428,-35 428,-16 466,-16 466,-35"/>
<text text-anchor="middle" x="447" y="-23" font-family="Helvetica,sans-Serif" font-size="10.00">core</text>
</a>
</g>
</g>
<!-- dir_d59b7dddc6cfeb8ed243c8310c362d19 -->
<g id="node7" class="node">
<title>dir_d59b7dddc6cfeb8ed243c8310c362d19</title>
<g id="a_node7"><a xlink:href="dir_d59b7dddc6cfeb8ed243c8310c362d19.html" target="_top" xlink:title="utilities">
<polygon fill="#a2b4d6" stroke="red" points="409.5,-35 356.5,-35 356.5,-16 409.5,-16 409.5,-35"/>
<text text-anchor="middle" x="383" y="-23" font-family="Helvetica,sans-Serif" font-size="10.00">utilities</text>
</a>
</g>
</g>
<!-- dir_ddcea0517a7b80a55be019748a9389a4 -->
<g id="node8" class="node">
<title>dir_ddcea0517a7b80a55be019748a9389a4</title>
<text text-anchor="middle" x="360" y="-133" font-family="Helvetica,sans-Serif" font-size="10.00">physics</text>
</g>
<!-- dir_ddcea0517a7b80a55be019748a9389a4&#45;&gt;dir_1e81ec2858f8c09f6adc44292f32a0c3 -->
<g id="edge1" class="edge">
<title>dir_ddcea0517a7b80a55be019748a9389a4&#45;&gt;dir_1e81ec2858f8c09f6adc44292f32a0c3</title>
<g id="a_edge1"><a xlink:href="dir_000032_000005.html" target="_top">
<path fill="none" stroke="#63b8ff" d="M333.44,-129.56C287.43,-121.01 191.97,-103.25 130.83,-91.88"/>
<polygon fill="#63b8ff" stroke="#63b8ff" points="131.42,-88.43 120.95,-90.04 130.14,-95.31 131.42,-88.43"/>
</a>
</g>
<g id="a_edge1&#45;headlabel"><a xlink:href="dir_000032_000005.html" target="_top" xlink:title="1">
<text text-anchor="middle" x="135.47" y="-83.8" font-family="Helvetica,sans-Serif" font-size="10.00" fill="#63b8ff">1</text>
</a>
</g>
</g>
<!-- dir_ddcea0517a7b80a55be019748a9389a4&#45;&gt;dir_4c19a60307109eba79b0431678f4e7a6 -->
<g id="edge2" class="edge">
<title>dir_ddcea0517a7b80a55be019748a9389a4&#45;&gt;dir_4c19a60307109eba79b0431678f4e7a6</title>
<g id="a_edge2"><a xlink:href="dir_000032_000050.html" target="_top">
<path fill="none" stroke="#63b8ff" d="M333.19,-126.33C303.91,-117.41 256.77,-103.06 223.75,-93"/>
<polygon fill="#63b8ff" stroke="#63b8ff" points="224.58,-89.59 213.99,-90.03 222.54,-96.29 224.58,-89.59"/>
</a>
</g>
<g id="a_edge2&#45;headlabel"><a xlink:href="dir_000032_000050.html" target="_top" xlink:title="2">
<text text-anchor="middle" x="228.84" y="-85.42" font-family="Helvetica,sans-Serif" font-size="10.00" fill="#63b8ff">2</text>
</a>
</g>
</g>
<!-- dir_ddcea0517a7b80a55be019748a9389a4&#45;&gt;dir_a80d9316c48aa709b9bc78e2b746db24 -->
<g id="edge4" class="edge">
<title>dir_ddcea0517a7b80a55be019748a9389a4&#45;&gt;dir_a80d9316c48aa709b9bc78e2b746db24</title>
<g id="a_edge4"><a xlink:href="dir_000032_000057.html" target="_top">
<path fill="none" stroke="#63b8ff" d="M346.83,-125.98C334.23,-117.84 315,-105.41 300.06,-95.76"/>
<polygon fill="#63b8ff" stroke="#63b8ff" points="301.71,-92.66 291.41,-90.17 297.91,-98.54 301.71,-92.66"/>
</a>
</g>
<g id="a_edge4&#45;headlabel"><a xlink:href="dir_000032_000057.html" target="_top" xlink:title="1">
<text text-anchor="middle" x="306.27" y="-89.73" font-family="Helvetica,sans-Serif" font-size="10.00" fill="#63b8ff">1</text>
</a>
</g>
</g>
<!-- dir_ddcea0517a7b80a55be019748a9389a4&#45;&gt;dir_b275fe914c86728e4bacb4b0e2726274 -->
<g id="edge5" class="edge">
<title>dir_ddcea0517a7b80a55be019748a9389a4&#45;&gt;dir_b275fe914c86728e4bacb4b0e2726274</title>
<g id="a_edge5"><a xlink:href="dir_000032_000007.html" target="_top">
<path fill="none" stroke="#63b8ff" d="M367.12,-125.66C381.66,-107.61 414.96,-66.28 433.65,-43.08"/>
<polygon fill="#63b8ff" stroke="#63b8ff" points="436.48,-45.14 440.03,-35.16 431.03,-40.75 436.48,-45.14"/>
</a>
</g>
<g id="a_edge5&#45;headlabel"><a xlink:href="dir_000032_000007.html" target="_top" xlink:title="90">
<text text-anchor="middle" x="436.43" y="-47.22" font-family="Helvetica,sans-Serif" font-size="10.00" fill="#63b8ff">90</text>
</a>
</g>
</g>
<!-- dir_ddcea0517a7b80a55be019748a9389a4&#45;&gt;dir_d59b7dddc6cfeb8ed243c8310c362d19 -->
<g id="edge6" class="edge">
<title>dir_ddcea0517a7b80a55be019748a9389a4&#45;&gt;dir_d59b7dddc6cfeb8ed243c8310c362d19</title>
<g id="a_edge6"><a xlink:href="dir_000032_000052.html" target="_top">
<path fill="none" stroke="#63b8ff" d="M361.88,-125.66C365.62,-108.09 374.07,-68.45 379.07,-44.95"/>
<polygon fill="#63b8ff" stroke="#63b8ff" points="382.5,-45.67 381.16,-35.16 375.65,-44.21 382.5,-45.67"/>
</a>
</g>
<g id="a_edge6&#45;headlabel"><a xlink:href="dir_000032_000052.html" target="_top" xlink:title="31">
<text text-anchor="middle" x="384.52" y="-47.28" font-family="Helvetica,sans-Serif" font-size="10.00" fill="#63b8ff">31</text>
</a>
</g>
</g>
<!-- dir_6cf039ee709fec78323a3380aff0a908 -->
<g id="node11" class="node">
<title>dir_6cf039ee709fec78323a3380aff0a908</title>
<g id="a_node11"><a xlink:href="dir_6cf039ee709fec78323a3380aff0a908.html" target="_top" xlink:title="udfs">
<polygon fill="#a2b4d6" stroke="#404040" points="511,-90 473,-90 473,-71 511,-71 511,-90"/>
<text text-anchor="middle" x="492" y="-78" font-family="Helvetica,sans-Serif" font-size="10.00">udfs</text>
</a>
</g>
</g>
<!-- dir_ddcea0517a7b80a55be019748a9389a4&#45;&gt;dir_6cf039ee709fec78323a3380aff0a908 -->
<g id="edge3" class="edge">
<title>dir_ddcea0517a7b80a55be019748a9389a4&#45;&gt;dir_6cf039ee709fec78323a3380aff0a908</title>
<g id="a_edge3"><a xlink:href="dir_000032_000051.html" target="_top">
<path fill="none" stroke="#63b8ff" d="M381.21,-125.98C403.5,-117.03 438.69,-102.9 463.42,-92.97"/>
<polygon fill="#63b8ff" stroke="#63b8ff" points="465.01,-96.11 472.99,-89.13 462.4,-89.61 465.01,-96.11"/>
</a>
</g>
<g id="a_edge3&#45;headlabel"><a xlink:href="dir_000032_000051.html" target="_top" xlink:title="2">
<text text-anchor="middle" x="462.73" y="-97.58" font-family="Helvetica,sans-Serif" font-size="10.00" fill="#63b8ff">2</text>
</a>
</g>
</g>
<!-- dir_274a908cd4d41df6e7ece169094dfce1 -->
<g id="node9" class="node">
<title>dir_274a908cd4d41df6e7ece169094dfce1</title>
<g id="a_node9"><a xlink:href="dir_274a908cd4d41df6e7ece169094dfce1.html" target="_top" xlink:title="mms">
<polygon fill="#a2b4d6" stroke="#404040" points="534.5,-145 493.5,-145 493.5,-126 534.5,-126 534.5,-145"/>
<text text-anchor="middle" x="514" y="-133" font-family="Helvetica,sans-Serif" font-size="10.00">mms</text>
</a>
</g>
</g>
<!-- dir_274a908cd4d41df6e7ece169094dfce1&#45;&gt;dir_0a302c6baedf52e9cfdc9fc1cbccbefa -->
<g id="edge7" class="edge">
<title>dir_274a908cd4d41df6e7ece169094dfce1&#45;&gt;dir_0a302c6baedf52e9cfdc9fc1cbccbefa</title>
<g id="a_edge7"><a xlink:href="dir_000026_000014.html" target="_top">
<path fill="none" stroke="#63b8ff" d="M534.72,-129.71C554.39,-123.94 582.83,-112.13 596,-90 602.14,-79.69 601.84,-73.48 596,-63 590.39,-52.93 580.73,-45.29 570.83,-39.67"/>
<polygon fill="#63b8ff" stroke="#63b8ff" points="572.28,-36.48 561.78,-35.06 569.1,-42.72 572.28,-36.48"/>
</a>
</g>
<g id="a_edge7&#45;headlabel"><a xlink:href="dir_000026_000014.html" target="_top" xlink:title="1">
<text text-anchor="middle" x="576.77" y="-33.08" font-family="Helvetica,sans-Serif" font-size="10.00" fill="#63b8ff">1</text>
</a>
</g>
</g>
<!-- dir_274a908cd4d41df6e7ece169094dfce1&#45;&gt;dir_b275fe914c86728e4bacb4b0e2726274 -->
<g id="edge8" class="edge">
<title>dir_274a908cd4d41df6e7ece169094dfce1&#45;&gt;dir_b275fe914c86728e4bacb4b0e2726274</title>
<g id="a_edge8"><a xlink:href="dir_000026_000007.html" target="_top">
<path fill="none" stroke="#63b8ff" d="M500.54,-125.88C489.16,-117.9 473.27,-105.03 464,-90 455.66,-76.48 451.36,-58.88 449.18,-45.64"/>
<polygon fill="#63b8ff" stroke="#63b8ff" points="452.59,-44.77 447.75,-35.34 445.66,-45.73 452.59,-44.77"/>
</a>
</g>
<g id="a_edge8&#45;headlabel"><a xlink:href="dir_000026_000007.html" target="_top" xlink:title="3">
<text text-anchor="middle" x="455.9" y="-45.44" font-family="Helvetica,sans-Serif" font-size="10.00" fill="#63b8ff">3</text>
</a>
</g>
</g>
<!-- dir_ea84defc78a3d6a93c5f3fc502908131 -->
<g id="node10" class="node">
<title>dir_ea84defc78a3d6a93c5f3fc502908131</title>
<g id="a_node10"><a xlink:href="dir_ea84defc78a3d6a93c5f3fc502908131.html" target="_top" xlink:title="multiphase">
<polygon fill="#a2b4d6" stroke="#404040" points="475.5,-145 404.5,-145 404.5,-126 475.5,-126 475.5,-145"/>
<text text-anchor="middle" x="440" y="-133" font-family="Helvetica,sans-Serif" font-size="10.00">multiphase</text>
</a>
</g>
</g>
<!-- dir_ea84defc78a3d6a93c5f3fc502908131&#45;&gt;dir_0a302c6baedf52e9cfdc9fc1cbccbefa -->
<g id="edge9" class="edge">
<title>dir_ea84defc78a3d6a93c5f3fc502908131&#45;&gt;dir_0a302c6baedf52e9cfdc9fc1cbccbefa</title>
<g id="a_edge9"><a xlink:href="dir_000027_000014.html" target="_top">
<path fill="none" stroke="#63b8ff" d="M466.72,-125.88C484.32,-118.87 506.51,-107.29 520,-90 529.98,-77.2 534.12,-59.03 535.82,-45.41"/>
<polygon fill="#63b8ff" stroke="#63b8ff" points="539.33,-45.52 536.76,-35.24 532.36,-44.88 539.33,-45.52"/>
</a>
</g>
<g id="a_edge9&#45;headlabel"><a xlink:href="dir_000027_000014.html" target="_top" xlink:title="2">
<text text-anchor="middle" x="541.83" y="-46.86" font-family="Helvetica,sans-Serif" font-size="10.00" fill="#63b8ff">2</text>
</a>
</g>
</g>
<!-- dir_ea84defc78a3d6a93c5f3fc502908131&#45;&gt;dir_7407723fafe4509a43b392903c8f7fbf -->
<g id="edge10" class="edge">
<title>dir_ea84defc78a3d6a93c5f3fc502908131&#45;&gt;dir_7407723fafe4509a43b392903c8f7fbf</title>
<g id="a_edge10"><a xlink:href="dir_000027_000018.html" target="_top">
<path fill="none" stroke="#63b8ff" d="M460.73,-125.98C482.63,-116.98 517.3,-102.74 541.49,-92.8"/>
<polygon fill="#63b8ff" stroke="#63b8ff" points="542.91,-96 550.83,-88.97 540.25,-89.53 542.91,-96"/>
</a>
</g>
<g id="a_edge10&#45;headlabel"><a xlink:href="dir_000027_000018.html" target="_top" xlink:title="5">
<text text-anchor="middle" x="540.66" y="-97.5" font-family="Helvetica,sans-Serif" font-size="10.00" fill="#63b8ff">5</text>
</a>
</g>
</g>
<!-- dir_ea84defc78a3d6a93c5f3fc502908131&#45;&gt;dir_b275fe914c86728e4bacb4b0e2726274 -->
<g id="edge11" class="edge">
<title>dir_ea84defc78a3d6a93c5f3fc502908131&#45;&gt;dir_b275fe914c86728e4bacb4b0e2726274</title>
<g id="a_edge11"><a xlink:href="dir_000027_000007.html" target="_top">
<path fill="none" stroke="#63b8ff" d="M440.57,-125.66C441.71,-108.17 444.26,-68.8 445.78,-45.27"/>
<polygon fill="#63b8ff" stroke="#63b8ff" points="449.28,-45.36 446.44,-35.16 442.3,-44.91 449.28,-45.36"/>
</a>
</g>
<g id="a_edge11&#45;headlabel"><a xlink:href="dir_000027_000007.html" target="_top" xlink:title="27">
<text text-anchor="middle" x="451.89" y="-46.63" font-family="Helvetica,sans-Serif" font-size="10.00" fill="#63b8ff">27</text>
</a>
</g>
</g>
<!-- dir_ea84defc78a3d6a93c5f3fc502908131&#45;&gt;dir_d59b7dddc6cfeb8ed243c8310c362d19 -->
<g id="edge12" class="edge">
<title>dir_ea84defc78a3d6a93c5f3fc502908131&#45;&gt;dir_d59b7dddc6cfeb8ed243c8310c362d19</title>
<g id="a_edge12"><a xlink:href="dir_000027_000052.html" target="_top">
<path fill="none" stroke="#63b8ff" d="M435.34,-125.66C425.94,-107.85 404.57,-67.37 392.24,-44.01"/>
<polygon fill="#63b8ff" stroke="#63b8ff" points="395.33,-42.37 387.57,-35.16 389.14,-45.64 395.33,-42.37"/>
</a>
</g>
<g id="a_edge12&#45;headlabel"><a xlink:href="dir_000027_000052.html" target="_top" xlink:title="4">
<text text-anchor="middle" x="399.52" y="-41.72" font-family="Helvetica,sans-Serif" font-size="10.00" fill="#63b8ff">4</text>
</a>
</g>
</g>
<!-- dir_6cf039ee709fec78323a3380aff0a908&#45;&gt;dir_0a302c6baedf52e9cfdc9fc1cbccbefa -->
<g id="edge13" class="edge">
<title>dir_6cf039ee709fec78323a3380aff0a908&#45;&gt;dir_0a302c6baedf52e9cfdc9fc1cbccbefa</title>
<g id="a_edge13"><a xlink:href="dir_000051_000014.html" target="_top">
<path fill="none" stroke="#63b8ff" d="M499.43,-70.75C505.85,-63.18 515.31,-52.05 523.12,-42.84"/>
<polygon fill="#63b8ff" stroke="#63b8ff" points="525.9,-44.98 529.71,-35.09 520.57,-40.45 525.9,-44.98"/>
</a>
</g>
<g id="a_edge13&#45;headlabel"><a xlink:href="dir_000051_000014.html" target="_top" xlink:title="6">
<text text-anchor="middle" x="525.74" y="-47.06" font-family="Helvetica,sans-Serif" font-size="10.00" fill="#63b8ff">6</text>
</a>
</g>
</g>
<!-- dir_6cf039ee709fec78323a3380aff0a908&#45;&gt;dir_b275fe914c86728e4bacb4b0e2726274 -->
<g id="edge14" class="edge">
<title>dir_6cf039ee709fec78323a3380aff0a908&#45;&gt;dir_b275fe914c86728e4bacb4b0e2726274</title>
<g id="a_edge14"><a xlink:href="dir_000051_000007.html" target="_top">
<path fill="none" stroke="#63b8ff" d="M484.57,-70.75C478.15,-63.18 468.69,-52.05 460.88,-42.84"/>
<polygon fill="#63b8ff" stroke="#63b8ff" points="463.43,-40.45 454.29,-35.09 458.1,-44.98 463.43,-40.45"/>
</a>
</g>
<g id="a_edge14&#45;headlabel"><a xlink:href="dir_000051_000007.html" target="_top" xlink:title="23">
<text text-anchor="middle" x="467.92" y="-38.85" font-family="Helvetica,sans-Serif" font-size="10.00" fill="#63b8ff">23</text>
</a>
</g>
</g>
<!-- dir_6cf039ee709fec78323a3380aff0a908&#45;&gt;dir_d59b7dddc6cfeb8ed243c8310c362d19 -->
<g id="edge15" class="edge">
<title>dir_6cf039ee709fec78323a3380aff0a908&#45;&gt;dir_d59b7dddc6cfeb8ed243c8310c362d19</title>
<g id="a_edge15"><a xlink:href="dir_000051_000052.html" target="_top">
<path fill="none" stroke="#63b8ff" d="M481.1,-70.93C477.38,-68.21 473.11,-65.31 469,-63 452.37,-53.66 432.87,-45.2 416.65,-38.78"/>
<polygon fill="#63b8ff" stroke="#63b8ff" points="417.62,-35.4 407.03,-35.06 415.09,-41.93 417.62,-35.4"/>
</a>
</g>
<g id="a_edge15&#45;headlabel"><a xlink:href="dir_000051_000052.html" target="_top" xlink:title="1">
<text text-anchor="middle" x="421.99" y="-31.55" font-family="Helvetica,sans-Serif" font-size="10.00" fill="#63b8ff">1</text>
</a>
</g>
</g>
</g>
</svg>
