<?xml version="1.0" encoding="UTF-8" standalone="no"?>
<!DOCTYPE svg PUBLIC "-//W3C//DTD SVG 1.1//EN"
 "http://www.w3.org/Graphics/SVG/1.1/DTD/svg11.dtd">
<!-- Generated by graphviz version 2.43.0 (0)
 -->
<!-- Title: /home/runner/work/kynema&#45;sgf/kynema&#45;sgf/src/wind_energy/actuator Pages: 1 -->
<svg width="344pt" height="180pt"
 viewBox="0.00 0.00 343.76 180.00" xmlns="http://www.w3.org/2000/svg" xmlns:xlink="http://www.w3.org/1999/xlink">

<svg id="main" version="1.1" xmlns="http://www.w3.org/2000/svg" xmlns:xlink="http://www.w3.org/1999/xlink" xml:space="preserve">

<style type="text/css"><![CDATA[
.node, .edge {opacity: 0.7;}
.node.selected, .edge.selected {opacity: 1;}
.edge:hover path { stroke: red; }
.edge:hover polygon { stroke: red; fill: red; }
]]></style>
<script type="application/ecmascript" xlink:href="svg.min.js"/>
<svg id="graph" class="graph">
<g id="graph0" class="graph" transform="scale(1 1) rotate(0) translate(4 176)">
<title>/home/runner/work/kynema&#45;sgf/kynema&#45;sgf/src/wind_energy/actuator</title>
<g id="clust1" class="cluster">
<title>clusterdir_a80d9316c48aa709b9bc78e2b746db24</title>
<g id="a_clust1"><a xlink:href="dir_a80d9316c48aa709b9bc78e2b746db24.html" target="_top" xlink:title="wind_energy">
<polygon fill="#edf0f7" stroke="#7f7f7f" stroke-dasharray="5,2" points="52.45,-39 52.45,-164 266.45,-164 266.45,-39 52.45,-39"/>
<text text-anchor="middle" x="159.45" y="-152" font-family="Helvetica,sans-Serif" font-size="10.00">wind_energy</text>
</a>
</g>
</g>
<g id="clust2" class="cluster">
<title>clusterdir_9dcf803d990c86a52c151efe46b23ed3</title>
<g id="a_clust2"><a xlink:href="dir_9dcf803d990c86a52c151efe46b23ed3.html" target="_top">
<polygon fill="#edf0f7" stroke="#404040" stroke-width="2" points="60.45,-47 60.45,-137 258.45,-137 258.45,-47 60.45,-47"/>
</a>
</g>
</g>
<!-- dir_9dcf803d990c86a52c151efe46b23ed3 -->
<g id="node1" class="node">
<title>dir_9dcf803d990c86a52c151efe46b23ed3</title>
<text text-anchor="middle" x="221.45" y="-117" font-family="Helvetica,sans-Serif" font-size="10.00">actuator</text>
</g>
<!-- dir_53c58b3ffa0a04a610c64e0d3362d2eb -->
<g id="node3" class="node">
<title>dir_53c58b3ffa0a04a610c64e0d3362d2eb</title>
<g id="a_node3"><a xlink:href="dir_53c58b3ffa0a04a610c64e0d3362d2eb.html" target="_top" xlink:title="disk">
<polygon fill="#a2b4d6" stroke="#404040" points="179.95,-74 142.95,-74 142.95,-55 179.95,-55 179.95,-74"/>
<text text-anchor="middle" x="161.45" y="-62" font-family="Helvetica,sans-Serif" font-size="10.00">disk</text>
</a>
</g>
</g>
<!-- dir_9dcf803d990c86a52c151efe46b23ed3&#45;&gt;dir_53c58b3ffa0a04a610c64e0d3362d2eb -->
<g id="edge2" class="edge">
<title>dir_9dcf803d990c86a52c151efe46b23ed3&#45;&gt;dir_53c58b3ffa0a04a610c64e0d3362d2eb</title>
<g id="a_edge2"><a xlink:href="dir_000000_000010.html" target="_top">
<path fill="none" stroke="#63b8ff" d="M211.81,-109.98C202.94,-102.15 189.58,-90.34 178.84,-80.86"/>
<polygon fill="#63b8ff" stroke="#63b8ff" points="181.08,-78.17 171.27,-74.17 176.44,-83.41 181.08,-78.17"/>
</a>
</g>
<g id="a_edge2&#45;headlabel"><a xlink:href="dir_000000_000010.html" target="_top" xlink:title="1">
<text text-anchor="middle" x="185.65" y="-75.92" font-family="Helvetica,sans-Serif" font-size="10.00" fill="#63b8ff">1</text>
</a>
</g>
</g>
<!-- dir_0761b4eef8ed7bf1817548a27f87065f -->
<g id="node5" class="node">
<title>dir_0761b4eef8ed7bf1817548a27f87065f</title>
<g id="a_node5"><a xlink:href="dir_0761b4eef8ed7bf1817548a27f87065f.html" target="_top" xlink:title="turbine">
<polygon fill="#a2b4d6" stroke="#404040" points="248.95,-74 197.95,-74 197.95,-55 248.95,-55 248.95,-74"/>
<text text-anchor="middle" x="223.45" y="-62" font-family="Helvetica,sans-Serif" font-size="10.00">turbine</text>
</a>
</g>
</g>
<!-- dir_9dcf803d990c86a52c151efe46b23ed3&#45;&gt;dir_0761b4eef8ed7bf1817548a27f87065f -->
<g id="edge1" class="edge">
<title>dir_9dcf803d990c86a52c151efe46b23ed3&#45;&gt;dir_0761b4eef8ed7bf1817548a27f87065f</title>
<g id="a_edge1"><a xlink:href="dir_000000_000051.html" target="_top">
<path fill="none" stroke="#63b8ff" d="M221.78,-109.75C222.04,-102.8 222.42,-92.85 222.75,-84.13"/>
<polygon fill="#63b8ff" stroke="#63b8ff" points="226.25,-84.21 223.13,-74.09 219.25,-83.95 226.25,-84.21"/>
</a>
</g>
<g id="a_edge1&#45;headlabel"><a xlink:href="dir_000000_000051.html" target="_top" xlink:title="9">
<text text-anchor="middle" x="228.95" y="-85.41" font-family="Helvetica,sans-Serif" font-size="10.00" fill="#63b8ff">9</text>
</a>
</g>
</g>
<!-- dir_b275fe914c86728e4bacb4b0e2726274 -->
<g id="node7" class="node">
<title>dir_b275fe914c86728e4bacb4b0e2726274</title>
<g id="a_node7"><a xlink:href="dir_b275fe914c86728e4bacb4b0e2726274.html" target="_top" xlink:title="core">
<polygon fill="#edf0f7" stroke="red" stroke-dasharray="5,2" points="296.45,-19 258.45,-19 258.45,0 296.45,0 296.45,-19"/>
<text text-anchor="middle" x="277.45" y="-7" font-family="Helvetica,sans-Serif" font-size="10.00">core</text>
</a>
</g>
</g>
<!-- dir_9dcf803d990c86a52c151efe46b23ed3&#45;&gt;dir_b275fe914c86728e4bacb4b0e2726274 -->
<g id="edge3" class="edge">
<title>dir_9dcf803d990c86a52c151efe46b23ed3&#45;&gt;dir_b275fe914c86728e4bacb4b0e2726274</title>
<g id="a_edge3"><a xlink:href="dir_000000_000007.html" target="_top">
<path fill="none" stroke="#63b8ff" d="M249.96,-115.47C275.6,-111.06 311.85,-100.29 329.45,-74 338.11,-61.07 337.38,-52.38 329.45,-39 324.2,-30.12 315.09,-23.83 305.95,-19.46"/>
<polygon fill="#63b8ff" stroke="#63b8ff" points="307.15,-16.17 296.57,-15.57 304.47,-22.63 307.15,-16.17"/>
</a>
</g>
<g id="a_edge3&#45;headlabel"><a xlink:href="dir_000000_000007.html" target="_top" xlink:title="25">
<text text-anchor="middle" x="311.56" y="-12.42" font-family="Helvetica,sans-Serif" font-size="10.00" fill="#63b8ff">25</text>
</a>
</g>
</g>
<!-- dir_d59b7dddc6cfeb8ed243c8310c362d19 -->
<g id="node8" class="node">
<title>dir_d59b7dddc6cfeb8ed243c8310c362d19</title>
<g id="a_node8"><a xlink:href="dir_d59b7dddc6cfeb8ed243c8310c362d19.html" target="_top" xlink:title="utilities">
<polygon fill="#edf0f7" stroke="red" stroke-dasharray="5,2" points="108.95,-19 55.95,-19 55.95,0 108.95,0 108.95,-19"/>
<text text-anchor="middle" x="82.45" y="-7" font-family="Helvetica,sans-Serif" font-size="10.00">utilities</text>
</a>
</g>
</g>
<!-- dir_9dcf803d990c86a52c151efe46b23ed3&#45;&gt;dir_d59b7dddc6cfeb8ed243c8310c362d19 -->
<g id="edge4" class="edge">
<title>dir_9dcf803d990c86a52c151efe46b23ed3&#45;&gt;dir_d59b7dddc6cfeb8ed243c8310c362d19</title>
<g id="a_edge4"><a xlink:href="dir_000000_000054.html" target="_top">
<path fill="none" stroke="#63b8ff" d="M192.76,-111.57C152.79,-101.63 84.44,-83.48 77.45,-74 68.02,-61.22 70.75,-42.8 74.96,-29.08"/>
<polygon fill="#63b8ff" stroke="#63b8ff" points="78.38,-29.88 78.45,-19.29 71.79,-27.53 78.38,-29.88"/>
</a>
</g>
<g id="a_edge4&#45;headlabel"><a xlink:href="dir_000000_000054.html" target="_top" xlink:title="35">
<text text-anchor="middle" x="79.85" y="-31.72" font-family="Helvetica,sans-Serif" font-size="10.00" fill="#63b8ff">35</text>
</a>
</g>
</g>
<!-- dir_a23b95cf0fdfe0a772c2e68c8b023d23 -->
<g id="node2" class="node">
<title>dir_a23b95cf0fdfe0a772c2e68c8b023d23</title>
<g id="a_node2"><a xlink:href="dir_a23b95cf0fdfe0a772c2e68c8b023d23.html" target="_top" xlink:title="aero">
<polygon fill="#a2b4d6" stroke="#404040" points="124.45,-74 86.45,-74 86.45,-55 124.45,-55 124.45,-74"/>
<text text-anchor="middle" x="105.45" y="-62" font-family="Helvetica,sans-Serif" font-size="10.00">aero</text>
</a>
</g>
</g>
<!-- dir_a23b95cf0fdfe0a772c2e68c8b023d23&#45;&gt;dir_d59b7dddc6cfeb8ed243c8310c362d19 -->
<g id="edge5" class="edge">
<title>dir_a23b95cf0fdfe0a772c2e68c8b023d23&#45;&gt;dir_d59b7dddc6cfeb8ed243c8310c362d19</title>
<g id="a_edge5"><a xlink:href="dir_000001_000054.html" target="_top">
<path fill="none" stroke="#63b8ff" d="M101.65,-54.75C98.54,-47.57 94.03,-37.18 90.16,-28.27"/>
<polygon fill="#63b8ff" stroke="#63b8ff" points="93.37,-26.87 86.18,-19.09 86.95,-29.66 93.37,-26.87"/>
</a>
</g>
<g id="a_edge5&#45;headlabel"><a xlink:href="dir_000001_000054.html" target="_top" xlink:title="1">
<text text-anchor="middle" x="97.41" y="-26.54" font-family="Helvetica,sans-Serif" font-size="10.00" fill="#63b8ff">1</text>
</a>
</g>
</g>
<!-- dir_53c58b3ffa0a04a610c64e0d3362d2eb&#45;&gt;dir_b275fe914c86728e4bacb4b0e2726274 -->
<g id="edge6" class="edge">
<title>dir_53c58b3ffa0a04a610c64e0d3362d2eb&#45;&gt;dir_b275fe914c86728e4bacb4b0e2726274</title>
<g id="a_edge6"><a xlink:href="dir_000010_000007.html" target="_top">
<path fill="none" stroke="#63b8ff" d="M169.58,-54.79C174.82,-49.59 182.04,-43.21 189.45,-39 207.9,-28.53 230.74,-21.28 248.52,-16.71"/>
<polygon fill="#63b8ff" stroke="#63b8ff" points="249.45,-20.09 258.34,-14.33 247.8,-13.29 249.45,-20.09"/>
</a>
</g>
<g id="a_edge6&#45;headlabel"><a xlink:href="dir_000010_000007.html" target="_top" xlink:title="4">
<text text-anchor="middle" x="246.63" y="-21.2" font-family="Helvetica,sans-Serif" font-size="10.00" fill="#63b8ff">4</text>
</a>
</g>
</g>
<!-- dir_53c58b3ffa0a04a610c64e0d3362d2eb&#45;&gt;dir_d59b7dddc6cfeb8ed243c8310c362d19 -->
<g id="edge7" class="edge">
<title>dir_53c58b3ffa0a04a610c64e0d3362d2eb&#45;&gt;dir_d59b7dddc6cfeb8ed243c8310c362d19</title>
<g id="a_edge7"><a xlink:href="dir_000010_000054.html" target="_top">
<path fill="none" stroke="#63b8ff" d="M152.52,-54.82C147.21,-49.89 140.21,-43.76 133.45,-39 125.83,-33.62 117.09,-28.43 109.04,-23.98"/>
<polygon fill="#63b8ff" stroke="#63b8ff" points="110.46,-20.77 99.99,-19.14 107.16,-26.95 110.46,-20.77"/>
</a>
</g>
<g id="a_edge7&#45;headlabel"><a xlink:href="dir_000010_000054.html" target="_top" xlink:title="12">
<text text-anchor="middle" x="114.97" y="-17.47" font-family="Helvetica,sans-Serif" font-size="10.00" fill="#63b8ff">12</text>
</a>
</g>
</g>
<!-- dir_465e0a39040de1b874886f7b36789bde -->
<g id="node4" class="node">
<title>dir_465e0a39040de1b874886f7b36789bde</title>
<g id="a_node4"><a xlink:href="dir_465e0a39040de1b874886f7b36789bde.html" target="_top" xlink:title="sector">
<polygon fill="#a2b4d6" stroke="#404040" points="115.95,-129 68.95,-129 68.95,-110 115.95,-110 115.95,-129"/>
<text text-anchor="middle" x="92.45" y="-117" font-family="Helvetica,sans-Serif" font-size="10.00">sector</text>
</a>
</g>
</g>
<!-- dir_465e0a39040de1b874886f7b36789bde&#45;&gt;dir_a23b95cf0fdfe0a772c2e68c8b023d23 -->
<g id="edge8" class="edge">
<title>dir_465e0a39040de1b874886f7b36789bde&#45;&gt;dir_a23b95cf0fdfe0a772c2e68c8b023d23</title>
<g id="a_edge8"><a xlink:href="dir_000039_000001.html" target="_top">
<path fill="none" stroke="#63b8ff" d="M94.6,-109.75C96.32,-102.72 98.8,-92.62 100.95,-83.84"/>
<polygon fill="#63b8ff" stroke="#63b8ff" points="104.36,-84.63 103.34,-74.09 97.56,-82.97 104.36,-84.63"/>
</a>
</g>
<g id="a_edge8&#45;headlabel"><a xlink:href="dir_000039_000001.html" target="_top" xlink:title="1">
<text text-anchor="middle" x="106.26" y="-86.3" font-family="Helvetica,sans-Serif" font-size="10.00" fill="#63b8ff">1</text>
</a>
</g>
</g>
<!-- dir_465e0a39040de1b874886f7b36789bde&#45;&gt;dir_b275fe914c86728e4bacb4b0e2726274 -->
<g id="edge9" class="edge">
<title>dir_465e0a39040de1b874886f7b36789bde&#45;&gt;dir_b275fe914c86728e4bacb4b0e2726274</title>
<g id="a_edge9"><a xlink:href="dir_000039_000007.html" target="_top">
<path fill="none" stroke="#63b8ff" d="M116.01,-112.34C161.51,-100.42 257.15,-75.27 258.45,-74 270.43,-62.36 274.94,-43.5 276.59,-29.35"/>
<polygon fill="#63b8ff" stroke="#63b8ff" points="280.09,-29.49 277.39,-19.24 273.11,-28.93 280.09,-29.49"/>
</a>
</g>
<g id="a_edge9&#45;headlabel"><a xlink:href="dir_000039_000007.html" target="_top" xlink:title="3">
<text text-anchor="middle" x="282.63" y="-30.8" font-family="Helvetica,sans-Serif" font-size="10.00" fill="#63b8ff">3</text>
</a>
</g>
</g>
<!-- dir_465e0a39040de1b874886f7b36789bde&#45;&gt;dir_d59b7dddc6cfeb8ed243c8310c362d19 -->
<g id="edge10" class="edge">
<title>dir_465e0a39040de1b874886f7b36789bde&#45;&gt;dir_d59b7dddc6cfeb8ed243c8310c362d19</title>
<g id="a_edge10"><a xlink:href="dir_000039_000054.html" target="_top">
<path fill="none" stroke="#63b8ff" d="M68.78,-113.47C48.3,-107.73 19.91,-96.12 6.45,-74 -1.63,-60.71 -2.41,-51.79 6.45,-39 15.39,-26.11 30.92,-19.04 45.62,-15.17"/>
<polygon fill="#63b8ff" stroke="#63b8ff" points="46.57,-18.54 55.58,-12.96 45.06,-11.71 46.57,-18.54"/>
</a>
</g>
<g id="a_edge10&#45;headlabel"><a xlink:href="dir_000039_000054.html" target="_top" xlink:title="4">
<text text-anchor="middle" x="43.68" y="-19.59" font-family="Helvetica,sans-Serif" font-size="10.00" fill="#63b8ff">4</text>
</a>
</g>
</g>
<!-- dir_0761b4eef8ed7bf1817548a27f87065f&#45;&gt;dir_b275fe914c86728e4bacb4b0e2726274 -->
<g id="edge11" class="edge">
<title>dir_0761b4eef8ed7bf1817548a27f87065f&#45;&gt;dir_b275fe914c86728e4bacb4b0e2726274</title>
<g id="a_edge11"><a xlink:href="dir_000051_000007.html" target="_top">
<path fill="none" stroke="#63b8ff" d="M232.37,-54.75C240.23,-47.03 251.88,-35.6 261.37,-26.28"/>
<polygon fill="#63b8ff" stroke="#63b8ff" points="264.02,-28.59 268.7,-19.09 259.11,-23.6 264.02,-28.59"/>
</a>
</g>
<g id="a_edge11&#45;headlabel"><a xlink:href="dir_000051_000007.html" target="_top" xlink:title="5">
<text text-anchor="middle" x="263.44" y="-30.64" font-family="Helvetica,sans-Serif" font-size="10.00" fill="#63b8ff">5</text>
</a>
</g>
</g>
<!-- dir_0761b4eef8ed7bf1817548a27f87065f&#45;&gt;dir_d59b7dddc6cfeb8ed243c8310c362d19 -->
<g id="edge12" class="edge">
<title>dir_0761b4eef8ed7bf1817548a27f87065f&#45;&gt;dir_d59b7dddc6cfeb8ed243c8310c362d19</title>
<g id="a_edge12"><a xlink:href="dir_000051_000054.html" target="_top">
<path fill="none" stroke="#63b8ff" d="M213.65,-54.95C207.17,-49.69 198.26,-43.17 189.45,-39 167.21,-28.46 140.44,-21.34 119.25,-16.84"/>
<polygon fill="#63b8ff" stroke="#63b8ff" points="119.83,-13.39 109.34,-14.85 118.45,-20.25 119.83,-13.39"/>
</a>
</g>
<g id="a_edge12&#45;headlabel"><a xlink:href="dir_000051_000054.html" target="_top" xlink:title="9">
<text text-anchor="middle" x="123.92" y="-8.82" font-family="Helvetica,sans-Serif" font-size="10.00" fill="#63b8ff">9</text>
</a>
</g>
</g>
<!-- dir_64983f8a0c443867466b4eaf4599ddca -->
<g id="node6" class="node">
<title>dir_64983f8a0c443867466b4eaf4599ddca</title>
<g id="a_node6"><a xlink:href="dir_64983f8a0c443867466b4eaf4599ddca.html" target="_top" xlink:title="wing">
<polygon fill="#a2b4d6" stroke="#404040" points="174.45,-129 134.45,-129 134.45,-110 174.45,-110 174.45,-129"/>
<text text-anchor="middle" x="154.45" y="-117" font-family="Helvetica,sans-Serif" font-size="10.00">wing</text>
</a>
</g>
</g>
<!-- dir_64983f8a0c443867466b4eaf4599ddca&#45;&gt;dir_a23b95cf0fdfe0a772c2e68c8b023d23 -->
<g id="edge13" class="edge">
<title>dir_64983f8a0c443867466b4eaf4599ddca&#45;&gt;dir_a23b95cf0fdfe0a772c2e68c8b023d23</title>
<g id="a_edge13"><a xlink:href="dir_000060_000001.html" target="_top">
<path fill="none" stroke="#63b8ff" d="M146.36,-109.75C139.3,-102.11 128.86,-90.82 120.3,-81.56"/>
<polygon fill="#63b8ff" stroke="#63b8ff" points="122.75,-79.06 113.39,-74.09 117.61,-83.81 122.75,-79.06"/>
</a>
</g>
<g id="a_edge13&#45;headlabel"><a xlink:href="dir_000060_000001.html" target="_top" xlink:title="3">
<text text-anchor="middle" x="127.28" y="-77.27" font-family="Helvetica,sans-Serif" font-size="10.00" fill="#63b8ff">3</text>
</a>
</g>
</g>
<!-- dir_64983f8a0c443867466b4eaf4599ddca&#45;&gt;dir_b275fe914c86728e4bacb4b0e2726274 -->
<g id="edge14" class="edge">
<title>dir_64983f8a0c443867466b4eaf4599ddca&#45;&gt;dir_b275fe914c86728e4bacb4b0e2726274</title>
<g id="a_edge14"><a xlink:href="dir_000060_000007.html" target="_top">
<path fill="none" stroke="#63b8ff" d="M174.61,-112.63C211.84,-101.69 287.91,-78.88 291.45,-74 301.17,-60.62 295.19,-41.77 288.29,-28.08"/>
<polygon fill="#63b8ff" stroke="#63b8ff" points="291.25,-26.2 283.31,-19.18 285.14,-29.62 291.25,-26.2"/>
</a>
</g>
<g id="a_edge14&#45;headlabel"><a xlink:href="dir_000060_000007.html" target="_top" xlink:title="2">
<text text-anchor="middle" x="295.48" y="-25.46" font-family="Helvetica,sans-Serif" font-size="10.00" fill="#63b8ff">2</text>
</a>
</g>
</g>
<!-- dir_64983f8a0c443867466b4eaf4599ddca&#45;&gt;dir_d59b7dddc6cfeb8ed243c8310c362d19 -->
<g id="edge15" class="edge">
<title>dir_64983f8a0c443867466b4eaf4599ddca&#45;&gt;dir_d59b7dddc6cfeb8ed243c8310c362d19</title>
<g id="a_edge15"><a xlink:href="dir_000060_000054.html" target="_top">
<path fill="none" stroke="#63b8ff" d="M134,-111.61C103.67,-101.2 49.72,-81.81 44.45,-74 35.76,-61.1 37.5,-52.91 44.45,-39 47.19,-33.52 51.54,-28.82 56.34,-24.91"/>
<polygon fill="#63b8ff" stroke="#63b8ff" points="58.47,-27.69 64.63,-19.07 54.43,-21.97 58.47,-27.69"/>
</a>
</g>
<g id="a_edge15&#45;headlabel"><a xlink:href="dir_000060_000054.html" target="_top" xlink:title="4">
<text text-anchor="middle" x="57.16" y="-29.58" font-family="Helvetica,sans-Serif" font-size="10.00" fill="#63b8ff">4</text>
</a>
</g>
</g>
</g>
</svg>
</svg>

<style type='text/css'>
<![CDATA[
[data-mouse-over-selected='false'] { opacity: 0.7; }
[data-mouse-over-selected='true']  { opacity: 1.0; }
]]>
</style>
<script type="application/ecmascript"><![CDATA[
document.addEventListener('DOMContentLoaded', (event) => {
  highlightEdges();
  highlightAdjacentNodes();
});
]]></script>
</svg>
