<?xml version="1.0" encoding="UTF-8" standalone="no"?>
<!DOCTYPE svg PUBLIC "-//W3C//DTD SVG 1.1//EN"
 "http://www.w3.org/Graphics/SVG/1.1/DTD/svg11.dtd">
<!-- Generated by graphviz version 2.43.0 (0)
 -->
<!-- Title: /home/runner/work/kynema&#45;sgf/kynema&#45;sgf/src/physics Pages: 1 -->
<!--zoomable 196 -->

<svg id="main" version="1.1" xmlns="http://www.w3.org/2000/svg" xmlns:xlink="http://www.w3.org/1999/xlink" xml:space="preserve" onload="init(evt)">

<style type="text/css"><![CDATA[
.node, .edge {opacity: 0.7;}
.node.selected, .edge.selected {opacity: 1;}
.edge:hover path { stroke: red; }
.edge:hover polygon { stroke: red; fill: red; }
]]></style>

<defs>
  <circle id="rim" cx="0" cy="0" r="7"/>
  <circle id="rim2" cx="0" cy="0" r="3.5"/>
  <g id="zoomPlus">
    <use xlink:href="#rim" fill="#404040"><set attributeName="fill" to="#808080" begin="zoomplus.mouseover" end="zoomplus.mouseout"/></use>
    <path d="M-4,0h8M0,-4v8" fill="none" stroke="white" stroke-width="1.5" pointer-events="none"/>
  </g>
  <g id="zoomMin">
    <use xlink:href="#rim" fill="#404040"><set attributeName="fill" to="#808080" begin="zoomminus.mouseover" end="zoomminus.mouseout"/></use>
    <path d="M-4,0h8" fill="none" stroke="white" stroke-width="1.5" pointer-events="none"/>
  </g>
  <g id="arrowUp" transform="translate(30 24)">
    <use xlink:href="#rim"/>
    <path pointer-events="none" fill="none" stroke="white" stroke-width="1.5" d="M0,-3.0v7 M-2.5,-0.5L0,-3.0L2.5,-0.5"/>
  </g>
  <g id="arrowRight" transform="rotate(90) translate(36 -43)">
    <use xlink:href="#rim"/>
    <path pointer-events="none" fill="none" stroke="white" stroke-width="1.5" d="M0,-3.0v7 M-2.5,-0.5L0,-3.0L2.5,-0.5"/>
  </g>
  <g id="arrowDown" transform="rotate(180) translate(-30 -48)">
    <use xlink:href="#rim"/>
    <path pointer-events="none" fill="none" stroke="white" stroke-width="1.5" d="M0,-3.0v7 M-2.5,-0.5L0,-3.0L2.5,-0.5"/>
  </g>
  <g id="arrowLeft" transform="rotate(270) translate(-36 17)">
    <use xlink:href="#rim"/>
    <path pointer-events="none" fill="none" stroke="white" stroke-width="1.5" d="M0,-3.0v7 M-2.5,-0.5L0,-3.0L2.5,-0.5"/>
  </g>
  <g id="resetDef">
    <use xlink:href="#rim2" fill="#404040"><set attributeName="fill" to="#808080" begin="reset.mouseover" end="reset.mouseout"/></use>
  </g>
</defs>
<script type="application/ecmascript">
var viewWidth = 672;
var viewHeight = 196;
var sectionId = 'dynsection-0';
</script>
<script type="application/ecmascript" xlink:href="svg.min.js"/>
<svg id="graph" class="graph">
<g id="viewport">
<title>/home/runner/work/kynema&#45;sgf/kynema&#45;sgf/src/physics</title>
<g id="clust1" class="cluster">
<title>clusterdir_61f6b646fc8bb47b7307ce57a92ecf1c</title>
<g id="a_clust1"><a xlink:href="dir_61f6b646fc8bb47b7307ce57a92ecf1c.html" target="_top" xlink:title="src">
<polygon fill="#edf0f7" stroke="#7f7f7f" stroke-dasharray="5,2" points="8,-8 8,-180 656,-180 656,-8 8,-8"/>
<text text-anchor="middle" x="332" y="-168" font-family="Helvetica,sans-Serif" font-size="10.00">src</text>
</a>
</g>
</g>
<g id="clust2" class="cluster">
<title>clusterdir_ddcea0517a7b80a55be019748a9389a4</title>
<g id="a_clust2"><a xlink:href="dir_ddcea0517a7b80a55be019748a9389a4.html" target="_top">
<polygon fill="#edf0f7" stroke="#404040" stroke-width="2" points="366,-63 366,-153 584,-153 584,-63 366,-63"/>
</a>
</g>
</g>
<!-- dir_0a302c6baedf52e9cfdc9fc1cbccbefa -->
<g id="node1" class="node">
<title>dir_0a302c6baedf52e9cfdc9fc1cbccbefa</title>
<g id="a_node1"><a xlink:href="dir_0a302c6baedf52e9cfdc9fc1cbccbefa.html" target="_top" xlink:title="equation_systems">
<polygon fill="#a2b4d6" stroke="red" points="615,-35 509,-35 509,-16 615,-16 615,-35"/>
<text text-anchor="middle" x="562" y="-23" font-family="Helvetica,sans-Serif" font-size="10.00">equation_systems</text>
</a>
</g>
</g>
<!-- dir_1e81ec2858f8c09f6adc44292f32a0c3 -->
<g id="node2" class="node">
<title>dir_1e81ec2858f8c09f6adc44292f32a0c3</title>
<g id="a_node2"><a xlink:href="dir_1e81ec2858f8c09f6adc44292f32a0c3.html" target="_top" xlink:title="boundary_conditions">
<polygon fill="#a2b4d6" stroke="red" points="358,-90 240,-90 240,-71 358,-71 358,-90"/>
<text text-anchor="middle" x="299" y="-78" font-family="Helvetica,sans-Serif" font-size="10.00">boundary_conditions</text>
</a>
</g>
</g>
<!-- dir_4c19a60307109eba79b0431678f4e7a6 -->
<g id="node3" class="node">
<title>dir_4c19a60307109eba79b0431678f4e7a6</title>
<g id="a_node3"><a xlink:href="dir_4c19a60307109eba79b0431678f4e7a6.html" target="_top" xlink:title="turbulence">
<polygon fill="#a2b4d6" stroke="red" points="124,-90 56,-90 56,-71 124,-71 124,-90"/>
<text text-anchor="middle" x="90" y="-78" font-family="Helvetica,sans-Serif" font-size="10.00">turbulence</text>
</a>
</g>
</g>
<!-- dir_7407723fafe4509a43b392903c8f7fbf -->
<g id="node4" class="node">
<title>dir_7407723fafe4509a43b392903c8f7fbf</title>
<g id="a_node4"><a xlink:href="dir_7407723fafe4509a43b392903c8f7fbf.html" target="_top" xlink:title="fvm">
<polygon fill="#a2b4d6" stroke="#404040" points="628,-90 592,-90 592,-71 628,-71 628,-90"/>
<text text-anchor="middle" x="610" y="-78" font-family="Helvetica,sans-Serif" font-size="10.00">fvm</text>
</a>
</g>
</g>
<!-- dir_a80d9316c48aa709b9bc78e2b746db24 -->
<g id="node5" class="node">
<title>dir_a80d9316c48aa709b9bc78e2b746db24</title>
<g id="a_node5"><a xlink:href="dir_a80d9316c48aa709b9bc78e2b746db24.html" target="_top" xlink:title="wind_energy">
<polygon fill="#a2b4d6" stroke="red" points="221.5,-90 142.5,-90 142.5,-71 221.5,-71 221.5,-90"/>
<text text-anchor="middle" x="182" y="-78" font-family="Helvetica,sans-Serif" font-size="10.00">wind_energy</text>
</a>
</g>
</g>
<!-- dir_b275fe914c86728e4bacb4b0e2726274 -->
<g id="node6" class="node">
<title>dir_b275fe914c86728e4bacb4b0e2726274</title>
<g id="a_node6"><a xlink:href="dir_b275fe914c86728e4bacb4b0e2726274.html" target="_top" xlink:title="core">
<polygon fill="#a2b4d6" stroke="red" points="491,-35 453,-35 453,-16 491,-16 491,-35"/>
<text text-anchor="middle" x="472" y="-23" font-family="Helvetica,sans-Serif" font-size="10.00">core</text>
</a>
</g>
</g>
<!-- dir_d59b7dddc6cfeb8ed243c8310c362d19 -->
<g id="node7" class="node">
<title>dir_d59b7dddc6cfeb8ed243c8310c362d19</title>
<g id="a_node7"><a xlink:href="dir_d59b7dddc6cfeb8ed243c8310c362d19.html" target="_top" xlink:title="utilities">
<polygon fill="#a2b4d6" stroke="red" points="434.5,-35 381.5,-35 381.5,-16 434.5,-16 434.5,-35"/>
<text text-anchor="middle" x="408" y="-23" font-family="Helvetica,sans-Serif" font-size="10.00">utilities</text>
</a>
</g>
</g>
<!-- dir_ddcea0517a7b80a55be019748a9389a4 -->
<g id="node8" class="node">
<title>dir_ddcea0517a7b80a55be019748a9389a4</title>
<text text-anchor="middle" x="401" y="-133" font-family="Helvetica,sans-Serif" font-size="10.00">physics</text>
</g>
<!-- dir_ddcea0517a7b80a55be019748a9389a4&#45;&gt;dir_1e81ec2858f8c09f6adc44292f32a0c3 -->
<g id="edge1" class="edge">
<title>dir_ddcea0517a7b80a55be019748a9389a4&#45;&gt;dir_1e81ec2858f8c09f6adc44292f32a0c3</title>
<g id="a_edge1"><a xlink:href="dir_000033_000005.html" target="_top">
<path fill="none" stroke="#63b8ff" d="M384.61,-125.98C368.43,-117.57 343.43,-104.59 324.62,-94.81"/>
<polygon fill="#63b8ff" stroke="#63b8ff" points="326.17,-91.68 315.69,-90.17 322.95,-97.89 326.17,-91.68"/>
</a>
</g>
<g id="a_edge1&#45;headlabel"><a xlink:href="dir_000033_000005.html" target="_top" xlink:title="2">
<text text-anchor="middle" x="330.67" y="-88.31" font-family="Helvetica,sans-Serif" font-size="10.00" fill="#63b8ff">2</text>
</a>
</g>
</g>
<!-- dir_ddcea0517a7b80a55be019748a9389a4&#45;&gt;dir_4c19a60307109eba79b0431678f4e7a6 -->
<g id="edge2" class="edge">
<title>dir_ddcea0517a7b80a55be019748a9389a4&#45;&gt;dir_4c19a60307109eba79b0431678f4e7a6</title>
<g id="a_edge2"><a xlink:href="dir_000033_000051.html" target="_top">
<path fill="none" stroke="#63b8ff" d="M374.43,-130.3C326.39,-122.66 221.88,-105.81 134,-90 133.9,-89.98 133.8,-89.96 133.7,-89.95"/>
<polygon fill="#63b8ff" stroke="#63b8ff" points="134.56,-86.55 124.09,-88.18 133.29,-93.43 134.56,-86.55"/>
</a>
</g>
<g id="a_edge2&#45;headlabel"><a xlink:href="dir_000033_000051.html" target="_top" xlink:title="2">
<text text-anchor="middle" x="138.61" y="-81.91" font-family="Helvetica,sans-Serif" font-size="10.00" fill="#63b8ff">2</text>
</a>
</g>
</g>
<!-- dir_ddcea0517a7b80a55be019748a9389a4&#45;&gt;dir_a80d9316c48aa709b9bc78e2b746db24 -->
<g id="edge4" class="edge">
<title>dir_ddcea0517a7b80a55be019748a9389a4&#45;&gt;dir_a80d9316c48aa709b9bc78e2b746db24</title>
<g id="a_edge4"><a xlink:href="dir_000033_000058.html" target="_top">
<path fill="none" stroke="#63b8ff" d="M374.15,-128C337.59,-119.15 271.65,-103.2 227.35,-92.47"/>
<polygon fill="#63b8ff" stroke="#63b8ff" points="227.96,-89.02 217.41,-90.07 226.31,-95.82 227.96,-89.02"/>
</a>
</g>
<g id="a_edge4&#45;headlabel"><a xlink:href="dir_000033_000058.html" target="_top" xlink:title="1">
<text text-anchor="middle" x="232.12" y="-84.61" font-family="Helvetica,sans-Serif" font-size="10.00" fill="#63b8ff">1</text>
</a>
</g>
</g>
<!-- dir_ddcea0517a7b80a55be019748a9389a4&#45;&gt;dir_b275fe914c86728e4bacb4b0e2726274 -->
<g id="edge5" class="edge">
<title>dir_ddcea0517a7b80a55be019748a9389a4&#45;&gt;dir_b275fe914c86728e4bacb4b0e2726274</title>
<g id="a_edge5"><a xlink:href="dir_000033_000007.html" target="_top">
<path fill="none" stroke="#63b8ff" d="M374.31,-133.14C295.62,-128.88 68.64,-114.53 47,-90 39.06,-81 38.82,-71.78 47,-63 75.62,-32.29 368.43,-41.89 442.86,-34.3"/>
<polygon fill="#63b8ff" stroke="#63b8ff" points="443.43,-37.76 452.86,-32.93 442.48,-30.82 443.43,-37.76"/>
</a>
</g>
<g id="a_edge5&#45;headlabel"><a xlink:href="dir_000033_000007.html" target="_top" xlink:title="92">
<text text-anchor="middle" x="440.26" y="-38.56" font-family="Helvetica,sans-Serif" font-size="10.00" fill="#63b8ff">92</text>
</a>
</g>
</g>
<!-- dir_ddcea0517a7b80a55be019748a9389a4&#45;&gt;dir_d59b7dddc6cfeb8ed243c8310c362d19 -->
<g id="edge6" class="edge">
<title>dir_ddcea0517a7b80a55be019748a9389a4&#45;&gt;dir_d59b7dddc6cfeb8ed243c8310c362d19</title>
<g id="a_edge6"><a xlink:href="dir_000033_000053.html" target="_top">
<path fill="none" stroke="#63b8ff" d="M374.34,-133.29C293.42,-129.35 54.72,-115.62 32,-90 24.04,-81.02 23.94,-71.89 32,-63 54.55,-38.15 281.33,-29.71 371.4,-27.32"/>
<polygon fill="#63b8ff" stroke="#63b8ff" points="371.53,-30.82 381.44,-27.06 371.35,-23.82 371.53,-30.82"/>
</a>
</g>
<g id="a_edge6&#45;headlabel"><a xlink:href="dir_000033_000053.html" target="_top" xlink:title="34">
<text text-anchor="middle" x="368.01" y="-31.25" font-family="Helvetica,sans-Serif" font-size="10.00" fill="#63b8ff">34</text>
</a>
</g>
</g>
<!-- dir_6cf039ee709fec78323a3380aff0a908 -->
<g id="node11" class="node">
<title>dir_6cf039ee709fec78323a3380aff0a908</title>
<g id="a_node11"><a xlink:href="dir_6cf039ee709fec78323a3380aff0a908.html" target="_top" xlink:title="udfs">
<polygon fill="#a2b4d6" stroke="#404040" points="533,-90 495,-90 495,-71 533,-71 533,-90"/>
<text text-anchor="middle" x="514" y="-78" font-family="Helvetica,sans-Serif" font-size="10.00">udfs</text>
</a>
</g>
</g>
<!-- dir_ddcea0517a7b80a55be019748a9389a4&#45;&gt;dir_6cf039ee709fec78323a3380aff0a908 -->
<g id="edge3" class="edge">
<title>dir_ddcea0517a7b80a55be019748a9389a4&#45;&gt;dir_6cf039ee709fec78323a3380aff0a908</title>
<g id="a_edge3"><a xlink:href="dir_000033_000052.html" target="_top">
<path fill="none" stroke="#63b8ff" d="M419.16,-125.98C437.25,-117.5 465.28,-104.35 486.19,-94.54"/>
<polygon fill="#63b8ff" stroke="#63b8ff" points="487.95,-97.59 495.51,-90.17 484.97,-91.25 487.95,-97.59"/>
</a>
</g>
<g id="a_edge3&#45;headlabel"><a xlink:href="dir_000033_000052.html" target="_top" xlink:title="2">
<text text-anchor="middle" x="485.9" y="-99.18" font-family="Helvetica,sans-Serif" font-size="10.00" fill="#63b8ff">2</text>
</a>
</g>
</g>
<!-- dir_274a908cd4d41df6e7ece169094dfce1 -->
<g id="node9" class="node">
<title>dir_274a908cd4d41df6e7ece169094dfce1</title>
<g id="a_node9"><a xlink:href="dir_274a908cd4d41df6e7ece169094dfce1.html" target="_top" xlink:title="mms">
<polygon fill="#a2b4d6" stroke="#404040" points="575.5,-145 534.5,-145 534.5,-126 575.5,-126 575.5,-145"/>
<text text-anchor="middle" x="555" y="-133" font-family="Helvetica,sans-Serif" font-size="10.00">mms</text>
</a>
</g>
</g>
<!-- dir_274a908cd4d41df6e7ece169094dfce1&#45;&gt;dir_0a302c6baedf52e9cfdc9fc1cbccbefa -->
<g id="edge7" class="edge">
<title>dir_274a908cd4d41df6e7ece169094dfce1&#45;&gt;dir_0a302c6baedf52e9cfdc9fc1cbccbefa</title>
<g id="a_edge7"><a xlink:href="dir_000026_000014.html" target="_top">
<path fill="none" stroke="#63b8ff" d="M575.72,-129.71C595.39,-123.94 623.83,-112.13 637,-90 643.14,-79.69 643.36,-73.17 637,-63 630.21,-52.15 619.17,-44.44 607.63,-39"/>
<polygon fill="#63b8ff" stroke="#63b8ff" points="608.91,-35.74 598.33,-35.1 606.2,-42.2 608.91,-35.74"/>
</a>
</g>
<g id="a_edge7&#45;headlabel"><a xlink:href="dir_000026_000014.html" target="_top" xlink:title="1">
<text text-anchor="middle" x="613.32" y="-32.01" font-family="Helvetica,sans-Serif" font-size="10.00" fill="#63b8ff">1</text>
</a>
</g>
</g>
<!-- dir_274a908cd4d41df6e7ece169094dfce1&#45;&gt;dir_b275fe914c86728e4bacb4b0e2726274 -->
<g id="edge8" class="edge">
<title>dir_274a908cd4d41df6e7ece169094dfce1&#45;&gt;dir_b275fe914c86728e4bacb4b0e2726274</title>
<g id="a_edge8"><a xlink:href="dir_000026_000007.html" target="_top">
<path fill="none" stroke="#63b8ff" d="M534.31,-126.38C518.65,-119.16 497.88,-107.09 486,-90 476.84,-76.82 473.53,-58.69 472.41,-45.18"/>
<polygon fill="#63b8ff" stroke="#63b8ff" points="475.9,-44.93 471.89,-35.12 468.91,-45.29 475.9,-44.93"/>
</a>
</g>
<g id="a_edge8&#45;headlabel"><a xlink:href="dir_000026_000007.html" target="_top" xlink:title="3">
<text text-anchor="middle" x="478.92" y="-45.87" font-family="Helvetica,sans-Serif" font-size="10.00" fill="#63b8ff">3</text>
</a>
</g>
</g>
<!-- dir_ea84defc78a3d6a93c5f3fc502908131 -->
<g id="node10" class="node">
<title>dir_ea84defc78a3d6a93c5f3fc502908131</title>
<g id="a_node10"><a xlink:href="dir_ea84defc78a3d6a93c5f3fc502908131.html" target="_top" xlink:title="multiphase">
<polygon fill="#a2b4d6" stroke="#404040" points="516.5,-145 445.5,-145 445.5,-126 516.5,-126 516.5,-145"/>
<text text-anchor="middle" x="481" y="-133" font-family="Helvetica,sans-Serif" font-size="10.00">multiphase</text>
</a>
</g>
</g>
<!-- dir_ea84defc78a3d6a93c5f3fc502908131&#45;&gt;dir_0a302c6baedf52e9cfdc9fc1cbccbefa -->
<g id="edge9" class="edge">
<title>dir_ea84defc78a3d6a93c5f3fc502908131&#45;&gt;dir_0a302c6baedf52e9cfdc9fc1cbccbefa</title>
<g id="a_edge9"><a xlink:href="dir_000027_000014.html" target="_top">
<path fill="none" stroke="#63b8ff" d="M498.09,-125.99C511.81,-118.34 530.61,-105.86 542,-90 551.59,-76.65 556.69,-58.54 559.34,-45.08"/>
<polygon fill="#63b8ff" stroke="#63b8ff" points="562.82,-45.51 561.03,-35.07 555.91,-44.35 562.82,-45.51"/>
</a>
</g>
<g id="a_edge9&#45;headlabel"><a xlink:href="dir_000027_000014.html" target="_top" xlink:title="2">
<text text-anchor="middle" x="565.02" y="-47.03" font-family="Helvetica,sans-Serif" font-size="10.00" fill="#63b8ff">2</text>
</a>
</g>
</g>
<!-- dir_ea84defc78a3d6a93c5f3fc502908131&#45;&gt;dir_1e81ec2858f8c09f6adc44292f32a0c3 -->
<g id="edge10" class="edge">
<title>dir_ea84defc78a3d6a93c5f3fc502908131&#45;&gt;dir_1e81ec2858f8c09f6adc44292f32a0c3</title>
<g id="a_edge10"><a xlink:href="dir_000027_000005.html" target="_top">
<path fill="none" stroke="#63b8ff" d="M451.76,-125.98C420.94,-117.01 372.22,-102.82 338.11,-92.89"/>
<polygon fill="#63b8ff" stroke="#63b8ff" points="339.05,-89.52 328.47,-90.08 337.09,-96.24 339.05,-89.52"/>
</a>
</g>
<g id="a_edge10&#45;headlabel"><a xlink:href="dir_000027_000005.html" target="_top" xlink:title="1">
<text text-anchor="middle" x="343.3" y="-85.3" font-family="Helvetica,sans-Serif" font-size="10.00" fill="#63b8ff">1</text>
</a>
</g>
</g>
<!-- dir_ea84defc78a3d6a93c5f3fc502908131&#45;&gt;dir_7407723fafe4509a43b392903c8f7fbf -->
<g id="edge11" class="edge">
<title>dir_ea84defc78a3d6a93c5f3fc502908131&#45;&gt;dir_7407723fafe4509a43b392903c8f7fbf</title>
<g id="a_edge11"><a xlink:href="dir_000027_000018.html" target="_top">
<path fill="none" stroke="#63b8ff" d="M501.73,-125.98C523.63,-116.98 558.3,-102.74 582.49,-92.8"/>
<polygon fill="#63b8ff" stroke="#63b8ff" points="583.91,-96 591.83,-88.97 581.25,-89.53 583.91,-96"/>
</a>
</g>
<g id="a_edge11&#45;headlabel"><a xlink:href="dir_000027_000018.html" target="_top" xlink:title="5">
<text text-anchor="middle" x="581.66" y="-97.5" font-family="Helvetica,sans-Serif" font-size="10.00" fill="#63b8ff">5</text>
</a>
</g>
</g>
<!-- dir_ea84defc78a3d6a93c5f3fc502908131&#45;&gt;dir_b275fe914c86728e4bacb4b0e2726274 -->
<g id="edge12" class="edge">
<title>dir_ea84defc78a3d6a93c5f3fc502908131&#45;&gt;dir_b275fe914c86728e4bacb4b0e2726274</title>
<g id="a_edge12"><a xlink:href="dir_000027_000007.html" target="_top">
<path fill="none" stroke="#63b8ff" d="M478.43,-125.73C475.95,-116.83 472.4,-102.59 471,-90 469.68,-78.07 470.84,-75 471,-63 471.08,-57.35 471.22,-51.22 471.38,-45.62"/>
<polygon fill="#63b8ff" stroke="#63b8ff" points="474.89,-45.3 471.69,-35.2 467.89,-45.09 474.89,-45.3"/>
</a>
</g>
<g id="a_edge12&#45;headlabel"><a xlink:href="dir_000027_000007.html" target="_top" xlink:title="29">
<text text-anchor="middle" x="477.62" y="-46.48" font-family="Helvetica,sans-Serif" font-size="10.00" fill="#63b8ff">29</text>
</a>
</g>
</g>
<!-- dir_ea84defc78a3d6a93c5f3fc502908131&#45;&gt;dir_d59b7dddc6cfeb8ed243c8310c362d19 -->
<g id="edge13" class="edge">
<title>dir_ea84defc78a3d6a93c5f3fc502908131&#45;&gt;dir_d59b7dddc6cfeb8ed243c8310c362d19</title>
<g id="a_edge13"><a xlink:href="dir_000027_000053.html" target="_top">
<path fill="none" stroke="#63b8ff" d="M475.03,-125.66C462.94,-107.77 435.38,-67 419.62,-43.69"/>
<polygon fill="#63b8ff" stroke="#63b8ff" points="422.35,-41.48 413.85,-35.16 416.55,-45.4 422.35,-41.48"/>
</a>
</g>
<g id="a_edge13&#45;headlabel"><a xlink:href="dir_000027_000053.html" target="_top" xlink:title="7">
<text text-anchor="middle" x="426.72" y="-40.37" font-family="Helvetica,sans-Serif" font-size="10.00" fill="#63b8ff">7</text>
</a>
</g>
</g>
<!-- dir_6cf039ee709fec78323a3380aff0a908&#45;&gt;dir_0a302c6baedf52e9cfdc9fc1cbccbefa -->
<g id="edge14" class="edge">
<title>dir_6cf039ee709fec78323a3380aff0a908&#45;&gt;dir_0a302c6baedf52e9cfdc9fc1cbccbefa</title>
<g id="a_edge14"><a xlink:href="dir_000052_000014.html" target="_top">
<path fill="none" stroke="#63b8ff" d="M521.93,-70.75C528.85,-63.11 539.07,-51.82 547.45,-42.56"/>
<polygon fill="#63b8ff" stroke="#63b8ff" points="550.1,-44.85 554.22,-35.09 544.91,-40.15 550.1,-44.85"/>
</a>
</g>
<g id="a_edge14&#45;headlabel"><a xlink:href="dir_000052_000014.html" target="_top" xlink:title="6">
<text text-anchor="middle" x="549.79" y="-46.92" font-family="Helvetica,sans-Serif" font-size="10.00" fill="#63b8ff">6</text>
</a>
</g>
</g>
<!-- dir_6cf039ee709fec78323a3380aff0a908&#45;&gt;dir_b275fe914c86728e4bacb4b0e2726274 -->
<g id="edge15" class="edge">
<title>dir_6cf039ee709fec78323a3380aff0a908&#45;&gt;dir_b275fe914c86728e4bacb4b0e2726274</title>
<g id="a_edge15"><a xlink:href="dir_000052_000007.html" target="_top">
<path fill="none" stroke="#63b8ff" d="M507.06,-70.75C501.13,-63.26 492.43,-52.28 485.18,-43.13"/>
<polygon fill="#63b8ff" stroke="#63b8ff" points="487.76,-40.75 478.81,-35.09 482.27,-45.1 487.76,-40.75"/>
</a>
</g>
<g id="a_edge15&#45;headlabel"><a xlink:href="dir_000052_000007.html" target="_top" xlink:title="23">
<text text-anchor="middle" x="492.22" y="-39.31" font-family="Helvetica,sans-Serif" font-size="10.00" fill="#63b8ff">23</text>
</a>
</g>
</g>
<!-- dir_6cf039ee709fec78323a3380aff0a908&#45;&gt;dir_d59b7dddc6cfeb8ed243c8310c362d19 -->
<g id="edge16" class="edge">
<title>dir_6cf039ee709fec78323a3380aff0a908&#45;&gt;dir_d59b7dddc6cfeb8ed243c8310c362d19</title>
<g id="a_edge16"><a xlink:href="dir_000052_000053.html" target="_top">
<path fill="none" stroke="#63b8ff" d="M503.08,-70.96C499.36,-68.24 495.1,-65.34 491,-63 474.81,-53.76 455.83,-45.26 440.12,-38.79"/>
<polygon fill="#63b8ff" stroke="#63b8ff" points="441.39,-35.53 430.81,-35.04 438.77,-42.02 441.39,-35.53"/>
</a>
</g>
<g id="a_edge16&#45;headlabel"><a xlink:href="dir_000052_000053.html" target="_top" xlink:title="1">
<text text-anchor="middle" x="445.79" y="-31.74" font-family="Helvetica,sans-Serif" font-size="10.00" fill="#63b8ff">1</text>
</a>
</g>
</g>
</g>
</svg>

<g id="navigator" transform="translate(0 0)" fill="#404254">
  <rect fill="#f2f5e9" fill-opacity="0.5" stroke="#606060" stroke-width=".5" x="0" y="0" width="60" height="60"/>
  <use id="zoomplus" xlink:href="#zoomPlus" x="17" y="9" onmousedown="handleZoom(evt,'in')"/>
  <use id="zoomminus" xlink:href="#zoomMin" x="42" y="9" onmousedown="handleZoom(evt,'out')"/>
  <use id="reset" xlink:href="#resetDef" x="30" y="36" onmousedown="handleReset()"/>
   <use id="arrowup" xlink:href="#arrowUp" x="0" y="0" onmousedown="handlePan(0,-1)"/>
  <use id="arrowright" xlink:href="#arrowRight" x="0" y="0" onmousedown="handlePan(1,0)"/>
  <use id="arrowdown" xlink:href="#arrowDown" x="0" y="0" onmousedown="handlePan(0,1)"/>
  <use id="arrowleft" xlink:href="#arrowLeft" x="0" y="0" onmousedown="handlePan(-1,0)"/>
</g>
<svg viewBox="0 0 15 15" width="100%" height="30px" preserveAspectRatio="xMaxYMin meet">
 <g id="arrow_out" transform="scale(0.3 0.3)">
  <a xlink:href="dir_ddcea0517a7b80a55be019748a9389a4_dep_org.svg" target="_base">
   <rect id="button" ry="5" rx="5" y="6" x="6" height="38" width="38"
        fill="#f2f5e9" fill-opacity="0.5" stroke="#606060" stroke-width="1.0"/>
   <path id="arrow"
     d="M 11.500037,31.436501 C 11.940474,20.09759 22.043105,11.32322 32.158766,21.979434 L 37.068811,17.246167 C 37.068811,17.246167 37.088388,32 37.088388,32 L 22.160133,31.978069 C 22.160133,31.978069 26.997745,27.140456 26.997745,27.140456 C 18.528582,18.264221 13.291696,25.230495 11.500037,31.436501 z"
     style="fill:#404040;"/>
  </a>
 </g>
</svg>

<style type='text/css'>
<![CDATA[
[data-mouse-over-selected='false'] { opacity: 0.7; }
[data-mouse-over-selected='true']  { opacity: 1.0; }
]]>
</style>
<script type="application/ecmascript"><![CDATA[
document.addEventListener('DOMContentLoaded', (event) => {
  highlightEdges();
  highlightAdjacentNodes();
});
]]></script>
</svg>
