<?xml version="1.0" encoding="UTF-8" standalone="no"?>
<!DOCTYPE svg PUBLIC "-//W3C//DTD SVG 1.1//EN"
 "http://www.w3.org/Graphics/SVG/1.1/DTD/svg11.dtd">
<!-- Generated by graphviz version 2.43.0 (0)
 -->
<!-- Title: /home/runner/work/kynema&#45;sgf/kynema&#45;sgf/src/wind_energy/actuator/disk/disk_ops.H Pages: 1 -->
<svg width="662pt" height="225pt"
 viewBox="0.00 0.00 662.00 225.00" xmlns="http://www.w3.org/2000/svg" xmlns:xlink="http://www.w3.org/1999/xlink">
<g id="graph0" class="graph" transform="scale(1 1) rotate(0) translate(4 221)">
<title>/home/runner/work/kynema&#45;sgf/kynema&#45;sgf/src/wind_energy/actuator/disk/disk_ops.H</title>
<!-- Node1 -->
<g id="Node000001" class="node">
<title>Node1</title>
<g id="a_Node000001"><a xlink:title=" ">
<polygon fill="#999999" stroke="#666666" points="386.5,-217 207.5,-217 207.5,-176 386.5,-176 386.5,-217"/>
<text text-anchor="start" x="215.5" y="-205" font-family="Helvetica,sans-Serif" font-size="10.00">/home/runner/work/kynema</text>
<text text-anchor="start" x="215.5" y="-194" font-family="Helvetica,sans-Serif" font-size="10.00">&#45;sgf/kynema&#45;sgf/src/wind</text>
<text text-anchor="middle" x="297" y="-183" font-family="Helvetica,sans-Serif" font-size="10.00">_energy/actuator/disk/disk_ops.H</text>
</a>
</g>
</g>
<!-- Node2 -->
<g id="Node000002" class="node">
<title>Node2</title>
<g id="a_Node000002"><a xlink:href="_joukowsky__ops_8_h.html" target="_top" xlink:title=" ">
<polygon fill="white" stroke="#666666" points="302.5,-134.5 93.5,-134.5 93.5,-93.5 302.5,-93.5 302.5,-134.5"/>
<text text-anchor="start" x="101.5" y="-122.5" font-family="Helvetica,sans-Serif" font-size="10.00">/home/runner/work/kynema</text>
<text text-anchor="start" x="101.5" y="-111.5" font-family="Helvetica,sans-Serif" font-size="10.00">&#45;sgf/kynema&#45;sgf/src/wind</text>
<text text-anchor="middle" x="198" y="-100.5" font-family="Helvetica,sans-Serif" font-size="10.00">_energy/actuator/disk/Joukowsky_ops.H</text>
</a>
</g>
</g>
<!-- Node1&#45;&gt;Node2 -->
<g id="edge1_Node000001_Node000002" class="edge">
<title>Node1&#45;&gt;Node2</title>
<g id="a_edge1_Node000001_Node000002"><a xlink:title=" ">
<path fill="none" stroke="#63b8ff" d="M264.91,-169.41C251.07,-158.15 235.15,-145.21 222.31,-134.77"/>
<polygon fill="#63b8ff" stroke="#63b8ff" points="262.81,-172.21 272.78,-175.81 267.23,-166.78 262.81,-172.21"/>
</a>
</g>
</g>
<!-- Node4 -->
<g id="Node000004" class="node">
<title>Node4</title>
<g id="a_Node000004"><a xlink:href="_joukowsky__ops_8cpp.html" target="_top" xlink:title=" ">
<polygon fill="white" stroke="#666666" points="176,-52 0,-52 0,0 176,0 176,-52"/>
<text text-anchor="start" x="8" y="-40" font-family="Helvetica,sans-Serif" font-size="10.00">/home/runner/work/kynema</text>
<text text-anchor="start" x="8" y="-29" font-family="Helvetica,sans-Serif" font-size="10.00">&#45;sgf/kynema&#45;sgf/src/wind</text>
<text text-anchor="start" x="8" y="-18" font-family="Helvetica,sans-Serif" font-size="10.00">_energy/actuator/disk/Joukowsky</text>
<text text-anchor="middle" x="88" y="-7" font-family="Helvetica,sans-Serif" font-size="10.00">_ops.cpp</text>
</a>
</g>
</g>
<!-- Node1&#45;&gt;Node4 -->
<g id="edge4_Node000001_Node000004" class="edge">
<title>Node1&#45;&gt;Node4</title>
<g id="a_edge4_Node000001_Node000004"><a xlink:title=" ">
<path fill="none" stroke="#63b8ff" d="M197.56,-181.5C149.26,-172.45 98.54,-158.81 84,-140 64.79,-115.15 71.16,-77.22 78.63,-52.27"/>
<polygon fill="#63b8ff" stroke="#63b8ff" points="197.03,-184.96 207.5,-183.3 198.29,-178.07 197.03,-184.96"/>
</a>
</g>
</g>
<!-- Node5 -->
<g id="Node000005" class="node">
<title>Node5</title>
<g id="a_Node000005"><a xlink:href="disk__ops_8cpp.html" target="_top" xlink:title=" ">
<polygon fill="white" stroke="#666666" points="471.5,-140 320.5,-140 320.5,-88 471.5,-88 471.5,-140"/>
<text text-anchor="start" x="328.5" y="-128" font-family="Helvetica,sans-Serif" font-size="10.00">/home/runner/work/kynema</text>
<text text-anchor="start" x="328.5" y="-117" font-family="Helvetica,sans-Serif" font-size="10.00">&#45;sgf/kynema&#45;sgf/src/wind</text>
<text text-anchor="start" x="328.5" y="-106" font-family="Helvetica,sans-Serif" font-size="10.00">_energy/actuator/disk/disk</text>
<text text-anchor="middle" x="396" y="-95" font-family="Helvetica,sans-Serif" font-size="10.00">_ops.cpp</text>
</a>
</g>
</g>
<!-- Node1&#45;&gt;Node5 -->
<g id="edge5_Node000001_Node000005" class="edge">
<title>Node1&#45;&gt;Node5</title>
<g id="a_edge5_Node000001_Node000005"><a xlink:title=" ">
<path fill="none" stroke="#63b8ff" d="M329.26,-169.26C340.71,-159.96 353.57,-149.5 364.91,-140.28"/>
<polygon fill="#63b8ff" stroke="#63b8ff" points="326.77,-166.78 321.22,-175.81 331.19,-172.21 326.77,-166.78"/>
</a>
</g>
</g>
<!-- Node6 -->
<g id="Node000006" class="node">
<title>Node6</title>
<g id="a_Node000006"><a xlink:href="uniform__ct__ops_8_h.html" target="_top" xlink:title=" ">
<polygon fill="white" stroke="#666666" points="654,-140 490,-140 490,-88 654,-88 654,-140"/>
<text text-anchor="start" x="498" y="-128" font-family="Helvetica,sans-Serif" font-size="10.00">/home/runner/work/kynema</text>
<text text-anchor="start" x="498" y="-117" font-family="Helvetica,sans-Serif" font-size="10.00">&#45;sgf/kynema&#45;sgf/src/wind</text>
<text text-anchor="start" x="498" y="-106" font-family="Helvetica,sans-Serif" font-size="10.00">_energy/actuator/disk/uniform</text>
<text text-anchor="middle" x="572" y="-95" font-family="Helvetica,sans-Serif" font-size="10.00">_ct_ops.H</text>
</a>
</g>
</g>
<!-- Node1&#45;&gt;Node6 -->
<g id="edge6_Node000001_Node000006" class="edge">
<title>Node1&#45;&gt;Node6</title>
<g id="a_edge6_Node000001_Node000006"><a xlink:title=" ">
<path fill="none" stroke="#63b8ff" d="M373.9,-172.99C409.99,-162.43 453.04,-149.82 489.77,-139.07"/>
<polygon fill="#63b8ff" stroke="#63b8ff" points="372.53,-169.74 363.92,-175.91 374.5,-176.46 372.53,-169.74"/>
</a>
</g>
</g>
<!-- Node3 -->
<g id="Node000003" class="node">
<title>Node3</title>
<g id="a_Node000003"><a xlink:href="_actuator_disk_8cpp.html" target="_top" xlink:title=" ">
<polygon fill="white" stroke="#666666" points="448.5,-46.5 239.5,-46.5 239.5,-5.5 448.5,-5.5 448.5,-46.5"/>
<text text-anchor="start" x="247.5" y="-34.5" font-family="Helvetica,sans-Serif" font-size="10.00">/home/runner/work/kynema</text>
<text text-anchor="start" x="247.5" y="-23.5" font-family="Helvetica,sans-Serif" font-size="10.00">&#45;sgf/kynema&#45;sgf/src/wind</text>
<text text-anchor="middle" x="344" y="-12.5" font-family="Helvetica,sans-Serif" font-size="10.00">_energy/actuator/disk/ActuatorDisk.cpp</text>
</a>
</g>
</g>
<!-- Node2&#45;&gt;Node3 -->
<g id="edge2_Node000002_Node000003" class="edge">
<title>Node2&#45;&gt;Node3</title>
<g id="a_edge2_Node000002_Node000003"><a xlink:title=" ">
<path fill="none" stroke="#63b8ff" d="M239.81,-88.37C262.32,-75.11 289.71,-58.98 310.75,-46.59"/>
<polygon fill="#63b8ff" stroke="#63b8ff" points="237.97,-85.39 231.13,-93.49 241.52,-91.43 237.97,-85.39"/>
</a>
</g>
</g>
<!-- Node2&#45;&gt;Node4 -->
<g id="edge3_Node000002_Node000004" class="edge">
<title>Node2&#45;&gt;Node4</title>
<g id="a_edge3_Node000002_Node000004"><a xlink:title=" ">
<path fill="none" stroke="#63b8ff" d="M165.02,-87.22C150.9,-76.17 134.45,-63.31 120.38,-52.32"/>
<polygon fill="#63b8ff" stroke="#63b8ff" points="163.01,-90.08 173.04,-93.49 167.32,-84.57 163.01,-90.08"/>
</a>
</g>
</g>
<!-- Node6&#45;&gt;Node3 -->
<g id="edge7_Node000006_Node000003" class="edge">
<title>Node6&#45;&gt;Node3</title>
<g id="a_edge7_Node000006_Node000003"><a xlink:title=" ">
<path fill="none" stroke="#63b8ff" d="M495.85,-84.28C462.97,-71.88 425.35,-57.68 395.78,-46.53"/>
<polygon fill="#63b8ff" stroke="#63b8ff" points="494.85,-87.64 505.44,-87.89 497.32,-81.09 494.85,-87.64"/>
</a>
</g>
</g>
<!-- Node7 -->
<g id="Node000007" class="node">
<title>Node7</title>
<g id="a_Node000007"><a xlink:href="uniform__ct__ops_8cpp.html" target="_top" xlink:title=" ">
<polygon fill="white" stroke="#666666" points="654,-52 490,-52 490,0 654,0 654,-52"/>
<text text-anchor="start" x="498" y="-40" font-family="Helvetica,sans-Serif" font-size="10.00">/home/runner/work/kynema</text>
<text text-anchor="start" x="498" y="-29" font-family="Helvetica,sans-Serif" font-size="10.00">&#45;sgf/kynema&#45;sgf/src/wind</text>
<text text-anchor="start" x="498" y="-18" font-family="Helvetica,sans-Serif" font-size="10.00">_energy/actuator/disk/uniform</text>
<text text-anchor="middle" x="572" y="-7" font-family="Helvetica,sans-Serif" font-size="10.00">_ct_ops.cpp</text>
</a>
</g>
</g>
<!-- Node6&#45;&gt;Node7 -->
<g id="edge8_Node000006_Node000007" class="edge">
<title>Node6&#45;&gt;Node7</title>
<g id="a_edge8_Node000006_Node000007"><a xlink:title=" ">
<path fill="none" stroke="#63b8ff" d="M572,-77.56C572,-69.04 572,-60.1 572,-52.16"/>
<polygon fill="#63b8ff" stroke="#63b8ff" points="568.5,-77.66 572,-87.66 575.5,-77.66 568.5,-77.66"/>
</a>
</g>
</g>
</g>
</svg>
