<?xml version="1.0" encoding="UTF-8" standalone="no"?>
<!DOCTYPE svg PUBLIC "-//W3C//DTD SVG 1.1//EN"
 "http://www.w3.org/Graphics/SVG/1.1/DTD/svg11.dtd">
<!-- Generated by graphviz version 2.43.0 (0)
 -->
<!-- Title: /home/runner/work/kynema&#45;sgf/kynema&#45;sgf/src/wind_energy/actuator/disk/disk_types.H Pages: 1 -->
<svg width="1761pt" height="643pt"
 viewBox="0.00 0.00 1761.16 643.00" xmlns="http://www.w3.org/2000/svg" xmlns:xlink="http://www.w3.org/1999/xlink">
<g id="graph0" class="graph" transform="scale(1 1) rotate(0) translate(4 639)">
<title>/home/runner/work/kynema&#45;sgf/kynema&#45;sgf/src/wind_energy/actuator/disk/disk_types.H</title>
<!-- Node1 -->
<g id="Node000001" class="node">
<title>Node1</title>
<g id="a_Node000001"><a xlink:title=" ">
<polygon fill="#999999" stroke="#666666" points="1429,-635 1278,-635 1278,-583 1429,-583 1429,-635"/>
<text text-anchor="start" x="1286" y="-623" font-family="Helvetica,sans-Serif" font-size="10.00">/home/runner/work/kynema</text>
<text text-anchor="start" x="1286" y="-612" font-family="Helvetica,sans-Serif" font-size="10.00">&#45;sgf/kynema&#45;sgf/src/wind</text>
<text text-anchor="start" x="1286" y="-601" font-family="Helvetica,sans-Serif" font-size="10.00">_energy/actuator/disk/disk</text>
<text text-anchor="middle" x="1353.5" y="-590" font-family="Helvetica,sans-Serif" font-size="10.00">_types.H</text>
</a>
</g>
</g>
<!-- Node2 -->
<g id="Node000002" class="node">
<title>Node2</title>
<g id="a_Node000002"><a xlink:href="_act_src_disk_op_8_h.html" target="_top" xlink:title=" ">
<polygon fill="white" stroke="#666666" points="1001.5,-299.5 799.5,-299.5 799.5,-258.5 1001.5,-258.5 1001.5,-299.5"/>
<text text-anchor="start" x="807.5" y="-287.5" font-family="Helvetica,sans-Serif" font-size="10.00">/home/runner/work/kynema</text>
<text text-anchor="start" x="807.5" y="-276.5" font-family="Helvetica,sans-Serif" font-size="10.00">&#45;sgf/kynema&#45;sgf/src/wind</text>
<text text-anchor="middle" x="900.5" y="-265.5" font-family="Helvetica,sans-Serif" font-size="10.00">_energy/actuator/disk/ActSrcDiskOp.H</text>
</a>
</g>
</g>
<!-- Node1&#45;&gt;Node2 -->
<g id="edge1_Node000001_Node000002" class="edge">
<title>Node1&#45;&gt;Node2</title>
<g id="a_edge1_Node000001_Node000002"><a xlink:title=" ">
<path fill="none" stroke="#63b8ff" d="M1267.74,-592.14C1165.68,-568.3 999.07,-512.57 919.5,-393 900.65,-364.68 898.51,-323.78 899.16,-299.73"/>
<polygon fill="#63b8ff" stroke="#63b8ff" points="1267.19,-595.61 1277.72,-594.42 1268.75,-588.78 1267.19,-595.61"/>
</a>
</g>
</g>
<!-- Node13 -->
<g id="Node000013" class="node">
<title>Node13</title>
<g id="a_Node000013"><a xlink:href="_actuator_disk_8_h.html" target="_top" xlink:title=" ">
<polygon fill="white" stroke="#666666" points="1453,-547 1254,-547 1254,-506 1453,-506 1453,-547"/>
<text text-anchor="start" x="1262" y="-535" font-family="Helvetica,sans-Serif" font-size="10.00">/home/runner/work/kynema</text>
<text text-anchor="start" x="1262" y="-524" font-family="Helvetica,sans-Serif" font-size="10.00">&#45;sgf/kynema&#45;sgf/src/wind</text>
<text text-anchor="middle" x="1353.5" y="-513" font-family="Helvetica,sans-Serif" font-size="10.00">_energy/actuator/disk/ActuatorDisk.H</text>
</a>
</g>
</g>
<!-- Node1&#45;&gt;Node13 -->
<g id="edge12_Node000001_Node000013" class="edge">
<title>Node1&#45;&gt;Node13</title>
<g id="a_edge12_Node000001_Node000013"><a xlink:title=" ">
<path fill="none" stroke="#63b8ff" d="M1353.5,-572.87C1353.5,-564.05 1353.5,-554.9 1353.5,-547.15"/>
<polygon fill="#63b8ff" stroke="#63b8ff" points="1350,-572.97 1353.5,-582.97 1357,-572.97 1350,-572.97"/>
</a>
</g>
</g>
<!-- Node14 -->
<g id="Node000014" class="node">
<title>Node14</title>
<g id="a_Node000014"><a xlink:href="_joukowsky_8_h.html" target="_top" xlink:title=" ">
<polygon fill="white" stroke="#666666" points="1697,-470 1512,-470 1512,-429 1697,-429 1697,-470"/>
<text text-anchor="start" x="1520" y="-458" font-family="Helvetica,sans-Serif" font-size="10.00">/home/runner/work/kynema</text>
<text text-anchor="start" x="1520" y="-447" font-family="Helvetica,sans-Serif" font-size="10.00">&#45;sgf/kynema&#45;sgf/src/wind</text>
<text text-anchor="middle" x="1604.5" y="-436" font-family="Helvetica,sans-Serif" font-size="10.00">_energy/actuator/disk/Joukowsky.H</text>
</a>
</g>
</g>
<!-- Node1&#45;&gt;Node14 -->
<g id="edge31_Node000001_Node000014" class="edge">
<title>Node1&#45;&gt;Node14</title>
<g id="a_edge31_Node000001_Node000014"><a xlink:title=" ">
<path fill="none" stroke="#63b8ff" d="M1409.27,-578.01C1426.52,-568.41 1445.46,-557.53 1462.5,-547 1503.32,-521.77 1548.96,-490.11 1577.21,-470.08"/>
<polygon fill="#63b8ff" stroke="#63b8ff" points="1407.48,-575 1400.42,-582.9 1410.87,-581.12 1407.48,-575"/>
</a>
</g>
</g>
<!-- Node3 -->
<g id="Node000003" class="node">
<title>Node3</title>
<g id="a_Node000003"><a xlink:href="_actuator_model_8_h.html" target="_top" xlink:title=" ">
<polygon fill="white" stroke="#666666" points="934.5,-217 750.5,-217 750.5,-176 934.5,-176 934.5,-217"/>
<text text-anchor="start" x="758.5" y="-205" font-family="Helvetica,sans-Serif" font-size="10.00">/home/runner/work/kynema</text>
<text text-anchor="start" x="758.5" y="-194" font-family="Helvetica,sans-Serif" font-size="10.00">&#45;sgf/kynema&#45;sgf/src/wind</text>
<text text-anchor="middle" x="842.5" y="-183" font-family="Helvetica,sans-Serif" font-size="10.00">_energy/actuator/ActuatorModel.H</text>
</a>
</g>
</g>
<!-- Node2&#45;&gt;Node3 -->
<g id="edge2_Node000002_Node000003" class="edge">
<title>Node2&#45;&gt;Node3</title>
<g id="a_edge2_Node000002_Node000003"><a xlink:title=" ">
<path fill="none" stroke="#63b8ff" d="M880.18,-249.8C872.42,-239.02 863.74,-226.98 856.67,-217.17"/>
<polygon fill="#63b8ff" stroke="#63b8ff" points="877.48,-252.03 886.16,-258.1 883.16,-247.94 877.48,-252.03"/>
</a>
</g>
</g>
<!-- Node4 -->
<g id="Node000004" class="node">
<title>Node4</title>
<g id="a_Node000004"><a xlink:href="_actuator_8_h.html" target="_top" xlink:title=" ">
<polygon fill="white" stroke="#666666" points="335,-134.5 182,-134.5 182,-93.5 335,-93.5 335,-134.5"/>
<text text-anchor="start" x="190" y="-122.5" font-family="Helvetica,sans-Serif" font-size="10.00">/home/runner/work/kynema</text>
<text text-anchor="start" x="190" y="-111.5" font-family="Helvetica,sans-Serif" font-size="10.00">&#45;sgf/kynema&#45;sgf/src/wind</text>
<text text-anchor="middle" x="258.5" y="-100.5" font-family="Helvetica,sans-Serif" font-size="10.00">_energy/actuator/Actuator.H</text>
</a>
</g>
</g>
<!-- Node3&#45;&gt;Node4 -->
<g id="edge3_Node000003_Node000004" class="edge">
<title>Node3&#45;&gt;Node4</title>
<g id="a_edge3_Node000003_Node000004"><a xlink:title=" ">
<path fill="none" stroke="#63b8ff" d="M740,-189.37C638.55,-182.07 479.2,-167.28 343.5,-140 335.96,-138.48 328.12,-136.61 320.39,-134.57"/>
<polygon fill="#63b8ff" stroke="#63b8ff" points="740.02,-192.88 750.24,-190.1 740.52,-185.9 740.02,-192.88"/>
</a>
</g>
</g>
<!-- Node8 -->
<g id="Node000008" class="node">
<title>Node8</title>
<g id="a_Node000008"><a xlink:href="_actuator_disk_8cpp.html" target="_top" xlink:title=" ">
<polygon fill="white" stroke="#666666" points="1380,-134.5 1171,-134.5 1171,-93.5 1380,-93.5 1380,-134.5"/>
<text text-anchor="start" x="1179" y="-122.5" font-family="Helvetica,sans-Serif" font-size="10.00">/home/runner/work/kynema</text>
<text text-anchor="start" x="1179" y="-111.5" font-family="Helvetica,sans-Serif" font-size="10.00">&#45;sgf/kynema&#45;sgf/src/wind</text>
<text text-anchor="middle" x="1275.5" y="-100.5" font-family="Helvetica,sans-Serif" font-size="10.00">_energy/actuator/disk/ActuatorDisk.cpp</text>
</a>
</g>
</g>
<!-- Node3&#45;&gt;Node8 -->
<g id="edge7_Node000003_Node000008" class="edge">
<title>Node3&#45;&gt;Node8</title>
<g id="a_edge7_Node000003_Node000008"><a xlink:title=" ">
<path fill="none" stroke="#63b8ff" d="M944.72,-178.88C1007.41,-168.4 1089.25,-154.2 1161.5,-140 1170.25,-138.28 1179.36,-136.41 1188.44,-134.5"/>
<polygon fill="#63b8ff" stroke="#63b8ff" points="944.12,-175.43 934.83,-180.53 945.27,-182.34 944.12,-175.43"/>
</a>
</g>
</g>
<!-- Node9 -->
<g id="Node000009" class="node">
<title>Node9</title>
<g id="a_Node000009"><a xlink:href="_turbine_fast_8cpp.html" target="_top" xlink:title=" ">
<polygon fill="white" stroke="#666666" points="504,-140 353,-140 353,-88 504,-88 504,-140"/>
<text text-anchor="start" x="361" y="-128" font-family="Helvetica,sans-Serif" font-size="10.00">/home/runner/work/kynema</text>
<text text-anchor="start" x="361" y="-117" font-family="Helvetica,sans-Serif" font-size="10.00">&#45;sgf/kynema&#45;sgf/src/wind</text>
<text text-anchor="start" x="361" y="-106" font-family="Helvetica,sans-Serif" font-size="10.00">_energy/actuator/turbine</text>
<text text-anchor="middle" x="428.5" y="-95" font-family="Helvetica,sans-Serif" font-size="10.00">/fast/TurbineFast.cpp</text>
</a>
</g>
</g>
<!-- Node3&#45;&gt;Node9 -->
<g id="edge8_Node000003_Node000009" class="edge">
<title>Node3&#45;&gt;Node9</title>
<g id="a_edge8_Node000003_Node000009"><a xlink:title=" ">
<path fill="none" stroke="#63b8ff" d="M740.23,-181.61C674.73,-171.9 588.13,-157.54 512.5,-140 509.83,-139.38 507.12,-138.73 504.39,-138.04"/>
<polygon fill="#63b8ff" stroke="#63b8ff" points="739.75,-185.07 750.15,-183.07 740.77,-178.15 739.75,-185.07"/>
</a>
</g>
</g>
<!-- Node10 -->
<g id="Node000010" class="node">
<title>Node10</title>
<g id="a_Node000010"><a xlink:href="_turbine_kynema_f_m_b_8cpp.html" target="_top" xlink:title=" ">
<polygon fill="white" stroke="#666666" points="725,-140 522,-140 522,-88 725,-88 725,-140"/>
<text text-anchor="start" x="530" y="-128" font-family="Helvetica,sans-Serif" font-size="10.00">/home/runner/work/kynema</text>
<text text-anchor="start" x="530" y="-117" font-family="Helvetica,sans-Serif" font-size="10.00">&#45;sgf/kynema&#45;sgf/src/wind</text>
<text text-anchor="start" x="530" y="-106" font-family="Helvetica,sans-Serif" font-size="10.00">_energy/actuator/turbine</text>
<text text-anchor="middle" x="623.5" y="-95" font-family="Helvetica,sans-Serif" font-size="10.00">/kynema_fmb/TurbineKynemaFMB.cpp</text>
</a>
</g>
</g>
<!-- Node3&#45;&gt;Node10 -->
<g id="edge9_Node000003_Node000010" class="edge">
<title>Node3&#45;&gt;Node10</title>
<g id="a_edge9_Node000003_Node000010"><a xlink:title=" ">
<path fill="none" stroke="#63b8ff" d="M779.68,-172.41C752.13,-162.28 719.74,-150.38 691.62,-140.04"/>
<polygon fill="#63b8ff" stroke="#63b8ff" points="778.61,-175.75 789.21,-175.91 781.03,-169.18 778.61,-175.75"/>
</a>
</g>
</g>
<!-- Node11 -->
<g id="Node000011" class="node">
<title>Node11</title>
<g id="a_Node000011"><a xlink:href="_fixed_wing_8cpp.html" target="_top" xlink:title=" ">
<polygon fill="white" stroke="#666666" points="942,-134.5 743,-134.5 743,-93.5 942,-93.5 942,-134.5"/>
<text text-anchor="start" x="751" y="-122.5" font-family="Helvetica,sans-Serif" font-size="10.00">/home/runner/work/kynema</text>
<text text-anchor="start" x="751" y="-111.5" font-family="Helvetica,sans-Serif" font-size="10.00">&#45;sgf/kynema&#45;sgf/src/wind</text>
<text text-anchor="middle" x="842.5" y="-100.5" font-family="Helvetica,sans-Serif" font-size="10.00">_energy/actuator/wing/FixedWing.cpp</text>
</a>
</g>
</g>
<!-- Node3&#45;&gt;Node11 -->
<g id="edge10_Node000003_Node000011" class="edge">
<title>Node3&#45;&gt;Node11</title>
<g id="a_edge10_Node000003_Node000011"><a xlink:title=" ">
<path fill="none" stroke="#63b8ff" d="M842.5,-165.37C842.5,-155.1 842.5,-143.9 842.5,-134.67"/>
<polygon fill="#63b8ff" stroke="#63b8ff" points="839,-165.6 842.5,-175.6 846,-165.6 839,-165.6"/>
</a>
</g>
</g>
<!-- Node12 -->
<g id="Node000012" class="node">
<title>Node12</title>
<g id="a_Node000012"><a xlink:href="_flat_plate_8cpp.html" target="_top" xlink:title=" ">
<polygon fill="white" stroke="#666666" points="1152.5,-134.5 960.5,-134.5 960.5,-93.5 1152.5,-93.5 1152.5,-134.5"/>
<text text-anchor="start" x="968.5" y="-122.5" font-family="Helvetica,sans-Serif" font-size="10.00">/home/runner/work/kynema</text>
<text text-anchor="start" x="968.5" y="-111.5" font-family="Helvetica,sans-Serif" font-size="10.00">&#45;sgf/kynema&#45;sgf/src/wind</text>
<text text-anchor="middle" x="1056.5" y="-100.5" font-family="Helvetica,sans-Serif" font-size="10.00">_energy/actuator/wing/FlatPlate.cpp</text>
</a>
</g>
</g>
<!-- Node3&#45;&gt;Node12 -->
<g id="edge11_Node000003_Node000012" class="edge">
<title>Node3&#45;&gt;Node12</title>
<g id="a_edge11_Node000003_Node000012"><a xlink:title=" ">
<path fill="none" stroke="#63b8ff" d="M904.21,-172.29C936,-160.33 974.31,-145.92 1004.56,-134.54"/>
<polygon fill="#63b8ff" stroke="#63b8ff" points="902.7,-169.11 894.58,-175.91 905.17,-175.67 902.7,-169.11"/>
</a>
</g>
</g>
<!-- Node5 -->
<g id="Node000005" class="node">
<title>Node5</title>
<g id="a_Node000005"><a xlink:href="_actuator_forcing_8cpp.html" target="_top" xlink:title=" ">
<polygon fill="white" stroke="#666666" points="159,-52 0,-52 0,0 159,0 159,-52"/>
<text text-anchor="start" x="8" y="-40" font-family="Helvetica,sans-Serif" font-size="10.00">/home/runner/work/kynema</text>
<text text-anchor="start" x="8" y="-29" font-family="Helvetica,sans-Serif" font-size="10.00">&#45;sgf/kynema&#45;sgf/src/equation</text>
<text text-anchor="start" x="8" y="-18" font-family="Helvetica,sans-Serif" font-size="10.00">_systems/icns/source_terms</text>
<text text-anchor="middle" x="79.5" y="-7" font-family="Helvetica,sans-Serif" font-size="10.00">/ActuatorForcing.cpp</text>
</a>
</g>
</g>
<!-- Node4&#45;&gt;Node5 -->
<g id="edge4_Node000004_Node000005" class="edge">
<title>Node4&#45;&gt;Node5</title>
<g id="a_edge4_Node000004_Node000005"><a xlink:title=" ">
<path fill="none" stroke="#63b8ff" d="M208.63,-89.04C184.72,-77.55 156.09,-63.8 131.86,-52.16"/>
<polygon fill="#63b8ff" stroke="#63b8ff" points="207.35,-92.31 217.88,-93.49 210.38,-86 207.35,-92.31"/>
</a>
</g>
</g>
<!-- Node6 -->
<g id="Node000006" class="node">
<title>Node6</title>
<g id="a_Node000006"><a xlink:href="_actuator_8cpp.html" target="_top" xlink:title=" ">
<polygon fill="white" stroke="#666666" points="340,-46.5 177,-46.5 177,-5.5 340,-5.5 340,-46.5"/>
<text text-anchor="start" x="185" y="-34.5" font-family="Helvetica,sans-Serif" font-size="10.00">/home/runner/work/kynema</text>
<text text-anchor="start" x="185" y="-23.5" font-family="Helvetica,sans-Serif" font-size="10.00">&#45;sgf/kynema&#45;sgf/src/wind</text>
<text text-anchor="middle" x="258.5" y="-12.5" font-family="Helvetica,sans-Serif" font-size="10.00">_energy/actuator/Actuator.cpp</text>
</a>
</g>
</g>
<!-- Node4&#45;&gt;Node6 -->
<g id="edge5_Node000004_Node000006" class="edge">
<title>Node4&#45;&gt;Node6</title>
<g id="a_edge5_Node000004_Node000006"><a xlink:title=" ">
<path fill="none" stroke="#63b8ff" d="M258.5,-83.36C258.5,-71.26 258.5,-57.58 258.5,-46.74"/>
<polygon fill="#63b8ff" stroke="#63b8ff" points="255,-83.49 258.5,-93.49 262,-83.49 255,-83.49"/>
</a>
</g>
</g>
<!-- Node7 -->
<g id="Node000007" class="node">
<title>Node7</title>
<g id="a_Node000007"><a xlink:href="_actuator_container_8cpp.html" target="_top" xlink:title=" ">
<polygon fill="white" stroke="#666666" points="568.5,-46.5 358.5,-46.5 358.5,-5.5 568.5,-5.5 568.5,-46.5"/>
<text text-anchor="start" x="366.5" y="-34.5" font-family="Helvetica,sans-Serif" font-size="10.00">/home/runner/work/kynema</text>
<text text-anchor="start" x="366.5" y="-23.5" font-family="Helvetica,sans-Serif" font-size="10.00">&#45;sgf/kynema&#45;sgf/src/wind</text>
<text text-anchor="middle" x="463.5" y="-12.5" font-family="Helvetica,sans-Serif" font-size="10.00">_energy/actuator/ActuatorContainer.cpp</text>
</a>
</g>
</g>
<!-- Node4&#45;&gt;Node7 -->
<g id="edge6_Node000004_Node000007" class="edge">
<title>Node4&#45;&gt;Node7</title>
<g id="a_edge6_Node000004_Node000007"><a xlink:title=" ">
<path fill="none" stroke="#63b8ff" d="M314.29,-89.6C346.42,-76.12 386.35,-59.37 416.81,-46.59"/>
<polygon fill="#63b8ff" stroke="#63b8ff" points="312.89,-86.39 305.02,-93.49 315.59,-92.84 312.89,-86.39"/>
</a>
</g>
</g>
<!-- Node13&#45;&gt;Node14 -->
<g id="edge13_Node000013_Node000014" class="edge">
<title>Node13&#45;&gt;Node14</title>
<g id="a_edge13_Node000013_Node000014"><a xlink:title=" ">
<path fill="none" stroke="#63b8ff" d="M1428.53,-503.08C1463.71,-492.57 1505.23,-480.16 1539.1,-470.04"/>
<polygon fill="#63b8ff" stroke="#63b8ff" points="1427.37,-499.77 1418.79,-505.99 1429.38,-506.48 1427.37,-499.77"/>
</a>
</g>
</g>
<!-- Node17 -->
<g id="Node000017" class="node">
<title>Node17</title>
<g id="a_Node000017"><a xlink:href="_uniform_ct_8_h.html" target="_top" xlink:title=" ">
<polygon fill="white" stroke="#666666" points="1236.5,-470 1050.5,-470 1050.5,-429 1236.5,-429 1236.5,-470"/>
<text text-anchor="start" x="1058.5" y="-458" font-family="Helvetica,sans-Serif" font-size="10.00">/home/runner/work/kynema</text>
<text text-anchor="start" x="1058.5" y="-447" font-family="Helvetica,sans-Serif" font-size="10.00">&#45;sgf/kynema&#45;sgf/src/wind</text>
<text text-anchor="middle" x="1143.5" y="-436" font-family="Helvetica,sans-Serif" font-size="10.00">_energy/actuator/disk/UniformCt.H</text>
</a>
</g>
</g>
<!-- Node13&#45;&gt;Node17 -->
<g id="edge18_Node000013_Node000017" class="edge">
<title>Node13&#45;&gt;Node17</title>
<g id="a_edge18_Node000013_Node000017"><a xlink:title=" ">
<path fill="none" stroke="#63b8ff" d="M1289.21,-502.54C1260.11,-492.15 1226.07,-479.99 1198.22,-470.04"/>
<polygon fill="#63b8ff" stroke="#63b8ff" points="1288.28,-505.92 1298.87,-505.99 1290.63,-499.33 1288.28,-505.92"/>
</a>
</g>
</g>
<!-- Node21 -->
<g id="Node000021" class="node">
<title>Node21</title>
<g id="a_Node000021"><a xlink:href="disk__ops_8_h.html" target="_top" xlink:title=" ">
<polygon fill="white" stroke="#666666" points="1443,-470 1264,-470 1264,-429 1443,-429 1443,-470"/>
<text text-anchor="start" x="1272" y="-458" font-family="Helvetica,sans-Serif" font-size="10.00">/home/runner/work/kynema</text>
<text text-anchor="start" x="1272" y="-447" font-family="Helvetica,sans-Serif" font-size="10.00">&#45;sgf/kynema&#45;sgf/src/wind</text>
<text text-anchor="middle" x="1353.5" y="-436" font-family="Helvetica,sans-Serif" font-size="10.00">_energy/actuator/disk/disk_ops.H</text>
</a>
</g>
</g>
<!-- Node13&#45;&gt;Node21 -->
<g id="edge26_Node000013_Node000021" class="edge">
<title>Node13&#45;&gt;Node21</title>
<g id="a_edge26_Node000013_Node000021"><a xlink:title=" ">
<path fill="none" stroke="#63b8ff" d="M1353.5,-495.69C1353.5,-487.08 1353.5,-477.9 1353.5,-470.07"/>
<polygon fill="#63b8ff" stroke="#63b8ff" points="1350,-495.79 1353.5,-505.79 1357,-495.79 1350,-495.79"/>
</a>
</g>
</g>
<!-- Node14&#45;&gt;Node8 -->
<g id="edge14_Node000014_Node000008" class="edge">
<title>Node14&#45;&gt;Node8</title>
<g id="a_edge14_Node000014_Node000008"><a xlink:title=" ">
<path fill="none" stroke="#63b8ff" d="M1706.21,-425.32C1721.32,-417.49 1734.98,-407.01 1744.5,-393 1757.49,-373.88 1754.03,-362.05 1744.5,-341 1698.64,-239.73 1655.77,-226.06 1556.5,-176 1501.78,-148.41 1434.94,-133.25 1380.17,-124.95"/>
<polygon fill="#63b8ff" stroke="#63b8ff" points="1704.69,-422.16 1697.17,-429.63 1707.7,-428.48 1704.69,-422.16"/>
</a>
</g>
</g>
<!-- Node15 -->
<g id="Node000015" class="node">
<title>Node15</title>
<g id="a_Node000015"><a xlink:href="_joukowsky__ops_8_h.html" target="_top" xlink:title=" ">
<polygon fill="white" stroke="#666666" points="1735,-387.5 1526,-387.5 1526,-346.5 1735,-346.5 1735,-387.5"/>
<text text-anchor="start" x="1534" y="-375.5" font-family="Helvetica,sans-Serif" font-size="10.00">/home/runner/work/kynema</text>
<text text-anchor="start" x="1534" y="-364.5" font-family="Helvetica,sans-Serif" font-size="10.00">&#45;sgf/kynema&#45;sgf/src/wind</text>
<text text-anchor="middle" x="1630.5" y="-353.5" font-family="Helvetica,sans-Serif" font-size="10.00">_energy/actuator/disk/Joukowsky_ops.H</text>
</a>
</g>
</g>
<!-- Node14&#45;&gt;Node15 -->
<g id="edge15_Node000014_Node000015" class="edge">
<title>Node14&#45;&gt;Node15</title>
<g id="a_edge15_Node000014_Node000015"><a xlink:title=" ">
<path fill="none" stroke="#63b8ff" d="M1614.02,-419.01C1617.4,-408.57 1621.1,-397.09 1624.15,-387.67"/>
<polygon fill="#63b8ff" stroke="#63b8ff" points="1610.67,-418.01 1610.93,-428.6 1617.33,-420.16 1610.67,-418.01"/>
</a>
</g>
</g>
<!-- Node15&#45;&gt;Node8 -->
<g id="edge16_Node000015_Node000008" class="edge">
<title>Node15&#45;&gt;Node8</title>
<g id="a_edge16_Node000015_Node000008"><a xlink:title=" ">
<path fill="none" stroke="#63b8ff" d="M1633,-335.83C1633.44,-311.03 1630.1,-276.29 1611.5,-253 1554.93,-182.16 1455.95,-147.37 1380.02,-130.47"/>
<polygon fill="#63b8ff" stroke="#63b8ff" points="1629.49,-335.99 1632.6,-346.12 1636.49,-336.27 1629.49,-335.99"/>
</a>
</g>
</g>
<!-- Node16 -->
<g id="Node000016" class="node">
<title>Node16</title>
<g id="a_Node000016"><a xlink:href="_joukowsky__ops_8cpp.html" target="_top" xlink:title=" ">
<polygon fill="white" stroke="#666666" points="1602.5,-305 1426.5,-305 1426.5,-253 1602.5,-253 1602.5,-305"/>
<text text-anchor="start" x="1434.5" y="-293" font-family="Helvetica,sans-Serif" font-size="10.00">/home/runner/work/kynema</text>
<text text-anchor="start" x="1434.5" y="-282" font-family="Helvetica,sans-Serif" font-size="10.00">&#45;sgf/kynema&#45;sgf/src/wind</text>
<text text-anchor="start" x="1434.5" y="-271" font-family="Helvetica,sans-Serif" font-size="10.00">_energy/actuator/disk/Joukowsky</text>
<text text-anchor="middle" x="1514.5" y="-260" font-family="Helvetica,sans-Serif" font-size="10.00">_ops.cpp</text>
</a>
</g>
</g>
<!-- Node15&#45;&gt;Node16 -->
<g id="edge17_Node000015_Node000016" class="edge">
<title>Node15&#45;&gt;Node16</title>
<g id="a_edge17_Node000015_Node000016"><a xlink:title=" ">
<path fill="none" stroke="#63b8ff" d="M1596.14,-340.53C1581.15,-329.41 1563.62,-316.41 1548.65,-305.32"/>
<polygon fill="#63b8ff" stroke="#63b8ff" points="1594.06,-343.34 1604.18,-346.49 1598.23,-337.72 1594.06,-343.34"/>
</a>
</g>
</g>
<!-- Node17&#45;&gt;Node8 -->
<g id="edge19_Node000017_Node000008" class="edge">
<title>Node17&#45;&gt;Node8</title>
<g id="a_edge19_Node000017_Node000008"><a xlink:title=" ">
<path fill="none" stroke="#63b8ff" d="M1132.31,-419.01C1125.64,-397.13 1119.82,-366.76 1127.5,-341 1153.11,-255.16 1222.89,-171.6 1256.67,-134.71"/>
<polygon fill="#63b8ff" stroke="#63b8ff" points="1129.05,-420.31 1135.5,-428.72 1135.7,-418.12 1129.05,-420.31"/>
</a>
</g>
</g>
<!-- Node18 -->
<g id="Node000018" class="node">
<title>Node18</title>
<g id="a_Node000018"><a xlink:href="disk__spreading_8_h.html" target="_top" xlink:title=" ">
<polygon fill="white" stroke="#666666" points="1080,-393 929,-393 929,-341 1080,-341 1080,-393"/>
<text text-anchor="start" x="937" y="-381" font-family="Helvetica,sans-Serif" font-size="10.00">/home/runner/work/kynema</text>
<text text-anchor="start" x="937" y="-370" font-family="Helvetica,sans-Serif" font-size="10.00">&#45;sgf/kynema&#45;sgf/src/wind</text>
<text text-anchor="start" x="937" y="-359" font-family="Helvetica,sans-Serif" font-size="10.00">_energy/actuator/disk/disk</text>
<text text-anchor="middle" x="1004.5" y="-348" font-family="Helvetica,sans-Serif" font-size="10.00">_spreading.H</text>
</a>
</g>
</g>
<!-- Node17&#45;&gt;Node18 -->
<g id="edge20_Node000017_Node000018" class="edge">
<title>Node17&#45;&gt;Node18</title>
<g id="a_edge20_Node000017_Node000018"><a xlink:title=" ">
<path fill="none" stroke="#63b8ff" d="M1100.49,-423.59C1083.77,-413.91 1064.64,-402.83 1047.89,-393.13"/>
<polygon fill="#63b8ff" stroke="#63b8ff" points="1099.09,-426.82 1109.5,-428.81 1102.6,-420.77 1099.09,-426.82"/>
</a>
</g>
</g>
<!-- Node19 -->
<g id="Node000019" class="node">
<title>Node19</title>
<g id="a_Node000019"><a xlink:href="uniform__ct__ops_8_h.html" target="_top" xlink:title=" ">
<polygon fill="white" stroke="#666666" points="1300.5,-393 1136.5,-393 1136.5,-341 1300.5,-341 1300.5,-393"/>
<text text-anchor="start" x="1144.5" y="-381" font-family="Helvetica,sans-Serif" font-size="10.00">/home/runner/work/kynema</text>
<text text-anchor="start" x="1144.5" y="-370" font-family="Helvetica,sans-Serif" font-size="10.00">&#45;sgf/kynema&#45;sgf/src/wind</text>
<text text-anchor="start" x="1144.5" y="-359" font-family="Helvetica,sans-Serif" font-size="10.00">_energy/actuator/disk/uniform</text>
<text text-anchor="middle" x="1218.5" y="-348" font-family="Helvetica,sans-Serif" font-size="10.00">_ct_ops.H</text>
</a>
</g>
</g>
<!-- Node17&#45;&gt;Node19 -->
<g id="edge23_Node000017_Node000019" class="edge">
<title>Node17&#45;&gt;Node19</title>
<g id="a_edge23_Node000017_Node000019"><a xlink:title=" ">
<path fill="none" stroke="#63b8ff" d="M1168.89,-421.25C1177.36,-412.16 1186.75,-402.08 1195.06,-393.16"/>
<polygon fill="#63b8ff" stroke="#63b8ff" points="1166.3,-418.9 1162.04,-428.6 1171.42,-423.67 1166.3,-418.9"/>
</a>
</g>
</g>
<!-- Node18&#45;&gt;Node2 -->
<g id="edge21_Node000018_Node000002" class="edge">
<title>Node18&#45;&gt;Node2</title>
<g id="a_edge21_Node000018_Node000002"><a xlink:title=" ">
<path fill="none" stroke="#63b8ff" d="M966.06,-334.21C951.99,-322.58 936.51,-309.77 924.12,-299.53"/>
<polygon fill="#63b8ff" stroke="#63b8ff" points="964.2,-337.22 974.14,-340.89 968.66,-331.82 964.2,-337.22"/>
</a>
</g>
</g>
<!-- Node18&#45;&gt;Node8 -->
<g id="edge22_Node000018_Node000008" class="edge">
<title>Node18&#45;&gt;Node8</title>
<g id="a_edge22_Node000018_Node000008"><a xlink:title=" ">
<path fill="none" stroke="#63b8ff" d="M1012.18,-331.06C1023.26,-288.62 1047.75,-217.56 1094.5,-176 1110.55,-161.73 1156.68,-146.29 1198.35,-134.51"/>
<polygon fill="#63b8ff" stroke="#63b8ff" points="1008.74,-330.39 1009.7,-340.94 1015.53,-332.09 1008.74,-330.39"/>
</a>
</g>
</g>
<!-- Node19&#45;&gt;Node8 -->
<g id="edge24_Node000019_Node000008" class="edge">
<title>Node19&#45;&gt;Node8</title>
<g id="a_edge24_Node000019_Node000008"><a xlink:title=" ">
<path fill="none" stroke="#63b8ff" d="M1222.59,-330.63C1225.49,-308.24 1229.85,-278.76 1235.5,-253 1244.84,-210.36 1260.11,-161.53 1268.83,-134.9"/>
<polygon fill="#63b8ff" stroke="#63b8ff" points="1219.1,-330.33 1221.33,-340.69 1226.05,-331.21 1219.1,-330.33"/>
</a>
</g>
</g>
<!-- Node20 -->
<g id="Node000020" class="node">
<title>Node20</title>
<g id="a_Node000020"><a xlink:href="uniform__ct__ops_8cpp.html" target="_top" xlink:title=" ">
<polygon fill="white" stroke="#666666" points="1408.5,-305 1244.5,-305 1244.5,-253 1408.5,-253 1408.5,-305"/>
<text text-anchor="start" x="1252.5" y="-293" font-family="Helvetica,sans-Serif" font-size="10.00">/home/runner/work/kynema</text>
<text text-anchor="start" x="1252.5" y="-282" font-family="Helvetica,sans-Serif" font-size="10.00">&#45;sgf/kynema&#45;sgf/src/wind</text>
<text text-anchor="start" x="1252.5" y="-271" font-family="Helvetica,sans-Serif" font-size="10.00">_energy/actuator/disk/uniform</text>
<text text-anchor="middle" x="1326.5" y="-260" font-family="Helvetica,sans-Serif" font-size="10.00">_ct_ops.cpp</text>
</a>
</g>
</g>
<!-- Node19&#45;&gt;Node20 -->
<g id="edge25_Node000019_Node000020" class="edge">
<title>Node19&#45;&gt;Node20</title>
<g id="a_edge25_Node000019_Node000020"><a xlink:title=" ">
<path fill="none" stroke="#63b8ff" d="M1258.17,-334.41C1270.22,-324.82 1283.29,-314.41 1294.75,-305.29"/>
<polygon fill="#63b8ff" stroke="#63b8ff" points="1255.67,-331.93 1250.03,-340.89 1260.03,-337.4 1255.67,-331.93"/>
</a>
</g>
</g>
<!-- Node21&#45;&gt;Node15 -->
<g id="edge27_Node000021_Node000015" class="edge">
<title>Node21&#45;&gt;Node15</title>
<g id="a_edge27_Node000021_Node000015"><a xlink:title=" ">
<path fill="none" stroke="#63b8ff" d="M1430.73,-426.05C1472.38,-413.95 1523.27,-399.16 1563.27,-387.54"/>
<polygon fill="#63b8ff" stroke="#63b8ff" points="1429.53,-422.76 1420.91,-428.91 1431.49,-429.48 1429.53,-422.76"/>
</a>
</g>
</g>
<!-- Node21&#45;&gt;Node16 -->
<g id="edge28_Node000021_Node000016" class="edge">
<title>Node21&#45;&gt;Node16</title>
<g id="a_edge28_Node000021_Node000016"><a xlink:title=" ">
<path fill="none" stroke="#63b8ff" d="M1342.63,-418.98C1336.08,-395.71 1331.73,-363.55 1347.5,-341 1357.54,-326.65 1391.5,-313.03 1426.2,-302.32"/>
<polygon fill="#63b8ff" stroke="#63b8ff" points="1339.32,-420.14 1345.62,-428.66 1346.01,-418.07 1339.32,-420.14"/>
</a>
</g>
</g>
<!-- Node21&#45;&gt;Node19 -->
<g id="edge30_Node000021_Node000019" class="edge">
<title>Node21&#45;&gt;Node19</title>
<g id="a_edge30_Node000021_Node000019"><a xlink:title=" ">
<path fill="none" stroke="#63b8ff" d="M1311.72,-423.59C1295.49,-413.91 1276.91,-402.83 1260.64,-393.13"/>
<polygon fill="#63b8ff" stroke="#63b8ff" points="1310.09,-426.69 1320.48,-428.81 1313.68,-420.68 1310.09,-426.69"/>
</a>
</g>
</g>
<!-- Node22 -->
<g id="Node000022" class="node">
<title>Node22</title>
<g id="a_Node000022"><a xlink:href="disk__ops_8cpp.html" target="_top" xlink:title=" ">
<polygon fill="white" stroke="#666666" points="1508,-393 1357,-393 1357,-341 1508,-341 1508,-393"/>
<text text-anchor="start" x="1365" y="-381" font-family="Helvetica,sans-Serif" font-size="10.00">/home/runner/work/kynema</text>
<text text-anchor="start" x="1365" y="-370" font-family="Helvetica,sans-Serif" font-size="10.00">&#45;sgf/kynema&#45;sgf/src/wind</text>
<text text-anchor="start" x="1365" y="-359" font-family="Helvetica,sans-Serif" font-size="10.00">_energy/actuator/disk/disk</text>
<text text-anchor="middle" x="1432.5" y="-348" font-family="Helvetica,sans-Serif" font-size="10.00">_ops.cpp</text>
</a>
</g>
</g>
<!-- Node21&#45;&gt;Node22 -->
<g id="edge29_Node000021_Node000022" class="edge">
<title>Node21&#45;&gt;Node22</title>
<g id="a_edge29_Node000021_Node000022"><a xlink:title=" ">
<path fill="none" stroke="#63b8ff" d="M1380.25,-421.25C1389.17,-412.16 1399.06,-402.08 1407.81,-393.16"/>
<polygon fill="#63b8ff" stroke="#63b8ff" points="1377.53,-419.01 1373.03,-428.6 1382.53,-423.92 1377.53,-419.01"/>
</a>
</g>
</g>
</g>
</svg>
