<?xml version="1.0" encoding="UTF-8" standalone="no"?>
<!DOCTYPE svg PUBLIC "-//W3C//DTD SVG 1.1//EN"
 "http://www.w3.org/Graphics/SVG/1.1/DTD/svg11.dtd">
<!-- Generated by graphviz version 2.43.0 (0)
 -->
<!-- Title: /home/runner/work/kynema&#45;sgf/kynema&#45;sgf/src/wind_energy/actuator/disk/disk_types.H Pages: 1 -->
<svg width="1715pt" height="643pt"
 viewBox="0.00 0.00 1715.16 643.00" xmlns="http://www.w3.org/2000/svg" xmlns:xlink="http://www.w3.org/1999/xlink">
<g id="graph0" class="graph" transform="scale(1 1) rotate(0) translate(4 639)">
<title>/home/runner/work/kynema&#45;sgf/kynema&#45;sgf/src/wind_energy/actuator/disk/disk_types.H</title>
<!-- Node1 -->
<g id="Node000001" class="node">
<title>Node1</title>
<g id="a_Node000001"><a xlink:title=" ">
<polygon fill="#999999" stroke="#666666" points="1383,-635 1232,-635 1232,-583 1383,-583 1383,-635"/>
<text text-anchor="start" x="1240" y="-623" font-family="Helvetica,sans-Serif" font-size="10.00">/home/runner/work/kynema</text>
<text text-anchor="start" x="1240" y="-612" font-family="Helvetica,sans-Serif" font-size="10.00">&#45;sgf/kynema&#45;sgf/src/wind</text>
<text text-anchor="start" x="1240" y="-601" font-family="Helvetica,sans-Serif" font-size="10.00">_energy/actuator/disk/disk</text>
<text text-anchor="middle" x="1307.5" y="-590" font-family="Helvetica,sans-Serif" font-size="10.00">_types.H</text>
</a>
</g>
</g>
<!-- Node2 -->
<g id="Node000002" class="node">
<title>Node2</title>
<g id="a_Node000002"><a xlink:href="_act_src_disk_op_8_h.html" target="_top" xlink:title=" ">
<polygon fill="white" stroke="#666666" points="955.5,-299.5 753.5,-299.5 753.5,-258.5 955.5,-258.5 955.5,-299.5"/>
<text text-anchor="start" x="761.5" y="-287.5" font-family="Helvetica,sans-Serif" font-size="10.00">/home/runner/work/kynema</text>
<text text-anchor="start" x="761.5" y="-276.5" font-family="Helvetica,sans-Serif" font-size="10.00">&#45;sgf/kynema&#45;sgf/src/wind</text>
<text text-anchor="middle" x="854.5" y="-265.5" font-family="Helvetica,sans-Serif" font-size="10.00">_energy/actuator/disk/ActSrcDiskOp.H</text>
</a>
</g>
</g>
<!-- Node1&#45;&gt;Node2 -->
<g id="edge1_Node000001_Node000002" class="edge">
<title>Node1&#45;&gt;Node2</title>
<g id="a_edge1_Node000001_Node000002"><a xlink:title=" ">
<path fill="none" stroke="#63b8ff" d="M1221.74,-592.14C1119.68,-568.3 953.07,-512.57 873.5,-393 854.65,-364.68 852.51,-323.78 853.16,-299.73"/>
<polygon fill="#63b8ff" stroke="#63b8ff" points="1221.19,-595.61 1231.72,-594.42 1222.75,-588.78 1221.19,-595.61"/>
</a>
</g>
</g>
<!-- Node13 -->
<g id="Node000013" class="node">
<title>Node13</title>
<g id="a_Node000013"><a xlink:href="_actuator_disk_8_h.html" target="_top" xlink:title=" ">
<polygon fill="white" stroke="#666666" points="1407,-547 1208,-547 1208,-506 1407,-506 1407,-547"/>
<text text-anchor="start" x="1216" y="-535" font-family="Helvetica,sans-Serif" font-size="10.00">/home/runner/work/kynema</text>
<text text-anchor="start" x="1216" y="-524" font-family="Helvetica,sans-Serif" font-size="10.00">&#45;sgf/kynema&#45;sgf/src/wind</text>
<text text-anchor="middle" x="1307.5" y="-513" font-family="Helvetica,sans-Serif" font-size="10.00">_energy/actuator/disk/ActuatorDisk.H</text>
</a>
</g>
</g>
<!-- Node1&#45;&gt;Node13 -->
<g id="edge12_Node000001_Node000013" class="edge">
<title>Node1&#45;&gt;Node13</title>
<g id="a_edge12_Node000001_Node000013"><a xlink:title=" ">
<path fill="none" stroke="#63b8ff" d="M1307.5,-572.87C1307.5,-564.05 1307.5,-554.9 1307.5,-547.15"/>
<polygon fill="#63b8ff" stroke="#63b8ff" points="1304,-572.97 1307.5,-582.97 1311,-572.97 1304,-572.97"/>
</a>
</g>
</g>
<!-- Node14 -->
<g id="Node000014" class="node">
<title>Node14</title>
<g id="a_Node000014"><a xlink:href="_joukowsky_8_h.html" target="_top" xlink:title=" ">
<polygon fill="white" stroke="#666666" points="1651,-470 1466,-470 1466,-429 1651,-429 1651,-470"/>
<text text-anchor="start" x="1474" y="-458" font-family="Helvetica,sans-Serif" font-size="10.00">/home/runner/work/kynema</text>
<text text-anchor="start" x="1474" y="-447" font-family="Helvetica,sans-Serif" font-size="10.00">&#45;sgf/kynema&#45;sgf/src/wind</text>
<text text-anchor="middle" x="1558.5" y="-436" font-family="Helvetica,sans-Serif" font-size="10.00">_energy/actuator/disk/Joukowsky.H</text>
</a>
</g>
</g>
<!-- Node1&#45;&gt;Node14 -->
<g id="edge31_Node000001_Node000014" class="edge">
<title>Node1&#45;&gt;Node14</title>
<g id="a_edge31_Node000001_Node000014"><a xlink:title=" ">
<path fill="none" stroke="#63b8ff" d="M1363.27,-578.01C1380.52,-568.41 1399.46,-557.53 1416.5,-547 1457.32,-521.77 1502.96,-490.11 1531.21,-470.08"/>
<polygon fill="#63b8ff" stroke="#63b8ff" points="1361.48,-575 1354.42,-582.9 1364.87,-581.12 1361.48,-575"/>
</a>
</g>
</g>
<!-- Node3 -->
<g id="Node000003" class="node">
<title>Node3</title>
<g id="a_Node000003"><a xlink:href="_actuator_model_8_h.html" target="_top" xlink:title=" ">
<polygon fill="white" stroke="#666666" points="888.5,-217 704.5,-217 704.5,-176 888.5,-176 888.5,-217"/>
<text text-anchor="start" x="712.5" y="-205" font-family="Helvetica,sans-Serif" font-size="10.00">/home/runner/work/kynema</text>
<text text-anchor="start" x="712.5" y="-194" font-family="Helvetica,sans-Serif" font-size="10.00">&#45;sgf/kynema&#45;sgf/src/wind</text>
<text text-anchor="middle" x="796.5" y="-183" font-family="Helvetica,sans-Serif" font-size="10.00">_energy/actuator/ActuatorModel.H</text>
</a>
</g>
</g>
<!-- Node2&#45;&gt;Node3 -->
<g id="edge2_Node000002_Node000003" class="edge">
<title>Node2&#45;&gt;Node3</title>
<g id="a_edge2_Node000002_Node000003"><a xlink:title=" ">
<path fill="none" stroke="#63b8ff" d="M834.18,-249.8C826.42,-239.02 817.74,-226.98 810.67,-217.17"/>
<polygon fill="#63b8ff" stroke="#63b8ff" points="831.48,-252.03 840.16,-258.1 837.16,-247.94 831.48,-252.03"/>
</a>
</g>
</g>
<!-- Node4 -->
<g id="Node000004" class="node">
<title>Node4</title>
<g id="a_Node000004"><a xlink:href="_actuator_8_h.html" target="_top" xlink:title=" ">
<polygon fill="white" stroke="#666666" points="335,-134.5 182,-134.5 182,-93.5 335,-93.5 335,-134.5"/>
<text text-anchor="start" x="190" y="-122.5" font-family="Helvetica,sans-Serif" font-size="10.00">/home/runner/work/kynema</text>
<text text-anchor="start" x="190" y="-111.5" font-family="Helvetica,sans-Serif" font-size="10.00">&#45;sgf/kynema&#45;sgf/src/wind</text>
<text text-anchor="middle" x="258.5" y="-100.5" font-family="Helvetica,sans-Serif" font-size="10.00">_energy/actuator/Actuator.H</text>
</a>
</g>
</g>
<!-- Node3&#45;&gt;Node4 -->
<g id="edge3_Node000003_Node000004" class="edge">
<title>Node3&#45;&gt;Node4</title>
<g id="a_edge3_Node000003_Node000004"><a xlink:title=" ">
<path fill="none" stroke="#63b8ff" d="M694.06,-187.78C601.74,-179.68 462.6,-164.64 343.5,-140 336.12,-138.47 328.45,-136.61 320.87,-134.61"/>
<polygon fill="#63b8ff" stroke="#63b8ff" points="693.98,-191.29 704.25,-188.66 694.58,-184.31 693.98,-191.29"/>
</a>
</g>
</g>
<!-- Node8 -->
<g id="Node000008" class="node">
<title>Node8</title>
<g id="a_Node000008"><a xlink:href="_actuator_disk_8cpp.html" target="_top" xlink:title=" ">
<polygon fill="white" stroke="#666666" points="1334,-134.5 1125,-134.5 1125,-93.5 1334,-93.5 1334,-134.5"/>
<text text-anchor="start" x="1133" y="-122.5" font-family="Helvetica,sans-Serif" font-size="10.00">/home/runner/work/kynema</text>
<text text-anchor="start" x="1133" y="-111.5" font-family="Helvetica,sans-Serif" font-size="10.00">&#45;sgf/kynema&#45;sgf/src/wind</text>
<text text-anchor="middle" x="1229.5" y="-100.5" font-family="Helvetica,sans-Serif" font-size="10.00">_energy/actuator/disk/ActuatorDisk.cpp</text>
</a>
</g>
</g>
<!-- Node3&#45;&gt;Node8 -->
<g id="edge7_Node000003_Node000008" class="edge">
<title>Node3&#45;&gt;Node8</title>
<g id="a_edge7_Node000003_Node000008"><a xlink:title=" ">
<path fill="none" stroke="#63b8ff" d="M898.72,-178.88C961.41,-168.4 1043.25,-154.2 1115.5,-140 1124.25,-138.28 1133.36,-136.41 1142.44,-134.5"/>
<polygon fill="#63b8ff" stroke="#63b8ff" points="898.12,-175.43 888.83,-180.53 899.27,-182.34 898.12,-175.43"/>
</a>
</g>
</g>
<!-- Node9 -->
<g id="Node000009" class="node">
<title>Node9</title>
<g id="a_Node000009"><a xlink:href="_turbine_fast_8cpp.html" target="_top" xlink:title=" ">
<polygon fill="white" stroke="#666666" points="504,-140 353,-140 353,-88 504,-88 504,-140"/>
<text text-anchor="start" x="361" y="-128" font-family="Helvetica,sans-Serif" font-size="10.00">/home/runner/work/kynema</text>
<text text-anchor="start" x="361" y="-117" font-family="Helvetica,sans-Serif" font-size="10.00">&#45;sgf/kynema&#45;sgf/src/wind</text>
<text text-anchor="start" x="361" y="-106" font-family="Helvetica,sans-Serif" font-size="10.00">_energy/actuator/turbine</text>
<text text-anchor="middle" x="428.5" y="-95" font-family="Helvetica,sans-Serif" font-size="10.00">/fast/TurbineFast.cpp</text>
</a>
</g>
</g>
<!-- Node3&#45;&gt;Node9 -->
<g id="edge8_Node000003_Node000009" class="edge">
<title>Node3&#45;&gt;Node9</title>
<g id="a_edge8_Node000003_Node000009"><a xlink:title=" ">
<path fill="none" stroke="#63b8ff" d="M694.27,-177.98C639.99,-168.06 572.32,-154.71 512.5,-140 509.84,-139.35 507.14,-138.66 504.42,-137.95"/>
<polygon fill="#63b8ff" stroke="#63b8ff" points="693.78,-181.45 704.24,-179.79 695.03,-174.56 693.78,-181.45"/>
</a>
</g>
</g>
<!-- Node10 -->
<g id="Node000010" class="node">
<title>Node10</title>
<g id="a_Node000010"><a xlink:href="_turbine_kynema_8cpp.html" target="_top" xlink:title=" ">
<polygon fill="white" stroke="#666666" points="679,-140 522,-140 522,-88 679,-88 679,-140"/>
<text text-anchor="start" x="530" y="-128" font-family="Helvetica,sans-Serif" font-size="10.00">/home/runner/work/kynema</text>
<text text-anchor="start" x="530" y="-117" font-family="Helvetica,sans-Serif" font-size="10.00">&#45;sgf/kynema&#45;sgf/src/wind</text>
<text text-anchor="start" x="530" y="-106" font-family="Helvetica,sans-Serif" font-size="10.00">_energy/actuator/turbine</text>
<text text-anchor="middle" x="600.5" y="-95" font-family="Helvetica,sans-Serif" font-size="10.00">/kynema/TurbineKynema.cpp</text>
</a>
</g>
</g>
<!-- Node3&#45;&gt;Node10 -->
<g id="edge9_Node000003_Node000010" class="edge">
<title>Node3&#45;&gt;Node10</title>
<g id="a_edge9_Node000003_Node000010"><a xlink:title=" ">
<path fill="none" stroke="#63b8ff" d="M739.31,-172.01C714.87,-161.97 686.3,-150.24 661.46,-140.04"/>
<polygon fill="#63b8ff" stroke="#63b8ff" points="738.22,-175.35 748.8,-175.91 740.88,-168.87 738.22,-175.35"/>
</a>
</g>
</g>
<!-- Node11 -->
<g id="Node000011" class="node">
<title>Node11</title>
<g id="a_Node000011"><a xlink:href="_fixed_wing_8cpp.html" target="_top" xlink:title=" ">
<polygon fill="white" stroke="#666666" points="896,-134.5 697,-134.5 697,-93.5 896,-93.5 896,-134.5"/>
<text text-anchor="start" x="705" y="-122.5" font-family="Helvetica,sans-Serif" font-size="10.00">/home/runner/work/kynema</text>
<text text-anchor="start" x="705" y="-111.5" font-family="Helvetica,sans-Serif" font-size="10.00">&#45;sgf/kynema&#45;sgf/src/wind</text>
<text text-anchor="middle" x="796.5" y="-100.5" font-family="Helvetica,sans-Serif" font-size="10.00">_energy/actuator/wing/FixedWing.cpp</text>
</a>
</g>
</g>
<!-- Node3&#45;&gt;Node11 -->
<g id="edge10_Node000003_Node000011" class="edge">
<title>Node3&#45;&gt;Node11</title>
<g id="a_edge10_Node000003_Node000011"><a xlink:title=" ">
<path fill="none" stroke="#63b8ff" d="M796.5,-165.37C796.5,-155.1 796.5,-143.9 796.5,-134.67"/>
<polygon fill="#63b8ff" stroke="#63b8ff" points="793,-165.6 796.5,-175.6 800,-165.6 793,-165.6"/>
</a>
</g>
</g>
<!-- Node12 -->
<g id="Node000012" class="node">
<title>Node12</title>
<g id="a_Node000012"><a xlink:href="_flat_plate_8cpp.html" target="_top" xlink:title=" ">
<polygon fill="white" stroke="#666666" points="1106.5,-134.5 914.5,-134.5 914.5,-93.5 1106.5,-93.5 1106.5,-134.5"/>
<text text-anchor="start" x="922.5" y="-122.5" font-family="Helvetica,sans-Serif" font-size="10.00">/home/runner/work/kynema</text>
<text text-anchor="start" x="922.5" y="-111.5" font-family="Helvetica,sans-Serif" font-size="10.00">&#45;sgf/kynema&#45;sgf/src/wind</text>
<text text-anchor="middle" x="1010.5" y="-100.5" font-family="Helvetica,sans-Serif" font-size="10.00">_energy/actuator/wing/FlatPlate.cpp</text>
</a>
</g>
</g>
<!-- Node3&#45;&gt;Node12 -->
<g id="edge11_Node000003_Node000012" class="edge">
<title>Node3&#45;&gt;Node12</title>
<g id="a_edge11_Node000003_Node000012"><a xlink:title=" ">
<path fill="none" stroke="#63b8ff" d="M858.21,-172.29C890,-160.33 928.31,-145.92 958.56,-134.54"/>
<polygon fill="#63b8ff" stroke="#63b8ff" points="856.7,-169.11 848.58,-175.91 859.17,-175.67 856.7,-169.11"/>
</a>
</g>
</g>
<!-- Node5 -->
<g id="Node000005" class="node">
<title>Node5</title>
<g id="a_Node000005"><a xlink:href="_actuator_forcing_8cpp.html" target="_top" xlink:title=" ">
<polygon fill="white" stroke="#666666" points="159,-52 0,-52 0,0 159,0 159,-52"/>
<text text-anchor="start" x="8" y="-40" font-family="Helvetica,sans-Serif" font-size="10.00">/home/runner/work/kynema</text>
<text text-anchor="start" x="8" y="-29" font-family="Helvetica,sans-Serif" font-size="10.00">&#45;sgf/kynema&#45;sgf/src/equation</text>
<text text-anchor="start" x="8" y="-18" font-family="Helvetica,sans-Serif" font-size="10.00">_systems/icns/source_terms</text>
<text text-anchor="middle" x="79.5" y="-7" font-family="Helvetica,sans-Serif" font-size="10.00">/ActuatorForcing.cpp</text>
</a>
</g>
</g>
<!-- Node4&#45;&gt;Node5 -->
<g id="edge4_Node000004_Node000005" class="edge">
<title>Node4&#45;&gt;Node5</title>
<g id="a_edge4_Node000004_Node000005"><a xlink:title=" ">
<path fill="none" stroke="#63b8ff" d="M208.63,-89.04C184.72,-77.55 156.09,-63.8 131.86,-52.16"/>
<polygon fill="#63b8ff" stroke="#63b8ff" points="207.35,-92.31 217.88,-93.49 210.38,-86 207.35,-92.31"/>
</a>
</g>
</g>
<!-- Node6 -->
<g id="Node000006" class="node">
<title>Node6</title>
<g id="a_Node000006"><a xlink:href="_actuator_8cpp.html" target="_top" xlink:title=" ">
<polygon fill="white" stroke="#666666" points="340,-46.5 177,-46.5 177,-5.5 340,-5.5 340,-46.5"/>
<text text-anchor="start" x="185" y="-34.5" font-family="Helvetica,sans-Serif" font-size="10.00">/home/runner/work/kynema</text>
<text text-anchor="start" x="185" y="-23.5" font-family="Helvetica,sans-Serif" font-size="10.00">&#45;sgf/kynema&#45;sgf/src/wind</text>
<text text-anchor="middle" x="258.5" y="-12.5" font-family="Helvetica,sans-Serif" font-size="10.00">_energy/actuator/Actuator.cpp</text>
</a>
</g>
</g>
<!-- Node4&#45;&gt;Node6 -->
<g id="edge5_Node000004_Node000006" class="edge">
<title>Node4&#45;&gt;Node6</title>
<g id="a_edge5_Node000004_Node000006"><a xlink:title=" ">
<path fill="none" stroke="#63b8ff" d="M258.5,-83.36C258.5,-71.26 258.5,-57.58 258.5,-46.74"/>
<polygon fill="#63b8ff" stroke="#63b8ff" points="255,-83.49 258.5,-93.49 262,-83.49 255,-83.49"/>
</a>
</g>
</g>
<!-- Node7 -->
<g id="Node000007" class="node">
<title>Node7</title>
<g id="a_Node000007"><a xlink:href="_actuator_container_8cpp.html" target="_top" xlink:title=" ">
<polygon fill="white" stroke="#666666" points="568.5,-46.5 358.5,-46.5 358.5,-5.5 568.5,-5.5 568.5,-46.5"/>
<text text-anchor="start" x="366.5" y="-34.5" font-family="Helvetica,sans-Serif" font-size="10.00">/home/runner/work/kynema</text>
<text text-anchor="start" x="366.5" y="-23.5" font-family="Helvetica,sans-Serif" font-size="10.00">&#45;sgf/kynema&#45;sgf/src/wind</text>
<text text-anchor="middle" x="463.5" y="-12.5" font-family="Helvetica,sans-Serif" font-size="10.00">_energy/actuator/ActuatorContainer.cpp</text>
</a>
</g>
</g>
<!-- Node4&#45;&gt;Node7 -->
<g id="edge6_Node000004_Node000007" class="edge">
<title>Node4&#45;&gt;Node7</title>
<g id="a_edge6_Node000004_Node000007"><a xlink:title=" ">
<path fill="none" stroke="#63b8ff" d="M314.29,-89.6C346.42,-76.12 386.35,-59.37 416.81,-46.59"/>
<polygon fill="#63b8ff" stroke="#63b8ff" points="312.89,-86.39 305.02,-93.49 315.59,-92.84 312.89,-86.39"/>
</a>
</g>
</g>
<!-- Node13&#45;&gt;Node14 -->
<g id="edge13_Node000013_Node000014" class="edge">
<title>Node13&#45;&gt;Node14</title>
<g id="a_edge13_Node000013_Node000014"><a xlink:title=" ">
<path fill="none" stroke="#63b8ff" d="M1382.53,-503.08C1417.71,-492.57 1459.23,-480.16 1493.1,-470.04"/>
<polygon fill="#63b8ff" stroke="#63b8ff" points="1381.37,-499.77 1372.79,-505.99 1383.38,-506.48 1381.37,-499.77"/>
</a>
</g>
</g>
<!-- Node17 -->
<g id="Node000017" class="node">
<title>Node17</title>
<g id="a_Node000017"><a xlink:href="_uniform_ct_8_h.html" target="_top" xlink:title=" ">
<polygon fill="white" stroke="#666666" points="1190.5,-470 1004.5,-470 1004.5,-429 1190.5,-429 1190.5,-470"/>
<text text-anchor="start" x="1012.5" y="-458" font-family="Helvetica,sans-Serif" font-size="10.00">/home/runner/work/kynema</text>
<text text-anchor="start" x="1012.5" y="-447" font-family="Helvetica,sans-Serif" font-size="10.00">&#45;sgf/kynema&#45;sgf/src/wind</text>
<text text-anchor="middle" x="1097.5" y="-436" font-family="Helvetica,sans-Serif" font-size="10.00">_energy/actuator/disk/UniformCt.H</text>
</a>
</g>
</g>
<!-- Node13&#45;&gt;Node17 -->
<g id="edge18_Node000013_Node000017" class="edge">
<title>Node13&#45;&gt;Node17</title>
<g id="a_edge18_Node000013_Node000017"><a xlink:title=" ">
<path fill="none" stroke="#63b8ff" d="M1243.21,-502.54C1214.11,-492.15 1180.07,-479.99 1152.22,-470.04"/>
<polygon fill="#63b8ff" stroke="#63b8ff" points="1242.28,-505.92 1252.87,-505.99 1244.63,-499.33 1242.28,-505.92"/>
</a>
</g>
</g>
<!-- Node21 -->
<g id="Node000021" class="node">
<title>Node21</title>
<g id="a_Node000021"><a xlink:href="disk__ops_8_h.html" target="_top" xlink:title=" ">
<polygon fill="white" stroke="#666666" points="1397,-470 1218,-470 1218,-429 1397,-429 1397,-470"/>
<text text-anchor="start" x="1226" y="-458" font-family="Helvetica,sans-Serif" font-size="10.00">/home/runner/work/kynema</text>
<text text-anchor="start" x="1226" y="-447" font-family="Helvetica,sans-Serif" font-size="10.00">&#45;sgf/kynema&#45;sgf/src/wind</text>
<text text-anchor="middle" x="1307.5" y="-436" font-family="Helvetica,sans-Serif" font-size="10.00">_energy/actuator/disk/disk_ops.H</text>
</a>
</g>
</g>
<!-- Node13&#45;&gt;Node21 -->
<g id="edge26_Node000013_Node000021" class="edge">
<title>Node13&#45;&gt;Node21</title>
<g id="a_edge26_Node000013_Node000021"><a xlink:title=" ">
<path fill="none" stroke="#63b8ff" d="M1307.5,-495.69C1307.5,-487.08 1307.5,-477.9 1307.5,-470.07"/>
<polygon fill="#63b8ff" stroke="#63b8ff" points="1304,-495.79 1307.5,-505.79 1311,-495.79 1304,-495.79"/>
</a>
</g>
</g>
<!-- Node14&#45;&gt;Node8 -->
<g id="edge14_Node000014_Node000008" class="edge">
<title>Node14&#45;&gt;Node8</title>
<g id="a_edge14_Node000014_Node000008"><a xlink:title=" ">
<path fill="none" stroke="#63b8ff" d="M1660.21,-425.32C1675.32,-417.49 1688.98,-407.01 1698.5,-393 1711.49,-373.88 1708.03,-362.05 1698.5,-341 1652.64,-239.73 1609.77,-226.06 1510.5,-176 1455.78,-148.41 1388.94,-133.25 1334.17,-124.95"/>
<polygon fill="#63b8ff" stroke="#63b8ff" points="1658.69,-422.16 1651.17,-429.63 1661.7,-428.48 1658.69,-422.16"/>
</a>
</g>
</g>
<!-- Node15 -->
<g id="Node000015" class="node">
<title>Node15</title>
<g id="a_Node000015"><a xlink:href="_joukowsky__ops_8_h.html" target="_top" xlink:title=" ">
<polygon fill="white" stroke="#666666" points="1689,-387.5 1480,-387.5 1480,-346.5 1689,-346.5 1689,-387.5"/>
<text text-anchor="start" x="1488" y="-375.5" font-family="Helvetica,sans-Serif" font-size="10.00">/home/runner/work/kynema</text>
<text text-anchor="start" x="1488" y="-364.5" font-family="Helvetica,sans-Serif" font-size="10.00">&#45;sgf/kynema&#45;sgf/src/wind</text>
<text text-anchor="middle" x="1584.5" y="-353.5" font-family="Helvetica,sans-Serif" font-size="10.00">_energy/actuator/disk/Joukowsky_ops.H</text>
</a>
</g>
</g>
<!-- Node14&#45;&gt;Node15 -->
<g id="edge15_Node000014_Node000015" class="edge">
<title>Node14&#45;&gt;Node15</title>
<g id="a_edge15_Node000014_Node000015"><a xlink:title=" ">
<path fill="none" stroke="#63b8ff" d="M1568.02,-419.01C1571.4,-408.57 1575.1,-397.09 1578.15,-387.67"/>
<polygon fill="#63b8ff" stroke="#63b8ff" points="1564.67,-418.01 1564.93,-428.6 1571.33,-420.16 1564.67,-418.01"/>
</a>
</g>
</g>
<!-- Node15&#45;&gt;Node8 -->
<g id="edge16_Node000015_Node000008" class="edge">
<title>Node15&#45;&gt;Node8</title>
<g id="a_edge16_Node000015_Node000008"><a xlink:title=" ">
<path fill="none" stroke="#63b8ff" d="M1587,-335.83C1587.44,-311.03 1584.1,-276.29 1565.5,-253 1508.93,-182.16 1409.95,-147.37 1334.02,-130.47"/>
<polygon fill="#63b8ff" stroke="#63b8ff" points="1583.49,-335.99 1586.6,-346.12 1590.49,-336.27 1583.49,-335.99"/>
</a>
</g>
</g>
<!-- Node16 -->
<g id="Node000016" class="node">
<title>Node16</title>
<g id="a_Node000016"><a xlink:href="_joukowsky__ops_8cpp.html" target="_top" xlink:title=" ">
<polygon fill="white" stroke="#666666" points="1556.5,-305 1380.5,-305 1380.5,-253 1556.5,-253 1556.5,-305"/>
<text text-anchor="start" x="1388.5" y="-293" font-family="Helvetica,sans-Serif" font-size="10.00">/home/runner/work/kynema</text>
<text text-anchor="start" x="1388.5" y="-282" font-family="Helvetica,sans-Serif" font-size="10.00">&#45;sgf/kynema&#45;sgf/src/wind</text>
<text text-anchor="start" x="1388.5" y="-271" font-family="Helvetica,sans-Serif" font-size="10.00">_energy/actuator/disk/Joukowsky</text>
<text text-anchor="middle" x="1468.5" y="-260" font-family="Helvetica,sans-Serif" font-size="10.00">_ops.cpp</text>
</a>
</g>
</g>
<!-- Node15&#45;&gt;Node16 -->
<g id="edge17_Node000015_Node000016" class="edge">
<title>Node15&#45;&gt;Node16</title>
<g id="a_edge17_Node000015_Node000016"><a xlink:title=" ">
<path fill="none" stroke="#63b8ff" d="M1550.14,-340.53C1535.15,-329.41 1517.62,-316.41 1502.65,-305.32"/>
<polygon fill="#63b8ff" stroke="#63b8ff" points="1548.06,-343.34 1558.18,-346.49 1552.23,-337.72 1548.06,-343.34"/>
</a>
</g>
</g>
<!-- Node17&#45;&gt;Node8 -->
<g id="edge19_Node000017_Node000008" class="edge">
<title>Node17&#45;&gt;Node8</title>
<g id="a_edge19_Node000017_Node000008"><a xlink:title=" ">
<path fill="none" stroke="#63b8ff" d="M1086.31,-419.01C1079.64,-397.13 1073.82,-366.76 1081.5,-341 1107.11,-255.16 1176.89,-171.6 1210.67,-134.71"/>
<polygon fill="#63b8ff" stroke="#63b8ff" points="1083.05,-420.31 1089.5,-428.72 1089.7,-418.12 1083.05,-420.31"/>
</a>
</g>
</g>
<!-- Node18 -->
<g id="Node000018" class="node">
<title>Node18</title>
<g id="a_Node000018"><a xlink:href="disk__spreading_8_h.html" target="_top" xlink:title=" ">
<polygon fill="white" stroke="#666666" points="1034,-393 883,-393 883,-341 1034,-341 1034,-393"/>
<text text-anchor="start" x="891" y="-381" font-family="Helvetica,sans-Serif" font-size="10.00">/home/runner/work/kynema</text>
<text text-anchor="start" x="891" y="-370" font-family="Helvetica,sans-Serif" font-size="10.00">&#45;sgf/kynema&#45;sgf/src/wind</text>
<text text-anchor="start" x="891" y="-359" font-family="Helvetica,sans-Serif" font-size="10.00">_energy/actuator/disk/disk</text>
<text text-anchor="middle" x="958.5" y="-348" font-family="Helvetica,sans-Serif" font-size="10.00">_spreading.H</text>
</a>
</g>
</g>
<!-- Node17&#45;&gt;Node18 -->
<g id="edge20_Node000017_Node000018" class="edge">
<title>Node17&#45;&gt;Node18</title>
<g id="a_edge20_Node000017_Node000018"><a xlink:title=" ">
<path fill="none" stroke="#63b8ff" d="M1054.49,-423.59C1037.77,-413.91 1018.64,-402.83 1001.89,-393.13"/>
<polygon fill="#63b8ff" stroke="#63b8ff" points="1053.09,-426.82 1063.5,-428.81 1056.6,-420.77 1053.09,-426.82"/>
</a>
</g>
</g>
<!-- Node19 -->
<g id="Node000019" class="node">
<title>Node19</title>
<g id="a_Node000019"><a xlink:href="uniform__ct__ops_8_h.html" target="_top" xlink:title=" ">
<polygon fill="white" stroke="#666666" points="1254.5,-393 1090.5,-393 1090.5,-341 1254.5,-341 1254.5,-393"/>
<text text-anchor="start" x="1098.5" y="-381" font-family="Helvetica,sans-Serif" font-size="10.00">/home/runner/work/kynema</text>
<text text-anchor="start" x="1098.5" y="-370" font-family="Helvetica,sans-Serif" font-size="10.00">&#45;sgf/kynema&#45;sgf/src/wind</text>
<text text-anchor="start" x="1098.5" y="-359" font-family="Helvetica,sans-Serif" font-size="10.00">_energy/actuator/disk/uniform</text>
<text text-anchor="middle" x="1172.5" y="-348" font-family="Helvetica,sans-Serif" font-size="10.00">_ct_ops.H</text>
</a>
</g>
</g>
<!-- Node17&#45;&gt;Node19 -->
<g id="edge23_Node000017_Node000019" class="edge">
<title>Node17&#45;&gt;Node19</title>
<g id="a_edge23_Node000017_Node000019"><a xlink:title=" ">
<path fill="none" stroke="#63b8ff" d="M1122.89,-421.25C1131.36,-412.16 1140.75,-402.08 1149.06,-393.16"/>
<polygon fill="#63b8ff" stroke="#63b8ff" points="1120.3,-418.9 1116.04,-428.6 1125.42,-423.67 1120.3,-418.9"/>
</a>
</g>
</g>
<!-- Node18&#45;&gt;Node2 -->
<g id="edge21_Node000018_Node000002" class="edge">
<title>Node18&#45;&gt;Node2</title>
<g id="a_edge21_Node000018_Node000002"><a xlink:title=" ">
<path fill="none" stroke="#63b8ff" d="M920.06,-334.21C905.99,-322.58 890.51,-309.77 878.12,-299.53"/>
<polygon fill="#63b8ff" stroke="#63b8ff" points="918.2,-337.22 928.14,-340.89 922.66,-331.82 918.2,-337.22"/>
</a>
</g>
</g>
<!-- Node18&#45;&gt;Node8 -->
<g id="edge22_Node000018_Node000008" class="edge">
<title>Node18&#45;&gt;Node8</title>
<g id="a_edge22_Node000018_Node000008"><a xlink:title=" ">
<path fill="none" stroke="#63b8ff" d="M966.18,-331.06C977.26,-288.62 1001.75,-217.56 1048.5,-176 1064.55,-161.73 1110.68,-146.29 1152.35,-134.51"/>
<polygon fill="#63b8ff" stroke="#63b8ff" points="962.74,-330.39 963.7,-340.94 969.53,-332.09 962.74,-330.39"/>
</a>
</g>
</g>
<!-- Node19&#45;&gt;Node8 -->
<g id="edge24_Node000019_Node000008" class="edge">
<title>Node19&#45;&gt;Node8</title>
<g id="a_edge24_Node000019_Node000008"><a xlink:title=" ">
<path fill="none" stroke="#63b8ff" d="M1176.59,-330.63C1179.49,-308.24 1183.85,-278.76 1189.5,-253 1198.84,-210.36 1214.11,-161.53 1222.83,-134.9"/>
<polygon fill="#63b8ff" stroke="#63b8ff" points="1173.1,-330.33 1175.33,-340.69 1180.05,-331.21 1173.1,-330.33"/>
</a>
</g>
</g>
<!-- Node20 -->
<g id="Node000020" class="node">
<title>Node20</title>
<g id="a_Node000020"><a xlink:href="uniform__ct__ops_8cpp.html" target="_top" xlink:title=" ">
<polygon fill="white" stroke="#666666" points="1362.5,-305 1198.5,-305 1198.5,-253 1362.5,-253 1362.5,-305"/>
<text text-anchor="start" x="1206.5" y="-293" font-family="Helvetica,sans-Serif" font-size="10.00">/home/runner/work/kynema</text>
<text text-anchor="start" x="1206.5" y="-282" font-family="Helvetica,sans-Serif" font-size="10.00">&#45;sgf/kynema&#45;sgf/src/wind</text>
<text text-anchor="start" x="1206.5" y="-271" font-family="Helvetica,sans-Serif" font-size="10.00">_energy/actuator/disk/uniform</text>
<text text-anchor="middle" x="1280.5" y="-260" font-family="Helvetica,sans-Serif" font-size="10.00">_ct_ops.cpp</text>
</a>
</g>
</g>
<!-- Node19&#45;&gt;Node20 -->
<g id="edge25_Node000019_Node000020" class="edge">
<title>Node19&#45;&gt;Node20</title>
<g id="a_edge25_Node000019_Node000020"><a xlink:title=" ">
<path fill="none" stroke="#63b8ff" d="M1212.17,-334.41C1224.22,-324.82 1237.29,-314.41 1248.75,-305.29"/>
<polygon fill="#63b8ff" stroke="#63b8ff" points="1209.67,-331.93 1204.03,-340.89 1214.03,-337.4 1209.67,-331.93"/>
</a>
</g>
</g>
<!-- Node21&#45;&gt;Node15 -->
<g id="edge27_Node000021_Node000015" class="edge">
<title>Node21&#45;&gt;Node15</title>
<g id="a_edge27_Node000021_Node000015"><a xlink:title=" ">
<path fill="none" stroke="#63b8ff" d="M1384.73,-426.05C1426.38,-413.95 1477.27,-399.16 1517.27,-387.54"/>
<polygon fill="#63b8ff" stroke="#63b8ff" points="1383.53,-422.76 1374.91,-428.91 1385.49,-429.48 1383.53,-422.76"/>
</a>
</g>
</g>
<!-- Node21&#45;&gt;Node16 -->
<g id="edge28_Node000021_Node000016" class="edge">
<title>Node21&#45;&gt;Node16</title>
<g id="a_edge28_Node000021_Node000016"><a xlink:title=" ">
<path fill="none" stroke="#63b8ff" d="M1296.63,-418.98C1290.08,-395.71 1285.73,-363.55 1301.5,-341 1311.54,-326.65 1345.5,-313.03 1380.2,-302.32"/>
<polygon fill="#63b8ff" stroke="#63b8ff" points="1293.32,-420.14 1299.62,-428.66 1300.01,-418.07 1293.32,-420.14"/>
</a>
</g>
</g>
<!-- Node21&#45;&gt;Node19 -->
<g id="edge30_Node000021_Node000019" class="edge">
<title>Node21&#45;&gt;Node19</title>
<g id="a_edge30_Node000021_Node000019"><a xlink:title=" ">
<path fill="none" stroke="#63b8ff" d="M1265.72,-423.59C1249.49,-413.91 1230.91,-402.83 1214.64,-393.13"/>
<polygon fill="#63b8ff" stroke="#63b8ff" points="1264.09,-426.69 1274.48,-428.81 1267.68,-420.68 1264.09,-426.69"/>
</a>
</g>
</g>
<!-- Node22 -->
<g id="Node000022" class="node">
<title>Node22</title>
<g id="a_Node000022"><a xlink:href="disk__ops_8cpp.html" target="_top" xlink:title=" ">
<polygon fill="white" stroke="#666666" points="1462,-393 1311,-393 1311,-341 1462,-341 1462,-393"/>
<text text-anchor="start" x="1319" y="-381" font-family="Helvetica,sans-Serif" font-size="10.00">/home/runner/work/kynema</text>
<text text-anchor="start" x="1319" y="-370" font-family="Helvetica,sans-Serif" font-size="10.00">&#45;sgf/kynema&#45;sgf/src/wind</text>
<text text-anchor="start" x="1319" y="-359" font-family="Helvetica,sans-Serif" font-size="10.00">_energy/actuator/disk/disk</text>
<text text-anchor="middle" x="1386.5" y="-348" font-family="Helvetica,sans-Serif" font-size="10.00">_ops.cpp</text>
</a>
</g>
</g>
<!-- Node21&#45;&gt;Node22 -->
<g id="edge29_Node000021_Node000022" class="edge">
<title>Node21&#45;&gt;Node22</title>
<g id="a_edge29_Node000021_Node000022"><a xlink:title=" ">
<path fill="none" stroke="#63b8ff" d="M1334.25,-421.25C1343.17,-412.16 1353.06,-402.08 1361.81,-393.16"/>
<polygon fill="#63b8ff" stroke="#63b8ff" points="1331.53,-419.01 1327.03,-428.6 1336.53,-423.92 1331.53,-419.01"/>
</a>
</g>
</g>
</g>
</svg>
