<?xml version="1.0" encoding="UTF-8" standalone="no"?>
<!DOCTYPE svg PUBLIC "-//W3C//DTD SVG 1.1//EN"
 "http://www.w3.org/Graphics/SVG/1.1/DTD/svg11.dtd">
<!-- Generated by graphviz version 2.43.0 (0)
 -->
<!-- Title: /home/runner/work/kynema&#45;sgf/kynema&#45;sgf/src/wind_energy/actuator/turbine/external/external_base_types.H Pages: 1 -->
<svg width="575pt" height="599pt"
 viewBox="0.00 0.00 575.45 599.00" xmlns="http://www.w3.org/2000/svg" xmlns:xlink="http://www.w3.org/1999/xlink">
<g id="graph0" class="graph" transform="scale(1 1) rotate(0) translate(4 595)">
<title>/home/runner/work/kynema&#45;sgf/kynema&#45;sgf/src/wind_energy/actuator/turbine/external/external_base_types.H</title>
<!-- Node1 -->
<g id="Node000001" class="node">
<title>Node1</title>
<g id="a_Node000001"><a xlink:title=" ">
<polygon fill="#999999" stroke="#666666" points="351.54,-591 176.54,-591 176.54,-539 351.54,-539 351.54,-591"/>
<text text-anchor="start" x="184.54" y="-579" font-family="Helvetica,sans-Serif" font-size="10.00">/home/runner/work/kynema</text>
<text text-anchor="start" x="184.54" y="-568" font-family="Helvetica,sans-Serif" font-size="10.00">&#45;sgf/kynema&#45;sgf/src/wind</text>
<text text-anchor="start" x="184.54" y="-557" font-family="Helvetica,sans-Serif" font-size="10.00">_energy/actuator/turbine</text>
<text text-anchor="middle" x="264.04" y="-546" font-family="Helvetica,sans-Serif" font-size="10.00">/external/external_base_types.H</text>
</a>
</g>
</g>
<!-- Node2 -->
<g id="Node000002" class="node">
<title>Node2</title>
<g id="a_Node000002"><a xlink:href="_ext_turb_iface_8_h.html" target="_top" xlink:title=" ">
<polygon fill="white" stroke="#666666" points="339.54,-503 188.54,-503 188.54,-451 339.54,-451 339.54,-503"/>
<text text-anchor="start" x="196.54" y="-491" font-family="Helvetica,sans-Serif" font-size="10.00">/home/runner/work/kynema</text>
<text text-anchor="start" x="196.54" y="-480" font-family="Helvetica,sans-Serif" font-size="10.00">&#45;sgf/kynema&#45;sgf/src/wind</text>
<text text-anchor="start" x="196.54" y="-469" font-family="Helvetica,sans-Serif" font-size="10.00">_energy/actuator/turbine</text>
<text text-anchor="middle" x="264.04" y="-458" font-family="Helvetica,sans-Serif" font-size="10.00">/external/ExtTurbIface.H</text>
</a>
</g>
</g>
<!-- Node1&#45;&gt;Node2 -->
<g id="edge1_Node000001_Node000002" class="edge">
<title>Node1&#45;&gt;Node2</title>
<g id="a_edge1_Node000001_Node000002"><a xlink:title=" ">
<path fill="none" stroke="#63b8ff" d="M264.04,-528.56C264.04,-520.04 264.04,-511.1 264.04,-503.16"/>
<polygon fill="#63b8ff" stroke="#63b8ff" points="260.54,-528.66 264.04,-538.66 267.54,-528.66 260.54,-528.66"/>
</a>
</g>
</g>
<!-- Node14 -->
<g id="Node000014" class="node">
<title>Node14</title>
<g id="a_Node000014"><a xlink:href="fast__types_8_h.html" target="_top" xlink:title=" ">
<polygon fill="white" stroke="#666666" points="170.54,-503 19.54,-503 19.54,-451 170.54,-451 170.54,-503"/>
<text text-anchor="start" x="27.54" y="-491" font-family="Helvetica,sans-Serif" font-size="10.00">/home/runner/work/kynema</text>
<text text-anchor="start" x="27.54" y="-480" font-family="Helvetica,sans-Serif" font-size="10.00">&#45;sgf/kynema&#45;sgf/src/wind</text>
<text text-anchor="start" x="27.54" y="-469" font-family="Helvetica,sans-Serif" font-size="10.00">_energy/actuator/turbine</text>
<text text-anchor="middle" x="95.04" y="-458" font-family="Helvetica,sans-Serif" font-size="10.00">/fast/fast_types.H</text>
</a>
</g>
</g>
<!-- Node1&#45;&gt;Node14 -->
<g id="edge17_Node000001_Node000014" class="edge">
<title>Node1&#45;&gt;Node14</title>
<g id="a_edge17_Node000001_Node000014"><a xlink:title=" ">
<path fill="none" stroke="#63b8ff" d="M205.7,-534.31C185.74,-524.16 163.62,-512.9 144.44,-503.14"/>
<polygon fill="#63b8ff" stroke="#63b8ff" points="204.21,-537.48 214.71,-538.89 207.38,-531.24 204.21,-537.48"/>
</a>
</g>
</g>
<!-- Node15 -->
<g id="Node000015" class="node">
<title>Node15</title>
<g id="a_Node000015"><a xlink:href="kynema__fmb__types_8_h.html" target="_top" xlink:title=" ">
<polygon fill="white" stroke="#666666" points="550.54,-503 357.54,-503 357.54,-451 550.54,-451 550.54,-503"/>
<text text-anchor="start" x="365.54" y="-491" font-family="Helvetica,sans-Serif" font-size="10.00">/home/runner/work/kynema</text>
<text text-anchor="start" x="365.54" y="-480" font-family="Helvetica,sans-Serif" font-size="10.00">&#45;sgf/kynema&#45;sgf/src/wind</text>
<text text-anchor="start" x="365.54" y="-469" font-family="Helvetica,sans-Serif" font-size="10.00">_energy/actuator/turbine</text>
<text text-anchor="middle" x="454.04" y="-458" font-family="Helvetica,sans-Serif" font-size="10.00">/kynema_fmb/kynema_fmb_types.H</text>
</a>
</g>
</g>
<!-- Node1&#45;&gt;Node15 -->
<g id="edge20_Node000001_Node000015" class="edge">
<title>Node1&#45;&gt;Node15</title>
<g id="a_edge20_Node000001_Node000015"><a xlink:title=" ">
<path fill="none" stroke="#63b8ff" d="M328.72,-534.73C351.39,-524.46 376.65,-513.03 398.51,-503.14"/>
<polygon fill="#63b8ff" stroke="#63b8ff" points="327.17,-531.58 319.51,-538.89 330.06,-537.96 327.17,-531.58"/>
</a>
</g>
</g>
<!-- Node3 -->
<g id="Node000003" class="node">
<title>Node3</title>
<g id="a_Node000003"><a xlink:href="_turbine_external_8_h.html" target="_top" xlink:title=" ">
<polygon fill="white" stroke="#666666" points="339.54,-415 188.54,-415 188.54,-363 339.54,-363 339.54,-415"/>
<text text-anchor="start" x="196.54" y="-403" font-family="Helvetica,sans-Serif" font-size="10.00">/home/runner/work/kynema</text>
<text text-anchor="start" x="196.54" y="-392" font-family="Helvetica,sans-Serif" font-size="10.00">&#45;sgf/kynema&#45;sgf/src/wind</text>
<text text-anchor="start" x="196.54" y="-381" font-family="Helvetica,sans-Serif" font-size="10.00">_energy/actuator/turbine</text>
<text text-anchor="middle" x="264.04" y="-370" font-family="Helvetica,sans-Serif" font-size="10.00">/external/TurbineExternal.H</text>
</a>
</g>
</g>
<!-- Node2&#45;&gt;Node3 -->
<g id="edge2_Node000002_Node000003" class="edge">
<title>Node2&#45;&gt;Node3</title>
<g id="a_edge2_Node000002_Node000003"><a xlink:title=" ">
<path fill="none" stroke="#63b8ff" d="M264.04,-440.56C264.04,-432.04 264.04,-423.1 264.04,-415.16"/>
<polygon fill="#63b8ff" stroke="#63b8ff" points="260.54,-440.66 264.04,-450.66 267.54,-440.66 260.54,-440.66"/>
</a>
</g>
</g>
<!-- Node12 -->
<g id="Node000012" class="node">
<title>Node12</title>
<g id="a_Node000012"><a xlink:href="_fast_iface_8cpp.html" target="_top" xlink:title=" ">
<polygon fill="white" stroke="#666666" points="170.54,-415 19.54,-415 19.54,-363 170.54,-363 170.54,-415"/>
<text text-anchor="start" x="27.54" y="-403" font-family="Helvetica,sans-Serif" font-size="10.00">/home/runner/work/kynema</text>
<text text-anchor="start" x="27.54" y="-392" font-family="Helvetica,sans-Serif" font-size="10.00">&#45;sgf/kynema&#45;sgf/src/wind</text>
<text text-anchor="start" x="27.54" y="-381" font-family="Helvetica,sans-Serif" font-size="10.00">_energy/actuator/turbine</text>
<text text-anchor="middle" x="95.04" y="-370" font-family="Helvetica,sans-Serif" font-size="10.00">/fast/FastIface.cpp</text>
</a>
</g>
</g>
<!-- Node2&#45;&gt;Node12 -->
<g id="edge15_Node000002_Node000012" class="edge">
<title>Node2&#45;&gt;Node12</title>
<g id="a_edge15_Node000002_Node000012"><a xlink:title=" ">
<path fill="none" stroke="#63b8ff" d="M205.7,-446.31C185.74,-436.16 163.62,-424.9 144.44,-415.14"/>
<polygon fill="#63b8ff" stroke="#63b8ff" points="204.21,-449.48 214.71,-450.89 207.38,-443.24 204.21,-449.48"/>
</a>
</g>
</g>
<!-- Node13 -->
<g id="Node000013" class="node">
<title>Node13</title>
<g id="a_Node000013"><a xlink:href="_kynema_f_m_b_iface_8cpp.html" target="_top" xlink:title=" ">
<polygon fill="white" stroke="#666666" points="550.04,-415 358.04,-415 358.04,-363 550.04,-363 550.04,-415"/>
<text text-anchor="start" x="366.04" y="-403" font-family="Helvetica,sans-Serif" font-size="10.00">/home/runner/work/kynema</text>
<text text-anchor="start" x="366.04" y="-392" font-family="Helvetica,sans-Serif" font-size="10.00">&#45;sgf/kynema&#45;sgf/src/wind</text>
<text text-anchor="start" x="366.04" y="-381" font-family="Helvetica,sans-Serif" font-size="10.00">_energy/actuator/turbine</text>
<text text-anchor="middle" x="454.04" y="-370" font-family="Helvetica,sans-Serif" font-size="10.00">/kynema_fmb/KynemaFMBIface.cpp</text>
</a>
</g>
</g>
<!-- Node2&#45;&gt;Node13 -->
<g id="edge16_Node000002_Node000013" class="edge">
<title>Node2&#45;&gt;Node13</title>
<g id="a_edge16_Node000002_Node000013"><a xlink:title=" ">
<path fill="none" stroke="#63b8ff" d="M328.72,-446.73C351.39,-436.46 376.65,-425.03 398.51,-415.14"/>
<polygon fill="#63b8ff" stroke="#63b8ff" points="327.17,-443.58 319.51,-450.89 330.06,-449.96 327.17,-443.58"/>
</a>
</g>
</g>
<!-- Node4 -->
<g id="Node000004" class="node">
<title>Node4</title>
<g id="a_Node000004"><a xlink:href="turbine__external__utils_8_h.html" target="_top" xlink:title=" ">
<polygon fill="white" stroke="#666666" points="354.04,-327 174.04,-327 174.04,-275 354.04,-275 354.04,-327"/>
<text text-anchor="start" x="182.04" y="-315" font-family="Helvetica,sans-Serif" font-size="10.00">/home/runner/work/kynema</text>
<text text-anchor="start" x="182.04" y="-304" font-family="Helvetica,sans-Serif" font-size="10.00">&#45;sgf/kynema&#45;sgf/src/wind</text>
<text text-anchor="start" x="182.04" y="-293" font-family="Helvetica,sans-Serif" font-size="10.00">_energy/actuator/turbine</text>
<text text-anchor="middle" x="264.04" y="-282" font-family="Helvetica,sans-Serif" font-size="10.00">/external/turbine_external_utils.H</text>
</a>
</g>
</g>
<!-- Node3&#45;&gt;Node4 -->
<g id="edge3_Node000003_Node000004" class="edge">
<title>Node3&#45;&gt;Node4</title>
<g id="a_edge3_Node000003_Node000004"><a xlink:title=" ">
<path fill="none" stroke="#63b8ff" d="M264.04,-352.56C264.04,-344.04 264.04,-335.1 264.04,-327.16"/>
<polygon fill="#63b8ff" stroke="#63b8ff" points="260.54,-352.66 264.04,-362.66 267.54,-352.66 260.54,-352.66"/>
</a>
</g>
</g>
<!-- Node10 -->
<g id="Node000010" class="node">
<title>Node10</title>
<g id="a_Node000010"><a xlink:href="_turbine_fast_8_h.html" target="_top" xlink:title=" ">
<polygon fill="white" stroke="#666666" points="156.54,-239 5.54,-239 5.54,-187 156.54,-187 156.54,-239"/>
<text text-anchor="start" x="13.54" y="-227" font-family="Helvetica,sans-Serif" font-size="10.00">/home/runner/work/kynema</text>
<text text-anchor="start" x="13.54" y="-216" font-family="Helvetica,sans-Serif" font-size="10.00">&#45;sgf/kynema&#45;sgf/src/wind</text>
<text text-anchor="start" x="13.54" y="-205" font-family="Helvetica,sans-Serif" font-size="10.00">_energy/actuator/turbine</text>
<text text-anchor="middle" x="81.04" y="-194" font-family="Helvetica,sans-Serif" font-size="10.00">/fast/TurbineFast.H</text>
</a>
</g>
</g>
<!-- Node3&#45;&gt;Node10 -->
<g id="edge9_Node000003_Node000010" class="edge">
<title>Node3&#45;&gt;Node10</title>
<g id="a_edge9_Node000003_Node000010"><a xlink:title=" ">
<path fill="none" stroke="#63b8ff" d="M206.55,-357.66C192.22,-348.77 177.43,-338.35 165.04,-327 136.39,-300.74 110.92,-263.51 95.74,-239.06"/>
<polygon fill="#63b8ff" stroke="#63b8ff" points="205.02,-360.83 215.39,-363 208.64,-354.83 205.02,-360.83"/>
</a>
</g>
</g>
<!-- Node11 -->
<g id="Node000011" class="node">
<title>Node11</title>
<g id="a_Node000011"><a xlink:href="_turbine_kynema_f_m_b_8_h.html" target="_top" xlink:title=" ">
<polygon fill="white" stroke="#666666" points="567.04,-327 373.04,-327 373.04,-275 567.04,-275 567.04,-327"/>
<text text-anchor="start" x="381.04" y="-315" font-family="Helvetica,sans-Serif" font-size="10.00">/home/runner/work/kynema</text>
<text text-anchor="start" x="381.04" y="-304" font-family="Helvetica,sans-Serif" font-size="10.00">&#45;sgf/kynema&#45;sgf/src/wind</text>
<text text-anchor="start" x="381.04" y="-293" font-family="Helvetica,sans-Serif" font-size="10.00">_energy/actuator/turbine</text>
<text text-anchor="middle" x="470.04" y="-282" font-family="Helvetica,sans-Serif" font-size="10.00">/kynema_fmb/TurbineKynemaFMB.H</text>
</a>
</g>
</g>
<!-- Node3&#45;&gt;Node11 -->
<g id="edge12_Node000003_Node000011" class="edge">
<title>Node3&#45;&gt;Node11</title>
<g id="a_edge12_Node000003_Node000011"><a xlink:title=" ">
<path fill="none" stroke="#63b8ff" d="M333.51,-359C358.26,-348.66 385.92,-337.12 409.83,-327.14"/>
<polygon fill="#63b8ff" stroke="#63b8ff" points="332.06,-355.81 324.18,-362.89 334.76,-362.27 332.06,-355.81"/>
</a>
</g>
</g>
<!-- Node5 -->
<g id="Node000005" class="node">
<title>Node5</title>
<g id="a_Node000005"><a xlink:href="turbine__external__ops_8_h.html" target="_top" xlink:title=" ">
<polygon fill="white" stroke="#666666" points="352.04,-239 176.04,-239 176.04,-187 352.04,-187 352.04,-239"/>
<text text-anchor="start" x="184.04" y="-227" font-family="Helvetica,sans-Serif" font-size="10.00">/home/runner/work/kynema</text>
<text text-anchor="start" x="184.04" y="-216" font-family="Helvetica,sans-Serif" font-size="10.00">&#45;sgf/kynema&#45;sgf/src/wind</text>
<text text-anchor="start" x="184.04" y="-205" font-family="Helvetica,sans-Serif" font-size="10.00">_energy/actuator/turbine</text>
<text text-anchor="middle" x="264.04" y="-194" font-family="Helvetica,sans-Serif" font-size="10.00">/external/turbine_external_ops.H</text>
</a>
</g>
</g>
<!-- Node4&#45;&gt;Node5 -->
<g id="edge4_Node000004_Node000005" class="edge">
<title>Node4&#45;&gt;Node5</title>
<g id="a_edge4_Node000004_Node000005"><a xlink:title=" ">
<path fill="none" stroke="#63b8ff" d="M264.04,-264.56C264.04,-256.04 264.04,-247.1 264.04,-239.16"/>
<polygon fill="#63b8ff" stroke="#63b8ff" points="260.54,-264.66 264.04,-274.66 267.54,-264.66 260.54,-264.66"/>
</a>
</g>
</g>
<!-- Node6 -->
<g id="Node000006" class="node">
<title>Node6</title>
<g id="a_Node000006"><a xlink:href="turbine__fast__ops_8_h.html" target="_top" xlink:title=" ">
<polygon fill="white" stroke="#666666" points="258.54,-145.5 107.54,-145.5 107.54,-93.5 258.54,-93.5 258.54,-145.5"/>
<text text-anchor="start" x="115.54" y="-133.5" font-family="Helvetica,sans-Serif" font-size="10.00">/home/runner/work/kynema</text>
<text text-anchor="start" x="115.54" y="-122.5" font-family="Helvetica,sans-Serif" font-size="10.00">&#45;sgf/kynema&#45;sgf/src/wind</text>
<text text-anchor="start" x="115.54" y="-111.5" font-family="Helvetica,sans-Serif" font-size="10.00">_energy/actuator/turbine</text>
<text text-anchor="middle" x="183.04" y="-100.5" font-family="Helvetica,sans-Serif" font-size="10.00">/fast/turbine_fast_ops.H</text>
</a>
</g>
</g>
<!-- Node5&#45;&gt;Node6 -->
<g id="edge5_Node000005_Node000006" class="edge">
<title>Node5&#45;&gt;Node6</title>
<g id="a_edge5_Node000005_Node000006"><a xlink:title=" ">
<path fill="none" stroke="#63b8ff" d="M235.02,-179.22C225.28,-168.22 214.58,-156.13 205.43,-145.79"/>
<polygon fill="#63b8ff" stroke="#63b8ff" points="232.66,-181.83 241.91,-187 237.9,-177.19 232.66,-181.83"/>
</a>
</g>
</g>
<!-- Node8 -->
<g id="Node000008" class="node">
<title>Node8</title>
<g id="a_Node000008"><a xlink:href="turbine__kynema__fmb__ops_8_h.html" target="_top" xlink:title=" ">
<polygon fill="white" stroke="#666666" points="441.54,-151 276.54,-151 276.54,-88 441.54,-88 441.54,-151"/>
<text text-anchor="start" x="284.54" y="-139" font-family="Helvetica,sans-Serif" font-size="10.00">/home/runner/work/kynema</text>
<text text-anchor="start" x="284.54" y="-128" font-family="Helvetica,sans-Serif" font-size="10.00">&#45;sgf/kynema&#45;sgf/src/wind</text>
<text text-anchor="start" x="284.54" y="-117" font-family="Helvetica,sans-Serif" font-size="10.00">_energy/actuator/turbine</text>
<text text-anchor="start" x="284.54" y="-106" font-family="Helvetica,sans-Serif" font-size="10.00">/kynema_fmb/turbine_kynema</text>
<text text-anchor="middle" x="359.04" y="-95" font-family="Helvetica,sans-Serif" font-size="10.00">_fmb_ops.H</text>
</a>
</g>
</g>
<!-- Node5&#45;&gt;Node8 -->
<g id="edge7_Node000005_Node000008" class="edge">
<title>Node5&#45;&gt;Node8</title>
<g id="a_edge7_Node000005_Node000008"><a xlink:title=" ">
<path fill="none" stroke="#63b8ff" d="M297.27,-180C307.03,-170.59 317.69,-160.33 327.36,-151.02"/>
<polygon fill="#63b8ff" stroke="#63b8ff" points="294.77,-177.54 290,-187 299.63,-182.58 294.77,-177.54"/>
</a>
</g>
</g>
<!-- Node7 -->
<g id="Node000007" class="node">
<title>Node7</title>
<g id="a_Node000007"><a xlink:href="_turbine_fast_8cpp.html" target="_top" xlink:title=" ">
<polygon fill="white" stroke="#666666" points="227.54,-52 76.54,-52 76.54,0 227.54,0 227.54,-52"/>
<text text-anchor="start" x="84.54" y="-40" font-family="Helvetica,sans-Serif" font-size="10.00">/home/runner/work/kynema</text>
<text text-anchor="start" x="84.54" y="-29" font-family="Helvetica,sans-Serif" font-size="10.00">&#45;sgf/kynema&#45;sgf/src/wind</text>
<text text-anchor="start" x="84.54" y="-18" font-family="Helvetica,sans-Serif" font-size="10.00">_energy/actuator/turbine</text>
<text text-anchor="middle" x="152.04" y="-7" font-family="Helvetica,sans-Serif" font-size="10.00">/fast/TurbineFast.cpp</text>
</a>
</g>
</g>
<!-- Node6&#45;&gt;Node7 -->
<g id="edge6_Node000006_Node000007" class="edge">
<title>Node6&#45;&gt;Node7</title>
<g id="a_edge6_Node000006_Node000007"><a xlink:title=" ">
<path fill="none" stroke="#63b8ff" d="M171.28,-83.79C167.73,-73.32 163.91,-62.03 160.61,-52.29"/>
<polygon fill="#63b8ff" stroke="#63b8ff" points="168.05,-85.15 174.57,-93.5 174.68,-82.9 168.05,-85.15"/>
</a>
</g>
</g>
<!-- Node9 -->
<g id="Node000009" class="node">
<title>Node9</title>
<g id="a_Node000009"><a xlink:href="_turbine_kynema_f_m_b_8cpp.html" target="_top" xlink:title=" ">
<polygon fill="white" stroke="#666666" points="490.54,-52 287.54,-52 287.54,0 490.54,0 490.54,-52"/>
<text text-anchor="start" x="295.54" y="-40" font-family="Helvetica,sans-Serif" font-size="10.00">/home/runner/work/kynema</text>
<text text-anchor="start" x="295.54" y="-29" font-family="Helvetica,sans-Serif" font-size="10.00">&#45;sgf/kynema&#45;sgf/src/wind</text>
<text text-anchor="start" x="295.54" y="-18" font-family="Helvetica,sans-Serif" font-size="10.00">_energy/actuator/turbine</text>
<text text-anchor="middle" x="389.04" y="-7" font-family="Helvetica,sans-Serif" font-size="10.00">/kynema_fmb/TurbineKynemaFMB.cpp</text>
</a>
</g>
</g>
<!-- Node8&#45;&gt;Node9 -->
<g id="edge8_Node000008_Node000009" class="edge">
<title>Node8&#45;&gt;Node9</title>
<g id="a_edge8_Node000008_Node000009"><a xlink:title=" ">
<path fill="none" stroke="#63b8ff" d="M372.23,-78.27C375.16,-69.34 378.18,-60.13 380.84,-52.02"/>
<polygon fill="#63b8ff" stroke="#63b8ff" points="368.9,-77.18 369.11,-87.78 375.56,-79.37 368.9,-77.18"/>
</a>
</g>
</g>
<!-- Node10&#45;&gt;Node6 -->
<g id="edge11_Node000010_Node000006" class="edge">
<title>Node10&#45;&gt;Node6</title>
<g id="a_edge11_Node000010_Node000006"><a xlink:title=" ">
<path fill="none" stroke="#63b8ff" d="M116.51,-180.18C129.06,-168.92 142.99,-156.43 154.85,-145.79"/>
<polygon fill="#63b8ff" stroke="#63b8ff" points="114.02,-177.71 108.91,-187 118.69,-182.92 114.02,-177.71"/>
</a>
</g>
</g>
<!-- Node10&#45;&gt;Node7 -->
<g id="edge10_Node000010_Node000007" class="edge">
<title>Node10&#45;&gt;Node7</title>
<g id="a_edge10_Node000010_Node000007"><a xlink:title=" ">
<path fill="none" stroke="#63b8ff" d="M80.5,-176.54C81.37,-150.88 85.21,-115.94 98.04,-88 104.12,-74.76 114.05,-62.3 123.75,-52.14"/>
<polygon fill="#63b8ff" stroke="#63b8ff" points="77,-176.51 80.3,-186.58 84,-176.65 77,-176.51"/>
</a>
</g>
</g>
<!-- Node11&#45;&gt;Node8 -->
<g id="edge14_Node000011_Node000008" class="edge">
<title>Node11&#45;&gt;Node8</title>
<g id="a_edge14_Node000011_Node000008"><a xlink:title=" ">
<path fill="none" stroke="#63b8ff" d="M448.89,-265.79C428.41,-232.68 397.66,-182.95 377.97,-151.12"/>
<polygon fill="#63b8ff" stroke="#63b8ff" points="446.14,-268 454.37,-274.66 452.09,-264.32 446.14,-268"/>
</a>
</g>
</g>
<!-- Node11&#45;&gt;Node9 -->
<g id="edge13_Node000011_Node000009" class="edge">
<title>Node11&#45;&gt;Node9</title>
<g id="a_edge13_Node000011_Node000009"><a xlink:title=" ">
<path fill="none" stroke="#63b8ff" d="M473.77,-264.61C476.83,-220.9 477.01,-145.33 450.04,-88 443.67,-74.45 432.96,-62.18 422.29,-52.25"/>
<polygon fill="#63b8ff" stroke="#63b8ff" points="470.27,-264.49 472.97,-274.74 477.25,-265.05 470.27,-264.49"/>
</a>
</g>
</g>
<!-- Node14&#45;&gt;Node10 -->
<g id="edge19_Node000014_Node000010" class="edge">
<title>Node14&#45;&gt;Node10</title>
<g id="a_edge19_Node000014_Node000010"><a xlink:title=" ">
<path fill="none" stroke="#63b8ff" d="M35.91,-444.97C25.48,-436.69 16.06,-426.72 10.04,-415 -20.88,-354.75 28.69,-277.92 59.47,-239.01"/>
<polygon fill="#63b8ff" stroke="#63b8ff" points="33.91,-447.85 44.03,-450.97 38.07,-442.21 33.91,-447.85"/>
</a>
</g>
</g>
<!-- Node14&#45;&gt;Node12 -->
<g id="edge18_Node000014_Node000012" class="edge">
<title>Node14&#45;&gt;Node12</title>
<g id="a_edge18_Node000014_Node000012"><a xlink:title=" ">
<path fill="none" stroke="#63b8ff" d="M95.04,-440.56C95.04,-432.04 95.04,-423.1 95.04,-415.16"/>
<polygon fill="#63b8ff" stroke="#63b8ff" points="91.54,-440.66 95.04,-450.66 98.54,-440.66 91.54,-440.66"/>
</a>
</g>
</g>
<!-- Node15&#45;&gt;Node11 -->
<g id="edge22_Node000015_Node000011" class="edge">
<title>Node15&#45;&gt;Node11</title>
<g id="a_edge22_Node000015_Node000011"><a xlink:title=" ">
<path fill="none" stroke="#63b8ff" d="M529.82,-445.29C541.51,-437.19 552.02,-427.2 559.04,-415 570.57,-394.97 569.82,-383.45 559.04,-363 551.27,-348.25 538.14,-336.38 524.33,-327.18"/>
<polygon fill="#63b8ff" stroke="#63b8ff" points="527.66,-442.52 521.13,-450.86 531.44,-448.41 527.66,-442.52"/>
</a>
</g>
</g>
<!-- Node15&#45;&gt;Node13 -->
<g id="edge21_Node000015_Node000013" class="edge">
<title>Node15&#45;&gt;Node13</title>
<g id="a_edge21_Node000015_Node000013"><a xlink:title=" ">
<path fill="none" stroke="#63b8ff" d="M454.04,-440.56C454.04,-432.04 454.04,-423.1 454.04,-415.16"/>
<polygon fill="#63b8ff" stroke="#63b8ff" points="450.54,-440.66 454.04,-450.66 457.54,-440.66 450.54,-440.66"/>
</a>
</g>
</g>
</g>
</svg>
