<?xml version="1.0" encoding="UTF-8" standalone="no"?>
<!DOCTYPE svg PUBLIC "-//W3C//DTD SVG 1.1//EN"
 "http://www.w3.org/Graphics/SVG/1.1/DTD/svg11.dtd">
<!-- Generated by graphviz version 2.43.0 (0)
 -->
<!-- Title: /home/runner/work/kynema&#45;sgf/kynema&#45;sgf/src/fvm/filter.H Pages: 1 -->
<!--zoomable 390 -->

<svg id="main" version="1.1" xmlns="http://www.w3.org/2000/svg" xmlns:xlink="http://www.w3.org/1999/xlink" xml:space="preserve" onload="init(evt)">

<style type="text/css"><![CDATA[
.node, .edge {opacity: 0.7;}
.node.selected, .edge.selected {opacity: 1;}
.edge:hover path { stroke: red; }
.edge:hover polygon { stroke: red; fill: red; }
]]></style>

<defs>
  <circle id="rim" cx="0" cy="0" r="7"/>
  <circle id="rim2" cx="0" cy="0" r="3.5"/>
  <g id="zoomPlus">
    <use xlink:href="#rim" fill="#404040"><set attributeName="fill" to="#808080" begin="zoomplus.mouseover" end="zoomplus.mouseout"/></use>
    <path d="M-4,0h8M0,-4v8" fill="none" stroke="white" stroke-width="1.5" pointer-events="none"/>
  </g>
  <g id="zoomMin">
    <use xlink:href="#rim" fill="#404040"><set attributeName="fill" to="#808080" begin="zoomminus.mouseover" end="zoomminus.mouseout"/></use>
    <path d="M-4,0h8" fill="none" stroke="white" stroke-width="1.5" pointer-events="none"/>
  </g>
  <g id="arrowUp" transform="translate(30 24)">
    <use xlink:href="#rim"/>
    <path pointer-events="none" fill="none" stroke="white" stroke-width="1.5" d="M0,-3.0v7 M-2.5,-0.5L0,-3.0L2.5,-0.5"/>
  </g>
  <g id="arrowRight" transform="rotate(90) translate(36 -43)">
    <use xlink:href="#rim"/>
    <path pointer-events="none" fill="none" stroke="white" stroke-width="1.5" d="M0,-3.0v7 M-2.5,-0.5L0,-3.0L2.5,-0.5"/>
  </g>
  <g id="arrowDown" transform="rotate(180) translate(-30 -48)">
    <use xlink:href="#rim"/>
    <path pointer-events="none" fill="none" stroke="white" stroke-width="1.5" d="M0,-3.0v7 M-2.5,-0.5L0,-3.0L2.5,-0.5"/>
  </g>
  <g id="arrowLeft" transform="rotate(270) translate(-36 17)">
    <use xlink:href="#rim"/>
    <path pointer-events="none" fill="none" stroke="white" stroke-width="1.5" d="M0,-3.0v7 M-2.5,-0.5L0,-3.0L2.5,-0.5"/>
  </g>
  <g id="resetDef">
    <use xlink:href="#rim2" fill="#404040"><set attributeName="fill" to="#808080" begin="reset.mouseover" end="reset.mouseout"/></use>
  </g>
</defs>
<script type="application/ecmascript">
var viewWidth = 1695;
var viewHeight = 390;
var sectionId = 'dynsection-0';
</script>
<script type="application/ecmascript" xlink:href="svg.min.js"/>
<svg id="graph" class="graph">
<g id="viewport">
<title>/home/runner/work/kynema&#45;sgf/kynema&#45;sgf/src/fvm/filter.H</title>
<!-- Node1 -->
<g id="Node000001" class="node">
<title>Node1</title>
<g id="a_Node000001"><a xlink:title=" ">
<polygon fill="#999999" stroke="#666666" points="821,-382 670,-382 670,-341 821,-341 821,-382"/>
<text text-anchor="start" x="678" y="-370" font-family="Helvetica,sans-Serif" font-size="10.00">/home/runner/work/kynema</text>
<text text-anchor="start" x="678" y="-359" font-family="Helvetica,sans-Serif" font-size="10.00">&#45;sgf/kynema&#45;sgf/src/fvm</text>
<text text-anchor="middle" x="745.5" y="-348" font-family="Helvetica,sans-Serif" font-size="10.00">/filter.H</text>
</a>
</g>
</g>
<!-- Node2 -->
<g id="Node000002" class="node">
<title>Node2</title>
<g id="a_Node000002"><a xlink:href="fvm__utils_8_h.html" target="_top" xlink:title=" ">
<polygon fill="white" stroke="#666666" points="677,-305 564,-305 564,-286 677,-286 677,-305"/>
<text text-anchor="middle" x="620.5" y="-293" font-family="Helvetica,sans-Serif" font-size="10.00">src/fvm/fvm_utils.H</text>
</a>
</g>
</g>
<!-- Node1&#45;&gt;Node2 -->
<g id="edge1_Node000001_Node000002" class="edge">
<title>Node1&#45;&gt;Node2</title>
<g id="a_edge1_Node000001_Node000002"><a xlink:title=" ">
<path fill="none" stroke="#63b8ff" d="M707.32,-340.95C687.57,-330.84 663.98,-318.76 646.38,-309.75"/>
<polygon fill="#63b8ff" stroke="#63b8ff" points="647.78,-306.53 637.28,-305.09 644.59,-312.76 647.78,-306.53"/>
</a>
</g>
</g>
<!-- Node27 -->
<g id="Node000027" class="node">
<title>Node27</title>
<g id="a_Node000027"><a xlink:title=" ">
<polygon fill="#e0e0e0" stroke="#999999" points="161.5,-184 69.5,-184 69.5,-165 161.5,-165 161.5,-184"/>
<text text-anchor="middle" x="115.5" y="-172" font-family="Helvetica,sans-Serif" font-size="10.00">AMReX_REAL.H</text>
</a>
</g>
</g>
<!-- Node1&#45;&gt;Node27 -->
<g id="edge62_Node000001_Node000027" class="edge">
<title>Node1&#45;&gt;Node27</title>
<g id="a_edge62_Node000001_Node000027"><a xlink:title=" ">
<path fill="none" stroke="#63b8ff" d="M669.9,-346.83C577.41,-329.1 416.7,-295.04 283.5,-250 231.73,-232.49 174.03,-205.06 141.51,-188.83"/>
<polygon fill="#63b8ff" stroke="#63b8ff" points="142.77,-185.54 132.26,-184.17 139.62,-191.79 142.77,-185.54"/>
</a>
</g>
</g>
<!-- Node30 -->
<g id="Node000030" class="node">
<title>Node30</title>
<g id="a_Node000030"><a xlink:title=" ">
<polygon fill="#e0e0e0" stroke="#999999" points="764,-184 649,-184 649,-165 764,-165 764,-184"/>
<text text-anchor="middle" x="706.5" y="-172" font-family="Helvetica,sans-Serif" font-size="10.00">AMReX_Geometry.H</text>
</a>
</g>
</g>
<!-- Node1&#45;&gt;Node30 -->
<g id="edge60_Node000001_Node000030" class="edge">
<title>Node1&#45;&gt;Node30</title>
<g id="a_edge60_Node000001_Node000030"><a xlink:title=" ">
<path fill="none" stroke="#63b8ff" d="M765.01,-340.8C790.49,-312.61 829,-259.76 803.5,-220 793.41,-204.28 776.23,-194.03 759.09,-187.4"/>
<polygon fill="#63b8ff" stroke="#63b8ff" points="760.22,-184.08 749.63,-184.07 757.9,-190.69 760.22,-184.08"/>
</a>
</g>
</g>
<!-- Node32 -->
<g id="Node000032" class="node">
<title>Node32</title>
<g id="a_Node000032"><a xlink:title=" ">
<polygon fill="#e0e0e0" stroke="#999999" points="794.5,-244.5 696.5,-244.5 696.5,-225.5 794.5,-225.5 794.5,-244.5"/>
<text text-anchor="middle" x="745.5" y="-232.5" font-family="Helvetica,sans-Serif" font-size="10.00">AMReX_MFIter.H</text>
</a>
</g>
</g>
<!-- Node1&#45;&gt;Node32 -->
<g id="edge61_Node000001_Node000032" class="edge">
<title>Node1&#45;&gt;Node32</title>
<g id="a_edge61_Node000001_Node000032"><a xlink:title=" ">
<path fill="none" stroke="#63b8ff" d="M745.5,-340.77C745.5,-317.19 745.5,-278.02 745.5,-254.84"/>
<polygon fill="#63b8ff" stroke="#63b8ff" points="749,-254.61 745.5,-244.61 742,-254.61 749,-254.61"/>
</a>
</g>
</g>
<!-- Node33 -->
<g id="Node000033" class="node">
<title>Node33</title>
<g id="a_Node000033"><a xlink:title=" ">
<polygon fill="#e0e0e0" stroke="#999999" points="950.5,-305 850.5,-305 850.5,-286 950.5,-286 950.5,-305"/>
<text text-anchor="middle" x="900.5" y="-293" font-family="Helvetica,sans-Serif" font-size="10.00">AMReX_Array4.H</text>
</a>
</g>
</g>
<!-- Node1&#45;&gt;Node33 -->
<g id="edge59_Node000001_Node000033" class="edge">
<title>Node1&#45;&gt;Node33</title>
<g id="a_edge59_Node000001_Node000033"><a xlink:title=" ">
<path fill="none" stroke="#63b8ff" d="M792.85,-340.95C818.02,-330.56 848.21,-318.09 870.21,-309.01"/>
<polygon fill="#63b8ff" stroke="#63b8ff" points="871.78,-312.14 879.69,-305.09 869.11,-305.67 871.78,-312.14"/>
</a>
</g>
</g>
<!-- Node3 -->
<g id="Node000003" class="node">
<title>Node3</title>
<g id="a_Node000003"><a xlink:href="_field_repo_8_h.html" target="_top" xlink:title=" ">
<polygon fill="white" stroke="#666666" points="678.5,-244.5 562.5,-244.5 562.5,-225.5 678.5,-225.5 678.5,-244.5"/>
<text text-anchor="middle" x="620.5" y="-232.5" font-family="Helvetica,sans-Serif" font-size="10.00">src/core/FieldRepo.H</text>
</a>
</g>
</g>
<!-- Node2&#45;&gt;Node3 -->
<g id="edge2_Node000002_Node000003" class="edge">
<title>Node2&#45;&gt;Node3</title>
<g id="a_edge2_Node000002_Node000003"><a xlink:title=" ">
<path fill="none" stroke="#63b8ff" d="M620.5,-285.87C620.5,-277.75 620.5,-265.31 620.5,-254.89"/>
<polygon fill="#63b8ff" stroke="#63b8ff" points="624,-254.67 620.5,-244.67 617,-254.67 624,-254.67"/>
</a>
</g>
</g>
<!-- Node26 -->
<g id="Node000026" class="node">
<title>Node26</title>
<g id="a_Node000026"><a xlink:href="stencils_8_h.html" target="_top" xlink:title="Second&#45;order finite volume discretization stencil coefficients.">
<polygon fill="white" stroke="#666666" points="396.5,-244.5 292.5,-244.5 292.5,-225.5 396.5,-225.5 396.5,-244.5"/>
<text text-anchor="middle" x="344.5" y="-232.5" font-family="Helvetica,sans-Serif" font-size="10.00">src/fvm/stencils.H</text>
</a>
</g>
</g>
<!-- Node2&#45;&gt;Node26 -->
<g id="edge50_Node000002_Node000026" class="edge">
<title>Node2&#45;&gt;Node26</title>
<g id="a_edge50_Node000002_Node000026"><a xlink:title=" ">
<path fill="none" stroke="#63b8ff" d="M580.37,-285.99C531.21,-275.57 447.91,-257.92 394.6,-246.62"/>
<polygon fill="#63b8ff" stroke="#63b8ff" points="395.19,-243.17 384.68,-244.52 393.74,-250.01 395.19,-243.17"/>
</a>
</g>
</g>
<!-- Node31 -->
<g id="Node000031" class="node">
<title>Node31</title>
<g id="a_Node000031"><a xlink:href="math__ops_8_h.html" target="_top" xlink:title=" ">
<polygon fill="white" stroke="#666666" points="165,-250 66,-250 66,-220 165,-220 165,-250"/>
<text text-anchor="start" x="74" y="-238" font-family="Helvetica,sans-Serif" font-size="10.00">src/utilities/math</text>
<text text-anchor="middle" x="115.5" y="-227" font-family="Helvetica,sans-Serif" font-size="10.00">_ops.H</text>
</a>
</g>
</g>
<!-- Node2&#45;&gt;Node31 -->
<g id="edge55_Node000002_Node000031" class="edge">
<title>Node2&#45;&gt;Node31</title>
<g id="a_edge55_Node000002_Node000031"><a xlink:title=" ">
<path fill="none" stroke="#63b8ff" d="M563.55,-287.9C467.26,-276.75 273.21,-254.27 175.14,-242.91"/>
<polygon fill="#63b8ff" stroke="#63b8ff" points="175.43,-239.42 165.09,-241.74 174.62,-246.37 175.43,-239.42"/>
</a>
</g>
</g>
<!-- Node2&#45;&gt;Node32 -->
<g id="edge58_Node000002_Node000032" class="edge">
<title>Node2&#45;&gt;Node32</title>
<g id="a_edge58_Node000002_Node000032"><a xlink:title=" ">
<path fill="none" stroke="#63b8ff" d="M638.68,-285.99C659.51,-276.25 693.87,-260.16 717.98,-248.88"/>
<polygon fill="#63b8ff" stroke="#63b8ff" points="719.73,-251.93 727.3,-244.52 716.76,-245.59 719.73,-251.93"/>
</a>
</g>
</g>
<!-- Node4 -->
<g id="Node000004" class="node">
<title>Node4</title>
<g id="a_Node000004"><a xlink:title=" ">
<polygon fill="#e0e0e0" stroke="#999999" points="828.5,-74 784.5,-74 784.5,-55 828.5,-55 828.5,-74"/>
<text text-anchor="middle" x="806.5" y="-62" font-family="Helvetica,sans-Serif" font-size="10.00">string</text>
</a>
</g>
</g>
<!-- Node3&#45;&gt;Node4 -->
<g id="edge3_Node000003_Node000004" class="edge">
<title>Node3&#45;&gt;Node4</title>
<g id="a_edge3_Node000003_Node000004"><a xlink:title=" ">
<path fill="none" stroke="#63b8ff" d="M585.47,-225.48C551.07,-216.67 497.36,-201.73 452.5,-184 434.94,-177.06 432.44,-170.88 414.5,-165 322.82,-134.95 138.84,-180.69 204.5,-110 224.06,-88.94 652.18,-71.3 774.27,-66.68"/>
<polygon fill="#63b8ff" stroke="#63b8ff" points="774.6,-70.17 784.47,-66.3 774.34,-63.17 774.6,-70.17"/>
</a>
</g>
</g>
<!-- Node5 -->
<g id="Node000005" class="node">
<title>Node5</title>
<g id="a_Node000005"><a xlink:title=" ">
<polygon fill="#e0e0e0" stroke="#999999" points="629,-129 536,-129 536,-110 629,-110 629,-129"/>
<text text-anchor="middle" x="582.5" y="-117" font-family="Helvetica,sans-Serif" font-size="10.00">unordered_map</text>
</a>
</g>
</g>
<!-- Node3&#45;&gt;Node5 -->
<g id="edge4_Node000003_Node000005" class="edge">
<title>Node3&#45;&gt;Node5</title>
<g id="a_edge4_Node000003_Node000005"><a xlink:title=" ">
<path fill="none" stroke="#63b8ff" d="M617.64,-225.47C611.51,-207.15 596.96,-163.68 588.63,-138.81"/>
<polygon fill="#63b8ff" stroke="#63b8ff" points="591.88,-137.5 585.39,-129.13 585.25,-139.72 591.88,-137.5"/>
</a>
</g>
</g>
<!-- Node6 -->
<g id="Node000006" class="node">
<title>Node6</title>
<g id="a_Node000006"><a xlink:href="_field_desc_types_8_h.html" target="_top" xlink:title=" ">
<polygon fill="white" stroke="#666666" points="1210,-74 1067,-74 1067,-55 1210,-55 1210,-74"/>
<text text-anchor="middle" x="1138.5" y="-62" font-family="Helvetica,sans-Serif" font-size="10.00">src/core/FieldDescTypes.H</text>
</a>
</g>
</g>
<!-- Node3&#45;&gt;Node6 -->
<g id="edge5_Node000003_Node000006" class="edge">
<title>Node3&#45;&gt;Node6</title>
<g id="a_edge5_Node000003_Node000006"><a xlink:title=" ">
<path fill="none" stroke="#63b8ff" d="M656.49,-225.45C666.48,-223.35 677.37,-221.34 687.5,-220 969.51,-182.81 1052.31,-259.71 1326.5,-184 1377.28,-169.98 1404.23,-174.07 1431.5,-129 1435.87,-121.78 1437,-116.4 1431.5,-110 1404.74,-78.87 1297.48,-69.26 1220.49,-66.43"/>
<polygon fill="#63b8ff" stroke="#63b8ff" points="1220.42,-62.93 1210.31,-66.09 1220.19,-69.93 1220.42,-62.93"/>
</a>
</g>
</g>
<!-- Node8 -->
<g id="Node000008" class="node">
<title>Node8</title>
<g id="a_Node000008"><a xlink:href="_field_utils_8_h.html" target="_top" xlink:title=" ">
<polygon fill="white" stroke="#666666" points="1656.5,-129 1542.5,-129 1542.5,-110 1656.5,-110 1656.5,-129"/>
<text text-anchor="middle" x="1599.5" y="-117" font-family="Helvetica,sans-Serif" font-size="10.00">src/core/FieldUtils.H</text>
</a>
</g>
</g>
<!-- Node3&#45;&gt;Node8 -->
<g id="edge7_Node000003_Node000008" class="edge">
<title>Node3&#45;&gt;Node8</title>
<g id="a_edge7_Node000003_Node000008"><a xlink:title=" ">
<path fill="none" stroke="#63b8ff" d="M655.78,-225.48C665.96,-223.33 677.12,-221.28 687.5,-220 737.94,-213.78 1566.28,-220.63 1601.5,-184 1612.71,-172.34 1610.42,-153.21 1606.42,-138.98"/>
<polygon fill="#63b8ff" stroke="#63b8ff" points="1609.68,-137.68 1603.22,-129.27 1603.03,-139.86 1609.68,-137.68"/>
</a>
</g>
</g>
<!-- Node9 -->
<g id="Node000009" class="node">
<title>Node9</title>
<g id="a_Node000009"><a xlink:title=" ">
<polygon fill="#e0e0e0" stroke="#999999" points="1544,-74 1435,-74 1435,-55 1544,-55 1544,-74"/>
<text text-anchor="middle" x="1489.5" y="-62" font-family="Helvetica,sans-Serif" font-size="10.00">AMReX_MultiFab.H</text>
</a>
</g>
</g>
<!-- Node3&#45;&gt;Node9 -->
<g id="edge48_Node000003_Node000009" class="edge">
<title>Node3&#45;&gt;Node9</title>
<g id="a_edge48_Node000003_Node000009"><a xlink:title=" ">
<path fill="none" stroke="#63b8ff" d="M655.78,-225.47C665.96,-223.33 677.12,-221.28 687.5,-220 790.25,-207.37 1525.34,-229.14 1618.5,-184 1653.56,-167.01 1689.44,-140.74 1665.5,-110 1657.91,-100.26 1593.67,-85.77 1544.97,-75.99"/>
<polygon fill="#63b8ff" stroke="#63b8ff" points="1545.64,-72.56 1535.15,-74.04 1544.28,-79.42 1545.64,-72.56"/>
</a>
</g>
</g>
<!-- Node11 -->
<g id="Node000011" class="node">
<title>Node11</title>
<g id="a_Node000011"><a xlink:href="_field_8_h.html" target="_top" xlink:title=" ">
<polygon fill="white" stroke="#666666" points="553.5,-184 461.5,-184 461.5,-165 553.5,-165 553.5,-184"/>
<text text-anchor="middle" x="507.5" y="-172" font-family="Helvetica,sans-Serif" font-size="10.00">src/core/Field.H</text>
</a>
</g>
</g>
<!-- Node3&#45;&gt;Node11 -->
<g id="edge11_Node000003_Node000011" class="edge">
<title>Node3&#45;&gt;Node11</title>
<g id="a_edge11_Node000003_Node000011"><a xlink:title=" ">
<path fill="none" stroke="#63b8ff" d="M603.83,-225.37C585.22,-215.73 554.88,-200.03 533.22,-188.81"/>
<polygon fill="#63b8ff" stroke="#63b8ff" points="534.73,-185.66 524.24,-184.17 531.51,-191.87 534.73,-185.66"/>
</a>
</g>
</g>
<!-- Node19 -->
<g id="Node000019" class="node">
<title>Node19</title>
<g id="a_Node000019"><a xlink:href="_int_field_8_h.html" target="_top" xlink:title=" ">
<polygon fill="white" stroke="#666666" points="886.5,-184 782.5,-184 782.5,-165 886.5,-165 886.5,-184"/>
<text text-anchor="middle" x="834.5" y="-172" font-family="Helvetica,sans-Serif" font-size="10.00">src/core/IntField.H</text>
</a>
</g>
</g>
<!-- Node3&#45;&gt;Node19 -->
<g id="edge27_Node000003_Node000019" class="edge">
<title>Node3&#45;&gt;Node19</title>
<g id="a_edge27_Node000003_Node000019"><a xlink:title=" ">
<path fill="none" stroke="#63b8ff" d="M651.62,-225.49C689.1,-215.25 752.18,-198 793.57,-186.69"/>
<polygon fill="#63b8ff" stroke="#63b8ff" points="794.62,-190.03 803.35,-184.02 792.78,-183.28 794.62,-190.03"/>
</a>
</g>
</g>
<!-- Node20 -->
<g id="Node000020" class="node">
<title>Node20</title>
<g id="a_Node000020"><a xlink:title=" ">
<polygon fill="#e0e0e0" stroke="#999999" points="759.5,-129 647.5,-129 647.5,-110 759.5,-110 759.5,-129"/>
<text text-anchor="middle" x="703.5" y="-117" font-family="Helvetica,sans-Serif" font-size="10.00">AMReX_iMultiFab.H</text>
</a>
</g>
</g>
<!-- Node3&#45;&gt;Node20 -->
<g id="edge49_Node000003_Node000020" class="edge">
<title>Node3&#45;&gt;Node20</title>
<g id="a_edge49_Node000003_Node000020"><a xlink:title=" ">
<path fill="none" stroke="#63b8ff" d="M621.03,-225.12C622.25,-211.14 626.29,-183.66 639.5,-165 648.75,-151.93 663.11,-141.44 675.89,-133.93"/>
<polygon fill="#63b8ff" stroke="#63b8ff" points="677.76,-136.9 684.82,-129 674.38,-130.77 677.76,-136.9"/>
</a>
</g>
</g>
<!-- Node21 -->
<g id="Node000021" class="node">
<title>Node21</title>
<g id="a_Node000021"><a xlink:href="_scratch_field_8_h.html" target="_top" xlink:title=" ">
<polygon fill="white" stroke="#666666" points="1317.5,-184 1189.5,-184 1189.5,-165 1317.5,-165 1317.5,-184"/>
<text text-anchor="middle" x="1253.5" y="-172" font-family="Helvetica,sans-Serif" font-size="10.00">src/core/ScratchField.H</text>
</a>
</g>
</g>
<!-- Node3&#45;&gt;Node21 -->
<g id="edge31_Node000003_Node000021" class="edge">
<title>Node3&#45;&gt;Node21</title>
<g id="a_edge31_Node000003_Node000021"><a xlink:title=" ">
<path fill="none" stroke="#63b8ff" d="M657.21,-225.45C667.01,-223.41 677.62,-221.41 687.5,-220 862.6,-194.93 1070.35,-183.14 1178.93,-178.33"/>
<polygon fill="#63b8ff" stroke="#63b8ff" points="1179.28,-181.82 1189.12,-177.89 1178.98,-174.83 1179.28,-181.82"/>
</a>
</g>
</g>
<!-- Node24 -->
<g id="Node000024" class="node">
<title>Node24</title>
<g id="a_Node000024"><a xlink:href="_int_scratch_field_8_h.html" target="_top" xlink:title=" ">
<polygon fill="white" stroke="#666666" points="1051.5,-184 911.5,-184 911.5,-165 1051.5,-165 1051.5,-184"/>
<text text-anchor="middle" x="981.5" y="-172" font-family="Helvetica,sans-Serif" font-size="10.00">src/core/IntScratchField.H</text>
</a>
</g>
</g>
<!-- Node3&#45;&gt;Node24 -->
<g id="edge39_Node000003_Node000024" class="edge">
<title>Node3&#45;&gt;Node24</title>
<g id="a_edge39_Node000003_Node000024"><a xlink:title=" ">
<path fill="none" stroke="#63b8ff" d="M659.4,-225.49C668.59,-223.58 678.38,-221.64 687.5,-220 762.42,-206.51 848.59,-193.8 908.18,-185.44"/>
<polygon fill="#63b8ff" stroke="#63b8ff" points="908.83,-188.88 918.25,-184.03 907.86,-181.95 908.83,-188.88"/>
</a>
</g>
</g>
<!-- Node25 -->
<g id="Node000025" class="node">
<title>Node25</title>
<g id="a_Node000025"><a xlink:title=" ">
<polygon fill="#e0e0e0" stroke="#999999" points="1592.5,-184 1482.5,-184 1482.5,-165 1592.5,-165 1592.5,-184"/>
<text text-anchor="middle" x="1537.5" y="-172" font-family="Helvetica,sans-Serif" font-size="10.00">AMReX_AmrCore.H</text>
</a>
</g>
</g>
<!-- Node3&#45;&gt;Node25 -->
<g id="edge47_Node000003_Node000025" class="edge">
<title>Node3&#45;&gt;Node25</title>
<g id="a_edge47_Node000003_Node000025"><a xlink:title=" ">
<path fill="none" stroke="#63b8ff" d="M656.14,-225.45C666.22,-223.33 677.24,-221.3 687.5,-220 1032.22,-176.32 1122.25,-213.26 1468.5,-184 1469.61,-183.91 1470.73,-183.81 1471.86,-183.71"/>
<polygon fill="#63b8ff" stroke="#63b8ff" points="1472.57,-187.15 1482.18,-182.69 1471.88,-180.19 1472.57,-187.15"/>
</a>
</g>
</g>
<!-- Node7 -->
<g id="Node000007" class="node">
<title>Node7</title>
<g id="a_Node000007"><a xlink:title=" ">
<polygon fill="#e0e0e0" stroke="#999999" points="677.5,-19 627.5,-19 627.5,0 677.5,0 677.5,-19"/>
<text text-anchor="middle" x="652.5" y="-7" font-family="Helvetica,sans-Serif" font-size="10.00">cstdint</text>
</a>
</g>
</g>
<!-- Node6&#45;&gt;Node7 -->
<g id="edge6_Node000006_Node000007" class="edge">
<title>Node6&#45;&gt;Node7</title>
<g id="a_edge6_Node000006_Node000007"><a xlink:title=" ">
<path fill="none" stroke="#63b8ff" d="M1066.79,-55.68C960.91,-44.13 766.76,-22.96 687.55,-14.32"/>
<polygon fill="#63b8ff" stroke="#63b8ff" points="687.91,-10.84 677.59,-13.24 687.15,-17.8 687.91,-10.84"/>
</a>
</g>
</g>
<!-- Node8&#45;&gt;Node6 -->
<g id="edge8_Node000008_Node000006" class="edge">
<title>Node8&#45;&gt;Node6</title>
<g id="a_edge8_Node000008_Node000006"><a xlink:title=" ">
<path fill="none" stroke="#63b8ff" d="M1542.05,-111.89C1461.09,-102.59 1313.01,-85.56 1220.5,-74.93"/>
<polygon fill="#63b8ff" stroke="#63b8ff" points="1220.67,-71.42 1210.33,-73.76 1219.87,-78.38 1220.67,-71.42"/>
</a>
</g>
</g>
<!-- Node8&#45;&gt;Node9 -->
<g id="edge9_Node000008_Node000009" class="edge">
<title>Node8&#45;&gt;Node9</title>
<g id="a_edge9_Node000008_Node000009"><a xlink:title=" ">
<path fill="none" stroke="#63b8ff" d="M1581.83,-109.98C1564.21,-101.5 1536.92,-88.35 1516.57,-78.54"/>
<polygon fill="#63b8ff" stroke="#63b8ff" points="1518.02,-75.36 1507.49,-74.17 1514.98,-81.66 1518.02,-75.36"/>
</a>
</g>
</g>
<!-- Node10 -->
<g id="Node000010" class="node">
<title>Node10</title>
<g id="a_Node000010"><a xlink:title=" ">
<polygon fill="#e0e0e0" stroke="#999999" points="1686.5,-74 1562.5,-74 1562.5,-55 1686.5,-55 1686.5,-74"/>
<text text-anchor="middle" x="1624.5" y="-62" font-family="Helvetica,sans-Serif" font-size="10.00">AMReX_Interpolater.H</text>
</a>
</g>
</g>
<!-- Node8&#45;&gt;Node10 -->
<g id="edge10_Node000008_Node000010" class="edge">
<title>Node8&#45;&gt;Node10</title>
<g id="a_edge10_Node000008_Node000010"><a xlink:title=" ">
<path fill="none" stroke="#63b8ff" d="M1603.63,-109.75C1607.01,-102.57 1611.92,-92.18 1616.12,-83.27"/>
<polygon fill="#63b8ff" stroke="#63b8ff" points="1619.35,-84.63 1620.45,-74.09 1613.02,-81.64 1619.35,-84.63"/>
</a>
</g>
</g>
<!-- Node11&#45;&gt;Node4 -->
<g id="edge12_Node000011_Node000004" class="edge">
<title>Node11&#45;&gt;Node4</title>
<g id="a_edge12_Node000011_Node000004"><a xlink:title=" ">
<path fill="none" stroke="#63b8ff" d="M461.46,-166.94C379.02,-155.15 214.52,-131.35 212.5,-129 206.99,-122.6 206.76,-116.19 212.5,-110 231.77,-89.23 653.3,-71.41 774.29,-66.71"/>
<polygon fill="#63b8ff" stroke="#63b8ff" points="774.55,-70.2 784.41,-66.32 774.28,-63.21 774.55,-70.2"/>
</a>
</g>
</g>
<!-- Node11&#45;&gt;Node5 -->
<g id="edge14_Node000011_Node000005" class="edge">
<title>Node11&#45;&gt;Node5</title>
<g id="a_edge14_Node000011_Node000005"><a xlink:title=" ">
<path fill="none" stroke="#63b8ff" d="M519.55,-164.98C530.96,-156.92 548.33,-144.65 561.93,-135.03"/>
<polygon fill="#63b8ff" stroke="#63b8ff" points="564.08,-137.8 570.23,-129.17 560.04,-132.08 564.08,-137.8"/>
</a>
</g>
</g>
<!-- Node11&#45;&gt;Node6 -->
<g id="edge21_Node000011_Node000006" class="edge">
<title>Node11&#45;&gt;Node6</title>
<g id="a_edge21_Node000011_Node000006"><a xlink:title=" ">
<path fill="none" stroke="#63b8ff" d="M507.24,-164.85C507.33,-150.83 509.79,-123.37 526.5,-110 571.64,-73.89 987.88,-78.63 1045.5,-74 1049.19,-73.7 1052.97,-73.39 1056.78,-73.07"/>
<polygon fill="#63b8ff" stroke="#63b8ff" points="1057.26,-76.54 1066.92,-72.2 1056.66,-69.57 1057.26,-76.54"/>
</a>
</g>
</g>
<!-- Node11&#45;&gt;Node9 -->
<g id="edge16_Node000011_Node000009" class="edge">
<title>Node11&#45;&gt;Node9</title>
<g id="a_edge16_Node000011_Node000009"><a xlink:title=" ">
<path fill="none" stroke="#63b8ff" d="M553.68,-170.24C667.25,-162.13 957.92,-140.89 1054.5,-129 1105.92,-122.67 1118.29,-117.79 1169.5,-110 1257.8,-96.57 1360.06,-82.63 1424.75,-74.01"/>
<polygon fill="#63b8ff" stroke="#63b8ff" points="1425.35,-77.46 1434.8,-72.67 1424.42,-70.52 1425.35,-77.46"/>
</a>
</g>
</g>
<!-- Node12 -->
<g id="Node000012" class="node">
<title>Node12</title>
<g id="a_Node000012"><a xlink:title=" ">
<polygon fill="#e0e0e0" stroke="#999999" points="397.5,-129 339.5,-129 339.5,-110 397.5,-110 397.5,-129"/>
<text text-anchor="middle" x="368.5" y="-117" font-family="Helvetica,sans-Serif" font-size="10.00">memory</text>
</a>
</g>
</g>
<!-- Node11&#45;&gt;Node12 -->
<g id="edge13_Node000011_Node000012" class="edge">
<title>Node11&#45;&gt;Node12</title>
<g id="a_edge13_Node000011_Node000012"><a xlink:title=" ">
<path fill="none" stroke="#63b8ff" d="M485.17,-164.98C462.3,-156.27 426.54,-142.63 400.64,-132.75"/>
<polygon fill="#63b8ff" stroke="#63b8ff" points="401.83,-129.46 391.24,-129.17 399.34,-136 401.83,-129.46"/>
</a>
</g>
</g>
<!-- Node13 -->
<g id="Node000013" class="node">
<title>Node13</title>
<g id="a_Node000013"><a xlink:title=" ">
<polygon fill="#e0e0e0" stroke="#999999" points="479.5,-129 415.5,-129 415.5,-110 479.5,-110 479.5,-129"/>
<text text-anchor="middle" x="447.5" y="-117" font-family="Helvetica,sans-Serif" font-size="10.00">algorithm</text>
</a>
</g>
</g>
<!-- Node11&#45;&gt;Node13 -->
<g id="edge15_Node000011_Node000013" class="edge">
<title>Node11&#45;&gt;Node13</title>
<g id="a_edge15_Node000011_Node000013"><a xlink:title=" ">
<path fill="none" stroke="#63b8ff" d="M497.86,-164.98C488.99,-157.15 475.63,-145.34 464.89,-135.86"/>
<polygon fill="#63b8ff" stroke="#63b8ff" points="467.13,-133.17 457.32,-129.17 462.49,-138.41 467.13,-133.17"/>
</a>
</g>
</g>
<!-- Node14 -->
<g id="Node000014" class="node">
<title>Node14</title>
<g id="a_Node000014"><a xlink:title=" ">
<polygon fill="#e0e0e0" stroke="#999999" points="321,-129 222,-129 222,-110 321,-110 321,-129"/>
<text text-anchor="middle" x="271.5" y="-117" font-family="Helvetica,sans-Serif" font-size="10.00">AMReX_BCRec.H</text>
</a>
</g>
</g>
<!-- Node11&#45;&gt;Node14 -->
<g id="edge17_Node000011_Node000014" class="edge">
<title>Node11&#45;&gt;Node14</title>
<g id="a_edge17_Node000011_Node000014"><a xlink:title=" ">
<path fill="none" stroke="#63b8ff" d="M469.58,-164.98C428.85,-155.84 364,-141.27 319.68,-131.32"/>
<polygon fill="#63b8ff" stroke="#63b8ff" points="320.24,-127.86 309.71,-129.08 318.7,-134.69 320.24,-127.86"/>
</a>
</g>
</g>
<!-- Node15 -->
<g id="Node000015" class="node">
<title>Node15</title>
<g id="a_Node000015"><a xlink:title=" ">
<polygon fill="#e0e0e0" stroke="#999999" points="87,-129 0,-129 0,-110 87,-110 87,-129"/>
<text text-anchor="middle" x="43.5" y="-117" font-family="Helvetica,sans-Serif" font-size="10.00">AMReX_Gpu.H</text>
</a>
</g>
</g>
<!-- Node11&#45;&gt;Node15 -->
<g id="edge18_Node000011_Node000015" class="edge">
<title>Node11&#45;&gt;Node15</title>
<g id="a_edge18_Node000011_Node000015"><a xlink:title=" ">
<path fill="none" stroke="#63b8ff" d="M461.4,-168.89C386.32,-161.28 233.02,-145.3 103.5,-129 101.42,-128.74 99.3,-128.47 97.16,-128.19"/>
<polygon fill="#63b8ff" stroke="#63b8ff" points="97.44,-124.69 87.06,-126.83 96.51,-131.63 97.44,-124.69"/>
</a>
</g>
</g>
<!-- Node16 -->
<g id="Node000016" class="node">
<title>Node16</title>
<g id="a_Node000016"><a xlink:href="incflo__enums_8_h.html" target="_top" xlink:title=" ">
<polygon fill="white" stroke="#666666" points="479,-74 370,-74 370,-55 479,-55 479,-74"/>
<text text-anchor="middle" x="424.5" y="-62" font-family="Helvetica,sans-Serif" font-size="10.00">src/incflo_enums.H</text>
</a>
</g>
</g>
<!-- Node11&#45;&gt;Node16 -->
<g id="edge19_Node000011_Node000016" class="edge">
<title>Node11&#45;&gt;Node16</title>
<g id="a_edge19_Node000011_Node000016"><a xlink:title=" ">
<path fill="none" stroke="#63b8ff" d="M461.4,-168.85C373.25,-159.74 188.69,-139.52 179.5,-129 173.94,-122.64 174.09,-116.48 179.5,-110 202.05,-82.99 294.99,-72.33 359.68,-68.16"/>
<polygon fill="#63b8ff" stroke="#63b8ff" points="360.04,-71.64 369.81,-67.54 359.61,-64.66 360.04,-71.64"/>
</a>
</g>
</g>
<!-- Node17 -->
<g id="Node000017" class="node">
<title>Node17</title>
<g id="a_Node000017"><a xlink:href="_view_field_8_h.html" target="_top" xlink:title=" ">
<polygon fill="white" stroke="#666666" points="1045.5,-129 929.5,-129 929.5,-110 1045.5,-110 1045.5,-129"/>
<text text-anchor="middle" x="987.5" y="-117" font-family="Helvetica,sans-Serif" font-size="10.00">src/core/ViewField.H</text>
</a>
</g>
</g>
<!-- Node11&#45;&gt;Node17 -->
<g id="edge22_Node000011_Node000017" class="edge">
<title>Node11&#45;&gt;Node17</title>
<g id="a_edge22_Node000011_Node000017"><a xlink:title=" ">
<path fill="none" stroke="#63b8ff" d="M553.52,-168.42C638.4,-159.05 819.94,-139 919.21,-128.04"/>
<polygon fill="#63b8ff" stroke="#63b8ff" points="919.87,-131.49 929.43,-126.91 919.1,-124.53 919.87,-131.49"/>
</a>
</g>
</g>
<!-- Node16&#45;&gt;Node7 -->
<g id="edge20_Node000016_Node000007" class="edge">
<title>Node16&#45;&gt;Node7</title>
<g id="a_edge20_Node000016_Node000007"><a xlink:title=" ">
<path fill="none" stroke="#63b8ff" d="M461.13,-54.98C504.16,-44.98 575.03,-28.51 617.39,-18.66"/>
<polygon fill="#63b8ff" stroke="#63b8ff" points="618.31,-22.04 627.25,-16.37 616.72,-15.22 618.31,-22.04"/>
</a>
</g>
</g>
<!-- Node17&#45;&gt;Node4 -->
<g id="edge23_Node000017_Node000004" class="edge">
<title>Node17&#45;&gt;Node4</title>
<g id="a_edge23_Node000017_Node000004"><a xlink:title=" ">
<path fill="none" stroke="#63b8ff" d="M958.42,-109.98C925.64,-100.39 872.49,-84.82 838.54,-74.88"/>
<polygon fill="#63b8ff" stroke="#63b8ff" points="839.24,-71.44 828.66,-71.99 837.28,-78.16 839.24,-71.44"/>
</a>
</g>
</g>
<!-- Node17&#45;&gt;Node6 -->
<g id="edge24_Node000017_Node000006" class="edge">
<title>Node17&#45;&gt;Node6</title>
<g id="a_edge24_Node000017_Node000006"><a xlink:title=" ">
<path fill="none" stroke="#63b8ff" d="M1011.76,-109.98C1036.82,-101.19 1076.13,-87.39 1104.33,-77.49"/>
<polygon fill="#63b8ff" stroke="#63b8ff" points="1105.52,-80.78 1113.8,-74.17 1103.2,-74.18 1105.52,-80.78"/>
</a>
</g>
</g>
<!-- Node17&#45;&gt;Node9 -->
<g id="edge25_Node000017_Node000009" class="edge">
<title>Node17&#45;&gt;Node9</title>
<g id="a_edge25_Node000017_Node000009"><a xlink:title=" ">
<path fill="none" stroke="#63b8ff" d="M1045.58,-112.37C1140.05,-102.39 1326.34,-82.73 1424.87,-72.32"/>
<polygon fill="#63b8ff" stroke="#63b8ff" points="1425.42,-75.78 1435,-71.25 1424.69,-68.82 1425.42,-75.78"/>
</a>
</g>
</g>
<!-- Node18 -->
<g id="Node000018" class="node">
<title>Node18</title>
<g id="a_Node000018"><a xlink:title=" ">
<polygon fill="#e0e0e0" stroke="#999999" points="1036.5,-74 938.5,-74 938.5,-55 1036.5,-55 1036.5,-74"/>
<text text-anchor="middle" x="987.5" y="-62" font-family="Helvetica,sans-Serif" font-size="10.00">AMReX_Vector.H</text>
</a>
</g>
</g>
<!-- Node17&#45;&gt;Node18 -->
<g id="edge26_Node000017_Node000018" class="edge">
<title>Node17&#45;&gt;Node18</title>
<g id="a_edge26_Node000017_Node000018"><a xlink:title=" ">
<path fill="none" stroke="#63b8ff" d="M987.5,-109.75C987.5,-102.8 987.5,-92.85 987.5,-84.13"/>
<polygon fill="#63b8ff" stroke="#63b8ff" points="991,-84.09 987.5,-74.09 984,-84.09 991,-84.09"/>
</a>
</g>
</g>
<!-- Node19&#45;&gt;Node4 -->
<g id="edge28_Node000019_Node000004" class="edge">
<title>Node19&#45;&gt;Node4</title>
<g id="a_edge28_Node000019_Node000004"><a xlink:title=" ">
<path fill="none" stroke="#63b8ff" d="M828.63,-164.74C823.15,-156.07 815.27,-142.21 811.5,-129 807.37,-114.51 806.22,-97.45 806.05,-84.66"/>
<polygon fill="#63b8ff" stroke="#63b8ff" points="809.55,-84.34 806.11,-74.32 802.55,-84.3 809.55,-84.34"/>
</a>
</g>
</g>
<!-- Node19&#45;&gt;Node6 -->
<g id="edge29_Node000019_Node000006" class="edge">
<title>Node19&#45;&gt;Node6</title>
<g id="a_edge29_Node000019_Node000006"><a xlink:title=" ">
<path fill="none" stroke="#63b8ff" d="M886.52,-165.72C941.77,-156.97 1025.1,-142.25 1054.5,-129 1080.9,-117.1 1106.79,-95.62 1122.69,-80.97"/>
<polygon fill="#63b8ff" stroke="#63b8ff" points="1125.18,-83.43 1130.05,-74.01 1120.37,-78.34 1125.18,-83.43"/>
</a>
</g>
</g>
<!-- Node19&#45;&gt;Node20 -->
<g id="edge30_Node000019_Node000020" class="edge">
<title>Node19&#45;&gt;Node20</title>
<g id="a_edge30_Node000019_Node000020"><a xlink:title=" ">
<path fill="none" stroke="#63b8ff" d="M813.45,-164.98C792.09,-156.34 758.8,-142.87 734.44,-133.02"/>
<polygon fill="#63b8ff" stroke="#63b8ff" points="735.51,-129.68 724.93,-129.17 732.89,-136.17 735.51,-129.68"/>
</a>
</g>
</g>
<!-- Node21&#45;&gt;Node4 -->
<g id="edge32_Node000021_Node000004" class="edge">
<title>Node21&#45;&gt;Node4</title>
<g id="a_edge32_Node000021_Node000004"><a xlink:title=" ">
<path fill="none" stroke="#63b8ff" d="M1189.23,-172.26C1120.9,-169.27 1010.52,-159.59 920.5,-129 904.48,-123.55 902.25,-118.3 887.5,-110 868.68,-99.41 847.26,-87.66 831.18,-78.89"/>
<polygon fill="#63b8ff" stroke="#63b8ff" points="832.84,-75.81 822.38,-74.1 829.49,-81.96 832.84,-75.81"/>
</a>
</g>
</g>
<!-- Node21&#45;&gt;Node6 -->
<g id="edge34_Node000021_Node000006" class="edge">
<title>Node21&#45;&gt;Node6</title>
<g id="a_edge34_Node000021_Node000006"><a xlink:title=" ">
<path fill="none" stroke="#63b8ff" d="M1317.59,-168.85C1374.99,-162.25 1445.67,-146.6 1414.5,-110 1389.89,-81.11 1292.34,-70.91 1220.16,-67.35"/>
<polygon fill="#63b8ff" stroke="#63b8ff" points="1220.3,-63.85 1210.15,-66.89 1219.98,-70.84 1220.3,-63.85"/>
</a>
</g>
</g>
<!-- Node21&#45;&gt;Node9 -->
<g id="edge36_Node000021_Node000009" class="edge">
<title>Node21&#45;&gt;Node9</title>
<g id="a_edge36_Node000021_Node000009"><a xlink:title=" ">
<path fill="none" stroke="#63b8ff" d="M1317.92,-166.63C1353.37,-160.66 1397.03,-149.56 1431.5,-129 1450.85,-117.46 1467.55,-97.45 1477.99,-82.97"/>
<polygon fill="#63b8ff" stroke="#63b8ff" points="1481.11,-84.62 1483.92,-74.4 1475.35,-80.64 1481.11,-84.62"/>
</a>
</g>
</g>
<!-- Node21&#45;&gt;Node17 -->
<g id="edge35_Node000021_Node000017" class="edge">
<title>Node21&#45;&gt;Node17</title>
<g id="a_edge35_Node000021_Node000017"><a xlink:title=" ">
<path fill="none" stroke="#63b8ff" d="M1210.76,-164.98C1164.46,-155.76 1090.52,-141.03 1040.54,-131.07"/>
<polygon fill="#63b8ff" stroke="#63b8ff" points="1041.06,-127.6 1030.57,-129.08 1039.7,-134.47 1041.06,-127.6"/>
</a>
</g>
</g>
<!-- Node21&#45;&gt;Node18 -->
<g id="edge37_Node000021_Node000018" class="edge">
<title>Node21&#45;&gt;Node18</title>
<g id="a_edge37_Node000021_Node000018"><a xlink:title=" ">
<path fill="none" stroke="#63b8ff" d="M1309.96,-164.94C1355.14,-155.78 1407.06,-138.56 1381.5,-110 1333.34,-56.18 1130.24,-82.29 1058.5,-74 1054.66,-73.56 1050.7,-73.09 1046.7,-72.62"/>
<polygon fill="#63b8ff" stroke="#63b8ff" points="1047.11,-69.15 1036.76,-71.45 1046.29,-76.1 1047.11,-69.15"/>
</a>
</g>
</g>
<!-- Node22 -->
<g id="Node000022" class="node">
<title>Node22</title>
<g id="a_Node000022"><a xlink:title=" ">
<polygon fill="#e0e0e0" stroke="#999999" points="1223,-129 1178,-129 1178,-110 1223,-110 1223,-129"/>
<text text-anchor="middle" x="1200.5" y="-117" font-family="Helvetica,sans-Serif" font-size="10.00">utility</text>
</a>
</g>
</g>
<!-- Node21&#45;&gt;Node22 -->
<g id="edge33_Node000021_Node000022" class="edge">
<title>Node21&#45;&gt;Node22</title>
<g id="a_edge33_Node000021_Node000022"><a xlink:title=" ">
<path fill="none" stroke="#63b8ff" d="M1244.75,-164.75C1237.03,-157.03 1225.6,-145.6 1216.28,-136.28"/>
<polygon fill="#63b8ff" stroke="#63b8ff" points="1218.64,-133.69 1209.09,-129.09 1213.69,-138.64 1218.64,-133.69"/>
</a>
</g>
</g>
<!-- Node23 -->
<g id="Node000023" class="node">
<title>Node23</title>
<g id="a_Node000023"><a xlink:title=" ">
<polygon fill="#e0e0e0" stroke="#999999" points="1372,-129 1241,-129 1241,-110 1372,-110 1372,-129"/>
<text text-anchor="middle" x="1306.5" y="-117" font-family="Helvetica,sans-Serif" font-size="10.00">AMReX_PhysBCFunct.H</text>
</a>
</g>
</g>
<!-- Node21&#45;&gt;Node23 -->
<g id="edge38_Node000021_Node000023" class="edge">
<title>Node21&#45;&gt;Node23</title>
<g id="a_edge38_Node000021_Node000023"><a xlink:title=" ">
<path fill="none" stroke="#63b8ff" d="M1262.25,-164.75C1269.97,-157.03 1281.4,-145.6 1290.72,-136.28"/>
<polygon fill="#63b8ff" stroke="#63b8ff" points="1293.31,-138.64 1297.91,-129.09 1288.36,-133.69 1293.31,-138.64"/>
</a>
</g>
</g>
<!-- Node24&#45;&gt;Node4 -->
<g id="edge40_Node000024_Node000004" class="edge">
<title>Node24&#45;&gt;Node4</title>
<g id="a_edge40_Node000024_Node000004"><a xlink:title=" ">
<path fill="none" stroke="#63b8ff" d="M967.47,-164.84C937.27,-146.2 865.83,-102.11 829.13,-79.46"/>
<polygon fill="#63b8ff" stroke="#63b8ff" points="830.94,-76.47 820.59,-74.2 827.26,-82.43 830.94,-76.47"/>
</a>
</g>
</g>
<!-- Node24&#45;&gt;Node6 -->
<g id="edge42_Node000024_Node000006" class="edge">
<title>Node24&#45;&gt;Node6</title>
<g id="a_edge42_Node000024_Node000006"><a xlink:title=" ">
<path fill="none" stroke="#63b8ff" d="M1012.85,-164.88C1035.15,-157.72 1065.03,-145.94 1087.5,-129 1104.38,-116.28 1118.94,-96.76 1128.13,-82.72"/>
<polygon fill="#63b8ff" stroke="#63b8ff" points="1131.24,-84.36 1133.6,-74.03 1125.31,-80.63 1131.24,-84.36"/>
</a>
</g>
</g>
<!-- Node24&#45;&gt;Node17 -->
<g id="edge43_Node000024_Node000017" class="edge">
<title>Node24&#45;&gt;Node17</title>
<g id="a_edge43_Node000024_Node000017"><a xlink:title=" ">
<path fill="none" stroke="#63b8ff" d="M982.49,-164.75C983.28,-157.8 984.4,-147.85 985.39,-139.13"/>
<polygon fill="#63b8ff" stroke="#63b8ff" points="988.88,-139.42 986.53,-129.09 981.92,-138.63 988.88,-139.42"/>
</a>
</g>
</g>
<!-- Node24&#45;&gt;Node18 -->
<g id="edge45_Node000024_Node000018" class="edge">
<title>Node24&#45;&gt;Node18</title>
<g id="a_edge45_Node000024_Node000018"><a xlink:title=" ">
<path fill="none" stroke="#63b8ff" d="M962.09,-164.96C939.88,-153.87 908.07,-133.17 920.5,-110 928.01,-96 942.07,-85.66 955.38,-78.48"/>
<polygon fill="#63b8ff" stroke="#63b8ff" points="956.98,-81.6 964.39,-74.02 953.87,-75.33 956.98,-81.6"/>
</a>
</g>
</g>
<!-- Node24&#45;&gt;Node20 -->
<g id="edge44_Node000024_Node000020" class="edge">
<title>Node24&#45;&gt;Node20</title>
<g id="a_edge44_Node000024_Node000020"><a xlink:title=" ">
<path fill="none" stroke="#63b8ff" d="M936.83,-164.98C888.34,-155.74 810.85,-140.97 758.61,-131.01"/>
<polygon fill="#63b8ff" stroke="#63b8ff" points="758.99,-127.52 748.52,-129.08 757.68,-134.39 758.99,-127.52"/>
</a>
</g>
</g>
<!-- Node24&#45;&gt;Node22 -->
<g id="edge41_Node000024_Node000022" class="edge">
<title>Node24&#45;&gt;Node22</title>
<g id="a_edge41_Node000024_Node000022"><a xlink:title=" ">
<path fill="none" stroke="#63b8ff" d="M1016.69,-164.98C1058.4,-154.89 1127.35,-138.2 1167.89,-128.39"/>
<polygon fill="#63b8ff" stroke="#63b8ff" points="1168.9,-131.75 1177.8,-125.99 1167.26,-124.94 1168.9,-131.75"/>
</a>
</g>
</g>
<!-- Node24&#45;&gt;Node23 -->
<g id="edge46_Node000024_Node000023" class="edge">
<title>Node24&#45;&gt;Node23</title>
<g id="a_edge46_Node000024_Node000023"><a xlink:title=" ">
<path fill="none" stroke="#63b8ff" d="M1033.72,-164.98C1091.08,-155.63 1183.17,-140.61 1244.24,-130.65"/>
<polygon fill="#63b8ff" stroke="#63b8ff" points="1244.84,-134.1 1254.14,-129.04 1243.71,-127.19 1244.84,-134.1"/>
</a>
</g>
</g>
<!-- Node26&#45;&gt;Node27 -->
<g id="edge51_Node000026_Node000027" class="edge">
<title>Node26&#45;&gt;Node27</title>
<g id="a_edge51_Node000026_Node000027"><a xlink:title=" ">
<path fill="none" stroke="#63b8ff" d="M311.2,-225.49C270.92,-215.2 203.02,-197.86 158.73,-186.54"/>
<polygon fill="#63b8ff" stroke="#63b8ff" points="159.39,-183.1 148.84,-184.02 157.66,-189.88 159.39,-183.1"/>
</a>
</g>
</g>
<!-- Node28 -->
<g id="Node000028" class="node">
<title>Node28</title>
<g id="a_Node000028"><a xlink:title=" ">
<polygon fill="#e0e0e0" stroke="#999999" points="265.5,-184 179.5,-184 179.5,-165 265.5,-165 265.5,-184"/>
<text text-anchor="middle" x="222.5" y="-172" font-family="Helvetica,sans-Serif" font-size="10.00">AMReX_Box.H</text>
</a>
</g>
</g>
<!-- Node26&#45;&gt;Node28 -->
<g id="edge52_Node000026_Node000028" class="edge">
<title>Node26&#45;&gt;Node28</title>
<g id="a_edge52_Node000026_Node000028"><a xlink:title=" ">
<path fill="none" stroke="#63b8ff" d="M326.76,-225.49C306.43,-215.75 272.89,-199.66 249.36,-188.38"/>
<polygon fill="#63b8ff" stroke="#63b8ff" points="250.79,-185.18 240.26,-184.02 247.76,-191.5 250.79,-185.18"/>
</a>
</g>
</g>
<!-- Node29 -->
<g id="Node000029" class="node">
<title>Node29</title>
<g id="a_Node000029"><a xlink:title=" ">
<polygon fill="#e0e0e0" stroke="#999999" points="405.5,-184 283.5,-184 283.5,-165 405.5,-165 405.5,-184"/>
<text text-anchor="middle" x="344.5" y="-172" font-family="Helvetica,sans-Serif" font-size="10.00">AMReX_Orientation.H</text>
</a>
</g>
</g>
<!-- Node26&#45;&gt;Node29 -->
<g id="edge53_Node000026_Node000029" class="edge">
<title>Node26&#45;&gt;Node29</title>
<g id="a_edge53_Node000026_Node000029"><a xlink:title=" ">
<path fill="none" stroke="#63b8ff" d="M344.5,-225.37C344.5,-217.25 344.5,-204.81 344.5,-194.39"/>
<polygon fill="#63b8ff" stroke="#63b8ff" points="348,-194.17 344.5,-184.17 341,-194.17 348,-194.17"/>
</a>
</g>
</g>
<!-- Node26&#45;&gt;Node30 -->
<g id="edge54_Node000026_Node000030" class="edge">
<title>Node26&#45;&gt;Node30</title>
<g id="a_edge54_Node000026_Node000030"><a xlink:title=" ">
<path fill="none" stroke="#63b8ff" d="M396.75,-225.56C462.07,-215 573.76,-196.95 643.68,-185.65"/>
<polygon fill="#63b8ff" stroke="#63b8ff" points="644.36,-189.09 653.68,-184.04 643.25,-182.18 644.36,-189.09"/>
</a>
</g>
</g>
<!-- Node31&#45;&gt;Node15 -->
<g id="edge57_Node000031_Node000015" class="edge">
<title>Node31&#45;&gt;Node15</title>
<g id="a_edge57_Node000031_Node000015"><a xlink:title=" ">
<path fill="none" stroke="#63b8ff" d="M94.99,-220C83.28,-211 69.23,-198.33 60.5,-184 52.23,-170.43 47.93,-152.84 45.72,-139.62"/>
<polygon fill="#63b8ff" stroke="#63b8ff" points="49.14,-138.74 44.28,-129.33 42.2,-139.72 49.14,-138.74"/>
</a>
</g>
</g>
<!-- Node31&#45;&gt;Node27 -->
<g id="edge56_Node000031_Node000027" class="edge">
<title>Node31&#45;&gt;Node27</title>
<g id="a_edge56_Node000031_Node000027"><a xlink:title=" ">
<path fill="none" stroke="#63b8ff" d="M115.5,-219.84C115.5,-212.21 115.5,-202.7 115.5,-194.45"/>
<polygon fill="#63b8ff" stroke="#63b8ff" points="119,-194.27 115.5,-184.27 112,-194.27 119,-194.27"/>
</a>
</g>
</g>
</g>
</svg>

<g id="navigator" transform="translate(0 0)" fill="#404254">
  <rect fill="#f2f5e9" fill-opacity="0.5" stroke="#606060" stroke-width=".5" x="0" y="0" width="60" height="60"/>
  <use id="zoomplus" xlink:href="#zoomPlus" x="17" y="9" onmousedown="handleZoom(evt,'in')"/>
  <use id="zoomminus" xlink:href="#zoomMin" x="42" y="9" onmousedown="handleZoom(evt,'out')"/>
  <use id="reset" xlink:href="#resetDef" x="30" y="36" onmousedown="handleReset()"/>
   <use id="arrowup" xlink:href="#arrowUp" x="0" y="0" onmousedown="handlePan(0,-1)"/>
  <use id="arrowright" xlink:href="#arrowRight" x="0" y="0" onmousedown="handlePan(1,0)"/>
  <use id="arrowdown" xlink:href="#arrowDown" x="0" y="0" onmousedown="handlePan(0,1)"/>
  <use id="arrowleft" xlink:href="#arrowLeft" x="0" y="0" onmousedown="handlePan(-1,0)"/>
</g>
<svg viewBox="0 0 15 15" width="100%" height="30px" preserveAspectRatio="xMaxYMin meet">
 <g id="arrow_out" transform="scale(0.3 0.3)">
  <a xlink:href="filter_8_h__incl_org.svg" target="_base">
   <rect id="button" ry="5" rx="5" y="6" x="6" height="38" width="38"
        fill="#f2f5e9" fill-opacity="0.5" stroke="#606060" stroke-width="1.0"/>
   <path id="arrow"
     d="M 11.500037,31.436501 C 11.940474,20.09759 22.043105,11.32322 32.158766,21.979434 L 37.068811,17.246167 C 37.068811,17.246167 37.088388,32 37.088388,32 L 22.160133,31.978069 C 22.160133,31.978069 26.997745,27.140456 26.997745,27.140456 C 18.528582,18.264221 13.291696,25.230495 11.500037,31.436501 z"
     style="fill:#404040;"/>
  </a>
 </g>
</svg>

<style type='text/css'>
<![CDATA[
[data-mouse-over-selected='false'] { opacity: 0.7; }
[data-mouse-over-selected='true']  { opacity: 1.0; }
]]>
</style>
<script type="application/ecmascript"><![CDATA[
document.addEventListener('DOMContentLoaded', (event) => {
  highlightEdges();
  highlightAdjacentNodes();
});
]]></script>
</svg>
