<?xml version="1.0" encoding="UTF-8" standalone="no"?>
<!DOCTYPE svg PUBLIC "-//W3C//DTD SVG 1.1//EN"
 "http://www.w3.org/Graphics/SVG/1.1/DTD/svg11.dtd">
<!-- Generated by graphviz version 2.43.0 (0)
 -->
<!-- Title: /home/runner/work/kynema&#45;sgf/kynema&#45;sgf/src/fvm/gradient.H Pages: 1 -->
<svg width="2265pt" height="390pt"
 viewBox="0.00 0.00 2265.00 390.00" xmlns="http://www.w3.org/2000/svg" xmlns:xlink="http://www.w3.org/1999/xlink">
<g id="graph0" class="graph" transform="scale(1 1) rotate(0) translate(4 386)">
<title>/home/runner/work/kynema&#45;sgf/kynema&#45;sgf/src/fvm/gradient.H</title>
<!-- Node1 -->
<g id="Node000001" class="node">
<title>Node1</title>
<g id="a_Node000001"><a xlink:title=" ">
<polygon fill="#999999" stroke="#666666" points="2148.5,-382 1997.5,-382 1997.5,-341 2148.5,-341 2148.5,-382"/>
<text text-anchor="start" x="2005.5" y="-370" font-family="Helvetica,sans-Serif" font-size="10.00">/home/runner/work/kynema</text>
<text text-anchor="start" x="2005.5" y="-359" font-family="Helvetica,sans-Serif" font-size="10.00">&#45;sgf/kynema&#45;sgf/src/fvm</text>
<text text-anchor="middle" x="2073" y="-348" font-family="Helvetica,sans-Serif" font-size="10.00">/gradient.H</text>
</a>
</g>
</g>
<!-- Node2 -->
<g id="Node000002" class="node">
<title>Node2</title>
<g id="a_Node000002"><a xlink:href="fvm__utils_8_h.html" target="_top" xlink:title=" ">
<polygon fill="white" stroke="#666666" points="2087.5,-305 1974.5,-305 1974.5,-286 2087.5,-286 2087.5,-305"/>
<text text-anchor="middle" x="2031" y="-293" font-family="Helvetica,sans-Serif" font-size="10.00">src/fvm/fvm_utils.H</text>
</a>
</g>
</g>
<!-- Node1&#45;&gt;Node2 -->
<g id="edge1_Node000001_Node000002" class="edge">
<title>Node1&#45;&gt;Node2</title>
<g id="a_edge1_Node000001_Node000002"><a xlink:title=" ">
<path fill="none" stroke="#63b8ff" d="M2060.17,-340.95C2054.49,-332.3 2047.87,-322.2 2042.37,-313.82"/>
<polygon fill="#63b8ff" stroke="#63b8ff" points="2045.16,-311.7 2036.75,-305.26 2039.31,-315.54 2045.16,-311.7"/>
</a>
</g>
</g>
<!-- Node30 -->
<g id="Node000030" class="node">
<title>Node30</title>
<g id="a_Node000030"><a xlink:title=" ">
<polygon fill="#e0e0e0" stroke="#999999" points="1837.5,-184 1722.5,-184 1722.5,-165 1837.5,-165 1837.5,-184"/>
<text text-anchor="middle" x="1780" y="-172" font-family="Helvetica,sans-Serif" font-size="10.00">AMReX_Geometry.H</text>
</a>
</g>
</g>
<!-- Node1&#45;&gt;Node30 -->
<g id="edge60_Node000001_Node000030" class="edge">
<title>Node1&#45;&gt;Node30</title>
<g id="a_edge60_Node000001_Node000030"><a xlink:title=" ">
<path fill="none" stroke="#63b8ff" d="M2032.18,-340.89C2011.94,-330.77 1987.32,-317.87 1966,-305 1902.93,-266.91 1832.6,-215.25 1799.38,-190.25"/>
<polygon fill="#63b8ff" stroke="#63b8ff" points="1801.49,-187.46 1791.4,-184.22 1797.27,-193.04 1801.49,-187.46"/>
</a>
</g>
</g>
<!-- Node32 -->
<g id="Node000032" class="node">
<title>Node32</title>
<g id="a_Node000032"><a xlink:title=" ">
<polygon fill="#e0e0e0" stroke="#999999" points="2257,-244.5 2159,-244.5 2159,-225.5 2257,-225.5 2257,-244.5"/>
<text text-anchor="middle" x="2208" y="-232.5" font-family="Helvetica,sans-Serif" font-size="10.00">AMReX_MFIter.H</text>
</a>
</g>
</g>
<!-- Node1&#45;&gt;Node32 -->
<g id="edge61_Node000001_Node000032" class="edge">
<title>Node1&#45;&gt;Node32</title>
<g id="a_edge61_Node000001_Node000032"><a xlink:title=" ">
<path fill="none" stroke="#63b8ff" d="M2086.96,-340.86C2098.74,-325.05 2116.59,-302.77 2135,-286 2150.14,-272.21 2169.31,-259.22 2184.21,-249.94"/>
<polygon fill="#63b8ff" stroke="#63b8ff" points="2186.14,-252.86 2192.86,-244.67 2182.5,-246.89 2186.14,-252.86"/>
</a>
</g>
</g>
<!-- Node33 -->
<g id="Node000033" class="node">
<title>Node33</title>
<g id="a_Node000033"><a xlink:title=" ">
<polygon fill="#e0e0e0" stroke="#999999" points="2244,-305 2144,-305 2144,-286 2244,-286 2244,-305"/>
<text text-anchor="middle" x="2194" y="-293" font-family="Helvetica,sans-Serif" font-size="10.00">AMReX_Array4.H</text>
</a>
</g>
</g>
<!-- Node1&#45;&gt;Node33 -->
<g id="edge59_Node000001_Node000033" class="edge">
<title>Node1&#45;&gt;Node33</title>
<g id="a_edge59_Node000001_Node000033"><a xlink:title=" ">
<path fill="none" stroke="#63b8ff" d="M2109.96,-340.95C2128.9,-330.93 2151.49,-318.99 2168.47,-310"/>
<polygon fill="#63b8ff" stroke="#63b8ff" points="2170.55,-312.86 2177.76,-305.09 2167.28,-306.67 2170.55,-312.86"/>
</a>
</g>
</g>
<!-- Node3 -->
<g id="Node000003" class="node">
<title>Node3</title>
<g id="a_Node000003"><a xlink:href="_field_repo_8_h.html" target="_top" xlink:title=" ">
<polygon fill="white" stroke="#666666" points="1128,-244.5 1012,-244.5 1012,-225.5 1128,-225.5 1128,-244.5"/>
<text text-anchor="middle" x="1070" y="-232.5" font-family="Helvetica,sans-Serif" font-size="10.00">src/core/FieldRepo.H</text>
</a>
</g>
</g>
<!-- Node2&#45;&gt;Node3 -->
<g id="edge2_Node000002_Node000003" class="edge">
<title>Node2&#45;&gt;Node3</title>
<g id="a_edge2_Node000002_Node000003"><a xlink:title=" ">
<path fill="none" stroke="#63b8ff" d="M1974.47,-291.06C1807.92,-280.92 1319.43,-251.18 1138.46,-240.17"/>
<polygon fill="#63b8ff" stroke="#63b8ff" points="1138.47,-236.66 1128.28,-239.55 1138.05,-243.65 1138.47,-236.66"/>
</a>
</g>
</g>
<!-- Node26 -->
<g id="Node000026" class="node">
<title>Node26</title>
<g id="a_Node000026"><a xlink:href="stencils_8_h.html" target="_top" xlink:title="Second&#45;order finite volume discretization stencil coefficients.">
<polygon fill="white" stroke="#666666" points="2023,-244.5 1919,-244.5 1919,-225.5 2023,-225.5 2023,-244.5"/>
<text text-anchor="middle" x="1971" y="-232.5" font-family="Helvetica,sans-Serif" font-size="10.00">src/fvm/stencils.H</text>
</a>
</g>
</g>
<!-- Node2&#45;&gt;Node26 -->
<g id="edge50_Node000002_Node000026" class="edge">
<title>Node2&#45;&gt;Node26</title>
<g id="a_edge50_Node000002_Node000026"><a xlink:title=" ">
<path fill="none" stroke="#63b8ff" d="M2022.15,-285.87C2013.02,-276.97 1998.58,-262.89 1987.36,-251.95"/>
<polygon fill="#63b8ff" stroke="#63b8ff" points="1989.49,-249.14 1979.89,-244.67 1984.61,-254.15 1989.49,-249.14"/>
</a>
</g>
</g>
<!-- Node31 -->
<g id="Node000031" class="node">
<title>Node31</title>
<g id="a_Node000031"><a xlink:href="math__ops_8_h.html" target="_top" xlink:title=" ">
<polygon fill="white" stroke="#666666" points="2140.5,-250 2041.5,-250 2041.5,-220 2140.5,-220 2140.5,-250"/>
<text text-anchor="start" x="2049.5" y="-238" font-family="Helvetica,sans-Serif" font-size="10.00">src/utilities/math</text>
<text text-anchor="middle" x="2091" y="-227" font-family="Helvetica,sans-Serif" font-size="10.00">_ops.H</text>
</a>
</g>
</g>
<!-- Node2&#45;&gt;Node31 -->
<g id="edge55_Node000002_Node000031" class="edge">
<title>Node2&#45;&gt;Node31</title>
<g id="a_edge55_Node000002_Node000031"><a xlink:title=" ">
<path fill="none" stroke="#63b8ff" d="M2039.85,-285.87C2047.54,-278.37 2059,-267.2 2069.13,-257.33"/>
<polygon fill="#63b8ff" stroke="#63b8ff" points="2071.81,-259.6 2076.52,-250.11 2066.92,-254.59 2071.81,-259.6"/>
</a>
</g>
</g>
<!-- Node2&#45;&gt;Node32 -->
<g id="edge58_Node000002_Node000032" class="edge">
<title>Node2&#45;&gt;Node32</title>
<g id="a_edge58_Node000002_Node000032"><a xlink:title=" ">
<path fill="none" stroke="#63b8ff" d="M2056.74,-285.99C2087.28,-275.9 2138.37,-259.01 2172.62,-247.69"/>
<polygon fill="#63b8ff" stroke="#63b8ff" points="2173.84,-250.98 2182.23,-244.52 2171.64,-244.33 2173.84,-250.98"/>
</a>
</g>
</g>
<!-- Node4 -->
<g id="Node000004" class="node">
<title>Node4</title>
<g id="a_Node000004"><a xlink:title=" ">
<polygon fill="#e0e0e0" stroke="#999999" points="902,-74 858,-74 858,-55 902,-55 902,-74"/>
<text text-anchor="middle" x="880" y="-62" font-family="Helvetica,sans-Serif" font-size="10.00">string</text>
</a>
</g>
</g>
<!-- Node3&#45;&gt;Node4 -->
<g id="edge3_Node000003_Node000004" class="edge">
<title>Node3&#45;&gt;Node4</title>
<g id="a_edge3_Node000003_Node000004"><a xlink:title=" ">
<path fill="none" stroke="#63b8ff" d="M1128.04,-234.84C1218.94,-234.62 1399.55,-227.99 1545,-184 1599.65,-167.47 1689.19,-151.52 1650,-110 1643.56,-103.17 1056.85,-74.13 912.04,-67.06"/>
<polygon fill="#63b8ff" stroke="#63b8ff" points="912.17,-63.56 902.01,-66.57 911.83,-70.55 912.17,-63.56"/>
</a>
</g>
</g>
<!-- Node5 -->
<g id="Node000005" class="node">
<title>Node5</title>
<g id="a_Node000005"><a xlink:title=" ">
<polygon fill="#e0e0e0" stroke="#999999" points="1353.5,-129 1260.5,-129 1260.5,-110 1353.5,-110 1353.5,-129"/>
<text text-anchor="middle" x="1307" y="-117" font-family="Helvetica,sans-Serif" font-size="10.00">unordered_map</text>
</a>
</g>
</g>
<!-- Node3&#45;&gt;Node5 -->
<g id="edge4_Node000003_Node000005" class="edge">
<title>Node3&#45;&gt;Node5</title>
<g id="a_edge4_Node000003_Node000005"><a xlink:title=" ">
<path fill="none" stroke="#63b8ff" d="M1093.49,-225.43C1118.52,-216.07 1159.12,-200.25 1193,-184 1225.35,-168.49 1261.31,-147.86 1284.02,-134.39"/>
<polygon fill="#63b8ff" stroke="#63b8ff" points="1286.11,-137.22 1292.9,-129.09 1282.52,-131.21 1286.11,-137.22"/>
</a>
</g>
</g>
<!-- Node6 -->
<g id="Node000006" class="node">
<title>Node6</title>
<g id="a_Node000006"><a xlink:href="_field_desc_types_8_h.html" target="_top" xlink:title=" ">
<polygon fill="white" stroke="#666666" points="819.5,-74 676.5,-74 676.5,-55 819.5,-55 819.5,-74"/>
<text text-anchor="middle" x="748" y="-62" font-family="Helvetica,sans-Serif" font-size="10.00">src/core/FieldDescTypes.H</text>
</a>
</g>
</g>
<!-- Node3&#45;&gt;Node6 -->
<g id="edge5_Node000003_Node000006" class="edge">
<title>Node3&#45;&gt;Node6</title>
<g id="a_edge5_Node000003_Node000006"><a xlink:title=" ">
<path fill="none" stroke="#63b8ff" d="M1048.48,-225.47C1025.13,-216.03 986.91,-200.01 955,-184 886.08,-149.42 807.89,-102.45 770.39,-79.41"/>
<polygon fill="#63b8ff" stroke="#63b8ff" points="772.11,-76.36 761.77,-74.09 768.44,-82.31 772.11,-76.36"/>
</a>
</g>
</g>
<!-- Node8 -->
<g id="Node000008" class="node">
<title>Node8</title>
<g id="a_Node000008"><a xlink:href="_field_utils_8_h.html" target="_top" xlink:title=" ">
<polygon fill="white" stroke="#666666" points="125,-129 11,-129 11,-110 125,-110 125,-129"/>
<text text-anchor="middle" x="68" y="-117" font-family="Helvetica,sans-Serif" font-size="10.00">src/core/FieldUtils.H</text>
</a>
</g>
</g>
<!-- Node3&#45;&gt;Node8 -->
<g id="edge7_Node000003_Node000008" class="edge">
<title>Node3&#45;&gt;Node8</title>
<g id="a_edge7_Node000003_Node000008"><a xlink:title=" ">
<path fill="none" stroke="#63b8ff" d="M1011.86,-233.11C820.73,-229.89 219.37,-217.19 139,-184 114.98,-174.08 93.69,-152.41 80.84,-137.15"/>
<polygon fill="#63b8ff" stroke="#63b8ff" points="83.29,-134.62 74.28,-129.05 77.85,-139.03 83.29,-134.62"/>
</a>
</g>
</g>
<!-- Node9 -->
<g id="Node000009" class="node">
<title>Node9</title>
<g id="a_Node000009"><a xlink:title=" ">
<polygon fill="#e0e0e0" stroke="#999999" points="251.5,-74 142.5,-74 142.5,-55 251.5,-55 251.5,-74"/>
<text text-anchor="middle" x="197" y="-62" font-family="Helvetica,sans-Serif" font-size="10.00">AMReX_MultiFab.H</text>
</a>
</g>
</g>
<!-- Node3&#45;&gt;Node9 -->
<g id="edge48_Node000003_Node000009" class="edge">
<title>Node3&#45;&gt;Node9</title>
<g id="a_edge48_Node000003_Node000009"><a xlink:title=" ">
<path fill="none" stroke="#63b8ff" d="M1011.83,-234.36C852.91,-234.69 414.28,-231.19 279,-184 238.61,-169.91 220.7,-166.44 200,-129 192.49,-115.42 192.33,-97.6 193.7,-84.29"/>
<polygon fill="#63b8ff" stroke="#63b8ff" points="197.17,-84.76 195.1,-74.37 190.24,-83.79 197.17,-84.76"/>
</a>
</g>
</g>
<!-- Node11 -->
<g id="Node000011" class="node">
<title>Node11</title>
<g id="a_Node000011"><a xlink:href="_field_8_h.html" target="_top" xlink:title=" ">
<polygon fill="white" stroke="#666666" points="1056,-184 964,-184 964,-165 1056,-165 1056,-184"/>
<text text-anchor="middle" x="1010" y="-172" font-family="Helvetica,sans-Serif" font-size="10.00">src/core/Field.H</text>
</a>
</g>
</g>
<!-- Node3&#45;&gt;Node11 -->
<g id="edge11_Node000003_Node000011" class="edge">
<title>Node3&#45;&gt;Node11</title>
<g id="a_edge11_Node000003_Node000011"><a xlink:title=" ">
<path fill="none" stroke="#63b8ff" d="M1061.15,-225.37C1052.02,-216.47 1037.58,-202.39 1026.36,-191.45"/>
<polygon fill="#63b8ff" stroke="#63b8ff" points="1028.49,-188.64 1018.89,-184.17 1023.61,-193.65 1028.49,-188.64"/>
</a>
</g>
</g>
<!-- Node19 -->
<g id="Node000019" class="node">
<title>Node19</title>
<g id="a_Node000019"><a xlink:href="_int_field_8_h.html" target="_top" xlink:title=" ">
<polygon fill="white" stroke="#666666" points="1536,-184 1432,-184 1432,-165 1536,-165 1536,-184"/>
<text text-anchor="middle" x="1484" y="-172" font-family="Helvetica,sans-Serif" font-size="10.00">src/core/IntField.H</text>
</a>
</g>
</g>
<!-- Node3&#45;&gt;Node19 -->
<g id="edge27_Node000003_Node000019" class="edge">
<title>Node3&#45;&gt;Node19</title>
<g id="a_edge27_Node000003_Node000019"><a xlink:title=" ">
<path fill="none" stroke="#63b8ff" d="M1128,-225.8C1205.42,-214.86 1341.98,-195.57 1421.58,-184.32"/>
<polygon fill="#63b8ff" stroke="#63b8ff" points="1422.53,-187.72 1431.94,-182.86 1421.55,-180.79 1422.53,-187.72"/>
</a>
</g>
</g>
<!-- Node20 -->
<g id="Node000020" class="node">
<title>Node20</title>
<g id="a_Node000020"><a xlink:title=" ">
<polygon fill="#e0e0e0" stroke="#999999" points="1484,-129 1372,-129 1372,-110 1484,-110 1484,-129"/>
<text text-anchor="middle" x="1428" y="-117" font-family="Helvetica,sans-Serif" font-size="10.00">AMReX_iMultiFab.H</text>
</a>
</g>
</g>
<!-- Node3&#45;&gt;Node20 -->
<g id="edge49_Node000003_Node000020" class="edge">
<title>Node3&#45;&gt;Node20</title>
<g id="a_edge49_Node000003_Node000020"><a xlink:title=" ">
<path fill="none" stroke="#63b8ff" d="M1096.91,-225.47C1160.27,-205.38 1318.97,-155.07 1391.18,-132.17"/>
<polygon fill="#63b8ff" stroke="#63b8ff" points="1392.3,-135.49 1400.78,-129.13 1390.19,-128.82 1392.3,-135.49"/>
</a>
</g>
</g>
<!-- Node21 -->
<g id="Node000021" class="node">
<title>Node21</title>
<g id="a_Node000021"><a xlink:href="_scratch_field_8_h.html" target="_top" xlink:title=" ">
<polygon fill="white" stroke="#666666" points="416,-184 288,-184 288,-165 416,-165 416,-184"/>
<text text-anchor="middle" x="352" y="-172" font-family="Helvetica,sans-Serif" font-size="10.00">src/core/ScratchField.H</text>
</a>
</g>
</g>
<!-- Node3&#45;&gt;Node21 -->
<g id="edge31_Node000003_Node000021" class="edge">
<title>Node3&#45;&gt;Node21</title>
<g id="a_edge31_Node000003_Node000021"><a xlink:title=" ">
<path fill="none" stroke="#63b8ff" d="M1011.85,-229.26C882.17,-218.7 569.48,-193.22 426.1,-181.54"/>
<polygon fill="#63b8ff" stroke="#63b8ff" points="426.32,-178.04 416.07,-180.72 425.75,-185.02 426.32,-178.04"/>
</a>
</g>
</g>
<!-- Node24 -->
<g id="Node000024" class="node">
<title>Node24</title>
<g id="a_Node000024"><a xlink:href="_int_scratch_field_8_h.html" target="_top" xlink:title=" ">
<polygon fill="white" stroke="#666666" points="744,-184 604,-184 604,-165 744,-165 744,-184"/>
<text text-anchor="middle" x="674" y="-172" font-family="Helvetica,sans-Serif" font-size="10.00">src/core/IntScratchField.H</text>
</a>
</g>
</g>
<!-- Node3&#45;&gt;Node24 -->
<g id="edge39_Node000003_Node000024" class="edge">
<title>Node3&#45;&gt;Node24</title>
<g id="a_edge39_Node000003_Node000024"><a xlink:title=" ">
<path fill="none" stroke="#63b8ff" d="M1012.42,-225.49C940.57,-214.88 817.88,-196.76 741.63,-185.49"/>
<polygon fill="#63b8ff" stroke="#63b8ff" points="742.06,-182.02 731.65,-184.02 741.03,-188.94 742.06,-182.02"/>
</a>
</g>
</g>
<!-- Node25 -->
<g id="Node000025" class="node">
<title>Node25</title>
<g id="a_Node000025"><a xlink:title=" ">
<polygon fill="#e0e0e0" stroke="#999999" points="1184,-184 1074,-184 1074,-165 1184,-165 1184,-184"/>
<text text-anchor="middle" x="1129" y="-172" font-family="Helvetica,sans-Serif" font-size="10.00">AMReX_AmrCore.H</text>
</a>
</g>
</g>
<!-- Node3&#45;&gt;Node25 -->
<g id="edge47_Node000003_Node000025" class="edge">
<title>Node3&#45;&gt;Node25</title>
<g id="a_edge47_Node000003_Node000025"><a xlink:title=" ">
<path fill="none" stroke="#63b8ff" d="M1078.71,-225.37C1087.68,-216.47 1101.88,-202.39 1112.91,-191.45"/>
<polygon fill="#63b8ff" stroke="#63b8ff" points="1115.62,-193.69 1120.26,-184.17 1110.69,-188.72 1115.62,-193.69"/>
</a>
</g>
</g>
<!-- Node7 -->
<g id="Node000007" class="node">
<title>Node7</title>
<g id="a_Node000007"><a xlink:title=" ">
<polygon fill="#e0e0e0" stroke="#999999" points="951,-19 901,-19 901,0 951,0 951,-19"/>
<text text-anchor="middle" x="926" y="-7" font-family="Helvetica,sans-Serif" font-size="10.00">cstdint</text>
</a>
</g>
</g>
<!-- Node6&#45;&gt;Node7 -->
<g id="edge6_Node000006_Node000007" class="edge">
<title>Node6&#45;&gt;Node7</title>
<g id="a_edge6_Node000006_Node000007"><a xlink:title=" ">
<path fill="none" stroke="#63b8ff" d="M776.6,-54.98C807.77,-45.7 857.66,-30.85 891.11,-20.89"/>
<polygon fill="#63b8ff" stroke="#63b8ff" points="892.34,-24.17 900.92,-17.97 890.34,-17.47 892.34,-24.17"/>
</a>
</g>
</g>
<!-- Node8&#45;&gt;Node6 -->
<g id="edge8_Node000008_Node000006" class="edge">
<title>Node8&#45;&gt;Node6</title>
<g id="a_edge8_Node000008_Node000006"><a xlink:title=" ">
<path fill="none" stroke="#63b8ff" d="M125.1,-114.05C245.64,-104.65 526.48,-82.77 666.13,-71.88"/>
<polygon fill="#63b8ff" stroke="#63b8ff" points="666.65,-75.35 676.34,-71.09 666.1,-68.37 666.65,-75.35"/>
</a>
</g>
</g>
<!-- Node8&#45;&gt;Node9 -->
<g id="edge9_Node000008_Node000009" class="edge">
<title>Node8&#45;&gt;Node9</title>
<g id="a_edge9_Node000008_Node000009"><a xlink:title=" ">
<path fill="none" stroke="#63b8ff" d="M88.73,-109.98C109.76,-101.34 142.55,-87.87 166.54,-78.02"/>
<polygon fill="#63b8ff" stroke="#63b8ff" points="167.98,-81.21 175.9,-74.17 165.32,-74.73 167.98,-81.21"/>
</a>
</g>
</g>
<!-- Node10 -->
<g id="Node000010" class="node">
<title>Node10</title>
<g id="a_Node000010"><a xlink:title=" ">
<polygon fill="#e0e0e0" stroke="#999999" points="124,-74 0,-74 0,-55 124,-55 124,-74"/>
<text text-anchor="middle" x="62" y="-62" font-family="Helvetica,sans-Serif" font-size="10.00">AMReX_Interpolater.H</text>
</a>
</g>
</g>
<!-- Node8&#45;&gt;Node10 -->
<g id="edge10_Node000008_Node000010" class="edge">
<title>Node8&#45;&gt;Node10</title>
<g id="a_edge10_Node000008_Node000010"><a xlink:title=" ">
<path fill="none" stroke="#63b8ff" d="M67.01,-109.75C66.22,-102.8 65.1,-92.85 64.11,-84.13"/>
<polygon fill="#63b8ff" stroke="#63b8ff" points="67.58,-83.63 62.97,-74.09 60.62,-84.42 67.58,-83.63"/>
</a>
</g>
</g>
<!-- Node11&#45;&gt;Node4 -->
<g id="edge12_Node000011_Node000004" class="edge">
<title>Node11&#45;&gt;Node4</title>
<g id="a_edge12_Node000011_Node000004"><a xlink:title=" ">
<path fill="none" stroke="#63b8ff" d="M992.84,-164.89C977.43,-156.75 954.58,-143.61 937,-129 919.99,-114.86 903.43,-95.62 892.59,-82.03"/>
<polygon fill="#63b8ff" stroke="#63b8ff" points="895.25,-79.76 886.34,-74.03 889.73,-84.07 895.25,-79.76"/>
</a>
</g>
</g>
<!-- Node11&#45;&gt;Node5 -->
<g id="edge14_Node000011_Node000005" class="edge">
<title>Node11&#45;&gt;Node5</title>
<g id="a_edge14_Node000011_Node000005"><a xlink:title=" ">
<path fill="none" stroke="#63b8ff" d="M1056.08,-165.28C1108.39,-155.94 1193.74,-140.71 1250.14,-130.65"/>
<polygon fill="#63b8ff" stroke="#63b8ff" points="1251.09,-134.03 1260.32,-128.83 1249.86,-127.14 1251.09,-134.03"/>
</a>
</g>
</g>
<!-- Node11&#45;&gt;Node6 -->
<g id="edge21_Node000011_Node000006" class="edge">
<title>Node11&#45;&gt;Node6</title>
<g id="a_edge21_Node000011_Node000006"><a xlink:title=" ">
<path fill="none" stroke="#63b8ff" d="M989,-164.84C942.71,-145.76 831.72,-100.01 778.06,-77.89"/>
<polygon fill="#63b8ff" stroke="#63b8ff" points="779.31,-74.62 768.73,-74.05 776.65,-81.09 779.31,-74.62"/>
</a>
</g>
</g>
<!-- Node11&#45;&gt;Node9 -->
<g id="edge16_Node000011_Node000009" class="edge">
<title>Node11&#45;&gt;Node9</title>
<g id="a_edge16_Node000011_Node000009"><a xlink:title=" ">
<path fill="none" stroke="#63b8ff" d="M975.94,-164.9C920.4,-151.21 806.73,-124.5 709,-110 549.17,-86.28 359.26,-73.85 261.81,-68.61"/>
<polygon fill="#63b8ff" stroke="#63b8ff" points="261.98,-65.11 251.81,-68.08 261.61,-72.1 261.98,-65.11"/>
</a>
</g>
</g>
<!-- Node12 -->
<g id="Node000012" class="node">
<title>Node12</title>
<g id="a_Node000012"><a xlink:title=" ">
<polygon fill="#e0e0e0" stroke="#999999" points="1204,-129 1146,-129 1146,-110 1204,-110 1204,-129"/>
<text text-anchor="middle" x="1175" y="-117" font-family="Helvetica,sans-Serif" font-size="10.00">memory</text>
</a>
</g>
</g>
<!-- Node11&#45;&gt;Node12 -->
<g id="edge13_Node000011_Node000012" class="edge">
<title>Node11&#45;&gt;Node12</title>
<g id="a_edge13_Node000011_Node000012"><a xlink:title=" ">
<path fill="none" stroke="#63b8ff" d="M1036.51,-164.98C1064.21,-156.09 1107.86,-142.07 1138.74,-132.15"/>
<polygon fill="#63b8ff" stroke="#63b8ff" points="1139.83,-135.47 1148.28,-129.08 1137.69,-128.81 1139.83,-135.47"/>
</a>
</g>
</g>
<!-- Node13 -->
<g id="Node000013" class="node">
<title>Node13</title>
<g id="a_Node000013"><a xlink:title=" ">
<polygon fill="#e0e0e0" stroke="#999999" points="1010,-129 946,-129 946,-110 1010,-110 1010,-129"/>
<text text-anchor="middle" x="978" y="-117" font-family="Helvetica,sans-Serif" font-size="10.00">algorithm</text>
</a>
</g>
</g>
<!-- Node11&#45;&gt;Node13 -->
<g id="edge15_Node000011_Node000013" class="edge">
<title>Node11&#45;&gt;Node13</title>
<g id="a_edge15_Node000011_Node000013"><a xlink:title=" ">
<path fill="none" stroke="#63b8ff" d="M1004.72,-164.75C1000.29,-157.42 993.84,-146.73 988.38,-137.7"/>
<polygon fill="#63b8ff" stroke="#63b8ff" points="991.35,-135.84 983.19,-129.09 985.36,-139.46 991.35,-135.84"/>
</a>
</g>
</g>
<!-- Node14 -->
<g id="Node000014" class="node">
<title>Node14</title>
<g id="a_Node000014"><a xlink:title=" ">
<polygon fill="#e0e0e0" stroke="#999999" points="1127.5,-129 1028.5,-129 1028.5,-110 1127.5,-110 1127.5,-129"/>
<text text-anchor="middle" x="1078" y="-117" font-family="Helvetica,sans-Serif" font-size="10.00">AMReX_BCRec.H</text>
</a>
</g>
</g>
<!-- Node11&#45;&gt;Node14 -->
<g id="edge17_Node000011_Node000014" class="edge">
<title>Node11&#45;&gt;Node14</title>
<g id="a_edge17_Node000011_Node000014"><a xlink:title=" ">
<path fill="none" stroke="#63b8ff" d="M1020.93,-164.98C1031.08,-157.07 1046.42,-145.11 1058.65,-135.58"/>
<polygon fill="#63b8ff" stroke="#63b8ff" points="1061.14,-138.08 1066.88,-129.17 1056.84,-132.56 1061.14,-138.08"/>
</a>
</g>
</g>
<!-- Node15 -->
<g id="Node000015" class="node">
<title>Node15</title>
<g id="a_Node000015"><a xlink:title=" ">
<polygon fill="#e0e0e0" stroke="#999999" points="1589.5,-129 1502.5,-129 1502.5,-110 1589.5,-110 1589.5,-129"/>
<text text-anchor="middle" x="1546" y="-117" font-family="Helvetica,sans-Serif" font-size="10.00">AMReX_Gpu.H</text>
</a>
</g>
</g>
<!-- Node11&#45;&gt;Node15 -->
<g id="edge18_Node000011_Node000015" class="edge">
<title>Node11&#45;&gt;Node15</title>
<g id="a_edge18_Node000011_Node000015"><a xlink:title=" ">
<path fill="none" stroke="#63b8ff" d="M1056.18,-166.12C1059.16,-165.72 1062.12,-165.34 1065,-165 1251.31,-142.79 1301.8,-151.81 1492.3,-128.98"/>
<polygon fill="#63b8ff" stroke="#63b8ff" points="1492.86,-132.44 1502.36,-127.76 1492.02,-125.49 1492.86,-132.44"/>
</a>
</g>
</g>
<!-- Node16 -->
<g id="Node000016" class="node">
<title>Node16</title>
<g id="a_Node000016"><a xlink:href="incflo__enums_8_h.html" target="_top" xlink:title=" ">
<polygon fill="white" stroke="#666666" points="1176.5,-74 1067.5,-74 1067.5,-55 1176.5,-55 1176.5,-74"/>
<text text-anchor="middle" x="1122" y="-62" font-family="Helvetica,sans-Serif" font-size="10.00">src/incflo_enums.H</text>
</a>
</g>
</g>
<!-- Node11&#45;&gt;Node16 -->
<g id="edge19_Node000011_Node000016" class="edge">
<title>Node11&#45;&gt;Node16</title>
<g id="a_edge19_Node000011_Node000016"><a xlink:title=" ">
<path fill="none" stroke="#63b8ff" d="M1055.62,-164.99C1113.94,-153.9 1208.02,-135.18 1213,-129 1231.33,-106.22 1195.93,-88.12 1164.07,-77.17"/>
<polygon fill="#63b8ff" stroke="#63b8ff" points="1164.95,-73.78 1154.36,-74.01 1162.78,-80.43 1164.95,-73.78"/>
</a>
</g>
</g>
<!-- Node17 -->
<g id="Node000017" class="node">
<title>Node17</title>
<g id="a_Node000017"><a xlink:href="_view_field_8_h.html" target="_top" xlink:title=" ">
<polygon fill="white" stroke="#666666" points="700,-129 584,-129 584,-110 700,-110 700,-129"/>
<text text-anchor="middle" x="642" y="-117" font-family="Helvetica,sans-Serif" font-size="10.00">src/core/ViewField.H</text>
</a>
</g>
</g>
<!-- Node11&#45;&gt;Node17 -->
<g id="edge22_Node000011_Node000017" class="edge">
<title>Node11&#45;&gt;Node17</title>
<g id="a_edge22_Node000011_Node000017"><a xlink:title=" ">
<path fill="none" stroke="#63b8ff" d="M963.77,-166.84C899.88,-157.64 784.15,-140.97 710.29,-130.34"/>
<polygon fill="#63b8ff" stroke="#63b8ff" points="710.55,-126.84 700.16,-128.88 709.56,-133.77 710.55,-126.84"/>
</a>
</g>
</g>
<!-- Node16&#45;&gt;Node7 -->
<g id="edge20_Node000016_Node000007" class="edge">
<title>Node16&#45;&gt;Node7</title>
<g id="a_edge20_Node000016_Node000007"><a xlink:title=" ">
<path fill="none" stroke="#63b8ff" d="M1090.51,-54.98C1055.1,-45.41 997.75,-29.9 960.97,-19.96"/>
<polygon fill="#63b8ff" stroke="#63b8ff" points="961.75,-16.54 951.18,-17.31 959.92,-23.3 961.75,-16.54"/>
</a>
</g>
</g>
<!-- Node17&#45;&gt;Node4 -->
<g id="edge23_Node000017_Node000004" class="edge">
<title>Node17&#45;&gt;Node4</title>
<g id="a_edge23_Node000017_Node000004"><a xlink:title=" ">
<path fill="none" stroke="#63b8ff" d="M680.24,-109.98C726.73,-99.63 804.37,-82.34 847.9,-72.65"/>
<polygon fill="#63b8ff" stroke="#63b8ff" points="848.93,-76 857.93,-70.41 847.41,-69.17 848.93,-76"/>
</a>
</g>
</g>
<!-- Node17&#45;&gt;Node6 -->
<g id="edge24_Node000017_Node000006" class="edge">
<title>Node17&#45;&gt;Node6</title>
<g id="a_edge24_Node000017_Node000006"><a xlink:title=" ">
<path fill="none" stroke="#63b8ff" d="M659.03,-109.98C675.93,-101.54 702.06,-88.47 721.64,-78.68"/>
<polygon fill="#63b8ff" stroke="#63b8ff" points="723.28,-81.77 730.66,-74.17 720.15,-75.51 723.28,-81.77"/>
</a>
</g>
</g>
<!-- Node17&#45;&gt;Node9 -->
<g id="edge25_Node000017_Node000009" class="edge">
<title>Node17&#45;&gt;Node9</title>
<g id="a_edge25_Node000017_Node000009"><a xlink:title=" ">
<path fill="none" stroke="#63b8ff" d="M583.82,-111.57C500.66,-101.67 348.28,-83.52 261.67,-73.2"/>
<polygon fill="#63b8ff" stroke="#63b8ff" points="262.04,-69.72 251.7,-72.01 261.21,-76.67 262.04,-69.72"/>
</a>
</g>
</g>
<!-- Node18 -->
<g id="Node000018" class="node">
<title>Node18</title>
<g id="a_Node000018"><a xlink:title=" ">
<polygon fill="#e0e0e0" stroke="#999999" points="605,-74 507,-74 507,-55 605,-55 605,-74"/>
<text text-anchor="middle" x="556" y="-62" font-family="Helvetica,sans-Serif" font-size="10.00">AMReX_Vector.H</text>
</a>
</g>
</g>
<!-- Node17&#45;&gt;Node18 -->
<g id="edge26_Node000017_Node000018" class="edge">
<title>Node17&#45;&gt;Node18</title>
<g id="a_edge26_Node000017_Node000018"><a xlink:title=" ">
<path fill="none" stroke="#63b8ff" d="M628.18,-109.98C614.85,-101.77 594.42,-89.18 578.69,-79.49"/>
<polygon fill="#63b8ff" stroke="#63b8ff" points="580.42,-76.44 570.07,-74.17 576.75,-82.4 580.42,-76.44"/>
</a>
</g>
</g>
<!-- Node19&#45;&gt;Node4 -->
<g id="edge28_Node000019_Node000004" class="edge">
<title>Node19&#45;&gt;Node4</title>
<g id="a_edge28_Node000019_Node000004"><a xlink:title=" ">
<path fill="none" stroke="#63b8ff" d="M1536.35,-168.2C1590.85,-160.75 1664.12,-144.08 1632,-110 1625.73,-103.35 1056.35,-74.35 912.65,-67.13"/>
<polygon fill="#63b8ff" stroke="#63b8ff" points="912.46,-63.62 902.3,-66.61 912.11,-70.61 912.46,-63.62"/>
</a>
</g>
</g>
<!-- Node19&#45;&gt;Node6 -->
<g id="edge29_Node000019_Node000006" class="edge">
<title>Node19&#45;&gt;Node6</title>
<g id="a_edge29_Node000019_Node000006"><a xlink:title=" ">
<path fill="none" stroke="#63b8ff" d="M1528.68,-164.94C1570.62,-155.05 1623.4,-136.65 1598,-110 1569.26,-79.84 890.57,-76.75 849,-74 842.78,-73.59 836.34,-73.13 829.87,-72.64"/>
<polygon fill="#63b8ff" stroke="#63b8ff" points="829.94,-69.14 819.7,-71.85 829.4,-76.11 829.94,-69.14"/>
</a>
</g>
</g>
<!-- Node19&#45;&gt;Node20 -->
<g id="edge30_Node000019_Node000020" class="edge">
<title>Node19&#45;&gt;Node20</title>
<g id="a_edge30_Node000019_Node000020"><a xlink:title=" ">
<path fill="none" stroke="#63b8ff" d="M1475,-164.98C1466.81,-157.23 1454.49,-145.58 1444.53,-136.14"/>
<polygon fill="#63b8ff" stroke="#63b8ff" points="1446.83,-133.5 1437.16,-129.17 1442.02,-138.59 1446.83,-133.5"/>
</a>
</g>
</g>
<!-- Node21&#45;&gt;Node4 -->
<g id="edge32_Node000021_Node000004" class="edge">
<title>Node21&#45;&gt;Node4</title>
<g id="a_edge32_Node000021_Node000004"><a xlink:title=" ">
<path fill="none" stroke="#63b8ff" d="M342.59,-164.67C329.51,-151.37 309.06,-126.05 324,-110 362.26,-68.91 772.24,-80.54 828,-74 834.44,-73.25 841.3,-72.26 847.85,-71.22"/>
<polygon fill="#63b8ff" stroke="#63b8ff" points="848.5,-74.66 857.79,-69.58 847.36,-67.76 848.5,-74.66"/>
</a>
</g>
</g>
<!-- Node21&#45;&gt;Node6 -->
<g id="edge34_Node000021_Node000006" class="edge">
<title>Node21&#45;&gt;Node6</title>
<g id="a_edge34_Node000021_Node000006"><a xlink:title=" ">
<path fill="none" stroke="#63b8ff" d="M332.96,-164.82C308.94,-152.72 272.82,-130.04 291,-110 303.42,-96.31 537.73,-79.1 665.89,-70.65"/>
<polygon fill="#63b8ff" stroke="#63b8ff" points="666.31,-74.13 676.06,-69.99 665.86,-67.15 666.31,-74.13"/>
</a>
</g>
</g>
<!-- Node21&#45;&gt;Node9 -->
<g id="edge36_Node000021_Node000009" class="edge">
<title>Node21&#45;&gt;Node9</title>
<g id="a_edge36_Node000021_Node000009"><a xlink:title=" ">
<path fill="none" stroke="#63b8ff" d="M287.76,-165.92C262.06,-159.82 234.08,-148.82 215,-129 203.46,-117.02 199.22,-98.2 197.71,-84.16"/>
<polygon fill="#63b8ff" stroke="#63b8ff" points="201.2,-83.87 197,-74.14 194.22,-84.36 201.2,-83.87"/>
</a>
</g>
</g>
<!-- Node21&#45;&gt;Node17 -->
<g id="edge35_Node000021_Node000017" class="edge">
<title>Node21&#45;&gt;Node17</title>
<g id="a_edge35_Node000021_Node000017"><a xlink:title=" ">
<path fill="none" stroke="#63b8ff" d="M398.59,-164.98C449.39,-155.7 530.69,-140.84 585.19,-130.88"/>
<polygon fill="#63b8ff" stroke="#63b8ff" points="585.83,-134.32 595.04,-129.08 584.57,-127.44 585.83,-134.32"/>
</a>
</g>
</g>
<!-- Node21&#45;&gt;Node18 -->
<g id="edge37_Node000021_Node000018" class="edge">
<title>Node21&#45;&gt;Node18</title>
<g id="a_edge37_Node000021_Node000018"><a xlink:title=" ">
<path fill="none" stroke="#63b8ff" d="M315.68,-164.98C279.05,-154.74 230.84,-135.65 253,-110 283.81,-74.33 417.27,-66.73 496.42,-65.42"/>
<polygon fill="#63b8ff" stroke="#63b8ff" points="496.79,-68.91 506.74,-65.28 496.69,-61.91 496.79,-68.91"/>
</a>
</g>
</g>
<!-- Node22 -->
<g id="Node000022" class="node">
<title>Node22</title>
<g id="a_Node000022"><a xlink:title=" ">
<polygon fill="#e0e0e0" stroke="#999999" points="527.5,-129 482.5,-129 482.5,-110 527.5,-110 527.5,-129"/>
<text text-anchor="middle" x="505" y="-117" font-family="Helvetica,sans-Serif" font-size="10.00">utility</text>
</a>
</g>
</g>
<!-- Node21&#45;&gt;Node22 -->
<g id="edge33_Node000021_Node000022" class="edge">
<title>Node21&#45;&gt;Node22</title>
<g id="a_edge33_Node000021_Node000022"><a xlink:title=" ">
<path fill="none" stroke="#63b8ff" d="M376.58,-164.98C402.73,-155.93 444.19,-141.56 472.9,-131.62"/>
<polygon fill="#63b8ff" stroke="#63b8ff" points="474.17,-134.88 482.47,-128.3 471.88,-128.27 474.17,-134.88"/>
</a>
</g>
</g>
<!-- Node23 -->
<g id="Node000023" class="node">
<title>Node23</title>
<g id="a_Node000023"><a xlink:title=" ">
<polygon fill="#e0e0e0" stroke="#999999" points="464.5,-129 333.5,-129 333.5,-110 464.5,-110 464.5,-129"/>
<text text-anchor="middle" x="399" y="-117" font-family="Helvetica,sans-Serif" font-size="10.00">AMReX_PhysBCFunct.H</text>
</a>
</g>
</g>
<!-- Node21&#45;&gt;Node23 -->
<g id="edge38_Node000021_Node000023" class="edge">
<title>Node21&#45;&gt;Node23</title>
<g id="a_edge38_Node000021_Node000023"><a xlink:title=" ">
<path fill="none" stroke="#63b8ff" d="M359.76,-164.75C366.47,-157.18 376.34,-146.05 384.51,-136.84"/>
<polygon fill="#63b8ff" stroke="#63b8ff" points="387.37,-138.89 391.38,-129.09 382.13,-134.25 387.37,-138.89"/>
</a>
</g>
</g>
<!-- Node24&#45;&gt;Node4 -->
<g id="edge40_Node000024_Node000004" class="edge">
<title>Node24&#45;&gt;Node4</title>
<g id="a_edge40_Node000024_Node000004"><a xlink:title=" ">
<path fill="none" stroke="#63b8ff" d="M690.51,-164.84C726.46,-146 812.01,-101.14 854.77,-78.73"/>
<polygon fill="#63b8ff" stroke="#63b8ff" points="856.47,-81.79 863.7,-74.05 853.22,-75.59 856.47,-81.79"/>
</a>
</g>
</g>
<!-- Node24&#45;&gt;Node6 -->
<g id="edge42_Node000024_Node000006" class="edge">
<title>Node24&#45;&gt;Node6</title>
<g id="a_edge42_Node000024_Node000006"><a xlink:title=" ">
<path fill="none" stroke="#63b8ff" d="M681.28,-164.86C688.58,-156.06 700.01,-141.9 709,-129 719.49,-113.94 730.33,-96.08 737.91,-83.14"/>
<polygon fill="#63b8ff" stroke="#63b8ff" points="741.03,-84.74 743.01,-74.33 734.97,-81.23 741.03,-84.74"/>
</a>
</g>
</g>
<!-- Node24&#45;&gt;Node17 -->
<g id="edge43_Node000024_Node000017" class="edge">
<title>Node24&#45;&gt;Node17</title>
<g id="a_edge43_Node000024_Node000017"><a xlink:title=" ">
<path fill="none" stroke="#63b8ff" d="M668.72,-164.75C664.29,-157.42 657.84,-146.73 652.38,-137.7"/>
<polygon fill="#63b8ff" stroke="#63b8ff" points="655.35,-135.84 647.19,-129.09 649.36,-139.46 655.35,-135.84"/>
</a>
</g>
</g>
<!-- Node24&#45;&gt;Node18 -->
<g id="edge45_Node000024_Node000018" class="edge">
<title>Node24&#45;&gt;Node18</title>
<g id="a_edge45_Node000024_Node000018"><a xlink:title=" ">
<path fill="none" stroke="#63b8ff" d="M636.42,-164.86C615.65,-158.27 590.9,-147.14 575,-129 564.22,-116.69 559.55,-98.47 557.53,-84.7"/>
<polygon fill="#63b8ff" stroke="#63b8ff" points="560.97,-83.95 556.39,-74.4 554.02,-84.73 560.97,-83.95"/>
</a>
</g>
</g>
<!-- Node24&#45;&gt;Node20 -->
<g id="edge44_Node000024_Node000020" class="edge">
<title>Node24&#45;&gt;Node20</title>
<g id="a_edge44_Node000024_Node000020"><a xlink:title=" ">
<path fill="none" stroke="#63b8ff" d="M744.44,-170.42C867.37,-164.73 1129.27,-151.15 1361.85,-128.94"/>
<polygon fill="#63b8ff" stroke="#63b8ff" points="1362.24,-132.42 1371.86,-127.98 1361.57,-125.45 1362.24,-132.42"/>
</a>
</g>
</g>
<!-- Node24&#45;&gt;Node22 -->
<g id="edge41_Node000024_Node000022" class="edge">
<title>Node24&#45;&gt;Node22</title>
<g id="a_edge41_Node000024_Node000022"><a xlink:title=" ">
<path fill="none" stroke="#63b8ff" d="M646.85,-164.98C617.04,-155.64 569.22,-140.64 537.46,-130.68"/>
<polygon fill="#63b8ff" stroke="#63b8ff" points="538.34,-127.29 527.75,-127.63 536.25,-133.97 538.34,-127.29"/>
</a>
</g>
</g>
<!-- Node24&#45;&gt;Node23 -->
<g id="edge46_Node000024_Node000023" class="edge">
<title>Node24&#45;&gt;Node23</title>
<g id="a_edge46_Node000024_Node000023"><a xlink:title=" ">
<path fill="none" stroke="#63b8ff" d="M629.82,-164.98C581.85,-155.74 505.19,-140.97 453.52,-131.01"/>
<polygon fill="#63b8ff" stroke="#63b8ff" points="454.01,-127.54 443.53,-129.08 452.69,-134.41 454.01,-127.54"/>
</a>
</g>
</g>
<!-- Node27 -->
<g id="Node000027" class="node">
<title>Node27</title>
<g id="a_Node000027"><a xlink:title=" ">
<polygon fill="#e0e0e0" stroke="#999999" points="2192,-184 2100,-184 2100,-165 2192,-165 2192,-184"/>
<text text-anchor="middle" x="2146" y="-172" font-family="Helvetica,sans-Serif" font-size="10.00">AMReX_REAL.H</text>
</a>
</g>
</g>
<!-- Node26&#45;&gt;Node27 -->
<g id="edge51_Node000026_Node000027" class="edge">
<title>Node26&#45;&gt;Node27</title>
<g id="a_edge51_Node000026_Node000027"><a xlink:title=" ">
<path fill="none" stroke="#63b8ff" d="M1996.45,-225.49C2026.64,-215.4 2077.16,-198.51 2111.02,-187.19"/>
<polygon fill="#63b8ff" stroke="#63b8ff" points="2112.15,-190.51 2120.52,-184.02 2109.93,-183.87 2112.15,-190.51"/>
</a>
</g>
</g>
<!-- Node28 -->
<g id="Node000028" class="node">
<title>Node28</title>
<g id="a_Node000028"><a xlink:title=" ">
<polygon fill="#e0e0e0" stroke="#999999" points="2082,-184 1996,-184 1996,-165 2082,-165 2082,-184"/>
<text text-anchor="middle" x="2039" y="-172" font-family="Helvetica,sans-Serif" font-size="10.00">AMReX_Box.H</text>
</a>
</g>
</g>
<!-- Node26&#45;&gt;Node28 -->
<g id="edge52_Node000026_Node000028" class="edge">
<title>Node26&#45;&gt;Node28</title>
<g id="a_edge52_Node000026_Node000028"><a xlink:title=" ">
<path fill="none" stroke="#63b8ff" d="M1981.03,-225.37C1991.58,-216.3 2008.39,-201.84 2021.19,-190.82"/>
<polygon fill="#63b8ff" stroke="#63b8ff" points="2023.63,-193.34 2028.93,-184.17 2019.06,-188.04 2023.63,-193.34"/>
</a>
</g>
</g>
<!-- Node29 -->
<g id="Node000029" class="node">
<title>Node29</title>
<g id="a_Node000029"><a xlink:title=" ">
<polygon fill="#e0e0e0" stroke="#999999" points="1978,-184 1856,-184 1856,-165 1978,-165 1978,-184"/>
<text text-anchor="middle" x="1917" y="-172" font-family="Helvetica,sans-Serif" font-size="10.00">AMReX_Orientation.H</text>
</a>
</g>
</g>
<!-- Node26&#45;&gt;Node29 -->
<g id="edge53_Node000026_Node000029" class="edge">
<title>Node26&#45;&gt;Node29</title>
<g id="a_edge53_Node000026_Node000029"><a xlink:title=" ">
<path fill="none" stroke="#63b8ff" d="M1963.03,-225.37C1954.9,-216.55 1942.07,-202.66 1932.02,-191.77"/>
<polygon fill="#63b8ff" stroke="#63b8ff" points="1934.36,-189.14 1925,-184.17 1929.21,-193.89 1934.36,-189.14"/>
</a>
</g>
</g>
<!-- Node26&#45;&gt;Node30 -->
<g id="edge54_Node000026_Node000030" class="edge">
<title>Node26&#45;&gt;Node30</title>
<g id="a_edge54_Node000026_Node000030"><a xlink:title=" ">
<path fill="none" stroke="#63b8ff" d="M1943.23,-225.49C1910.13,-215.36 1854.66,-198.37 1817.71,-187.05"/>
<polygon fill="#63b8ff" stroke="#63b8ff" points="1818.39,-183.6 1807.81,-184.02 1816.34,-190.29 1818.39,-183.6"/>
</a>
</g>
</g>
<!-- Node31&#45;&gt;Node15 -->
<g id="edge57_Node000031_Node000015" class="edge">
<title>Node31&#45;&gt;Node15</title>
<g id="a_edge57_Node000031_Node000015"><a xlink:title=" ">
<path fill="none" stroke="#63b8ff" d="M2140.76,-221.95C2180.08,-210.18 2224.7,-190.37 2201,-165 2160.34,-121.49 1749.56,-119.36 1600.05,-120.05"/>
<polygon fill="#63b8ff" stroke="#63b8ff" points="1599.73,-116.55 1589.74,-120.1 1599.76,-123.55 1599.73,-116.55"/>
</a>
</g>
</g>
<!-- Node31&#45;&gt;Node27 -->
<g id="edge56_Node000031_Node000027" class="edge">
<title>Node31&#45;&gt;Node27</title>
<g id="a_edge56_Node000031_Node000027"><a xlink:title=" ">
<path fill="none" stroke="#63b8ff" d="M2104.31,-219.84C2112.3,-211.35 2122.48,-200.52 2130.78,-191.69"/>
<polygon fill="#63b8ff" stroke="#63b8ff" points="2133.46,-193.95 2137.76,-184.27 2128.36,-189.15 2133.46,-193.95"/>
</a>
</g>
</g>
</g>
</svg>
