<?xml version="1.0" encoding="UTF-8" standalone="no"?>
<!DOCTYPE svg PUBLIC "-//W3C//DTD SVG 1.1//EN"
 "http://www.w3.org/Graphics/SVG/1.1/DTD/svg11.dtd">
<!-- Generated by graphviz version 2.43.0 (0)
 -->
<!-- Title: /home/runner/work/kynema&#45;sgf/kynema&#45;sgf/src/fvm/gradient.H Pages: 1 -->
<svg width="3269pt" height="302pt"
 viewBox="0.00 0.00 3269.00 302.00" xmlns="http://www.w3.org/2000/svg" xmlns:xlink="http://www.w3.org/1999/xlink">
<g id="graph0" class="graph" transform="scale(1 1) rotate(0) translate(4 298)">
<title>/home/runner/work/kynema&#45;sgf/kynema&#45;sgf/src/fvm/gradient.H</title>
<!-- Node1 -->
<g id="Node000001" class="node">
<title>Node1</title>
<g id="a_Node000001"><a xlink:title=" ">
<polygon fill="#999999" stroke="#666666" points="1851,-294 1700,-294 1700,-253 1851,-253 1851,-294"/>
<text text-anchor="start" x="1708" y="-282" font-family="Helvetica,sans-Serif" font-size="10.00">/home/runner/work/kynema</text>
<text text-anchor="start" x="1708" y="-271" font-family="Helvetica,sans-Serif" font-size="10.00">&#45;sgf/kynema&#45;sgf/src/fvm</text>
<text text-anchor="middle" x="1775.5" y="-260" font-family="Helvetica,sans-Serif" font-size="10.00">/gradient.H</text>
</a>
</g>
</g>
<!-- Node2 -->
<g id="Node000002" class="node">
<title>Node2</title>
<g id="a_Node000002"><a xlink:href="fvm_8_h.html" target="_top" xlink:title=" ">
<polygon fill="white" stroke="#666666" points="335,-206 166,-206 166,-176 335,-176 335,-206"/>
<text text-anchor="start" x="174" y="-194" font-family="Helvetica,sans-Serif" font-size="10.00">/home/runner/work/kynema</text>
<text text-anchor="middle" x="250.5" y="-183" font-family="Helvetica,sans-Serif" font-size="10.00">&#45;sgf/kynema&#45;sgf/src/fvm/fvm.H</text>
</a>
</g>
</g>
<!-- Node1&#45;&gt;Node2 -->
<g id="edge1_Node000001_Node000002" class="edge">
<title>Node1&#45;&gt;Node2</title>
<g id="a_edge1_Node000001_Node000002"><a xlink:title=" ">
<path fill="none" stroke="#63b8ff" d="M1689.34,-270.75C1426.4,-265.15 636.77,-246.27 381.5,-217 359.3,-214.45 335.23,-210.28 313.84,-206.06"/>
<polygon fill="#63b8ff" stroke="#63b8ff" points="1689.52,-274.26 1699.59,-270.97 1689.67,-267.26 1689.52,-274.26"/>
</a>
</g>
</g>
<!-- Node4 -->
<g id="Node000004" class="node">
<title>Node4</title>
<g id="a_Node000004"><a xlink:href="bluff__body__ops_8_h.html" target="_top" xlink:title=" ">
<polygon fill="white" stroke="#666666" points="731.5,-217 565.5,-217 565.5,-165 731.5,-165 731.5,-217"/>
<text text-anchor="start" x="573.5" y="-205" font-family="Helvetica,sans-Serif" font-size="10.00">/home/runner/work/kynema</text>
<text text-anchor="start" x="573.5" y="-194" font-family="Helvetica,sans-Serif" font-size="10.00">&#45;sgf/kynema&#45;sgf/src/immersed</text>
<text text-anchor="start" x="573.5" y="-183" font-family="Helvetica,sans-Serif" font-size="10.00">_boundary/bluff_body/bluff</text>
<text text-anchor="middle" x="648.5" y="-172" font-family="Helvetica,sans-Serif" font-size="10.00">_body_ops.H</text>
</a>
</g>
</g>
<!-- Node1&#45;&gt;Node4 -->
<g id="edge3_Node000001_Node000004" class="edge">
<title>Node1&#45;&gt;Node4</title>
<g id="a_edge3_Node000001_Node000004"><a xlink:title=" ">
<path fill="none" stroke="#63b8ff" d="M1689.75,-266.44C1545.99,-256.27 1247.23,-235.11 994.5,-217 904.69,-210.56 801.78,-203.12 731.69,-198.04"/>
<polygon fill="#63b8ff" stroke="#63b8ff" points="1689.61,-269.94 1699.83,-267.15 1690.1,-262.96 1689.61,-269.94"/>
</a>
</g>
</g>
<!-- Node5 -->
<g id="Node000005" class="node">
<title>Node5</title>
<g id="a_Node000005"><a xlink:href="bluff__body__ops_8cpp.html" target="_top" xlink:title=" ">
<polygon fill="white" stroke="#666666" points="337.5,-129 171.5,-129 171.5,-77 337.5,-77 337.5,-129"/>
<text text-anchor="start" x="179.5" y="-117" font-family="Helvetica,sans-Serif" font-size="10.00">/home/runner/work/kynema</text>
<text text-anchor="start" x="179.5" y="-106" font-family="Helvetica,sans-Serif" font-size="10.00">&#45;sgf/kynema&#45;sgf/src/immersed</text>
<text text-anchor="start" x="179.5" y="-95" font-family="Helvetica,sans-Serif" font-size="10.00">_boundary/bluff_body/bluff</text>
<text text-anchor="middle" x="254.5" y="-84" font-family="Helvetica,sans-Serif" font-size="10.00">_body_ops.cpp</text>
</a>
</g>
</g>
<!-- Node1&#45;&gt;Node5 -->
<g id="edge11_Node000001_Node000005" class="edge">
<title>Node1&#45;&gt;Node5</title>
<g id="a_edge11_Node000001_Node000005"><a xlink:title=" ">
<path fill="none" stroke="#63b8ff" d="M1689.67,-272.06C1449.41,-270.29 773.52,-261.39 556.5,-217 465.32,-198.35 365.2,-156.27 306.21,-129.05"/>
<polygon fill="#63b8ff" stroke="#63b8ff" points="1689.73,-275.56 1699.75,-272.14 1689.78,-268.56 1689.73,-275.56"/>
</a>
</g>
</g>
<!-- Node12 -->
<g id="Node000012" class="node">
<title>Node12</title>
<g id="a_Node000012"><a xlink:href="relaxation__zones__ops_8_h.html" target="_top" xlink:title=" ">
<polygon fill="white" stroke="#666666" points="1228.5,-217 1036.5,-217 1036.5,-165 1228.5,-165 1228.5,-217"/>
<text text-anchor="start" x="1044.5" y="-205" font-family="Helvetica,sans-Serif" font-size="10.00">/home/runner/work/kynema</text>
<text text-anchor="start" x="1044.5" y="-194" font-family="Helvetica,sans-Serif" font-size="10.00">&#45;sgf/kynema&#45;sgf/src/ocean</text>
<text text-anchor="start" x="1044.5" y="-183" font-family="Helvetica,sans-Serif" font-size="10.00">_waves/relaxation_zones/relaxation</text>
<text text-anchor="middle" x="1132.5" y="-172" font-family="Helvetica,sans-Serif" font-size="10.00">_zones_ops.H</text>
</a>
</g>
</g>
<!-- Node1&#45;&gt;Node12 -->
<g id="edge12_Node000001_Node000012" class="edge">
<title>Node1&#45;&gt;Node12</title>
<g id="a_edge12_Node000001_Node000012"><a xlink:title=" ">
<path fill="none" stroke="#63b8ff" d="M1689.73,-267.13C1583.16,-259.66 1396.01,-243.93 1237.5,-217 1234.54,-216.5 1231.55,-215.96 1228.53,-215.4"/>
<polygon fill="#63b8ff" stroke="#63b8ff" points="1689.57,-270.63 1699.79,-267.83 1690.05,-263.64 1689.57,-270.63"/>
</a>
</g>
</g>
<!-- Node15 -->
<g id="Node000015" class="node">
<title>Node15</title>
<g id="a_Node000015"><a xlink:href="relaxation__zones__ops_8cpp.html" target="_top" xlink:title=" ">
<polygon fill="white" stroke="#666666" points="1166.5,-129 974.5,-129 974.5,-77 1166.5,-77 1166.5,-129"/>
<text text-anchor="start" x="982.5" y="-117" font-family="Helvetica,sans-Serif" font-size="10.00">/home/runner/work/kynema</text>
<text text-anchor="start" x="982.5" y="-106" font-family="Helvetica,sans-Serif" font-size="10.00">&#45;sgf/kynema&#45;sgf/src/ocean</text>
<text text-anchor="start" x="982.5" y="-95" font-family="Helvetica,sans-Serif" font-size="10.00">_waves/relaxation_zones/relaxation</text>
<text text-anchor="middle" x="1070.5" y="-84" font-family="Helvetica,sans-Serif" font-size="10.00">_zones_ops.cpp</text>
</a>
</g>
</g>
<!-- Node1&#45;&gt;Node15 -->
<g id="edge20_Node000001_Node000015" class="edge">
<title>Node1&#45;&gt;Node15</title>
<g id="a_edge20_Node000001_Node000015"><a xlink:title=" ">
<path fill="none" stroke="#63b8ff" d="M1689.65,-272.54C1502.66,-271.74 1071.76,-264.67 1027.5,-217 1004.65,-192.39 1027.16,-154.4 1047.25,-129.37"/>
<polygon fill="#63b8ff" stroke="#63b8ff" points="1689.7,-276.04 1699.71,-272.58 1689.73,-269.04 1689.7,-276.04"/>
</a>
</g>
</g>
<!-- Node20 -->
<g id="Node000020" class="node">
<title>Node20</title>
<g id="a_Node000020"><a xlink:href="_dam_break_8cpp.html" target="_top" xlink:title=" ">
<polygon fill="white" stroke="#666666" points="1400,-211.5 1247,-211.5 1247,-170.5 1400,-170.5 1400,-211.5"/>
<text text-anchor="start" x="1255" y="-199.5" font-family="Helvetica,sans-Serif" font-size="10.00">/home/runner/work/kynema</text>
<text text-anchor="start" x="1255" y="-188.5" font-family="Helvetica,sans-Serif" font-size="10.00">&#45;sgf/kynema&#45;sgf/src/physics</text>
<text text-anchor="middle" x="1323.5" y="-177.5" font-family="Helvetica,sans-Serif" font-size="10.00">/multiphase/DamBreak.cpp</text>
</a>
</g>
</g>
<!-- Node1&#45;&gt;Node20 -->
<g id="edge21_Node000001_Node000020" class="edge">
<title>Node1&#45;&gt;Node20</title>
<g id="a_edge21_Node000001_Node000020"><a xlink:title=" ">
<path fill="none" stroke="#63b8ff" d="M1689.43,-262.84C1614.67,-253.66 1503.74,-238.1 1408.5,-217 1401.29,-215.4 1393.8,-213.53 1386.38,-211.53"/>
<polygon fill="#63b8ff" stroke="#63b8ff" points="1689.39,-266.36 1699.74,-264.1 1690.24,-259.41 1689.39,-266.36"/>
</a>
</g>
</g>
<!-- Node21 -->
<g id="Node000021" class="node">
<title>Node21</title>
<g id="a_Node000021"><a xlink:href="_sloshing_tank_8cpp.html" target="_top" xlink:title=" ">
<polygon fill="white" stroke="#666666" points="1579,-211.5 1418,-211.5 1418,-170.5 1579,-170.5 1579,-211.5"/>
<text text-anchor="start" x="1426" y="-199.5" font-family="Helvetica,sans-Serif" font-size="10.00">/home/runner/work/kynema</text>
<text text-anchor="start" x="1426" y="-188.5" font-family="Helvetica,sans-Serif" font-size="10.00">&#45;sgf/kynema&#45;sgf/src/physics</text>
<text text-anchor="middle" x="1498.5" y="-177.5" font-family="Helvetica,sans-Serif" font-size="10.00">/multiphase/SloshingTank.cpp</text>
</a>
</g>
</g>
<!-- Node1&#45;&gt;Node21 -->
<g id="edge22_Node000001_Node000021" class="edge">
<title>Node1&#45;&gt;Node21</title>
<g id="a_edge22_Node000001_Node000021"><a xlink:title=" ">
<path fill="none" stroke="#63b8ff" d="M1698.27,-250.05C1656.62,-237.95 1605.73,-223.16 1565.73,-211.54"/>
<polygon fill="#63b8ff" stroke="#63b8ff" points="1697.51,-253.48 1708.09,-252.91 1699.47,-246.76 1697.51,-253.48"/>
</a>
</g>
</g>
<!-- Node22 -->
<g id="Node000022" class="node">
<title>Node22</title>
<g id="a_Node000022"><a xlink:href="_zalesak_disk_8cpp.html" target="_top" xlink:title=" ">
<polygon fill="white" stroke="#666666" points="1755.5,-211.5 1597.5,-211.5 1597.5,-170.5 1755.5,-170.5 1755.5,-211.5"/>
<text text-anchor="start" x="1605.5" y="-199.5" font-family="Helvetica,sans-Serif" font-size="10.00">/home/runner/work/kynema</text>
<text text-anchor="start" x="1605.5" y="-188.5" font-family="Helvetica,sans-Serif" font-size="10.00">&#45;sgf/kynema&#45;sgf/src/physics</text>
<text text-anchor="middle" x="1676.5" y="-177.5" font-family="Helvetica,sans-Serif" font-size="10.00">/multiphase/ZalesakDisk.cpp</text>
</a>
</g>
</g>
<!-- Node1&#45;&gt;Node22 -->
<g id="edge23_Node000001_Node000022" class="edge">
<title>Node1&#45;&gt;Node22</title>
<g id="a_edge23_Node000001_Node000022"><a xlink:title=" ">
<path fill="none" stroke="#63b8ff" d="M1743.41,-246.41C1729.57,-235.15 1713.65,-222.21 1700.81,-211.77"/>
<polygon fill="#63b8ff" stroke="#63b8ff" points="1741.31,-249.21 1751.28,-252.81 1745.73,-243.78 1741.31,-249.21"/>
</a>
</g>
</g>
<!-- Node23 -->
<g id="Node000023" class="node">
<title>Node23</title>
<g id="a_Node000023"><a xlink:href="_zalesak_disk_scalar_vel_8cpp.html" target="_top" xlink:title=" ">
<polygon fill="white" stroke="#666666" points="1976,-211.5 1773,-211.5 1773,-170.5 1976,-170.5 1976,-211.5"/>
<text text-anchor="start" x="1781" y="-199.5" font-family="Helvetica,sans-Serif" font-size="10.00">/home/runner/work/kynema</text>
<text text-anchor="start" x="1781" y="-188.5" font-family="Helvetica,sans-Serif" font-size="10.00">&#45;sgf/kynema&#45;sgf/src/physics</text>
<text text-anchor="middle" x="1874.5" y="-177.5" font-family="Helvetica,sans-Serif" font-size="10.00">/multiphase/ZalesakDiskScalarVel.cpp</text>
</a>
</g>
</g>
<!-- Node1&#45;&gt;Node23 -->
<g id="edge24_Node000001_Node000023" class="edge">
<title>Node1&#45;&gt;Node23</title>
<g id="a_edge24_Node000001_Node000023"><a xlink:title=" ">
<path fill="none" stroke="#63b8ff" d="M1807.59,-246.41C1821.43,-235.15 1837.35,-222.21 1850.19,-211.77"/>
<polygon fill="#63b8ff" stroke="#63b8ff" points="1805.27,-243.78 1799.72,-252.81 1809.69,-249.21 1805.27,-243.78"/>
</a>
</g>
</g>
<!-- Node24 -->
<g id="Node000024" class="node">
<title>Node24</title>
<g id="a_Node000024"><a xlink:href="_a_m_d_8cpp.html" target="_top" xlink:title=" ">
<polygon fill="white" stroke="#666666" points="2161.5,-211.5 1993.5,-211.5 1993.5,-170.5 2161.5,-170.5 2161.5,-211.5"/>
<text text-anchor="start" x="2001.5" y="-199.5" font-family="Helvetica,sans-Serif" font-size="10.00">/home/runner/work/kynema</text>
<text text-anchor="start" x="2001.5" y="-188.5" font-family="Helvetica,sans-Serif" font-size="10.00">&#45;sgf/kynema&#45;sgf/src/turbulence</text>
<text text-anchor="middle" x="2077.5" y="-177.5" font-family="Helvetica,sans-Serif" font-size="10.00">/LES/AMD.cpp</text>
</a>
</g>
</g>
<!-- Node1&#45;&gt;Node24 -->
<g id="edge25_Node000001_Node000024" class="edge">
<title>Node1&#45;&gt;Node24</title>
<g id="a_edge25_Node000001_Node000024"><a xlink:title=" ">
<path fill="none" stroke="#63b8ff" d="M1859.97,-250.32C1898.3,-240.22 1944.21,-228.07 1985.5,-217 1992.05,-215.24 1998.87,-213.41 2005.69,-211.56"/>
<polygon fill="#63b8ff" stroke="#63b8ff" points="1858.66,-247.04 1849.88,-252.98 1860.44,-253.81 1858.66,-247.04"/>
</a>
</g>
</g>
<!-- Node25 -->
<g id="Node000025" class="node">
<title>Node25</title>
<g id="a_Node000025"><a xlink:href="_a_m_d_no_therm_8cpp.html" target="_top" xlink:title=" ">
<polygon fill="white" stroke="#666666" points="2347.5,-211.5 2179.5,-211.5 2179.5,-170.5 2347.5,-170.5 2347.5,-211.5"/>
<text text-anchor="start" x="2187.5" y="-199.5" font-family="Helvetica,sans-Serif" font-size="10.00">/home/runner/work/kynema</text>
<text text-anchor="start" x="2187.5" y="-188.5" font-family="Helvetica,sans-Serif" font-size="10.00">&#45;sgf/kynema&#45;sgf/src/turbulence</text>
<text text-anchor="middle" x="2263.5" y="-177.5" font-family="Helvetica,sans-Serif" font-size="10.00">/LES/AMDNoTherm.cpp</text>
</a>
</g>
</g>
<!-- Node1&#45;&gt;Node25 -->
<g id="edge26_Node000001_Node000025" class="edge">
<title>Node1&#45;&gt;Node25</title>
<g id="a_edge26_Node000001_Node000025"><a xlink:title=" ">
<path fill="none" stroke="#63b8ff" d="M1861.4,-263.52C1941.76,-254.39 2064.92,-238.52 2170.5,-217 2178.36,-215.4 2186.55,-213.52 2194.66,-211.52"/>
<polygon fill="#63b8ff" stroke="#63b8ff" points="1860.87,-260.05 1851.33,-264.65 1861.66,-267.01 1860.87,-260.05"/>
</a>
</g>
</g>
<!-- Node26 -->
<g id="Node000026" class="node">
<title>Node26</title>
<g id="a_Node000026"><a xlink:href="_one_eq_ksgs_8cpp.html" target="_top" xlink:title=" ">
<polygon fill="white" stroke="#666666" points="2533.5,-211.5 2365.5,-211.5 2365.5,-170.5 2533.5,-170.5 2533.5,-211.5"/>
<text text-anchor="start" x="2373.5" y="-199.5" font-family="Helvetica,sans-Serif" font-size="10.00">/home/runner/work/kynema</text>
<text text-anchor="start" x="2373.5" y="-188.5" font-family="Helvetica,sans-Serif" font-size="10.00">&#45;sgf/kynema&#45;sgf/src/turbulence</text>
<text text-anchor="middle" x="2449.5" y="-177.5" font-family="Helvetica,sans-Serif" font-size="10.00">/LES/OneEqKsgs.cpp</text>
</a>
</g>
</g>
<!-- Node1&#45;&gt;Node26 -->
<g id="edge27_Node000001_Node000026" class="edge">
<title>Node1&#45;&gt;Node26</title>
<g id="a_edge27_Node000001_Node000026"><a xlink:title=" ">
<path fill="none" stroke="#63b8ff" d="M1861.32,-268.8C1975.23,-262.86 2182.28,-248.51 2356.5,-217 2364.81,-215.5 2373.46,-213.61 2381.99,-211.56"/>
<polygon fill="#63b8ff" stroke="#63b8ff" points="1861.07,-265.31 1851.26,-269.31 1861.43,-272.3 1861.07,-265.31"/>
</a>
</g>
</g>
<!-- Node27 -->
<g id="Node000027" class="node">
<title>Node27</title>
<g id="a_Node000027"><a xlink:href="_k_l_axell_8cpp.html" target="_top" xlink:title=" ">
<polygon fill="white" stroke="#666666" points="2719.5,-211.5 2551.5,-211.5 2551.5,-170.5 2719.5,-170.5 2719.5,-211.5"/>
<text text-anchor="start" x="2559.5" y="-199.5" font-family="Helvetica,sans-Serif" font-size="10.00">/home/runner/work/kynema</text>
<text text-anchor="start" x="2559.5" y="-188.5" font-family="Helvetica,sans-Serif" font-size="10.00">&#45;sgf/kynema&#45;sgf/src/turbulence</text>
<text text-anchor="middle" x="2635.5" y="-177.5" font-family="Helvetica,sans-Serif" font-size="10.00">/RANS/KLAxell.cpp</text>
</a>
</g>
</g>
<!-- Node1&#45;&gt;Node27 -->
<g id="edge28_Node000001_Node000027" class="edge">
<title>Node1&#45;&gt;Node27</title>
<g id="a_edge28_Node000001_Node000027"><a xlink:title=" ">
<path fill="none" stroke="#63b8ff" d="M1861.61,-271.6C2004.18,-268.91 2297.85,-258.35 2542.5,-217 2551.15,-215.54 2560.17,-213.62 2569.04,-211.5"/>
<polygon fill="#63b8ff" stroke="#63b8ff" points="1861.12,-268.1 1851.19,-271.78 1861.25,-275.1 1861.12,-268.1"/>
</a>
</g>
</g>
<!-- Node28 -->
<g id="Node000028" class="node">
<title>Node28</title>
<g id="a_Node000028"><a xlink:href="_k_omega_s_s_t_8cpp.html" target="_top" xlink:title=" ">
<polygon fill="white" stroke="#666666" points="2905.5,-211.5 2737.5,-211.5 2737.5,-170.5 2905.5,-170.5 2905.5,-211.5"/>
<text text-anchor="start" x="2745.5" y="-199.5" font-family="Helvetica,sans-Serif" font-size="10.00">/home/runner/work/kynema</text>
<text text-anchor="start" x="2745.5" y="-188.5" font-family="Helvetica,sans-Serif" font-size="10.00">&#45;sgf/kynema&#45;sgf/src/turbulence</text>
<text text-anchor="middle" x="2821.5" y="-177.5" font-family="Helvetica,sans-Serif" font-size="10.00">/RANS/KOmegaSST.cpp</text>
</a>
</g>
</g>
<!-- Node1&#45;&gt;Node28 -->
<g id="edge29_Node000001_Node000028" class="edge">
<title>Node1&#45;&gt;Node28</title>
<g id="a_edge29_Node000001_Node000028"><a xlink:title=" ">
<path fill="none" stroke="#63b8ff" d="M1861.13,-273.35C2028.78,-273.73 2411.65,-268.26 2728.5,-217 2737.25,-215.58 2746.36,-213.68 2755.31,-211.56"/>
<polygon fill="#63b8ff" stroke="#63b8ff" points="1861.13,-269.85 1851.12,-273.32 1861.11,-276.85 1861.13,-269.85"/>
</a>
</g>
</g>
<!-- Node29 -->
<g id="Node000029" class="node">
<title>Node29</title>
<g id="a_Node000029"><a xlink:href="_k_omega_s_s_t_i_d_d_e_s_8cpp.html" target="_top" xlink:title=" ">
<polygon fill="white" stroke="#666666" points="3091.5,-211.5 2923.5,-211.5 2923.5,-170.5 3091.5,-170.5 3091.5,-211.5"/>
<text text-anchor="start" x="2931.5" y="-199.5" font-family="Helvetica,sans-Serif" font-size="10.00">/home/runner/work/kynema</text>
<text text-anchor="start" x="2931.5" y="-188.5" font-family="Helvetica,sans-Serif" font-size="10.00">&#45;sgf/kynema&#45;sgf/src/turbulence</text>
<text text-anchor="middle" x="3007.5" y="-177.5" font-family="Helvetica,sans-Serif" font-size="10.00">/RANS/KOmegaSSTIDDES.cpp</text>
</a>
</g>
</g>
<!-- Node1&#45;&gt;Node29 -->
<g id="edge30_Node000001_Node000029" class="edge">
<title>Node1&#45;&gt;Node29</title>
<g id="a_edge30_Node000001_Node000029"><a xlink:title=" ">
<path fill="none" stroke="#63b8ff" d="M1861.42,-270.69C2090.42,-265.5 2711.76,-248.81 2914.5,-217 2923.42,-215.6 2932.71,-213.68 2941.83,-211.52"/>
<polygon fill="#63b8ff" stroke="#63b8ff" points="1861.06,-267.2 1851.14,-270.92 1861.22,-274.2 1861.06,-267.2"/>
</a>
</g>
</g>
<!-- Node30 -->
<g id="Node000030" class="node">
<title>Node30</title>
<g id="a_Node000030"><a xlink:href="_a_b_l_stats_8cpp.html" target="_top" xlink:title=" ">
<polygon fill="white" stroke="#666666" points="3261,-211.5 3110,-211.5 3110,-170.5 3261,-170.5 3261,-211.5"/>
<text text-anchor="start" x="3118" y="-199.5" font-family="Helvetica,sans-Serif" font-size="10.00">/home/runner/work/kynema</text>
<text text-anchor="start" x="3118" y="-188.5" font-family="Helvetica,sans-Serif" font-size="10.00">&#45;sgf/kynema&#45;sgf/src/wind</text>
<text text-anchor="middle" x="3185.5" y="-177.5" font-family="Helvetica,sans-Serif" font-size="10.00">_energy/ABLStats.cpp</text>
</a>
</g>
</g>
<!-- Node1&#45;&gt;Node30 -->
<g id="edge31_Node000001_Node000030" class="edge">
<title>Node1&#45;&gt;Node30</title>
<g id="a_edge31_Node000001_Node000030"><a xlink:title=" ">
<path fill="none" stroke="#63b8ff" d="M1861.45,-271.64C2115.61,-268.65 2860.77,-256.66 3100.5,-217 3108.69,-215.64 3117.21,-213.75 3125.56,-211.6"/>
<polygon fill="#63b8ff" stroke="#63b8ff" points="1861.12,-268.14 1851.16,-271.76 1861.2,-275.14 1861.12,-268.14"/>
</a>
</g>
</g>
<!-- Node3 -->
<g id="Node000003" class="node">
<title>Node3</title>
<g id="a_Node000003"><a xlink:href="_derived_qty_defs_8cpp.html" target="_top" xlink:title=" ">
<polygon fill="white" stroke="#666666" points="153,-123.5 0,-123.5 0,-82.5 153,-82.5 153,-123.5"/>
<text text-anchor="start" x="8" y="-111.5" font-family="Helvetica,sans-Serif" font-size="10.00">/home/runner/work/kynema</text>
<text text-anchor="start" x="8" y="-100.5" font-family="Helvetica,sans-Serif" font-size="10.00">&#45;sgf/kynema&#45;sgf/src/utilities</text>
<text text-anchor="middle" x="76.5" y="-89.5" font-family="Helvetica,sans-Serif" font-size="10.00">/DerivedQtyDefs.cpp</text>
</a>
</g>
</g>
<!-- Node2&#45;&gt;Node3 -->
<g id="edge2_Node000002_Node000003" class="edge">
<title>Node2&#45;&gt;Node3</title>
<g id="a_edge2_Node000002_Node000003"><a xlink:title=" ">
<path fill="none" stroke="#63b8ff" d="M212.92,-171.42C184.38,-157.32 145.24,-137.98 116.2,-123.62"/>
<polygon fill="#63b8ff" stroke="#63b8ff" points="211.64,-174.7 222.16,-175.99 214.74,-168.42 211.64,-174.7"/>
</a>
</g>
</g>
<!-- Node4&#45;&gt;Node5 -->
<g id="edge4_Node000004_Node000005" class="edge">
<title>Node4&#45;&gt;Node5</title>
<g id="a_edge4_Node000004_Node000005"><a xlink:title=" ">
<path fill="none" stroke="#63b8ff" d="M555,-172.76C495.16,-161.33 416,-145.44 346.5,-129 343.6,-128.31 340.65,-127.6 337.68,-126.87"/>
<polygon fill="#63b8ff" stroke="#63b8ff" points="554.7,-176.27 565.18,-174.7 556.01,-169.4 554.7,-176.27"/>
</a>
</g>
</g>
<!-- Node6 -->
<g id="Node000006" class="node">
<title>Node6</title>
<g id="a_Node000006"><a xlink:href="box__ops_8_h.html" target="_top" xlink:title=" ">
<polygon fill="white" stroke="#666666" points="531.5,-123.5 355.5,-123.5 355.5,-82.5 531.5,-82.5 531.5,-123.5"/>
<text text-anchor="start" x="363.5" y="-111.5" font-family="Helvetica,sans-Serif" font-size="10.00">/home/runner/work/kynema</text>
<text text-anchor="start" x="363.5" y="-100.5" font-family="Helvetica,sans-Serif" font-size="10.00">&#45;sgf/kynema&#45;sgf/src/immersed</text>
<text text-anchor="middle" x="443.5" y="-89.5" font-family="Helvetica,sans-Serif" font-size="10.00">_boundary/bluff_body/box_ops.H</text>
</a>
</g>
</g>
<!-- Node4&#45;&gt;Node6 -->
<g id="edge5_Node000004_Node000006" class="edge">
<title>Node4&#45;&gt;Node6</title>
<g id="a_edge5_Node000004_Node000006"><a xlink:title=" ">
<path fill="none" stroke="#63b8ff" d="M579.27,-160.96C549.89,-148.63 516.41,-134.59 490.06,-123.53"/>
<polygon fill="#63b8ff" stroke="#63b8ff" points="578.08,-164.25 588.65,-164.89 580.79,-157.8 578.08,-164.25"/>
</a>
</g>
</g>
<!-- Node8 -->
<g id="Node000008" class="node">
<title>Node8</title>
<g id="a_Node000008"><a xlink:href="cylinder__ops_8_h.html" target="_top" xlink:title=" ">
<polygon fill="white" stroke="#666666" points="747,-123.5 550,-123.5 550,-82.5 747,-82.5 747,-123.5"/>
<text text-anchor="start" x="558" y="-111.5" font-family="Helvetica,sans-Serif" font-size="10.00">/home/runner/work/kynema</text>
<text text-anchor="start" x="558" y="-100.5" font-family="Helvetica,sans-Serif" font-size="10.00">&#45;sgf/kynema&#45;sgf/src/immersed</text>
<text text-anchor="middle" x="648.5" y="-89.5" font-family="Helvetica,sans-Serif" font-size="10.00">_boundary/bluff_body/cylinder_ops.H</text>
</a>
</g>
</g>
<!-- Node4&#45;&gt;Node8 -->
<g id="edge7_Node000004_Node000008" class="edge">
<title>Node4&#45;&gt;Node8</title>
<g id="a_edge7_Node000004_Node000008"><a xlink:title=" ">
<path fill="none" stroke="#63b8ff" d="M648.5,-154.45C648.5,-143.94 648.5,-132.82 648.5,-123.7"/>
<polygon fill="#63b8ff" stroke="#63b8ff" points="645,-154.66 648.5,-164.66 652,-154.66 645,-154.66"/>
</a>
</g>
</g>
<!-- Node10 -->
<g id="Node000010" class="node">
<title>Node10</title>
<g id="a_Node000010"><a xlink:href="sphere__ops_8_h.html" target="_top" xlink:title=" ">
<polygon fill="white" stroke="#666666" points="956,-123.5 765,-123.5 765,-82.5 956,-82.5 956,-123.5"/>
<text text-anchor="start" x="773" y="-111.5" font-family="Helvetica,sans-Serif" font-size="10.00">/home/runner/work/kynema</text>
<text text-anchor="start" x="773" y="-100.5" font-family="Helvetica,sans-Serif" font-size="10.00">&#45;sgf/kynema&#45;sgf/src/immersed</text>
<text text-anchor="middle" x="860.5" y="-89.5" font-family="Helvetica,sans-Serif" font-size="10.00">_boundary/bluff_body/sphere_ops.H</text>
</a>
</g>
</g>
<!-- Node4&#45;&gt;Node10 -->
<g id="edge9_Node000004_Node000010" class="edge">
<title>Node4&#45;&gt;Node10</title>
<g id="a_edge9_Node000004_Node000010"><a xlink:title=" ">
<path fill="none" stroke="#63b8ff" d="M719.7,-161.12C750.18,-148.75 784.98,-134.64 812.35,-123.53"/>
<polygon fill="#63b8ff" stroke="#63b8ff" points="718.34,-157.89 710.39,-164.89 720.97,-164.38 718.34,-157.89"/>
</a>
</g>
</g>
<!-- Node7 -->
<g id="Node000007" class="node">
<title>Node7</title>
<g id="a_Node000007"><a xlink:href="_box_8cpp.html" target="_top" xlink:title=" ">
<polygon fill="white" stroke="#666666" points="526.5,-41 360.5,-41 360.5,0 526.5,0 526.5,-41"/>
<text text-anchor="start" x="368.5" y="-29" font-family="Helvetica,sans-Serif" font-size="10.00">/home/runner/work/kynema</text>
<text text-anchor="start" x="368.5" y="-18" font-family="Helvetica,sans-Serif" font-size="10.00">&#45;sgf/kynema&#45;sgf/src/immersed</text>
<text text-anchor="middle" x="443.5" y="-7" font-family="Helvetica,sans-Serif" font-size="10.00">_boundary/bluff_body/Box.cpp</text>
</a>
</g>
</g>
<!-- Node6&#45;&gt;Node7 -->
<g id="edge6_Node000006_Node000007" class="edge">
<title>Node6&#45;&gt;Node7</title>
<g id="a_edge6_Node000006_Node000007"><a xlink:title=" ">
<path fill="none" stroke="#63b8ff" d="M443.5,-71.87C443.5,-61.6 443.5,-50.4 443.5,-41.17"/>
<polygon fill="#63b8ff" stroke="#63b8ff" points="440,-72.1 443.5,-82.1 447,-72.1 440,-72.1"/>
</a>
</g>
</g>
<!-- Node9 -->
<g id="Node000009" class="node">
<title>Node9</title>
<g id="a_Node000009"><a xlink:href="_cylinder_8cpp.html" target="_top" xlink:title=" ">
<polygon fill="white" stroke="#666666" points="741,-41 556,-41 556,0 741,0 741,-41"/>
<text text-anchor="start" x="564" y="-29" font-family="Helvetica,sans-Serif" font-size="10.00">/home/runner/work/kynema</text>
<text text-anchor="start" x="564" y="-18" font-family="Helvetica,sans-Serif" font-size="10.00">&#45;sgf/kynema&#45;sgf/src/immersed</text>
<text text-anchor="middle" x="648.5" y="-7" font-family="Helvetica,sans-Serif" font-size="10.00">_boundary/bluff_body/Cylinder.cpp</text>
</a>
</g>
</g>
<!-- Node8&#45;&gt;Node9 -->
<g id="edge8_Node000008_Node000009" class="edge">
<title>Node8&#45;&gt;Node9</title>
<g id="a_edge8_Node000008_Node000009"><a xlink:title=" ">
<path fill="none" stroke="#63b8ff" d="M648.5,-71.87C648.5,-61.6 648.5,-50.4 648.5,-41.17"/>
<polygon fill="#63b8ff" stroke="#63b8ff" points="645,-72.1 648.5,-82.1 652,-72.1 645,-72.1"/>
</a>
</g>
</g>
<!-- Node11 -->
<g id="Node000011" class="node">
<title>Node11</title>
<g id="a_Node000011"><a xlink:href="_sphere_8cpp.html" target="_top" xlink:title=" ">
<polygon fill="white" stroke="#666666" points="950,-41 771,-41 771,0 950,0 950,-41"/>
<text text-anchor="start" x="779" y="-29" font-family="Helvetica,sans-Serif" font-size="10.00">/home/runner/work/kynema</text>
<text text-anchor="start" x="779" y="-18" font-family="Helvetica,sans-Serif" font-size="10.00">&#45;sgf/kynema&#45;sgf/src/immersed</text>
<text text-anchor="middle" x="860.5" y="-7" font-family="Helvetica,sans-Serif" font-size="10.00">_boundary/bluff_body/Sphere.cpp</text>
</a>
</g>
</g>
<!-- Node10&#45;&gt;Node11 -->
<g id="edge10_Node000010_Node000011" class="edge">
<title>Node10&#45;&gt;Node11</title>
<g id="a_edge10_Node000010_Node000011"><a xlink:title=" ">
<path fill="none" stroke="#63b8ff" d="M860.5,-71.87C860.5,-61.6 860.5,-50.4 860.5,-41.17"/>
<polygon fill="#63b8ff" stroke="#63b8ff" points="857,-72.1 860.5,-82.1 864,-72.1 857,-72.1"/>
</a>
</g>
</g>
<!-- Node13 -->
<g id="Node000013" class="node">
<title>Node13</title>
<g id="a_Node000013"><a xlink:href="linear__waves__ops_8_h.html" target="_top" xlink:title=" ">
<polygon fill="white" stroke="#666666" points="1354.5,-129 1184.5,-129 1184.5,-77 1354.5,-77 1354.5,-129"/>
<text text-anchor="start" x="1192.5" y="-117" font-family="Helvetica,sans-Serif" font-size="10.00">/home/runner/work/kynema</text>
<text text-anchor="start" x="1192.5" y="-106" font-family="Helvetica,sans-Serif" font-size="10.00">&#45;sgf/kynema&#45;sgf/src/ocean</text>
<text text-anchor="start" x="1192.5" y="-95" font-family="Helvetica,sans-Serif" font-size="10.00">_waves/relaxation_zones/linear</text>
<text text-anchor="middle" x="1269.5" y="-84" font-family="Helvetica,sans-Serif" font-size="10.00">_waves_ops.H</text>
</a>
</g>
</g>
<!-- Node12&#45;&gt;Node13 -->
<g id="edge13_Node000012_Node000013" class="edge">
<title>Node12&#45;&gt;Node13</title>
<g id="a_edge13_Node000012_Node000013"><a xlink:title=" ">
<path fill="none" stroke="#63b8ff" d="M1181.07,-159.51C1196.83,-149.62 1214.13,-138.76 1229.22,-129.29"/>
<polygon fill="#63b8ff" stroke="#63b8ff" points="1179.1,-156.61 1172.49,-164.89 1182.82,-162.54 1179.1,-156.61"/>
</a>
</g>
</g>
<!-- Node12&#45;&gt;Node15 -->
<g id="edge15_Node000012_Node000015" class="edge">
<title>Node12&#45;&gt;Node15</title>
<g id="a_edge15_Node000012_Node000015"><a xlink:title=" ">
<path fill="none" stroke="#63b8ff" d="M1108.36,-156.52C1101.8,-147.42 1094.81,-137.71 1088.64,-129.16"/>
<polygon fill="#63b8ff" stroke="#63b8ff" points="1105.55,-158.6 1114.23,-164.66 1111.22,-154.5 1105.55,-158.6"/>
</a>
</g>
</g>
<!-- Node16 -->
<g id="Node000016" class="node">
<title>Node16</title>
<g id="a_Node000016"><a xlink:href="stokes__waves__ops_8_h.html" target="_top" xlink:title=" ">
<polygon fill="white" stroke="#666666" points="1546.5,-129 1372.5,-129 1372.5,-77 1546.5,-77 1546.5,-129"/>
<text text-anchor="start" x="1380.5" y="-117" font-family="Helvetica,sans-Serif" font-size="10.00">/home/runner/work/kynema</text>
<text text-anchor="start" x="1380.5" y="-106" font-family="Helvetica,sans-Serif" font-size="10.00">&#45;sgf/kynema&#45;sgf/src/ocean</text>
<text text-anchor="start" x="1380.5" y="-95" font-family="Helvetica,sans-Serif" font-size="10.00">_waves/relaxation_zones/stokes</text>
<text text-anchor="middle" x="1459.5" y="-84" font-family="Helvetica,sans-Serif" font-size="10.00">_waves_ops.H</text>
</a>
</g>
</g>
<!-- Node12&#45;&gt;Node16 -->
<g id="edge16_Node000012_Node000016" class="edge">
<title>Node12&#45;&gt;Node16</title>
<g id="a_edge16_Node000012_Node000016"><a xlink:title=" ">
<path fill="none" stroke="#63b8ff" d="M1237.71,-162.33C1281.16,-150.9 1330.93,-137.81 1372.3,-126.93"/>
<polygon fill="#63b8ff" stroke="#63b8ff" points="1236.74,-158.97 1227.96,-164.89 1238.52,-165.74 1236.74,-158.97"/>
</a>
</g>
</g>
<!-- Node18 -->
<g id="Node000018" class="node">
<title>Node18</title>
<g id="a_Node000018"><a xlink:href="waves2amr__ops_8_h.html" target="_top" xlink:title=" ">
<polygon fill="white" stroke="#666666" points="1807,-123.5 1574,-123.5 1574,-82.5 1807,-82.5 1807,-123.5"/>
<text text-anchor="start" x="1582" y="-111.5" font-family="Helvetica,sans-Serif" font-size="10.00">/home/runner/work/kynema</text>
<text text-anchor="start" x="1582" y="-100.5" font-family="Helvetica,sans-Serif" font-size="10.00">&#45;sgf/kynema&#45;sgf/src/ocean</text>
<text text-anchor="middle" x="1690.5" y="-89.5" font-family="Helvetica,sans-Serif" font-size="10.00">_waves/relaxation_zones/waves2amr_ops.H</text>
</a>
</g>
</g>
<!-- Node12&#45;&gt;Node18 -->
<g id="edge18_Node000012_Node000018" class="edge">
<title>Node12&#45;&gt;Node18</title>
<g id="a_edge18_Node000012_Node000018"><a xlink:title=" ">
<path fill="none" stroke="#63b8ff" d="M1238.41,-164.93C1379.33,-140.89 1417.98,-149.49 1555.5,-129 1566.46,-127.37 1577.9,-125.5 1589.27,-123.54"/>
<polygon fill="#63b8ff" stroke="#63b8ff" points="1237.79,-161.49 1228.53,-166.64 1238.98,-168.39 1237.79,-161.49"/>
</a>
</g>
</g>
<!-- Node14 -->
<g id="Node000014" class="node">
<title>Node14</title>
<g id="a_Node000014"><a xlink:href="_linear_waves_8cpp.html" target="_top" xlink:title=" ">
<polygon fill="white" stroke="#666666" points="1328,-41 1103,-41 1103,0 1328,0 1328,-41"/>
<text text-anchor="start" x="1111" y="-29" font-family="Helvetica,sans-Serif" font-size="10.00">/home/runner/work/kynema</text>
<text text-anchor="start" x="1111" y="-18" font-family="Helvetica,sans-Serif" font-size="10.00">&#45;sgf/kynema&#45;sgf/src/ocean</text>
<text text-anchor="middle" x="1215.5" y="-7" font-family="Helvetica,sans-Serif" font-size="10.00">_waves/relaxation_zones/LinearWaves.cpp</text>
</a>
</g>
</g>
<!-- Node13&#45;&gt;Node14 -->
<g id="edge14_Node000013_Node000014" class="edge">
<title>Node13&#45;&gt;Node14</title>
<g id="a_edge14_Node000013_Node000014"><a xlink:title=" ">
<path fill="none" stroke="#63b8ff" d="M1247.09,-68.6C1240.83,-59.25 1234.22,-49.41 1228.68,-41.15"/>
<polygon fill="#63b8ff" stroke="#63b8ff" points="1244.23,-70.62 1252.71,-76.97 1250.05,-66.72 1244.23,-70.62"/>
</a>
</g>
</g>
<!-- Node17 -->
<g id="Node000017" class="node">
<title>Node17</title>
<g id="a_Node000017"><a xlink:href="_stokes_waves_8cpp.html" target="_top" xlink:title=" ">
<polygon fill="white" stroke="#666666" points="1573,-41 1346,-41 1346,0 1573,0 1573,-41"/>
<text text-anchor="start" x="1354" y="-29" font-family="Helvetica,sans-Serif" font-size="10.00">/home/runner/work/kynema</text>
<text text-anchor="start" x="1354" y="-18" font-family="Helvetica,sans-Serif" font-size="10.00">&#45;sgf/kynema&#45;sgf/src/ocean</text>
<text text-anchor="middle" x="1459.5" y="-7" font-family="Helvetica,sans-Serif" font-size="10.00">_waves/relaxation_zones/StokesWaves.cpp</text>
</a>
</g>
</g>
<!-- Node16&#45;&gt;Node17 -->
<g id="edge17_Node000016_Node000017" class="edge">
<title>Node16&#45;&gt;Node17</title>
<g id="a_edge17_Node000016_Node000017"><a xlink:title=" ">
<path fill="none" stroke="#63b8ff" d="M1459.5,-66.87C1459.5,-58.05 1459.5,-48.9 1459.5,-41.15"/>
<polygon fill="#63b8ff" stroke="#63b8ff" points="1456,-66.97 1459.5,-76.97 1463,-66.97 1456,-66.97"/>
</a>
</g>
</g>
<!-- Node19 -->
<g id="Node000019" class="node">
<title>Node19</title>
<g id="a_Node000019"><a xlink:href="_w2_a_waves_8cpp.html" target="_top" xlink:title=" ">
<polygon fill="white" stroke="#666666" points="1808,-41 1591,-41 1591,0 1808,0 1808,-41"/>
<text text-anchor="start" x="1599" y="-29" font-family="Helvetica,sans-Serif" font-size="10.00">/home/runner/work/kynema</text>
<text text-anchor="start" x="1599" y="-18" font-family="Helvetica,sans-Serif" font-size="10.00">&#45;sgf/kynema&#45;sgf/src/ocean</text>
<text text-anchor="middle" x="1699.5" y="-7" font-family="Helvetica,sans-Serif" font-size="10.00">_waves/relaxation_zones/W2AWaves.cpp</text>
</a>
</g>
</g>
<!-- Node18&#45;&gt;Node19 -->
<g id="edge19_Node000018_Node000019" class="edge">
<title>Node18&#45;&gt;Node19</title>
<g id="a_edge19_Node000018_Node000019"><a xlink:title=" ">
<path fill="none" stroke="#63b8ff" d="M1693.87,-71.87C1695.02,-61.6 1696.27,-50.4 1697.3,-41.17"/>
<polygon fill="#63b8ff" stroke="#63b8ff" points="1690.36,-71.77 1692.72,-82.1 1697.31,-72.55 1690.36,-71.77"/>
</a>
</g>
</g>
</g>
</svg>
