<?xml version="1.0" encoding="UTF-8" standalone="no"?>
<!DOCTYPE svg PUBLIC "-//W3C//DTD SVG 1.1//EN"
 "http://www.w3.org/Graphics/SVG/1.1/DTD/svg11.dtd">
<!-- Generated by graphviz version 2.43.0 (0)
 -->
<!-- Title: /home/runner/work/kynema&#45;sgf/kynema&#45;sgf/src/equation_systems/icns/icns.H Pages: 1 -->
<svg width="1769pt" height="203pt"
 viewBox="0.00 0.00 1769.33 203.00" xmlns="http://www.w3.org/2000/svg" xmlns:xlink="http://www.w3.org/1999/xlink">
<g id="graph0" class="graph" transform="scale(1 1) rotate(0) translate(4 199)">
<title>/home/runner/work/kynema&#45;sgf/kynema&#45;sgf/src/equation_systems/icns/icns.H</title>
<!-- Node1 -->
<g id="Node000001" class="node">
<title>Node1</title>
<g id="a_Node000001"><a xlink:title=" ">
<polygon fill="#999999" stroke="#666666" points="909.33,-195 750.33,-195 750.33,-154 909.33,-154 909.33,-195"/>
<text text-anchor="start" x="758.33" y="-183" font-family="Helvetica,sans-Serif" font-size="10.00">/home/runner/work/kynema</text>
<text text-anchor="start" x="758.33" y="-172" font-family="Helvetica,sans-Serif" font-size="10.00">&#45;sgf/kynema&#45;sgf/src/equation</text>
<text text-anchor="middle" x="829.83" y="-161" font-family="Helvetica,sans-Serif" font-size="10.00">_systems/icns/icns.H</text>
</a>
</g>
</g>
<!-- Node2 -->
<g id="Node000002" class="node">
<title>Node2</title>
<g id="a_Node000002"><a xlink:href="icns_8cpp.html" target="_top" xlink:title=" ">
<polygon fill="white" stroke="#666666" points="363.33,-41 204.33,-41 204.33,0 363.33,0 363.33,-41"/>
<text text-anchor="start" x="212.33" y="-29" font-family="Helvetica,sans-Serif" font-size="10.00">/home/runner/work/kynema</text>
<text text-anchor="start" x="212.33" y="-18" font-family="Helvetica,sans-Serif" font-size="10.00">&#45;sgf/kynema&#45;sgf/src/equation</text>
<text text-anchor="middle" x="283.83" y="-7" font-family="Helvetica,sans-Serif" font-size="10.00">_systems/icns/icns.cpp</text>
</a>
</g>
</g>
<!-- Node1&#45;&gt;Node2 -->
<g id="edge1_Node000001_Node000002" class="edge">
<title>Node1&#45;&gt;Node2</title>
<g id="a_edge1_Node000001_Node000002"><a xlink:title=" ">
<path fill="none" stroke="#63b8ff" d="M739.78,-174.14C537.83,-174.62 62.55,-170.14 13.83,-118 -46.06,-53.89 104.49,-32.32 204.11,-25.1"/>
<polygon fill="#63b8ff" stroke="#63b8ff" points="740.08,-177.63 750.07,-174.11 740.06,-170.63 740.08,-177.63"/>
</a>
</g>
</g>
<!-- Node3 -->
<g id="Node000003" class="node">
<title>Node3</title>
<g id="a_Node000003"><a xlink:href="icns__advection_8_h.html" target="_top" xlink:title=" ">
<polygon fill="white" stroke="#666666" points="734.83,-118 562.83,-118 562.83,-77 734.83,-77 734.83,-118"/>
<text text-anchor="start" x="570.83" y="-106" font-family="Helvetica,sans-Serif" font-size="10.00">/home/runner/work/kynema</text>
<text text-anchor="start" x="570.83" y="-95" font-family="Helvetica,sans-Serif" font-size="10.00">&#45;sgf/kynema&#45;sgf/src/equation</text>
<text text-anchor="middle" x="648.83" y="-84" font-family="Helvetica,sans-Serif" font-size="10.00">_systems/icns/icns_advection.H</text>
</a>
</g>
</g>
<!-- Node1&#45;&gt;Node3 -->
<g id="edge2_Node000001_Node000003" class="edge">
<title>Node1&#45;&gt;Node3</title>
<g id="a_edge2_Node000001_Node000003"><a xlink:title=" ">
<path fill="none" stroke="#63b8ff" d="M773.44,-150.13C748.58,-139.83 719.69,-127.86 695.99,-118.04"/>
<polygon fill="#63b8ff" stroke="#63b8ff" points="772.17,-153.4 782.75,-153.99 774.85,-146.93 772.17,-153.4"/>
</a>
</g>
</g>
<!-- Node5 -->
<g id="Node000005" class="node">
<title>Node5</title>
<g id="a_Node000005"><a xlink:href="icns__bcop_8_h.html" target="_top" xlink:title=" ">
<polygon fill="white" stroke="#666666" points="182.33,-118 23.33,-118 23.33,-77 182.33,-77 182.33,-118"/>
<text text-anchor="start" x="31.33" y="-106" font-family="Helvetica,sans-Serif" font-size="10.00">/home/runner/work/kynema</text>
<text text-anchor="start" x="31.33" y="-95" font-family="Helvetica,sans-Serif" font-size="10.00">&#45;sgf/kynema&#45;sgf/src/equation</text>
<text text-anchor="middle" x="102.83" y="-84" font-family="Helvetica,sans-Serif" font-size="10.00">_systems/icns/icns_bcop.H</text>
</a>
</g>
</g>
<!-- Node1&#45;&gt;Node5 -->
<g id="edge5_Node000001_Node000005" class="edge">
<title>Node1&#45;&gt;Node5</title>
<g id="a_edge5_Node000001_Node000005"><a xlink:title=" ">
<path fill="none" stroke="#63b8ff" d="M739.92,-169.34C616.01,-162.77 386,-147.59 191.83,-118 188.86,-117.55 185.84,-117.05 182.8,-116.53"/>
<polygon fill="#63b8ff" stroke="#63b8ff" points="739.95,-172.84 750.12,-169.87 740.32,-165.85 739.95,-172.84"/>
</a>
</g>
</g>
<!-- Node6 -->
<g id="Node000006" class="node">
<title>Node6</title>
<g id="a_Node000006"><a xlink:href="icns__diffusion_8_h.html" target="_top" xlink:title=" ">
<polygon fill="white" stroke="#666666" points="366.83,-118 200.83,-118 200.83,-77 366.83,-77 366.83,-118"/>
<text text-anchor="start" x="208.83" y="-106" font-family="Helvetica,sans-Serif" font-size="10.00">/home/runner/work/kynema</text>
<text text-anchor="start" x="208.83" y="-95" font-family="Helvetica,sans-Serif" font-size="10.00">&#45;sgf/kynema&#45;sgf/src/equation</text>
<text text-anchor="middle" x="283.83" y="-84" font-family="Helvetica,sans-Serif" font-size="10.00">_systems/icns/icns_diffusion.H</text>
</a>
</g>
</g>
<!-- Node1&#45;&gt;Node6 -->
<g id="edge7_Node000001_Node000006" class="edge">
<title>Node1&#45;&gt;Node6</title>
<g id="a_edge7_Node000001_Node000006"><a xlink:title=" ">
<path fill="none" stroke="#63b8ff" d="M740.09,-164.77C648.47,-155.33 502.28,-138.8 376.83,-118 373.58,-117.46 370.26,-116.89 366.92,-116.29"/>
<polygon fill="#63b8ff" stroke="#63b8ff" points="739.86,-168.27 750.16,-165.8 740.57,-161.3 739.86,-168.27"/>
</a>
</g>
</g>
<!-- Node7 -->
<g id="Node000007" class="node">
<title>Node7</title>
<g id="a_Node000007"><a xlink:href="icns__ops_8_h.html" target="_top" xlink:title=" ">
<polygon fill="white" stroke="#666666" points="544.33,-118 385.33,-118 385.33,-77 544.33,-77 544.33,-118"/>
<text text-anchor="start" x="393.33" y="-106" font-family="Helvetica,sans-Serif" font-size="10.00">/home/runner/work/kynema</text>
<text text-anchor="start" x="393.33" y="-95" font-family="Helvetica,sans-Serif" font-size="10.00">&#45;sgf/kynema&#45;sgf/src/equation</text>
<text text-anchor="middle" x="464.83" y="-84" font-family="Helvetica,sans-Serif" font-size="10.00">_systems/icns/icns_ops.H</text>
</a>
</g>
</g>
<!-- Node1&#45;&gt;Node7 -->
<g id="edge9_Node000001_Node000007" class="edge">
<title>Node1&#45;&gt;Node7</title>
<g id="a_edge9_Node000001_Node000007"><a xlink:title=" ">
<path fill="none" stroke="#63b8ff" d="M740.15,-155.87C686.12,-145.15 615.97,-131.05 553.83,-118 550.74,-117.35 547.58,-116.68 544.39,-116"/>
<polygon fill="#63b8ff" stroke="#63b8ff" points="739.56,-159.32 750.04,-157.83 740.92,-152.46 739.56,-159.32"/>
</a>
</g>
</g>
<!-- Node8 -->
<g id="Node000008" class="node">
<title>Node8</title>
<g id="a_Node000008"><a xlink:href="_burggraf_lid_8cpp.html" target="_top" xlink:title=" ">
<polygon fill="white" stroke="#666666" points="906.33,-118 753.33,-118 753.33,-77 906.33,-77 906.33,-118"/>
<text text-anchor="start" x="761.33" y="-106" font-family="Helvetica,sans-Serif" font-size="10.00">/home/runner/work/kynema</text>
<text text-anchor="start" x="761.33" y="-95" font-family="Helvetica,sans-Serif" font-size="10.00">&#45;sgf/kynema&#45;sgf/src/physics</text>
<text text-anchor="middle" x="829.83" y="-84" font-family="Helvetica,sans-Serif" font-size="10.00">/udfs/BurggrafLid.cpp</text>
</a>
</g>
</g>
<!-- Node1&#45;&gt;Node8 -->
<g id="edge11_Node000001_Node000008" class="edge">
<title>Node1&#45;&gt;Node8</title>
<g id="a_edge11_Node000001_Node000008"><a xlink:title=" ">
<path fill="none" stroke="#63b8ff" d="M829.83,-143.69C829.83,-135.08 829.83,-125.9 829.83,-118.07"/>
<polygon fill="#63b8ff" stroke="#63b8ff" points="826.33,-143.79 829.83,-153.79 833.33,-143.79 826.33,-143.79"/>
</a>
</g>
</g>
<!-- Node9 -->
<g id="Node000009" class="node">
<title>Node9</title>
<g id="a_Node000009"><a xlink:href="_custom_scalar_8cpp.html" target="_top" xlink:title=" ">
<polygon fill="white" stroke="#666666" points="1077.33,-118 924.33,-118 924.33,-77 1077.33,-77 1077.33,-118"/>
<text text-anchor="start" x="932.33" y="-106" font-family="Helvetica,sans-Serif" font-size="10.00">/home/runner/work/kynema</text>
<text text-anchor="start" x="932.33" y="-95" font-family="Helvetica,sans-Serif" font-size="10.00">&#45;sgf/kynema&#45;sgf/src/physics</text>
<text text-anchor="middle" x="1000.83" y="-84" font-family="Helvetica,sans-Serif" font-size="10.00">/udfs/CustomScalar.cpp</text>
</a>
</g>
</g>
<!-- Node1&#45;&gt;Node9 -->
<g id="edge12_Node000001_Node000009" class="edge">
<title>Node1&#45;&gt;Node9</title>
<g id="a_edge12_Node000001_Node000009"><a xlink:title=" ">
<path fill="none" stroke="#63b8ff" d="M883.73,-149.86C907.08,-139.62 934.09,-127.77 956.28,-118.04"/>
<polygon fill="#63b8ff" stroke="#63b8ff" points="882.07,-146.77 874.31,-153.99 884.88,-153.18 882.07,-146.77"/>
</a>
</g>
</g>
<!-- Node10 -->
<g id="Node000010" class="node">
<title>Node10</title>
<g id="a_Node000010"><a xlink:href="_custom_velocity_8cpp.html" target="_top" xlink:title=" ">
<polygon fill="white" stroke="#666666" points="1248.33,-118 1095.33,-118 1095.33,-77 1248.33,-77 1248.33,-118"/>
<text text-anchor="start" x="1103.33" y="-106" font-family="Helvetica,sans-Serif" font-size="10.00">/home/runner/work/kynema</text>
<text text-anchor="start" x="1103.33" y="-95" font-family="Helvetica,sans-Serif" font-size="10.00">&#45;sgf/kynema&#45;sgf/src/physics</text>
<text text-anchor="middle" x="1171.83" y="-84" font-family="Helvetica,sans-Serif" font-size="10.00">/udfs/CustomVelocity.cpp</text>
</a>
</g>
</g>
<!-- Node1&#45;&gt;Node10 -->
<g id="edge13_Node000001_Node000010" class="edge">
<title>Node1&#45;&gt;Node10</title>
<g id="a_edge13_Node000001_Node000010"><a xlink:title=" ">
<path fill="none" stroke="#63b8ff" d="M919.5,-154.43C968.9,-143.85 1031.29,-130.37 1086.83,-118 1089.49,-117.41 1092.2,-116.8 1094.93,-116.19"/>
<polygon fill="#63b8ff" stroke="#63b8ff" points="918.53,-151.06 909.48,-156.57 919.99,-157.9 918.53,-151.06"/>
</a>
</g>
</g>
<!-- Node11 -->
<g id="Node000011" class="node">
<title>Node11</title>
<g id="a_Node000011"><a xlink:href="_power_law_profile_8cpp.html" target="_top" xlink:title=" ">
<polygon fill="white" stroke="#666666" points="1419.33,-118 1266.33,-118 1266.33,-77 1419.33,-77 1419.33,-118"/>
<text text-anchor="start" x="1274.33" y="-106" font-family="Helvetica,sans-Serif" font-size="10.00">/home/runner/work/kynema</text>
<text text-anchor="start" x="1274.33" y="-95" font-family="Helvetica,sans-Serif" font-size="10.00">&#45;sgf/kynema&#45;sgf/src/physics</text>
<text text-anchor="middle" x="1342.83" y="-84" font-family="Helvetica,sans-Serif" font-size="10.00">/udfs/PowerLawProfile.cpp</text>
</a>
</g>
</g>
<!-- Node1&#45;&gt;Node11 -->
<g id="edge14_Node000001_Node000011" class="edge">
<title>Node1&#45;&gt;Node11</title>
<g id="a_edge14_Node000001_Node000011"><a xlink:title=" ">
<path fill="none" stroke="#63b8ff" d="M919.55,-164.42C1006.42,-155.02 1141.66,-138.81 1257.83,-118 1260.52,-117.52 1263.24,-117.01 1265.99,-116.48"/>
<polygon fill="#63b8ff" stroke="#63b8ff" points="919.03,-160.95 909.46,-165.5 919.78,-167.91 919.03,-160.95"/>
</a>
</g>
</g>
<!-- Node12 -->
<g id="Node000012" class="node">
<title>Node12</title>
<g id="a_Node000012"><a xlink:href="_rankine_8cpp.html" target="_top" xlink:title=" ">
<polygon fill="white" stroke="#666666" points="1590.33,-118 1437.33,-118 1437.33,-77 1590.33,-77 1590.33,-118"/>
<text text-anchor="start" x="1445.33" y="-106" font-family="Helvetica,sans-Serif" font-size="10.00">/home/runner/work/kynema</text>
<text text-anchor="start" x="1445.33" y="-95" font-family="Helvetica,sans-Serif" font-size="10.00">&#45;sgf/kynema&#45;sgf/src/physics</text>
<text text-anchor="middle" x="1513.83" y="-84" font-family="Helvetica,sans-Serif" font-size="10.00">/udfs/Rankine.cpp</text>
</a>
</g>
</g>
<!-- Node1&#45;&gt;Node12 -->
<g id="edge15_Node000001_Node000012" class="edge">
<title>Node1&#45;&gt;Node12</title>
<g id="a_edge15_Node000001_Node000012"><a xlink:title=" ">
<path fill="none" stroke="#63b8ff" d="M919.75,-168.91C1037.33,-162.05 1249.47,-146.75 1428.83,-118 1431.52,-117.57 1434.26,-117.1 1437.01,-116.61"/>
<polygon fill="#63b8ff" stroke="#63b8ff" points="919.49,-165.42 909.71,-169.49 919.89,-172.41 919.49,-165.42"/>
</a>
</g>
</g>
<!-- Node13 -->
<g id="Node000013" class="node">
<title>Node13</title>
<g id="a_Node000013"><a xlink:href="_two_layer_8cpp.html" target="_top" xlink:title=" ">
<polygon fill="white" stroke="#666666" points="1761.33,-118 1608.33,-118 1608.33,-77 1761.33,-77 1761.33,-118"/>
<text text-anchor="start" x="1616.33" y="-106" font-family="Helvetica,sans-Serif" font-size="10.00">/home/runner/work/kynema</text>
<text text-anchor="start" x="1616.33" y="-95" font-family="Helvetica,sans-Serif" font-size="10.00">&#45;sgf/kynema&#45;sgf/src/physics</text>
<text text-anchor="middle" x="1684.83" y="-84" font-family="Helvetica,sans-Serif" font-size="10.00">/udfs/TwoLayer.cpp</text>
</a>
</g>
</g>
<!-- Node1&#45;&gt;Node13 -->
<g id="edge16_Node000001_Node000013" class="edge">
<title>Node1&#45;&gt;Node13</title>
<g id="a_edge16_Node000001_Node000013"><a xlink:title=" ">
<path fill="none" stroke="#63b8ff" d="M919.65,-171.49C1063.83,-167.27 1355.51,-154.61 1599.83,-118 1602.53,-117.6 1605.26,-117.15 1608.02,-116.68"/>
<polygon fill="#63b8ff" stroke="#63b8ff" points="919.43,-168 909.53,-171.78 919.63,-175 919.43,-168"/>
</a>
</g>
</g>
<!-- Node3&#45;&gt;Node2 -->
<g id="edge3_Node000003_Node000002" class="edge">
<title>Node3&#45;&gt;Node2</title>
<g id="a_edge3_Node000003_Node000002"><a xlink:title=" ">
<path fill="none" stroke="#63b8ff" d="M552.72,-76.75C493.71,-64.63 419.04,-49.28 363.37,-37.84"/>
<polygon fill="#63b8ff" stroke="#63b8ff" points="552.3,-80.24 562.8,-78.82 553.7,-73.38 552.3,-80.24"/>
</a>
</g>
</g>
<!-- Node4 -->
<g id="Node000004" class="node">
<title>Node4</title>
<g id="a_Node000004"><a xlink:href="icns__advection_8cpp.html" target="_top" xlink:title=" ">
<polygon fill="white" stroke="#666666" points="739.83,-41 557.83,-41 557.83,0 739.83,0 739.83,-41"/>
<text text-anchor="start" x="565.83" y="-29" font-family="Helvetica,sans-Serif" font-size="10.00">/home/runner/work/kynema</text>
<text text-anchor="start" x="565.83" y="-18" font-family="Helvetica,sans-Serif" font-size="10.00">&#45;sgf/kynema&#45;sgf/src/equation</text>
<text text-anchor="middle" x="648.83" y="-7" font-family="Helvetica,sans-Serif" font-size="10.00">_systems/icns/icns_advection.cpp</text>
</a>
</g>
</g>
<!-- Node3&#45;&gt;Node4 -->
<g id="edge4_Node000003_Node000004" class="edge">
<title>Node3&#45;&gt;Node4</title>
<g id="a_edge4_Node000003_Node000004"><a xlink:title=" ">
<path fill="none" stroke="#63b8ff" d="M648.83,-66.69C648.83,-58.08 648.83,-48.9 648.83,-41.07"/>
<polygon fill="#63b8ff" stroke="#63b8ff" points="645.33,-66.79 648.83,-76.79 652.33,-66.79 645.33,-66.79"/>
</a>
</g>
</g>
<!-- Node5&#45;&gt;Node2 -->
<g id="edge6_Node000005_Node000002" class="edge">
<title>Node5&#45;&gt;Node2</title>
<g id="a_edge6_Node000005_Node000002"><a xlink:title=" ">
<path fill="none" stroke="#63b8ff" d="M159.23,-73.13C184.09,-62.83 212.98,-50.86 236.67,-41.04"/>
<polygon fill="#63b8ff" stroke="#63b8ff" points="157.81,-69.93 149.92,-76.99 160.49,-76.4 157.81,-69.93"/>
</a>
</g>
</g>
<!-- Node6&#45;&gt;Node2 -->
<g id="edge8_Node000006_Node000002" class="edge">
<title>Node6&#45;&gt;Node2</title>
<g id="a_edge8_Node000006_Node000002"><a xlink:title=" ">
<path fill="none" stroke="#63b8ff" d="M283.83,-66.69C283.83,-58.08 283.83,-48.9 283.83,-41.07"/>
<polygon fill="#63b8ff" stroke="#63b8ff" points="280.33,-66.79 283.83,-76.79 287.33,-66.79 280.33,-66.79"/>
</a>
</g>
</g>
<!-- Node7&#45;&gt;Node2 -->
<g id="edge10_Node000007_Node000002" class="edge">
<title>Node7&#45;&gt;Node2</title>
<g id="a_edge10_Node000007_Node000002"><a xlink:title=" ">
<path fill="none" stroke="#63b8ff" d="M408.44,-73.13C383.58,-62.83 354.69,-50.86 330.99,-41.04"/>
<polygon fill="#63b8ff" stroke="#63b8ff" points="407.17,-76.4 417.75,-76.99 409.85,-69.93 407.17,-76.4"/>
</a>
</g>
</g>
</g>
</svg>
