<?xml version="1.0" encoding="UTF-8" standalone="no"?>
<!DOCTYPE svg PUBLIC "-//W3C//DTD SVG 1.1//EN"
 "http://www.w3.org/Graphics/SVG/1.1/DTD/svg11.dtd">
<!-- Generated by graphviz version 2.43.0 (0)
 -->
<!-- Title: Graphical Class Hierarchy Pages: 1 -->
<svg width="349pt" height="905pt"
 viewBox="0.00 0.00 349.00 904.50" xmlns="http://www.w3.org/2000/svg" xmlns:xlink="http://www.w3.org/1999/xlink">
<g id="graph0" class="graph" transform="scale(1 1) rotate(0) translate(4 900.5)">
<title>Graphical Class Hierarchy</title>
<!-- Node0 -->
<g id="Node000000" class="node">
<title>Node0</title>
<g id="a_Node000000"><a xlink:title=" ">
<polygon fill="#e0e0e0" stroke="#999999" points="120,-515.5 0,-515.5 0,-474.5 120,-474.5 120,-515.5"/>
<text text-anchor="start" x="8" y="-503.5" font-family="Helvetica,sans-Serif" font-size="10.00">kynema_sgf::Factory</text>
<text text-anchor="start" x="8" y="-492.5" font-family="Helvetica,sans-Serif" font-size="10.00">&lt; Physics, CFDSim &amp;</text>
<text text-anchor="middle" x="60" y="-481.5" font-family="Helvetica,sans-Serif" font-size="10.00"> &gt;::Register</text>
</a>
</g>
</g>
<!-- Node1 -->
<g id="Node000001" class="node">
<title>Node1</title>
<g id="a_Node000001"><a xlink:href="classkynema__sgf_1_1_rain_drop.html" target="_top" xlink:title=" ">
<polygon fill="white" stroke="#666666" points="311.5,-896.5 185.5,-896.5 185.5,-877.5 311.5,-877.5 311.5,-896.5"/>
<text text-anchor="middle" x="248.5" y="-884.5" font-family="Helvetica,sans-Serif" font-size="10.00">kynema_sgf::RainDrop</text>
</a>
</g>
</g>
<!-- Node0&#45;&gt;Node1 -->
<g id="edge100_Node000000_Node000001" class="edge">
<title>Node0&#45;&gt;Node1</title>
<g id="a_edge100_Node000000_Node000001"><a xlink:title=" ">
<path fill="none" stroke="#63b8ff" d="M64.62,-525.95C74.7,-606.8 105.72,-821.39 156,-869 164.11,-876.68 174.5,-881.53 185.34,-884.51"/>
<polygon fill="#63b8ff" stroke="#63b8ff" points="68.07,-525.4 63.39,-515.9 61.13,-526.25 68.07,-525.4"/>
</a>
</g>
</g>
<!-- Node2 -->
<g id="Node000002" class="node">
<title>Node2</title>
<g id="a_Node000002"><a xlink:href="classkynema__sgf_1_1_rayleigh_taylor.html" target="_top" xlink:title=" ">
<polygon fill="white" stroke="#666666" points="325,-859.5 172,-859.5 172,-840.5 325,-840.5 325,-859.5"/>
<text text-anchor="middle" x="248.5" y="-847.5" font-family="Helvetica,sans-Serif" font-size="10.00">kynema_sgf::RayleighTaylor</text>
</a>
</g>
</g>
<!-- Node0&#45;&gt;Node2 -->
<g id="edge101_Node000000_Node000002" class="edge">
<title>Node0&#45;&gt;Node2</title>
<g id="a_edge101_Node000000_Node000002"><a xlink:title=" ">
<path fill="none" stroke="#63b8ff" d="M65.53,-525.9C77.17,-600.98 110.44,-789.96 156,-832 160.64,-836.28 165.99,-839.68 171.73,-842.35"/>
<polygon fill="#63b8ff" stroke="#63b8ff" points="68.94,-525.03 63.97,-515.67 62.02,-526.09 68.94,-525.03"/>
</a>
</g>
</g>
<!-- Node3 -->
<g id="Node000003" class="node">
<title>Node3</title>
<g id="a_Node000003"><a xlink:href="classkynema__sgf_1_1_scalar_advection.html" target="_top" xlink:title=" ">
<polygon fill="white" stroke="#666666" points="328.5,-822.5 168.5,-822.5 168.5,-803.5 328.5,-803.5 328.5,-822.5"/>
<text text-anchor="middle" x="248.5" y="-810.5" font-family="Helvetica,sans-Serif" font-size="10.00">kynema_sgf::ScalarAdvection</text>
</a>
</g>
</g>
<!-- Node0&#45;&gt;Node3 -->
<g id="edge102_Node000000_Node000003" class="edge">
<title>Node0&#45;&gt;Node3</title>
<g id="a_edge102_Node000000_Node000003"><a xlink:title=" ">
<path fill="none" stroke="#63b8ff" d="M61.09,-526.08C63.05,-587.39 76.64,-724.09 156,-795 159.74,-798.34 163.92,-801.14 168.37,-803.48"/>
<polygon fill="#63b8ff" stroke="#63b8ff" points="64.58,-525.8 60.85,-515.88 57.58,-525.96 64.58,-525.8"/>
</a>
</g>
</g>
<!-- Node4 -->
<g id="Node000004" class="node">
<title>Node4</title>
<g id="a_Node000004"><a xlink:href="classkynema__sgf_1_1_sloshing_tank.html" target="_top" xlink:title=" ">
<polygon fill="white" stroke="#666666" points="321,-785.5 176,-785.5 176,-766.5 321,-766.5 321,-785.5"/>
<text text-anchor="middle" x="248.5" y="-773.5" font-family="Helvetica,sans-Serif" font-size="10.00">kynema_sgf::SloshingTank</text>
</a>
</g>
</g>
<!-- Node0&#45;&gt;Node4 -->
<g id="edge103_Node000000_Node000004" class="edge">
<title>Node0&#45;&gt;Node4</title>
<g id="a_edge103_Node000000_Node000004"><a xlink:title=" ">
<path fill="none" stroke="#63b8ff" d="M62.67,-525.77C67.43,-581.2 85.71,-697.68 156,-758 161.77,-762.96 168.51,-766.7 175.67,-769.51"/>
<polygon fill="#63b8ff" stroke="#63b8ff" points="66.14,-525.23 61.89,-515.53 59.16,-525.77 66.14,-525.23"/>
</a>
</g>
</g>
<!-- Node5 -->
<g id="Node000005" class="node">
<title>Node5</title>
<g id="a_Node000005"><a xlink:href="classkynema__sgf_1_1_synthetic_turbulence.html" target="_top" xlink:title=" ">
<polygon fill="white" stroke="#666666" points="338,-748.5 159,-748.5 159,-729.5 338,-729.5 338,-748.5"/>
<text text-anchor="middle" x="248.5" y="-736.5" font-family="Helvetica,sans-Serif" font-size="10.00">kynema_sgf::SyntheticTurbulence</text>
</a>
</g>
</g>
<!-- Node0&#45;&gt;Node5 -->
<g id="edge104_Node000000_Node000005" class="edge">
<title>Node0&#45;&gt;Node5</title>
<g id="a_edge104_Node000000_Node000005"><a xlink:title=" ">
<path fill="none" stroke="#63b8ff" d="M64.73,-525.72C72.43,-574.98 94.82,-671.17 156,-721 160.02,-724.27 164.46,-727.01 169.16,-729.29"/>
<polygon fill="#63b8ff" stroke="#63b8ff" points="68.17,-525.06 63.27,-515.67 61.25,-526.07 68.17,-525.06"/>
</a>
</g>
</g>
<!-- Node6 -->
<g id="Node000006" class="node">
<title>Node6</title>
<g id="a_Node000006"><a xlink:href="classkynema__sgf_1_1_taylor_green_vortex.html" target="_top" xlink:title=" ">
<polygon fill="white" stroke="#666666" points="334,-711.5 163,-711.5 163,-692.5 334,-692.5 334,-711.5"/>
<text text-anchor="middle" x="248.5" y="-699.5" font-family="Helvetica,sans-Serif" font-size="10.00">kynema_sgf::TaylorGreenVortex</text>
</a>
</g>
</g>
<!-- Node0&#45;&gt;Node6 -->
<g id="edge105_Node000000_Node000006" class="edge">
<title>Node0&#45;&gt;Node6</title>
<g id="a_edge105_Node000000_Node000006"><a xlink:title=" ">
<path fill="none" stroke="#63b8ff" d="M67.45,-525.39C78.13,-567.88 103.72,-644.29 156,-684 160.38,-687.33 165.22,-690.09 170.3,-692.38"/>
<polygon fill="#63b8ff" stroke="#63b8ff" points="70.84,-524.52 65.1,-515.61 64.03,-526.15 70.84,-524.52"/>
</a>
</g>
</g>
<!-- Node7 -->
<g id="Node000007" class="node">
<title>Node7</title>
<g id="a_Node000007"><a xlink:href="classkynema__sgf_1_1_vortex_dipole.html" target="_top" xlink:title=" ">
<polygon fill="white" stroke="#666666" points="320.5,-674.5 176.5,-674.5 176.5,-655.5 320.5,-655.5 320.5,-674.5"/>
<text text-anchor="middle" x="248.5" y="-662.5" font-family="Helvetica,sans-Serif" font-size="10.00">kynema_sgf::VortexDipole</text>
</a>
</g>
</g>
<!-- Node0&#45;&gt;Node7 -->
<g id="edge106_Node000000_Node000007" class="edge">
<title>Node0&#45;&gt;Node7</title>
<g id="a_edge106_Node000000_Node000007"><a xlink:title=" ">
<path fill="none" stroke="#63b8ff" d="M71.38,-525.22C85.07,-560.29 112.62,-617.11 156,-647 162.13,-651.22 169.02,-654.51 176.18,-657.06"/>
<polygon fill="#63b8ff" stroke="#63b8ff" points="74.53,-523.64 67.73,-515.51 67.98,-526.11 74.53,-523.64"/>
</a>
</g>
</g>
<!-- Node8 -->
<g id="Node000008" class="node">
<title>Node8</title>
<g id="a_Node000008"><a xlink:href="classkynema__sgf_1_1_vortex_patch.html" target="_top" xlink:title=" ">
<polygon fill="white" stroke="#666666" points="318,-637.5 179,-637.5 179,-618.5 318,-618.5 318,-637.5"/>
<text text-anchor="middle" x="248.5" y="-625.5" font-family="Helvetica,sans-Serif" font-size="10.00">kynema_sgf::VortexPatch</text>
</a>
</g>
</g>
<!-- Node0&#45;&gt;Node8 -->
<g id="edge107_Node000000_Node000008" class="edge">
<title>Node0&#45;&gt;Node8</title>
<g id="a_edge107_Node000000_Node000008"><a xlink:title=" ">
<path fill="none" stroke="#63b8ff" d="M77.39,-524.65C93.73,-551.31 121.37,-589.37 156,-610 162.95,-614.14 170.68,-617.35 178.62,-619.84"/>
<polygon fill="#63b8ff" stroke="#63b8ff" points="80.2,-522.54 72.08,-515.74 74.19,-526.12 80.2,-522.54"/>
</a>
</g>
</g>
<!-- Node9 -->
<g id="Node000009" class="node">
<title>Node9</title>
<g id="a_Node000009"><a xlink:href="classkynema__sgf_1_1_vortex_patch_scalar_vel.html" target="_top" xlink:title=" ">
<polygon fill="white" stroke="#666666" points="340.5,-600.5 156.5,-600.5 156.5,-581.5 340.5,-581.5 340.5,-600.5"/>
<text text-anchor="middle" x="248.5" y="-588.5" font-family="Helvetica,sans-Serif" font-size="10.00">kynema_sgf::VortexPatchScalarVel</text>
</a>
</g>
</g>
<!-- Node0&#45;&gt;Node9 -->
<g id="edge108_Node000000_Node000009" class="edge">
<title>Node0&#45;&gt;Node9</title>
<g id="a_edge108_Node000000_Node000009"><a xlink:title=" ">
<path fill="none" stroke="#63b8ff" d="M87.24,-522.66C105.04,-539.77 129.99,-560.73 156,-573 163.17,-576.39 170.95,-579.13 178.85,-581.37"/>
<polygon fill="#63b8ff" stroke="#63b8ff" points="89.65,-520.12 80.07,-515.6 84.74,-525.11 89.65,-520.12"/>
</a>
</g>
</g>
<!-- Node10 -->
<g id="Node000010" class="node">
<title>Node10</title>
<g id="a_Node000010"><a xlink:href="classkynema__sgf_1_1_vortex_ring.html" target="_top" xlink:title=" ">
<polygon fill="white" stroke="#666666" points="315.5,-563.5 181.5,-563.5 181.5,-544.5 315.5,-544.5 315.5,-563.5"/>
<text text-anchor="middle" x="248.5" y="-551.5" font-family="Helvetica,sans-Serif" font-size="10.00">kynema_sgf::VortexRing</text>
</a>
</g>
</g>
<!-- Node0&#45;&gt;Node10 -->
<g id="edge109_Node000000_Node000010" class="edge">
<title>Node0&#45;&gt;Node10</title>
<g id="a_edge109_Node000000_Node000010"><a xlink:title=" ">
<path fill="none" stroke="#63b8ff" d="M112.67,-519.67C126.52,-525.62 141.64,-531.55 156,-536 166.51,-539.26 177.9,-542.06 188.95,-544.41"/>
<polygon fill="#63b8ff" stroke="#63b8ff" points="113.87,-516.37 103.3,-515.55 111.05,-522.78 113.87,-516.37"/>
</a>
</g>
</g>
<!-- Node11 -->
<g id="Node000011" class="node">
<title>Node11</title>
<g id="a_Node000011"><a xlink:href="classkynema__sgf_1_1_zalesak_disk.html" target="_top" xlink:title=" ">
<polygon fill="white" stroke="#666666" points="319.5,-526.5 177.5,-526.5 177.5,-507.5 319.5,-507.5 319.5,-526.5"/>
<text text-anchor="middle" x="248.5" y="-514.5" font-family="Helvetica,sans-Serif" font-size="10.00">kynema_sgf::ZalesakDisk</text>
</a>
</g>
</g>
<!-- Node0&#45;&gt;Node11 -->
<g id="edge110_Node000000_Node000011" class="edge">
<title>Node0&#45;&gt;Node11</title>
<g id="a_edge110_Node000000_Node000011"><a xlink:title=" ">
<path fill="none" stroke="#63b8ff" d="M130.02,-503.14C145.5,-504.97 161.94,-506.91 177.46,-508.74"/>
<polygon fill="#63b8ff" stroke="#63b8ff" points="130.35,-499.66 120.01,-501.96 129.53,-506.61 130.35,-499.66"/>
</a>
</g>
</g>
<!-- Node12 -->
<g id="Node000012" class="node">
<title>Node12</title>
<g id="a_Node000012"><a xlink:href="classkynema__sgf_1_1actuator_1_1_actuator.html" target="_top" xlink:title=" ">
<polygon fill="white" stroke="#666666" points="309.5,-489 187.5,-489 187.5,-459 309.5,-459 309.5,-489"/>
<text text-anchor="start" x="195.5" y="-477" font-family="Helvetica,sans-Serif" font-size="10.00">kynema_sgf::actuator</text>
<text text-anchor="middle" x="248.5" y="-466" font-family="Helvetica,sans-Serif" font-size="10.00">::Actuator</text>
</a>
</g>
</g>
<!-- Node0&#45;&gt;Node12 -->
<g id="edge111_Node000000_Node000012" class="edge">
<title>Node0&#45;&gt;Node12</title>
<g id="a_edge111_Node000000_Node000012"><a xlink:title=" ">
<path fill="none" stroke="#63b8ff" d="M129.99,-487.23C148.79,-485.12 169,-482.84 187.27,-480.78"/>
<polygon fill="#63b8ff" stroke="#63b8ff" points="129.56,-483.76 120.01,-488.36 130.34,-490.71 129.56,-483.76"/>
</a>
</g>
</g>
<!-- Node13 -->
<g id="Node000013" class="node">
<title>Node13</title>
<g id="a_Node000013"><a xlink:href="classkynema__sgf_1_1burggraf_1_1_burggraf_flow.html" target="_top" xlink:title=" ">
<polygon fill="white" stroke="#666666" points="309.5,-441 187.5,-441 187.5,-411 309.5,-411 309.5,-441"/>
<text text-anchor="start" x="195.5" y="-429" font-family="Helvetica,sans-Serif" font-size="10.00">kynema_sgf::burggraf</text>
<text text-anchor="middle" x="248.5" y="-418" font-family="Helvetica,sans-Serif" font-size="10.00">::BurggrafFlow</text>
</a>
</g>
</g>
<!-- Node0&#45;&gt;Node13 -->
<g id="edge112_Node000000_Node000013" class="edge">
<title>Node0&#45;&gt;Node13</title>
<g id="a_edge112_Node000000_Node000013"><a xlink:title=" ">
<path fill="none" stroke="#63b8ff" d="M109.45,-469.92C124.16,-462.89 140.53,-455.64 156,-450 166.03,-446.35 176.86,-443 187.45,-440.04"/>
<polygon fill="#63b8ff" stroke="#63b8ff" points="107.51,-466.97 100.05,-474.49 110.57,-473.27 107.51,-466.97"/>
</a>
</g>
</g>
<!-- Node14 -->
<g id="Node000014" class="node">
<title>Node14</title>
<g id="a_Node000014"><a xlink:href="classkynema__sgf_1_1channel__flow_1_1_channel_flow.html" target="_top" xlink:title=" ">
<polygon fill="white" stroke="#666666" points="308,-393 189,-393 189,-363 308,-363 308,-393"/>
<text text-anchor="start" x="197" y="-381" font-family="Helvetica,sans-Serif" font-size="10.00">kynema_sgf::channel</text>
<text text-anchor="middle" x="248.5" y="-370" font-family="Helvetica,sans-Serif" font-size="10.00">_flow::ChannelFlow</text>
</a>
</g>
</g>
<!-- Node0&#45;&gt;Node14 -->
<g id="edge113_Node000000_Node000014" class="edge">
<title>Node0&#45;&gt;Node14</title>
<g id="a_edge113_Node000000_Node000014"><a xlink:title=" ">
<path fill="none" stroke="#63b8ff" d="M83.07,-466.54C100.68,-445.73 127.11,-418.38 156,-402 166,-396.33 177.37,-391.97 188.62,-388.62"/>
<polygon fill="#63b8ff" stroke="#63b8ff" points="80.22,-464.5 76.54,-474.44 85.61,-468.96 80.22,-464.5"/>
</a>
</g>
</g>
<!-- Node15 -->
<g id="Node000015" class="node">
<title>Node15</title>
<g id="a_Node000015"><a xlink:href="classkynema__sgf_1_1ctv_1_1_convecting_taylor_vortex.html" target="_top" xlink:title=" ">
<polygon fill="white" stroke="#666666" points="326.5,-345 170.5,-345 170.5,-315 326.5,-315 326.5,-345"/>
<text text-anchor="start" x="178.5" y="-333" font-family="Helvetica,sans-Serif" font-size="10.00">kynema_sgf::ctv::Convecting</text>
<text text-anchor="middle" x="248.5" y="-322" font-family="Helvetica,sans-Serif" font-size="10.00">TaylorVortex</text>
</a>
</g>
</g>
<!-- Node0&#45;&gt;Node15 -->
<g id="edge114_Node000000_Node000015" class="edge">
<title>Node0&#45;&gt;Node15</title>
<g id="a_edge114_Node000000_Node000015"><a xlink:title=" ">
<path fill="none" stroke="#63b8ff" d="M73.44,-464.87C88.32,-432.58 116.3,-382.18 156,-354 160.82,-350.58 166.1,-347.64 171.6,-345.13"/>
<polygon fill="#63b8ff" stroke="#63b8ff" points="70.13,-463.7 69.24,-474.26 76.52,-466.56 70.13,-463.7"/>
</a>
</g>
</g>
<!-- Node16 -->
<g id="Node000016" class="node">
<title>Node16</title>
<g id="a_Node000016"><a xlink:href="classkynema__sgf_1_1forestdrag_1_1_forest_drag.html" target="_top" xlink:title=" ">
<polygon fill="white" stroke="#666666" points="314,-297 183,-297 183,-267 314,-267 314,-297"/>
<text text-anchor="start" x="191" y="-285" font-family="Helvetica,sans-Serif" font-size="10.00">kynema_sgf::forestdrag</text>
<text text-anchor="middle" x="248.5" y="-274" font-family="Helvetica,sans-Serif" font-size="10.00">::ForestDrag</text>
</a>
</g>
</g>
<!-- Node0&#45;&gt;Node16 -->
<g id="edge115_Node000000_Node000016" class="edge">
<title>Node0&#45;&gt;Node16</title>
<g id="a_edge115_Node000000_Node000016"><a xlink:title=" ">
<path fill="none" stroke="#63b8ff" d="M67.95,-464.46C79.14,-422.38 105.22,-347.13 156,-306 163.78,-299.69 173.05,-295.03 182.66,-291.59"/>
<polygon fill="#63b8ff" stroke="#63b8ff" points="64.5,-463.85 65.42,-474.4 71.28,-465.57 64.5,-463.85"/>
</a>
</g>
</g>
<!-- Node17 -->
<g id="Node000017" class="node">
<title>Node17</title>
<g id="a_Node000017"><a xlink:href="classkynema__sgf_1_1hybrid__rans__les__abl_1_1_hybrid_r_a_n_s_l_e_s_a_b_l.html" target="_top" xlink:title=" ">
<polygon fill="white" stroke="#666666" points="341,-249 156,-249 156,-219 341,-219 341,-249"/>
<text text-anchor="start" x="164" y="-237" font-family="Helvetica,sans-Serif" font-size="10.00">kynema_sgf::hybrid</text>
<text text-anchor="middle" x="248.5" y="-226" font-family="Helvetica,sans-Serif" font-size="10.00">_rans_les_abl::HybridRANSLESABL</text>
</a>
</g>
</g>
<!-- Node0&#45;&gt;Node17 -->
<g id="edge116_Node000000_Node000017" class="edge">
<title>Node0&#45;&gt;Node17</title>
<g id="a_edge116_Node000000_Node000017"><a xlink:title=" ">
<path fill="none" stroke="#63b8ff" d="M64.47,-464.35C71.87,-413.72 93.94,-312.77 156,-258 159.82,-254.63 164.05,-251.73 168.55,-249.22"/>
<polygon fill="#63b8ff" stroke="#63b8ff" points="60.99,-463.98 63.11,-474.36 67.93,-464.93 60.99,-463.98"/>
</a>
</g>
</g>
<!-- Node18 -->
<g id="Node000018" class="node">
<title>Node18</title>
<g id="a_Node000018"><a xlink:href="classkynema__sgf_1_1ib_1_1_i_b.html" target="_top" xlink:title=" ">
<polygon fill="white" stroke="#666666" points="301.5,-200.5 195.5,-200.5 195.5,-181.5 301.5,-181.5 301.5,-200.5"/>
<text text-anchor="middle" x="248.5" y="-188.5" font-family="Helvetica,sans-Serif" font-size="10.00">kynema_sgf::ib::IB</text>
</a>
</g>
</g>
<!-- Node0&#45;&gt;Node18 -->
<g id="edge117_Node000000_Node000018" class="edge">
<title>Node0&#45;&gt;Node18</title>
<g id="a_edge117_Node000000_Node000018"><a xlink:title=" ">
<path fill="none" stroke="#63b8ff" d="M61.74,-464.29C64.91,-405.52 80.6,-277.05 156,-210 166.79,-200.4 181.14,-195.18 195.26,-192.46"/>
<polygon fill="#63b8ff" stroke="#63b8ff" points="58.24,-464.27 61.28,-474.42 65.23,-464.59 58.24,-464.27"/>
</a>
</g>
</g>
<!-- Node19 -->
<g id="Node000019" class="node">
<title>Node19</title>
<g id="a_Node000019"><a xlink:href="classkynema__sgf_1_1mms_1_1_m_m_s.html" target="_top" xlink:title=" ">
<polygon fill="white" stroke="#666666" points="316.5,-163.5 180.5,-163.5 180.5,-144.5 316.5,-144.5 316.5,-163.5"/>
<text text-anchor="middle" x="248.5" y="-151.5" font-family="Helvetica,sans-Serif" font-size="10.00">kynema_sgf::mms::MMS</text>
</a>
</g>
</g>
<!-- Node0&#45;&gt;Node19 -->
<g id="edge118_Node000000_Node000019" class="edge">
<title>Node0&#45;&gt;Node19</title>
<g id="a_edge118_Node000000_Node000019"><a xlink:title=" ">
<path fill="none" stroke="#63b8ff" d="M60.35,-464.06C60.8,-399.68 71.5,-250.83 156,-173 162.92,-166.62 171.4,-162.16 180.38,-159.08"/>
<polygon fill="#63b8ff" stroke="#63b8ff" points="56.85,-464.36 60.37,-474.36 63.85,-464.36 56.85,-464.36"/>
</a>
</g>
</g>
<!-- Node20 -->
<g id="Node000020" class="node">
<title>Node20</title>
<g id="a_Node000020"><a xlink:href="classkynema__sgf_1_1ocean__waves_1_1_ocean_waves.html" target="_top" xlink:title=" ">
<polygon fill="white" stroke="#666666" points="322,-126 175,-126 175,-96 322,-96 322,-126"/>
<text text-anchor="start" x="183" y="-114" font-family="Helvetica,sans-Serif" font-size="10.00">kynema_sgf::ocean_waves</text>
<text text-anchor="middle" x="248.5" y="-103" font-family="Helvetica,sans-Serif" font-size="10.00">::OceanWaves</text>
</a>
</g>
</g>
<!-- Node0&#45;&gt;Node20 -->
<g id="edge119_Node000000_Node000020" class="edge">
<title>Node0&#45;&gt;Node20</title>
<g id="a_edge119_Node000000_Node000020"><a xlink:title=" ">
<path fill="none" stroke="#63b8ff" d="M65.21,-463.91C76.43,-385.58 109.38,-182.99 156,-136 161.33,-130.62 167.71,-126.37 174.57,-123.01"/>
<polygon fill="#63b8ff" stroke="#63b8ff" points="61.7,-463.72 63.77,-474.11 68.64,-464.7 61.7,-463.72"/>
</a>
</g>
</g>
<!-- Node21 -->
<g id="Node000021" class="node">
<title>Node21</title>
<g id="a_Node000021"><a xlink:href="classkynema__sgf_1_1terraindrag_1_1_terrain_drag.html" target="_top" xlink:title=" ">
<polygon fill="white" stroke="#666666" points="316,-78 181,-78 181,-48 316,-48 316,-78"/>
<text text-anchor="start" x="189" y="-66" font-family="Helvetica,sans-Serif" font-size="10.00">kynema_sgf::terraindrag</text>
<text text-anchor="middle" x="248.5" y="-55" font-family="Helvetica,sans-Serif" font-size="10.00">::TerrainDrag</text>
</a>
</g>
</g>
<!-- Node0&#45;&gt;Node21 -->
<g id="edge120_Node000000_Node000021" class="edge">
<title>Node0&#45;&gt;Node21</title>
<g id="a_edge120_Node000000_Node000021"><a xlink:title=" ">
<path fill="none" stroke="#63b8ff" d="M64.06,-464.37C73.21,-379.08 103,-141.5 156,-87 162.87,-79.94 171.55,-74.87 180.8,-71.24"/>
<polygon fill="#63b8ff" stroke="#63b8ff" points="60.57,-464.14 63,-474.46 67.53,-464.88 60.57,-464.14"/>
</a>
</g>
</g>
<!-- Node22 -->
<g id="Node000022" class="node">
<title>Node22</title>
<g id="a_Node000022"><a xlink:href="classkynema__sgf_1_1zds_1_1_zalesak_disk_scalar_vel.html" target="_top" xlink:title=" ">
<polygon fill="white" stroke="#666666" points="320,-30 177,-30 177,0 320,0 320,-30"/>
<text text-anchor="start" x="185" y="-18" font-family="Helvetica,sans-Serif" font-size="10.00">kynema_sgf::zds::Zalesak</text>
<text text-anchor="middle" x="248.5" y="-7" font-family="Helvetica,sans-Serif" font-size="10.00">DiskScalarVel</text>
</a>
</g>
</g>
<!-- Node0&#45;&gt;Node22 -->
<g id="edge121_Node000000_Node000022" class="edge">
<title>Node0&#45;&gt;Node22</title>
<g id="a_edge121_Node000000_Node000022"><a xlink:title=" ">
<path fill="none" stroke="#63b8ff" d="M63.26,-464.23C70.65,-372.11 97.06,-101.03 156,-39 161.88,-32.81 169.15,-28.14 177,-24.64"/>
<polygon fill="#63b8ff" stroke="#63b8ff" points="59.76,-464.07 62.47,-474.31 66.74,-464.61 59.76,-464.07"/>
</a>
</g>
</g>
</g>
</svg>
