<?xml version="1.0" encoding="UTF-8" standalone="no"?>
<!DOCTYPE svg PUBLIC "-//W3C//DTD SVG 1.1//EN"
 "http://www.w3.org/Graphics/SVG/1.1/DTD/svg11.dtd">
<!-- Generated by graphviz version 2.43.0 (0)
 -->
<!-- Title: Graphical Class Hierarchy Pages: 1 -->
<svg width="523pt" height="382pt"
 viewBox="0.00 0.00 523.00 382.00" xmlns="http://www.w3.org/2000/svg" xmlns:xlink="http://www.w3.org/1999/xlink">
<g id="graph0" class="graph" transform="scale(1 1) rotate(0) translate(4 378)">
<title>Graphical Class Hierarchy</title>
<!-- Node0 -->
<g id="Node000000" class="node">
<title>Node0</title>
<g id="a_Node000000"><a xlink:href="structkynema__sgf_1_1actuator_1_1_actuator_type.html" target="_top" xlink:title=" ">
<polygon fill="white" stroke="#666666" points="122,-241 0,-241 0,-211 122,-211 122,-241"/>
<text text-anchor="start" x="8" y="-229" font-family="Helvetica,sans-Serif" font-size="10.00">kynema_sgf::actuator</text>
<text text-anchor="middle" x="61" y="-218" font-family="Helvetica,sans-Serif" font-size="10.00">::ActuatorType</text>
</a>
</g>
</g>
<!-- Node1 -->
<g id="Node000001" class="node">
<title>Node1</title>
<g id="a_Node000001"><a xlink:href="structkynema__sgf_1_1actuator_1_1_actuator_sector.html" target="_top" xlink:title=" ">
<polygon fill="white" stroke="#666666" points="280,-353 158,-353 158,-323 280,-323 280,-353"/>
<text text-anchor="start" x="166" y="-341" font-family="Helvetica,sans-Serif" font-size="10.00">kynema_sgf::actuator</text>
<text text-anchor="middle" x="219" y="-330" font-family="Helvetica,sans-Serif" font-size="10.00">::ActuatorSector</text>
</a>
</g>
</g>
<!-- Node0&#45;&gt;Node1 -->
<g id="edge44_Node000000_Node000001" class="edge">
<title>Node0&#45;&gt;Node1</title>
<g id="a_edge44_Node000000_Node000001"><a xlink:title=" ">
<path fill="none" stroke="#63b8ff" d="M82.23,-248.69C100.5,-268.1 128.9,-295.7 158,-314 163.22,-317.28 168.97,-320.26 174.78,-322.92"/>
<polygon fill="#63b8ff" stroke="#63b8ff" points="84.65,-246.15 75.29,-241.19 79.51,-250.9 84.65,-246.15"/>
</a>
</g>
</g>
<!-- Node2 -->
<g id="Node000002" class="node">
<title>Node2</title>
<g id="a_Node000002"><a xlink:href="structkynema__sgf_1_1actuator_1_1_disk_type.html" target="_top" xlink:title=" ">
<polygon fill="white" stroke="#666666" points="280,-305 158,-305 158,-275 280,-275 280,-305"/>
<text text-anchor="start" x="166" y="-293" font-family="Helvetica,sans-Serif" font-size="10.00">kynema_sgf::actuator</text>
<text text-anchor="middle" x="219" y="-282" font-family="Helvetica,sans-Serif" font-size="10.00">::DiskType</text>
</a>
</g>
</g>
<!-- Node0&#45;&gt;Node2 -->
<g id="edge45_Node000000_Node000002" class="edge">
<title>Node0&#45;&gt;Node2</title>
<g id="a_edge45_Node000000_Node000002"><a xlink:title=" ">
<path fill="none" stroke="#63b8ff" d="M107.96,-244.86C131.37,-254.46 159.45,-265.98 181.38,-274.98"/>
<polygon fill="#63b8ff" stroke="#63b8ff" points="109.16,-241.56 98.58,-241.01 106.5,-248.04 109.16,-241.56"/>
</a>
</g>
</g>
<!-- Node5 -->
<g id="Node000005" class="node">
<title>Node5</title>
<g id="a_Node000005"><a xlink:href="structkynema__sgf_1_1actuator_1_1_turbine_type.html" target="_top" xlink:title=" ">
<polygon fill="white" stroke="#666666" points="280,-217 158,-217 158,-187 280,-187 280,-217"/>
<text text-anchor="start" x="166" y="-205" font-family="Helvetica,sans-Serif" font-size="10.00">kynema_sgf::actuator</text>
<text text-anchor="middle" x="219" y="-194" font-family="Helvetica,sans-Serif" font-size="10.00">::TurbineType</text>
</a>
</g>
</g>
<!-- Node0&#45;&gt;Node5 -->
<g id="edge48_Node000000_Node000005" class="edge">
<title>Node0&#45;&gt;Node5</title>
<g id="a_edge48_Node000000_Node000005"><a xlink:title=" ">
<path fill="none" stroke="#63b8ff" d="M132.26,-215.19C140.8,-213.88 149.47,-212.54 157.85,-211.25"/>
<polygon fill="#63b8ff" stroke="#63b8ff" points="131.67,-211.74 122.31,-216.72 132.73,-218.66 131.67,-211.74"/>
</a>
</g>
</g>
<!-- Node9 -->
<g id="Node000009" class="node">
<title>Node9</title>
<g id="a_Node000009"><a xlink:href="structkynema__sgf_1_1actuator_1_1_wing_type.html" target="_top" xlink:title=" ">
<polygon fill="white" stroke="#666666" points="280,-78 158,-78 158,-48 280,-48 280,-78"/>
<text text-anchor="start" x="166" y="-66" font-family="Helvetica,sans-Serif" font-size="10.00">kynema_sgf::actuator</text>
<text text-anchor="middle" x="219" y="-55" font-family="Helvetica,sans-Serif" font-size="10.00">::WingType</text>
</a>
</g>
</g>
<!-- Node0&#45;&gt;Node9 -->
<g id="edge52_Node000000_Node000009" class="edge">
<title>Node0&#45;&gt;Node9</title>
<g id="a_edge52_Node000000_Node000009"><a xlink:title=" ">
<path fill="none" stroke="#63b8ff" d="M83.61,-203.42C115.97,-169.6 176.15,-106.72 203.64,-78.01"/>
<polygon fill="#63b8ff" stroke="#63b8ff" points="80.78,-201.31 76.4,-210.96 85.84,-206.15 80.78,-201.31"/>
</a>
</g>
</g>
<!-- Node3 -->
<g id="Node000003" class="node">
<title>Node3</title>
<g id="a_Node000003"><a xlink:href="structkynema__sgf_1_1actuator_1_1_joukowsky.html" target="_top" xlink:title=" ">
<polygon fill="white" stroke="#666666" points="476.5,-374 354.5,-374 354.5,-344 476.5,-344 476.5,-374"/>
<text text-anchor="start" x="362.5" y="-362" font-family="Helvetica,sans-Serif" font-size="10.00">kynema_sgf::actuator</text>
<text text-anchor="middle" x="415.5" y="-351" font-family="Helvetica,sans-Serif" font-size="10.00">::Joukowsky</text>
</a>
</g>
</g>
<!-- Node2&#45;&gt;Node3 -->
<g id="edge46_Node000002_Node000003" class="edge">
<title>Node2&#45;&gt;Node3</title>
<g id="a_edge46_Node000002_Node000003"><a xlink:title=" ">
<path fill="none" stroke="#63b8ff" d="M269.54,-309.14C273.11,-310.73 276.63,-312.35 280,-314 296.64,-322.13 298.82,-328.07 316,-335 328.08,-339.87 341.4,-343.94 354.25,-347.25"/>
<polygon fill="#63b8ff" stroke="#63b8ff" points="270.63,-305.8 260.06,-305.07 267.86,-312.23 270.63,-305.8"/>
</a>
</g>
</g>
<!-- Node4 -->
<g id="Node000004" class="node">
<title>Node4</title>
<g id="a_Node000004"><a xlink:href="structkynema__sgf_1_1actuator_1_1_uniform_ct.html" target="_top" xlink:title=" ">
<polygon fill="white" stroke="#666666" points="476.5,-326 354.5,-326 354.5,-296 476.5,-296 476.5,-326"/>
<text text-anchor="start" x="362.5" y="-314" font-family="Helvetica,sans-Serif" font-size="10.00">kynema_sgf::actuator</text>
<text text-anchor="middle" x="415.5" y="-303" font-family="Helvetica,sans-Serif" font-size="10.00">::UniformCt</text>
</a>
</g>
</g>
<!-- Node2&#45;&gt;Node4 -->
<g id="edge47_Node000002_Node000004" class="edge">
<title>Node2&#45;&gt;Node4</title>
<g id="a_edge47_Node000002_Node000004"><a xlink:title=" ">
<path fill="none" stroke="#63b8ff" d="M290.32,-297.59C311.26,-299.85 334.01,-302.31 354.24,-304.49"/>
<polygon fill="#63b8ff" stroke="#63b8ff" points="290.53,-294.09 280.21,-296.5 289.78,-301.05 290.53,-294.09"/>
</a>
</g>
</g>
<!-- Node6 -->
<g id="Node000006" class="node">
<title>Node6</title>
<g id="a_Node000006"><a xlink:href="structkynema__sgf_1_1actuator_1_1_turbine_from_ext_solver.html" target="_top" xlink:title=" ">
<polygon fill="white" stroke="#666666" points="494,-278 337,-278 337,-226 494,-226 494,-278"/>
<text text-anchor="start" x="345" y="-266" font-family="Helvetica,sans-Serif" font-size="10.00">kynema_sgf::actuator</text>
<text text-anchor="start" x="345" y="-255" font-family="Helvetica,sans-Serif" font-size="10.00">::TurbineFromExtSolver</text>
<text text-anchor="start" x="345" y="-244" font-family="Helvetica,sans-Serif" font-size="10.00">&lt;::ext_turb::FastTurbine,</text>
<text text-anchor="middle" x="415.5" y="-233" font-family="Helvetica,sans-Serif" font-size="10.00"> ::ext_turb::FastSolverData &gt;</text>
</a>
</g>
</g>
<!-- Node5&#45;&gt;Node6 -->
<g id="edge49_Node000005_Node000006" class="edge">
<title>Node5&#45;&gt;Node6</title>
<g id="a_edge49_Node000005_Node000006"><a xlink:title=" ">
<path fill="none" stroke="#63b8ff" d="M288.44,-219.59C304.06,-223.61 320.77,-227.9 336.75,-232.01"/>
<polygon fill="#63b8ff" stroke="#63b8ff" points="288.91,-216.1 278.36,-217 287.17,-222.88 288.91,-216.1"/>
</a>
</g>
</g>
<!-- Node7 -->
<g id="Node000007" class="node">
<title>Node7</title>
<g id="a_Node000007"><a xlink:href="structkynema__sgf_1_1actuator_1_1_turbine_from_ext_solver.html" target="_top" xlink:title=" ">
<polygon fill="white" stroke="#666666" points="515,-208 316,-208 316,-156 515,-156 515,-208"/>
<text text-anchor="start" x="324" y="-196" font-family="Helvetica,sans-Serif" font-size="10.00">kynema_sgf::actuator</text>
<text text-anchor="start" x="324" y="-185" font-family="Helvetica,sans-Serif" font-size="10.00">::TurbineFromExtSolver</text>
<text text-anchor="start" x="324" y="-174" font-family="Helvetica,sans-Serif" font-size="10.00">&lt; ::ext_turb::KynemaFMBTurbine,</text>
<text text-anchor="middle" x="415.5" y="-163" font-family="Helvetica,sans-Serif" font-size="10.00"> ::ext_turb::KynemaFMBSolverData &gt;</text>
</a>
</g>
</g>
<!-- Node5&#45;&gt;Node7 -->
<g id="edge50_Node000005_Node000007" class="edge">
<title>Node5&#45;&gt;Node7</title>
<g id="a_edge50_Node000005_Node000007"><a xlink:title=" ">
<path fill="none" stroke="#63b8ff" d="M290.26,-194.78C298.63,-193.91 307.29,-193.02 315.97,-192.13"/>
<polygon fill="#63b8ff" stroke="#63b8ff" points="289.8,-191.3 280.21,-195.81 290.51,-198.27 289.8,-191.3"/>
</a>
</g>
</g>
<!-- Node8 -->
<g id="Node000008" class="node">
<title>Node8</title>
<g id="a_Node000008"><a xlink:href="structkynema__sgf_1_1actuator_1_1_turbine_from_ext_solver.html" target="_top" xlink:title=" ">
<polygon fill="white" stroke="#666666" points="498,-137.5 333,-137.5 333,-96.5 498,-96.5 498,-137.5"/>
<text text-anchor="start" x="341" y="-125.5" font-family="Helvetica,sans-Serif" font-size="10.00">kynema_sgf::actuator</text>
<text text-anchor="start" x="341" y="-114.5" font-family="Helvetica,sans-Serif" font-size="10.00">::TurbineFromExtSolver</text>
<text text-anchor="middle" x="415.5" y="-103.5" font-family="Helvetica,sans-Serif" font-size="10.00">&lt; SolverTurbine, SolverData &gt;</text>
</a>
</g>
</g>
<!-- Node5&#45;&gt;Node8 -->
<g id="edge51_Node000005_Node000008" class="edge">
<title>Node5&#45;&gt;Node8</title>
<g id="a_edge51_Node000005_Node000008"><a xlink:title=" ">
<path fill="none" stroke="#63b8ff" d="M251.42,-181.6C269.74,-170.33 293.57,-156.69 316,-147 323.79,-143.63 332.09,-140.48 340.43,-137.58"/>
<polygon fill="#63b8ff" stroke="#63b8ff" points="249.54,-178.65 242.91,-186.91 253.24,-184.59 249.54,-178.65"/>
</a>
</g>
</g>
<!-- Node10 -->
<g id="Node000010" class="node">
<title>Node10</title>
<g id="a_Node000010"><a xlink:href="structkynema__sgf_1_1actuator_1_1_fixed_wing.html" target="_top" xlink:title=" ">
<polygon fill="white" stroke="#666666" points="476.5,-78 354.5,-78 354.5,-48 476.5,-48 476.5,-78"/>
<text text-anchor="start" x="362.5" y="-66" font-family="Helvetica,sans-Serif" font-size="10.00">kynema_sgf::actuator</text>
<text text-anchor="middle" x="415.5" y="-55" font-family="Helvetica,sans-Serif" font-size="10.00">::FixedWing</text>
</a>
</g>
</g>
<!-- Node9&#45;&gt;Node10 -->
<g id="edge53_Node000009_Node000010" class="edge">
<title>Node9&#45;&gt;Node10</title>
<g id="a_edge53_Node000009_Node000010"><a xlink:title=" ">
<path fill="none" stroke="#63b8ff" d="M290.32,-63C311.26,-63 334.01,-63 354.24,-63"/>
<polygon fill="#63b8ff" stroke="#63b8ff" points="290.21,-59.5 280.21,-63 290.21,-66.5 290.21,-59.5"/>
</a>
</g>
</g>
<!-- Node11 -->
<g id="Node000011" class="node">
<title>Node11</title>
<g id="a_Node000011"><a xlink:href="structkynema__sgf_1_1actuator_1_1_flat_plate.html" target="_top" xlink:title=" ">
<polygon fill="white" stroke="#666666" points="476.5,-30 354.5,-30 354.5,0 476.5,0 476.5,-30"/>
<text text-anchor="start" x="362.5" y="-18" font-family="Helvetica,sans-Serif" font-size="10.00">kynema_sgf::actuator</text>
<text text-anchor="middle" x="415.5" y="-7" font-family="Helvetica,sans-Serif" font-size="10.00">::FlatPlate</text>
</a>
</g>
</g>
<!-- Node9&#45;&gt;Node11 -->
<g id="edge54_Node000009_Node000011" class="edge">
<title>Node9&#45;&gt;Node11</title>
<g id="a_edge54_Node000009_Node000011"><a xlink:title=" ">
<path fill="none" stroke="#63b8ff" d="M289.8,-45.5C298.62,-43.3 307.52,-41.09 316,-39 328.39,-35.94 341.66,-32.69 354.32,-29.6"/>
<polygon fill="#63b8ff" stroke="#63b8ff" points="288.76,-42.15 279.9,-47.97 290.45,-48.94 288.76,-42.15"/>
</a>
</g>
</g>
</g>
</svg>
