<?xml version="1.0" encoding="UTF-8" standalone="no"?>
<!DOCTYPE svg PUBLIC "-//W3C//DTD SVG 1.1//EN"
 "http://www.w3.org/Graphics/SVG/1.1/DTD/svg11.dtd">
<!-- Generated by graphviz version 2.43.0 (0)
 -->
<!-- Title: /home/runner/work/kynema&#45;sgf/kynema&#45;sgf/src/fvm/strainrate.H Pages: 1 -->
<svg width="2026pt" height="390pt"
 viewBox="0.00 0.00 2026.13 390.00" xmlns="http://www.w3.org/2000/svg" xmlns:xlink="http://www.w3.org/1999/xlink">
<g id="graph0" class="graph" transform="scale(1 1) rotate(0) translate(4 386)">
<title>/home/runner/work/kynema&#45;sgf/kynema&#45;sgf/src/fvm/strainrate.H</title>
<!-- Node1 -->
<g id="Node000001" class="node">
<title>Node1</title>
<g id="a_Node000001"><a xlink:title=" ">
<polygon fill="#999999" stroke="#666666" points="665.63,-382 514.63,-382 514.63,-341 665.63,-341 665.63,-382"/>
<text text-anchor="start" x="522.63" y="-370" font-family="Helvetica,sans-Serif" font-size="10.00">/home/runner/work/kynema</text>
<text text-anchor="start" x="522.63" y="-359" font-family="Helvetica,sans-Serif" font-size="10.00">&#45;sgf/kynema&#45;sgf/src/fvm</text>
<text text-anchor="middle" x="590.13" y="-348" font-family="Helvetica,sans-Serif" font-size="10.00">/strainrate.H</text>
</a>
</g>
</g>
<!-- Node2 -->
<g id="Node000002" class="node">
<title>Node2</title>
<g id="a_Node000002"><a xlink:href="fvm__utils_8_h.html" target="_top" xlink:title=" ">
<polygon fill="white" stroke="#666666" points="1105.63,-305 992.63,-305 992.63,-286 1105.63,-286 1105.63,-305"/>
<text text-anchor="middle" x="1049.13" y="-293" font-family="Helvetica,sans-Serif" font-size="10.00">src/fvm/fvm_utils.H</text>
</a>
</g>
</g>
<!-- Node1&#45;&gt;Node2 -->
<g id="edge1_Node000001_Node000002" class="edge">
<title>Node1&#45;&gt;Node2</title>
<g id="a_edge1_Node000001_Node000002"><a xlink:title=" ">
<path fill="none" stroke="#63b8ff" d="M665.67,-349.97C753.82,-337.68 898.23,-317.54 982.41,-305.8"/>
<polygon fill="#63b8ff" stroke="#63b8ff" points="982.95,-309.26 992.37,-304.41 981.99,-302.33 982.95,-309.26"/>
</a>
</g>
</g>
<!-- Node27 -->
<g id="Node000027" class="node">
<title>Node27</title>
<g id="a_Node000027"><a xlink:title=" ">
<polygon fill="#e0e0e0" stroke="#999999" points="177.13,-184 85.13,-184 85.13,-165 177.13,-165 177.13,-184"/>
<text text-anchor="middle" x="131.13" y="-172" font-family="Helvetica,sans-Serif" font-size="10.00">AMReX_REAL.H</text>
</a>
</g>
</g>
<!-- Node1&#45;&gt;Node27 -->
<g id="edge59_Node000001_Node000027" class="edge">
<title>Node1&#45;&gt;Node27</title>
<g id="a_edge59_Node000001_Node000027"><a xlink:title=" ">
<path fill="none" stroke="#63b8ff" d="M514.28,-350.88C402.43,-335.19 200.97,-300.66 150.13,-250 135.53,-235.46 131.63,-211.36 130.83,-194.52"/>
<polygon fill="#63b8ff" stroke="#63b8ff" points="134.33,-194.18 130.69,-184.23 127.33,-194.28 134.33,-194.18"/>
</a>
</g>
</g>
<!-- Node3 -->
<g id="Node000003" class="node">
<title>Node3</title>
<g id="a_Node000003"><a xlink:href="_field_repo_8_h.html" target="_top" xlink:title=" ">
<polygon fill="white" stroke="#666666" points="1107.13,-244.5 991.13,-244.5 991.13,-225.5 1107.13,-225.5 1107.13,-244.5"/>
<text text-anchor="middle" x="1049.13" y="-232.5" font-family="Helvetica,sans-Serif" font-size="10.00">src/core/FieldRepo.H</text>
</a>
</g>
</g>
<!-- Node2&#45;&gt;Node3 -->
<g id="edge2_Node000002_Node000003" class="edge">
<title>Node2&#45;&gt;Node3</title>
<g id="a_edge2_Node000002_Node000003"><a xlink:title=" ">
<path fill="none" stroke="#63b8ff" d="M1049.13,-285.87C1049.13,-277.75 1049.13,-265.31 1049.13,-254.89"/>
<polygon fill="#63b8ff" stroke="#63b8ff" points="1052.63,-254.67 1049.13,-244.67 1045.63,-254.67 1052.63,-254.67"/>
</a>
</g>
</g>
<!-- Node26 -->
<g id="Node000026" class="node">
<title>Node26</title>
<g id="a_Node000026"><a xlink:href="stencils_8_h.html" target="_top" xlink:title="Second&#45;order finite volume discretization stencil coefficients.">
<polygon fill="white" stroke="#666666" points="1500.13,-244.5 1396.13,-244.5 1396.13,-225.5 1500.13,-225.5 1500.13,-244.5"/>
<text text-anchor="middle" x="1448.13" y="-232.5" font-family="Helvetica,sans-Serif" font-size="10.00">src/fvm/stencils.H</text>
</a>
</g>
</g>
<!-- Node2&#45;&gt;Node26 -->
<g id="edge50_Node000002_Node000026" class="edge">
<title>Node2&#45;&gt;Node26</title>
<g id="a_edge50_Node000002_Node000026"><a xlink:title=" ">
<path fill="none" stroke="#63b8ff" d="M1105.87,-286.18C1180,-275.31 1309.34,-256.35 1386.02,-245.11"/>
<polygon fill="#63b8ff" stroke="#63b8ff" points="1386.64,-248.55 1396.03,-243.64 1385.62,-241.63 1386.64,-248.55"/>
</a>
</g>
</g>
<!-- Node31 -->
<g id="Node000031" class="node">
<title>Node31</title>
<g id="a_Node000031"><a xlink:href="math__ops_8_h.html" target="_top" xlink:title=" ">
<polygon fill="white" stroke="#666666" points="258.63,-250 159.63,-250 159.63,-220 258.63,-220 258.63,-250"/>
<text text-anchor="start" x="167.63" y="-238" font-family="Helvetica,sans-Serif" font-size="10.00">src/utilities/math</text>
<text text-anchor="middle" x="209.13" y="-227" font-family="Helvetica,sans-Serif" font-size="10.00">_ops.H</text>
</a>
</g>
</g>
<!-- Node2&#45;&gt;Node31 -->
<g id="edge55_Node000002_Node000031" class="edge">
<title>Node2&#45;&gt;Node31</title>
<g id="a_edge55_Node000002_Node000031"><a xlink:title=" ">
<path fill="none" stroke="#63b8ff" d="M992.38,-290.55C840.35,-279.96 424.84,-251.02 269.13,-240.18"/>
<polygon fill="#63b8ff" stroke="#63b8ff" points="269.03,-236.66 258.81,-239.46 268.54,-243.65 269.03,-236.66"/>
</a>
</g>
</g>
<!-- Node32 -->
<g id="Node000032" class="node">
<title>Node32</title>
<g id="a_Node000032"><a xlink:title=" ">
<polygon fill="#e0e0e0" stroke="#999999" points="1616.13,-244.5 1518.13,-244.5 1518.13,-225.5 1616.13,-225.5 1616.13,-244.5"/>
<text text-anchor="middle" x="1567.13" y="-232.5" font-family="Helvetica,sans-Serif" font-size="10.00">AMReX_MFIter.H</text>
</a>
</g>
</g>
<!-- Node2&#45;&gt;Node32 -->
<g id="edge58_Node000002_Node000032" class="edge">
<title>Node2&#45;&gt;Node32</title>
<g id="a_edge58_Node000002_Node000032"><a xlink:title=" ">
<path fill="none" stroke="#63b8ff" d="M1105.76,-291.59C1192.91,-286.53 1364.93,-274.26 1509.13,-250 1514.49,-249.1 1520.1,-247.98 1525.61,-246.77"/>
<polygon fill="#63b8ff" stroke="#63b8ff" points="1526.43,-250.17 1535.39,-244.51 1524.86,-243.35 1526.43,-250.17"/>
</a>
</g>
</g>
<!-- Node4 -->
<g id="Node000004" class="node">
<title>Node4</title>
<g id="a_Node000004"><a xlink:title=" ">
<polygon fill="#e0e0e0" stroke="#999999" points="1317.13,-74 1273.13,-74 1273.13,-55 1317.13,-55 1317.13,-74"/>
<text text-anchor="middle" x="1295.13" y="-62" font-family="Helvetica,sans-Serif" font-size="10.00">string</text>
</a>
</g>
</g>
<!-- Node3&#45;&gt;Node4 -->
<g id="edge3_Node000003_Node000004" class="edge">
<title>Node3&#45;&gt;Node4</title>
<g id="a_edge3_Node000003_Node000004"><a xlink:title=" ">
<path fill="none" stroke="#63b8ff" d="M1107.28,-233.67C1191.77,-231.78 1352.64,-222.82 1483.13,-184 1501.23,-178.62 1503.82,-172.55 1521.13,-165 1562.9,-146.79 1591.17,-166.45 1617.13,-129 1621.94,-122.06 1622.68,-116.37 1617.13,-110 1579.76,-67.11 1401.58,-64.18 1327.52,-64.86"/>
<polygon fill="#63b8ff" stroke="#63b8ff" points="1327.34,-61.37 1317.38,-64.99 1327.42,-68.37 1327.34,-61.37"/>
</a>
</g>
</g>
<!-- Node5 -->
<g id="Node000005" class="node">
<title>Node5</title>
<g id="a_Node000005"><a xlink:title=" ">
<polygon fill="#e0e0e0" stroke="#999999" points="734.63,-129 641.63,-129 641.63,-110 734.63,-110 734.63,-129"/>
<text text-anchor="middle" x="688.13" y="-117" font-family="Helvetica,sans-Serif" font-size="10.00">unordered_map</text>
</a>
</g>
</g>
<!-- Node3&#45;&gt;Node5 -->
<g id="edge4_Node000003_Node000005" class="edge">
<title>Node3&#45;&gt;Node5</title>
<g id="a_edge4_Node000003_Node000005"><a xlink:title=" ">
<path fill="none" stroke="#63b8ff" d="M990.88,-229.29C936.58,-223.43 854.12,-210.71 787.13,-184 756.84,-171.92 725.81,-150.2 706.76,-135.57"/>
<polygon fill="#63b8ff" stroke="#63b8ff" points="708.68,-132.63 698.65,-129.22 704.36,-138.14 708.68,-132.63"/>
</a>
</g>
</g>
<!-- Node6 -->
<g id="Node000006" class="node">
<title>Node6</title>
<g id="a_Node000006"><a xlink:href="_field_desc_types_8_h.html" target="_top" xlink:title=" ">
<polygon fill="white" stroke="#666666" points="891.63,-74 748.63,-74 748.63,-55 891.63,-55 891.63,-74"/>
<text text-anchor="middle" x="820.13" y="-62" font-family="Helvetica,sans-Serif" font-size="10.00">src/core/FieldDescTypes.H</text>
</a>
</g>
</g>
<!-- Node3&#45;&gt;Node6 -->
<g id="edge5_Node000003_Node000006" class="edge">
<title>Node3&#45;&gt;Node6</title>
<g id="a_edge5_Node000003_Node000006"><a xlink:title=" ">
<path fill="none" stroke="#63b8ff" d="M1011.34,-225.49C963.61,-212.76 882.28,-184.13 837.13,-129 826.85,-116.45 822.74,-98.25 821.13,-84.55"/>
<polygon fill="#63b8ff" stroke="#63b8ff" points="824.59,-84 820.27,-74.32 817.62,-84.58 824.59,-84"/>
</a>
</g>
</g>
<!-- Node8 -->
<g id="Node000008" class="node">
<title>Node8</title>
<g id="a_Node000008"><a xlink:href="_field_utils_8_h.html" target="_top" xlink:title=" ">
<polygon fill="white" stroke="#666666" points="233.13,-129 119.13,-129 119.13,-110 233.13,-110 233.13,-129"/>
<text text-anchor="middle" x="176.13" y="-117" font-family="Helvetica,sans-Serif" font-size="10.00">src/core/FieldUtils.H</text>
</a>
</g>
</g>
<!-- Node3&#45;&gt;Node8 -->
<g id="edge7_Node000003_Node000008" class="edge">
<title>Node3&#45;&gt;Node8</title>
<g id="a_edge7_Node000003_Node000008"><a xlink:title=" ">
<path fill="none" stroke="#63b8ff" d="M991.12,-231.17C887.9,-225.64 665.78,-211.45 480.13,-184 387.05,-170.24 279.59,-145.73 220.62,-131.52"/>
<polygon fill="#63b8ff" stroke="#63b8ff" points="221.08,-128.03 210.54,-129.08 219.44,-134.83 221.08,-128.03"/>
</a>
</g>
</g>
<!-- Node9 -->
<g id="Node000009" class="node">
<title>Node9</title>
<g id="a_Node000009"><a xlink:title=" ">
<polygon fill="#e0e0e0" stroke="#999999" points="340.63,-74 231.63,-74 231.63,-55 340.63,-55 340.63,-74"/>
<text text-anchor="middle" x="286.13" y="-62" font-family="Helvetica,sans-Serif" font-size="10.00">AMReX_MultiFab.H</text>
</a>
</g>
</g>
<!-- Node3&#45;&gt;Node9 -->
<g id="edge48_Node000003_Node000009" class="edge">
<title>Node3&#45;&gt;Node9</title>
<g id="a_edge48_Node000003_Node000009"><a xlink:title=" ">
<path fill="none" stroke="#63b8ff" d="M990.93,-231.1C874.13,-224.97 602.91,-209.16 376.13,-184 355.37,-181.7 17.78,-144.82 4.13,-129 -1.39,-122.61 -1.36,-116.42 4.13,-110 7.67,-105.86 139.14,-86.45 221.3,-74.67"/>
<polygon fill="#63b8ff" stroke="#63b8ff" points="221.91,-78.12 231.31,-73.24 220.92,-71.19 221.91,-78.12"/>
</a>
</g>
</g>
<!-- Node11 -->
<g id="Node000011" class="node">
<title>Node11</title>
<g id="a_Node000011"><a xlink:href="_field_8_h.html" target="_top" xlink:title=" ">
<polygon fill="white" stroke="#666666" points="581.13,-184 489.13,-184 489.13,-165 581.13,-165 581.13,-184"/>
<text text-anchor="middle" x="535.13" y="-172" font-family="Helvetica,sans-Serif" font-size="10.00">src/core/Field.H</text>
</a>
</g>
</g>
<!-- Node3&#45;&gt;Node11 -->
<g id="edge11_Node000003_Node000011" class="edge">
<title>Node3&#45;&gt;Node11</title>
<g id="a_edge11_Node000003_Node000011"><a xlink:title=" ">
<path fill="none" stroke="#63b8ff" d="M990.67,-227.35C891.05,-216.01 689.67,-193.09 591.5,-181.92"/>
<polygon fill="#63b8ff" stroke="#63b8ff" points="591.8,-178.43 581.47,-180.77 591.01,-185.38 591.8,-178.43"/>
</a>
</g>
</g>
<!-- Node19 -->
<g id="Node000019" class="node">
<title>Node19</title>
<g id="a_Node000019"><a xlink:href="_int_field_8_h.html" target="_top" xlink:title=" ">
<polygon fill="white" stroke="#666666" points="1474.13,-184 1370.13,-184 1370.13,-165 1474.13,-165 1474.13,-184"/>
<text text-anchor="middle" x="1422.13" y="-172" font-family="Helvetica,sans-Serif" font-size="10.00">src/core/IntField.H</text>
</a>
</g>
</g>
<!-- Node3&#45;&gt;Node19 -->
<g id="edge27_Node000003_Node000019" class="edge">
<title>Node3&#45;&gt;Node19</title>
<g id="a_edge27_Node000003_Node000019"><a xlink:title=" ">
<path fill="none" stroke="#63b8ff" d="M1103.37,-225.49C1171.44,-214.82 1287.96,-196.54 1359.69,-185.29"/>
<polygon fill="#63b8ff" stroke="#63b8ff" points="1360.6,-188.69 1369.93,-183.69 1359.51,-181.78 1360.6,-188.69"/>
</a>
</g>
</g>
<!-- Node20 -->
<g id="Node000020" class="node">
<title>Node20</title>
<g id="a_Node000020"><a xlink:title=" ">
<polygon fill="#e0e0e0" stroke="#999999" points="1592.13,-129 1480.13,-129 1480.13,-110 1592.13,-110 1592.13,-129"/>
<text text-anchor="middle" x="1536.13" y="-117" font-family="Helvetica,sans-Serif" font-size="10.00">AMReX_iMultiFab.H</text>
</a>
</g>
</g>
<!-- Node3&#45;&gt;Node20 -->
<g id="edge49_Node000003_Node000020" class="edge">
<title>Node3&#45;&gt;Node20</title>
<g id="a_edge49_Node000003_Node000020"><a xlink:title=" ">
<path fill="none" stroke="#63b8ff" d="M1107.25,-228.23C1163.55,-221.52 1250.77,-208.15 1323.13,-184 1341.04,-178.02 1343.43,-171.59 1361.13,-165 1400.57,-150.32 1446.77,-138.8 1481.8,-131.16"/>
<polygon fill="#63b8ff" stroke="#63b8ff" points="1482.78,-134.53 1491.82,-129.01 1481.31,-127.68 1482.78,-134.53"/>
</a>
</g>
</g>
<!-- Node21 -->
<g id="Node000021" class="node">
<title>Node21</title>
<g id="a_Node000021"><a xlink:href="_scratch_field_8_h.html" target="_top" xlink:title=" ">
<polygon fill="white" stroke="#666666" points="1113.13,-184 985.13,-184 985.13,-165 1113.13,-165 1113.13,-184"/>
<text text-anchor="middle" x="1049.13" y="-172" font-family="Helvetica,sans-Serif" font-size="10.00">src/core/ScratchField.H</text>
</a>
</g>
</g>
<!-- Node3&#45;&gt;Node21 -->
<g id="edge31_Node000003_Node000021" class="edge">
<title>Node3&#45;&gt;Node21</title>
<g id="a_edge31_Node000003_Node000021"><a xlink:title=" ">
<path fill="none" stroke="#63b8ff" d="M1049.13,-225.37C1049.13,-217.25 1049.13,-204.81 1049.13,-194.39"/>
<polygon fill="#63b8ff" stroke="#63b8ff" points="1052.63,-194.17 1049.13,-184.17 1045.63,-194.17 1052.63,-194.17"/>
</a>
</g>
</g>
<!-- Node24 -->
<g id="Node000024" class="node">
<title>Node24</title>
<g id="a_Node000024"><a xlink:href="_int_scratch_field_8_h.html" target="_top" xlink:title=" ">
<polygon fill="white" stroke="#666666" points="1314.13,-184 1174.13,-184 1174.13,-165 1314.13,-165 1314.13,-184"/>
<text text-anchor="middle" x="1244.13" y="-172" font-family="Helvetica,sans-Serif" font-size="10.00">src/core/IntScratchField.H</text>
</a>
</g>
</g>
<!-- Node3&#45;&gt;Node24 -->
<g id="edge39_Node000003_Node000024" class="edge">
<title>Node3&#45;&gt;Node24</title>
<g id="a_edge39_Node000003_Node000024"><a xlink:title=" ">
<path fill="none" stroke="#63b8ff" d="M1077.48,-225.49C1111.42,-215.31 1168.39,-198.22 1206.12,-186.9"/>
<polygon fill="#63b8ff" stroke="#63b8ff" points="1207.17,-190.24 1215.74,-184.02 1205.16,-183.54 1207.17,-190.24"/>
</a>
</g>
</g>
<!-- Node25 -->
<g id="Node000025" class="node">
<title>Node25</title>
<g id="a_Node000025"><a xlink:title=" ">
<polygon fill="#e0e0e0" stroke="#999999" points="1640.13,-184 1530.13,-184 1530.13,-165 1640.13,-165 1640.13,-184"/>
<text text-anchor="middle" x="1585.13" y="-172" font-family="Helvetica,sans-Serif" font-size="10.00">AMReX_AmrCore.H</text>
</a>
</g>
</g>
<!-- Node3&#45;&gt;Node25 -->
<g id="edge47_Node000003_Node000025" class="edge">
<title>Node3&#45;&gt;Node25</title>
<g id="a_edge47_Node000003_Node000025"><a xlink:title=" ">
<path fill="none" stroke="#63b8ff" d="M1107.41,-228.06C1195.82,-218.98 1369.11,-200.93 1516.13,-184 1517.24,-183.87 1518.36,-183.74 1519.49,-183.61"/>
<polygon fill="#63b8ff" stroke="#63b8ff" points="1520.26,-187.04 1529.78,-182.4 1519.44,-180.09 1520.26,-187.04"/>
</a>
</g>
</g>
<!-- Node7 -->
<g id="Node000007" class="node">
<title>Node7</title>
<g id="a_Node000007"><a xlink:title=" ">
<polygon fill="#e0e0e0" stroke="#999999" points="706.13,-19 656.13,-19 656.13,0 706.13,0 706.13,-19"/>
<text text-anchor="middle" x="681.13" y="-7" font-family="Helvetica,sans-Serif" font-size="10.00">cstdint</text>
</a>
</g>
</g>
<!-- Node6&#45;&gt;Node7 -->
<g id="edge6_Node000006_Node000007" class="edge">
<title>Node6&#45;&gt;Node7</title>
<g id="a_edge6_Node000006_Node000007"><a xlink:title=" ">
<path fill="none" stroke="#63b8ff" d="M797.8,-54.98C774.93,-46.27 739.17,-32.63 713.27,-22.75"/>
<polygon fill="#63b8ff" stroke="#63b8ff" points="714.46,-19.46 703.87,-19.17 711.97,-26 714.46,-19.46"/>
</a>
</g>
</g>
<!-- Node8&#45;&gt;Node6 -->
<g id="edge8_Node000008_Node000006" class="edge">
<title>Node8&#45;&gt;Node6</title>
<g id="a_edge8_Node000008_Node000006"><a xlink:title=" ">
<path fill="none" stroke="#63b8ff" d="M233.28,-113.8C347.89,-104.36 606.12,-83.11 738.5,-72.22"/>
<polygon fill="#63b8ff" stroke="#63b8ff" points="738.91,-75.7 748.59,-71.39 738.33,-68.72 738.91,-75.7"/>
</a>
</g>
</g>
<!-- Node8&#45;&gt;Node9 -->
<g id="edge9_Node000008_Node000009" class="edge">
<title>Node8&#45;&gt;Node9</title>
<g id="a_edge9_Node000008_Node000009"><a xlink:title=" ">
<path fill="none" stroke="#63b8ff" d="M193.8,-109.98C211.42,-101.5 238.71,-88.35 259.06,-78.54"/>
<polygon fill="#63b8ff" stroke="#63b8ff" points="260.65,-81.66 268.14,-74.17 257.61,-75.36 260.65,-81.66"/>
</a>
</g>
</g>
<!-- Node10 -->
<g id="Node000010" class="node">
<title>Node10</title>
<g id="a_Node000010"><a xlink:title=" ">
<polygon fill="#e0e0e0" stroke="#999999" points="213.13,-74 89.13,-74 89.13,-55 213.13,-55 213.13,-74"/>
<text text-anchor="middle" x="151.13" y="-62" font-family="Helvetica,sans-Serif" font-size="10.00">AMReX_Interpolater.H</text>
</a>
</g>
</g>
<!-- Node8&#45;&gt;Node10 -->
<g id="edge10_Node000008_Node000010" class="edge">
<title>Node8&#45;&gt;Node10</title>
<g id="a_edge10_Node000008_Node000010"><a xlink:title=" ">
<path fill="none" stroke="#63b8ff" d="M172,-109.75C168.62,-102.57 163.71,-92.18 159.51,-83.27"/>
<polygon fill="#63b8ff" stroke="#63b8ff" points="162.61,-81.64 155.18,-74.09 156.28,-84.63 162.61,-81.64"/>
</a>
</g>
</g>
<!-- Node11&#45;&gt;Node4 -->
<g id="edge12_Node000011_Node000004" class="edge">
<title>Node11&#45;&gt;Node4</title>
<g id="a_edge12_Node000011_Node000004"><a xlink:title=" ">
<path fill="none" stroke="#63b8ff" d="M581.41,-170.8C664.19,-165.58 842.9,-152.48 992.13,-129 1031.23,-122.85 1040.41,-118.22 1079.13,-110 1144.39,-96.15 1220.87,-80.54 1263.07,-71.98"/>
<polygon fill="#63b8ff" stroke="#63b8ff" points="1263.93,-75.38 1273.03,-69.96 1262.54,-68.52 1263.93,-75.38"/>
</a>
</g>
</g>
<!-- Node11&#45;&gt;Node5 -->
<g id="edge14_Node000011_Node000005" class="edge">
<title>Node11&#45;&gt;Node5</title>
<g id="a_edge14_Node000011_Node000005"><a xlink:title=" ">
<path fill="none" stroke="#63b8ff" d="M559.71,-164.98C585.18,-156.16 625.17,-142.31 653.76,-132.41"/>
<polygon fill="#63b8ff" stroke="#63b8ff" points="655.05,-135.66 663.36,-129.08 652.76,-129.05 655.05,-135.66"/>
</a>
</g>
</g>
<!-- Node11&#45;&gt;Node6 -->
<g id="edge21_Node000011_Node000006" class="edge">
<title>Node11&#45;&gt;Node6</title>
<g id="a_edge21_Node000011_Node000006"><a xlink:title=" ">
<path fill="none" stroke="#63b8ff" d="M545.48,-164.95C562.5,-151.32 597.92,-124.71 632.13,-110 670.01,-93.71 714.87,-82.81 751.26,-75.87"/>
<polygon fill="#63b8ff" stroke="#63b8ff" points="752.09,-79.27 761.29,-74.02 750.82,-72.39 752.09,-79.27"/>
</a>
</g>
</g>
<!-- Node11&#45;&gt;Node9 -->
<g id="edge16_Node000011_Node000009" class="edge">
<title>Node11&#45;&gt;Node9</title>
<g id="a_edge16_Node000011_Node000009"><a xlink:title=" ">
<path fill="none" stroke="#63b8ff" d="M488.8,-169.62C431.01,-163.89 336.57,-151.38 310.13,-129 297.07,-117.95 291.1,-99.01 288.39,-84.68"/>
<polygon fill="#63b8ff" stroke="#63b8ff" points="291.79,-83.78 286.83,-74.42 284.87,-84.83 291.79,-83.78"/>
</a>
</g>
</g>
<!-- Node12 -->
<g id="Node000012" class="node">
<title>Node12</title>
<g id="a_Node000012"><a xlink:title=" ">
<polygon fill="#e0e0e0" stroke="#999999" points="385.13,-129 327.13,-129 327.13,-110 385.13,-110 385.13,-129"/>
<text text-anchor="middle" x="356.13" y="-117" font-family="Helvetica,sans-Serif" font-size="10.00">memory</text>
</a>
</g>
</g>
<!-- Node11&#45;&gt;Node12 -->
<g id="edge13_Node000011_Node000012" class="edge">
<title>Node11&#45;&gt;Node12</title>
<g id="a_edge13_Node000011_Node000012"><a xlink:title=" ">
<path fill="none" stroke="#63b8ff" d="M506.37,-164.98C476.19,-156.05 428.56,-141.94 395.03,-132.02"/>
<polygon fill="#63b8ff" stroke="#63b8ff" points="395.7,-128.57 385.11,-129.08 393.71,-135.28 395.7,-128.57"/>
</a>
</g>
</g>
<!-- Node13 -->
<g id="Node000013" class="node">
<title>Node13</title>
<g id="a_Node000013"><a xlink:title=" ">
<polygon fill="#e0e0e0" stroke="#999999" points="467.13,-129 403.13,-129 403.13,-110 467.13,-110 467.13,-129"/>
<text text-anchor="middle" x="435.13" y="-117" font-family="Helvetica,sans-Serif" font-size="10.00">algorithm</text>
</a>
</g>
</g>
<!-- Node11&#45;&gt;Node13 -->
<g id="edge15_Node000011_Node000013" class="edge">
<title>Node11&#45;&gt;Node13</title>
<g id="a_edge15_Node000011_Node000013"><a xlink:title=" ">
<path fill="none" stroke="#63b8ff" d="M519.06,-164.98C503.27,-156.61 478.91,-143.7 460.5,-133.95"/>
<polygon fill="#63b8ff" stroke="#63b8ff" points="461.96,-130.76 451.49,-129.17 458.69,-136.95 461.96,-130.76"/>
</a>
</g>
</g>
<!-- Node14 -->
<g id="Node000014" class="node">
<title>Node14</title>
<g id="a_Node000014"><a xlink:title=" ">
<polygon fill="#e0e0e0" stroke="#999999" points="584.63,-129 485.63,-129 485.63,-110 584.63,-110 584.63,-129"/>
<text text-anchor="middle" x="535.13" y="-117" font-family="Helvetica,sans-Serif" font-size="10.00">AMReX_BCRec.H</text>
</a>
</g>
</g>
<!-- Node11&#45;&gt;Node14 -->
<g id="edge17_Node000011_Node000014" class="edge">
<title>Node11&#45;&gt;Node14</title>
<g id="a_edge17_Node000011_Node000014"><a xlink:title=" ">
<path fill="none" stroke="#63b8ff" d="M535.13,-164.75C535.13,-157.8 535.13,-147.85 535.13,-139.13"/>
<polygon fill="#63b8ff" stroke="#63b8ff" points="538.63,-139.09 535.13,-129.09 531.63,-139.09 538.63,-139.09"/>
</a>
</g>
</g>
<!-- Node15 -->
<g id="Node000015" class="node">
<title>Node15</title>
<g id="a_Node000015"><a xlink:title=" ">
<polygon fill="#e0e0e0" stroke="#999999" points="100.63,-129 13.63,-129 13.63,-110 100.63,-110 100.63,-129"/>
<text text-anchor="middle" x="57.13" y="-117" font-family="Helvetica,sans-Serif" font-size="10.00">AMReX_Gpu.H</text>
</a>
</g>
</g>
<!-- Node11&#45;&gt;Node15 -->
<g id="edge18_Node000011_Node000015" class="edge">
<title>Node11&#45;&gt;Node15</title>
<g id="a_edge18_Node000011_Node000015"><a xlink:title=" ">
<path fill="none" stroke="#63b8ff" d="M489.12,-169.51C412.8,-162.72 254.96,-147.9 110.7,-129"/>
<polygon fill="#63b8ff" stroke="#63b8ff" points="111.15,-125.53 100.78,-127.69 110.23,-132.47 111.15,-125.53"/>
</a>
</g>
</g>
<!-- Node16 -->
<g id="Node000016" class="node">
<title>Node16</title>
<g id="a_Node000016"><a xlink:href="incflo__enums_8_h.html" target="_top" xlink:title=" ">
<polygon fill="white" stroke="#666666" points="596.63,-74 487.63,-74 487.63,-55 596.63,-55 596.63,-74"/>
<text text-anchor="middle" x="542.13" y="-62" font-family="Helvetica,sans-Serif" font-size="10.00">src/incflo_enums.H</text>
</a>
</g>
</g>
<!-- Node11&#45;&gt;Node16 -->
<g id="edge19_Node000011_Node000016" class="edge">
<title>Node11&#45;&gt;Node16</title>
<g id="a_edge19_Node000011_Node000016"><a xlink:title=" ">
<path fill="none" stroke="#63b8ff" d="M489.11,-170.71C431.93,-166.17 339.28,-154.93 318.13,-129 312.79,-122.46 312.77,-116.53 318.13,-110 338.02,-85.77 418.78,-74.5 477.64,-69.42"/>
<polygon fill="#63b8ff" stroke="#63b8ff" points="477.94,-72.9 487.62,-68.6 477.36,-65.93 477.94,-72.9"/>
</a>
</g>
</g>
<!-- Node17 -->
<g id="Node000017" class="node">
<title>Node17</title>
<g id="a_Node000017"><a xlink:href="_view_field_8_h.html" target="_top" xlink:title=" ">
<polygon fill="white" stroke="#666666" points="983.13,-129 867.13,-129 867.13,-110 983.13,-110 983.13,-129"/>
<text text-anchor="middle" x="925.13" y="-117" font-family="Helvetica,sans-Serif" font-size="10.00">src/core/ViewField.H</text>
</a>
</g>
</g>
<!-- Node11&#45;&gt;Node17 -->
<g id="edge22_Node000011_Node000017" class="edge">
<title>Node11&#45;&gt;Node17</title>
<g id="a_edge22_Node000011_Node000017"><a xlink:title=" ">
<path fill="none" stroke="#63b8ff" d="M581.4,-167.21C649.56,-157.95 777.43,-140.57 856.53,-129.82"/>
<polygon fill="#63b8ff" stroke="#63b8ff" points="857.44,-133.23 866.88,-128.42 856.5,-126.29 857.44,-133.23"/>
</a>
</g>
</g>
<!-- Node16&#45;&gt;Node7 -->
<g id="edge20_Node000016_Node000007" class="edge">
<title>Node16&#45;&gt;Node7</title>
<g id="a_edge20_Node000016_Node000007"><a xlink:title=" ">
<path fill="none" stroke="#63b8ff" d="M564.46,-54.98C587.33,-46.27 623.09,-32.63 648.99,-22.75"/>
<polygon fill="#63b8ff" stroke="#63b8ff" points="650.29,-26 658.39,-19.17 647.8,-19.46 650.29,-26"/>
</a>
</g>
</g>
<!-- Node17&#45;&gt;Node4 -->
<g id="edge23_Node000017_Node000004" class="edge">
<title>Node17&#45;&gt;Node4</title>
<g id="a_edge23_Node000017_Node000004"><a xlink:title=" ">
<path fill="none" stroke="#63b8ff" d="M983.35,-110.16C1062.23,-98.86 1200.35,-79.08 1262.82,-70.13"/>
<polygon fill="#63b8ff" stroke="#63b8ff" points="1263.47,-73.57 1272.87,-68.69 1262.48,-66.64 1263.47,-73.57"/>
</a>
</g>
</g>
<!-- Node17&#45;&gt;Node6 -->
<g id="edge24_Node000017_Node000006" class="edge">
<title>Node17&#45;&gt;Node6</title>
<g id="a_edge24_Node000017_Node000006"><a xlink:title=" ">
<path fill="none" stroke="#63b8ff" d="M908.26,-109.98C891.52,-101.54 865.63,-88.47 846.24,-78.68"/>
<polygon fill="#63b8ff" stroke="#63b8ff" points="847.81,-75.55 837.31,-74.17 844.66,-81.8 847.81,-75.55"/>
</a>
</g>
</g>
<!-- Node17&#45;&gt;Node9 -->
<g id="edge25_Node000017_Node000009" class="edge">
<title>Node17&#45;&gt;Node9</title>
<g id="a_edge25_Node000017_Node000009"><a xlink:title=" ">
<path fill="none" stroke="#63b8ff" d="M867.01,-113.68C747.76,-103.79 476.16,-81.26 351.22,-70.9"/>
<polygon fill="#63b8ff" stroke="#63b8ff" points="351.29,-67.39 341.04,-70.05 350.71,-74.37 351.29,-67.39"/>
</a>
</g>
</g>
<!-- Node18 -->
<g id="Node000018" class="node">
<title>Node18</title>
<g id="a_Node000018"><a xlink:title=" ">
<polygon fill="#e0e0e0" stroke="#999999" points="1098.13,-74 1000.13,-74 1000.13,-55 1098.13,-55 1098.13,-74"/>
<text text-anchor="middle" x="1049.13" y="-62" font-family="Helvetica,sans-Serif" font-size="10.00">AMReX_Vector.H</text>
</a>
</g>
</g>
<!-- Node17&#45;&gt;Node18 -->
<g id="edge26_Node000017_Node000018" class="edge">
<title>Node17&#45;&gt;Node18</title>
<g id="a_edge26_Node000017_Node000018"><a xlink:title=" ">
<path fill="none" stroke="#63b8ff" d="M945.05,-109.98C965.18,-101.38 996.51,-87.99 1019.54,-78.15"/>
<polygon fill="#63b8ff" stroke="#63b8ff" points="1021.03,-81.32 1028.84,-74.17 1018.27,-74.88 1021.03,-81.32"/>
</a>
</g>
</g>
<!-- Node19&#45;&gt;Node4 -->
<g id="edge28_Node000019_Node000004" class="edge">
<title>Node19&#45;&gt;Node4</title>
<g id="a_edge28_Node000019_Node000004"><a xlink:title=" ">
<path fill="none" stroke="#63b8ff" d="M1469.01,-164.92C1519.23,-155.26 1592.9,-139.53 1601.13,-129 1606.33,-122.35 1606.65,-116.39 1601.13,-110 1565.97,-69.36 1398.63,-65.07 1327.37,-65.13"/>
<polygon fill="#63b8ff" stroke="#63b8ff" points="1327.18,-61.63 1317.19,-65.17 1327.2,-68.63 1327.18,-61.63"/>
</a>
</g>
</g>
<!-- Node19&#45;&gt;Node6 -->
<g id="edge29_Node000019_Node000006" class="edge">
<title>Node19&#45;&gt;Node6</title>
<g id="a_edge29_Node000019_Node000006"><a xlink:title=" ">
<path fill="none" stroke="#63b8ff" d="M1413.48,-164.59C1398.87,-150.19 1367.7,-122.2 1335.13,-110 1295.69,-95.23 1037.14,-78.19 902.05,-70.15"/>
<polygon fill="#63b8ff" stroke="#63b8ff" points="901.94,-66.64 891.75,-69.54 901.52,-73.63 901.94,-66.64"/>
</a>
</g>
</g>
<!-- Node19&#45;&gt;Node20 -->
<g id="edge30_Node000019_Node000020" class="edge">
<title>Node19&#45;&gt;Node20</title>
<g id="a_edge30_Node000019_Node000020"><a xlink:title=" ">
<path fill="none" stroke="#63b8ff" d="M1440.45,-164.98C1458.79,-156.46 1487.24,-143.23 1508.36,-133.41"/>
<polygon fill="#63b8ff" stroke="#63b8ff" points="1509.89,-136.56 1517.48,-129.17 1506.94,-130.21 1509.89,-136.56"/>
</a>
</g>
</g>
<!-- Node21&#45;&gt;Node4 -->
<g id="edge32_Node000021_Node000004" class="edge">
<title>Node21&#45;&gt;Node4</title>
<g id="a_edge32_Node000021_Node000004"><a xlink:title=" ">
<path fill="none" stroke="#63b8ff" d="M1054.56,-164.56C1063.5,-150.62 1082.68,-123.9 1106.13,-110 1155.66,-80.63 1223.25,-70.64 1262.74,-67.25"/>
<polygon fill="#63b8ff" stroke="#63b8ff" points="1263.16,-70.72 1272.86,-66.47 1262.62,-63.74 1263.16,-70.72"/>
</a>
</g>
</g>
<!-- Node21&#45;&gt;Node6 -->
<g id="edge34_Node000021_Node000006" class="edge">
<title>Node21&#45;&gt;Node6</title>
<g id="a_edge34_Node000021_Node000006"><a xlink:title=" ">
<path fill="none" stroke="#63b8ff" d="M985.01,-171.08C945.22,-166.74 894.85,-155.79 858.13,-129 842.76,-117.79 832.46,-98.31 826.5,-83.87"/>
<polygon fill="#63b8ff" stroke="#63b8ff" points="829.75,-82.55 822.92,-74.44 823.2,-85.03 829.75,-82.55"/>
</a>
</g>
</g>
<!-- Node21&#45;&gt;Node9 -->
<g id="edge36_Node000021_Node000009" class="edge">
<title>Node21&#45;&gt;Node9</title>
<g id="a_edge36_Node000021_Node000009"><a xlink:title=" ">
<path fill="none" stroke="#63b8ff" d="M1008.75,-165C928.66,-148.16 756.27,-112 743.13,-110 604.21,-88.88 439.93,-75.75 351.08,-69.62"/>
<polygon fill="#63b8ff" stroke="#63b8ff" points="351.1,-66.11 340.88,-68.92 350.62,-73.09 351.1,-66.11"/>
</a>
</g>
</g>
<!-- Node21&#45;&gt;Node17 -->
<g id="edge35_Node000021_Node000017" class="edge">
<title>Node21&#45;&gt;Node17</title>
<g id="a_edge35_Node000021_Node000017"><a xlink:title=" ">
<path fill="none" stroke="#63b8ff" d="M1029.21,-164.98C1009.08,-156.38 977.75,-142.99 954.72,-133.15"/>
<polygon fill="#63b8ff" stroke="#63b8ff" points="955.99,-129.88 945.42,-129.17 953.24,-136.32 955.99,-129.88"/>
</a>
</g>
</g>
<!-- Node21&#45;&gt;Node18 -->
<g id="edge37_Node000021_Node000018" class="edge">
<title>Node21&#45;&gt;Node18</title>
<g id="a_edge37_Node000021_Node000018"><a xlink:title=" ">
<path fill="none" stroke="#63b8ff" d="M1049.13,-164.66C1049.13,-147.17 1049.13,-107.8 1049.13,-84.27"/>
<polygon fill="#63b8ff" stroke="#63b8ff" points="1052.63,-84.16 1049.13,-74.16 1045.63,-84.16 1052.63,-84.16"/>
</a>
</g>
</g>
<!-- Node22 -->
<g id="Node000022" class="node">
<title>Node22</title>
<g id="a_Node000022"><a xlink:title=" ">
<polygon fill="#e0e0e0" stroke="#999999" points="1160.63,-129 1115.63,-129 1115.63,-110 1160.63,-110 1160.63,-129"/>
<text text-anchor="middle" x="1138.13" y="-117" font-family="Helvetica,sans-Serif" font-size="10.00">utility</text>
</a>
</g>
</g>
<!-- Node21&#45;&gt;Node22 -->
<g id="edge33_Node000021_Node000022" class="edge">
<title>Node21&#45;&gt;Node22</title>
<g id="a_edge33_Node000021_Node000022"><a xlink:title=" ">
<path fill="none" stroke="#63b8ff" d="M1063.43,-164.98C1077.23,-156.77 1098.37,-144.18 1114.64,-134.49"/>
<polygon fill="#63b8ff" stroke="#63b8ff" points="1116.77,-137.29 1123.57,-129.17 1113.19,-131.28 1116.77,-137.29"/>
</a>
</g>
</g>
<!-- Node23 -->
<g id="Node000023" class="node">
<title>Node23</title>
<g id="a_Node000023"><a xlink:title=" ">
<polygon fill="#e0e0e0" stroke="#999999" points="1309.63,-129 1178.63,-129 1178.63,-110 1309.63,-110 1309.63,-129"/>
<text text-anchor="middle" x="1244.13" y="-117" font-family="Helvetica,sans-Serif" font-size="10.00">AMReX_PhysBCFunct.H</text>
</a>
</g>
</g>
<!-- Node21&#45;&gt;Node23 -->
<g id="edge38_Node000021_Node000023" class="edge">
<title>Node21&#45;&gt;Node23</title>
<g id="a_edge38_Node000021_Node000023"><a xlink:title=" ">
<path fill="none" stroke="#63b8ff" d="M1080.46,-164.98C1113.62,-155.97 1166.13,-141.7 1202.69,-131.76"/>
<polygon fill="#63b8ff" stroke="#63b8ff" points="1203.82,-135.08 1212.55,-129.08 1201.99,-128.33 1203.82,-135.08"/>
</a>
</g>
</g>
<!-- Node24&#45;&gt;Node4 -->
<g id="edge40_Node000024_Node000004" class="edge">
<title>Node24&#45;&gt;Node4</title>
<g id="a_edge40_Node000024_Node000004"><a xlink:title=" ">
<path fill="none" stroke="#63b8ff" d="M1293.17,-164.99C1330.85,-157.34 1378.38,-144.86 1390.13,-129 1410.17,-101.94 1361.87,-82.85 1327.04,-73.05"/>
<polygon fill="#63b8ff" stroke="#63b8ff" points="1327.77,-69.62 1317.2,-70.43 1325.96,-76.39 1327.77,-69.62"/>
</a>
</g>
</g>
<!-- Node24&#45;&gt;Node6 -->
<g id="edge42_Node000024_Node000006" class="edge">
<title>Node24&#45;&gt;Node6</title>
<g id="a_edge42_Node000024_Node000006"><a xlink:title=" ">
<path fill="none" stroke="#63b8ff" d="M1268.16,-164.82C1296.68,-153.26 1338.01,-131.74 1318.13,-110 1304.29,-94.87 1039.39,-77.82 901.72,-69.94"/>
<polygon fill="#63b8ff" stroke="#63b8ff" points="901.81,-66.44 891.63,-69.36 901.42,-73.43 901.81,-66.44"/>
</a>
</g>
</g>
<!-- Node24&#45;&gt;Node17 -->
<g id="edge43_Node000024_Node000017" class="edge">
<title>Node24&#45;&gt;Node17</title>
<g id="a_edge43_Node000024_Node000017"><a xlink:title=" ">
<path fill="none" stroke="#63b8ff" d="M1192.88,-164.98C1136.69,-155.65 1046.56,-140.67 986.61,-130.71"/>
<polygon fill="#63b8ff" stroke="#63b8ff" points="986.96,-127.22 976.52,-129.04 985.81,-134.13 986.96,-127.22"/>
</a>
</g>
</g>
<!-- Node24&#45;&gt;Node18 -->
<g id="edge45_Node000024_Node000018" class="edge">
<title>Node24&#45;&gt;Node18</title>
<g id="a_edge45_Node000024_Node000018"><a xlink:title=" ">
<path fill="none" stroke="#63b8ff" d="M1286.07,-164.98C1325.49,-155.12 1375.24,-136.75 1352.13,-110 1321.32,-74.33 1187.86,-66.73 1108.71,-65.42"/>
<polygon fill="#63b8ff" stroke="#63b8ff" points="1108.44,-61.91 1098.39,-65.28 1108.34,-68.91 1108.44,-61.91"/>
</a>
</g>
</g>
<!-- Node24&#45;&gt;Node20 -->
<g id="edge44_Node000024_Node000020" class="edge">
<title>Node24&#45;&gt;Node20</title>
<g id="a_edge44_Node000024_Node000020"><a xlink:title=" ">
<path fill="none" stroke="#63b8ff" d="M1291.04,-164.98C1342.19,-155.7 1424.05,-140.84 1478.93,-130.88"/>
<polygon fill="#63b8ff" stroke="#63b8ff" points="1479.63,-134.31 1488.85,-129.08 1478.38,-127.42 1479.63,-134.31"/>
</a>
</g>
</g>
<!-- Node24&#45;&gt;Node22 -->
<g id="edge41_Node000024_Node000022" class="edge">
<title>Node24&#45;&gt;Node22</title>
<g id="a_edge41_Node000024_Node000022"><a xlink:title=" ">
<path fill="none" stroke="#63b8ff" d="M1227.1,-164.98C1210.2,-156.54 1184.07,-143.47 1164.49,-133.68"/>
<polygon fill="#63b8ff" stroke="#63b8ff" points="1165.98,-130.51 1155.47,-129.17 1162.85,-136.77 1165.98,-130.51"/>
</a>
</g>
</g>
<!-- Node24&#45;&gt;Node23 -->
<g id="edge46_Node000024_Node000023" class="edge">
<title>Node24&#45;&gt;Node23</title>
<g id="a_edge46_Node000024_Node000023"><a xlink:title=" ">
<path fill="none" stroke="#63b8ff" d="M1244.13,-164.75C1244.13,-157.8 1244.13,-147.85 1244.13,-139.13"/>
<polygon fill="#63b8ff" stroke="#63b8ff" points="1247.63,-139.09 1244.13,-129.09 1240.63,-139.09 1247.63,-139.09"/>
</a>
</g>
</g>
<!-- Node26&#45;&gt;Node27 -->
<g id="edge51_Node000026_Node000027" class="edge">
<title>Node26&#45;&gt;Node27</title>
<g id="a_edge51_Node000026_Node000027"><a xlink:title=" ">
<path fill="none" stroke="#63b8ff" d="M1396.1,-231.69C1186.43,-222.38 404.46,-187.64 187.35,-178"/>
<polygon fill="#63b8ff" stroke="#63b8ff" points="187.29,-174.49 177.14,-177.54 186.98,-181.48 187.29,-174.49"/>
</a>
</g>
</g>
<!-- Node28 -->
<g id="Node000028" class="node">
<title>Node28</title>
<g id="a_Node000028"><a xlink:title=" ">
<polygon fill="#e0e0e0" stroke="#999999" points="2018.13,-184 1932.13,-184 1932.13,-165 2018.13,-165 2018.13,-184"/>
<text text-anchor="middle" x="1975.13" y="-172" font-family="Helvetica,sans-Serif" font-size="10.00">AMReX_Box.H</text>
</a>
</g>
</g>
<!-- Node26&#45;&gt;Node28 -->
<g id="edge52_Node000026_Node000028" class="edge">
<title>Node26&#45;&gt;Node28</title>
<g id="a_edge52_Node000026_Node000028"><a xlink:title=" ">
<path fill="none" stroke="#63b8ff" d="M1481.53,-225.46C1490.45,-223.41 1500.11,-221.42 1509.13,-220 1688.37,-191.78 1738.12,-206.38 1922.03,-184.04"/>
<polygon fill="#63b8ff" stroke="#63b8ff" points="1922.54,-187.5 1932.04,-182.8 1921.68,-180.55 1922.54,-187.5"/>
</a>
</g>
</g>
<!-- Node29 -->
<g id="Node000029" class="node">
<title>Node29</title>
<g id="a_Node000029"><a xlink:title=" ">
<polygon fill="#e0e0e0" stroke="#999999" points="1780.13,-184 1658.13,-184 1658.13,-165 1780.13,-165 1780.13,-184"/>
<text text-anchor="middle" x="1719.13" y="-172" font-family="Helvetica,sans-Serif" font-size="10.00">AMReX_Orientation.H</text>
</a>
</g>
</g>
<!-- Node26&#45;&gt;Node29 -->
<g id="edge53_Node000026_Node000029" class="edge">
<title>Node26&#45;&gt;Node29</title>
<g id="a_edge53_Node000026_Node000029"><a xlink:title=" ">
<path fill="none" stroke="#63b8ff" d="M1484.88,-225.46C1492.87,-223.63 1501.28,-221.73 1509.13,-220 1563.2,-208.07 1625.25,-194.99 1667.8,-186.13"/>
<polygon fill="#63b8ff" stroke="#63b8ff" points="1668.57,-189.54 1677.65,-184.08 1667.14,-182.69 1668.57,-189.54"/>
</a>
</g>
</g>
<!-- Node30 -->
<g id="Node000030" class="node">
<title>Node30</title>
<g id="a_Node000030"><a xlink:title=" ">
<polygon fill="#e0e0e0" stroke="#999999" points="1913.63,-184 1798.63,-184 1798.63,-165 1913.63,-165 1913.63,-184"/>
<text text-anchor="middle" x="1856.13" y="-172" font-family="Helvetica,sans-Serif" font-size="10.00">AMReX_Geometry.H</text>
</a>
</g>
</g>
<!-- Node26&#45;&gt;Node30 -->
<g id="edge54_Node000026_Node000030" class="edge">
<title>Node26&#45;&gt;Node30</title>
<g id="a_edge54_Node000026_Node000030"><a xlink:title=" ">
<path fill="none" stroke="#63b8ff" d="M1482.53,-225.49C1491.18,-223.52 1500.47,-221.55 1509.13,-220 1515.95,-218.78 1689.36,-196.69 1788.4,-184.1"/>
<polygon fill="#63b8ff" stroke="#63b8ff" points="1788.85,-187.57 1798.33,-182.84 1787.97,-180.63 1788.85,-187.57"/>
</a>
</g>
</g>
<!-- Node31&#45;&gt;Node15 -->
<g id="edge57_Node000031_Node000015" class="edge">
<title>Node31&#45;&gt;Node15</title>
<g id="a_edge57_Node000031_Node000015"><a xlink:title=" ">
<path fill="none" stroke="#63b8ff" d="M159.44,-226.47C131.45,-219.78 97.84,-207.26 76.13,-184 64.73,-171.79 60.15,-153 58.32,-139.03"/>
<polygon fill="#63b8ff" stroke="#63b8ff" points="61.8,-138.69 57.37,-129.07 54.84,-139.36 61.8,-138.69"/>
</a>
</g>
</g>
<!-- Node31&#45;&gt;Node27 -->
<g id="edge56_Node000031_Node000027" class="edge">
<title>Node31&#45;&gt;Node27</title>
<g id="a_edge56_Node000031_Node000027"><a xlink:title=" ">
<path fill="none" stroke="#63b8ff" d="M190.25,-219.84C178.35,-210.91 163.01,-199.41 150.93,-190.35"/>
<polygon fill="#63b8ff" stroke="#63b8ff" points="152.92,-187.47 142.82,-184.27 148.72,-193.07 152.92,-187.47"/>
</a>
</g>
</g>
</g>
</svg>
