<?xml version="1.0" encoding="UTF-8" standalone="no"?>
<!DOCTYPE svg PUBLIC "-//W3C//DTD SVG 1.1//EN"
 "http://www.w3.org/Graphics/SVG/1.1/DTD/svg11.dtd">
<!-- Generated by graphviz version 2.43.0 (0)
 -->
<!-- Title: /home/runner/work/kynema&#45;sgf/kynema&#45;sgf/src/fvm/strainrate.H Pages: 1 -->
<svg width="1293pt" height="203pt"
 viewBox="0.00 0.00 1292.50 203.00" xmlns="http://www.w3.org/2000/svg" xmlns:xlink="http://www.w3.org/1999/xlink">
<g id="graph0" class="graph" transform="scale(1 1) rotate(0) translate(4 199)">
<title>/home/runner/work/kynema&#45;sgf/kynema&#45;sgf/src/fvm/strainrate.H</title>
<!-- Node1 -->
<g id="Node000001" class="node">
<title>Node1</title>
<g id="a_Node000001"><a xlink:title=" ">
<polygon fill="#999999" stroke="#666666" points="718,-195 567,-195 567,-154 718,-154 718,-195"/>
<text text-anchor="start" x="575" y="-183" font-family="Helvetica,sans-Serif" font-size="10.00">/home/runner/work/kynema</text>
<text text-anchor="start" x="575" y="-172" font-family="Helvetica,sans-Serif" font-size="10.00">&#45;sgf/kynema&#45;sgf/src/fvm</text>
<text text-anchor="middle" x="642.5" y="-161" font-family="Helvetica,sans-Serif" font-size="10.00">/strainrate.H</text>
</a>
</g>
</g>
<!-- Node2 -->
<g id="Node000002" class="node">
<title>Node2</title>
<g id="a_Node000002"><a xlink:href="fvm_8_h.html" target="_top" xlink:title=" ">
<polygon fill="white" stroke="#666666" points="169,-112.5 0,-112.5 0,-82.5 169,-82.5 169,-112.5"/>
<text text-anchor="start" x="8" y="-100.5" font-family="Helvetica,sans-Serif" font-size="10.00">/home/runner/work/kynema</text>
<text text-anchor="middle" x="84.5" y="-89.5" font-family="Helvetica,sans-Serif" font-size="10.00">&#45;sgf/kynema&#45;sgf/src/fvm/fvm.H</text>
</a>
</g>
</g>
<!-- Node1&#45;&gt;Node2 -->
<g id="edge1_Node000001_Node000002" class="edge">
<title>Node1&#45;&gt;Node2</title>
<g id="a_edge1_Node000001_Node000002"><a xlink:title=" ">
<path fill="none" stroke="#63b8ff" d="M556.93,-165.56C463.4,-156.36 309.29,-139.64 177.5,-118 167.81,-116.41 157.61,-114.51 147.64,-112.52"/>
<polygon fill="#63b8ff" stroke="#63b8ff" points="556.62,-169.05 566.91,-166.54 557.3,-162.08 556.62,-169.05"/>
</a>
</g>
</g>
<!-- Node4 -->
<g id="Node000004" class="node">
<title>Node4</title>
<g id="a_Node000004"><a xlink:href="_kosovic_8cpp.html" target="_top" xlink:title=" ">
<polygon fill="white" stroke="#666666" points="354.5,-118 186.5,-118 186.5,-77 354.5,-77 354.5,-118"/>
<text text-anchor="start" x="194.5" y="-106" font-family="Helvetica,sans-Serif" font-size="10.00">/home/runner/work/kynema</text>
<text text-anchor="start" x="194.5" y="-95" font-family="Helvetica,sans-Serif" font-size="10.00">&#45;sgf/kynema&#45;sgf/src/turbulence</text>
<text text-anchor="middle" x="270.5" y="-84" font-family="Helvetica,sans-Serif" font-size="10.00">/LES/Kosovic.cpp</text>
</a>
</g>
</g>
<!-- Node1&#45;&gt;Node4 -->
<g id="edge3_Node000001_Node000004" class="edge">
<title>Node1&#45;&gt;Node4</title>
<g id="a_edge3_Node000001_Node000004"><a xlink:title=" ">
<path fill="none" stroke="#63b8ff" d="M556.87,-156.7C501.65,-145.81 428.3,-131.24 363.5,-118 360.59,-117.41 357.63,-116.8 354.64,-116.18"/>
<polygon fill="#63b8ff" stroke="#63b8ff" points="556.48,-160.19 566.97,-158.69 557.83,-153.33 556.48,-160.19"/>
</a>
</g>
</g>
<!-- Node5 -->
<g id="Node000005" class="node">
<title>Node5</title>
<g id="a_Node000005"><a xlink:href="_one_eq_ksgs_8cpp.html" target="_top" xlink:title=" ">
<polygon fill="white" stroke="#666666" points="540.5,-118 372.5,-118 372.5,-77 540.5,-77 540.5,-118"/>
<text text-anchor="start" x="380.5" y="-106" font-family="Helvetica,sans-Serif" font-size="10.00">/home/runner/work/kynema</text>
<text text-anchor="start" x="380.5" y="-95" font-family="Helvetica,sans-Serif" font-size="10.00">&#45;sgf/kynema&#45;sgf/src/turbulence</text>
<text text-anchor="middle" x="456.5" y="-84" font-family="Helvetica,sans-Serif" font-size="10.00">/LES/OneEqKsgs.cpp</text>
</a>
</g>
</g>
<!-- Node1&#45;&gt;Node5 -->
<g id="edge4_Node000001_Node000005" class="edge">
<title>Node1&#45;&gt;Node5</title>
<g id="a_edge4_Node000001_Node000005"><a xlink:title=" ">
<path fill="none" stroke="#63b8ff" d="M584.55,-150.13C559,-139.83 529.31,-127.86 504.96,-118.04"/>
<polygon fill="#63b8ff" stroke="#63b8ff" points="583.53,-153.5 594.12,-153.99 586.15,-147 583.53,-153.5"/>
</a>
</g>
</g>
<!-- Node6 -->
<g id="Node000006" class="node">
<title>Node6</title>
<g id="a_Node000006"><a xlink:href="_smagorinsky_8cpp.html" target="_top" xlink:title=" ">
<polygon fill="white" stroke="#666666" points="726.5,-118 558.5,-118 558.5,-77 726.5,-77 726.5,-118"/>
<text text-anchor="start" x="566.5" y="-106" font-family="Helvetica,sans-Serif" font-size="10.00">/home/runner/work/kynema</text>
<text text-anchor="start" x="566.5" y="-95" font-family="Helvetica,sans-Serif" font-size="10.00">&#45;sgf/kynema&#45;sgf/src/turbulence</text>
<text text-anchor="middle" x="642.5" y="-84" font-family="Helvetica,sans-Serif" font-size="10.00">/LES/Smagorinsky.cpp</text>
</a>
</g>
</g>
<!-- Node1&#45;&gt;Node6 -->
<g id="edge5_Node000001_Node000006" class="edge">
<title>Node1&#45;&gt;Node6</title>
<g id="a_edge5_Node000001_Node000006"><a xlink:title=" ">
<path fill="none" stroke="#63b8ff" d="M642.5,-143.69C642.5,-135.08 642.5,-125.9 642.5,-118.07"/>
<polygon fill="#63b8ff" stroke="#63b8ff" points="639,-143.79 642.5,-153.79 646,-143.79 639,-143.79"/>
</a>
</g>
</g>
<!-- Node7 -->
<g id="Node000007" class="node">
<title>Node7</title>
<g id="a_Node000007"><a xlink:href="_k_l_axell_8cpp.html" target="_top" xlink:title=" ">
<polygon fill="white" stroke="#666666" points="912.5,-118 744.5,-118 744.5,-77 912.5,-77 912.5,-118"/>
<text text-anchor="start" x="752.5" y="-106" font-family="Helvetica,sans-Serif" font-size="10.00">/home/runner/work/kynema</text>
<text text-anchor="start" x="752.5" y="-95" font-family="Helvetica,sans-Serif" font-size="10.00">&#45;sgf/kynema&#45;sgf/src/turbulence</text>
<text text-anchor="middle" x="828.5" y="-84" font-family="Helvetica,sans-Serif" font-size="10.00">/RANS/KLAxell.cpp</text>
</a>
</g>
</g>
<!-- Node1&#45;&gt;Node7 -->
<g id="edge6_Node000001_Node000007" class="edge">
<title>Node1&#45;&gt;Node7</title>
<g id="a_edge6_Node000001_Node000007"><a xlink:title=" ">
<path fill="none" stroke="#63b8ff" d="M700.45,-150.13C726,-139.83 755.69,-127.86 780.04,-118.04"/>
<polygon fill="#63b8ff" stroke="#63b8ff" points="698.85,-147 690.88,-153.99 701.47,-153.5 698.85,-147"/>
</a>
</g>
</g>
<!-- Node8 -->
<g id="Node000008" class="node">
<title>Node8</title>
<g id="a_Node000008"><a xlink:href="_k_omega_s_s_t_8cpp.html" target="_top" xlink:title=" ">
<polygon fill="white" stroke="#666666" points="1098.5,-118 930.5,-118 930.5,-77 1098.5,-77 1098.5,-118"/>
<text text-anchor="start" x="938.5" y="-106" font-family="Helvetica,sans-Serif" font-size="10.00">/home/runner/work/kynema</text>
<text text-anchor="start" x="938.5" y="-95" font-family="Helvetica,sans-Serif" font-size="10.00">&#45;sgf/kynema&#45;sgf/src/turbulence</text>
<text text-anchor="middle" x="1014.5" y="-84" font-family="Helvetica,sans-Serif" font-size="10.00">/RANS/KOmegaSST.cpp</text>
</a>
</g>
</g>
<!-- Node1&#45;&gt;Node8 -->
<g id="edge7_Node000001_Node000008" class="edge">
<title>Node1&#45;&gt;Node8</title>
<g id="a_edge7_Node000001_Node000008"><a xlink:title=" ">
<path fill="none" stroke="#63b8ff" d="M728.13,-156.7C783.35,-145.81 856.7,-131.24 921.5,-118 924.41,-117.41 927.37,-116.8 930.36,-116.18"/>
<polygon fill="#63b8ff" stroke="#63b8ff" points="727.17,-153.33 718.03,-158.69 728.52,-160.19 727.17,-153.33"/>
</a>
</g>
</g>
<!-- Node9 -->
<g id="Node000009" class="node">
<title>Node9</title>
<g id="a_Node000009"><a xlink:href="_k_omega_s_s_t_i_d_d_e_s_8cpp.html" target="_top" xlink:title=" ">
<polygon fill="white" stroke="#666666" points="1284.5,-118 1116.5,-118 1116.5,-77 1284.5,-77 1284.5,-118"/>
<text text-anchor="start" x="1124.5" y="-106" font-family="Helvetica,sans-Serif" font-size="10.00">/home/runner/work/kynema</text>
<text text-anchor="start" x="1124.5" y="-95" font-family="Helvetica,sans-Serif" font-size="10.00">&#45;sgf/kynema&#45;sgf/src/turbulence</text>
<text text-anchor="middle" x="1200.5" y="-84" font-family="Helvetica,sans-Serif" font-size="10.00">/RANS/KOmegaSSTIDDES.cpp</text>
</a>
</g>
</g>
<!-- Node1&#45;&gt;Node9 -->
<g id="edge8_Node000001_Node000009" class="edge">
<title>Node1&#45;&gt;Node9</title>
<g id="a_edge8_Node000001_Node000009"><a xlink:title=" ">
<path fill="none" stroke="#63b8ff" d="M728.07,-165.56C821.6,-156.36 975.71,-139.64 1107.5,-118 1110.43,-117.52 1113.41,-117.01 1116.41,-116.48"/>
<polygon fill="#63b8ff" stroke="#63b8ff" points="727.7,-162.08 718.09,-166.54 728.38,-169.05 727.7,-162.08"/>
</a>
</g>
</g>
<!-- Node3 -->
<g id="Node000003" class="node">
<title>Node3</title>
<g id="a_Node000003"><a xlink:href="_derived_qty_defs_8cpp.html" target="_top" xlink:title=" ">
<polygon fill="white" stroke="#666666" points="161,-41 8,-41 8,0 161,0 161,-41"/>
<text text-anchor="start" x="16" y="-29" font-family="Helvetica,sans-Serif" font-size="10.00">/home/runner/work/kynema</text>
<text text-anchor="start" x="16" y="-18" font-family="Helvetica,sans-Serif" font-size="10.00">&#45;sgf/kynema&#45;sgf/src/utilities</text>
<text text-anchor="middle" x="84.5" y="-7" font-family="Helvetica,sans-Serif" font-size="10.00">/DerivedQtyDefs.cpp</text>
</a>
</g>
</g>
<!-- Node2&#45;&gt;Node3 -->
<g id="edge2_Node000002_Node000003" class="edge">
<title>Node2&#45;&gt;Node3</title>
<g id="a_edge2_Node000002_Node000003"><a xlink:title=" ">
<path fill="none" stroke="#63b8ff" d="M84.5,-72.23C84.5,-62.2 84.5,-50.71 84.5,-41.2"/>
<polygon fill="#63b8ff" stroke="#63b8ff" points="81,-72.39 84.5,-82.39 88,-72.39 81,-72.39"/>
</a>
</g>
</g>
</g>
</svg>
