<?xml version="1.0" encoding="UTF-8" standalone="no"?>
<!DOCTYPE svg PUBLIC "-//W3C//DTD SVG 1.1//EN"
 "http://www.w3.org/Graphics/SVG/1.1/DTD/svg11.dtd">
<!-- Generated by graphviz version 2.43.0 (0)
 -->
<!-- Title: kynema_sgf::derived::MaskTerrain Pages: 1 -->
<svg width="1568pt" height="292pt"
 viewBox="0.00 0.00 1568.00 292.45" xmlns="http://www.w3.org/2000/svg" xmlns:xlink="http://www.w3.org/1999/xlink">
<g id="graph0" class="graph" transform="scale(1 1) rotate(0) translate(4 288.45)">
<title>kynema_sgf::derived::MaskTerrain</title>
<!-- Node1 -->
<g id="Node000001" class="node">
<title>Node1</title>
<g id="a_Node000001"><a xlink:title=" ">
<polygon fill="#999999" stroke="#666666" points="1560,-165.45 1442,-165.45 1442,-135.45 1560,-135.45 1560,-165.45"/>
<text text-anchor="start" x="1450" y="-153.45" font-family="Helvetica,sans-Serif" font-size="10.00">kynema_sgf::derived</text>
<text text-anchor="middle" x="1501" y="-142.45" font-family="Helvetica,sans-Serif" font-size="10.00">::MaskTerrain</text>
</a>
</g>
</g>
<!-- Node2 -->
<g id="Node000002" class="node">
<title>Node2</title>
<g id="a_Node000002"><a xlink:title=" ">
<polygon fill="white" stroke="#666666" points="1357,-230.45 1201,-230.45 1201,-178.45 1357,-178.45 1357,-230.45"/>
<text text-anchor="start" x="1209" y="-218.45" font-family="Helvetica,sans-Serif" font-size="10.00">kynema_sgf::Factory</text>
<text text-anchor="start" x="1209" y="-207.45" font-family="Helvetica,sans-Serif" font-size="10.00">&lt; DerivedQty, const</text>
<text text-anchor="start" x="1209" y="-196.45" font-family="Helvetica,sans-Serif" font-size="10.00"> FieldRepo &amp;, std::vector</text>
<text text-anchor="middle" x="1279" y="-185.45" font-family="Helvetica,sans-Serif" font-size="10.00">&lt; std::string &gt; &amp; &gt;::Register</text>
</a>
</g>
</g>
<!-- Node2&#45;&gt;Node1 -->
<g id="edge1_Node000001_Node000002" class="edge">
<title>Node2&#45;&gt;Node1</title>
<g id="a_edge1_Node000001_Node000002"><a xlink:title=" ">
<path fill="none" stroke="#63b8ff" d="M1366.89,-185.19C1385.76,-180.82 1405.58,-176.1 1424,-171.45 1431.3,-169.6 1438.97,-167.58 1446.52,-165.54"/>
<polygon fill="#63b8ff" stroke="#63b8ff" points="1366.09,-181.78 1357.13,-187.43 1367.66,-188.6 1366.09,-181.78"/>
</a>
</g>
</g>
<!-- Node3 -->
<g id="Node000003" class="node">
<title>Node3</title>
<g id="a_Node000003"><a xlink:href="classkynema__sgf_1_1_field.html" target="_top" xlink:title=" ">
<polygon fill="white" stroke="#666666" points="1331,-159.95 1227,-159.95 1227,-140.95 1331,-140.95 1331,-159.95"/>
<text text-anchor="middle" x="1279" y="-147.95" font-family="Helvetica,sans-Serif" font-size="10.00">kynema_sgf::Field</text>
</a>
</g>
</g>
<!-- Node3&#45;&gt;Node1 -->
<g id="edge2_Node000001_Node000003" class="edge">
<title>Node3&#45;&gt;Node1</title>
<g id="a_edge2_Node000001_Node000003"><a xlink:title=" ">
<path fill="none" stroke="#9a32cd" stroke-dasharray="5,2" d="M1341.41,-150.45C1372.85,-150.45 1410.92,-150.45 1441.87,-150.45"/>
<polygon fill="#9a32cd" stroke="#9a32cd" points="1341.03,-146.95 1331.03,-150.45 1341.03,-153.95 1341.03,-146.95"/>
</a>
</g>
<text text-anchor="start" x="1384.5" y="-155.95" font-family="Helvetica,sans-Serif" font-size="10.00" fill="grey">m_phi</text>
</g>
<!-- Node4 -->
<g id="Node000004" class="node">
<title>Node4</title>
<g id="a_Node000004"><a xlink:href="classkynema__sgf_1_1_field_repo.html" target="_top" xlink:title=" ">
<polygon fill="white" stroke="#666666" points="1116.5,-115.95 987.5,-115.95 987.5,-96.95 1116.5,-96.95 1116.5,-115.95"/>
<text text-anchor="middle" x="1052" y="-103.95" font-family="Helvetica,sans-Serif" font-size="10.00">kynema_sgf::FieldRepo</text>
</a>
</g>
</g>
<!-- Node4&#45;&gt;Node3 -->
<g id="edge3_Node000003_Node000004" class="edge">
<title>Node4&#45;&gt;Node3</title>
<g id="a_edge3_Node000003_Node000004"><a xlink:title=" ">
<path fill="none" stroke="#9a32cd" stroke-dasharray="5,2" d="M1111.85,-117.95C1148.39,-125.1 1194.8,-134.18 1229.27,-140.92"/>
<polygon fill="#9a32cd" stroke="#9a32cd" points="1112.31,-114.48 1101.82,-115.99 1110.96,-121.35 1112.31,-114.48"/>
</a>
</g>
<text text-anchor="start" x="1143.5" y="-135.95" font-family="Helvetica,sans-Serif" font-size="10.00" fill="grey">m_repo</text>
</g>
<!-- Node17 -->
<g id="Node000017" class="node">
<title>Node17</title>
<g id="a_Node000017"><a xlink:href="classkynema__sgf_1_1_int_field.html" target="_top" xlink:title=" ">
<polygon fill="white" stroke="#666666" points="1337.5,-103.95 1220.5,-103.95 1220.5,-84.95 1337.5,-84.95 1337.5,-103.95"/>
<text text-anchor="middle" x="1279" y="-91.95" font-family="Helvetica,sans-Serif" font-size="10.00">kynema_sgf::IntField</text>
</a>
</g>
</g>
<!-- Node4&#45;&gt;Node17 -->
<g id="edge21_Node000017_Node000004" class="edge">
<title>Node4&#45;&gt;Node17</title>
<g id="a_edge21_Node000017_Node000004"><a xlink:title=" ">
<path fill="none" stroke="#9a32cd" stroke-dasharray="5,2" d="M1126.56,-96.53C1131.1,-96.1 1135.61,-95.74 1140,-95.45 1166.3,-93.69 1195.47,-93.26 1220.2,-93.34"/>
<polygon fill="#9a32cd" stroke="#9a32cd" points="1126.19,-93.04 1116.59,-97.52 1126.88,-100.01 1126.19,-93.04"/>
</a>
</g>
<text text-anchor="start" x="1143.5" y="-100.95" font-family="Helvetica,sans-Serif" font-size="10.00" fill="grey">m_repo</text>
</g>
<!-- Node5 -->
<g id="Node000005" class="node">
<title>Node5</title>
<g id="a_Node000005"><a xlink:title=" ">
<polygon fill="white" stroke="#666666" points="866.5,-121.45 744.5,-121.45 744.5,-91.45 866.5,-91.45 866.5,-121.45"/>
<text text-anchor="start" x="752.5" y="-109.45" font-family="Helvetica,sans-Serif" font-size="10.00">std::unordered_map</text>
<text text-anchor="middle" x="805.5" y="-98.45" font-family="Helvetica,sans-Serif" font-size="10.00">&lt; std::string, size_t &gt;</text>
</a>
</g>
</g>
<!-- Node5&#45;&gt;Node4 -->
<g id="edge4_Node000004_Node000005" class="edge">
<title>Node5&#45;&gt;Node4</title>
<g id="a_edge4_Node000004_Node000005"><a xlink:title=" ">
<path fill="none" stroke="#9a32cd" stroke-dasharray="5,2" d="M876.73,-106.45C911.57,-106.45 953.34,-106.45 987.26,-106.45"/>
<polygon fill="#9a32cd" stroke="#9a32cd" points="876.62,-102.95 866.62,-106.45 876.62,-109.95 876.62,-102.95"/>
</a>
</g>
<text text-anchor="start" x="888.5" y="-127.45" font-family="Helvetica,sans-Serif" font-size="10.00" fill="grey">m_fid_map</text>
<text text-anchor="start" x="888.5" y="-112.45" font-family="Helvetica,sans-Serif" font-size="10.00" fill="grey">m_int_fid_map</text>
</g>
<!-- Node6 -->
<g id="Node000006" class="node">
<title>Node6</title>
<g id="a_Node000006"><a xlink:title=" ">
<polygon fill="white" stroke="#666666" points="524.5,-140.95 459.5,-140.95 459.5,-121.95 524.5,-121.95 524.5,-140.95"/>
<text text-anchor="middle" x="492" y="-128.95" font-family="Helvetica,sans-Serif" font-size="10.00">std::string</text>
</a>
</g>
</g>
<!-- Node6&#45;&gt;Node3 -->
<g id="edge10_Node000003_Node000006" class="edge">
<title>Node6&#45;&gt;Node3</title>
<g id="a_edge10_Node000003_Node000006"><a xlink:title=" ">
<path fill="none" stroke="#9a32cd" stroke-dasharray="5,2" d="M535.02,-137.11C552.05,-139.17 571.93,-141.28 590,-142.45 833.97,-158.24 895.53,-149.45 1140,-151.45 1168.75,-151.68 1200.87,-151.48 1226.88,-151.19"/>
<polygon fill="#9a32cd" stroke="#9a32cd" points="535.18,-133.6 524.82,-135.84 534.31,-140.55 535.18,-133.6"/>
</a>
</g>
<text text-anchor="start" x="903.5" y="-156.95" font-family="Helvetica,sans-Serif" font-size="10.00" fill="grey">m_name</text>
</g>
<!-- Node6&#45;&gt;Node5 -->
<g id="edge5_Node000005_Node000006" class="edge">
<title>Node6&#45;&gt;Node5</title>
<g id="a_edge5_Node000005_Node000006"><a xlink:title=" ">
<path fill="none" stroke="#9a32cd" stroke-dasharray="5,2" d="M534.8,-128.09C588.7,-123.76 682.8,-116.21 744.37,-111.27"/>
<polygon fill="#9a32cd" stroke="#9a32cd" points="534.27,-124.62 524.58,-128.91 534.83,-131.6 534.27,-124.62"/>
</a>
</g>
<text text-anchor="start" x="647" y="-127.95" font-family="Helvetica,sans-Serif" font-size="10.00" fill="grey">keys</text>
</g>
<!-- Node12 -->
<g id="Node000012" class="node">
<title>Node12</title>
<g id="a_Node000012"><a xlink:href="structkynema__sgf_1_1_field_info.html" target="_top" xlink:title=" ">
<polygon fill="white" stroke="#666666" points="867,-227.95 744,-227.95 744,-208.95 867,-208.95 867,-227.95"/>
<text text-anchor="middle" x="805.5" y="-215.95" font-family="Helvetica,sans-Serif" font-size="10.00">kynema_sgf::FieldInfo</text>
</a>
</g>
</g>
<!-- Node6&#45;&gt;Node12 -->
<g id="edge13_Node000012_Node000006" class="edge">
<title>Node6&#45;&gt;Node12</title>
<g id="a_edge13_Node000012_Node000006"><a xlink:title=" ">
<path fill="none" stroke="#9a32cd" stroke-dasharray="5,2" d="M525.72,-144.81C544.36,-152.11 568.26,-160.96 590,-167.45 649.41,-185.16 665.74,-183.9 726,-198.45 739.67,-201.74 754.64,-205.52 767.81,-208.89"/>
<polygon fill="#9a32cd" stroke="#9a32cd" points="526.82,-141.48 516.23,-141.05 524.24,-147.99 526.82,-141.48"/>
</a>
</g>
<text text-anchor="start" x="625" y="-203.95" font-family="Helvetica,sans-Serif" font-size="10.00" fill="grey">m_basename</text>
</g>
<!-- Node6&#45;&gt;Node17 -->
<g id="edge22_Node000017_Node000006" class="edge">
<title>Node6&#45;&gt;Node17</title>
<g id="a_edge22_Node000017_Node000006"><a xlink:title=" ">
<path fill="none" stroke="#9a32cd" stroke-dasharray="5,2" d="M534.97,-120.86C551.99,-116.73 571.88,-112.12 590,-108.45 658.03,-94.65 674.83,-88.24 744,-82.45 800.33,-77.72 1058.34,-85.39 1122,-87.45 1154.52,-88.49 1190.83,-90.1 1220.23,-91.51"/>
<polygon fill="#9a32cd" stroke="#9a32cd" points="533.66,-117.58 524.78,-123.36 535.32,-124.38 533.66,-117.58"/>
</a>
</g>
<text text-anchor="start" x="903.5" y="-88.95" font-family="Helvetica,sans-Serif" font-size="10.00" fill="grey">m_name</text>
</g>
<!-- Node7 -->
<g id="Node000007" class="node">
<title>Node7</title>
<g id="a_Node000007"><a xlink:title=" ">
<polygon fill="white" stroke="#666666" points="209.5,-146.45 105.5,-146.45 105.5,-116.45 209.5,-116.45 209.5,-146.45"/>
<text text-anchor="start" x="113.5" y="-134.45" font-family="Helvetica,sans-Serif" font-size="10.00">std::basic_string&lt;</text>
<text text-anchor="middle" x="157.5" y="-123.45" font-family="Helvetica,sans-Serif" font-size="10.00"> Char &gt;</text>
</a>
</g>
</g>
<!-- Node7&#45;&gt;Node6 -->
<g id="edge6_Node000006_Node000007" class="edge">
<title>Node7&#45;&gt;Node6</title>
<g id="a_edge6_Node000006_Node000007"><a xlink:title=" ">
<path fill="none" stroke="#63b8ff" d="M219.85,-131.45C290.64,-131.45 404.34,-131.45 459.27,-131.45"/>
<polygon fill="#63b8ff" stroke="#63b8ff" points="219.72,-127.95 209.72,-131.45 219.72,-134.95 219.72,-127.95"/>
</a>
</g>
</g>
<!-- Node8 -->
<g id="Node000008" class="node">
<title>Node8</title>
<g id="a_Node000008"><a xlink:title=" ">
<polygon fill="white" stroke="#666666" points="549,-54.45 435,-54.45 435,-24.45 549,-24.45 549,-54.45"/>
<text text-anchor="start" x="443" y="-42.45" font-family="Helvetica,sans-Serif" font-size="10.00">std::unordered_map</text>
<text text-anchor="middle" x="492" y="-31.45" font-family="Helvetica,sans-Serif" font-size="10.00">&lt; K, T &gt;</text>
</a>
</g>
</g>
<!-- Node8&#45;&gt;Node5 -->
<g id="edge7_Node000005_Node000008" class="edge">
<title>Node8&#45;&gt;Node5</title>
<g id="a_edge7_Node000005_Node000008"><a xlink:title=" ">
<path fill="none" stroke="orange" stroke-dasharray="5,2" d="M559.02,-53.65C613.86,-65.44 691.24,-82.08 744.38,-93.52"/>
<polygon fill="orange" stroke="orange" points="559.56,-50.18 549.05,-51.5 558.09,-57.03 559.56,-50.18"/>
</a>
</g>
<text text-anchor="start" x="605" y="-94.95" font-family="Helvetica,sans-Serif" font-size="10.00" fill="grey">&lt; std::string, size_t &gt;</text>
</g>
<!-- Node9 -->
<g id="Node000009" class="node">
<title>Node9</title>
<g id="a_Node000009"><a xlink:title=" ">
<polygon fill="white" stroke="#666666" points="172,-93.95 143,-93.95 143,-74.95 172,-74.95 172,-93.95"/>
<text text-anchor="middle" x="157.5" y="-81.95" font-family="Helvetica,sans-Serif" font-size="10.00">K</text>
</a>
</g>
</g>
<!-- Node9&#45;&gt;Node8 -->
<g id="edge8_Node000008_Node000009" class="edge">
<title>Node9&#45;&gt;Node8</title>
<g id="a_edge8_Node000008_Node000009"><a xlink:title=" ">
<path fill="none" stroke="#9a32cd" stroke-dasharray="5,2" d="M182.21,-81.42C224.68,-75.99 316.56,-64.13 394,-53.45 407.23,-51.62 421.47,-49.6 434.85,-47.67"/>
<polygon fill="#9a32cd" stroke="#9a32cd" points="181.52,-77.98 172.05,-82.72 182.41,-84.93 181.52,-77.98"/>
</a>
</g>
<text text-anchor="start" x="310" y="-78.95" font-family="Helvetica,sans-Serif" font-size="10.00" fill="grey">keys</text>
</g>
<!-- Node10 -->
<g id="Node000010" class="node">
<title>Node10</title>
<g id="a_Node000010"><a xlink:title=" ">
<polygon fill="white" stroke="#666666" points="29,-233.95 0,-233.95 0,-214.95 29,-214.95 29,-233.95"/>
<text text-anchor="middle" x="14.5" y="-221.95" font-family="Helvetica,sans-Serif" font-size="10.00">T</text>
</a>
</g>
</g>
<!-- Node10&#45;&gt;Node8 -->
<g id="edge9_Node000008_Node000010" class="edge">
<title>Node10&#45;&gt;Node8</title>
<g id="a_edge9_Node000008_Node000010"><a xlink:title=" ">
<path fill="none" stroke="#9a32cd" stroke-dasharray="5,2" d="M16.6,-204.32C19.89,-166.34 32.97,-84.69 85,-48.45 192.75,26.61 358.62,-2.78 441,-24.37"/>
<polygon fill="#9a32cd" stroke="#9a32cd" points="13.09,-204.38 15.86,-214.6 20.07,-204.88 13.09,-204.38"/>
</a>
</g>
<text text-anchor="start" x="134.5" y="-53.95" font-family="Helvetica,sans-Serif" font-size="10.00" fill="grey">elements</text>
</g>
<!-- Node15 -->
<g id="Node000015" class="node">
<title>Node15</title>
<g id="a_Node000015"><a xlink:title=" ">
<polygon fill="white" stroke="#666666" points="216.5,-233.95 98.5,-233.95 98.5,-214.95 216.5,-214.95 216.5,-233.95"/>
<text text-anchor="middle" x="157.5" y="-221.95" font-family="Helvetica,sans-Serif" font-size="10.00">std::unique_ptr&lt; T &gt;</text>
</a>
</g>
</g>
<!-- Node10&#45;&gt;Node15 -->
<g id="edge17_Node000015_Node000010" class="edge">
<title>Node10&#45;&gt;Node15</title>
<g id="a_edge17_Node000015_Node000010"><a xlink:title=" ">
<path fill="none" stroke="#9a32cd" stroke-dasharray="5,2" d="M39.2,-224.45C55.44,-224.45 77.72,-224.45 98.5,-224.45"/>
<polygon fill="#9a32cd" stroke="#9a32cd" points="39.02,-220.95 29.02,-224.45 39.02,-227.95 39.02,-220.95"/>
</a>
</g>
<text text-anchor="start" x="50" y="-229.95" font-family="Helvetica,sans-Serif" font-size="10.00" fill="grey">ptr</text>
</g>
<!-- Node16 -->
<g id="Node000016" class="node">
<title>Node16</title>
<g id="a_Node000016"><a xlink:title=" ">
<polygon fill="white" stroke="#666666" points="380,-278.95 262,-278.95 262,-259.95 380,-259.95 380,-278.95"/>
<text text-anchor="middle" x="321" y="-266.95" font-family="Helvetica,sans-Serif" font-size="10.00">std::shared_ptr&lt; T &gt;</text>
</a>
</g>
</g>
<!-- Node10&#45;&gt;Node16 -->
<g id="edge19_Node000016_Node000010" class="edge">
<title>Node10&#45;&gt;Node16</title>
<g id="a_edge19_Node000016_Node000010"><a xlink:title=" ">
<path fill="none" stroke="#9a32cd" stroke-dasharray="5,2" d="M36.24,-239.51C39.7,-241.46 43.35,-243.2 47,-244.45 118.18,-268.71 205.49,-272.54 261.9,-271.93"/>
<polygon fill="#9a32cd" stroke="#9a32cd" points="37.99,-236.48 27.67,-234.09 34.25,-242.39 37.99,-236.48"/>
</a>
</g>
<text text-anchor="start" x="50" y="-253.95" font-family="Helvetica,sans-Serif" font-size="10.00" fill="grey">ptr</text>
</g>
<!-- Node11 -->
<g id="Node000011" class="node">
<title>Node11</title>
<g id="a_Node000011"><a xlink:title=" ">
<polygon fill="white" stroke="#666666" points="1122,-233.45 982,-233.45 982,-203.45 1122,-203.45 1122,-233.45"/>
<text text-anchor="start" x="990" y="-221.45" font-family="Helvetica,sans-Serif" font-size="10.00">std::shared_ptr&lt; kynema</text>
<text text-anchor="middle" x="1052" y="-210.45" font-family="Helvetica,sans-Serif" font-size="10.00">_sgf::FieldInfo &gt;</text>
</a>
</g>
</g>
<!-- Node11&#45;&gt;Node3 -->
<g id="edge11_Node000003_Node000011" class="edge">
<title>Node11&#45;&gt;Node3</title>
<g id="a_edge11_Node000003_Node000011"><a xlink:title=" ">
<path fill="none" stroke="#9a32cd" stroke-dasharray="5,2" d="M1126.68,-200.58C1145.4,-195.05 1165.24,-188.3 1183,-180.45 1191.57,-176.65 1192.35,-173.06 1201,-169.45 1210.02,-165.68 1219.96,-162.54 1229.62,-159.97"/>
<polygon fill="#9a32cd" stroke="#9a32cd" points="1125.66,-197.23 1117.01,-203.36 1127.59,-203.96 1125.66,-197.23"/>
</a>
</g>
<text text-anchor="start" x="1144.5" y="-200.95" font-family="Helvetica,sans-Serif" font-size="10.00" fill="grey">m_info</text>
</g>
<!-- Node12&#45;&gt;Node11 -->
<g id="edge12_Node000011_Node000012" class="edge">
<title>Node12&#45;&gt;Node11</title>
<g id="a_edge12_Node000011_Node000012"><a xlink:title=" ">
<path fill="none" stroke="#9a32cd" stroke-dasharray="5,2" d="M877.26,-218.45C910.18,-218.45 949.21,-218.45 981.92,-218.45"/>
<polygon fill="#9a32cd" stroke="#9a32cd" points="877.25,-214.95 867.25,-218.45 877.25,-221.95 877.25,-214.95"/>
</a>
</g>
<text text-anchor="start" x="917.5" y="-223.95" font-family="Helvetica,sans-Serif" font-size="10.00" fill="grey">ptr</text>
</g>
<!-- Node13 -->
<g id="Node000013" class="node">
<title>Node13</title>
<g id="a_Node000013"><a xlink:title=" ">
<polygon fill="white" stroke="#666666" points="572,-237.45 412,-237.45 412,-207.45 572,-207.45 572,-237.45"/>
<text text-anchor="start" x="420" y="-225.45" font-family="Helvetica,sans-Serif" font-size="10.00">std::unique_ptr&lt; kynema</text>
<text text-anchor="middle" x="492" y="-214.45" font-family="Helvetica,sans-Serif" font-size="10.00">_sgf::FieldFillPatchOpsBase &gt;</text>
</a>
</g>
</g>
<!-- Node13&#45;&gt;Node12 -->
<g id="edge14_Node000012_Node000013" class="edge">
<title>Node13&#45;&gt;Node12</title>
<g id="a_edge14_Node000012_Node000013"><a xlink:title=" ">
<path fill="none" stroke="#9a32cd" stroke-dasharray="5,2" d="M582.19,-221.3C633.95,-220.64 697.79,-219.82 743.76,-219.23"/>
<polygon fill="#9a32cd" stroke="#9a32cd" points="581.96,-217.8 572.01,-221.43 582.05,-224.8 581.96,-217.8"/>
</a>
</g>
<text text-anchor="start" x="622" y="-225.95" font-family="Helvetica,sans-Serif" font-size="10.00" fill="grey">m_fillpatch_op</text>
</g>
<!-- Node14 -->
<g id="Node000014" class="node">
<title>Node14</title>
<g id="a_Node000014"><a xlink:href="classkynema__sgf_1_1_field_fill_patch_ops_base.html" target="_top" xlink:title=" ">
<polygon fill="white" stroke="#666666" points="230,-196.45 85,-196.45 85,-166.45 230,-166.45 230,-196.45"/>
<text text-anchor="start" x="93" y="-184.45" font-family="Helvetica,sans-Serif" font-size="10.00">kynema_sgf::FieldFillPatch</text>
<text text-anchor="middle" x="157.5" y="-173.45" font-family="Helvetica,sans-Serif" font-size="10.00">OpsBase</text>
</a>
</g>
</g>
<!-- Node14&#45;&gt;Node13 -->
<g id="edge15_Node000013_Node000014" class="edge">
<title>Node14&#45;&gt;Node13</title>
<g id="a_edge15_Node000013_Node000014"><a xlink:title=" ">
<path fill="none" stroke="#9a32cd" stroke-dasharray="5,2" d="M240.14,-182.67C285.67,-184.35 343.26,-188.11 394,-196.45 410,-199.07 427.18,-203.22 442.56,-207.44"/>
<polygon fill="#9a32cd" stroke="#9a32cd" points="240.14,-179.17 230.02,-182.32 239.9,-186.16 240.14,-179.17"/>
</a>
</g>
<text text-anchor="start" x="314" y="-201.95" font-family="Helvetica,sans-Serif" font-size="10.00" fill="grey">ptr</text>
</g>
<!-- Node15&#45;&gt;Node13 -->
<g id="edge16_Node000013_Node000015" class="edge">
<title>Node15&#45;&gt;Node13</title>
<g id="a_edge16_Node000013_Node000015"><a xlink:title=" ">
<path fill="none" stroke="orange" stroke-dasharray="5,2" d="M227.05,-220.22C234.13,-219.91 241.21,-219.64 248,-219.45 312.86,-217.64 329.12,-218.44 394,-219.45 399.81,-219.54 405.82,-219.66 411.86,-219.8"/>
<polygon fill="orange" stroke="orange" points="226.55,-216.74 216.73,-220.72 226.89,-223.74 226.55,-216.74"/>
</a>
</g>
<text text-anchor="start" x="251" y="-240.45" font-family="Helvetica,sans-Serif" font-size="10.00" fill="grey">&lt; kynema_sgf::FieldFillPatch</text>
<text text-anchor="start" x="251" y="-225.45" font-family="Helvetica,sans-Serif" font-size="10.00" fill="grey">  OpsBase &gt;</text>
</g>
<!-- Node16&#45;&gt;Node11 -->
<g id="edge18_Node000011_Node000016" class="edge">
<title>Node16&#45;&gt;Node11</title>
<g id="a_edge18_Node000011_Node000016"><a xlink:title=" ">
<path fill="none" stroke="orange" stroke-dasharray="5,2" d="M390.65,-270.5C508.53,-271.36 756.79,-269.02 964,-239.45 974.31,-237.97 985.18,-235.84 995.61,-233.48"/>
<polygon fill="orange" stroke="orange" points="390.36,-267 380.33,-270.41 390.3,-274 390.36,-267"/>
</a>
</g>
<text text-anchor="start" x="593" y="-272.95" font-family="Helvetica,sans-Serif" font-size="10.00" fill="grey">&lt; kynema_sgf::FieldInfo &gt;</text>
</g>
<!-- Node17&#45;&gt;Node1 -->
<g id="edge20_Node000001_Node000017" class="edge">
<title>Node17&#45;&gt;Node1</title>
<g id="a_edge20_Node000001_Node000017"><a xlink:title=" ">
<path fill="none" stroke="#9a32cd" stroke-dasharray="5,2" d="M1330.58,-106.33C1358.24,-112.93 1393.06,-121.41 1424,-129.45 1431.29,-131.34 1438.95,-133.39 1446.49,-135.44"/>
<polygon fill="#9a32cd" stroke="#9a32cd" points="1331.28,-102.9 1320.74,-103.99 1329.66,-109.71 1331.28,-102.9"/>
</a>
</g>
<text text-anchor="start" x="1378.5" y="-134.95" font-family="Helvetica,sans-Serif" font-size="10.00" fill="grey">m_blank</text>
</g>
</g>
</svg>
