<?xml version="1.0" encoding="UTF-8" standalone="no"?>
<!DOCTYPE svg PUBLIC "-//W3C//DTD SVG 1.1//EN"
 "http://www.w3.org/Graphics/SVG/1.1/DTD/svg11.dtd">
<!-- Generated by graphviz version 2.43.0 (0)
 -->
<!-- Title: kynema_sgf::actuator::ActuatorType Pages: 1 -->
<svg width="921pt" height="355pt"
 viewBox="0.00 0.00 921.00 355.00" xmlns="http://www.w3.org/2000/svg" xmlns:xlink="http://www.w3.org/1999/xlink">
<g id="graph0" class="graph" transform="scale(1 1) rotate(0) translate(4 351)">
<title>kynema_sgf::actuator::ActuatorType</title>
<!-- Node1 -->
<g id="Node000001" class="node">
<title>Node1</title>
<g id="a_Node000001"><a xlink:title=" ">
<polygon fill="#999999" stroke="#666666" points="122,-264 0,-264 0,-234 122,-234 122,-264"/>
<text text-anchor="start" x="8" y="-252" font-family="Helvetica,sans-Serif" font-size="10.00">kynema_sgf::actuator</text>
<text text-anchor="middle" x="61" y="-241" font-family="Helvetica,sans-Serif" font-size="10.00">::ActuatorType</text>
</a>
</g>
</g>
<!-- Node2 -->
<g id="Node000002" class="node">
<title>Node2</title>
<g id="a_Node000002"><a xlink:href="structkynema__sgf_1_1actuator_1_1_actuator_sector.html" target="_top" xlink:title=" ">
<polygon fill="white" stroke="#666666" points="281,-341 159,-341 159,-311 281,-311 281,-341"/>
<text text-anchor="start" x="167" y="-329" font-family="Helvetica,sans-Serif" font-size="10.00">kynema_sgf::actuator</text>
<text text-anchor="middle" x="220" y="-318" font-family="Helvetica,sans-Serif" font-size="10.00">::ActuatorSector</text>
</a>
</g>
</g>
<!-- Node1&#45;&gt;Node2 -->
<g id="edge1_Node000001_Node000002" class="edge">
<title>Node1&#45;&gt;Node2</title>
<g id="a_edge1_Node000001_Node000002"><a xlink:title=" ">
<path fill="none" stroke="#63b8ff" d="M96.35,-269.08C114.67,-279.45 137.76,-291.99 159,-302 165.5,-305.06 172.49,-308.09 179.34,-310.91"/>
<polygon fill="#63b8ff" stroke="#63b8ff" points="97.92,-265.94 87.5,-264.03 94.45,-272.02 97.92,-265.94"/>
</a>
</g>
</g>
<!-- Node3 -->
<g id="Node000003" class="node">
<title>Node3</title>
<g id="a_Node000003"><a xlink:href="structkynema__sgf_1_1actuator_1_1_disk_type.html" target="_top" xlink:title=" ">
<polygon fill="white" stroke="#666666" points="281,-293 159,-293 159,-263 281,-263 281,-293"/>
<text text-anchor="start" x="167" y="-281" font-family="Helvetica,sans-Serif" font-size="10.00">kynema_sgf::actuator</text>
<text text-anchor="middle" x="220" y="-270" font-family="Helvetica,sans-Serif" font-size="10.00">::DiskType</text>
</a>
</g>
</g>
<!-- Node1&#45;&gt;Node3 -->
<g id="edge2_Node000001_Node000003" class="edge">
<title>Node1&#45;&gt;Node3</title>
<g id="a_edge2_Node000001_Node000003"><a xlink:title=" ">
<path fill="none" stroke="#63b8ff" d="M132.22,-261.97C141.13,-263.62 150.18,-265.29 158.91,-266.9"/>
<polygon fill="#63b8ff" stroke="#63b8ff" points="132.72,-258.5 122.25,-260.13 131.45,-265.39 132.72,-258.5"/>
</a>
</g>
</g>
<!-- Node6 -->
<g id="Node000006" class="node">
<title>Node6</title>
<g id="a_Node000006"><a xlink:href="structkynema__sgf_1_1actuator_1_1_turbine_type.html" target="_top" xlink:title=" ">
<polygon fill="white" stroke="#666666" points="281,-223 159,-223 159,-193 281,-193 281,-223"/>
<text text-anchor="start" x="167" y="-211" font-family="Helvetica,sans-Serif" font-size="10.00">kynema_sgf::actuator</text>
<text text-anchor="middle" x="220" y="-200" font-family="Helvetica,sans-Serif" font-size="10.00">::TurbineType</text>
</a>
</g>
</g>
<!-- Node1&#45;&gt;Node6 -->
<g id="edge5_Node000001_Node000006" class="edge">
<title>Node1&#45;&gt;Node6</title>
<g id="a_edge5_Node000001_Node000006"><a xlink:title=" ">
<path fill="none" stroke="#63b8ff" d="M129.3,-231.43C140,-228.63 150.99,-225.76 161.44,-223.03"/>
<polygon fill="#63b8ff" stroke="#63b8ff" points="128.36,-228.05 119.57,-233.97 130.13,-234.83 128.36,-228.05"/>
</a>
</g>
</g>
<!-- Node10 -->
<g id="Node000010" class="node">
<title>Node10</title>
<g id="a_Node000010"><a xlink:href="structkynema__sgf_1_1actuator_1_1_wing_type.html" target="_top" xlink:title=" ">
<polygon fill="white" stroke="#666666" points="281,-78 159,-78 159,-48 281,-48 281,-78"/>
<text text-anchor="start" x="167" y="-66" font-family="Helvetica,sans-Serif" font-size="10.00">kynema_sgf::actuator</text>
<text text-anchor="middle" x="220" y="-55" font-family="Helvetica,sans-Serif" font-size="10.00">::WingType</text>
</a>
</g>
</g>
<!-- Node1&#45;&gt;Node10 -->
<g id="edge11_Node000001_Node000010" class="edge">
<title>Node1&#45;&gt;Node10</title>
<g id="a_edge11_Node000001_Node000010"><a xlink:title=" ">
<path fill="none" stroke="#63b8ff" d="M81.68,-225.69C114.33,-187.01 178.79,-110.63 206.19,-78.17"/>
<polygon fill="#63b8ff" stroke="#63b8ff" points="78.62,-223.88 74.85,-233.78 83.97,-228.39 78.62,-223.88"/>
</a>
</g>
</g>
<!-- Node4 -->
<g id="Node000004" class="node">
<title>Node4</title>
<g id="a_Node000004"><a xlink:href="structkynema__sgf_1_1actuator_1_1_joukowsky.html" target="_top" xlink:title=" ">
<polygon fill="white" stroke="#666666" points="461.5,-299 339.5,-299 339.5,-269 461.5,-269 461.5,-299"/>
<text text-anchor="start" x="347.5" y="-287" font-family="Helvetica,sans-Serif" font-size="10.00">kynema_sgf::actuator</text>
<text text-anchor="middle" x="400.5" y="-276" font-family="Helvetica,sans-Serif" font-size="10.00">::Joukowsky</text>
</a>
</g>
</g>
<!-- Node3&#45;&gt;Node4 -->
<g id="edge3_Node000003_Node000004" class="edge">
<title>Node3&#45;&gt;Node4</title>
<g id="a_edge3_Node000003_Node000004"><a xlink:title=" ">
<path fill="none" stroke="#63b8ff" d="M291.68,-280.38C307.49,-280.91 324.1,-281.47 339.43,-281.98"/>
<polygon fill="#63b8ff" stroke="#63b8ff" points="291.54,-276.87 281.43,-280.03 291.31,-283.87 291.54,-276.87"/>
</a>
</g>
</g>
<!-- Node5 -->
<g id="Node000005" class="node">
<title>Node5</title>
<g id="a_Node000005"><a xlink:href="structkynema__sgf_1_1actuator_1_1_uniform_ct.html" target="_top" xlink:title=" ">
<polygon fill="white" stroke="#666666" points="461.5,-347 339.5,-347 339.5,-317 461.5,-317 461.5,-347"/>
<text text-anchor="start" x="347.5" y="-335" font-family="Helvetica,sans-Serif" font-size="10.00">kynema_sgf::actuator</text>
<text text-anchor="middle" x="400.5" y="-324" font-family="Helvetica,sans-Serif" font-size="10.00">::UniformCt</text>
</a>
</g>
</g>
<!-- Node3&#45;&gt;Node5 -->
<g id="edge4_Node000003_Node000005" class="edge">
<title>Node3&#45;&gt;Node5</title>
<g id="a_edge4_Node000003_Node000005"><a xlink:title=" ">
<path fill="none" stroke="#63b8ff" d="M278.97,-296.07C291.81,-300.03 305.36,-304.18 318,-308 327.74,-310.94 338.16,-314.04 348.17,-317"/>
<polygon fill="#63b8ff" stroke="#63b8ff" points="279.9,-292.69 269.31,-293.08 277.83,-299.38 279.9,-292.69"/>
</a>
</g>
</g>
<!-- Node7 -->
<g id="Node000007" class="node">
<title>Node7</title>
<g id="a_Node000007"><a xlink:href="structkynema__sgf_1_1actuator_1_1_turbine_from_ext_solver.html" target="_top" xlink:title=" ">
<polygon fill="white" stroke="#666666" points="892,-232 735,-232 735,-180 892,-180 892,-232"/>
<text text-anchor="start" x="743" y="-220" font-family="Helvetica,sans-Serif" font-size="10.00">kynema_sgf::actuator</text>
<text text-anchor="start" x="743" y="-209" font-family="Helvetica,sans-Serif" font-size="10.00">::TurbineFromExtSolver</text>
<text text-anchor="start" x="743" y="-198" font-family="Helvetica,sans-Serif" font-size="10.00">&lt;::ext_turb::FastTurbine,</text>
<text text-anchor="middle" x="813.5" y="-187" font-family="Helvetica,sans-Serif" font-size="10.00"> ::ext_turb::FastSolverData &gt;</text>
</a>
</g>
</g>
<!-- Node6&#45;&gt;Node7 -->
<g id="edge6_Node000006_Node000007" class="edge">
<title>Node6&#45;&gt;Node7</title>
<g id="a_edge6_Node000006_Node000007"><a xlink:title=" ">
<path fill="none" stroke="#63b8ff" d="M291.23,-219.12C300.22,-220.25 309.32,-221.26 318,-222 485.4,-236.32 528.65,-241.96 696,-227 708.59,-225.87 721.85,-224.08 734.74,-222"/>
<polygon fill="#63b8ff" stroke="#63b8ff" points="291.53,-215.63 281.16,-217.79 290.61,-222.57 291.53,-215.63"/>
</a>
</g>
</g>
<!-- Node8 -->
<g id="Node000008" class="node">
<title>Node8</title>
<g id="a_Node000008"><a xlink:href="structkynema__sgf_1_1actuator_1_1_turbine_from_ext_solver.html" target="_top" xlink:title=" ">
<polygon fill="white" stroke="#666666" points="913,-153 714,-153 714,-101 913,-101 913,-153"/>
<text text-anchor="start" x="722" y="-141" font-family="Helvetica,sans-Serif" font-size="10.00">kynema_sgf::actuator</text>
<text text-anchor="start" x="722" y="-130" font-family="Helvetica,sans-Serif" font-size="10.00">::TurbineFromExtSolver</text>
<text text-anchor="start" x="722" y="-119" font-family="Helvetica,sans-Serif" font-size="10.00">&lt; ::ext_turb::KynemaFMBTurbine,</text>
<text text-anchor="middle" x="813.5" y="-108" font-family="Helvetica,sans-Serif" font-size="10.00"> ::ext_turb::KynemaFMBSolverData &gt;</text>
</a>
</g>
</g>
<!-- Node6&#45;&gt;Node8 -->
<g id="edge7_Node000006_Node000008" class="edge">
<title>Node6&#45;&gt;Node8</title>
<g id="a_edge7_Node000006_Node000008"><a xlink:title=" ">
<path fill="none" stroke="#63b8ff" d="M258.53,-188.13C276.19,-179.43 297.78,-169.69 318,-163 478.3,-109.96 527.16,-123.55 696,-125 701.87,-125.05 707.9,-125.11 713.98,-125.19"/>
<polygon fill="#63b8ff" stroke="#63b8ff" points="256.53,-185.22 249.16,-192.83 259.67,-191.48 256.53,-185.22"/>
</a>
</g>
</g>
<!-- Node9 -->
<g id="Node000009" class="node">
<title>Node9</title>
<g id="a_Node000009"><a xlink:href="structkynema__sgf_1_1actuator_1_1_turbine_from_ext_solver.html" target="_top" xlink:title=" ">
<polygon fill="white" stroke="#666666" points="483,-212.5 318,-212.5 318,-171.5 483,-171.5 483,-212.5"/>
<text text-anchor="start" x="326" y="-200.5" font-family="Helvetica,sans-Serif" font-size="10.00">kynema_sgf::actuator</text>
<text text-anchor="start" x="326" y="-189.5" font-family="Helvetica,sans-Serif" font-size="10.00">::TurbineFromExtSolver</text>
<text text-anchor="middle" x="400.5" y="-178.5" font-family="Helvetica,sans-Serif" font-size="10.00">&lt; SolverTurbine, SolverData &gt;</text>
</a>
</g>
</g>
<!-- Node6&#45;&gt;Node9 -->
<g id="edge8_Node000006_Node000009" class="edge">
<title>Node6&#45;&gt;Node9</title>
<g id="a_edge8_Node000006_Node000009"><a xlink:title=" ">
<path fill="none" stroke="#63b8ff" d="M291.49,-201.68C300.17,-200.9 309.1,-200.1 317.92,-199.31"/>
<polygon fill="#63b8ff" stroke="#63b8ff" points="291.08,-198.2 281.43,-202.58 291.7,-205.18 291.08,-198.2"/>
</a>
</g>
</g>
<!-- Node9&#45;&gt;Node7 -->
<g id="edge9_Node000009_Node000007" class="edge">
<title>Node9&#45;&gt;Node7</title>
<g id="a_edge9_Node000009_Node000007"><a xlink:title=" ">
<path fill="none" stroke="orange" stroke-dasharray="5,2" d="M493.39,-190.96C551.51,-190.79 628.2,-191.46 696,-195 708.58,-195.66 721.9,-196.64 734.86,-197.75"/>
<polygon fill="orange" stroke="orange" points="493.11,-187.46 483.12,-191 493.14,-194.46 493.11,-187.46"/>
</a>
</g>
<text text-anchor="start" x="525.5" y="-216" font-family="Helvetica,sans-Serif" font-size="10.00" fill="grey">&lt;::ext_turb::FastTurbine,</text>
<text text-anchor="start" x="525.5" y="-201" font-family="Helvetica,sans-Serif" font-size="10.00" fill="grey">   ::ext_turb::FastSolverData &gt;</text>
</g>
<!-- Node9&#45;&gt;Node8 -->
<g id="edge10_Node000009_Node000008" class="edge">
<title>Node9&#45;&gt;Node8</title>
<g id="a_edge10_Node000009_Node000008"><a xlink:title=" ">
<path fill="none" stroke="orange" stroke-dasharray="5,2" d="M456.82,-167.75C470.99,-162.42 486.36,-157.36 501,-154 571.1,-137.91 652.08,-131.24 713.9,-128.55"/>
<polygon fill="orange" stroke="orange" points="455.29,-164.59 447.24,-171.47 457.83,-171.12 455.29,-164.59"/>
</a>
</g>
<text text-anchor="start" x="504.5" y="-175" font-family="Helvetica,sans-Serif" font-size="10.00" fill="grey">&lt; ::ext_turb::KynemaFMBTurbine,</text>
<text text-anchor="start" x="504.5" y="-160" font-family="Helvetica,sans-Serif" font-size="10.00" fill="grey">   ::ext_turb::KynemaFMBSolverData &gt;</text>
</g>
<!-- Node11 -->
<g id="Node000011" class="node">
<title>Node11</title>
<g id="a_Node000011"><a xlink:href="structkynema__sgf_1_1actuator_1_1_fixed_wing.html" target="_top" xlink:title=" ">
<polygon fill="white" stroke="#666666" points="461.5,-30 339.5,-30 339.5,0 461.5,0 461.5,-30"/>
<text text-anchor="start" x="347.5" y="-18" font-family="Helvetica,sans-Serif" font-size="10.00">kynema_sgf::actuator</text>
<text text-anchor="middle" x="400.5" y="-7" font-family="Helvetica,sans-Serif" font-size="10.00">::FixedWing</text>
</a>
</g>
</g>
<!-- Node10&#45;&gt;Node11 -->
<g id="edge12_Node000010_Node000011" class="edge">
<title>Node10&#45;&gt;Node11</title>
<g id="a_edge12_Node000010_Node000011"><a xlink:title=" ">
<path fill="none" stroke="#63b8ff" d="M286.89,-45.28C305.56,-40.26 325.7,-34.85 343.71,-30"/>
<polygon fill="#63b8ff" stroke="#63b8ff" points="285.74,-41.97 276.99,-47.94 287.55,-48.73 285.74,-41.97"/>
</a>
</g>
</g>
<!-- Node12 -->
<g id="Node000012" class="node">
<title>Node12</title>
<g id="a_Node000012"><a xlink:href="structkynema__sgf_1_1actuator_1_1_flat_plate.html" target="_top" xlink:title=" ">
<polygon fill="white" stroke="#666666" points="461.5,-78 339.5,-78 339.5,-48 461.5,-48 461.5,-78"/>
<text text-anchor="start" x="347.5" y="-66" font-family="Helvetica,sans-Serif" font-size="10.00">kynema_sgf::actuator</text>
<text text-anchor="middle" x="400.5" y="-55" font-family="Helvetica,sans-Serif" font-size="10.00">::FlatPlate</text>
</a>
</g>
</g>
<!-- Node10&#45;&gt;Node12 -->
<g id="edge13_Node000010_Node000012" class="edge">
<title>Node10&#45;&gt;Node12</title>
<g id="a_edge13_Node000010_Node000012"><a xlink:title=" ">
<path fill="none" stroke="#63b8ff" d="M291.68,-63C307.49,-63 324.1,-63 339.43,-63"/>
<polygon fill="#63b8ff" stroke="#63b8ff" points="291.43,-59.5 281.43,-63 291.43,-66.5 291.43,-59.5"/>
</a>
</g>
</g>
</g>
</svg>
