<?xml version="1.0" encoding="UTF-8" standalone="no"?>
<!DOCTYPE svg PUBLIC "-//W3C//DTD SVG 1.1//EN"
 "http://www.w3.org/Graphics/SVG/1.1/DTD/svg11.dtd">
<!-- Generated by graphviz version 2.43.0 (0)
 -->
<!-- Title: kynema_sgf::pde::DiffusionOp&lt; TKE, Scheme &gt; Pages: 1 -->
<!--zoomable 415 -->

<svg id="main" version="1.1" xmlns="http://www.w3.org/2000/svg" xmlns:xlink="http://www.w3.org/1999/xlink" xml:space="preserve" onload="init(evt)">

<style type="text/css"><![CDATA[
.node, .edge {opacity: 0.7;}
.node.selected, .edge.selected {opacity: 1;}
.edge:hover path { stroke: red; }
.edge:hover polygon { stroke: red; fill: red; }
]]></style>

<defs>
  <circle id="rim" cx="0" cy="0" r="7"/>
  <circle id="rim2" cx="0" cy="0" r="3.5"/>
  <g id="zoomPlus">
    <use xlink:href="#rim" fill="#404040"><set attributeName="fill" to="#808080" begin="zoomplus.mouseover" end="zoomplus.mouseout"/></use>
    <path d="M-4,0h8M0,-4v8" fill="none" stroke="white" stroke-width="1.5" pointer-events="none"/>
  </g>
  <g id="zoomMin">
    <use xlink:href="#rim" fill="#404040"><set attributeName="fill" to="#808080" begin="zoomminus.mouseover" end="zoomminus.mouseout"/></use>
    <path d="M-4,0h8" fill="none" stroke="white" stroke-width="1.5" pointer-events="none"/>
  </g>
  <g id="arrowUp" transform="translate(30 24)">
    <use xlink:href="#rim"/>
    <path pointer-events="none" fill="none" stroke="white" stroke-width="1.5" d="M0,-3.0v7 M-2.5,-0.5L0,-3.0L2.5,-0.5"/>
  </g>
  <g id="arrowRight" transform="rotate(90) translate(36 -43)">
    <use xlink:href="#rim"/>
    <path pointer-events="none" fill="none" stroke="white" stroke-width="1.5" d="M0,-3.0v7 M-2.5,-0.5L0,-3.0L2.5,-0.5"/>
  </g>
  <g id="arrowDown" transform="rotate(180) translate(-30 -48)">
    <use xlink:href="#rim"/>
    <path pointer-events="none" fill="none" stroke="white" stroke-width="1.5" d="M0,-3.0v7 M-2.5,-0.5L0,-3.0L2.5,-0.5"/>
  </g>
  <g id="arrowLeft" transform="rotate(270) translate(-36 17)">
    <use xlink:href="#rim"/>
    <path pointer-events="none" fill="none" stroke="white" stroke-width="1.5" d="M0,-3.0v7 M-2.5,-0.5L0,-3.0L2.5,-0.5"/>
  </g>
  <g id="resetDef">
    <use xlink:href="#rim2" fill="#404040"><set attributeName="fill" to="#808080" begin="reset.mouseover" end="reset.mouseout"/></use>
  </g>
</defs>
<script type="application/ecmascript">
var viewWidth = 2462;
var viewHeight = 415;
var sectionId = 'dynsection-1';
</script>
<script type="application/ecmascript" xlink:href="svg.min.js"/>
<svg id="graph" class="graph">
<g id="viewport">
<title>kynema_sgf::pde::DiffusionOp&lt; TKE, Scheme &gt;</title>
<!-- Node1 -->
<g id="Node000001" class="node">
<title>Node1</title>
<g id="a_Node000001"><a xlink:title=" ">
<polygon fill="#999999" stroke="#666666" points="2454,-74 2305,-74 2305,-44 2454,-44 2454,-74"/>
<text text-anchor="start" x="2313" y="-62" font-family="Helvetica,sans-Serif" font-size="10.00">kynema_sgf::pde::Diffusion</text>
<text text-anchor="middle" x="2379.5" y="-51" font-family="Helvetica,sans-Serif" font-size="10.00">Op&lt; TKE, Scheme &gt;</text>
</a>
</g>
</g>
<!-- Node2 -->
<g id="Node000002" class="node">
<title>Node2</title>
<g id="a_Node000002"><a xlink:href="classkynema__sgf_1_1pde_1_1_diff_solver_iface.html" target="_top" xlink:title=" ">
<polygon fill="white" stroke="#666666" points="2166,-211 2013,-211 2013,-181 2166,-181 2166,-211"/>
<text text-anchor="start" x="2021" y="-199" font-family="Helvetica,sans-Serif" font-size="10.00">kynema_sgf::pde::DiffSolver</text>
<text text-anchor="middle" x="2089.5" y="-188" font-family="Helvetica,sans-Serif" font-size="10.00">Iface&lt; TKE::MLDiffOp &gt;</text>
</a>
</g>
</g>
<!-- Node2&#45;&gt;Node1 -->
<g id="edge1_Node000001_Node000002" class="edge">
<title>Node2&#45;&gt;Node1</title>
<g id="a_edge1_Node000001_Node000002"><a xlink:title=" ">
<path fill="none" stroke="#63b8ff" d="M2131.38,-176.56C2189.37,-148.97 2294.31,-99.05 2346.8,-74.08"/>
<polygon fill="#63b8ff" stroke="#63b8ff" points="2129.67,-173.49 2122.14,-180.95 2132.68,-179.81 2129.67,-173.49"/>
</a>
</g>
</g>
<!-- Node3 -->
<g id="Node000003" class="node">
<title>Node3</title>
<g id="a_Node000003"><a xlink:href="structkynema__sgf_1_1pde_1_1_p_d_e_fields.html" target="_top" xlink:title=" ">
<polygon fill="white" stroke="#666666" points="1613,-223.5 1460,-223.5 1460,-204.5 1613,-204.5 1613,-223.5"/>
<text text-anchor="middle" x="1536.5" y="-211.5" font-family="Helvetica,sans-Serif" font-size="10.00">kynema_sgf::pde::PDEFields</text>
</a>
</g>
</g>
<!-- Node3&#45;&gt;Node2 -->
<g id="edge2_Node000002_Node000003" class="edge">
<title>Node3&#45;&gt;Node2</title>
<g id="a_edge2_Node000002_Node000003"><a xlink:title=" ">
<path fill="none" stroke="#9a32cd" stroke-dasharray="5,2" d="M1623.32,-212.98C1713.43,-211.66 1859.23,-208.8 1985,-203 1994,-202.59 2003.43,-202.07 2012.78,-201.5"/>
<polygon fill="#9a32cd" stroke="#9a32cd" points="1623.1,-209.49 1613.15,-213.13 1623.2,-216.49 1623.1,-209.49"/>
</a>
</g>
<text text-anchor="start" x="1761.5" y="-216.5" font-family="Helvetica,sans-Serif" font-size="10.00" fill="grey">m_pdefields</text>
</g>
<!-- Node20 -->
<g id="Node000020" class="node">
<title>Node20</title>
<g id="a_Node000020"><a xlink:href="classkynema__sgf_1_1pde_1_1_diff_solver_iface.html" target="_top" xlink:title=" ">
<polygon fill="white" stroke="#666666" points="1868,-181 1715,-181 1715,-151 1868,-151 1868,-181"/>
<text text-anchor="start" x="1723" y="-169" font-family="Helvetica,sans-Serif" font-size="10.00">kynema_sgf::pde::DiffSolver</text>
<text text-anchor="middle" x="1791.5" y="-158" font-family="Helvetica,sans-Serif" font-size="10.00">Iface&lt; LinOp &gt;</text>
</a>
</g>
</g>
<!-- Node3&#45;&gt;Node20 -->
<g id="edge28_Node000020_Node000003" class="edge">
<title>Node3&#45;&gt;Node20</title>
<g id="a_edge28_Node000020_Node000003"><a xlink:title=" ">
<path fill="none" stroke="#9a32cd" stroke-dasharray="5,2" d="M1574.58,-201.35C1591.6,-195.94 1612.15,-189.98 1631,-186 1658.03,-180.3 1688.01,-176.02 1714.61,-172.91"/>
<polygon fill="#9a32cd" stroke="#9a32cd" points="1573.45,-198.04 1565.01,-204.45 1575.6,-204.7 1573.45,-198.04"/>
</a>
</g>
<text text-anchor="start" x="1634" y="-191.5" font-family="Helvetica,sans-Serif" font-size="10.00" fill="grey">m_pdefields</text>
</g>
<!-- Node4 -->
<g id="Node000004" class="node">
<title>Node4</title>
<g id="a_Node000004"><a xlink:href="classkynema__sgf_1_1_field_repo.html" target="_top" xlink:title=" ">
<polygon fill="white" stroke="#666666" points="1177.5,-312.5 1048.5,-312.5 1048.5,-293.5 1177.5,-293.5 1177.5,-312.5"/>
<text text-anchor="middle" x="1113" y="-300.5" font-family="Helvetica,sans-Serif" font-size="10.00">kynema_sgf::FieldRepo</text>
</a>
</g>
</g>
<!-- Node4&#45;&gt;Node3 -->
<g id="edge3_Node000003_Node000004" class="edge">
<title>Node4&#45;&gt;Node3</title>
<g id="a_edge3_Node000003_Node000004"><a xlink:title=" ">
<path fill="none" stroke="#9a32cd" stroke-dasharray="5,2" d="M1187.81,-309.53C1255.99,-312.88 1358.97,-311.03 1442,-280 1476.25,-267.2 1509.57,-238.7 1525.6,-223.69"/>
<polygon fill="#9a32cd" stroke="#9a32cd" points="1187.77,-306.02 1177.59,-308.98 1187.39,-313.01 1187.77,-306.02"/>
</a>
</g>
<text text-anchor="start" x="1303" y="-315.5" font-family="Helvetica,sans-Serif" font-size="10.00" fill="grey">repo</text>
</g>
<!-- Node11 -->
<g id="Node000011" class="node">
<title>Node11</title>
<g id="a_Node000011"><a xlink:href="classkynema__sgf_1_1_field.html" target="_top" xlink:title=" ">
<polygon fill="white" stroke="#666666" points="1366,-207.5 1262,-207.5 1262,-188.5 1366,-188.5 1366,-207.5"/>
<text text-anchor="middle" x="1314" y="-195.5" font-family="Helvetica,sans-Serif" font-size="10.00">kynema_sgf::Field</text>
</a>
</g>
</g>
<!-- Node4&#45;&gt;Node11 -->
<g id="edge11_Node000011_Node000004" class="edge">
<title>Node4&#45;&gt;Node11</title>
<g id="a_edge11_Node000011_Node000004"><a xlink:title=" ">
<path fill="none" stroke="#9a32cd" stroke-dasharray="5,2" d="M1169,-290.84C1193.03,-284.14 1220.93,-274.4 1244,-261 1268.97,-246.5 1292.57,-221.7 1304.64,-207.94"/>
<polygon fill="#9a32cd" stroke="#9a32cd" points="1168.06,-287.47 1159.31,-293.44 1169.88,-294.23 1168.06,-287.47"/>
</a>
</g>
<text text-anchor="start" x="1204.5" y="-284.5" font-family="Helvetica,sans-Serif" font-size="10.00" fill="grey">m_repo</text>
</g>
<!-- Node5 -->
<g id="Node000005" class="node">
<title>Node5</title>
<g id="a_Node000005"><a xlink:title=" ">
<polygon fill="white" stroke="#666666" points="866.5,-318 744.5,-318 744.5,-288 866.5,-288 866.5,-318"/>
<text text-anchor="start" x="752.5" y="-306" font-family="Helvetica,sans-Serif" font-size="10.00">std::unordered_map</text>
<text text-anchor="middle" x="805.5" y="-295" font-family="Helvetica,sans-Serif" font-size="10.00">&lt; std::string, size_t &gt;</text>
</a>
</g>
</g>
<!-- Node5&#45;&gt;Node4 -->
<g id="edge4_Node000004_Node000005" class="edge">
<title>Node5&#45;&gt;Node4</title>
<g id="a_edge4_Node000004_Node000005"><a xlink:title=" ">
<path fill="none" stroke="#9a32cd" stroke-dasharray="5,2" d="M876.95,-303C928.66,-303 998.31,-303 1048.35,-303"/>
<polygon fill="#9a32cd" stroke="#9a32cd" points="876.86,-299.5 866.86,-303 876.86,-306.5 876.86,-299.5"/>
</a>
</g>
<text text-anchor="start" x="919" y="-324" font-family="Helvetica,sans-Serif" font-size="10.00" fill="grey">m_fid_map</text>
<text text-anchor="start" x="919" y="-309" font-family="Helvetica,sans-Serif" font-size="10.00" fill="grey">m_int_fid_map</text>
</g>
<!-- Node6 -->
<g id="Node000006" class="node">
<title>Node6</title>
<g id="a_Node000006"><a xlink:title=" ">
<polygon fill="white" stroke="#666666" points="524.5,-259.5 459.5,-259.5 459.5,-240.5 524.5,-240.5 524.5,-259.5"/>
<text text-anchor="middle" x="492" y="-247.5" font-family="Helvetica,sans-Serif" font-size="10.00">std::string</text>
</a>
</g>
</g>
<!-- Node6&#45;&gt;Node5 -->
<g id="edge5_Node000005_Node000006" class="edge">
<title>Node6&#45;&gt;Node5</title>
<g id="a_edge5_Node000005_Node000006"><a xlink:title=" ">
<path fill="none" stroke="#9a32cd" stroke-dasharray="5,2" d="M534.77,-256.07C581.48,-262.99 659.31,-274.91 726,-287 731.88,-288.07 738.01,-289.23 744.12,-290.42"/>
<polygon fill="#9a32cd" stroke="#9a32cd" points="535.14,-252.59 524.73,-254.59 534.11,-259.51 535.14,-252.59"/>
</a>
</g>
<text text-anchor="start" x="647" y="-292.5" font-family="Helvetica,sans-Serif" font-size="10.00" fill="grey">keys</text>
</g>
<!-- Node6&#45;&gt;Node11 -->
<g id="edge12_Node000011_Node000006" class="edge">
<title>Node6&#45;&gt;Node11</title>
<g id="a_edge12_Node000011_Node000006"><a xlink:title=" ">
<path fill="none" stroke="#9a32cd" stroke-dasharray="5,2" d="M534.73,-250.62C648.88,-251.76 975.69,-251.23 1244,-214 1254.96,-212.48 1266.74,-210.05 1277.42,-207.54"/>
<polygon fill="#9a32cd" stroke="#9a32cd" points="534.71,-247.12 524.67,-250.51 534.63,-254.12 534.71,-247.12"/>
</a>
</g>
<text text-anchor="start" x="934" y="-249.5" font-family="Helvetica,sans-Serif" font-size="10.00" fill="grey">m_name</text>
</g>
<!-- Node13 -->
<g id="Node000013" class="node">
<title>Node13</title>
<g id="a_Node000013"><a xlink:href="structkynema__sgf_1_1_field_info.html" target="_top" xlink:title=" ">
<polygon fill="white" stroke="#666666" points="867,-192.5 744,-192.5 744,-173.5 867,-173.5 867,-192.5"/>
<text text-anchor="middle" x="805.5" y="-180.5" font-family="Helvetica,sans-Serif" font-size="10.00">kynema_sgf::FieldInfo</text>
</a>
</g>
</g>
<!-- Node6&#45;&gt;Node13 -->
<g id="edge15_Node000013_Node000006" class="edge">
<title>Node6&#45;&gt;Node13</title>
<g id="a_edge15_Node000013_Node000006"><a xlink:title=" ">
<path fill="none" stroke="#9a32cd" stroke-dasharray="5,2" d="M529.05,-237.12C547.17,-231 569.56,-223.95 590,-219 593.85,-218.07 685.03,-202.85 747.25,-192.51"/>
<polygon fill="#9a32cd" stroke="#9a32cd" points="527.79,-233.85 519.47,-240.41 530.06,-240.47 527.79,-233.85"/>
</a>
</g>
<text text-anchor="start" x="625" y="-224.5" font-family="Helvetica,sans-Serif" font-size="10.00" fill="grey">m_basename</text>
</g>
<!-- Node18 -->
<g id="Node000018" class="node">
<title>Node18</title>
<g id="a_Node000018"><a xlink:href="structkynema__sgf_1_1_m_l_m_g_options.html" target="_top" xlink:title=" ">
<polygon fill="white" stroke="#666666" points="1611,-345.5 1462,-345.5 1462,-326.5 1611,-326.5 1611,-345.5"/>
<text text-anchor="middle" x="1536.5" y="-333.5" font-family="Helvetica,sans-Serif" font-size="10.00">kynema_sgf::MLMGOptions</text>
</a>
</g>
</g>
<!-- Node6&#45;&gt;Node18 -->
<g id="edge24_Node000018_Node000006" class="edge">
<title>Node6&#45;&gt;Node18</title>
<g id="a_edge24_Node000018_Node000006"><a xlink:title=" ">
<path fill="none" stroke="#9a32cd" stroke-dasharray="5,2" d="M524.48,-264.14C540.31,-272.49 558.88,-284.31 572,-299 584.45,-312.94 574.76,-326.18 590,-337 668.17,-392.52 708.62,-360 804.5,-360 804.5,-360 804.5,-360 1315,-360 1371.03,-360 1434.6,-352.25 1479.04,-345.55"/>
<polygon fill="#9a32cd" stroke="#9a32cd" points="526.03,-261.01 515.53,-259.63 522.88,-267.26 526.03,-261.01"/>
</a>
</g>
<text text-anchor="start" x="1057" y="-395.5" font-family="Helvetica,sans-Serif" font-size="10.00" fill="grey">m_bottom_solver_type</text>
<text text-anchor="start" x="1057" y="-380.5" font-family="Helvetica,sans-Serif" font-size="10.00" fill="grey">m_hypre_interface</text>
<text text-anchor="start" x="1057" y="-365.5" font-family="Helvetica,sans-Serif" font-size="10.00" fill="grey">m_hypre_namespace</text>
</g>
<!-- Node7 -->
<g id="Node000007" class="node">
<title>Node7</title>
<g id="a_Node000007"><a xlink:title=" ">
<polygon fill="white" stroke="#666666" points="209.5,-262 105.5,-262 105.5,-232 209.5,-232 209.5,-262"/>
<text text-anchor="start" x="113.5" y="-250" font-family="Helvetica,sans-Serif" font-size="10.00">std::basic_string&lt;</text>
<text text-anchor="middle" x="157.5" y="-239" font-family="Helvetica,sans-Serif" font-size="10.00"> Char &gt;</text>
</a>
</g>
</g>
<!-- Node7&#45;&gt;Node6 -->
<g id="edge6_Node000006_Node000007" class="edge">
<title>Node7&#45;&gt;Node6</title>
<g id="a_edge6_Node000006_Node000007"><a xlink:title=" ">
<path fill="none" stroke="#63b8ff" d="M219.85,-247.55C290.64,-248.19 404.34,-249.22 459.27,-249.71"/>
<polygon fill="#63b8ff" stroke="#63b8ff" points="219.76,-244.05 209.72,-247.46 219.69,-251.05 219.76,-244.05"/>
</a>
</g>
</g>
<!-- Node8 -->
<g id="Node000008" class="node">
<title>Node8</title>
<g id="a_Node000008"><a xlink:title=" ">
<polygon fill="white" stroke="#666666" points="549,-338 435,-338 435,-308 549,-308 549,-338"/>
<text text-anchor="start" x="443" y="-326" font-family="Helvetica,sans-Serif" font-size="10.00">std::unordered_map</text>
<text text-anchor="middle" x="492" y="-315" font-family="Helvetica,sans-Serif" font-size="10.00">&lt; K, T &gt;</text>
</a>
</g>
</g>
<!-- Node8&#45;&gt;Node5 -->
<g id="edge7_Node000005_Node000008" class="edge">
<title>Node8&#45;&gt;Node5</title>
<g id="a_edge7_Node000005_Node000008"><a xlink:title=" ">
<path fill="none" stroke="orange" stroke-dasharray="5,2" d="M559.36,-318.74C614.19,-315.22 691.35,-310.26 744.38,-306.86"/>
<polygon fill="orange" stroke="orange" points="558.8,-315.27 549.05,-319.4 559.25,-322.25 558.8,-315.27"/>
</a>
</g>
<text text-anchor="start" x="605" y="-321.5" font-family="Helvetica,sans-Serif" font-size="10.00" fill="grey">&lt; std::string, size_t &gt;</text>
</g>
<!-- Node9 -->
<g id="Node000009" class="node">
<title>Node9</title>
<g id="a_Node000009"><a xlink:title=" ">
<polygon fill="white" stroke="#666666" points="172,-352.5 143,-352.5 143,-333.5 172,-333.5 172,-352.5"/>
<text text-anchor="middle" x="157.5" y="-340.5" font-family="Helvetica,sans-Serif" font-size="10.00">K</text>
</a>
</g>
</g>
<!-- Node9&#45;&gt;Node8 -->
<g id="edge8_Node000008_Node000009" class="edge">
<title>Node9&#45;&gt;Node8</title>
<g id="a_edge8_Node000008_Node000009"><a xlink:title=" ">
<path fill="none" stroke="#9a32cd" stroke-dasharray="5,2" d="M182.38,-341.56C234.77,-338.41 361.02,-330.82 434.8,-326.38"/>
<polygon fill="#9a32cd" stroke="#9a32cd" points="182.14,-338.07 172.36,-342.17 182.56,-345.06 182.14,-338.07"/>
</a>
</g>
<text text-anchor="start" x="310" y="-342.5" font-family="Helvetica,sans-Serif" font-size="10.00" fill="grey">keys</text>
</g>
<!-- Node10 -->
<g id="Node000010" class="node">
<title>Node10</title>
<g id="a_Node000010"><a xlink:title=" ">
<polygon fill="white" stroke="#666666" points="29,-160.5 0,-160.5 0,-141.5 29,-141.5 29,-160.5"/>
<text text-anchor="middle" x="14.5" y="-148.5" font-family="Helvetica,sans-Serif" font-size="10.00">T</text>
</a>
</g>
</g>
<!-- Node10&#45;&gt;Node8 -->
<g id="edge9_Node000008_Node000010" class="edge">
<title>Node10&#45;&gt;Node8</title>
<g id="a_edge9_Node000008_Node000010"><a xlink:title=" ">
<path fill="none" stroke="#9a32cd" stroke-dasharray="5,2" d="M20.81,-170.47C29.38,-197.87 49.07,-247.12 85,-271 141.15,-308.32 337.12,-318.88 434.78,-321.85"/>
<polygon fill="#9a32cd" stroke="#9a32cd" points="24.15,-169.43 17.97,-160.82 17.44,-171.4 24.15,-169.43"/>
</a>
</g>
<text text-anchor="start" x="134.5" y="-312.5" font-family="Helvetica,sans-Serif" font-size="10.00" fill="grey">elements</text>
</g>
<!-- Node16 -->
<g id="Node000016" class="node">
<title>Node16</title>
<g id="a_Node000016"><a xlink:title=" ">
<polygon fill="white" stroke="#666666" points="216.5,-98.5 98.5,-98.5 98.5,-79.5 216.5,-79.5 216.5,-98.5"/>
<text text-anchor="middle" x="157.5" y="-86.5" font-family="Helvetica,sans-Serif" font-size="10.00">std::unique_ptr&lt; T &gt;</text>
</a>
</g>
</g>
<!-- Node10&#45;&gt;Node16 -->
<g id="edge19_Node000016_Node000010" class="edge">
<title>Node10&#45;&gt;Node16</title>
<g id="a_edge19_Node000016_Node000010"><a xlink:title=" ">
<path fill="none" stroke="#9a32cd" stroke-dasharray="5,2" d="M26.43,-132.51C31.73,-125.06 38.75,-117.05 47,-112 62.33,-102.62 80.87,-97.02 98.31,-93.68"/>
<polygon fill="#9a32cd" stroke="#9a32cd" points="23.17,-131.09 20.66,-141.39 29.04,-134.91 23.17,-131.09"/>
</a>
</g>
<text text-anchor="start" x="50" y="-117.5" font-family="Helvetica,sans-Serif" font-size="10.00" fill="grey">ptr</text>
</g>
<!-- Node17 -->
<g id="Node000017" class="node">
<title>Node17</title>
<g id="a_Node000017"><a xlink:title=" ">
<polygon fill="white" stroke="#666666" points="380,-166.5 262,-166.5 262,-147.5 380,-147.5 380,-166.5"/>
<text text-anchor="middle" x="321" y="-154.5" font-family="Helvetica,sans-Serif" font-size="10.00">std::shared_ptr&lt; T &gt;</text>
</a>
</g>
</g>
<!-- Node10&#45;&gt;Node17 -->
<g id="edge21_Node000017_Node000010" class="edge">
<title>Node10&#45;&gt;Node17</title>
<g id="a_edge21_Node000017_Node000010"><a xlink:title=" ">
<path fill="none" stroke="#9a32cd" stroke-dasharray="5,2" d="M39.63,-151.48C87.27,-152.41 194.62,-154.53 261.8,-155.85"/>
<polygon fill="#9a32cd" stroke="#9a32cd" points="39.44,-147.97 29.37,-151.27 39.3,-154.97 39.44,-147.97"/>
</a>
</g>
<text text-anchor="start" x="50" y="-157.5" font-family="Helvetica,sans-Serif" font-size="10.00" fill="grey">ptr</text>
</g>
<!-- Node11&#45;&gt;Node1 -->
<g id="edge33_Node000001_Node000011" class="edge">
<title>Node11&#45;&gt;Node1</title>
<g id="a_edge33_Node000001_Node000011"><a xlink:title=" ">
<path fill="none" stroke="#9a32cd" stroke-dasharray="5,2" d="M1351.26,-185.27C1361.73,-181.91 1373.24,-178.53 1384,-176 1528.9,-141.96 1567.33,-143.71 1715,-125 1928.61,-97.94 2182.07,-75.36 2304.72,-65.04"/>
<polygon fill="#9a32cd" stroke="#9a32cd" points="1350,-182 1341.6,-188.45 1352.19,-188.65 1350,-182"/>
</a>
</g>
<text text-anchor="start" x="1752.5" y="-130.5" font-family="Helvetica,sans-Serif" font-size="10.00" fill="grey">m_lhs_src_term</text>
</g>
<!-- Node11&#45;&gt;Node2 -->
<g id="edge22_Node000002_Node000011" class="edge">
<title>Node11&#45;&gt;Node2</title>
<g id="a_edge22_Node000002_Node000011"><a xlink:title=" ">
<path fill="none" stroke="#9a32cd" stroke-dasharray="5,2" d="M1324.96,-216.44C1336.38,-235.41 1357.05,-263.86 1384,-276 1407.5,-286.59 1416.23,-276.4 1442,-276 1555.38,-274.22 1584.2,-279.5 1697,-268 1826.24,-254.82 1857.44,-242.62 1985,-218 1996.18,-215.84 2008.02,-213.44 2019.54,-211.04"/>
<polygon fill="#9a32cd" stroke="#9a32cd" points="1327.86,-214.45 1319.85,-207.51 1321.78,-217.93 1327.86,-214.45"/>
</a>
</g>
<text text-anchor="start" x="1638" y="-278.5" font-family="Helvetica,sans-Serif" font-size="10.00" fill="grey">m_density</text>
</g>
<!-- Node11&#45;&gt;Node3 -->
<g id="edge10_Node000003_Node000011" class="edge">
<title>Node11&#45;&gt;Node3</title>
<g id="a_edge10_Node000003_Node000011"><a xlink:title=" ">
<path fill="none" stroke="#9a32cd" stroke-dasharray="5,2" d="M1376.1,-196.61C1397.03,-196.63 1420.57,-197.21 1442,-199 1455.93,-200.17 1470.91,-202.21 1484.72,-204.42"/>
<polygon fill="#9a32cd" stroke="#9a32cd" points="1376.05,-193.11 1366.06,-196.65 1376.07,-200.11 1376.05,-193.11"/>
</a>
</g>
<text text-anchor="start" x="1387" y="-264.5" font-family="Helvetica,sans-Serif" font-size="10.00" fill="grey">conv_term</text>
<text text-anchor="start" x="1387" y="-249.5" font-family="Helvetica,sans-Serif" font-size="10.00" fill="grey">diff_term</text>
<text text-anchor="start" x="1387" y="-234.5" font-family="Helvetica,sans-Serif" font-size="10.00" fill="grey">field</text>
<text text-anchor="start" x="1387" y="-219.5" font-family="Helvetica,sans-Serif" font-size="10.00" fill="grey">mueff</text>
<text text-anchor="start" x="1387" y="-204.5" font-family="Helvetica,sans-Serif" font-size="10.00" fill="grey">src_term</text>
</g>
<!-- Node11&#45;&gt;Node20 -->
<g id="edge29_Node000020_Node000011" class="edge">
<title>Node11&#45;&gt;Node20</title>
<g id="a_edge29_Node000020_Node000011"><a xlink:title=" ">
<path fill="none" stroke="#9a32cd" stroke-dasharray="5,2" d="M1376.21,-188.16C1402.01,-184.38 1432.4,-180.4 1460,-178 1547.23,-170.42 1647.82,-167.61 1714.89,-166.58"/>
<polygon fill="#9a32cd" stroke="#9a32cd" points="1375.57,-184.72 1366.19,-189.66 1376.6,-191.64 1375.57,-184.72"/>
</a>
</g>
<text text-anchor="start" x="1510.5" y="-183.5" font-family="Helvetica,sans-Serif" font-size="10.00" fill="grey">m_density</text>
</g>
<!-- Node12 -->
<g id="Node000012" class="node">
<title>Node12</title>
<g id="a_Node000012"><a xlink:title=" ">
<polygon fill="white" stroke="#666666" points="1183,-198 1043,-198 1043,-168 1183,-168 1183,-198"/>
<text text-anchor="start" x="1051" y="-186" font-family="Helvetica,sans-Serif" font-size="10.00">std::shared_ptr&lt; kynema</text>
<text text-anchor="middle" x="1113" y="-175" font-family="Helvetica,sans-Serif" font-size="10.00">_sgf::FieldInfo &gt;</text>
</a>
</g>
</g>
<!-- Node12&#45;&gt;Node11 -->
<g id="edge13_Node000011_Node000012" class="edge">
<title>Node12&#45;&gt;Node11</title>
<g id="a_edge13_Node000011_Node000012"><a xlink:title=" ">
<path fill="none" stroke="#9a32cd" stroke-dasharray="5,2" d="M1193.21,-188.97C1216.36,-190.72 1241.05,-192.58 1261.97,-194.15"/>
<polygon fill="#9a32cd" stroke="#9a32cd" points="1193.28,-185.47 1183.04,-188.2 1192.75,-192.45 1193.28,-185.47"/>
</a>
</g>
<text text-anchor="start" x="1205.5" y="-198.5" font-family="Helvetica,sans-Serif" font-size="10.00" fill="grey">m_info</text>
</g>
<!-- Node13&#45;&gt;Node12 -->
<g id="edge14_Node000012_Node000013" class="edge">
<title>Node13&#45;&gt;Node12</title>
<g id="a_edge14_Node000012_Node000013"><a xlink:title=" ">
<path fill="none" stroke="#9a32cd" stroke-dasharray="5,2" d="M877.27,-183C927.08,-183 993.41,-183 1042.86,-183"/>
<polygon fill="#9a32cd" stroke="#9a32cd" points="877.22,-179.5 867.22,-183 877.22,-186.5 877.22,-179.5"/>
</a>
</g>
<text text-anchor="start" x="948" y="-188.5" font-family="Helvetica,sans-Serif" font-size="10.00" fill="grey">ptr</text>
</g>
<!-- Node14 -->
<g id="Node000014" class="node">
<title>Node14</title>
<g id="a_Node000014"><a xlink:title=" ">
<polygon fill="white" stroke="#666666" points="572,-196 412,-196 412,-166 572,-166 572,-196"/>
<text text-anchor="start" x="420" y="-184" font-family="Helvetica,sans-Serif" font-size="10.00">std::unique_ptr&lt; kynema</text>
<text text-anchor="middle" x="492" y="-173" font-family="Helvetica,sans-Serif" font-size="10.00">_sgf::FieldFillPatchOpsBase &gt;</text>
</a>
</g>
</g>
<!-- Node14&#45;&gt;Node13 -->
<g id="edge16_Node000013_Node000014" class="edge">
<title>Node14&#45;&gt;Node13</title>
<g id="a_edge16_Node000013_Node000014"><a xlink:title=" ">
<path fill="none" stroke="#9a32cd" stroke-dasharray="5,2" d="M582.25,-178.81C625.64,-178.11 678.55,-177.79 726,-179 731.73,-179.15 737.69,-179.35 743.66,-179.59"/>
<polygon fill="#9a32cd" stroke="#9a32cd" points="581.95,-175.32 572.01,-178.99 582.07,-182.32 581.95,-175.32"/>
</a>
</g>
<text text-anchor="start" x="622" y="-184.5" font-family="Helvetica,sans-Serif" font-size="10.00" fill="grey">m_fillpatch_op</text>
</g>
<!-- Node15 -->
<g id="Node000015" class="node">
<title>Node15</title>
<g id="a_Node000015"><a xlink:href="classkynema__sgf_1_1_field_fill_patch_ops_base.html" target="_top" xlink:title=" ">
<polygon fill="white" stroke="#666666" points="230,-209 85,-209 85,-179 230,-179 230,-209"/>
<text text-anchor="start" x="93" y="-197" font-family="Helvetica,sans-Serif" font-size="10.00">kynema_sgf::FieldFillPatch</text>
<text text-anchor="middle" x="157.5" y="-186" font-family="Helvetica,sans-Serif" font-size="10.00">OpsBase</text>
</a>
</g>
</g>
<!-- Node15&#45;&gt;Node14 -->
<g id="edge17_Node000014_Node000015" class="edge">
<title>Node15&#45;&gt;Node14</title>
<g id="a_edge17_Node000014_Node000015"><a xlink:title=" ">
<path fill="none" stroke="#9a32cd" stroke-dasharray="5,2" d="M240.48,-190.79C292.75,-188.75 360.12,-186.12 411.83,-184.1"/>
<polygon fill="#9a32cd" stroke="#9a32cd" points="240.09,-187.31 230.24,-191.2 240.37,-194.3 240.09,-187.31"/>
</a>
</g>
<text text-anchor="start" x="314" y="-196.5" font-family="Helvetica,sans-Serif" font-size="10.00" fill="grey">ptr</text>
</g>
<!-- Node16&#45;&gt;Node14 -->
<g id="edge18_Node000014_Node000016" class="edge">
<title>Node16&#45;&gt;Node14</title>
<g id="a_edge18_Node000014_Node000016"><a xlink:title=" ">
<path fill="none" stroke="orange" stroke-dasharray="5,2" d="M226.82,-89.58C285.28,-90.87 364.52,-94.73 394,-106 428,-119 459.86,-148.09 477.27,-165.98"/>
<polygon fill="orange" stroke="orange" points="226.6,-86.07 216.53,-89.37 226.46,-93.07 226.6,-86.07"/>
</a>
</g>
<text text-anchor="start" x="251" y="-127" font-family="Helvetica,sans-Serif" font-size="10.00" fill="grey">&lt; kynema_sgf::FieldFillPatch</text>
<text text-anchor="start" x="251" y="-112" font-family="Helvetica,sans-Serif" font-size="10.00" fill="grey">  OpsBase &gt;</text>
</g>
<!-- Node19 -->
<g id="Node000019" class="node">
<title>Node19</title>
<g id="a_Node000019"><a xlink:title=" ">
<polygon fill="white" stroke="#666666" points="717.5,-30 598.5,-30 598.5,0 717.5,0 717.5,-30"/>
<text text-anchor="start" x="606.5" y="-18" font-family="Helvetica,sans-Serif" font-size="10.00">std::unique_ptr&lt; TKE</text>
<text text-anchor="middle" x="658" y="-7" font-family="Helvetica,sans-Serif" font-size="10.00">::MLDiffOp &gt;</text>
</a>
</g>
</g>
<!-- Node16&#45;&gt;Node19 -->
<g id="edge26_Node000019_Node000016" class="edge">
<title>Node16&#45;&gt;Node19</title>
<g id="a_edge26_Node000019_Node000016"><a xlink:title=" ">
<path fill="none" stroke="orange" stroke-dasharray="5,2" d="M182.91,-74.2C200.38,-64.38 224.82,-52.21 248,-46 369.41,-13.47 517.82,-11.06 598.29,-12.7"/>
<polygon fill="orange" stroke="orange" points="180.89,-71.32 173.97,-79.35 184.38,-77.39 180.89,-71.32"/>
</a>
</g>
<text text-anchor="start" x="275" y="-51.5" font-family="Helvetica,sans-Serif" font-size="10.00" fill="grey">&lt; TKE::MLDiffOp &gt;</text>
</g>
<!-- Node21 -->
<g id="Node000021" class="node">
<title>Node21</title>
<g id="a_Node000021"><a xlink:title=" ">
<polygon fill="white" stroke="#666666" points="1025,-87.5 885,-87.5 885,-68.5 1025,-68.5 1025,-87.5"/>
<text text-anchor="middle" x="955" y="-75.5" font-family="Helvetica,sans-Serif" font-size="10.00">std::unique_ptr&lt; LinOp &gt;</text>
</a>
</g>
</g>
<!-- Node16&#45;&gt;Node21 -->
<g id="edge32_Node000021_Node000016" class="edge">
<title>Node16&#45;&gt;Node21</title>
<g id="a_edge32_Node000021_Node000016"><a xlink:title=" ">
<path fill="none" stroke="orange" stroke-dasharray="5,2" d="M226.68,-88.06C376.64,-85.98 733.77,-81.05 884.74,-78.96"/>
<polygon fill="orange" stroke="orange" points="226.62,-84.56 216.67,-88.2 226.72,-91.56 226.62,-84.56"/>
</a>
</g>
<text text-anchor="start" x="467" y="-91.5" font-family="Helvetica,sans-Serif" font-size="10.00" fill="grey">&lt; LinOp &gt;</text>
</g>
<!-- Node17&#45;&gt;Node12 -->
<g id="edge20_Node000012_Node000017" class="edge">
<title>Node17&#45;&gt;Node12</title>
<g id="a_edge20_Node000012_Node000017"><a xlink:title=" ">
<path fill="none" stroke="orange" stroke-dasharray="5,2" d="M390.43,-155.81C493.77,-154.49 695.78,-153.72 867,-164 926.41,-167.57 993.82,-172.89 1042.87,-176.99"/>
<polygon fill="orange" stroke="orange" points="390.09,-152.32 380.14,-155.95 390.19,-159.32 390.09,-152.32"/>
</a>
</g>
<text text-anchor="start" x="593" y="-163.5" font-family="Helvetica,sans-Serif" font-size="10.00" fill="grey">&lt; kynema_sgf::FieldInfo &gt;</text>
</g>
<!-- Node18&#45;&gt;Node2 -->
<g id="edge23_Node000002_Node000018" class="edge">
<title>Node18&#45;&gt;Node2</title>
<g id="a_edge23_Node000002_Node000018"><a xlink:title=" ">
<path fill="none" stroke="#9a32cd" stroke-dasharray="5,2" d="M1613.9,-346.59C1706.46,-355.91 1864.89,-360.4 1985,-304 2028.72,-283.47 2063.55,-235.76 2079.32,-211.2"/>
<polygon fill="#9a32cd" stroke="#9a32cd" points="1614.09,-343.09 1603.78,-345.52 1613.36,-350.05 1614.09,-343.09"/>
</a>
</g>
<text text-anchor="start" x="1765.5" y="-357.5" font-family="Helvetica,sans-Serif" font-size="10.00" fill="grey">m_options</text>
</g>
<!-- Node18&#45;&gt;Node20 -->
<g id="edge30_Node000020_Node000018" class="edge">
<title>Node18&#45;&gt;Node20</title>
<g id="a_edge30_Node000020_Node000018"><a xlink:title=" ">
<path fill="none" stroke="#9a32cd" stroke-dasharray="5,2" d="M1554.68,-318.94C1572.93,-301.16 1602.96,-272.89 1631,-251 1631.14,-250.89 1714.84,-195.08 1715,-195 1724.85,-189.9 1735.81,-185.19 1746.26,-181.11"/>
<polygon fill="#9a32cd" stroke="#9a32cd" points="1551.85,-316.8 1547.17,-326.31 1556.76,-321.8 1551.85,-316.8"/>
</a>
</g>
<text text-anchor="start" x="1638" y="-256.5" font-family="Helvetica,sans-Serif" font-size="10.00" fill="grey">m_options</text>
</g>
<!-- Node19&#45;&gt;Node2 -->
<g id="edge25_Node000002_Node000019" class="edge">
<title>Node19&#45;&gt;Node2</title>
<g id="a_edge25_Node000002_Node000019"><a xlink:title=" ">
<path fill="none" stroke="#9a32cd" stroke-dasharray="5,2" d="M727.84,-14.27C787.63,-13.7 876.54,-13 954,-13 954,-13 954,-13 1665,-13 1833.6,-13 2011.27,-136.73 2069.1,-180.71"/>
<polygon fill="#9a32cd" stroke="#9a32cd" points="727.73,-10.77 717.77,-14.37 727.8,-17.77 727.73,-10.77"/>
</a>
</g>
<text text-anchor="start" x="1290" y="-34" font-family="Helvetica,sans-Serif" font-size="10.00" fill="grey">m_applier</text>
<text text-anchor="start" x="1290" y="-19" font-family="Helvetica,sans-Serif" font-size="10.00" fill="grey">m_solver</text>
</g>
<!-- Node20&#45;&gt;Node2 -->
<g id="edge27_Node000002_Node000020" class="edge">
<title>Node20&#45;&gt;Node2</title>
<g id="a_edge27_Node000002_Node000020"><a xlink:title=" ">
<path fill="none" stroke="orange" stroke-dasharray="5,2" d="M1878.4,-174.71C1920.93,-179.02 1971.81,-184.17 2012.85,-188.33"/>
<polygon fill="orange" stroke="orange" points="1878.64,-171.21 1868.34,-173.69 1877.94,-178.18 1878.64,-171.21"/>
</a>
</g>
<text text-anchor="start" x="1889.5" y="-191.5" font-family="Helvetica,sans-Serif" font-size="10.00" fill="grey">&lt; TKE::MLDiffOp &gt;</text>
</g>
<!-- Node21&#45;&gt;Node20 -->
<g id="edge31_Node000020_Node000021" class="edge">
<title>Node21&#45;&gt;Node20</title>
<g id="a_edge31_Node000020_Node000021"><a xlink:title=" ">
<path fill="none" stroke="#9a32cd" stroke-dasharray="5,2" d="M1035.28,-86.36C1195.81,-103.29 1557.4,-141.42 1714.85,-158.02"/>
<polygon fill="#9a32cd" stroke="#9a32cd" points="1035.31,-82.84 1025,-85.28 1034.58,-89.81 1035.31,-82.84"/>
</a>
</g>
<text text-anchor="start" x="1290" y="-143" font-family="Helvetica,sans-Serif" font-size="10.00" fill="grey">m_applier</text>
<text text-anchor="start" x="1290" y="-128" font-family="Helvetica,sans-Serif" font-size="10.00" fill="grey">m_solver</text>
</g>
<!-- Node22 -->
<g id="Node000022" class="node">
<title>Node22</title>
<g id="a_Node000022"><a xlink:href="structkynema__sgf_1_1pde_1_1_diffusion_op.html" target="_top" xlink:title=" ">
<polygon fill="white" stroke="#666666" points="2176,-31 2003,-31 2003,-1 2176,-1 2176,-31"/>
<text text-anchor="start" x="2011" y="-19" font-family="Helvetica,sans-Serif" font-size="10.00">kynema_sgf::pde::Diffusion</text>
<text text-anchor="middle" x="2089.5" y="-8" font-family="Helvetica,sans-Serif" font-size="10.00">Op&lt; PDE, Scheme, typename &gt;</text>
</a>
</g>
</g>
<!-- Node22&#45;&gt;Node1 -->
<g id="edge34_Node000001_Node000022" class="edge">
<title>Node22&#45;&gt;Node1</title>
<g id="a_edge34_Node000001_Node000022"><a xlink:title=" ">
<path fill="none" stroke="orange" stroke-dasharray="5,2" d="M2186.54,-16.77C2218.71,-18.38 2254.62,-21.64 2287,-28 2305.27,-31.59 2324.9,-37.89 2341.27,-43.88"/>
<polygon fill="orange" stroke="orange" points="2186.39,-13.26 2176.24,-16.3 2186.07,-20.25 2186.39,-13.26"/>
</a>
</g>
<text text-anchor="start" x="2197.5" y="-33.5" font-family="Helvetica,sans-Serif" font-size="10.00" fill="grey">&lt; TKE, Scheme &gt;</text>
</g>
</g>
</svg>

<g id="navigator" transform="translate(0 0)" fill="#404254">
  <rect fill="#f2f5e9" fill-opacity="0.5" stroke="#606060" stroke-width=".5" x="0" y="0" width="60" height="60"/>
  <use id="zoomplus" xlink:href="#zoomPlus" x="17" y="9" onmousedown="handleZoom(evt,'in')"/>
  <use id="zoomminus" xlink:href="#zoomMin" x="42" y="9" onmousedown="handleZoom(evt,'out')"/>
  <use id="reset" xlink:href="#resetDef" x="30" y="36" onmousedown="handleReset()"/>
   <use id="arrowup" xlink:href="#arrowUp" x="0" y="0" onmousedown="handlePan(0,-1)"/>
  <use id="arrowright" xlink:href="#arrowRight" x="0" y="0" onmousedown="handlePan(1,0)"/>
  <use id="arrowdown" xlink:href="#arrowDown" x="0" y="0" onmousedown="handlePan(0,1)"/>
  <use id="arrowleft" xlink:href="#arrowLeft" x="0" y="0" onmousedown="handlePan(-1,0)"/>
</g>
<svg viewBox="0 0 15 15" width="100%" height="30px" preserveAspectRatio="xMaxYMin meet">
 <g id="arrow_out" transform="scale(0.3 0.3)">
  <a xlink:href="structkynema__sgf_1_1pde_1_1_diffusion_op_3_01_t_k_e_00_01_scheme_01_4__coll__graph_org.svg" target="_base">
   <rect id="button" ry="5" rx="5" y="6" x="6" height="38" width="38"
        fill="#f2f5e9" fill-opacity="0.5" stroke="#606060" stroke-width="1.0"/>
   <path id="arrow"
     d="M 11.500037,31.436501 C 11.940474,20.09759 22.043105,11.32322 32.158766,21.979434 L 37.068811,17.246167 C 37.068811,17.246167 37.088388,32 37.088388,32 L 22.160133,31.978069 C 22.160133,31.978069 26.997745,27.140456 26.997745,27.140456 C 18.528582,18.264221 13.291696,25.230495 11.500037,31.436501 z"
     style="fill:#404040;"/>
  </a>
 </g>
</svg>

<style type='text/css'>
<![CDATA[
[data-mouse-over-selected='false'] { opacity: 0.7; }
[data-mouse-over-selected='true']  { opacity: 1.0; }
]]>
</style>
<script type="application/ecmascript"><![CDATA[
document.addEventListener('DOMContentLoaded', (event) => {
  highlightEdges();
  highlightAdjacentNodes();
});
]]></script>
</svg>
