<?xml version="1.0" encoding="UTF-8" standalone="no"?>
<!DOCTYPE svg PUBLIC "-//W3C//DTD SVG 1.1//EN"
 "http://www.w3.org/Graphics/SVG/1.1/DTD/svg11.dtd">
<!-- Generated by graphviz version 2.43.0 (0)
 -->
<!-- Title: kynema_sgf::actuator::ops::ProcessOutputsOp&lt; ActTrait, SrcTrait, typename &gt; Pages: 1 -->
<!--zoomable 483 -->

<svg id="main" version="1.1" xmlns="http://www.w3.org/2000/svg" xmlns:xlink="http://www.w3.org/1999/xlink" xml:space="preserve" onload="init(evt)">

<style type="text/css"><![CDATA[
.node, .edge {opacity: 0.7;}
.node.selected, .edge.selected {opacity: 1;}
.edge:hover path { stroke: red; }
.edge:hover polygon { stroke: red; fill: red; }
]]></style>

<defs>
  <circle id="rim" cx="0" cy="0" r="7"/>
  <circle id="rim2" cx="0" cy="0" r="3.5"/>
  <g id="zoomPlus">
    <use xlink:href="#rim" fill="#404040"><set attributeName="fill" to="#808080" begin="zoomplus.mouseover" end="zoomplus.mouseout"/></use>
    <path d="M-4,0h8M0,-4v8" fill="none" stroke="white" stroke-width="1.5" pointer-events="none"/>
  </g>
  <g id="zoomMin">
    <use xlink:href="#rim" fill="#404040"><set attributeName="fill" to="#808080" begin="zoomminus.mouseover" end="zoomminus.mouseout"/></use>
    <path d="M-4,0h8" fill="none" stroke="white" stroke-width="1.5" pointer-events="none"/>
  </g>
  <g id="arrowUp" transform="translate(30 24)">
    <use xlink:href="#rim"/>
    <path pointer-events="none" fill="none" stroke="white" stroke-width="1.5" d="M0,-3.0v7 M-2.5,-0.5L0,-3.0L2.5,-0.5"/>
  </g>
  <g id="arrowRight" transform="rotate(90) translate(36 -43)">
    <use xlink:href="#rim"/>
    <path pointer-events="none" fill="none" stroke="white" stroke-width="1.5" d="M0,-3.0v7 M-2.5,-0.5L0,-3.0L2.5,-0.5"/>
  </g>
  <g id="arrowDown" transform="rotate(180) translate(-30 -48)">
    <use xlink:href="#rim"/>
    <path pointer-events="none" fill="none" stroke="white" stroke-width="1.5" d="M0,-3.0v7 M-2.5,-0.5L0,-3.0L2.5,-0.5"/>
  </g>
  <g id="arrowLeft" transform="rotate(270) translate(-36 17)">
    <use xlink:href="#rim"/>
    <path pointer-events="none" fill="none" stroke="white" stroke-width="1.5" d="M0,-3.0v7 M-2.5,-0.5L0,-3.0L2.5,-0.5"/>
  </g>
  <g id="resetDef">
    <use xlink:href="#rim2" fill="#404040"><set attributeName="fill" to="#808080" begin="reset.mouseover" end="reset.mouseout"/></use>
  </g>
</defs>
<script type="application/ecmascript">
var viewWidth = 631;
var viewHeight = 483;
var sectionId = 'dynsection-0';
</script>
<script type="application/ecmascript" xlink:href="svg.min.js"/>
<svg id="graph" class="graph">
<g id="viewport">
<title>kynema_sgf::actuator::ops::ProcessOutputsOp&lt; ActTrait, SrcTrait, typename &gt;</title>
<!-- Node1 -->
<g id="Node000001" class="node">
<title>Node1</title>
<g id="a_Node000001"><a xlink:title=" ">
<polygon fill="#999999" stroke="#666666" points="173,-218 0,-218 0,-177 173,-177 173,-218"/>
<text text-anchor="start" x="8" y="-206" font-family="Helvetica,sans-Serif" font-size="10.00">kynema_sgf::actuator</text>
<text text-anchor="start" x="8" y="-195" font-family="Helvetica,sans-Serif" font-size="10.00">::ops::ProcessOutputsOp</text>
<text text-anchor="middle" x="86.5" y="-184" font-family="Helvetica,sans-Serif" font-size="10.00">&lt; ActTrait, SrcTrait, typename &gt;</text>
</a>
</g>
</g>
<!-- Node2 -->
<g id="Node000002" class="node">
<title>Node2</title>
<g id="a_Node000002"><a xlink:href="structkynema__sgf_1_1actuator_1_1ops_1_1_process_outputs_op.html" target="_top" xlink:title=" ">
<polygon fill="white" stroke="#666666" points="576.5,-460 441.5,-460 441.5,-419 576.5,-419 576.5,-460"/>
<text text-anchor="start" x="449.5" y="-448" font-family="Helvetica,sans-Serif" font-size="10.00">kynema_sgf::actuator</text>
<text text-anchor="start" x="449.5" y="-437" font-family="Helvetica,sans-Serif" font-size="10.00">::ops::ProcessOutputsOp</text>
<text text-anchor="middle" x="509" y="-426" font-family="Helvetica,sans-Serif" font-size="10.00">&lt; ActTrait, ActSrcLine &gt;</text>
</a>
</g>
</g>
<!-- Node1&#45;&gt;Node2 -->
<g id="edge1_Node000001_Node000002" class="edge">
<title>Node1&#45;&gt;Node2</title>
<g id="a_edge1_Node000001_Node000002"><a xlink:title=" ">
<path fill="none" stroke="orange" stroke-dasharray="5,2" d="M92.29,-228.28C101.67,-276.98 127.39,-370.77 191,-414.5 264.81,-465.24 372.4,-461.71 441.3,-452.31"/>
<polygon fill="orange" stroke="orange" points="95.72,-227.53 90.49,-218.32 88.83,-228.79 95.72,-227.53"/>
</a>
</g>
<text text-anchor="start" x="226" y="-463" font-family="Helvetica,sans-Serif" font-size="10.00" fill="grey">&lt; ActTrait, ActSrcLine &gt;</text>
</g>
<!-- Node3 -->
<g id="Node000003" class="node">
<title>Node3</title>
<g id="a_Node000003"><a xlink:href="structkynema__sgf_1_1actuator_1_1ops_1_1_process_outputs_op_3_01_act_trait_00_01_src_trait_00_014841fb0af512d12e70a847d6c2bb5756.html" target="_top" xlink:title=" ">
<polygon fill="white" stroke="#666666" points="623,-380 395,-380 395,-295 623,-295 623,-380"/>
<text text-anchor="start" x="403" y="-368" font-family="Helvetica,sans-Serif" font-size="10.00">kynema_sgf::actuator</text>
<text text-anchor="start" x="403" y="-357" font-family="Helvetica,sans-Serif" font-size="10.00">::ops::ProcessOutputsOp</text>
<text text-anchor="start" x="403" y="-346" font-family="Helvetica,sans-Serif" font-size="10.00">&lt; ActTrait, SrcTrait, typename</text>
<text text-anchor="start" x="403" y="-335" font-family="Helvetica,sans-Serif" font-size="10.00"> std::enable_if_t&lt; std::is_base</text>
<text text-anchor="start" x="403" y="-324" font-family="Helvetica,sans-Serif" font-size="10.00">_of_v&lt; WingType, ActTrait &gt; &amp;&amp;UseDefault</text>
<text text-anchor="start" x="403" y="-313" font-family="Helvetica,sans-Serif" font-size="10.00">Op&lt; ActTrait, ActSrcLine &gt;::process</text>
<text text-anchor="middle" x="509" y="-302" font-family="Helvetica,sans-Serif" font-size="10.00">_outputs &gt; &gt;</text>
</a>
</g>
</g>
<!-- Node1&#45;&gt;Node3 -->
<g id="edge2_Node000001_Node000003" class="edge">
<title>Node1&#45;&gt;Node3</title>
<g id="a_edge2_Node000001_Node000003"><a xlink:title=" ">
<path fill="none" stroke="orange" stroke-dasharray="5,2" d="M115.02,-225.12C134.58,-243.11 162.36,-265.57 191,-278.5 226.91,-294.71 319.15,-310.93 394.94,-322.25"/>
<polygon fill="orange" stroke="orange" points="117.37,-222.52 107.69,-218.22 112.58,-227.62 117.37,-222.52"/>
</a>
</g>
<text text-anchor="start" x="194" y="-399.5" font-family="Helvetica,sans-Serif" font-size="10.00" fill="grey">&lt; ActTrait, SrcTrait,</text>
<text text-anchor="start" x="194" y="-384.5" font-family="Helvetica,sans-Serif" font-size="10.00" fill="grey">   typename std::enable</text>
<text text-anchor="start" x="194" y="-369.5" font-family="Helvetica,sans-Serif" font-size="10.00" fill="grey">  _if_t&lt; std::is_base_of</text>
<text text-anchor="start" x="194" y="-354.5" font-family="Helvetica,sans-Serif" font-size="10.00" fill="grey">  _v&lt; WingType, ActTrait</text>
<text text-anchor="start" x="194" y="-339.5" font-family="Helvetica,sans-Serif" font-size="10.00" fill="grey">   &gt; &amp;&amp;UseDefaultOp&lt; ActTrait,</text>
<text text-anchor="start" x="194" y="-324.5" font-family="Helvetica,sans-Serif" font-size="10.00" fill="grey">   ActSrcLine &gt;::process_outputs &gt; &gt;</text>
</g>
<!-- Node4 -->
<g id="Node000004" class="node">
<title>Node4</title>
<g id="a_Node000004"><a xlink:href="structkynema__sgf_1_1actuator_1_1ops_1_1_process_outputs_op_3_01_actuator_sector_00_01_act_src_sector_01_4.html" target="_top" xlink:title=" ">
<polygon fill="white" stroke="#666666" points="598.5,-277 419.5,-277 419.5,-236 598.5,-236 598.5,-277"/>
<text text-anchor="start" x="427.5" y="-265" font-family="Helvetica,sans-Serif" font-size="10.00">kynema_sgf::actuator</text>
<text text-anchor="start" x="427.5" y="-254" font-family="Helvetica,sans-Serif" font-size="10.00">::ops::ProcessOutputsOp</text>
<text text-anchor="middle" x="509" y="-243" font-family="Helvetica,sans-Serif" font-size="10.00">&lt; ActuatorSector, ActSrcSector &gt;</text>
</a>
</g>
</g>
<!-- Node1&#45;&gt;Node4 -->
<g id="edge3_Node000001_Node000004" class="edge">
<title>Node1&#45;&gt;Node4</title>
<g id="a_edge3_Node000001_Node000004"><a xlink:title=" ">
<path fill="none" stroke="orange" stroke-dasharray="5,2" d="M183.31,-217.22C185.9,-217.67 188.47,-218.09 191,-218.5 267.75,-230.87 355.55,-241.09 419.26,-247.8"/>
<polygon fill="orange" stroke="orange" points="183.7,-213.74 173.25,-215.45 182.49,-220.63 183.7,-213.74"/>
</a>
</g>
<text text-anchor="start" x="224" y="-263.5" font-family="Helvetica,sans-Serif" font-size="10.00" fill="grey">&lt; ActuatorSector, ActSrc</text>
<text text-anchor="start" x="224" y="-248.5" font-family="Helvetica,sans-Serif" font-size="10.00" fill="grey">  Sector &gt;</text>
</g>
<!-- Node5 -->
<g id="Node000005" class="node">
<title>Node5</title>
<g id="a_Node000005"><a xlink:href="structkynema__sgf_1_1actuator_1_1ops_1_1_process_outputs_op_3_01_joukowsky_00_01_act_src_disk_01_4.html" target="_top" xlink:title=" ">
<polygon fill="white" stroke="#666666" points="583.5,-218 434.5,-218 434.5,-177 583.5,-177 583.5,-218"/>
<text text-anchor="start" x="442.5" y="-206" font-family="Helvetica,sans-Serif" font-size="10.00">kynema_sgf::actuator</text>
<text text-anchor="start" x="442.5" y="-195" font-family="Helvetica,sans-Serif" font-size="10.00">::ops::ProcessOutputsOp</text>
<text text-anchor="middle" x="509" y="-184" font-family="Helvetica,sans-Serif" font-size="10.00">&lt; Joukowsky, ActSrcDisk &gt;</text>
</a>
</g>
</g>
<!-- Node1&#45;&gt;Node5 -->
<g id="edge4_Node000001_Node000005" class="edge">
<title>Node1&#45;&gt;Node5</title>
<g id="a_edge4_Node000001_Node000005"><a xlink:title=" ">
<path fill="none" stroke="orange" stroke-dasharray="5,2" d="M183.19,-197.5C259.46,-197.5 364.69,-197.5 434.45,-197.5"/>
<polygon fill="orange" stroke="orange" points="183.1,-194 173.1,-197.5 183.1,-201 183.1,-194"/>
</a>
</g>
<text text-anchor="start" x="218" y="-203" font-family="Helvetica,sans-Serif" font-size="10.00" fill="grey">&lt; Joukowsky, ActSrcDisk &gt;</text>
</g>
<!-- Node6 -->
<g id="Node000006" class="node">
<title>Node6</title>
<g id="a_Node000006"><a xlink:href="structkynema__sgf_1_1actuator_1_1ops_1_1_process_outputs_op_3_01_turbine_fast_00_01_src_trait_01_4.html" target="_top" xlink:title=" ">
<polygon fill="white" stroke="#666666" points="577,-159 441,-159 441,-118 577,-118 577,-159"/>
<text text-anchor="start" x="449" y="-147" font-family="Helvetica,sans-Serif" font-size="10.00">kynema_sgf::actuator</text>
<text text-anchor="start" x="449" y="-136" font-family="Helvetica,sans-Serif" font-size="10.00">::ops::ProcessOutputsOp</text>
<text text-anchor="middle" x="509" y="-125" font-family="Helvetica,sans-Serif" font-size="10.00">&lt; TurbineFast, SrcTrait &gt;</text>
</a>
</g>
</g>
<!-- Node1&#45;&gt;Node6 -->
<g id="edge5_Node000001_Node000006" class="edge">
<title>Node1&#45;&gt;Node6</title>
<g id="a_edge5_Node000001_Node000006"><a xlink:title=" ">
<path fill="none" stroke="orange" stroke-dasharray="5,2" d="M183.31,-177.78C185.9,-177.33 188.47,-176.91 191,-176.5 276.92,-162.66 376.68,-151.5 440.99,-144.94"/>
<polygon fill="orange" stroke="orange" points="182.49,-174.37 173.25,-179.55 183.7,-181.26 182.49,-174.37"/>
</a>
</g>
<text text-anchor="start" x="224" y="-182" font-family="Helvetica,sans-Serif" font-size="10.00" fill="grey">&lt; TurbineFast, SrcTrait &gt;</text>
</g>
<!-- Node7 -->
<g id="Node000007" class="node">
<title>Node7</title>
<g id="a_Node000007"><a xlink:href="structkynema__sgf_1_1actuator_1_1ops_1_1_process_outputs_op_3_01_turbine_kynema_f_m_b_00_01_src_trait_01_4.html" target="_top" xlink:title=" ">
<polygon fill="white" stroke="#666666" points="598,-100 420,-100 420,-59 598,-59 598,-100"/>
<text text-anchor="start" x="428" y="-88" font-family="Helvetica,sans-Serif" font-size="10.00">kynema_sgf::actuator</text>
<text text-anchor="start" x="428" y="-77" font-family="Helvetica,sans-Serif" font-size="10.00">::ops::ProcessOutputsOp</text>
<text text-anchor="middle" x="509" y="-66" font-family="Helvetica,sans-Serif" font-size="10.00">&lt; TurbineKynemaFMB, SrcTrait &gt;</text>
</a>
</g>
</g>
<!-- Node1&#45;&gt;Node7 -->
<g id="edge6_Node000001_Node000007" class="edge">
<title>Node1&#45;&gt;Node7</title>
<g id="a_edge6_Node000001_Node000007"><a xlink:title=" ">
<path fill="none" stroke="orange" stroke-dasharray="5,2" d="M113.94,-169.59C133.37,-150.95 161.44,-127.7 191,-115.5 264.08,-85.33 354.23,-77.61 419.68,-76.69"/>
<polygon fill="orange" stroke="orange" points="111.35,-167.22 106.67,-176.73 116.26,-172.21 111.35,-167.22"/>
</a>
</g>
<text text-anchor="start" x="228" y="-136.5" font-family="Helvetica,sans-Serif" font-size="10.00" fill="grey">&lt; TurbineKynemaFMB,</text>
<text text-anchor="start" x="228" y="-121.5" font-family="Helvetica,sans-Serif" font-size="10.00" fill="grey">   SrcTrait &gt;</text>
</g>
<!-- Node8 -->
<g id="Node000008" class="node">
<title>Node8</title>
<g id="a_Node000008"><a xlink:href="structkynema__sgf_1_1actuator_1_1ops_1_1_process_outputs_op_3_01_uniform_ct_00_01_act_src_disk_01_4.html" target="_top" xlink:title=" ">
<polygon fill="white" stroke="#666666" points="583,-41 435,-41 435,0 583,0 583,-41"/>
<text text-anchor="start" x="443" y="-29" font-family="Helvetica,sans-Serif" font-size="10.00">kynema_sgf::actuator</text>
<text text-anchor="start" x="443" y="-18" font-family="Helvetica,sans-Serif" font-size="10.00">::ops::ProcessOutputsOp</text>
<text text-anchor="middle" x="509" y="-7" font-family="Helvetica,sans-Serif" font-size="10.00">&lt; UniformCt, ActSrcDisk &gt;</text>
</a>
</g>
</g>
<!-- Node1&#45;&gt;Node8 -->
<g id="edge7_Node000001_Node000008" class="edge">
<title>Node1&#45;&gt;Node8</title>
<g id="a_edge7_Node000001_Node000008"><a xlink:title=" ">
<path fill="none" stroke="orange" stroke-dasharray="5,2" d="M100.29,-167.72C116.28,-134.48 147,-82 191,-56.5 265.75,-13.17 367.12,-9.28 434.9,-12.85"/>
<polygon fill="orange" stroke="orange" points="97.03,-166.42 95.98,-176.96 103.38,-169.38 97.03,-166.42"/>
</a>
</g>
<text text-anchor="start" x="218" y="-62" font-family="Helvetica,sans-Serif" font-size="10.00" fill="grey">&lt; UniformCt, ActSrcDisk &gt;</text>
</g>
</g>
</svg>

<g id="navigator" transform="translate(0 0)" fill="#404254">
  <rect fill="#f2f5e9" fill-opacity="0.5" stroke="#606060" stroke-width=".5" x="0" y="0" width="60" height="60"/>
  <use id="zoomplus" xlink:href="#zoomPlus" x="17" y="9" onmousedown="handleZoom(evt,'in')"/>
  <use id="zoomminus" xlink:href="#zoomMin" x="42" y="9" onmousedown="handleZoom(evt,'out')"/>
  <use id="reset" xlink:href="#resetDef" x="30" y="36" onmousedown="handleReset()"/>
   <use id="arrowup" xlink:href="#arrowUp" x="0" y="0" onmousedown="handlePan(0,-1)"/>
  <use id="arrowright" xlink:href="#arrowRight" x="0" y="0" onmousedown="handlePan(1,0)"/>
  <use id="arrowdown" xlink:href="#arrowDown" x="0" y="0" onmousedown="handlePan(0,1)"/>
  <use id="arrowleft" xlink:href="#arrowLeft" x="0" y="0" onmousedown="handlePan(-1,0)"/>
</g>
<svg viewBox="0 0 15 15" width="100%" height="30px" preserveAspectRatio="xMaxYMin meet">
 <g id="arrow_out" transform="scale(0.3 0.3)">
  <a xlink:href="structkynema__sgf_1_1actuator_1_1ops_1_1_process_outputs_op__inherit__graph_org.svg" target="_base">
   <rect id="button" ry="5" rx="5" y="6" x="6" height="38" width="38"
        fill="#f2f5e9" fill-opacity="0.5" stroke="#606060" stroke-width="1.0"/>
   <path id="arrow"
     d="M 11.500037,31.436501 C 11.940474,20.09759 22.043105,11.32322 32.158766,21.979434 L 37.068811,17.246167 C 37.068811,17.246167 37.088388,32 37.088388,32 L 22.160133,31.978069 C 22.160133,31.978069 26.997745,27.140456 26.997745,27.140456 C 18.528582,18.264221 13.291696,25.230495 11.500037,31.436501 z"
     style="fill:#404040;"/>
  </a>
 </g>
</svg>

<style type='text/css'>
<![CDATA[
[data-mouse-over-selected='false'] { opacity: 0.7; }
[data-mouse-over-selected='true']  { opacity: 1.0; }
]]>
</style>
<script type="application/ecmascript"><![CDATA[
document.addEventListener('DOMContentLoaded', (event) => {
  highlightEdges();
  highlightAdjacentNodes();
});
]]></script>
</svg>
