<?xml version="1.0" encoding="UTF-8" standalone="no"?>
<!DOCTYPE svg PUBLIC "-//W3C//DTD SVG 1.1//EN"
 "http://www.w3.org/Graphics/SVG/1.1/DTD/svg11.dtd">
<!-- Generated by graphviz version 2.43.0 (0)
 -->
<!-- Title: kynema_sgf::actuator::ops::UpdatePosOp&lt; ActTrait, SrcTrait, typename &gt; Pages: 1 -->
<!--zoomable 528 -->

<svg id="main" version="1.1" xmlns="http://www.w3.org/2000/svg" xmlns:xlink="http://www.w3.org/1999/xlink" xml:space="preserve" onload="init(evt)">

<style type="text/css"><![CDATA[
.node, .edge {opacity: 0.7;}
.node.selected, .edge.selected {opacity: 1;}
.edge:hover path { stroke: red; }
.edge:hover polygon { stroke: red; fill: red; }
]]></style>

<defs>
  <circle id="rim" cx="0" cy="0" r="7"/>
  <circle id="rim2" cx="0" cy="0" r="3.5"/>
  <g id="zoomPlus">
    <use xlink:href="#rim" fill="#404040"><set attributeName="fill" to="#808080" begin="zoomplus.mouseover" end="zoomplus.mouseout"/></use>
    <path d="M-4,0h8M0,-4v8" fill="none" stroke="white" stroke-width="1.5" pointer-events="none"/>
  </g>
  <g id="zoomMin">
    <use xlink:href="#rim" fill="#404040"><set attributeName="fill" to="#808080" begin="zoomminus.mouseover" end="zoomminus.mouseout"/></use>
    <path d="M-4,0h8" fill="none" stroke="white" stroke-width="1.5" pointer-events="none"/>
  </g>
  <g id="arrowUp" transform="translate(30 24)">
    <use xlink:href="#rim"/>
    <path pointer-events="none" fill="none" stroke="white" stroke-width="1.5" d="M0,-3.0v7 M-2.5,-0.5L0,-3.0L2.5,-0.5"/>
  </g>
  <g id="arrowRight" transform="rotate(90) translate(36 -43)">
    <use xlink:href="#rim"/>
    <path pointer-events="none" fill="none" stroke="white" stroke-width="1.5" d="M0,-3.0v7 M-2.5,-0.5L0,-3.0L2.5,-0.5"/>
  </g>
  <g id="arrowDown" transform="rotate(180) translate(-30 -48)">
    <use xlink:href="#rim"/>
    <path pointer-events="none" fill="none" stroke="white" stroke-width="1.5" d="M0,-3.0v7 M-2.5,-0.5L0,-3.0L2.5,-0.5"/>
  </g>
  <g id="arrowLeft" transform="rotate(270) translate(-36 17)">
    <use xlink:href="#rim"/>
    <path pointer-events="none" fill="none" stroke="white" stroke-width="1.5" d="M0,-3.0v7 M-2.5,-0.5L0,-3.0L2.5,-0.5"/>
  </g>
  <g id="resetDef">
    <use xlink:href="#rim2" fill="#404040"><set attributeName="fill" to="#808080" begin="reset.mouseover" end="reset.mouseout"/></use>
  </g>
</defs>
<script type="application/ecmascript">
var viewWidth = 578;
var viewHeight = 528;
var sectionId = 'dynsection-0';
</script>
<script type="application/ecmascript" xlink:href="svg.min.js"/>
<svg id="graph" class="graph">
<g id="viewport">
<title>kynema_sgf::actuator::ops::UpdatePosOp&lt; ActTrait, SrcTrait, typename &gt;</title>
<!-- Node1 -->
<g id="Node000001" class="node">
<title>Node1</title>
<g id="a_Node000001"><a xlink:title=" ">
<polygon fill="#999999" stroke="#666666" points="163,-218 0,-218 0,-177 163,-177 163,-218"/>
<text text-anchor="start" x="8" y="-206" font-family="Helvetica,sans-Serif" font-size="10.00">kynema_sgf::actuator</text>
<text text-anchor="start" x="8" y="-195" font-family="Helvetica,sans-Serif" font-size="10.00">::ops::UpdatePosOp&lt; ActTrait,</text>
<text text-anchor="middle" x="81.5" y="-184" font-family="Helvetica,sans-Serif" font-size="10.00"> SrcTrait, typename &gt;</text>
</a>
</g>
</g>
<!-- Node2 -->
<g id="Node000002" class="node">
<title>Node2</title>
<g id="a_Node000002"><a xlink:href="structkynema__sgf_1_1actuator_1_1ops_1_1_update_pos_op_3_01_act_trait_00_01_act_src_disk_00_01stdd9f3c7c18956dd152ce0d4c727338f7.html" target="_top" xlink:title=" ">
<polygon fill="white" stroke="#666666" points="555.5,-472 376.5,-472 376.5,-409 555.5,-409 555.5,-472"/>
<text text-anchor="start" x="384.5" y="-460" font-family="Helvetica,sans-Serif" font-size="10.00">kynema_sgf::actuator</text>
<text text-anchor="start" x="384.5" y="-449" font-family="Helvetica,sans-Serif" font-size="10.00">::ops::UpdatePosOp&lt; ActTrait,</text>
<text text-anchor="start" x="384.5" y="-438" font-family="Helvetica,sans-Serif" font-size="10.00"> ActSrcDisk, std::enable_if</text>
<text text-anchor="start" x="384.5" y="-427" font-family="Helvetica,sans-Serif" font-size="10.00">_t&lt; std::is_base_of_v&lt; DiskType,</text>
<text text-anchor="middle" x="466" y="-416" font-family="Helvetica,sans-Serif" font-size="10.00"> ActTrait &gt; &gt; &gt;</text>
</a>
</g>
</g>
<!-- Node1&#45;&gt;Node2 -->
<g id="edge1_Node000001_Node000002" class="edge">
<title>Node1&#45;&gt;Node2</title>
<g id="a_edge1_Node000001_Node000002"><a xlink:title=" ">
<path fill="none" stroke="orange" stroke-dasharray="5,2" d="M86.32,-228.41C94.24,-277.83 117.36,-373.6 181,-418.5 237.17,-458.13 316.07,-461.21 376.46,-455.75"/>
<polygon fill="orange" stroke="orange" points="89.75,-227.7 84.82,-218.32 82.83,-228.73 89.75,-227.7"/>
</a>
</g>
<text text-anchor="start" x="195.5" y="-508.5" font-family="Helvetica,sans-Serif" font-size="10.00" fill="grey">&lt; ActTrait, ActSrcDisk,</text>
<text text-anchor="start" x="195.5" y="-493.5" font-family="Helvetica,sans-Serif" font-size="10.00" fill="grey">   std::enable_if_t&lt; std</text>
<text text-anchor="start" x="195.5" y="-478.5" font-family="Helvetica,sans-Serif" font-size="10.00" fill="grey">  ::is_base_of_v&lt; DiskType,</text>
<text text-anchor="start" x="195.5" y="-463.5" font-family="Helvetica,sans-Serif" font-size="10.00" fill="grey">   ActTrait &gt; &gt; &gt;</text>
</g>
<!-- Node3 -->
<g id="Node000003" class="node">
<title>Node3</title>
<g id="a_Node000003"><a xlink:href="structkynema__sgf_1_1actuator_1_1ops_1_1_update_pos_op_3_01_act_trait_00_01_act_src_line_00_01tya4fc567020fc9d14dcd8f049b29329ca.html" target="_top" xlink:title=" ">
<polygon fill="white" stroke="#666666" points="570,-380 362,-380 362,-295 570,-295 570,-380"/>
<text text-anchor="start" x="370" y="-368" font-family="Helvetica,sans-Serif" font-size="10.00">kynema_sgf::actuator</text>
<text text-anchor="start" x="370" y="-357" font-family="Helvetica,sans-Serif" font-size="10.00">::ops::UpdatePosOp&lt; ActTrait,</text>
<text text-anchor="start" x="370" y="-346" font-family="Helvetica,sans-Serif" font-size="10.00"> ActSrcLine, typename std</text>
<text text-anchor="start" x="370" y="-335" font-family="Helvetica,sans-Serif" font-size="10.00">::enable_if_t&lt; std::is_base</text>
<text text-anchor="start" x="370" y="-324" font-family="Helvetica,sans-Serif" font-size="10.00">_of_v&lt; WingType, ActTrait &gt;</text>
<text text-anchor="start" x="370" y="-313" font-family="Helvetica,sans-Serif" font-size="10.00"> &amp;&amp;UseDefaultOp&lt; ActTrait, ActSrcLine</text>
<text text-anchor="middle" x="466" y="-302" font-family="Helvetica,sans-Serif" font-size="10.00"> &gt;::update_pos &gt; &gt;</text>
</a>
</g>
</g>
<!-- Node1&#45;&gt;Node3 -->
<g id="edge2_Node000001_Node000003" class="edge">
<title>Node1&#45;&gt;Node3</title>
<g id="a_edge2_Node000001_Node000003"><a xlink:title=" ">
<path fill="none" stroke="orange" stroke-dasharray="5,2" d="M109.47,-225.4C127.99,-242.95 154.03,-264.63 181,-277.5 237.51,-304.46 306.07,-319.39 361.67,-327.61"/>
<polygon fill="orange" stroke="orange" points="111.62,-222.61 102.01,-218.17 106.75,-227.64 111.62,-222.61"/>
</a>
</g>
<text text-anchor="start" x="184.5" y="-404.5" font-family="Helvetica,sans-Serif" font-size="10.00" fill="grey">&lt; ActTrait, ActSrcLine,</text>
<text text-anchor="start" x="184.5" y="-389.5" font-family="Helvetica,sans-Serif" font-size="10.00" fill="grey">   typename std::enable</text>
<text text-anchor="start" x="184.5" y="-374.5" font-family="Helvetica,sans-Serif" font-size="10.00" fill="grey">  _if_t&lt; std::is_base_of</text>
<text text-anchor="start" x="184.5" y="-359.5" font-family="Helvetica,sans-Serif" font-size="10.00" fill="grey">  _v&lt; WingType, ActTrait &gt;</text>
<text text-anchor="start" x="184.5" y="-344.5" font-family="Helvetica,sans-Serif" font-size="10.00" fill="grey">   &amp;&amp;UseDefaultOp&lt; ActTrait,</text>
<text text-anchor="start" x="184.5" y="-329.5" font-family="Helvetica,sans-Serif" font-size="10.00" fill="grey">   ActSrcLine &gt;::update_pos &gt; &gt;</text>
</g>
<!-- Node4 -->
<g id="Node000004" class="node">
<title>Node4</title>
<g id="a_Node000004"><a xlink:href="structkynema__sgf_1_1actuator_1_1ops_1_1_update_pos_op_3_01_actuator_sector_00_01_act_src_sector_01_4.html" target="_top" xlink:title=" ">
<polygon fill="white" stroke="#666666" points="548,-277 384,-277 384,-236 548,-236 548,-277"/>
<text text-anchor="start" x="392" y="-265" font-family="Helvetica,sans-Serif" font-size="10.00">kynema_sgf::actuator</text>
<text text-anchor="start" x="392" y="-254" font-family="Helvetica,sans-Serif" font-size="10.00">::ops::UpdatePosOp&lt; Actuator</text>
<text text-anchor="middle" x="466" y="-243" font-family="Helvetica,sans-Serif" font-size="10.00">Sector, ActSrcSector &gt;</text>
</a>
</g>
</g>
<!-- Node1&#45;&gt;Node4 -->
<g id="edge3_Node000001_Node000004" class="edge">
<title>Node1&#45;&gt;Node4</title>
<g id="a_edge3_Node000001_Node000004"><a xlink:title=" ">
<path fill="none" stroke="orange" stroke-dasharray="5,2" d="M172.94,-217.06C175.65,-217.56 178.35,-218.04 181,-218.5 249.13,-230.3 327,-240.49 383.95,-247.34"/>
<polygon fill="orange" stroke="orange" points="173.51,-213.61 163.03,-215.2 172.21,-220.49 173.51,-213.61"/>
</a>
</g>
<text text-anchor="start" x="202.5" y="-262.5" font-family="Helvetica,sans-Serif" font-size="10.00" fill="grey">&lt; ActuatorSector, ActSrc</text>
<text text-anchor="start" x="202.5" y="-247.5" font-family="Helvetica,sans-Serif" font-size="10.00" fill="grey">  Sector &gt;</text>
</g>
<!-- Node5 -->
<g id="Node000005" class="node">
<title>Node5</title>
<g id="a_Node000005"><a xlink:href="structkynema__sgf_1_1actuator_1_1ops_1_1_update_pos_op_3_01_joukowsky_00_01_act_src_disk_01_4.html" target="_top" xlink:title=" ">
<polygon fill="white" stroke="#666666" points="554.5,-218 377.5,-218 377.5,-177 554.5,-177 554.5,-218"/>
<text text-anchor="start" x="385.5" y="-206" font-family="Helvetica,sans-Serif" font-size="10.00">kynema_sgf::actuator</text>
<text text-anchor="start" x="385.5" y="-195" font-family="Helvetica,sans-Serif" font-size="10.00">::ops::UpdatePosOp&lt; Joukowsky,</text>
<text text-anchor="middle" x="466" y="-184" font-family="Helvetica,sans-Serif" font-size="10.00"> ActSrcDisk &gt;</text>
</a>
</g>
</g>
<!-- Node1&#45;&gt;Node5 -->
<g id="edge4_Node000001_Node000005" class="edge">
<title>Node1&#45;&gt;Node5</title>
<g id="a_edge4_Node000001_Node000005"><a xlink:title=" ">
<path fill="none" stroke="orange" stroke-dasharray="5,2" d="M173.28,-197.5C235.06,-197.5 316.38,-197.5 377.46,-197.5"/>
<polygon fill="orange" stroke="orange" points="173.15,-194 163.15,-197.5 173.15,-201 173.15,-194"/>
</a>
</g>
<text text-anchor="start" x="196.5" y="-203" font-family="Helvetica,sans-Serif" font-size="10.00" fill="grey">&lt; Joukowsky, ActSrcDisk &gt;</text>
</g>
<!-- Node6 -->
<g id="Node000006" class="node">
<title>Node6</title>
<g id="a_Node000006"><a xlink:href="structkynema__sgf_1_1actuator_1_1ops_1_1_update_pos_op_3_01_turbine_fast_00_01_src_trait_01_4.html" target="_top" xlink:title=" ">
<polygon fill="white" stroke="#666666" points="545,-159 387,-159 387,-118 545,-118 545,-159"/>
<text text-anchor="start" x="395" y="-147" font-family="Helvetica,sans-Serif" font-size="10.00">kynema_sgf::actuator</text>
<text text-anchor="start" x="395" y="-136" font-family="Helvetica,sans-Serif" font-size="10.00">::ops::UpdatePosOp&lt; Turbine</text>
<text text-anchor="middle" x="466" y="-125" font-family="Helvetica,sans-Serif" font-size="10.00">Fast, SrcTrait &gt;</text>
</a>
</g>
</g>
<!-- Node1&#45;&gt;Node6 -->
<g id="edge5_Node000001_Node000006" class="edge">
<title>Node1&#45;&gt;Node6</title>
<g id="a_edge5_Node000001_Node000006"><a xlink:title=" ">
<path fill="none" stroke="orange" stroke-dasharray="5,2" d="M172.94,-177.94C175.65,-177.44 178.35,-176.96 181,-176.5 250.23,-164.51 329.53,-154.18 386.7,-147.33"/>
<polygon fill="orange" stroke="orange" points="172.21,-174.51 163.03,-179.8 173.51,-181.39 172.21,-174.51"/>
</a>
</g>
<text text-anchor="start" x="202.5" y="-182" font-family="Helvetica,sans-Serif" font-size="10.00" fill="grey">&lt; TurbineFast, SrcTrait &gt;</text>
</g>
<!-- Node7 -->
<g id="Node000007" class="node">
<title>Node7</title>
<g id="a_Node000007"><a xlink:href="structkynema__sgf_1_1actuator_1_1ops_1_1_update_pos_op_3_01_turbine_kynema_f_m_b_00_01_src_trait_01_4.html" target="_top" xlink:title=" ">
<polygon fill="white" stroke="#666666" points="545,-100 387,-100 387,-59 545,-59 545,-100"/>
<text text-anchor="start" x="395" y="-88" font-family="Helvetica,sans-Serif" font-size="10.00">kynema_sgf::actuator</text>
<text text-anchor="start" x="395" y="-77" font-family="Helvetica,sans-Serif" font-size="10.00">::ops::UpdatePosOp&lt; Turbine</text>
<text text-anchor="middle" x="466" y="-66" font-family="Helvetica,sans-Serif" font-size="10.00">KynemaFMB, SrcTrait &gt;</text>
</a>
</g>
</g>
<!-- Node1&#45;&gt;Node7 -->
<g id="edge6_Node000001_Node000007" class="edge">
<title>Node1&#45;&gt;Node7</title>
<g id="a_edge6_Node000001_Node000007"><a xlink:title=" ">
<path fill="none" stroke="orange" stroke-dasharray="5,2" d="M108.37,-169.23C126.77,-151.03 153.09,-128.59 181,-116.5 246.58,-88.08 328.06,-79.91 386.9,-78.21"/>
<polygon fill="orange" stroke="orange" points="105.51,-167.15 100.99,-176.73 110.5,-172.06 105.51,-167.15"/>
</a>
</g>
<text text-anchor="start" x="206.5" y="-137.5" font-family="Helvetica,sans-Serif" font-size="10.00" fill="grey">&lt; TurbineKynemaFMB,</text>
<text text-anchor="start" x="206.5" y="-122.5" font-family="Helvetica,sans-Serif" font-size="10.00" fill="grey">   SrcTrait &gt;</text>
</g>
<!-- Node8 -->
<g id="Node000008" class="node">
<title>Node8</title>
<g id="a_Node000008"><a xlink:href="structkynema__sgf_1_1actuator_1_1ops_1_1_update_pos_op_3_01_uniform_ct_00_01_act_src_disk_01_4.html" target="_top" xlink:title=" ">
<polygon fill="white" stroke="#666666" points="547.5,-41 384.5,-41 384.5,0 547.5,0 547.5,-41"/>
<text text-anchor="start" x="392.5" y="-29" font-family="Helvetica,sans-Serif" font-size="10.00">kynema_sgf::actuator</text>
<text text-anchor="start" x="392.5" y="-18" font-family="Helvetica,sans-Serif" font-size="10.00">::ops::UpdatePosOp&lt; Uniform</text>
<text text-anchor="middle" x="466" y="-7" font-family="Helvetica,sans-Serif" font-size="10.00">Ct, ActSrcDisk &gt;</text>
</a>
</g>
</g>
<!-- Node1&#45;&gt;Node8 -->
<g id="edge7_Node000001_Node000008" class="edge">
<title>Node1&#45;&gt;Node8</title>
<g id="a_edge7_Node000001_Node000008"><a xlink:title=" ">
<path fill="none" stroke="orange" stroke-dasharray="5,2" d="M95.13,-167.34C110.39,-134.93 139.34,-84.68 181,-59.5 242.23,-22.49 324.24,-14.75 384.39,-15.07"/>
<polygon fill="orange" stroke="orange" points="91.79,-166.23 90.83,-176.78 98.16,-169.13 91.79,-166.23"/>
</a>
</g>
<text text-anchor="start" x="196.5" y="-65" font-family="Helvetica,sans-Serif" font-size="10.00" fill="grey">&lt; UniformCt, ActSrcDisk &gt;</text>
</g>
</g>
</svg>

<g id="navigator" transform="translate(0 0)" fill="#404254">
  <rect fill="#f2f5e9" fill-opacity="0.5" stroke="#606060" stroke-width=".5" x="0" y="0" width="60" height="60"/>
  <use id="zoomplus" xlink:href="#zoomPlus" x="17" y="9" onmousedown="handleZoom(evt,'in')"/>
  <use id="zoomminus" xlink:href="#zoomMin" x="42" y="9" onmousedown="handleZoom(evt,'out')"/>
  <use id="reset" xlink:href="#resetDef" x="30" y="36" onmousedown="handleReset()"/>
   <use id="arrowup" xlink:href="#arrowUp" x="0" y="0" onmousedown="handlePan(0,-1)"/>
  <use id="arrowright" xlink:href="#arrowRight" x="0" y="0" onmousedown="handlePan(1,0)"/>
  <use id="arrowdown" xlink:href="#arrowDown" x="0" y="0" onmousedown="handlePan(0,1)"/>
  <use id="arrowleft" xlink:href="#arrowLeft" x="0" y="0" onmousedown="handlePan(-1,0)"/>
</g>
<svg viewBox="0 0 15 15" width="100%" height="30px" preserveAspectRatio="xMaxYMin meet">
 <g id="arrow_out" transform="scale(0.3 0.3)">
  <a xlink:href="structkynema__sgf_1_1actuator_1_1ops_1_1_update_pos_op__inherit__graph_org.svg" target="_base">
   <rect id="button" ry="5" rx="5" y="6" x="6" height="38" width="38"
        fill="#f2f5e9" fill-opacity="0.5" stroke="#606060" stroke-width="1.0"/>
   <path id="arrow"
     d="M 11.500037,31.436501 C 11.940474,20.09759 22.043105,11.32322 32.158766,21.979434 L 37.068811,17.246167 C 37.068811,17.246167 37.088388,32 37.088388,32 L 22.160133,31.978069 C 22.160133,31.978069 26.997745,27.140456 26.997745,27.140456 C 18.528582,18.264221 13.291696,25.230495 11.500037,31.436501 z"
     style="fill:#404040;"/>
  </a>
 </g>
</svg>

<style type='text/css'>
<![CDATA[
[data-mouse-over-selected='false'] { opacity: 0.7; }
[data-mouse-over-selected='true']  { opacity: 1.0; }
]]>
</style>
<script type="application/ecmascript"><![CDATA[
document.addEventListener('DOMContentLoaded', (event) => {
  highlightEdges();
  highlightAdjacentNodes();
});
]]></script>
</svg>
