<?xml version="1.0" encoding="UTF-8" standalone="no"?>
<!DOCTYPE svg PUBLIC "-//W3C//DTD SVG 1.1//EN"
 "http://www.w3.org/Graphics/SVG/1.1/DTD/svg11.dtd">
<!-- Generated by graphviz version 2.43.0 (0)
 -->
<!-- Title: kynema_sgf::actuator::ops::InitDataOp&lt; ActTrait, SrcTrait, typename &gt; Pages: 1 -->
<svg width="517pt" height="408pt"
 viewBox="0.00 0.00 517.00 407.50" xmlns="http://www.w3.org/2000/svg" xmlns:xlink="http://www.w3.org/1999/xlink">
<g id="graph0" class="graph" transform="scale(1 1) rotate(0) translate(4 403.5)">
<title>kynema_sgf::actuator::ops::InitDataOp&lt; ActTrait, SrcTrait, typename &gt;</title>
<!-- Node1 -->
<g id="Node000001" class="node">
<title>Node1</title>
<g id="a_Node000001"><a xlink:title=" ">
<polygon fill="#999999" stroke="#666666" points="149,-218 0,-218 0,-177 149,-177 149,-218"/>
<text text-anchor="start" x="8" y="-206" font-family="Helvetica,sans-Serif" font-size="10.00">kynema_sgf::actuator</text>
<text text-anchor="start" x="8" y="-195" font-family="Helvetica,sans-Serif" font-size="10.00">::ops::InitDataOp&lt; ActTrait,</text>
<text text-anchor="middle" x="74.5" y="-184" font-family="Helvetica,sans-Serif" font-size="10.00"> SrcTrait, typename &gt;</text>
</a>
</g>
</g>
<!-- Node2 -->
<g id="Node000002" class="node">
<title>Node2</title>
<g id="a_Node000002"><a xlink:href="structkynema__sgf_1_1actuator_1_1ops_1_1_init_data_op_3_01_actuator_sector_00_01_act_src_sector_01_4.html" target="_top" xlink:title=" ">
<polygon fill="white" stroke="#666666" points="492,-395 341,-395 341,-354 492,-354 492,-395"/>
<text text-anchor="start" x="349" y="-383" font-family="Helvetica,sans-Serif" font-size="10.00">kynema_sgf::actuator</text>
<text text-anchor="start" x="349" y="-372" font-family="Helvetica,sans-Serif" font-size="10.00">::ops::InitDataOp&lt; Actuator</text>
<text text-anchor="middle" x="416.5" y="-361" font-family="Helvetica,sans-Serif" font-size="10.00">Sector, ActSrcSector &gt;</text>
</a>
</g>
</g>
<!-- Node1&#45;&gt;Node2 -->
<g id="edge1_Node000001_Node000002" class="edge">
<title>Node1&#45;&gt;Node2</title>
<g id="a_edge1_Node000001_Node000002"><a xlink:title=" ">
<path fill="none" stroke="orange" stroke-dasharray="5,2" d="M89.55,-227.48C104.6,-256.19 131.24,-298.45 167,-321.5 219,-355.02 288.61,-367.72 340.92,-372.35"/>
<polygon fill="orange" stroke="orange" points="92.54,-225.64 84.89,-218.31 86.3,-228.81 92.54,-225.64"/>
</a>
</g>
<text text-anchor="start" x="176.5" y="-388.5" font-family="Helvetica,sans-Serif" font-size="10.00" fill="grey">&lt; ActuatorSector, ActSrc</text>
<text text-anchor="start" x="176.5" y="-373.5" font-family="Helvetica,sans-Serif" font-size="10.00" fill="grey">  Sector &gt;</text>
</g>
<!-- Node3 -->
<g id="Node000003" class="node">
<title>Node3</title>
<g id="a_Node000003"><a xlink:href="structkynema__sgf_1_1actuator_1_1ops_1_1_init_data_op_3_01_fixed_wing_00_01_act_src_line_01_4.html" target="_top" xlink:title=" ">
<polygon fill="white" stroke="#666666" points="498,-336 335,-336 335,-295 498,-295 498,-336"/>
<text text-anchor="start" x="343" y="-324" font-family="Helvetica,sans-Serif" font-size="10.00">kynema_sgf::actuator</text>
<text text-anchor="start" x="343" y="-313" font-family="Helvetica,sans-Serif" font-size="10.00">::ops::InitDataOp&lt; FixedWing,</text>
<text text-anchor="middle" x="416.5" y="-302" font-family="Helvetica,sans-Serif" font-size="10.00"> ActSrcLine &gt;</text>
</a>
</g>
</g>
<!-- Node1&#45;&gt;Node3 -->
<g id="edge2_Node000001_Node000003" class="edge">
<title>Node1&#45;&gt;Node3</title>
<g id="a_edge2_Node000001_Node000003"><a xlink:title=" ">
<path fill="none" stroke="orange" stroke-dasharray="5,2" d="M107,-224.23C123.83,-237.25 145.48,-252.09 167,-261.5 220.5,-284.89 285.04,-298.52 334.94,-306.24"/>
<polygon fill="orange" stroke="orange" points="109.16,-221.47 99.14,-218.01 104.81,-226.96 109.16,-221.47"/>
</a>
</g>
<text text-anchor="start" x="171.5" y="-306" font-family="Helvetica,sans-Serif" font-size="10.00" fill="grey">&lt; FixedWing, ActSrcLine &gt;</text>
</g>
<!-- Node4 -->
<g id="Node000004" class="node">
<title>Node4</title>
<g id="a_Node000004"><a xlink:href="structkynema__sgf_1_1actuator_1_1ops_1_1_init_data_op_3_01_flat_plate_00_01_act_src_line_01_4.html" target="_top" xlink:title=" ">
<polygon fill="white" stroke="#666666" points="494.5,-277 338.5,-277 338.5,-236 494.5,-236 494.5,-277"/>
<text text-anchor="start" x="346.5" y="-265" font-family="Helvetica,sans-Serif" font-size="10.00">kynema_sgf::actuator</text>
<text text-anchor="start" x="346.5" y="-254" font-family="Helvetica,sans-Serif" font-size="10.00">::ops::InitDataOp&lt; FlatPlate,</text>
<text text-anchor="middle" x="416.5" y="-243" font-family="Helvetica,sans-Serif" font-size="10.00"> ActSrcLine &gt;</text>
</a>
</g>
</g>
<!-- Node1&#45;&gt;Node4 -->
<g id="edge3_Node000001_Node000004" class="edge">
<title>Node1&#45;&gt;Node4</title>
<g id="a_edge3_Node000001_Node000004"><a xlink:title=" ">
<path fill="none" stroke="orange" stroke-dasharray="5,2" d="M159.34,-217C161.92,-217.52 164.48,-218.02 167,-218.5 224.12,-229.41 289.11,-239.26 338.29,-246.19"/>
<polygon fill="orange" stroke="orange" points="159.81,-213.52 149.31,-214.93 158.4,-220.38 159.81,-213.52"/>
</a>
</g>
<text text-anchor="start" x="174.5" y="-246" font-family="Helvetica,sans-Serif" font-size="10.00" fill="grey">&lt; FlatPlate, ActSrcLine &gt;</text>
</g>
<!-- Node5 -->
<g id="Node000005" class="node">
<title>Node5</title>
<g id="a_Node000005"><a xlink:href="structkynema__sgf_1_1actuator_1_1ops_1_1_init_data_op_3_01_joukowsky_00_01_act_src_disk_01_4.html" target="_top" xlink:title=" ">
<polygon fill="white" stroke="#666666" points="498.5,-218 334.5,-218 334.5,-177 498.5,-177 498.5,-218"/>
<text text-anchor="start" x="342.5" y="-206" font-family="Helvetica,sans-Serif" font-size="10.00">kynema_sgf::actuator</text>
<text text-anchor="start" x="342.5" y="-195" font-family="Helvetica,sans-Serif" font-size="10.00">::ops::InitDataOp&lt; Joukowsky,</text>
<text text-anchor="middle" x="416.5" y="-184" font-family="Helvetica,sans-Serif" font-size="10.00"> ActSrcDisk &gt;</text>
</a>
</g>
</g>
<!-- Node1&#45;&gt;Node5 -->
<g id="edge4_Node000001_Node000005" class="edge">
<title>Node1&#45;&gt;Node5</title>
<g id="a_edge4_Node000001_Node000005"><a xlink:title=" ">
<path fill="none" stroke="orange" stroke-dasharray="5,2" d="M159.4,-197.5C212.8,-197.5 281.59,-197.5 334.43,-197.5"/>
<polygon fill="orange" stroke="orange" points="159.27,-194 149.27,-197.5 159.27,-201 159.27,-194"/>
</a>
</g>
<text text-anchor="start" x="170.5" y="-203" font-family="Helvetica,sans-Serif" font-size="10.00" fill="grey">&lt; Joukowsky, ActSrcDisk &gt;</text>
</g>
<!-- Node6 -->
<g id="Node000006" class="node">
<title>Node6</title>
<g id="a_Node000006"><a xlink:href="structkynema__sgf_1_1actuator_1_1ops_1_1_init_data_op_3_01_turbine_fast_00_01_src_trait_01_4.html" target="_top" xlink:title=" ">
<polygon fill="white" stroke="#666666" points="500,-159 333,-159 333,-118 500,-118 500,-159"/>
<text text-anchor="start" x="341" y="-147" font-family="Helvetica,sans-Serif" font-size="10.00">kynema_sgf::actuator</text>
<text text-anchor="start" x="341" y="-136" font-family="Helvetica,sans-Serif" font-size="10.00">::ops::InitDataOp&lt; TurbineFast,</text>
<text text-anchor="middle" x="416.5" y="-125" font-family="Helvetica,sans-Serif" font-size="10.00"> SrcTrait &gt;</text>
</a>
</g>
</g>
<!-- Node1&#45;&gt;Node6 -->
<g id="edge5_Node000001_Node000006" class="edge">
<title>Node1&#45;&gt;Node6</title>
<g id="a_edge5_Node000001_Node000006"><a xlink:title=" ">
<path fill="none" stroke="orange" stroke-dasharray="5,2" d="M159.34,-178C161.92,-177.48 164.48,-176.98 167,-176.5 222.09,-165.98 284.48,-156.45 332.97,-149.56"/>
<polygon fill="orange" stroke="orange" points="158.4,-174.62 149.31,-180.07 159.81,-181.48 158.4,-174.62"/>
</a>
</g>
<text text-anchor="start" x="176.5" y="-182" font-family="Helvetica,sans-Serif" font-size="10.00" fill="grey">&lt; TurbineFast, SrcTrait &gt;</text>
</g>
<!-- Node7 -->
<g id="Node000007" class="node">
<title>Node7</title>
<g id="a_Node000007"><a xlink:href="structkynema__sgf_1_1actuator_1_1ops_1_1_init_data_op_3_01_turbine_kynema_f_m_b_00_01_src_trait_01_4.html" target="_top" xlink:title=" ">
<polygon fill="white" stroke="#666666" points="509,-100 324,-100 324,-59 509,-59 509,-100"/>
<text text-anchor="start" x="332" y="-88" font-family="Helvetica,sans-Serif" font-size="10.00">kynema_sgf::actuator</text>
<text text-anchor="start" x="332" y="-77" font-family="Helvetica,sans-Serif" font-size="10.00">::ops::InitDataOp&lt; TurbineKynema</text>
<text text-anchor="middle" x="416.5" y="-66" font-family="Helvetica,sans-Serif" font-size="10.00">FMB, SrcTrait &gt;</text>
</a>
</g>
</g>
<!-- Node1&#45;&gt;Node7 -->
<g id="edge6_Node000001_Node000007" class="edge">
<title>Node1&#45;&gt;Node7</title>
<g id="a_edge6_Node000001_Node000007"><a xlink:title=" ">
<path fill="none" stroke="orange" stroke-dasharray="5,2" d="M99.63,-169.41C116.6,-151.58 140.88,-129.64 167,-117.5 215.88,-94.78 275.43,-85.14 323.98,-81.24"/>
<polygon fill="orange" stroke="orange" points="97.04,-167.05 92.81,-176.77 102.18,-171.81 97.04,-167.05"/>
</a>
</g>
<text text-anchor="start" x="180.5" y="-138.5" font-family="Helvetica,sans-Serif" font-size="10.00" fill="grey">&lt; TurbineKynemaFMB,</text>
<text text-anchor="start" x="180.5" y="-123.5" font-family="Helvetica,sans-Serif" font-size="10.00" fill="grey">   SrcTrait &gt;</text>
</g>
<!-- Node8 -->
<g id="Node000008" class="node">
<title>Node8</title>
<g id="a_Node000008"><a xlink:href="structkynema__sgf_1_1actuator_1_1ops_1_1_init_data_op_3_01_uniform_ct_00_01_act_src_disk_01_4.html" target="_top" xlink:title=" ">
<polygon fill="white" stroke="#666666" points="498,-41 335,-41 335,0 498,0 498,-41"/>
<text text-anchor="start" x="343" y="-29" font-family="Helvetica,sans-Serif" font-size="10.00">kynema_sgf::actuator</text>
<text text-anchor="start" x="343" y="-18" font-family="Helvetica,sans-Serif" font-size="10.00">::ops::InitDataOp&lt; UniformCt,</text>
<text text-anchor="middle" x="416.5" y="-7" font-family="Helvetica,sans-Serif" font-size="10.00"> ActSrcDisk &gt;</text>
</a>
</g>
</g>
<!-- Node1&#45;&gt;Node8 -->
<g id="edge7_Node000001_Node000008" class="edge">
<title>Node1&#45;&gt;Node8</title>
<g id="a_edge7_Node000001_Node000008"><a xlink:title=" ">
<path fill="none" stroke="orange" stroke-dasharray="5,2" d="M87.01,-167.75C100.92,-136 127.51,-86.87 167,-61.5 216.66,-29.59 283.05,-19.94 334.72,-17.94"/>
<polygon fill="orange" stroke="orange" points="83.77,-166.42 83.09,-177 90.21,-169.15 83.77,-166.42"/>
</a>
</g>
<text text-anchor="start" x="170.5" y="-67" font-family="Helvetica,sans-Serif" font-size="10.00" fill="grey">&lt; UniformCt, ActSrcDisk &gt;</text>
</g>
</g>
</svg>
