<?xml version="1.0" encoding="UTF-8" standalone="no"?>
<!DOCTYPE svg PUBLIC "-//W3C//DTD SVG 1.1//EN"
 "http://www.w3.org/Graphics/SVG/1.1/DTD/svg11.dtd">
<!-- Generated by graphviz version 2.43.0 (0)
 -->
<!-- Title: kynema_sgf::pde::AdvectionOp&lt; VOF, fvm::Godunov &gt; Pages: 1 -->
<svg width="1973pt" height="303pt"
 viewBox="0.00 0.00 1973.00 302.92" xmlns="http://www.w3.org/2000/svg" xmlns:xlink="http://www.w3.org/1999/xlink">
<g id="graph0" class="graph" transform="scale(1 1) rotate(0) translate(4 298.92)">
<title>kynema_sgf::pde::AdvectionOp&lt; VOF, fvm::Godunov &gt;</title>
<!-- Node1 -->
<g id="Node000001" class="node">
<title>Node1</title>
<g id="a_Node000001"><a xlink:title=" ">
<polygon fill="#999999" stroke="#666666" points="1965,-151.92 1811,-151.92 1811,-121.92 1965,-121.92 1965,-151.92"/>
<text text-anchor="start" x="1819" y="-139.92" font-family="Helvetica,sans-Serif" font-size="10.00">kynema_sgf::pde::Advection</text>
<text text-anchor="middle" x="1888" y="-128.92" font-family="Helvetica,sans-Serif" font-size="10.00">Op&lt; VOF, fvm::Godunov &gt;</text>
</a>
</g>
</g>
<!-- Node2 -->
<g id="Node000002" class="node">
<title>Node2</title>
<g id="a_Node000002"><a xlink:href="classkynema__sgf_1_1_sim_time.html" target="_top" xlink:title=" ">
<polygon fill="white" stroke="#666666" points="1043,-287.42 918,-287.42 918,-268.42 1043,-268.42 1043,-287.42"/>
<text text-anchor="middle" x="980.5" y="-275.42" font-family="Helvetica,sans-Serif" font-size="10.00">kynema_sgf::SimTime</text>
</a>
</g>
</g>
<!-- Node2&#45;&gt;Node1 -->
<g id="edge1_Node000001_Node000002" class="edge">
<title>Node2&#45;&gt;Node1</title>
<g id="a_edge1_Node000001_Node000002"><a xlink:title=" ">
<path fill="none" stroke="#9a32cd" stroke-dasharray="5,2" d="M1053.09,-277.92C1104.87,-277.92 1176.51,-277.92 1239.5,-277.92 1239.5,-277.92 1239.5,-277.92 1565.5,-277.92 1689.83,-277.92 1820.17,-188.39 1867.98,-152.01"/>
<polygon fill="#9a32cd" stroke="#9a32cd" points="1053.01,-274.42 1043.01,-277.92 1053.01,-281.42 1053.01,-274.42"/>
</a>
</g>
<text text-anchor="start" x="1313" y="-283.42" font-family="Helvetica,sans-Serif" font-size="10.00" fill="grey">m_time</text>
</g>
<!-- Node3 -->
<g id="Node000003" class="node">
<title>Node3</title>
<g id="a_Node000003"><a xlink:title=" ">
<polygon fill="white" stroke="#666666" points="580,-287.42 468,-287.42 468,-268.42 580,-268.42 580,-287.42"/>
<text text-anchor="middle" x="524" y="-275.42" font-family="Helvetica,sans-Serif" font-size="10.00">std::vector&lt; bool &gt;</text>
</a>
</g>
</g>
<!-- Node3&#45;&gt;Node2 -->
<g id="edge2_Node000002_Node000003" class="edge">
<title>Node3&#45;&gt;Node2</title>
<g id="a_edge2_Node000002_Node000003"><a xlink:title=" ">
<path fill="none" stroke="#9a32cd" stroke-dasharray="5,2" d="M590.35,-277.92C677.88,-277.92 832.06,-277.92 917.72,-277.92"/>
<polygon fill="#9a32cd" stroke="#9a32cd" points="590.28,-274.42 580.28,-277.92 590.28,-281.42 590.28,-274.42"/>
</a>
</g>
<text text-anchor="start" x="625.5" y="-283.42" font-family="Helvetica,sans-Serif" font-size="10.00" fill="grey">m_postprocess_enforce_dt</text>
</g>
<!-- Node4 -->
<g id="Node000004" class="node">
<title>Node4</title>
<g id="a_Node000004"><a xlink:title=" ">
<polygon fill="white" stroke="#666666" points="238,-286.42 141,-286.42 141,-267.42 238,-267.42 238,-286.42"/>
<text text-anchor="middle" x="189.5" y="-274.42" font-family="Helvetica,sans-Serif" font-size="10.00">std::vector&lt; T &gt;</text>
</a>
</g>
</g>
<!-- Node4&#45;&gt;Node3 -->
<g id="edge3_Node000003_Node000004" class="edge">
<title>Node4&#45;&gt;Node3</title>
<g id="a_edge3_Node000003_Node000004"><a xlink:title=" ">
<path fill="none" stroke="orange" stroke-dasharray="5,2" d="M248.49,-277.1C310.28,-277.28 407.35,-277.58 467.98,-277.76"/>
<polygon fill="orange" stroke="orange" points="248.15,-273.6 238.14,-277.07 248.13,-280.6 248.15,-273.6"/>
</a>
</g>
<text text-anchor="start" x="331" y="-282.42" font-family="Helvetica,sans-Serif" font-size="10.00" fill="grey">&lt; bool &gt;</text>
</g>
<!-- Node5 -->
<g id="Node000005" class="node">
<title>Node5</title>
<g id="a_Node000005"><a xlink:title=" ">
<polygon fill="white" stroke="#666666" points="29,-168.42 0,-168.42 0,-149.42 29,-149.42 29,-168.42"/>
<text text-anchor="middle" x="14.5" y="-156.42" font-family="Helvetica,sans-Serif" font-size="10.00">T</text>
</a>
</g>
</g>
<!-- Node5&#45;&gt;Node4 -->
<g id="edge4_Node000004_Node000005" class="edge">
<title>Node5&#45;&gt;Node4</title>
<g id="a_edge4_Node000004_Node000005"><a xlink:title=" ">
<path fill="none" stroke="#9a32cd" stroke-dasharray="5,2" d="M25.23,-177.56C30.82,-187.25 38.42,-198.92 47,-207.92 73.37,-235.61 82.41,-241.64 117,-257.92 125.02,-261.7 133.91,-264.82 142.62,-267.36"/>
<polygon fill="#9a32cd" stroke="#9a32cd" points="28.24,-175.78 20.35,-168.71 22.11,-179.15 28.24,-175.78"/>
</a>
</g>
<text text-anchor="start" x="50" y="-254.42" font-family="Helvetica,sans-Serif" font-size="10.00" fill="grey">elements</text>
</g>
<!-- Node11 -->
<g id="Node000011" class="node">
<title>Node11</title>
<g id="a_Node000011"><a xlink:title=" ">
<polygon fill="white" stroke="#666666" points="581,-225.92 467,-225.92 467,-195.92 581,-195.92 581,-225.92"/>
<text text-anchor="start" x="475" y="-213.92" font-family="Helvetica,sans-Serif" font-size="10.00">std::unordered_map</text>
<text text-anchor="middle" x="524" y="-202.92" font-family="Helvetica,sans-Serif" font-size="10.00">&lt; K, T &gt;</text>
</a>
</g>
</g>
<!-- Node5&#45;&gt;Node11 -->
<g id="edge12_Node000011_Node000005" class="edge">
<title>Node5&#45;&gt;Node11</title>
<g id="a_edge12_Node000011_Node000005"><a xlink:title=" ">
<path fill="none" stroke="#9a32cd" stroke-dasharray="5,2" d="M39.09,-161.34C115.28,-169.15 356.28,-193.84 466.72,-205.16"/>
<polygon fill="#9a32cd" stroke="#9a32cd" points="39.38,-157.85 29.07,-160.31 38.67,-164.82 39.38,-157.85"/>
</a>
</g>
<text text-anchor="start" x="166.5" y="-190.42" font-family="Helvetica,sans-Serif" font-size="10.00" fill="grey">elements</text>
</g>
<!-- Node18 -->
<g id="Node000018" class="node">
<title>Node18</title>
<g id="a_Node000018"><a xlink:title=" ">
<polygon fill="white" stroke="#666666" points="248.5,-61.42 130.5,-61.42 130.5,-42.42 248.5,-42.42 248.5,-61.42"/>
<text text-anchor="middle" x="189.5" y="-49.42" font-family="Helvetica,sans-Serif" font-size="10.00">std::unique_ptr&lt; T &gt;</text>
</a>
</g>
</g>
<!-- Node5&#45;&gt;Node18 -->
<g id="edge22_Node000018_Node000005" class="edge">
<title>Node5&#45;&gt;Node18</title>
<g id="a_edge22_Node000018_Node000005"><a xlink:title=" ">
<path fill="none" stroke="#9a32cd" stroke-dasharray="5,2" d="M30.43,-141.95C48.84,-122.05 82.04,-89.44 117,-70.92 124.26,-67.08 132.37,-63.97 140.43,-61.46"/>
<polygon fill="#9a32cd" stroke="#9a32cd" points="27.81,-139.63 23.69,-149.39 33,-144.33 27.81,-139.63"/>
</a>
</g>
<text text-anchor="start" x="66" y="-129.42" font-family="Helvetica,sans-Serif" font-size="10.00" fill="grey">ptr</text>
</g>
<!-- Node19 -->
<g id="Node000019" class="node">
<title>Node19</title>
<g id="a_Node000019"><a xlink:title=" ">
<polygon fill="white" stroke="#666666" points="412,-23.42 294,-23.42 294,-4.42 412,-4.42 412,-23.42"/>
<text text-anchor="middle" x="353" y="-11.42" font-family="Helvetica,sans-Serif" font-size="10.00">std::shared_ptr&lt; T &gt;</text>
</a>
</g>
</g>
<!-- Node5&#45;&gt;Node19 -->
<g id="edge24_Node000019_Node000005" class="edge">
<title>Node5&#45;&gt;Node19</title>
<g id="a_edge24_Node000019_Node000005"><a xlink:title=" ">
<path fill="none" stroke="#9a32cd" stroke-dasharray="5,2" d="M17.08,-139.12C19.79,-117.59 27.14,-83.42 47,-61.92 110.21,6.47 228.12,4.14 297.35,-4.42"/>
<polygon fill="#9a32cd" stroke="#9a32cd" points="13.57,-139.04 16.02,-149.35 20.53,-139.76 13.57,-139.04"/>
</a>
</g>
<text text-anchor="start" x="66" y="-67.42" font-family="Helvetica,sans-Serif" font-size="10.00" fill="grey">ptr</text>
</g>
<!-- Node6 -->
<g id="Node000006" class="node">
<title>Node6</title>
<g id="a_Node000006"><a xlink:href="structkynema__sgf_1_1pde_1_1_p_d_e_fields.html" target="_top" xlink:title=" ">
<polygon fill="white" stroke="#666666" points="1641,-184.42 1488,-184.42 1488,-165.42 1641,-165.42 1641,-184.42"/>
<text text-anchor="middle" x="1564.5" y="-172.42" font-family="Helvetica,sans-Serif" font-size="10.00">kynema_sgf::pde::PDEFields</text>
</a>
</g>
</g>
<!-- Node6&#45;&gt;Node1 -->
<g id="edge5_Node000001_Node000006" class="edge">
<title>Node6&#45;&gt;Node1</title>
<g id="a_edge5_Node000001_Node000006"><a xlink:title=" ">
<path fill="none" stroke="#9a32cd" stroke-dasharray="5,2" d="M1651.37,-164.78C1701.03,-158.9 1762.98,-151.58 1810.89,-145.92"/>
<polygon fill="#9a32cd" stroke="#9a32cd" points="1650.8,-161.32 1641.28,-165.97 1651.63,-168.27 1650.8,-161.32"/>
</a>
</g>
<text text-anchor="start" x="1718" y="-168.42" font-family="Helvetica,sans-Serif" font-size="10.00" fill="grey">fields</text>
</g>
<!-- Node7 -->
<g id="Node000007" class="node">
<title>Node7</title>
<g id="a_Node000007"><a xlink:href="classkynema__sgf_1_1_field_repo.html" target="_top" xlink:title=" ">
<polygon fill="white" stroke="#666666" points="1195.5,-195.42 1066.5,-195.42 1066.5,-176.42 1195.5,-176.42 1195.5,-195.42"/>
<text text-anchor="middle" x="1131" y="-183.42" font-family="Helvetica,sans-Serif" font-size="10.00">kynema_sgf::FieldRepo</text>
</a>
</g>
</g>
<!-- Node7&#45;&gt;Node6 -->
<g id="edge6_Node000006_Node000007" class="edge">
<title>Node7&#45;&gt;Node6</title>
<g id="a_edge6_Node000006_Node000007"><a xlink:title=" ">
<path fill="none" stroke="#9a32cd" stroke-dasharray="5,2" d="M1183.16,-197.45C1248,-210.32 1362.98,-227.31 1460,-210.92 1489.64,-205.92 1522.12,-193.38 1542.64,-184.51"/>
<polygon fill="#9a32cd" stroke="#9a32cd" points="1183.7,-193.99 1173.2,-195.43 1182.3,-200.85 1183.7,-193.99"/>
</a>
</g>
<text text-anchor="start" x="1321" y="-223.42" font-family="Helvetica,sans-Serif" font-size="10.00" fill="grey">repo</text>
</g>
<!-- Node13 -->
<g id="Node000013" class="node">
<title>Node13</title>
<g id="a_Node000013"><a xlink:href="classkynema__sgf_1_1_field.html" target="_top" xlink:title=" ">
<polygon fill="white" stroke="#666666" points="1384,-142.42 1280,-142.42 1280,-123.42 1384,-123.42 1384,-142.42"/>
<text text-anchor="middle" x="1332" y="-130.42" font-family="Helvetica,sans-Serif" font-size="10.00">kynema_sgf::Field</text>
</a>
</g>
</g>
<!-- Node7&#45;&gt;Node13 -->
<g id="edge14_Node000013_Node000007" class="edge">
<title>Node7&#45;&gt;Node13</title>
<g id="a_edge14_Node000013_Node000007"><a xlink:title=" ">
<path fill="none" stroke="#9a32cd" stroke-dasharray="5,2" d="M1178.87,-173.82C1203.61,-167.39 1234.47,-159.31 1262,-151.92 1273.28,-148.9 1285.58,-145.53 1296.63,-142.48"/>
<polygon fill="#9a32cd" stroke="#9a32cd" points="1177.82,-170.48 1169.02,-176.38 1179.58,-177.25 1177.82,-170.48"/>
</a>
</g>
<text text-anchor="start" x="1222.5" y="-169.42" font-family="Helvetica,sans-Serif" font-size="10.00" fill="grey">m_repo</text>
</g>
<!-- Node8 -->
<g id="Node000008" class="node">
<title>Node8</title>
<g id="a_Node000008"><a xlink:title=" ">
<polygon fill="white" stroke="#666666" points="899.5,-200.92 777.5,-200.92 777.5,-170.92 899.5,-170.92 899.5,-200.92"/>
<text text-anchor="start" x="785.5" y="-188.92" font-family="Helvetica,sans-Serif" font-size="10.00">std::unordered_map</text>
<text text-anchor="middle" x="838.5" y="-177.92" font-family="Helvetica,sans-Serif" font-size="10.00">&lt; std::string, size_t &gt;</text>
</a>
</g>
</g>
<!-- Node8&#45;&gt;Node7 -->
<g id="edge7_Node000007_Node000008" class="edge">
<title>Node8&#45;&gt;Node7</title>
<g id="a_edge7_Node000007_Node000008"><a xlink:title=" ">
<path fill="none" stroke="#9a32cd" stroke-dasharray="5,2" d="M909.94,-185.92C957.65,-185.92 1020.16,-185.92 1066.36,-185.92"/>
<polygon fill="#9a32cd" stroke="#9a32cd" points="909.69,-182.42 899.69,-185.92 909.69,-189.42 909.69,-182.42"/>
</a>
</g>
<text text-anchor="start" x="944.5" y="-206.92" font-family="Helvetica,sans-Serif" font-size="10.00" fill="grey">m_fid_map</text>
<text text-anchor="start" x="944.5" y="-191.92" font-family="Helvetica,sans-Serif" font-size="10.00" fill="grey">m_int_fid_map</text>
</g>
<!-- Node9 -->
<g id="Node000009" class="node">
<title>Node9</title>
<g id="a_Node000009"><a xlink:title=" ">
<polygon fill="white" stroke="#666666" points="556.5,-149.42 491.5,-149.42 491.5,-130.42 556.5,-130.42 556.5,-149.42"/>
<text text-anchor="middle" x="524" y="-137.42" font-family="Helvetica,sans-Serif" font-size="10.00">std::string</text>
</a>
</g>
</g>
<!-- Node9&#45;&gt;Node8 -->
<g id="edge8_Node000008_Node000009" class="edge">
<title>Node9&#45;&gt;Node8</title>
<g id="a_edge8_Node000008_Node000009"><a xlink:title=" ">
<path fill="none" stroke="#9a32cd" stroke-dasharray="5,2" d="M566.94,-145.14C613.82,-151.09 691.97,-161.37 759,-171.92 764.88,-172.85 771,-173.86 777.11,-174.9"/>
<polygon fill="#9a32cd" stroke="#9a32cd" points="567.21,-141.64 556.85,-143.86 566.34,-148.59 567.21,-141.64"/>
</a>
</g>
<text text-anchor="start" x="679.5" y="-177.42" font-family="Helvetica,sans-Serif" font-size="10.00" fill="grey">keys</text>
</g>
<!-- Node9&#45;&gt;Node13 -->
<g id="edge15_Node000013_Node000009" class="edge">
<title>Node9&#45;&gt;Node13</title>
<g id="a_edge15_Node000013_Node000009"><a xlink:title=" ">
<path fill="none" stroke="#9a32cd" stroke-dasharray="5,2" d="M566.99,-139.56C703.05,-138.38 1131.46,-134.66 1279.83,-133.37"/>
<polygon fill="#9a32cd" stroke="#9a32cd" points="566.57,-136.06 556.6,-139.65 566.63,-143.06 566.57,-136.06"/>
</a>
</g>
<text text-anchor="start" x="959.5" y="-142.42" font-family="Helvetica,sans-Serif" font-size="10.00" fill="grey">m_name</text>
</g>
<!-- Node15 -->
<g id="Node000015" class="node">
<title>Node15</title>
<g id="a_Node000015"><a xlink:href="structkynema__sgf_1_1_field_info.html" target="_top" xlink:title=" ">
<polygon fill="white" stroke="#666666" points="900,-90.42 777,-90.42 777,-71.42 900,-71.42 900,-90.42"/>
<text text-anchor="middle" x="838.5" y="-78.42" font-family="Helvetica,sans-Serif" font-size="10.00">kynema_sgf::FieldInfo</text>
</a>
</g>
</g>
<!-- Node9&#45;&gt;Node15 -->
<g id="edge18_Node000015_Node000009" class="edge">
<title>Node9&#45;&gt;Node15</title>
<g id="a_edge18_Node000015_Node000009"><a xlink:title=" ">
<path fill="none" stroke="#9a32cd" stroke-dasharray="5,2" d="M557.97,-126.8C576.51,-119.9 600.24,-111.88 622,-106.92 673.44,-95.2 733.07,-88.53 776.54,-84.88"/>
<polygon fill="#9a32cd" stroke="#9a32cd" points="556.63,-123.56 548.52,-130.38 559.11,-130.11 556.63,-123.56"/>
</a>
</g>
<text text-anchor="start" x="657.5" y="-112.42" font-family="Helvetica,sans-Serif" font-size="10.00" fill="grey">m_basename</text>
</g>
<!-- Node10 -->
<g id="Node000010" class="node">
<title>Node10</title>
<g id="a_Node000010"><a xlink:title=" ">
<polygon fill="white" stroke="#666666" points="241.5,-157.92 137.5,-157.92 137.5,-127.92 241.5,-127.92 241.5,-157.92"/>
<text text-anchor="start" x="145.5" y="-145.92" font-family="Helvetica,sans-Serif" font-size="10.00">std::basic_string&lt;</text>
<text text-anchor="middle" x="189.5" y="-134.92" font-family="Helvetica,sans-Serif" font-size="10.00"> Char &gt;</text>
</a>
</g>
</g>
<!-- Node10&#45;&gt;Node9 -->
<g id="edge9_Node000009_Node000010" class="edge">
<title>Node10&#45;&gt;Node9</title>
<g id="a_edge9_Node000009_Node000010"><a xlink:title=" ">
<path fill="none" stroke="#63b8ff" d="M251.85,-142.37C322.64,-141.73 436.34,-140.71 491.27,-140.21"/>
<polygon fill="#63b8ff" stroke="#63b8ff" points="251.69,-138.87 241.72,-142.46 251.76,-145.87 251.69,-138.87"/>
</a>
</g>
</g>
<!-- Node11&#45;&gt;Node8 -->
<g id="edge10_Node000008_Node000011" class="edge">
<title>Node11&#45;&gt;Node8</title>
<g id="a_edge10_Node000008_Node000011"><a xlink:title=" ">
<path fill="none" stroke="orange" stroke-dasharray="5,2" d="M591.25,-205.62C646.36,-201.22 724.15,-194.99 777.46,-190.73"/>
<polygon fill="orange" stroke="orange" points="590.92,-202.14 581.23,-206.43 591.48,-209.12 590.92,-202.14"/>
</a>
</g>
<text text-anchor="start" x="637.5" y="-208.42" font-family="Helvetica,sans-Serif" font-size="10.00" fill="grey">&lt; std::string, size_t &gt;</text>
</g>
<!-- Node12 -->
<g id="Node000012" class="node">
<title>Node12</title>
<g id="a_Node000012"><a xlink:title=" ">
<polygon fill="white" stroke="#666666" points="204,-248.42 175,-248.42 175,-229.42 204,-229.42 204,-248.42"/>
<text text-anchor="middle" x="189.5" y="-236.42" font-family="Helvetica,sans-Serif" font-size="10.00">K</text>
</a>
</g>
</g>
<!-- Node12&#45;&gt;Node11 -->
<g id="edge11_Node000011_Node000012" class="edge">
<title>Node12&#45;&gt;Node11</title>
<g id="a_edge11_Node000011_Node000012"><a xlink:title=" ">
<path fill="none" stroke="#9a32cd" stroke-dasharray="5,2" d="M214.38,-236.91C266.77,-232.5 393.02,-221.87 466.8,-215.66"/>
<polygon fill="#9a32cd" stroke="#9a32cd" points="214.03,-233.43 204.36,-237.76 214.62,-240.4 214.03,-233.43"/>
</a>
</g>
<text text-anchor="start" x="342" y="-236.42" font-family="Helvetica,sans-Serif" font-size="10.00" fill="grey">keys</text>
</g>
<!-- Node13&#45;&gt;Node1 -->
<g id="edge25_Node000001_Node000013" class="edge">
<title>Node13&#45;&gt;Node1</title>
<g id="a_edge25_Node000001_Node000013"><a xlink:title=" ">
<path fill="none" stroke="#9a32cd" stroke-dasharray="5,2" d="M1388.16,-121.51C1415.12,-116.52 1448.11,-111.27 1478,-108.92 1554.65,-102.91 1574.25,-104.39 1651,-108.92 1704.65,-112.1 1764.8,-119.29 1810.94,-125.59"/>
<polygon fill="#9a32cd" stroke="#9a32cd" points="1387.32,-118.11 1378.15,-123.4 1388.62,-124.98 1387.32,-118.11"/>
</a>
</g>
<text text-anchor="start" x="1547.5" y="-144.42" font-family="Helvetica,sans-Serif" font-size="10.00" fill="grey">u_mac</text>
<text text-anchor="start" x="1547.5" y="-129.42" font-family="Helvetica,sans-Serif" font-size="10.00" fill="grey">v_mac</text>
<text text-anchor="start" x="1547.5" y="-114.42" font-family="Helvetica,sans-Serif" font-size="10.00" fill="grey">w_mac</text>
</g>
<!-- Node13&#45;&gt;Node6 -->
<g id="edge13_Node000006_Node000013" class="edge">
<title>Node13&#45;&gt;Node6</title>
<g id="a_edge13_Node000006_Node000013"><a xlink:title=" ">
<path fill="none" stroke="#9a32cd" stroke-dasharray="5,2" d="M1394.12,-124.42C1415.62,-123.74 1439.51,-125.69 1460,-133.92 1470.21,-138.03 1468.42,-145.5 1478,-150.92 1489,-157.15 1501.73,-161.85 1513.94,-165.37"/>
<polygon fill="#9a32cd" stroke="#9a32cd" points="1393.92,-120.93 1384.11,-124.93 1394.28,-127.92 1393.92,-120.93"/>
</a>
</g>
<text text-anchor="start" x="1405" y="-199.42" font-family="Helvetica,sans-Serif" font-size="10.00" fill="grey">conv_term</text>
<text text-anchor="start" x="1405" y="-184.42" font-family="Helvetica,sans-Serif" font-size="10.00" fill="grey">diff_term</text>
<text text-anchor="start" x="1405" y="-169.42" font-family="Helvetica,sans-Serif" font-size="10.00" fill="grey">field</text>
<text text-anchor="start" x="1405" y="-154.42" font-family="Helvetica,sans-Serif" font-size="10.00" fill="grey">mueff</text>
<text text-anchor="start" x="1405" y="-139.42" font-family="Helvetica,sans-Serif" font-size="10.00" fill="grey">src_term</text>
</g>
<!-- Node14 -->
<g id="Node000014" class="node">
<title>Node14</title>
<g id="a_Node000014"><a xlink:title=" ">
<polygon fill="white" stroke="#666666" points="1201,-95.92 1061,-95.92 1061,-65.92 1201,-65.92 1201,-95.92"/>
<text text-anchor="start" x="1069" y="-83.92" font-family="Helvetica,sans-Serif" font-size="10.00">std::shared_ptr&lt; kynema</text>
<text text-anchor="middle" x="1131" y="-72.92" font-family="Helvetica,sans-Serif" font-size="10.00">_sgf::FieldInfo &gt;</text>
</a>
</g>
</g>
<!-- Node14&#45;&gt;Node13 -->
<g id="edge16_Node000013_Node000014" class="edge">
<title>Node14&#45;&gt;Node13</title>
<g id="a_edge16_Node000013_Node000014"><a xlink:title=" ">
<path fill="none" stroke="#9a32cd" stroke-dasharray="5,2" d="M1211.17,-94.62C1228.07,-98.13 1245.72,-102.26 1262,-106.92 1277.75,-111.43 1295,-117.93 1308.31,-123.31"/>
<polygon fill="#9a32cd" stroke="#9a32cd" points="1211.82,-91.18 1201.32,-92.62 1210.42,-98.04 1211.82,-91.18"/>
</a>
</g>
<text text-anchor="start" x="1223.5" y="-112.42" font-family="Helvetica,sans-Serif" font-size="10.00" fill="grey">m_info</text>
</g>
<!-- Node15&#45;&gt;Node14 -->
<g id="edge17_Node000014_Node000015" class="edge">
<title>Node15&#45;&gt;Node14</title>
<g id="a_edge17_Node000014_Node000015"><a xlink:title=" ">
<path fill="none" stroke="#9a32cd" stroke-dasharray="5,2" d="M910.19,-80.92C956,-80.92 1015.37,-80.92 1060.87,-80.92"/>
<polygon fill="#9a32cd" stroke="#9a32cd" points="910.04,-77.42 900.04,-80.92 910.04,-84.42 910.04,-77.42"/>
</a>
</g>
<text text-anchor="start" x="973.5" y="-86.42" font-family="Helvetica,sans-Serif" font-size="10.00" fill="grey">ptr</text>
</g>
<!-- Node16 -->
<g id="Node000016" class="node">
<title>Node16</title>
<g id="a_Node000016"><a xlink:title=" ">
<polygon fill="white" stroke="#666666" points="604,-80.92 444,-80.92 444,-50.92 604,-50.92 604,-80.92"/>
<text text-anchor="start" x="452" y="-68.92" font-family="Helvetica,sans-Serif" font-size="10.00">std::unique_ptr&lt; kynema</text>
<text text-anchor="middle" x="524" y="-57.92" font-family="Helvetica,sans-Serif" font-size="10.00">_sgf::FieldFillPatchOpsBase &gt;</text>
</a>
</g>
</g>
<!-- Node16&#45;&gt;Node15 -->
<g id="edge19_Node000015_Node000016" class="edge">
<title>Node16&#45;&gt;Node15</title>
<g id="a_edge19_Node000015_Node000016"><a xlink:title=" ">
<path fill="none" stroke="#9a32cd" stroke-dasharray="5,2" d="M614.26,-62.71C657.97,-62.05 711.33,-62.6 759,-66.92 769.62,-67.89 780.95,-69.54 791.6,-71.37"/>
<polygon fill="#9a32cd" stroke="#9a32cd" points="614.17,-59.21 604.23,-62.88 614.29,-66.21 614.17,-59.21"/>
</a>
</g>
<text text-anchor="start" x="654.5" y="-72.42" font-family="Helvetica,sans-Serif" font-size="10.00" fill="grey">m_fillpatch_op</text>
</g>
<!-- Node17 -->
<g id="Node000017" class="node">
<title>Node17</title>
<g id="a_Node000017"><a xlink:href="classkynema__sgf_1_1_field_fill_patch_ops_base.html" target="_top" xlink:title=" ">
<polygon fill="white" stroke="#666666" points="262,-109.92 117,-109.92 117,-79.92 262,-79.92 262,-109.92"/>
<text text-anchor="start" x="125" y="-97.92" font-family="Helvetica,sans-Serif" font-size="10.00">kynema_sgf::FieldFillPatch</text>
<text text-anchor="middle" x="189.5" y="-86.92" font-family="Helvetica,sans-Serif" font-size="10.00">OpsBase</text>
</a>
</g>
</g>
<!-- Node17&#45;&gt;Node16 -->
<g id="edge20_Node000016_Node000017" class="edge">
<title>Node17&#45;&gt;Node16</title>
<g id="a_edge20_Node000016_Node000017"><a xlink:title=" ">
<path fill="none" stroke="#9a32cd" stroke-dasharray="5,2" d="M272.33,-91.32C317.68,-88.92 375.05,-85.22 426,-79.92 431.84,-79.32 437.87,-78.62 443.92,-77.87"/>
<polygon fill="#9a32cd" stroke="#9a32cd" points="272.06,-87.83 262.25,-91.84 272.42,-94.82 272.06,-87.83"/>
</a>
</g>
<text text-anchor="start" x="346" y="-96.42" font-family="Helvetica,sans-Serif" font-size="10.00" fill="grey">ptr</text>
</g>
<!-- Node18&#45;&gt;Node16 -->
<g id="edge21_Node000016_Node000018" class="edge">
<title>Node18&#45;&gt;Node16</title>
<g id="a_edge21_Node000016_Node000018"><a xlink:title=" ">
<path fill="none" stroke="orange" stroke-dasharray="5,2" d="M259.06,-48.55C266.13,-48.29 273.21,-48.08 280,-47.92 344.87,-46.48 361.38,-41.98 426,-47.92 433.85,-48.65 442,-49.69 450.11,-50.92"/>
<polygon fill="orange" stroke="orange" points="258.6,-45.06 248.74,-48.94 258.87,-52.06 258.6,-45.06"/>
</a>
</g>
<text text-anchor="start" x="283" y="-68.92" font-family="Helvetica,sans-Serif" font-size="10.00" fill="grey">&lt; kynema_sgf::FieldFillPatch</text>
<text text-anchor="start" x="283" y="-53.92" font-family="Helvetica,sans-Serif" font-size="10.00" fill="grey">  OpsBase &gt;</text>
</g>
<!-- Node19&#45;&gt;Node14 -->
<g id="edge23_Node000014_Node000019" class="edge">
<title>Node19&#45;&gt;Node14</title>
<g id="a_edge23_Node000014_Node000019"><a xlink:title=" ">
<path fill="none" stroke="orange" stroke-dasharray="5,2" d="M422.07,-17.89C502.6,-22.74 640.66,-31.62 759,-41.92 864.33,-51.1 986.19,-64.43 1060.67,-72.89"/>
<polygon fill="orange" stroke="orange" points="422.26,-14.39 412.06,-17.28 421.84,-21.38 422.26,-14.39"/>
</a>
</g>
<text text-anchor="start" x="625.5" y="-47.42" font-family="Helvetica,sans-Serif" font-size="10.00" fill="grey">&lt; kynema_sgf::FieldInfo &gt;</text>
</g>
<!-- Node20 -->
<g id="Node000020" class="node">
<title>Node20</title>
<g id="a_Node000020"><a xlink:href="structkynema__sgf_1_1pde_1_1_advection_op.html" target="_top" xlink:title=" ">
<polygon fill="white" stroke="#666666" points="1651,-63.92 1478,-63.92 1478,-33.92 1651,-33.92 1651,-63.92"/>
<text text-anchor="start" x="1486" y="-51.92" font-family="Helvetica,sans-Serif" font-size="10.00">kynema_sgf::pde::Advection</text>
<text text-anchor="middle" x="1564.5" y="-40.92" font-family="Helvetica,sans-Serif" font-size="10.00">Op&lt; PDE, Scheme, typename &gt;</text>
</a>
</g>
</g>
<!-- Node20&#45;&gt;Node1 -->
<g id="edge26_Node000001_Node000020" class="edge">
<title>Node20&#45;&gt;Node1</title>
<g id="a_edge26_Node000001_Node000020"><a xlink:title=" ">
<path fill="none" stroke="orange" stroke-dasharray="5,2" d="M1661.21,-46.07C1702.84,-47.66 1751.47,-53.44 1793,-68.92 1824.14,-80.54 1854.19,-105.43 1871.62,-121.66"/>
<polygon fill="orange" stroke="orange" points="1661.17,-42.57 1651.07,-45.76 1660.96,-49.56 1661.17,-42.57"/>
</a>
</g>
<text text-anchor="start" x="1672" y="-74.42" font-family="Helvetica,sans-Serif" font-size="10.00" fill="grey">&lt; VOF, fvm::Godunov &gt;</text>
</g>
</g>
</svg>
