<?xml version="1.0" encoding="UTF-8" standalone="no"?>
<!DOCTYPE svg PUBLIC "-//W3C//DTD SVG 1.1//EN"
 "http://www.w3.org/Graphics/SVG/1.1/DTD/svg11.dtd">
<!-- Generated by graphviz version 2.43.0 (0)
 -->
<!-- Title: kynema_sgf::actuator::ops::ReadInputsOp&lt; ActTrait, SrcTrait, typename &gt; Pages: 1 -->
<svg width="518pt" height="407pt"
 viewBox="0.00 0.00 518.00 406.50" xmlns="http://www.w3.org/2000/svg" xmlns:xlink="http://www.w3.org/1999/xlink">
<g id="graph0" class="graph" transform="scale(1 1) rotate(0) translate(4 402.5)">
<title>kynema_sgf::actuator::ops::ReadInputsOp&lt; ActTrait, SrcTrait, typename &gt;</title>
<!-- Node1 -->
<g id="Node000001" class="node">
<title>Node1</title>
<g id="a_Node000001"><a xlink:title=" ">
<polygon fill="#999999" stroke="#666666" points="165,-218 0,-218 0,-177 165,-177 165,-218"/>
<text text-anchor="start" x="8" y="-206" font-family="Helvetica,sans-Serif" font-size="10.00">kynema_sgf::actuator</text>
<text text-anchor="start" x="8" y="-195" font-family="Helvetica,sans-Serif" font-size="10.00">::ops::ReadInputsOp&lt;</text>
<text text-anchor="middle" x="82.5" y="-184" font-family="Helvetica,sans-Serif" font-size="10.00"> ActTrait, SrcTrait, typename &gt;</text>
</a>
</g>
</g>
<!-- Node2 -->
<g id="Node000002" class="node">
<title>Node2</title>
<g id="a_Node000002"><a xlink:href="structkynema__sgf_1_1actuator_1_1ops_1_1_read_inputs_op_3_01_actuator_sector_00_01_act_src_sector_01_4.html" target="_top" xlink:title=" ">
<polygon fill="white" stroke="#666666" points="510,-395 340,-395 340,-354 510,-354 510,-395"/>
<text text-anchor="start" x="348" y="-383" font-family="Helvetica,sans-Serif" font-size="10.00">kynema_sgf::actuator</text>
<text text-anchor="start" x="348" y="-372" font-family="Helvetica,sans-Serif" font-size="10.00">::ops::ReadInputsOp&lt;</text>
<text text-anchor="middle" x="425" y="-361" font-family="Helvetica,sans-Serif" font-size="10.00"> ActuatorSector, ActSrcSector &gt;</text>
</a>
</g>
</g>
<!-- Node1&#45;&gt;Node2 -->
<g id="edge1_Node000001_Node000002" class="edge">
<title>Node1&#45;&gt;Node2</title>
<g id="a_edge1_Node000001_Node000002"><a xlink:title=" ">
<path fill="none" stroke="orange" stroke-dasharray="5,2" d="M99.32,-226.79C116.23,-255.22 145.73,-297.36 183,-320.5 230.09,-349.73 291.06,-363.21 339.89,-369.39"/>
<polygon fill="orange" stroke="orange" points="102.32,-224.98 94.28,-218.09 96.26,-228.49 102.32,-224.98"/>
</a>
</g>
<text text-anchor="start" x="192.5" y="-387.5" font-family="Helvetica,sans-Serif" font-size="10.00" fill="grey">&lt; ActuatorSector, ActSrc</text>
<text text-anchor="start" x="192.5" y="-372.5" font-family="Helvetica,sans-Serif" font-size="10.00" fill="grey">  Sector &gt;</text>
</g>
<!-- Node3 -->
<g id="Node000003" class="node">
<title>Node3</title>
<g id="a_Node000003"><a xlink:href="structkynema__sgf_1_1actuator_1_1ops_1_1_read_inputs_op_3_01_fixed_wing_00_01_act_src_line_01_4.html" target="_top" xlink:title=" ">
<polygon fill="white" stroke="#666666" points="494,-336 356,-336 356,-295 494,-295 494,-336"/>
<text text-anchor="start" x="364" y="-324" font-family="Helvetica,sans-Serif" font-size="10.00">kynema_sgf::actuator</text>
<text text-anchor="start" x="364" y="-313" font-family="Helvetica,sans-Serif" font-size="10.00">::ops::ReadInputsOp&lt;</text>
<text text-anchor="middle" x="425" y="-302" font-family="Helvetica,sans-Serif" font-size="10.00"> FixedWing, ActSrcLine &gt;</text>
</a>
</g>
</g>
<!-- Node1&#45;&gt;Node3 -->
<g id="edge2_Node000001_Node000003" class="edge">
<title>Node1&#45;&gt;Node3</title>
<g id="a_edge2_Node000001_Node000003"><a xlink:title=" ">
<path fill="none" stroke="orange" stroke-dasharray="5,2" d="M118.51,-224.35C136.86,-237.26 160.2,-251.97 183,-261.5 238.88,-284.86 306.46,-298.88 355.82,-306.76"/>
<polygon fill="orange" stroke="orange" points="120.1,-221.17 109.93,-218.18 116.01,-226.86 120.1,-221.17"/>
</a>
</g>
<text text-anchor="start" x="187.5" y="-305" font-family="Helvetica,sans-Serif" font-size="10.00" fill="grey">&lt; FixedWing, ActSrcLine &gt;</text>
</g>
<!-- Node4 -->
<g id="Node000004" class="node">
<title>Node4</title>
<g id="a_Node000004"><a xlink:href="structkynema__sgf_1_1actuator_1_1ops_1_1_read_inputs_op_3_01_flat_plate_00_01_act_src_line_01_4.html" target="_top" xlink:title=" ">
<polygon fill="white" stroke="#666666" points="490.5,-277 359.5,-277 359.5,-236 490.5,-236 490.5,-277"/>
<text text-anchor="start" x="367.5" y="-265" font-family="Helvetica,sans-Serif" font-size="10.00">kynema_sgf::actuator</text>
<text text-anchor="start" x="367.5" y="-254" font-family="Helvetica,sans-Serif" font-size="10.00">::ops::ReadInputsOp&lt;</text>
<text text-anchor="middle" x="425" y="-243" font-family="Helvetica,sans-Serif" font-size="10.00"> FlatPlate, ActSrcLine &gt;</text>
</a>
</g>
</g>
<!-- Node1&#45;&gt;Node4 -->
<g id="edge3_Node000001_Node000004" class="edge">
<title>Node1&#45;&gt;Node4</title>
<g id="a_edge3_Node000001_Node000004"><a xlink:title=" ">
<path fill="none" stroke="orange" stroke-dasharray="5,2" d="M175,-217C177.69,-217.51 180.36,-218.01 183,-218.5 242.57,-229.47 310.79,-240.05 359.4,-247.24"/>
<polygon fill="orange" stroke="orange" points="175.64,-213.56 165.15,-215.09 174.3,-220.43 175.64,-213.56"/>
</a>
</g>
<text text-anchor="start" x="190.5" y="-246" font-family="Helvetica,sans-Serif" font-size="10.00" fill="grey">&lt; FlatPlate, ActSrcLine &gt;</text>
</g>
<!-- Node5 -->
<g id="Node000005" class="node">
<title>Node5</title>
<g id="a_Node000005"><a xlink:href="structkynema__sgf_1_1actuator_1_1ops_1_1_read_inputs_op_3_01_joukowsky_00_01_act_src_disk_01_4.html" target="_top" xlink:title=" ">
<polygon fill="white" stroke="#666666" points="495,-218 355,-218 355,-177 495,-177 495,-218"/>
<text text-anchor="start" x="363" y="-206" font-family="Helvetica,sans-Serif" font-size="10.00">kynema_sgf::actuator</text>
<text text-anchor="start" x="363" y="-195" font-family="Helvetica,sans-Serif" font-size="10.00">::ops::ReadInputsOp&lt;</text>
<text text-anchor="middle" x="425" y="-184" font-family="Helvetica,sans-Serif" font-size="10.00"> Joukowsky, ActSrcDisk &gt;</text>
</a>
</g>
</g>
<!-- Node1&#45;&gt;Node5 -->
<g id="edge4_Node000001_Node000005" class="edge">
<title>Node1&#45;&gt;Node5</title>
<g id="a_edge4_Node000001_Node000005"><a xlink:title=" ">
<path fill="none" stroke="orange" stroke-dasharray="5,2" d="M175.08,-197.5C231.65,-197.5 303.07,-197.5 354.88,-197.5"/>
<polygon fill="orange" stroke="orange" points="175.06,-194 165.06,-197.5 175.06,-201 175.06,-194"/>
</a>
</g>
<text text-anchor="start" x="186.5" y="-203" font-family="Helvetica,sans-Serif" font-size="10.00" fill="grey">&lt; Joukowsky, ActSrcDisk &gt;</text>
</g>
<!-- Node6 -->
<g id="Node000006" class="node">
<title>Node6</title>
<g id="a_Node000006"><a xlink:href="structkynema__sgf_1_1actuator_1_1ops_1_1_read_inputs_op_3_01_turbine_fast_00_01_src_trait_01_4.html" target="_top" xlink:title=" ">
<polygon fill="white" stroke="#666666" points="489,-159 361,-159 361,-118 489,-118 489,-159"/>
<text text-anchor="start" x="369" y="-147" font-family="Helvetica,sans-Serif" font-size="10.00">kynema_sgf::actuator</text>
<text text-anchor="start" x="369" y="-136" font-family="Helvetica,sans-Serif" font-size="10.00">::ops::ReadInputsOp&lt;</text>
<text text-anchor="middle" x="425" y="-125" font-family="Helvetica,sans-Serif" font-size="10.00"> TurbineFast, SrcTrait &gt;</text>
</a>
</g>
</g>
<!-- Node1&#45;&gt;Node6 -->
<g id="edge5_Node000001_Node000006" class="edge">
<title>Node1&#45;&gt;Node6</title>
<g id="a_edge5_Node000001_Node000006"><a xlink:title=" ">
<path fill="none" stroke="orange" stroke-dasharray="5,2" d="M175,-178C177.69,-177.49 180.36,-176.99 183,-176.5 243.19,-165.41 312.22,-154.73 360.93,-147.54"/>
<polygon fill="orange" stroke="orange" points="174.3,-174.57 165.15,-179.91 175.64,-181.44 174.3,-174.57"/>
</a>
</g>
<text text-anchor="start" x="192.5" y="-182" font-family="Helvetica,sans-Serif" font-size="10.00" fill="grey">&lt; TurbineFast, SrcTrait &gt;</text>
</g>
<!-- Node7 -->
<g id="Node000007" class="node">
<title>Node7</title>
<g id="a_Node000007"><a xlink:href="structkynema__sgf_1_1actuator_1_1ops_1_1_read_inputs_op_3_01_turbine_kynema_f_m_b_00_01_src_trait_01_4.html" target="_top" xlink:title=" ">
<polygon fill="white" stroke="#666666" points="510,-100 340,-100 340,-59 510,-59 510,-100"/>
<text text-anchor="start" x="348" y="-88" font-family="Helvetica,sans-Serif" font-size="10.00">kynema_sgf::actuator</text>
<text text-anchor="start" x="348" y="-77" font-family="Helvetica,sans-Serif" font-size="10.00">::ops::ReadInputsOp&lt;</text>
<text text-anchor="middle" x="425" y="-66" font-family="Helvetica,sans-Serif" font-size="10.00"> TurbineKynemaFMB, SrcTrait &gt;</text>
</a>
</g>
</g>
<!-- Node1&#45;&gt;Node7 -->
<g id="edge6_Node000001_Node000007" class="edge">
<title>Node1&#45;&gt;Node7</title>
<g id="a_edge6_Node000001_Node000007"><a xlink:title=" ">
<path fill="none" stroke="orange" stroke-dasharray="5,2" d="M110.22,-169.49C128.88,-151.68 155.33,-129.75 183,-117.5 232.29,-95.68 292.12,-86.16 339.84,-82.11"/>
<polygon fill="orange" stroke="orange" points="107.42,-167.33 102.71,-176.82 112.31,-172.33 107.42,-167.33"/>
</a>
</g>
<text text-anchor="start" x="196.5" y="-138.5" font-family="Helvetica,sans-Serif" font-size="10.00" fill="grey">&lt; TurbineKynemaFMB,</text>
<text text-anchor="start" x="196.5" y="-123.5" font-family="Helvetica,sans-Serif" font-size="10.00" fill="grey">   SrcTrait &gt;</text>
</g>
<!-- Node8 -->
<g id="Node000008" class="node">
<title>Node8</title>
<g id="a_Node000008"><a xlink:href="structkynema__sgf_1_1actuator_1_1ops_1_1_read_inputs_op_3_01_uniform_ct_00_01_act_src_disk_01_4.html" target="_top" xlink:title=" ">
<polygon fill="white" stroke="#666666" points="495,-41 355,-41 355,0 495,0 495,-41"/>
<text text-anchor="start" x="363" y="-29" font-family="Helvetica,sans-Serif" font-size="10.00">kynema_sgf::actuator</text>
<text text-anchor="start" x="363" y="-18" font-family="Helvetica,sans-Serif" font-size="10.00">::ops::ReadInputsOp&lt;</text>
<text text-anchor="middle" x="425" y="-7" font-family="Helvetica,sans-Serif" font-size="10.00"> UniformCt, ActSrcDisk &gt;</text>
</a>
</g>
</g>
<!-- Node1&#45;&gt;Node8 -->
<g id="edge7_Node000001_Node000008" class="edge">
<title>Node1&#45;&gt;Node8</title>
<g id="a_edge7_Node000001_Node000008"><a xlink:title=" ">
<path fill="none" stroke="orange" stroke-dasharray="5,2" d="M96.94,-167.74C112.81,-136.25 142.27,-87.7 183,-62.5 234.65,-30.54 303.79,-21.18 354.77,-19.15"/>
<polygon fill="orange" stroke="orange" points="93.7,-166.4 92.46,-176.92 99.99,-169.47 93.7,-166.4"/>
</a>
</g>
<text text-anchor="start" x="186.5" y="-68" font-family="Helvetica,sans-Serif" font-size="10.00" fill="grey">&lt; UniformCt, ActSrcDisk &gt;</text>
</g>
</g>
</svg>
