<?xml version="1.0" encoding="UTF-8" standalone="no"?>
<!DOCTYPE svg PUBLIC "-//W3C//DTD SVG 1.1//EN"
 "http://www.w3.org/Graphics/SVG/1.1/DTD/svg11.dtd">
<!-- Generated by graphviz version 2.43.0 (0)
 -->
<!-- Title: kynema_sgf::actuator::ActuatorSectorData Pages: 1 -->
<svg width="403pt" height="351pt"
 viewBox="0.00 0.00 403.00 351.00" xmlns="http://www.w3.org/2000/svg" xmlns:xlink="http://www.w3.org/1999/xlink">
<g id="graph0" class="graph" transform="scale(1 1) rotate(0) translate(4 347)">
<title>kynema_sgf::actuator::ActuatorSectorData</title>
<!-- Node1 -->
<g id="Node000001" class="node">
<title>Node1</title>
<g id="a_Node000001"><a xlink:title=" ">
<polygon fill="#999999" stroke="#666666" points="178,-30 56,-30 56,0 178,0 178,-30"/>
<text text-anchor="start" x="64" y="-18" font-family="Helvetica,sans-Serif" font-size="10.00">kynema_sgf::actuator</text>
<text text-anchor="middle" x="117" y="-7" font-family="Helvetica,sans-Serif" font-size="10.00">::ActuatorSectorData</text>
</a>
</g>
</g>
<!-- Node2 -->
<g id="Node000002" class="node">
<title>Node2</title>
<g id="a_Node000002"><a xlink:title=" ">
<polygon fill="white" stroke="#666666" points="86.5,-167.5 21.5,-167.5 21.5,-148.5 86.5,-148.5 86.5,-167.5"/>
<text text-anchor="middle" x="54" y="-155.5" font-family="Helvetica,sans-Serif" font-size="10.00">std::string</text>
</a>
</g>
</g>
<!-- Node2&#45;&gt;Node1 -->
<g id="edge1_Node000001_Node000002" class="edge">
<title>Node2&#45;&gt;Node1</title>
<g id="a_edge1_Node000001_Node000002"><a xlink:title=" ">
<path fill="none" stroke="#9a32cd" stroke-dasharray="5,2" d="M50.63,-138.07C47.55,-114.96 45.77,-75.54 63,-48 67.62,-40.61 74.63,-34.71 82.08,-30.1"/>
<polygon fill="#9a32cd" stroke="#9a32cd" points="47.22,-138.91 52.21,-148.26 54.13,-137.84 47.22,-138.91"/>
</a>
</g>
<text text-anchor="start" x="66" y="-113.5" font-family="Helvetica,sans-Serif" font-size="10.00" fill="grey">airfoil_file</text>
<text text-anchor="start" x="66" y="-98.5" font-family="Helvetica,sans-Serif" font-size="10.00" fill="grey">airfoil_type</text>
<text text-anchor="start" x="66" y="-83.5" font-family="Helvetica,sans-Serif" font-size="10.00" fill="grey">gaussian_type</text>
<text text-anchor="start" x="66" y="-68.5" font-family="Helvetica,sans-Serif" font-size="10.00" fill="grey">radial_quadrature</text>
<text text-anchor="start" x="66" y="-53.5" font-family="Helvetica,sans-Serif" font-size="10.00" fill="grey">swept_quadrature</text>
</g>
<!-- Node3 -->
<g id="Node000003" class="node">
<title>Node3</title>
<g id="a_Node000003"><a xlink:title=" ">
<polygon fill="white" stroke="#666666" points="104,-271 0,-271 0,-241 104,-241 104,-271"/>
<text text-anchor="start" x="8" y="-259" font-family="Helvetica,sans-Serif" font-size="10.00">std::basic_string&lt;</text>
<text text-anchor="middle" x="52" y="-248" font-family="Helvetica,sans-Serif" font-size="10.00"> Char &gt;</text>
</a>
</g>
</g>
<!-- Node3&#45;&gt;Node2 -->
<g id="edge2_Node000002_Node000003" class="edge">
<title>Node3&#45;&gt;Node2</title>
<g id="a_edge2_Node000002_Node000003"><a xlink:title=" ">
<path fill="none" stroke="#63b8ff" d="M52.51,-230.58C52.94,-209.92 53.53,-181.52 53.82,-167.51"/>
<polygon fill="#63b8ff" stroke="#63b8ff" points="49,-230.76 52.3,-240.83 56,-230.91 49,-230.76"/>
</a>
</g>
</g>
<!-- Node4 -->
<g id="Node000004" class="node">
<title>Node4</title>
<g id="a_Node000004"><a xlink:title=" ">
<polygon fill="white" stroke="#666666" points="260.5,-173 105.5,-173 105.5,-143 260.5,-143 260.5,-173"/>
<text text-anchor="start" x="113.5" y="-161" font-family="Helvetica,sans-Serif" font-size="10.00">std::unique_ptr&lt; kynema</text>
<text text-anchor="middle" x="183" y="-150" font-family="Helvetica,sans-Serif" font-size="10.00">_sgf::actuator::AirfoilTable &gt;</text>
</a>
</g>
</g>
<!-- Node4&#45;&gt;Node1 -->
<g id="edge3_Node000001_Node000004" class="edge">
<title>Node4&#45;&gt;Node1</title>
<g id="a_edge3_Node000001_Node000004"><a xlink:title=" ">
<path fill="none" stroke="#9a32cd" stroke-dasharray="5,2" d="M181.72,-132.71C179.5,-109.39 173.46,-73.96 157,-48 152.62,-41.09 146.22,-35.01 139.82,-30.06"/>
<polygon fill="#9a32cd" stroke="#9a32cd" points="178.24,-133.1 182.51,-142.8 185.22,-132.56 178.24,-133.1"/>
</a>
</g>
<text text-anchor="start" x="183" y="-83.5" font-family="Helvetica,sans-Serif" font-size="10.00" fill="grey">aflookup</text>
</g>
<!-- Node5 -->
<g id="Node000005" class="node">
<title>Node5</title>
<g id="a_Node000005"><a xlink:href="classkynema__sgf_1_1actuator_1_1_airfoil_table.html" target="_top" xlink:title=" ">
<polygon fill="white" stroke="#666666" points="244,-271 122,-271 122,-241 244,-241 244,-271"/>
<text text-anchor="start" x="130" y="-259" font-family="Helvetica,sans-Serif" font-size="10.00">kynema_sgf::actuator</text>
<text text-anchor="middle" x="183" y="-248" font-family="Helvetica,sans-Serif" font-size="10.00">::AirfoilTable</text>
</a>
</g>
</g>
<!-- Node5&#45;&gt;Node4 -->
<g id="edge4_Node000004_Node000005" class="edge">
<title>Node5&#45;&gt;Node4</title>
<g id="a_edge4_Node000004_Node000005"><a xlink:title=" ">
<path fill="none" stroke="#9a32cd" stroke-dasharray="5,2" d="M183,-230.7C183,-212.55 183,-188.35 183,-173.22"/>
<polygon fill="#9a32cd" stroke="#9a32cd" points="179.5,-230.83 183,-240.83 186.5,-230.83 179.5,-230.83"/>
</a>
</g>
<text text-anchor="start" x="186" y="-204" font-family="Helvetica,sans-Serif" font-size="10.00" fill="grey">ptr</text>
</g>
<!-- Node6 -->
<g id="Node000006" class="node">
<title>Node6</title>
<g id="a_Node000006"><a xlink:title=" ">
<polygon fill="white" stroke="#666666" points="380,-265.5 262,-265.5 262,-246.5 380,-246.5 380,-265.5"/>
<text text-anchor="middle" x="321" y="-253.5" font-family="Helvetica,sans-Serif" font-size="10.00">std::unique_ptr&lt; T &gt;</text>
</a>
</g>
</g>
<!-- Node6&#45;&gt;Node4 -->
<g id="edge5_Node000004_Node000006" class="edge">
<title>Node6&#45;&gt;Node4</title>
<g id="a_edge5_Node000004_Node000006"><a xlink:title=" ">
<path fill="none" stroke="orange" stroke-dasharray="5,2" d="M300.34,-240.63C274.19,-222.43 229.41,-191.29 203.39,-173.18"/>
<polygon fill="orange" stroke="orange" points="298.55,-243.64 308.75,-246.48 302.54,-237.9 298.55,-243.64"/>
</a>
</g>
<text text-anchor="start" x="275.5" y="-212" font-family="Helvetica,sans-Serif" font-size="10.00" fill="grey">&lt; kynema_sgf::actuator</text>
<text text-anchor="start" x="275.5" y="-197" font-family="Helvetica,sans-Serif" font-size="10.00" fill="grey">  ::AirfoilTable &gt;</text>
</g>
<!-- Node7 -->
<g id="Node000007" class="node">
<title>Node7</title>
<g id="a_Node000007"><a xlink:title=" ">
<polygon fill="white" stroke="#666666" points="335.5,-343 306.5,-343 306.5,-324 335.5,-324 335.5,-343"/>
<text text-anchor="middle" x="321" y="-331" font-family="Helvetica,sans-Serif" font-size="10.00">T</text>
</a>
</g>
</g>
<!-- Node7&#45;&gt;Node6 -->
<g id="edge6_Node000006_Node000007" class="edge">
<title>Node7&#45;&gt;Node6</title>
<g id="a_edge6_Node000006_Node000007"><a xlink:title=" ">
<path fill="none" stroke="#9a32cd" stroke-dasharray="5,2" d="M321,-313.4C321,-298.01 321,-277.11 321,-265.56"/>
<polygon fill="#9a32cd" stroke="#9a32cd" points="317.5,-313.84 321,-323.84 324.5,-313.84 317.5,-313.84"/>
</a>
</g>
<text text-anchor="start" x="324" y="-294.5" font-family="Helvetica,sans-Serif" font-size="10.00" fill="grey">ptr</text>
</g>
</g>
</svg>
