<?xml version="1.0" encoding="UTF-8" standalone="no"?>
<!DOCTYPE svg PUBLIC "-//W3C//DTD SVG 1.1//EN"
 "http://www.w3.org/Graphics/SVG/1.1/DTD/svg11.dtd">
<!-- Generated by graphviz version 2.43.0 (0)
 -->
<!-- Title: kynema_sgf::pde::AdvectionOp&lt; PDE, fvm::Godunov, typename std::enable_if_t&lt; std::is_base_of_v&lt; ScalarTransport, PDE &gt; &gt; &gt; Pages: 1 -->
<!--zoomable 293 -->

<svg id="main" version="1.1" xmlns="http://www.w3.org/2000/svg" xmlns:xlink="http://www.w3.org/1999/xlink" xml:space="preserve" onload="init(evt)">

<style type="text/css"><![CDATA[
.node, .edge {opacity: 0.7;}
.node.selected, .edge.selected {opacity: 1;}
.edge:hover path { stroke: red; }
.edge:hover polygon { stroke: red; fill: red; }
]]></style>

<defs>
  <circle id="rim" cx="0" cy="0" r="7"/>
  <circle id="rim2" cx="0" cy="0" r="3.5"/>
  <g id="zoomPlus">
    <use xlink:href="#rim" fill="#404040"><set attributeName="fill" to="#808080" begin="zoomplus.mouseover" end="zoomplus.mouseout"/></use>
    <path d="M-4,0h8M0,-4v8" fill="none" stroke="white" stroke-width="1.5" pointer-events="none"/>
  </g>
  <g id="zoomMin">
    <use xlink:href="#rim" fill="#404040"><set attributeName="fill" to="#808080" begin="zoomminus.mouseover" end="zoomminus.mouseout"/></use>
    <path d="M-4,0h8" fill="none" stroke="white" stroke-width="1.5" pointer-events="none"/>
  </g>
  <g id="arrowUp" transform="translate(30 24)">
    <use xlink:href="#rim"/>
    <path pointer-events="none" fill="none" stroke="white" stroke-width="1.5" d="M0,-3.0v7 M-2.5,-0.5L0,-3.0L2.5,-0.5"/>
  </g>
  <g id="arrowRight" transform="rotate(90) translate(36 -43)">
    <use xlink:href="#rim"/>
    <path pointer-events="none" fill="none" stroke="white" stroke-width="1.5" d="M0,-3.0v7 M-2.5,-0.5L0,-3.0L2.5,-0.5"/>
  </g>
  <g id="arrowDown" transform="rotate(180) translate(-30 -48)">
    <use xlink:href="#rim"/>
    <path pointer-events="none" fill="none" stroke="white" stroke-width="1.5" d="M0,-3.0v7 M-2.5,-0.5L0,-3.0L2.5,-0.5"/>
  </g>
  <g id="arrowLeft" transform="rotate(270) translate(-36 17)">
    <use xlink:href="#rim"/>
    <path pointer-events="none" fill="none" stroke="white" stroke-width="1.5" d="M0,-3.0v7 M-2.5,-0.5L0,-3.0L2.5,-0.5"/>
  </g>
  <g id="resetDef">
    <use xlink:href="#rim2" fill="#404040"><set attributeName="fill" to="#808080" begin="reset.mouseover" end="reset.mouseout"/></use>
  </g>
</defs>
<script type="application/ecmascript">
var viewWidth = 2034;
var viewHeight = 293;
var sectionId = 'dynsection-1';
</script>
<script type="application/ecmascript" xlink:href="svg.min.js"/>
<svg id="graph" class="graph">
<g id="viewport">
<title>kynema_sgf::pde::AdvectionOp&lt; PDE, fvm::Godunov, typename std::enable_if_t&lt; std::is_base_of_v&lt; ScalarTransport, PDE &gt; &gt; &gt;</title>
<!-- Node1 -->
<g id="Node000001" class="node">
<title>Node1</title>
<g id="a_Node000001"><a xlink:title=" ">
<polygon fill="#999999" stroke="#666666" points="2026,-149.03 1816,-149.03 1816,-86.03 2026,-86.03 2026,-149.03"/>
<text text-anchor="start" x="1824" y="-137.03" font-family="Helvetica,sans-Serif" font-size="10.00">kynema_sgf::pde::Advection</text>
<text text-anchor="start" x="1824" y="-126.03" font-family="Helvetica,sans-Serif" font-size="10.00">Op&lt; PDE, fvm::Godunov,</text>
<text text-anchor="start" x="1824" y="-115.03" font-family="Helvetica,sans-Serif" font-size="10.00"> typename std::enable_if</text>
<text text-anchor="start" x="1824" y="-104.03" font-family="Helvetica,sans-Serif" font-size="10.00">_t&lt; std::is_base_of_v&lt; ScalarTransport,</text>
<text text-anchor="middle" x="1921" y="-93.03" font-family="Helvetica,sans-Serif" font-size="10.00"> PDE &gt; &gt; &gt;</text>
</a>
</g>
</g>
<!-- Node2 -->
<g id="Node000002" class="node">
<title>Node2</title>
<g id="a_Node000002"><a xlink:href="structkynema__sgf_1_1pde_1_1_p_d_e_fields.html" target="_top" xlink:title=" ">
<polygon fill="white" stroke="#666666" points="1601,-240.03 1448,-240.03 1448,-221.03 1601,-221.03 1601,-240.03"/>
<text text-anchor="middle" x="1524.5" y="-228.03" font-family="Helvetica,sans-Serif" font-size="10.00">kynema_sgf::pde::PDEFields</text>
</a>
</g>
</g>
<!-- Node2&#45;&gt;Node1 -->
<g id="edge1_Node000001_Node000002" class="edge">
<title>Node2&#45;&gt;Node1</title>
<g id="a_edge1_Node000001_Node000002"><a xlink:title=" ">
<path fill="none" stroke="#9a32cd" stroke-dasharray="5,2" d="M1570.81,-218.22C1624.96,-203.45 1718.26,-177.74 1798,-154.53 1804.06,-152.76 1810.28,-150.94 1816.55,-149.08"/>
<polygon fill="#9a32cd" stroke="#9a32cd" points="1569.57,-214.93 1560.85,-220.94 1571.42,-221.69 1569.57,-214.93"/>
</a>
</g>
<text text-anchor="start" x="1700.5" y="-207.03" font-family="Helvetica,sans-Serif" font-size="10.00" fill="grey">fields</text>
</g>
<!-- Node3 -->
<g id="Node000003" class="node">
<title>Node3</title>
<g id="a_Node000003"><a xlink:href="classkynema__sgf_1_1_field_repo.html" target="_top" xlink:title=" ">
<polygon fill="white" stroke="#666666" points="1116.5,-262.03 987.5,-262.03 987.5,-243.03 1116.5,-243.03 1116.5,-262.03"/>
<text text-anchor="middle" x="1052" y="-250.03" font-family="Helvetica,sans-Serif" font-size="10.00">kynema_sgf::FieldRepo</text>
</a>
</g>
</g>
<!-- Node3&#45;&gt;Node2 -->
<g id="edge2_Node000002_Node000003" class="edge">
<title>Node3&#45;&gt;Node2</title>
<g id="a_edge2_Node000002_Node000003"><a xlink:title=" ">
<path fill="none" stroke="#9a32cd" stroke-dasharray="5,2" d="M1126.7,-256.58C1200.96,-259.67 1318.75,-261.84 1420,-251.53 1441.89,-249.3 1466,-244.55 1485.44,-240.12"/>
<polygon fill="#9a32cd" stroke="#9a32cd" points="1126.66,-253.08 1116.52,-256.14 1126.36,-260.07 1126.66,-253.08"/>
</a>
</g>
<text text-anchor="start" x="1281" y="-264.03" font-family="Helvetica,sans-Serif" font-size="10.00" fill="grey">repo</text>
</g>
<!-- Node10 -->
<g id="Node000010" class="node">
<title>Node10</title>
<g id="a_Node000010"><a xlink:href="classkynema__sgf_1_1_field.html" target="_top" xlink:title=" ">
<polygon fill="white" stroke="#666666" points="1344,-183.03 1240,-183.03 1240,-164.03 1344,-164.03 1344,-183.03"/>
<text text-anchor="middle" x="1292" y="-171.03" font-family="Helvetica,sans-Serif" font-size="10.00">kynema_sgf::Field</text>
</a>
</g>
</g>
<!-- Node3&#45;&gt;Node10 -->
<g id="edge10_Node000010_Node000003" class="edge">
<title>Node3&#45;&gt;Node10</title>
<g id="a_edge10_Node000010_Node000003"><a xlink:title=" ">
<path fill="none" stroke="#9a32cd" stroke-dasharray="5,2" d="M1113.01,-240.82C1145.79,-233.54 1186.76,-222.99 1222,-209.53 1241.06,-202.24 1261.64,-191.03 1275.32,-183.05"/>
<polygon fill="#9a32cd" stroke="#9a32cd" points="1112.14,-237.42 1103.11,-242.97 1113.63,-244.26 1112.14,-237.42"/>
</a>
</g>
<text text-anchor="start" x="1163" y="-239.03" font-family="Helvetica,sans-Serif" font-size="10.00" fill="grey">m_repo</text>
</g>
<!-- Node4 -->
<g id="Node000004" class="node">
<title>Node4</title>
<g id="a_Node000004"><a xlink:title=" ">
<polygon fill="white" stroke="#666666" points="866.5,-267.53 744.5,-267.53 744.5,-237.53 866.5,-237.53 866.5,-267.53"/>
<text text-anchor="start" x="752.5" y="-255.53" font-family="Helvetica,sans-Serif" font-size="10.00">std::unordered_map</text>
<text text-anchor="middle" x="805.5" y="-244.53" font-family="Helvetica,sans-Serif" font-size="10.00">&lt; std::string, size_t &gt;</text>
</a>
</g>
</g>
<!-- Node4&#45;&gt;Node3 -->
<g id="edge3_Node000003_Node000004" class="edge">
<title>Node4&#45;&gt;Node3</title>
<g id="a_edge3_Node000003_Node000004"><a xlink:title=" ">
<path fill="none" stroke="#9a32cd" stroke-dasharray="5,2" d="M876.73,-252.53C911.57,-252.53 953.34,-252.53 987.26,-252.53"/>
<polygon fill="#9a32cd" stroke="#9a32cd" points="876.62,-249.03 866.62,-252.53 876.62,-256.03 876.62,-249.03"/>
</a>
</g>
<text text-anchor="start" x="888.5" y="-273.53" font-family="Helvetica,sans-Serif" font-size="10.00" fill="grey">m_fid_map</text>
<text text-anchor="start" x="888.5" y="-258.53" font-family="Helvetica,sans-Serif" font-size="10.00" fill="grey">m_int_fid_map</text>
</g>
<!-- Node5 -->
<g id="Node000005" class="node">
<title>Node5</title>
<g id="a_Node000005"><a xlink:title=" ">
<polygon fill="white" stroke="#666666" points="524.5,-172.03 459.5,-172.03 459.5,-153.03 524.5,-153.03 524.5,-172.03"/>
<text text-anchor="middle" x="492" y="-160.03" font-family="Helvetica,sans-Serif" font-size="10.00">std::string</text>
</a>
</g>
</g>
<!-- Node5&#45;&gt;Node1 -->
<g id="edge22_Node000001_Node000005" class="edge">
<title>Node5&#45;&gt;Node1</title>
<g id="a_edge22_Node000001_Node000005"><a xlink:title=" ">
<path fill="none" stroke="#9a32cd" stroke-dasharray="5,2" d="M534.97,-152.76C551.99,-148.97 571.88,-144.78 590,-141.53 658.05,-129.32 675.16,-125.99 744,-119.53 1138.35,-82.48 1610.37,-100.44 1815.87,-111.3"/>
<polygon fill="#9a32cd" stroke="#9a32cd" points="533.77,-149.44 524.78,-155.05 535.3,-156.27 533.77,-149.44"/>
</a>
</g>
<text text-anchor="start" x="1143" y="-135.03" font-family="Helvetica,sans-Serif" font-size="10.00" fill="grey">advection_type</text>
<text text-anchor="start" x="1143" y="-120.03" font-family="Helvetica,sans-Serif" font-size="10.00" fill="grey">godunov_type</text>
<text text-anchor="start" x="1143" y="-105.03" font-family="Helvetica,sans-Serif" font-size="10.00" fill="grey">mflux_type</text>
</g>
<!-- Node5&#45;&gt;Node4 -->
<g id="edge4_Node000004_Node000005" class="edge">
<title>Node5&#45;&gt;Node4</title>
<g id="a_edge4_Node000004_Node000005"><a xlink:title=" ">
<path fill="none" stroke="#9a32cd" stroke-dasharray="5,2" d="M519.38,-176.79C538.51,-186.63 565.27,-199.37 590,-207.53 648.6,-226.86 665.62,-222.77 726,-235.53 731.87,-236.77 737.98,-238.07 744.08,-239.38"/>
<polygon fill="#9a32cd" stroke="#9a32cd" points="520.86,-173.62 510.38,-172.09 517.62,-179.82 520.86,-173.62"/>
</a>
</g>
<text text-anchor="start" x="647" y="-241.03" font-family="Helvetica,sans-Serif" font-size="10.00" fill="grey">keys</text>
</g>
<!-- Node5&#45;&gt;Node10 -->
<g id="edge11_Node000010_Node000005" class="edge">
<title>Node5&#45;&gt;Node10</title>
<g id="a_edge11_Node000010_Node000005"><a xlink:title=" ">
<path fill="none" stroke="#9a32cd" stroke-dasharray="5,2" d="M534.96,-169.82C551.99,-172.46 571.88,-175.13 590,-176.53 833.73,-195.36 895.54,-181.19 1140,-182.53 1176.44,-182.73 1185.63,-184.89 1222,-182.53 1227.79,-182.15 1233.83,-181.6 1239.83,-180.95"/>
<polygon fill="#9a32cd" stroke="#9a32cd" points="535.2,-166.32 524.77,-168.2 534.1,-173.23 535.2,-166.32"/>
</a>
</g>
<text text-anchor="start" x="903.5" y="-191.03" font-family="Helvetica,sans-Serif" font-size="10.00" fill="grey">m_name</text>
</g>
<!-- Node12 -->
<g id="Node000012" class="node">
<title>Node12</title>
<g id="a_Node000012"><a xlink:href="structkynema__sgf_1_1_field_info.html" target="_top" xlink:title=" ">
<polygon fill="white" stroke="#666666" points="867,-148.03 744,-148.03 744,-129.03 867,-129.03 867,-148.03"/>
<text text-anchor="middle" x="805.5" y="-136.03" font-family="Helvetica,sans-Serif" font-size="10.00">kynema_sgf::FieldInfo</text>
</a>
</g>
</g>
<!-- Node5&#45;&gt;Node12 -->
<g id="edge14_Node000012_Node000005" class="edge">
<title>Node5&#45;&gt;Node12</title>
<g id="a_edge14_Node000012_Node000005"><a xlink:title=" ">
<path fill="none" stroke="#9a32cd" stroke-dasharray="5,2" d="M534.77,-159.31C588.49,-155.17 682.18,-147.95 743.78,-143.21"/>
<polygon fill="#9a32cd" stroke="#9a32cd" points="534.28,-155.84 524.58,-160.09 534.82,-162.82 534.28,-155.84"/>
</a>
</g>
<text text-anchor="start" x="625" y="-161.03" font-family="Helvetica,sans-Serif" font-size="10.00" fill="grey">m_basename</text>
</g>
<!-- Node6 -->
<g id="Node000006" class="node">
<title>Node6</title>
<g id="a_Node000006"><a xlink:title=" ">
<polygon fill="white" stroke="#666666" points="209.5,-177.53 105.5,-177.53 105.5,-147.53 209.5,-147.53 209.5,-177.53"/>
<text text-anchor="start" x="113.5" y="-165.53" font-family="Helvetica,sans-Serif" font-size="10.00">std::basic_string&lt;</text>
<text text-anchor="middle" x="157.5" y="-154.53" font-family="Helvetica,sans-Serif" font-size="10.00"> Char &gt;</text>
</a>
</g>
</g>
<!-- Node6&#45;&gt;Node5 -->
<g id="edge5_Node000005_Node000006" class="edge">
<title>Node6&#45;&gt;Node5</title>
<g id="a_edge5_Node000005_Node000006"><a xlink:title=" ">
<path fill="none" stroke="#63b8ff" d="M219.85,-162.53C290.64,-162.53 404.34,-162.53 459.27,-162.53"/>
<polygon fill="#63b8ff" stroke="#63b8ff" points="219.72,-159.03 209.72,-162.53 219.72,-166.03 219.72,-159.03"/>
</a>
</g>
</g>
<!-- Node7 -->
<g id="Node000007" class="node">
<title>Node7</title>
<g id="a_Node000007"><a xlink:title=" ">
<polygon fill="white" stroke="#666666" points="549,-282.53 435,-282.53 435,-252.53 549,-252.53 549,-282.53"/>
<text text-anchor="start" x="443" y="-270.53" font-family="Helvetica,sans-Serif" font-size="10.00">std::unordered_map</text>
<text text-anchor="middle" x="492" y="-259.53" font-family="Helvetica,sans-Serif" font-size="10.00">&lt; K, T &gt;</text>
</a>
</g>
</g>
<!-- Node7&#45;&gt;Node4 -->
<g id="edge6_Node000004_Node000007" class="edge">
<title>Node7&#45;&gt;Node4</title>
<g id="a_edge6_Node000004_Node000007"><a xlink:title=" ">
<path fill="none" stroke="orange" stroke-dasharray="5,2" d="M559.36,-264.33C614.19,-261.69 691.35,-257.98 744.38,-255.42"/>
<polygon fill="orange" stroke="orange" points="558.87,-260.85 549.05,-264.83 559.21,-267.84 558.87,-260.85"/>
</a>
</g>
<text text-anchor="start" x="605" y="-268.03" font-family="Helvetica,sans-Serif" font-size="10.00" fill="grey">&lt; std::string, size_t &gt;</text>
</g>
<!-- Node8 -->
<g id="Node000008" class="node">
<title>Node8</title>
<g id="a_Node000008"><a xlink:title=" ">
<polygon fill="white" stroke="#666666" points="172,-277.03 143,-277.03 143,-258.03 172,-258.03 172,-277.03"/>
<text text-anchor="middle" x="157.5" y="-265.03" font-family="Helvetica,sans-Serif" font-size="10.00">K</text>
</a>
</g>
</g>
<!-- Node8&#45;&gt;Node7 -->
<g id="edge7_Node000007_Node000008" class="edge">
<title>Node8&#45;&gt;Node7</title>
<g id="a_edge7_Node000007_Node000008"><a xlink:title=" ">
<path fill="none" stroke="#9a32cd" stroke-dasharray="5,2" d="M182.38,-267.53C234.77,-267.53 361.02,-267.53 434.8,-267.53"/>
<polygon fill="#9a32cd" stroke="#9a32cd" points="182.36,-264.03 172.36,-267.53 182.36,-271.03 182.36,-264.03"/>
</a>
</g>
<text text-anchor="start" x="310" y="-273.03" font-family="Helvetica,sans-Serif" font-size="10.00" fill="grey">keys</text>
</g>
<!-- Node9 -->
<g id="Node000009" class="node">
<title>Node9</title>
<g id="a_Node000009"><a xlink:title=" ">
<polygon fill="white" stroke="#666666" points="29,-126.03 0,-126.03 0,-107.03 29,-107.03 29,-126.03"/>
<text text-anchor="middle" x="14.5" y="-114.03" font-family="Helvetica,sans-Serif" font-size="10.00">T</text>
</a>
</g>
</g>
<!-- Node9&#45;&gt;Node7 -->
<g id="edge8_Node000007_Node000009" class="edge">
<title>Node9&#45;&gt;Node7</title>
<g id="a_edge8_Node000007_Node000009"><a xlink:title=" ">
<path fill="none" stroke="#9a32cd" stroke-dasharray="5,2" d="M28.44,-134.67C41,-150.88 61.58,-173.95 85,-186.53 144.91,-218.71 338.12,-247.58 434.81,-260.44"/>
<polygon fill="#9a32cd" stroke="#9a32cd" points="31.11,-132.4 22.31,-126.49 25.5,-136.59 31.11,-132.4"/>
</a>
</g>
<text text-anchor="start" x="134.5" y="-232.03" font-family="Helvetica,sans-Serif" font-size="10.00" fill="grey">elements</text>
</g>
<!-- Node15 -->
<g id="Node000015" class="node">
<title>Node15</title>
<g id="a_Node000015"><a xlink:title=" ">
<polygon fill="white" stroke="#666666" points="216.5,-126.03 98.5,-126.03 98.5,-107.03 216.5,-107.03 216.5,-126.03"/>
<text text-anchor="middle" x="157.5" y="-114.03" font-family="Helvetica,sans-Serif" font-size="10.00">std::unique_ptr&lt; T &gt;</text>
</a>
</g>
</g>
<!-- Node9&#45;&gt;Node15 -->
<g id="edge18_Node000015_Node000009" class="edge">
<title>Node9&#45;&gt;Node15</title>
<g id="a_edge18_Node000015_Node000009"><a xlink:title=" ">
<path fill="none" stroke="#9a32cd" stroke-dasharray="5,2" d="M39.2,-116.53C55.44,-116.53 77.72,-116.53 98.5,-116.53"/>
<polygon fill="#9a32cd" stroke="#9a32cd" points="39.02,-113.03 29.02,-116.53 39.02,-120.03 39.02,-113.03"/>
</a>
</g>
<text text-anchor="start" x="50" y="-122.03" font-family="Helvetica,sans-Serif" font-size="10.00" fill="grey">ptr</text>
</g>
<!-- Node16 -->
<g id="Node000016" class="node">
<title>Node16</title>
<g id="a_Node000016"><a xlink:title=" ">
<polygon fill="white" stroke="#666666" points="380,-40.03 262,-40.03 262,-21.03 380,-21.03 380,-40.03"/>
<text text-anchor="middle" x="321" y="-28.03" font-family="Helvetica,sans-Serif" font-size="10.00">std::shared_ptr&lt; T &gt;</text>
</a>
</g>
</g>
<!-- Node9&#45;&gt;Node16 -->
<g id="edge20_Node000016_Node000009" class="edge">
<title>Node9&#45;&gt;Node16</title>
<g id="a_edge20_Node000016_Node000009"><a xlink:title=" ">
<path fill="none" stroke="#9a32cd" stroke-dasharray="5,2" d="M28.3,-98.54C40.77,-82.59 61.28,-60.23 85,-49.53 141.15,-24.19 212.5,-22.08 261.77,-24.64"/>
<polygon fill="#9a32cd" stroke="#9a32cd" points="25.44,-96.52 22.23,-106.62 31.03,-100.72 25.44,-96.52"/>
</a>
</g>
<text text-anchor="start" x="50" y="-83.03" font-family="Helvetica,sans-Serif" font-size="10.00" fill="grey">ptr</text>
</g>
<!-- Node10&#45;&gt;Node1 -->
<g id="edge21_Node000001_Node000010" class="edge">
<title>Node10&#45;&gt;Node1</title>
<g id="a_edge21_Node000001_Node000010"><a xlink:title=" ">
<path fill="none" stroke="#9a32cd" stroke-dasharray="5,2" d="M1339.92,-161.75C1347.28,-160.16 1354.82,-158.68 1362,-157.53 1395.49,-152.13 1404.19,-153.24 1438,-150.53 1568.01,-140.09 1717.92,-130.16 1815.58,-123.97"/>
<polygon fill="#9a32cd" stroke="#9a32cd" points="1339.05,-158.36 1330.06,-163.96 1340.58,-165.19 1339.05,-158.36"/>
</a>
</g>
<text text-anchor="start" x="1506.5" y="-201.53" font-family="Helvetica,sans-Serif" font-size="10.00" fill="grey">density</text>
<text text-anchor="start" x="1506.5" y="-186.53" font-family="Helvetica,sans-Serif" font-size="10.00" fill="grey">u_mac</text>
<text text-anchor="start" x="1506.5" y="-171.53" font-family="Helvetica,sans-Serif" font-size="10.00" fill="grey">v_mac</text>
<text text-anchor="start" x="1506.5" y="-156.53" font-family="Helvetica,sans-Serif" font-size="10.00" fill="grey">w_mac</text>
</g>
<!-- Node10&#45;&gt;Node2 -->
<g id="edge9_Node000002_Node000010" class="edge">
<title>Node10&#45;&gt;Node2</title>
<g id="a_edge9_Node000002_Node000010"><a xlink:title=" ">
<path fill="none" stroke="#9a32cd" stroke-dasharray="5,2" d="M1342.9,-162.72C1367.68,-160.01 1397.14,-161.03 1420,-174.53 1434.05,-182.82 1425.17,-196.44 1438,-206.53 1446,-212.81 1455.56,-217.45 1465.34,-220.88"/>
<polygon fill="#9a32cd" stroke="#9a32cd" points="1342.41,-159.25 1332.95,-164.02 1343.32,-166.19 1342.41,-159.25"/>
</a>
</g>
<text text-anchor="start" x="1365" y="-240.03" font-family="Helvetica,sans-Serif" font-size="10.00" fill="grey">conv_term</text>
<text text-anchor="start" x="1365" y="-225.03" font-family="Helvetica,sans-Serif" font-size="10.00" fill="grey">diff_term</text>
<text text-anchor="start" x="1365" y="-210.03" font-family="Helvetica,sans-Serif" font-size="10.00" fill="grey">field</text>
<text text-anchor="start" x="1365" y="-195.03" font-family="Helvetica,sans-Serif" font-size="10.00" fill="grey">mueff</text>
<text text-anchor="start" x="1365" y="-180.03" font-family="Helvetica,sans-Serif" font-size="10.00" fill="grey">src_term</text>
</g>
<!-- Node11 -->
<g id="Node000011" class="node">
<title>Node11</title>
<g id="a_Node000011"><a xlink:title=" ">
<polygon fill="white" stroke="#666666" points="1122,-153.53 982,-153.53 982,-123.53 1122,-123.53 1122,-153.53"/>
<text text-anchor="start" x="990" y="-141.53" font-family="Helvetica,sans-Serif" font-size="10.00">std::shared_ptr&lt; kynema</text>
<text text-anchor="middle" x="1052" y="-130.53" font-family="Helvetica,sans-Serif" font-size="10.00">_sgf::FieldInfo &gt;</text>
</a>
</g>
</g>
<!-- Node11&#45;&gt;Node10 -->
<g id="edge12_Node000010_Node000011" class="edge">
<title>Node11&#45;&gt;Node10</title>
<g id="a_edge12_Node000010_Node000011"><a xlink:title=" ">
<path fill="none" stroke="#9a32cd" stroke-dasharray="5,2" d="M1132.48,-150.22C1167.89,-155.42 1208.56,-161.4 1239.85,-166"/>
<polygon fill="#9a32cd" stroke="#9a32cd" points="1132.56,-146.69 1122.16,-148.7 1131.54,-153.62 1132.56,-146.69"/>
</a>
</g>
<text text-anchor="start" x="1164" y="-169.03" font-family="Helvetica,sans-Serif" font-size="10.00" fill="grey">m_info</text>
</g>
<!-- Node12&#45;&gt;Node11 -->
<g id="edge13_Node000011_Node000012" class="edge">
<title>Node12&#45;&gt;Node11</title>
<g id="a_edge13_Node000011_Node000012"><a xlink:title=" ">
<path fill="none" stroke="#9a32cd" stroke-dasharray="5,2" d="M877.26,-138.53C910.18,-138.53 949.21,-138.53 981.92,-138.53"/>
<polygon fill="#9a32cd" stroke="#9a32cd" points="877.25,-135.03 867.25,-138.53 877.25,-142.03 877.25,-135.03"/>
</a>
</g>
<text text-anchor="start" x="917.5" y="-144.03" font-family="Helvetica,sans-Serif" font-size="10.00" fill="grey">ptr</text>
</g>
<!-- Node13 -->
<g id="Node000013" class="node">
<title>Node13</title>
<g id="a_Node000013"><a xlink:title=" ">
<polygon fill="white" stroke="#666666" points="572,-88.53 412,-88.53 412,-58.53 572,-58.53 572,-88.53"/>
<text text-anchor="start" x="420" y="-76.53" font-family="Helvetica,sans-Serif" font-size="10.00">std::unique_ptr&lt; kynema</text>
<text text-anchor="middle" x="492" y="-65.53" font-family="Helvetica,sans-Serif" font-size="10.00">_sgf::FieldFillPatchOpsBase &gt;</text>
</a>
</g>
</g>
<!-- Node13&#45;&gt;Node12 -->
<g id="edge15_Node000012_Node000013" class="edge">
<title>Node13&#45;&gt;Node12</title>
<g id="a_edge15_Node000012_Node000013"><a xlink:title=" ">
<path fill="none" stroke="#9a32cd" stroke-dasharray="5,2" d="M575.24,-90.69C633.89,-102.93 710.58,-118.93 758.7,-128.97"/>
<polygon fill="#9a32cd" stroke="#9a32cd" points="575.75,-87.22 565.25,-88.6 574.32,-94.07 575.75,-87.22"/>
</a>
</g>
<text text-anchor="start" x="622" y="-127.03" font-family="Helvetica,sans-Serif" font-size="10.00" fill="grey">m_fillpatch_op</text>
</g>
<!-- Node14 -->
<g id="Node000014" class="node">
<title>Node14</title>
<g id="a_Node000014"><a xlink:href="classkynema__sgf_1_1_field_fill_patch_ops_base.html" target="_top" xlink:title=" ">
<polygon fill="white" stroke="#666666" points="230,-88.53 85,-88.53 85,-58.53 230,-58.53 230,-88.53"/>
<text text-anchor="start" x="93" y="-76.53" font-family="Helvetica,sans-Serif" font-size="10.00">kynema_sgf::FieldFillPatch</text>
<text text-anchor="middle" x="157.5" y="-65.53" font-family="Helvetica,sans-Serif" font-size="10.00">OpsBase</text>
</a>
</g>
</g>
<!-- Node14&#45;&gt;Node13 -->
<g id="edge16_Node000013_Node000014" class="edge">
<title>Node14&#45;&gt;Node13</title>
<g id="a_edge16_Node000013_Node000014"><a xlink:title=" ">
<path fill="none" stroke="#9a32cd" stroke-dasharray="5,2" d="M240.48,-73.53C292.75,-73.53 360.12,-73.53 411.83,-73.53"/>
<polygon fill="#9a32cd" stroke="#9a32cd" points="240.24,-70.03 230.24,-73.53 240.24,-77.03 240.24,-70.03"/>
</a>
</g>
<text text-anchor="start" x="314" y="-79.03" font-family="Helvetica,sans-Serif" font-size="10.00" fill="grey">ptr</text>
</g>
<!-- Node15&#45;&gt;Node13 -->
<g id="edge17_Node000013_Node000015" class="edge">
<title>Node15&#45;&gt;Node13</title>
<g id="a_edge17_Node000013_Node000015"><a xlink:title=" ">
<path fill="none" stroke="orange" stroke-dasharray="5,2" d="M226.84,-111.23C273.96,-107.17 337.95,-100.85 394,-92.53 401.81,-91.37 409.94,-90.01 418.03,-88.57"/>
<polygon fill="orange" stroke="orange" points="226.42,-107.76 216.75,-112.09 227.01,-114.73 226.42,-107.76"/>
</a>
</g>
<text text-anchor="start" x="251" y="-130.53" font-family="Helvetica,sans-Serif" font-size="10.00" fill="grey">&lt; kynema_sgf::FieldFillPatch</text>
<text text-anchor="start" x="251" y="-115.53" font-family="Helvetica,sans-Serif" font-size="10.00" fill="grey">  OpsBase &gt;</text>
</g>
<!-- Node16&#45;&gt;Node11 -->
<g id="edge19_Node000011_Node000016" class="edge">
<title>Node16&#45;&gt;Node11</title>
<g id="a_edge19_Node000011_Node000016"><a xlink:title=" ">
<path fill="none" stroke="orange" stroke-dasharray="5,2" d="M390.34,-34.15C440.68,-37.2 510.74,-42.24 572,-49.53 720.87,-67.24 893.22,-103.09 985.17,-123.47"/>
<polygon fill="orange" stroke="orange" points="390.42,-30.65 380.23,-33.55 390,-37.63 390.42,-30.65"/>
</a>
</g>
<text text-anchor="start" x="593" y="-78.03" font-family="Helvetica,sans-Serif" font-size="10.00" fill="grey">&lt; kynema_sgf::FieldInfo &gt;</text>
</g>
<!-- Node17 -->
<g id="Node000017" class="node">
<title>Node17</title>
<g id="a_Node000017"><a xlink:href="structkynema__sgf_1_1pde_1_1_advection_op.html" target="_top" xlink:title=" ">
<polygon fill="white" stroke="#666666" points="1611,-32.53 1438,-32.53 1438,-2.53 1611,-2.53 1611,-32.53"/>
<text text-anchor="start" x="1446" y="-20.53" font-family="Helvetica,sans-Serif" font-size="10.00">kynema_sgf::pde::Advection</text>
<text text-anchor="middle" x="1524.5" y="-9.53" font-family="Helvetica,sans-Serif" font-size="10.00">Op&lt; PDE, Scheme, typename &gt;</text>
</a>
</g>
</g>
<!-- Node17&#45;&gt;Node1 -->
<g id="edge23_Node000001_Node000017" class="edge">
<title>Node17&#45;&gt;Node1</title>
<g id="a_edge23_Node000001_Node000017"><a xlink:title=" ">
<path fill="none" stroke="orange" stroke-dasharray="5,2" d="M1621.35,-2.56C1674.84,2.06 1741.8,1.52 1798,-18.53 1835.51,-31.91 1869.92,-62.23 1892.56,-85.81"/>
<polygon fill="orange" stroke="orange" points="1620.82,0.91 1611.19,-3.51 1621.47,-6.06 1620.82,0.91"/>
</a>
</g>
<text text-anchor="start" x="1632.5" y="-69.53" font-family="Helvetica,sans-Serif" font-size="10.00" fill="grey">&lt; PDE, fvm::Godunov,</text>
<text text-anchor="start" x="1632.5" y="-54.53" font-family="Helvetica,sans-Serif" font-size="10.00" fill="grey">   typename std::enable</text>
<text text-anchor="start" x="1632.5" y="-39.53" font-family="Helvetica,sans-Serif" font-size="10.00" fill="grey">  _if_t&lt; std::is_base_of</text>
<text text-anchor="start" x="1632.5" y="-24.53" font-family="Helvetica,sans-Serif" font-size="10.00" fill="grey">  _v&lt; ScalarTransport, PDE &gt; &gt; &gt;</text>
</g>
</g>
</svg>

<g id="navigator" transform="translate(0 0)" fill="#404254">
  <rect fill="#f2f5e9" fill-opacity="0.5" stroke="#606060" stroke-width=".5" x="0" y="0" width="60" height="60"/>
  <use id="zoomplus" xlink:href="#zoomPlus" x="17" y="9" onmousedown="handleZoom(evt,'in')"/>
  <use id="zoomminus" xlink:href="#zoomMin" x="42" y="9" onmousedown="handleZoom(evt,'out')"/>
  <use id="reset" xlink:href="#resetDef" x="30" y="36" onmousedown="handleReset()"/>
   <use id="arrowup" xlink:href="#arrowUp" x="0" y="0" onmousedown="handlePan(0,-1)"/>
  <use id="arrowright" xlink:href="#arrowRight" x="0" y="0" onmousedown="handlePan(1,0)"/>
  <use id="arrowdown" xlink:href="#arrowDown" x="0" y="0" onmousedown="handlePan(0,1)"/>
  <use id="arrowleft" xlink:href="#arrowLeft" x="0" y="0" onmousedown="handlePan(-1,0)"/>
</g>
<svg viewBox="0 0 15 15" width="100%" height="30px" preserveAspectRatio="xMaxYMin meet">
 <g id="arrow_out" transform="scale(0.3 0.3)">
  <a xlink:href="structkynema__sgf_1_1pde_1_1_advection_op_3_01_p_d_e_00_01fvm_1_1_godunov_00_01typename_01std_1_067531ef24bf56a9db9a3f8aa9e8ac63_org.svg" target="_base">
   <rect id="button" ry="5" rx="5" y="6" x="6" height="38" width="38"
        fill="#f2f5e9" fill-opacity="0.5" stroke="#606060" stroke-width="1.0"/>
   <path id="arrow"
     d="M 11.500037,31.436501 C 11.940474,20.09759 22.043105,11.32322 32.158766,21.979434 L 37.068811,17.246167 C 37.068811,17.246167 37.088388,32 37.088388,32 L 22.160133,31.978069 C 22.160133,31.978069 26.997745,27.140456 26.997745,27.140456 C 18.528582,18.264221 13.291696,25.230495 11.500037,31.436501 z"
     style="fill:#404040;"/>
  </a>
 </g>
</svg>

<style type='text/css'>
<![CDATA[
[data-mouse-over-selected='false'] { opacity: 0.7; }
[data-mouse-over-selected='true']  { opacity: 1.0; }
]]>
</style>
<script type="application/ecmascript"><![CDATA[
document.addEventListener('DOMContentLoaded', (event) => {
  highlightEdges();
  highlightAdjacentNodes();
});
]]></script>
</svg>
