<?xml version="1.0" encoding="UTF-8" standalone="no"?>
<!DOCTYPE svg PUBLIC "-//W3C//DTD SVG 1.1//EN"
 "http://www.w3.org/Graphics/SVG/1.1/DTD/svg11.dtd">
<!-- Generated by graphviz version 2.43.0 (0)
 -->
<!-- Title: kynema_sgf::actuator::ops::ComputeForceOp&lt; ActTrait, SrcTrait, typename &gt; Pages: 1 -->
<svg width="558pt" height="435pt"
 viewBox="0.00 0.00 558.00 434.50" xmlns="http://www.w3.org/2000/svg" xmlns:xlink="http://www.w3.org/1999/xlink">
<g id="graph0" class="graph" transform="scale(1 1) rotate(0) translate(4 430.5)">
<title>kynema_sgf::actuator::ops::ComputeForceOp&lt; ActTrait, SrcTrait, typename &gt;</title>
<!-- Node1 -->
<g id="Node000001" class="node">
<title>Node1</title>
<g id="a_Node000001"><a xlink:title=" ">
<polygon fill="#999999" stroke="#666666" points="130,-193.5 0,-193.5 0,-141.5 130,-141.5 130,-193.5"/>
<text text-anchor="start" x="8" y="-181.5" font-family="Helvetica,sans-Serif" font-size="10.00">kynema_sgf::actuator</text>
<text text-anchor="start" x="8" y="-170.5" font-family="Helvetica,sans-Serif" font-size="10.00">::ops::ComputeForceOp</text>
<text text-anchor="start" x="8" y="-159.5" font-family="Helvetica,sans-Serif" font-size="10.00">&lt; ActTrait, SrcTrait,</text>
<text text-anchor="middle" x="65" y="-148.5" font-family="Helvetica,sans-Serif" font-size="10.00"> typename &gt;</text>
</a>
</g>
</g>
<!-- Node2 -->
<g id="Node000002" class="node">
<title>Node2</title>
<g id="a_Node000002"><a xlink:href="structkynema__sgf_1_1actuator_1_1ops_1_1_compute_force_op_3_01_act_trait_00_01_act_src_line_00_0eb4f2451a11c1cf7e5cb0af86a923bd4.html" target="_top" xlink:title=" ">
<polygon fill="white" stroke="#666666" points="550,-380 345,-380 345,-295 550,-295 550,-380"/>
<text text-anchor="start" x="353" y="-368" font-family="Helvetica,sans-Serif" font-size="10.00">kynema_sgf::actuator</text>
<text text-anchor="start" x="353" y="-357" font-family="Helvetica,sans-Serif" font-size="10.00">::ops::ComputeForceOp</text>
<text text-anchor="start" x="353" y="-346" font-family="Helvetica,sans-Serif" font-size="10.00">&lt; ActTrait, ActSrcLine,</text>
<text text-anchor="start" x="353" y="-335" font-family="Helvetica,sans-Serif" font-size="10.00"> typename std::enable_if</text>
<text text-anchor="start" x="353" y="-324" font-family="Helvetica,sans-Serif" font-size="10.00">_t&lt; std::is_base_of_v&lt; WingType,</text>
<text text-anchor="start" x="353" y="-313" font-family="Helvetica,sans-Serif" font-size="10.00"> ActTrait &gt; &amp;&amp;UseDefaultOp&lt; ActTrait,</text>
<text text-anchor="middle" x="447.5" y="-302" font-family="Helvetica,sans-Serif" font-size="10.00"> ActSrcLine &gt;::compute_force &gt; &gt;</text>
</a>
</g>
</g>
<!-- Node1&#45;&gt;Node2 -->
<g id="edge1_Node000001_Node000002" class="edge">
<title>Node1&#45;&gt;Node2</title>
<g id="a_edge1_Node000001_Node000002"><a xlink:title=" ">
<path fill="none" stroke="orange" stroke-dasharray="5,2" d="M82.26,-202.9C96.05,-228.82 118.32,-262.63 148,-281.5 206.51,-318.7 283.67,-332.46 344.89,-337.04"/>
<polygon fill="orange" stroke="orange" points="85.25,-201.05 77.57,-193.75 79.02,-204.25 85.25,-201.05"/>
</a>
</g>
<text text-anchor="start" x="151.5" y="-415.5" font-family="Helvetica,sans-Serif" font-size="10.00" fill="grey">&lt; ActTrait, ActSrcLine,</text>
<text text-anchor="start" x="151.5" y="-400.5" font-family="Helvetica,sans-Serif" font-size="10.00" fill="grey">   typename std::enable</text>
<text text-anchor="start" x="151.5" y="-385.5" font-family="Helvetica,sans-Serif" font-size="10.00" fill="grey">  _if_t&lt; std::is_base_of</text>
<text text-anchor="start" x="151.5" y="-370.5" font-family="Helvetica,sans-Serif" font-size="10.00" fill="grey">  _v&lt; WingType, ActTrait &gt;</text>
<text text-anchor="start" x="151.5" y="-355.5" font-family="Helvetica,sans-Serif" font-size="10.00" fill="grey">   &amp;&amp;UseDefaultOp&lt; ActTrait,</text>
<text text-anchor="start" x="151.5" y="-340.5" font-family="Helvetica,sans-Serif" font-size="10.00" fill="grey">   ActSrcLine &gt;::compute_force &gt; &gt;</text>
</g>
<!-- Node3 -->
<g id="Node000003" class="node">
<title>Node3</title>
<g id="a_Node000003"><a xlink:href="structkynema__sgf_1_1actuator_1_1ops_1_1_compute_force_op_3_01_actuator_sector_00_01_act_src_sector_01_4.html" target="_top" xlink:title=" ">
<polygon fill="white" stroke="#666666" points="537,-277 358,-277 358,-236 537,-236 537,-277"/>
<text text-anchor="start" x="366" y="-265" font-family="Helvetica,sans-Serif" font-size="10.00">kynema_sgf::actuator</text>
<text text-anchor="start" x="366" y="-254" font-family="Helvetica,sans-Serif" font-size="10.00">::ops::ComputeForceOp</text>
<text text-anchor="middle" x="447.5" y="-243" font-family="Helvetica,sans-Serif" font-size="10.00">&lt; ActuatorSector, ActSrcSector &gt;</text>
</a>
</g>
</g>
<!-- Node1&#45;&gt;Node3 -->
<g id="edge2_Node000001_Node000003" class="edge">
<title>Node1&#45;&gt;Node3</title>
<g id="a_edge2_Node000001_Node000003"><a xlink:title=" ">
<path fill="none" stroke="orange" stroke-dasharray="5,2" d="M119.88,-198.12C129.05,-202.45 138.65,-206.45 148,-209.5 216.59,-231.83 297.61,-243.73 357.93,-249.97"/>
<polygon fill="orange" stroke="orange" points="121.39,-194.96 110.87,-193.71 118.31,-201.25 121.39,-194.96"/>
</a>
</g>
<text text-anchor="start" x="177.5" y="-266.5" font-family="Helvetica,sans-Serif" font-size="10.00" fill="grey">&lt; ActuatorSector, ActSrc</text>
<text text-anchor="start" x="177.5" y="-251.5" font-family="Helvetica,sans-Serif" font-size="10.00" fill="grey">  Sector &gt;</text>
</g>
<!-- Node4 -->
<g id="Node000004" class="node">
<title>Node4</title>
<g id="a_Node000004"><a xlink:href="structkynema__sgf_1_1actuator_1_1ops_1_1_compute_force_op_3_01_joukowsky_00_01_act_src_disk_01_4.html" target="_top" xlink:title="Compute Forces following procedures of Sorenson 2020.">
<polygon fill="white" stroke="#666666" points="522,-218 373,-218 373,-177 522,-177 522,-218"/>
<text text-anchor="start" x="381" y="-206" font-family="Helvetica,sans-Serif" font-size="10.00">kynema_sgf::actuator</text>
<text text-anchor="start" x="381" y="-195" font-family="Helvetica,sans-Serif" font-size="10.00">::ops::ComputeForceOp</text>
<text text-anchor="middle" x="447.5" y="-184" font-family="Helvetica,sans-Serif" font-size="10.00">&lt; Joukowsky, ActSrcDisk &gt;</text>
</a>
</g>
</g>
<!-- Node1&#45;&gt;Node4 -->
<g id="edge3_Node000001_Node000004" class="edge">
<title>Node1&#45;&gt;Node4</title>
<g id="a_edge3_Node000001_Node000004"><a xlink:title=" ">
<path fill="none" stroke="orange" stroke-dasharray="5,2" d="M140.41,-174.84C142.97,-175.06 145.51,-175.29 148,-175.5 224.63,-182.06 312.42,-188.39 372.86,-192.56"/>
<polygon fill="orange" stroke="orange" points="140.72,-171.35 130.44,-173.93 140.09,-178.32 140.72,-171.35"/>
</a>
</g>
<text text-anchor="start" x="171.5" y="-194" font-family="Helvetica,sans-Serif" font-size="10.00" fill="grey">&lt; Joukowsky, ActSrcDisk &gt;</text>
</g>
<!-- Node5 -->
<g id="Node000005" class="node">
<title>Node5</title>
<g id="a_Node000005"><a xlink:href="structkynema__sgf_1_1actuator_1_1ops_1_1_compute_force_op_3_01_turbine_fast_00_01_src_trait_01_4.html" target="_top" xlink:title=" ">
<polygon fill="white" stroke="#666666" points="515.5,-159 379.5,-159 379.5,-118 515.5,-118 515.5,-159"/>
<text text-anchor="start" x="387.5" y="-147" font-family="Helvetica,sans-Serif" font-size="10.00">kynema_sgf::actuator</text>
<text text-anchor="start" x="387.5" y="-136" font-family="Helvetica,sans-Serif" font-size="10.00">::ops::ComputeForceOp</text>
<text text-anchor="middle" x="447.5" y="-125" font-family="Helvetica,sans-Serif" font-size="10.00">&lt; TurbineFast, SrcTrait &gt;</text>
</a>
</g>
</g>
<!-- Node1&#45;&gt;Node5 -->
<g id="edge4_Node000001_Node000005" class="edge">
<title>Node1&#45;&gt;Node5</title>
<g id="a_edge4_Node000001_Node000005"><a xlink:title=" ">
<path fill="none" stroke="orange" stroke-dasharray="5,2" d="M140.4,-159.19C142.97,-158.95 145.5,-158.72 148,-158.5 227.42,-151.48 318.92,-145.69 379.45,-142.18"/>
<polygon fill="orange" stroke="orange" points="140.05,-155.71 130.43,-160.17 140.72,-162.68 140.05,-155.71"/>
</a>
</g>
<text text-anchor="start" x="177.5" y="-164" font-family="Helvetica,sans-Serif" font-size="10.00" fill="grey">&lt; TurbineFast, SrcTrait &gt;</text>
</g>
<!-- Node6 -->
<g id="Node000006" class="node">
<title>Node6</title>
<g id="a_Node000006"><a xlink:href="structkynema__sgf_1_1actuator_1_1ops_1_1_compute_force_op_3_01_turbine_kynema_f_m_b_00_01_src_trait_01_4.html" target="_top" xlink:title=" ">
<polygon fill="white" stroke="#666666" points="536.5,-100 358.5,-100 358.5,-59 536.5,-59 536.5,-100"/>
<text text-anchor="start" x="366.5" y="-88" font-family="Helvetica,sans-Serif" font-size="10.00">kynema_sgf::actuator</text>
<text text-anchor="start" x="366.5" y="-77" font-family="Helvetica,sans-Serif" font-size="10.00">::ops::ComputeForceOp</text>
<text text-anchor="middle" x="447.5" y="-66" font-family="Helvetica,sans-Serif" font-size="10.00">&lt; TurbineKynemaFMB, SrcTrait &gt;</text>
</a>
</g>
</g>
<!-- Node1&#45;&gt;Node6 -->
<g id="edge5_Node000001_Node000006" class="edge">
<title>Node1&#45;&gt;Node6</title>
<g id="a_edge5_Node000001_Node000006"><a xlink:title=" ">
<path fill="none" stroke="orange" stroke-dasharray="5,2" d="M102.55,-134.91C115.95,-124.74 131.83,-114.59 148,-108.5 215.48,-83.08 297.32,-76.68 358.22,-76.15"/>
<polygon fill="orange" stroke="orange" points="100.23,-132.28 94.54,-141.22 104.56,-137.78 100.23,-132.28"/>
</a>
</g>
<text text-anchor="start" x="181.5" y="-129.5" font-family="Helvetica,sans-Serif" font-size="10.00" fill="grey">&lt; TurbineKynemaFMB,</text>
<text text-anchor="start" x="181.5" y="-114.5" font-family="Helvetica,sans-Serif" font-size="10.00" fill="grey">   SrcTrait &gt;</text>
</g>
<!-- Node7 -->
<g id="Node000007" class="node">
<title>Node7</title>
<g id="a_Node000007"><a xlink:href="structkynema__sgf_1_1actuator_1_1ops_1_1_compute_force_op_3_01_uniform_ct_00_01_act_src_disk_01_4.html" target="_top" xlink:title=" ">
<polygon fill="white" stroke="#666666" points="521.5,-41 373.5,-41 373.5,0 521.5,0 521.5,-41"/>
<text text-anchor="start" x="381.5" y="-29" font-family="Helvetica,sans-Serif" font-size="10.00">kynema_sgf::actuator</text>
<text text-anchor="start" x="381.5" y="-18" font-family="Helvetica,sans-Serif" font-size="10.00">::ops::ComputeForceOp</text>
<text text-anchor="middle" x="447.5" y="-7" font-family="Helvetica,sans-Serif" font-size="10.00">&lt; UniformCt, ActSrcDisk &gt;</text>
</a>
</g>
</g>
<!-- Node1&#45;&gt;Node7 -->
<g id="edge6_Node000001_Node000007" class="edge">
<title>Node1&#45;&gt;Node7</title>
<g id="a_edge6_Node000001_Node000007"><a xlink:title=" ">
<path fill="none" stroke="orange" stroke-dasharray="5,2" d="M82.06,-132.13C95.74,-106.36 117.96,-73.01 148,-55.5 216.74,-15.43 309.51,-10.68 373.29,-13.39"/>
<polygon fill="orange" stroke="orange" points="78.84,-130.74 77.41,-141.24 85.07,-133.93 78.84,-130.74"/>
</a>
</g>
<text text-anchor="start" x="171.5" y="-61" font-family="Helvetica,sans-Serif" font-size="10.00" fill="grey">&lt; UniformCt, ActSrcDisk &gt;</text>
</g>
</g>
</svg>
