<?xml version="1.0" encoding="UTF-8" standalone="no"?>
<!DOCTYPE svg PUBLIC "-//W3C//DTD SVG 1.1//EN"
 "http://www.w3.org/Graphics/SVG/1.1/DTD/svg11.dtd">
<!-- Generated by graphviz version 2.43.0 (0)
 -->
<!-- Title: kynema_sgf::pde::AdvectionOp&lt; ICNS, fvm::Godunov &gt; Pages: 1 -->
<svg width="2155pt" height="534pt"
 viewBox="0.00 0.00 2155.00 533.50" xmlns="http://www.w3.org/2000/svg" xmlns:xlink="http://www.w3.org/1999/xlink">
<g id="graph0" class="graph" transform="scale(1 1) rotate(0) translate(4 529.5)">
<title>kynema_sgf::pde::AdvectionOp&lt; ICNS, fvm::Godunov &gt;</title>
<!-- Node1 -->
<g id="Node000001" class="node">
<title>Node1</title>
<g id="a_Node000001"><a xlink:title=" ">
<polygon fill="#999999" stroke="#666666" points="2147,-228.5 1993,-228.5 1993,-198.5 2147,-198.5 2147,-228.5"/>
<text text-anchor="start" x="2001" y="-216.5" font-family="Helvetica,sans-Serif" font-size="10.00">kynema_sgf::pde::Advection</text>
<text text-anchor="middle" x="2070" y="-205.5" font-family="Helvetica,sans-Serif" font-size="10.00">Op&lt; ICNS, fvm::Godunov &gt;</text>
</a>
</g>
</g>
<!-- Node2 -->
<g id="Node000002" class="node">
<title>Node2</title>
<g id="a_Node000002"><a xlink:href="structkynema__sgf_1_1pde_1_1_p_d_e_fields.html" target="_top" xlink:title=" ">
<polygon fill="white" stroke="#666666" points="1820,-298 1667,-298 1667,-279 1820,-279 1820,-298"/>
<text text-anchor="middle" x="1743.5" y="-286" font-family="Helvetica,sans-Serif" font-size="10.00">kynema_sgf::pde::PDEFields</text>
</a>
</g>
</g>
<!-- Node2&#45;&gt;Node1 -->
<g id="edge1_Node000001_Node000002" class="edge">
<title>Node2&#45;&gt;Node1</title>
<g id="a_edge1_Node000001_Node000002"><a xlink:title=" ">
<path fill="none" stroke="#9a32cd" stroke-dasharray="5,2" d="M1795.69,-276.67C1852.03,-263.65 1942.71,-242.69 2004.02,-228.52"/>
<polygon fill="#9a32cd" stroke="#9a32cd" points="1794.88,-273.26 1785.93,-278.93 1796.46,-280.08 1794.88,-273.26"/>
</a>
</g>
<text text-anchor="start" x="1898.5" y="-269" font-family="Helvetica,sans-Serif" font-size="10.00" fill="grey">fields</text>
</g>
<!-- Node3 -->
<g id="Node000003" class="node">
<title>Node3</title>
<g id="a_Node000003"><a xlink:href="classkynema__sgf_1_1_field_repo.html" target="_top" xlink:title=" ">
<polygon fill="white" stroke="#666666" points="1293.5,-197 1164.5,-197 1164.5,-178 1293.5,-178 1293.5,-197"/>
<text text-anchor="middle" x="1229" y="-185" font-family="Helvetica,sans-Serif" font-size="10.00">kynema_sgf::FieldRepo</text>
</a>
</g>
</g>
<!-- Node3&#45;&gt;Node2 -->
<g id="edge2_Node000002_Node000003" class="edge">
<title>Node3&#45;&gt;Node2</title>
<g id="a_edge2_Node000002_Node000003"><a xlink:title=" ">
<path fill="none" stroke="#9a32cd" stroke-dasharray="5,2" d="M1303.78,-188.9C1371.57,-191.12 1474.62,-196.82 1563,-211.5 1597.46,-217.22 1612.65,-208.58 1639,-231.5 1654.63,-245.1 1640.74,-261.66 1657,-274.5 1660.07,-276.92 1663.4,-279 1666.9,-280.77"/>
<polygon fill="#9a32cd" stroke="#9a32cd" points="1303.73,-185.4 1293.63,-188.59 1303.52,-192.4 1303.73,-185.4"/>
</a>
</g>
<text text-anchor="start" x="1467" y="-217" font-family="Helvetica,sans-Serif" font-size="10.00" fill="grey">repo</text>
</g>
<!-- Node10 -->
<g id="Node000010" class="node">
<title>Node10</title>
<g id="a_Node000010"><a xlink:href="classkynema__sgf_1_1_field.html" target="_top" xlink:title=" ">
<polygon fill="white" stroke="#666666" points="1530,-256 1426,-256 1426,-237 1530,-237 1530,-256"/>
<text text-anchor="middle" x="1478" y="-244" font-family="Helvetica,sans-Serif" font-size="10.00">kynema_sgf::Field</text>
</a>
</g>
</g>
<!-- Node3&#45;&gt;Node10 -->
<g id="edge10_Node000010_Node000003" class="edge">
<title>Node3&#45;&gt;Node10</title>
<g id="a_edge10_Node000010_Node000003"><a xlink:title=" ">
<path fill="none" stroke="#9a32cd" stroke-dasharray="5,2" d="M1279.79,-199.39C1326.11,-210.46 1394.25,-226.73 1437.1,-236.97"/>
<polygon fill="#9a32cd" stroke="#9a32cd" points="1280.5,-195.96 1269.96,-197.04 1278.87,-202.77 1280.5,-195.96"/>
</a>
</g>
<text text-anchor="start" x="1328" y="-226" font-family="Helvetica,sans-Serif" font-size="10.00" fill="grey">m_repo</text>
</g>
<!-- Node17 -->
<g id="Node000017" class="node">
<title>Node17</title>
<g id="a_Node000017"><a xlink:href="classkynema__sgf_1_1pde_1_1_mac_proj_op.html" target="_top" xlink:title=" ">
<polygon fill="white" stroke="#666666" points="1822.5,-159 1664.5,-159 1664.5,-140 1822.5,-140 1822.5,-159"/>
<text text-anchor="middle" x="1743.5" y="-147" font-family="Helvetica,sans-Serif" font-size="10.00">kynema_sgf::pde::MacProjOp</text>
</a>
</g>
</g>
<!-- Node3&#45;&gt;Node17 -->
<g id="edge23_Node000017_Node000003" class="edge">
<title>Node3&#45;&gt;Node17</title>
<g id="a_edge23_Node000017_Node000003"><a xlink:title=" ">
<path fill="none" stroke="#9a32cd" stroke-dasharray="5,2" d="M1270.84,-175.23C1303.53,-166.08 1350.75,-154.36 1393,-149.5 1485.83,-138.82 1593.45,-140.99 1664.47,-144.41"/>
<polygon fill="#9a32cd" stroke="#9a32cd" points="1269.84,-171.88 1261.18,-177.98 1271.75,-178.61 1269.84,-171.88"/>
</a>
</g>
<text text-anchor="start" x="1460" y="-155" font-family="Helvetica,sans-Serif" font-size="10.00" fill="grey">m_repo</text>
</g>
<!-- Node4 -->
<g id="Node000004" class="node">
<title>Node4</title>
<g id="a_Node000004"><a xlink:title=" ">
<polygon fill="white" stroke="#666666" points="660,-225.5 538,-225.5 538,-195.5 660,-195.5 660,-225.5"/>
<text text-anchor="start" x="546" y="-213.5" font-family="Helvetica,sans-Serif" font-size="10.00">std::unordered_map</text>
<text text-anchor="middle" x="599" y="-202.5" font-family="Helvetica,sans-Serif" font-size="10.00">&lt; std::string, size_t &gt;</text>
</a>
</g>
</g>
<!-- Node4&#45;&gt;Node3 -->
<g id="edge3_Node000003_Node000004" class="edge">
<title>Node4&#45;&gt;Node3</title>
<g id="a_edge3_Node000003_Node000004"><a xlink:title=" ">
<path fill="none" stroke="#9a32cd" stroke-dasharray="5,2" d="M670.21,-207.2C720.53,-204.89 789.94,-201.81 851,-199.5 961.1,-195.34 1089.32,-191.46 1164.29,-189.3"/>
<polygon fill="#9a32cd" stroke="#9a32cd" points="669.92,-203.71 660.09,-207.66 670.24,-210.7 669.92,-203.71"/>
</a>
</g>
<text text-anchor="start" x="876.5" y="-220.5" font-family="Helvetica,sans-Serif" font-size="10.00" fill="grey">m_fid_map</text>
<text text-anchor="start" x="876.5" y="-205.5" font-family="Helvetica,sans-Serif" font-size="10.00" fill="grey">m_int_fid_map</text>
</g>
<!-- Node5 -->
<g id="Node000005" class="node">
<title>Node5</title>
<g id="a_Node000005"><a xlink:title=" ">
<polygon fill="white" stroke="#666666" points="297,-249 232,-249 232,-230 297,-230 297,-249"/>
<text text-anchor="middle" x="264.5" y="-237" font-family="Helvetica,sans-Serif" font-size="10.00">std::string</text>
</a>
</g>
</g>
<!-- Node5&#45;&gt;Node1 -->
<g id="edge35_Node000001_Node000005" class="edge">
<title>Node5&#45;&gt;Node1</title>
<g id="a_edge35_Node000001_Node000005"><a xlink:title=" ">
<path fill="none" stroke="#9a32cd" stroke-dasharray="5,2" d="M306.64,-251.82C369.03,-269.37 491.59,-299.5 598,-299.5 598,-299.5 598,-299.5 1067.5,-299.5 1321.74,-299.5 1385.01,-335.78 1639,-324.5 1724.14,-320.72 1745.42,-317.96 1830,-307.5 1894.76,-299.49 1914.95,-310.04 1975,-284.5 2006.24,-271.21 2036.49,-245.3 2053.9,-228.73"/>
<polygon fill="#9a32cd" stroke="#9a32cd" points="307.37,-248.38 296.79,-249.01 305.45,-255.12 307.37,-248.38"/>
</a>
</g>
<text text-anchor="start" x="1181" y="-391.5" font-family="Helvetica,sans-Serif" font-size="10.00" fill="grey">godunov_type</text>
<text text-anchor="start" x="1181" y="-376.5" font-family="Helvetica,sans-Serif" font-size="10.00" fill="grey">mflux_type</text>
<text text-anchor="start" x="1181" y="-361.5" font-family="Helvetica,sans-Serif" font-size="10.00" fill="grey">postmac_advection</text>
<text text-anchor="start" x="1181" y="-346.5" font-family="Helvetica,sans-Serif" font-size="10.00" fill="grey">  _type</text>
<text text-anchor="start" x="1181" y="-331.5" font-family="Helvetica,sans-Serif" font-size="10.00" fill="grey">premac_advection</text>
<text text-anchor="start" x="1181" y="-316.5" font-family="Helvetica,sans-Serif" font-size="10.00" fill="grey">  _type</text>
</g>
<!-- Node5&#45;&gt;Node4 -->
<g id="edge4_Node000004_Node000005" class="edge">
<title>Node5&#45;&gt;Node4</title>
<g id="a_edge4_Node000004_Node000005"><a xlink:title=" ">
<path fill="none" stroke="#9a32cd" stroke-dasharray="5,2" d="M307.23,-230.33C322.22,-227.37 339.3,-224.37 355,-222.5 417.07,-215.11 488.59,-212.25 537.89,-211.16"/>
<polygon fill="#9a32cd" stroke="#9a32cd" points="306.33,-226.94 297.23,-232.36 307.73,-233.8 306.33,-226.94"/>
</a>
</g>
<text text-anchor="start" x="417" y="-228" font-family="Helvetica,sans-Serif" font-size="10.00" fill="grey">keys</text>
</g>
<!-- Node5&#45;&gt;Node10 -->
<g id="edge11_Node000010_Node000005" class="edge">
<title>Node5&#45;&gt;Node10</title>
<g id="a_edge11_Node000010_Node000005"><a xlink:title=" ">
<path fill="none" stroke="#9a32cd" stroke-dasharray="5,2" d="M307.44,-242.4C370.47,-246.5 493.41,-253.5 598,-253.5 598,-253.5 598,-253.5 1230,-253.5 1297.78,-253.5 1375.98,-250.83 1425.92,-248.79"/>
<polygon fill="#9a32cd" stroke="#9a32cd" points="307.32,-238.88 297.11,-241.72 306.86,-245.87 307.32,-238.88"/>
</a>
</g>
<text text-anchor="start" x="891.5" y="-259" font-family="Helvetica,sans-Serif" font-size="10.00" fill="grey">m_name</text>
</g>
<!-- Node12 -->
<g id="Node000012" class="node">
<title>Node12</title>
<g id="a_Node000012"><a xlink:href="structkynema__sgf_1_1_field_info.html" target="_top" xlink:title=" ">
<polygon fill="white" stroke="#666666" points="974,-475 851,-475 851,-456 974,-456 974,-475"/>
<text text-anchor="middle" x="912.5" y="-463" font-family="Helvetica,sans-Serif" font-size="10.00">kynema_sgf::FieldInfo</text>
</a>
</g>
</g>
<!-- Node5&#45;&gt;Node12 -->
<g id="edge14_Node000012_Node000005" class="edge">
<title>Node5&#45;&gt;Node12</title>
<g id="a_edge14_Node000012_Node000005"><a xlink:title=" ">
<path fill="none" stroke="#9a32cd" stroke-dasharray="5,2" d="M281.79,-256.69C298.62,-273.5 326.4,-298.65 355,-313.5 446.78,-361.14 752.59,-430.82 867.42,-455.99"/>
<polygon fill="#9a32cd" stroke="#9a32cd" points="283.95,-253.89 274.45,-249.2 278.94,-258.79 283.95,-253.89"/>
</a>
</g>
<text text-anchor="start" x="566" y="-417" font-family="Helvetica,sans-Serif" font-size="10.00" fill="grey">m_basename</text>
</g>
<!-- Node20 -->
<g id="Node000020" class="node">
<title>Node20</title>
<g id="a_Node000020"><a xlink:title=" ">
<polygon fill="white" stroke="#666666" points="656,-83.5 542,-83.5 542,-53.5 656,-53.5 656,-83.5"/>
<text text-anchor="start" x="550" y="-71.5" font-family="Helvetica,sans-Serif" font-size="10.00">std::unordered_map</text>
<text text-anchor="middle" x="599" y="-60.5" font-family="Helvetica,sans-Serif" font-size="10.00">&lt; std::string, int &gt;</text>
</a>
</g>
</g>
<!-- Node5&#45;&gt;Node20 -->
<g id="edge27_Node000020_Node000005" class="edge">
<title>Node5&#45;&gt;Node20</title>
<g id="a_edge27_Node000020_Node000005"><a xlink:title=" ">
<path fill="none" stroke="#9a32cd" stroke-dasharray="5,2" d="M306.76,-227.84C318.14,-222.72 329.42,-215.52 337,-205.5 365.83,-167.39 320.52,-132.58 355,-99.5 361.69,-93.08 472.17,-81.01 541.83,-73.97"/>
<polygon fill="#9a32cd" stroke="#9a32cd" points="305.24,-224.68 297.27,-231.66 307.85,-231.17 305.24,-224.68"/>
</a>
</g>
<text text-anchor="start" x="417" y="-105" font-family="Helvetica,sans-Serif" font-size="10.00" fill="grey">keys</text>
</g>
<!-- Node23 -->
<g id="Node000023" class="node">
<title>Node23</title>
<g id="a_Node000023"><a xlink:href="structkynema__sgf_1_1_m_l_m_g_options.html" target="_top" xlink:title=" ">
<polygon fill="white" stroke="#666666" points="1141,-130 992,-130 992,-111 1141,-111 1141,-130"/>
<text text-anchor="middle" x="1066.5" y="-118" font-family="Helvetica,sans-Serif" font-size="10.00">kynema_sgf::MLMGOptions</text>
</a>
</g>
</g>
<!-- Node5&#45;&gt;Node23 -->
<g id="edge34_Node000023_Node000005" class="edge">
<title>Node5&#45;&gt;Node23</title>
<g id="a_edge34_Node000023_Node000005"><a xlink:title=" ">
<path fill="none" stroke="#9a32cd" stroke-dasharray="5,2" d="M304.26,-225.93C315.64,-220.72 327.55,-213.95 337,-205.5 348.31,-195.39 342.64,-185.3 355,-176.5 415.87,-133.17 444.89,-149.06 519,-139.5 687.07,-117.81 886.46,-117.13 991.78,-118.71"/>
<polygon fill="#9a32cd" stroke="#9a32cd" points="302.71,-222.78 294.89,-229.94 305.46,-229.22 302.71,-222.78"/>
</a>
</g>
<text text-anchor="start" x="543" y="-175" font-family="Helvetica,sans-Serif" font-size="10.00" fill="grey">m_bottom_solver_type</text>
<text text-anchor="start" x="543" y="-160" font-family="Helvetica,sans-Serif" font-size="10.00" fill="grey">m_hypre_interface</text>
<text text-anchor="start" x="543" y="-145" font-family="Helvetica,sans-Serif" font-size="10.00" fill="grey">m_hypre_namespace</text>
</g>
<!-- Node6 -->
<g id="Node000006" class="node">
<title>Node6</title>
<g id="a_Node000006"><a xlink:title=" ">
<polygon fill="white" stroke="#666666" points="104,-254.5 0,-254.5 0,-224.5 104,-224.5 104,-254.5"/>
<text text-anchor="start" x="8" y="-242.5" font-family="Helvetica,sans-Serif" font-size="10.00">std::basic_string&lt;</text>
<text text-anchor="middle" x="52" y="-231.5" font-family="Helvetica,sans-Serif" font-size="10.00"> Char &gt;</text>
</a>
</g>
</g>
<!-- Node6&#45;&gt;Node5 -->
<g id="edge5_Node000005_Node000006" class="edge">
<title>Node6&#45;&gt;Node5</title>
<g id="a_edge5_Node000005_Node000006"><a xlink:title=" ">
<path fill="none" stroke="#63b8ff" d="M114.28,-239.5C152.73,-239.5 200.72,-239.5 231.73,-239.5"/>
<polygon fill="#63b8ff" stroke="#63b8ff" points="114.22,-236 104.22,-239.5 114.22,-243 114.22,-236"/>
</a>
</g>
</g>
<!-- Node7 -->
<g id="Node000007" class="node">
<title>Node7</title>
<g id="a_Node000007"><a xlink:title=" ">
<polygon fill="white" stroke="#666666" points="321.5,-196.5 207.5,-196.5 207.5,-166.5 321.5,-166.5 321.5,-196.5"/>
<text text-anchor="start" x="215.5" y="-184.5" font-family="Helvetica,sans-Serif" font-size="10.00">std::unordered_map</text>
<text text-anchor="middle" x="264.5" y="-173.5" font-family="Helvetica,sans-Serif" font-size="10.00">&lt; K, T &gt;</text>
</a>
</g>
</g>
<!-- Node7&#45;&gt;Node4 -->
<g id="edge6_Node000004_Node000007" class="edge">
<title>Node7&#45;&gt;Node4</title>
<g id="a_edge6_Node000004_Node000007"><a xlink:title=" ">
<path fill="none" stroke="orange" stroke-dasharray="5,2" d="M331.97,-181.12C379.27,-181.56 444.24,-183.61 501,-190.5 513.03,-191.96 525.8,-194.13 537.97,-196.52"/>
<polygon fill="orange" stroke="orange" points="331.88,-177.62 321.85,-181.05 331.83,-184.62 331.88,-177.62"/>
</a>
</g>
<text text-anchor="start" x="375" y="-196" font-family="Helvetica,sans-Serif" font-size="10.00" fill="grey">&lt; std::string, size_t &gt;</text>
</g>
<!-- Node7&#45;&gt;Node20 -->
<g id="edge28_Node000020_Node000007" class="edge">
<title>Node7&#45;&gt;Node20</title>
<g id="a_edge28_Node000020_Node000007"><a xlink:title=" ">
<path fill="none" stroke="orange" stroke-dasharray="5,2" d="M275.33,-156.72C288.5,-127.33 314.96,-79.78 355,-59.5 416.38,-28.4 498.11,-40.55 549.4,-53.49"/>
<polygon fill="orange" stroke="orange" points="271.95,-155.71 271.22,-166.28 278.38,-158.48 271.95,-155.71"/>
</a>
</g>
<text text-anchor="start" x="383" y="-65" font-family="Helvetica,sans-Serif" font-size="10.00" fill="grey">&lt; std::string, int &gt;</text>
</g>
<!-- Node8 -->
<g id="Node000008" class="node">
<title>Node8</title>
<g id="a_Node000008"><a xlink:title=" ">
<polygon fill="white" stroke="#666666" points="66.5,-191 37.5,-191 37.5,-172 66.5,-172 66.5,-191"/>
<text text-anchor="middle" x="52" y="-179" font-family="Helvetica,sans-Serif" font-size="10.00">K</text>
</a>
</g>
</g>
<!-- Node8&#45;&gt;Node7 -->
<g id="edge7_Node000007_Node000008" class="edge">
<title>Node8&#45;&gt;Node7</title>
<g id="a_edge7_Node000007_Node000008"><a xlink:title=" ">
<path fill="none" stroke="#9a32cd" stroke-dasharray="5,2" d="M76.83,-181.5C108.28,-181.5 164.61,-181.5 207.19,-181.5"/>
<polygon fill="#9a32cd" stroke="#9a32cd" points="76.81,-178 66.81,-181.5 76.81,-185 76.81,-178"/>
</a>
</g>
<text text-anchor="start" x="137" y="-187" font-family="Helvetica,sans-Serif" font-size="10.00" fill="grey">keys</text>
</g>
<!-- Node9 -->
<g id="Node000009" class="node">
<title>Node9</title>
<g id="a_Node000009"><a xlink:title=" ">
<polygon fill="white" stroke="#666666" points="66.5,-396 37.5,-396 37.5,-377 66.5,-377 66.5,-396"/>
<text text-anchor="middle" x="52" y="-384" font-family="Helvetica,sans-Serif" font-size="10.00">T</text>
</a>
</g>
</g>
<!-- Node9&#45;&gt;Node7 -->
<g id="edge8_Node000007_Node000009" class="edge">
<title>Node9&#45;&gt;Node7</title>
<g id="a_edge8_Node000007_Node000009"><a xlink:title=" ">
<path fill="none" stroke="#9a32cd" stroke-dasharray="5,2" d="M64.93,-368.4C87.02,-335.92 137.07,-266.87 192,-221.5 203.73,-211.81 218.15,-203.23 230.96,-196.53"/>
<polygon fill="#9a32cd" stroke="#9a32cd" points="61.9,-366.65 59.23,-376.9 67.71,-370.55 61.9,-366.65"/>
</a>
</g>
<text text-anchor="start" x="125" y="-293" font-family="Helvetica,sans-Serif" font-size="10.00" fill="grey">elements</text>
</g>
<!-- Node15 -->
<g id="Node000015" class="node">
<title>Node15</title>
<g id="a_Node000015"><a xlink:title=" ">
<polygon fill="white" stroke="#666666" points="323.5,-396 205.5,-396 205.5,-377 323.5,-377 323.5,-396"/>
<text text-anchor="middle" x="264.5" y="-384" font-family="Helvetica,sans-Serif" font-size="10.00">std::unique_ptr&lt; T &gt;</text>
</a>
</g>
</g>
<!-- Node9&#45;&gt;Node15 -->
<g id="edge18_Node000015_Node000009" class="edge">
<title>Node9&#45;&gt;Node15</title>
<g id="a_edge18_Node000015_Node000009"><a xlink:title=" ">
<path fill="none" stroke="#9a32cd" stroke-dasharray="5,2" d="M77.09,-386.5C108.13,-386.5 163.09,-386.5 205.32,-386.5"/>
<polygon fill="#9a32cd" stroke="#9a32cd" points="76.81,-383 66.81,-386.5 76.81,-390 76.81,-383"/>
</a>
</g>
<text text-anchor="start" x="141" y="-392" font-family="Helvetica,sans-Serif" font-size="10.00" fill="grey">ptr</text>
</g>
<!-- Node16 -->
<g id="Node000016" class="node">
<title>Node16</title>
<g id="a_Node000016"><a xlink:title=" ">
<polygon fill="white" stroke="#666666" points="487,-515 369,-515 369,-496 487,-496 487,-515"/>
<text text-anchor="middle" x="428" y="-503" font-family="Helvetica,sans-Serif" font-size="10.00">std::shared_ptr&lt; T &gt;</text>
</a>
</g>
</g>
<!-- Node9&#45;&gt;Node16 -->
<g id="edge20_Node000016_Node000009" class="edge">
<title>Node9&#45;&gt;Node16</title>
<g id="a_edge20_Node000016_Node000009"><a xlink:title=" ">
<path fill="none" stroke="#9a32cd" stroke-dasharray="5,2" d="M69.69,-403.3C94.11,-426.67 142.11,-468.17 192,-486.5 249.44,-507.61 319.93,-510.54 368.65,-509.33"/>
<polygon fill="#9a32cd" stroke="#9a32cd" points="71.95,-400.61 62.35,-396.13 67.06,-405.62 71.95,-400.61"/>
</a>
</g>
<text text-anchor="start" x="141" y="-484" font-family="Helvetica,sans-Serif" font-size="10.00" fill="grey">ptr</text>
</g>
<!-- Node10&#45;&gt;Node1 -->
<g id="edge21_Node000001_Node000010" class="edge">
<title>Node10&#45;&gt;Node1</title>
<g id="a_edge21_Node000001_Node000010"><a xlink:title=" ">
<path fill="none" stroke="#9a32cd" stroke-dasharray="5,2" d="M1540.16,-237.09C1553.6,-235.14 1567.77,-233.17 1581,-231.5 1614.7,-227.25 1623.11,-225.69 1657,-223.5 1774.1,-215.93 1910.25,-213.95 1992.98,-213.51"/>
<polygon fill="#9a32cd" stroke="#9a32cd" points="1539.43,-233.66 1530.05,-238.57 1540.45,-240.58 1539.43,-233.66"/>
</a>
</g>
<text text-anchor="start" x="1726.5" y="-259" font-family="Helvetica,sans-Serif" font-size="10.00" fill="grey">u_mac</text>
<text text-anchor="start" x="1726.5" y="-244" font-family="Helvetica,sans-Serif" font-size="10.00" fill="grey">v_mac</text>
<text text-anchor="start" x="1726.5" y="-229" font-family="Helvetica,sans-Serif" font-size="10.00" fill="grey">w_mac</text>
</g>
<!-- Node10&#45;&gt;Node2 -->
<g id="edge9_Node000002_Node000010" class="edge">
<title>Node10&#45;&gt;Node2</title>
<g id="a_edge9_Node000002_Node000010"><a xlink:title=" ">
<path fill="none" stroke="#9a32cd" stroke-dasharray="5,2" d="M1540.34,-236.53C1571.01,-234.09 1608.08,-235.09 1639,-247.5 1649.21,-251.6 1647.42,-259.08 1657,-264.5 1668,-270.73 1680.73,-275.43 1692.94,-278.94"/>
<polygon fill="#9a32cd" stroke="#9a32cd" points="1539.84,-233.07 1530.2,-237.48 1540.49,-240.04 1539.84,-233.07"/>
</a>
</g>
<text text-anchor="start" x="1584" y="-313" font-family="Helvetica,sans-Serif" font-size="10.00" fill="grey">conv_term</text>
<text text-anchor="start" x="1584" y="-298" font-family="Helvetica,sans-Serif" font-size="10.00" fill="grey">diff_term</text>
<text text-anchor="start" x="1584" y="-283" font-family="Helvetica,sans-Serif" font-size="10.00" fill="grey">field</text>
<text text-anchor="start" x="1584" y="-268" font-family="Helvetica,sans-Serif" font-size="10.00" fill="grey">mueff</text>
<text text-anchor="start" x="1584" y="-253" font-family="Helvetica,sans-Serif" font-size="10.00" fill="grey">src_term</text>
</g>
<!-- Node11 -->
<g id="Node000011" class="node">
<title>Node11</title>
<g id="a_Node000011"><a xlink:title=" ">
<polygon fill="white" stroke="#666666" points="1299,-492.5 1159,-492.5 1159,-462.5 1299,-462.5 1299,-492.5"/>
<text text-anchor="start" x="1167" y="-480.5" font-family="Helvetica,sans-Serif" font-size="10.00">std::shared_ptr&lt; kynema</text>
<text text-anchor="middle" x="1229" y="-469.5" font-family="Helvetica,sans-Serif" font-size="10.00">_sgf::FieldInfo &gt;</text>
</a>
</g>
</g>
<!-- Node11&#45;&gt;Node10 -->
<g id="edge12_Node000010_Node000011" class="edge">
<title>Node11&#45;&gt;Node10</title>
<g id="a_edge12_Node000010_Node000011"><a xlink:title=" ">
<path fill="none" stroke="#9a32cd" stroke-dasharray="5,2" d="M1283.5,-457.92C1288.93,-455.09 1294.2,-451.95 1299,-448.5 1380.23,-390.12 1450.04,-288.19 1470.76,-256.31"/>
<polygon fill="#9a32cd" stroke="#9a32cd" points="1281.75,-454.88 1274.28,-462.39 1284.81,-461.18 1281.75,-454.88"/>
</a>
</g>
<text text-anchor="start" x="1329" y="-436" font-family="Helvetica,sans-Serif" font-size="10.00" fill="grey">m_info</text>
</g>
<!-- Node12&#45;&gt;Node11 -->
<g id="edge13_Node000011_Node000012" class="edge">
<title>Node12&#45;&gt;Node11</title>
<g id="a_edge13_Node000011_Node000012"><a xlink:title=" ">
<path fill="none" stroke="#9a32cd" stroke-dasharray="5,2" d="M984.31,-468.2C1036.46,-470.19 1107.02,-472.88 1158.79,-474.86"/>
<polygon fill="#9a32cd" stroke="#9a32cd" points="984.26,-464.7 974.14,-467.81 984,-471.69 984.26,-464.7"/>
</a>
</g>
<text text-anchor="start" x="1059.5" y="-479" font-family="Helvetica,sans-Serif" font-size="10.00" fill="grey">ptr</text>
</g>
<!-- Node13 -->
<g id="Node000013" class="node">
<title>Node13</title>
<g id="a_Node000013"><a xlink:title=" ">
<polygon fill="white" stroke="#666666" points="679,-477.5 519,-477.5 519,-447.5 679,-447.5 679,-477.5"/>
<text text-anchor="start" x="527" y="-465.5" font-family="Helvetica,sans-Serif" font-size="10.00">std::unique_ptr&lt; kynema</text>
<text text-anchor="middle" x="599" y="-454.5" font-family="Helvetica,sans-Serif" font-size="10.00">_sgf::FieldFillPatchOpsBase &gt;</text>
</a>
</g>
</g>
<!-- Node13&#45;&gt;Node12 -->
<g id="edge15_Node000012_Node000013" class="edge">
<title>Node13&#45;&gt;Node12</title>
<g id="a_edge15_Node000012_Node000013"><a xlink:title=" ">
<path fill="none" stroke="#9a32cd" stroke-dasharray="5,2" d="M689.19,-463.36C740.95,-463.86 804.79,-464.47 850.76,-464.92"/>
<polygon fill="#9a32cd" stroke="#9a32cd" points="689.04,-459.86 679.01,-463.26 688.97,-466.86 689.04,-459.86"/>
</a>
</g>
<text text-anchor="start" x="729" y="-470" font-family="Helvetica,sans-Serif" font-size="10.00" fill="grey">m_fillpatch_op</text>
</g>
<!-- Node14 -->
<g id="Node000014" class="node">
<title>Node14</title>
<g id="a_Node000014"><a xlink:href="classkynema__sgf_1_1_field_fill_patch_ops_base.html" target="_top" xlink:title=" ">
<polygon fill="white" stroke="#666666" points="337,-477.5 192,-477.5 192,-447.5 337,-447.5 337,-477.5"/>
<text text-anchor="start" x="200" y="-465.5" font-family="Helvetica,sans-Serif" font-size="10.00">kynema_sgf::FieldFillPatch</text>
<text text-anchor="middle" x="264.5" y="-454.5" font-family="Helvetica,sans-Serif" font-size="10.00">OpsBase</text>
</a>
</g>
</g>
<!-- Node14&#45;&gt;Node13 -->
<g id="edge16_Node000013_Node000014" class="edge">
<title>Node14&#45;&gt;Node13</title>
<g id="a_edge16_Node000013_Node000014"><a xlink:title=" ">
<path fill="none" stroke="#9a32cd" stroke-dasharray="5,2" d="M347.48,-462.5C399.75,-462.5 467.12,-462.5 518.83,-462.5"/>
<polygon fill="#9a32cd" stroke="#9a32cd" points="347.24,-459 337.24,-462.5 347.24,-466 347.24,-459"/>
</a>
</g>
<text text-anchor="start" x="421" y="-468" font-family="Helvetica,sans-Serif" font-size="10.00" fill="grey">ptr</text>
</g>
<!-- Node15&#45;&gt;Node13 -->
<g id="edge17_Node000013_Node000015" class="edge">
<title>Node15&#45;&gt;Node13</title>
<g id="a_edge17_Node000013_Node000015"><a xlink:title=" ">
<path fill="none" stroke="orange" stroke-dasharray="5,2" d="M333.96,-394.4C381.39,-400.77 445.7,-411.22 501,-426.5 509.27,-428.79 510.97,-430.47 519,-433.5 531.16,-438.1 544.42,-443 556.53,-447.45"/>
<polygon fill="orange" stroke="orange" points="334.17,-390.9 323.8,-393.06 333.26,-397.84 334.17,-390.9"/>
</a>
</g>
<text text-anchor="start" x="358" y="-447.5" font-family="Helvetica,sans-Serif" font-size="10.00" fill="grey">&lt; kynema_sgf::FieldFillPatch</text>
<text text-anchor="start" x="358" y="-432.5" font-family="Helvetica,sans-Serif" font-size="10.00" fill="grey">  OpsBase &gt;</text>
</g>
<!-- Node22 -->
<g id="Node000022" class="node">
<title>Node22</title>
<g id="a_Node000022"><a xlink:title=" ">
<polygon fill="white" stroke="#666666" points="830,-389.5 700,-389.5 700,-359.5 830,-359.5 830,-389.5"/>
<text text-anchor="start" x="708" y="-377.5" font-family="Helvetica,sans-Serif" font-size="10.00">std::unique_ptr&lt; Hydro</text>
<text text-anchor="middle" x="765" y="-366.5" font-family="Helvetica,sans-Serif" font-size="10.00">::MacProjector &gt;</text>
</a>
</g>
</g>
<!-- Node15&#45;&gt;Node22 -->
<g id="edge32_Node000022_Node000015" class="edge">
<title>Node15&#45;&gt;Node22</title>
<g id="a_edge32_Node000022_Node000015"><a xlink:title=" ">
<path fill="none" stroke="orange" stroke-dasharray="5,2" d="M334.01,-378.09C341.09,-377.45 348.18,-376.9 355,-376.5 476.75,-369.42 619.23,-370.94 699.82,-372.71"/>
<polygon fill="orange" stroke="orange" points="333.29,-374.64 323.68,-379.09 333.97,-381.61 333.29,-374.64"/>
</a>
</g>
<text text-anchor="start" x="367" y="-382" font-family="Helvetica,sans-Serif" font-size="10.00" fill="grey">&lt; Hydro::MacProjector &gt;</text>
</g>
<!-- Node16&#45;&gt;Node11 -->
<g id="edge19_Node000011_Node000016" class="edge">
<title>Node16&#45;&gt;Node11</title>
<g id="a_edge19_Node000011_Node000016"><a xlink:title=" ">
<path fill="none" stroke="orange" stroke-dasharray="5,2" d="M497.65,-507.33C624.85,-510.02 905.65,-512.65 1141,-491.5 1146.79,-490.98 1152.78,-490.31 1158.78,-489.53"/>
<polygon fill="orange" stroke="orange" points="497.37,-503.83 487.29,-507.11 497.22,-510.82 497.37,-503.83"/>
</a>
</g>
<text text-anchor="start" x="700" y="-514" font-family="Helvetica,sans-Serif" font-size="10.00" fill="grey">&lt; kynema_sgf::FieldInfo &gt;</text>
</g>
<!-- Node17&#45;&gt;Node1 -->
<g id="edge22_Node000001_Node000017" class="edge">
<title>Node17&#45;&gt;Node1</title>
<g id="a_edge22_Node000001_Node000017"><a xlink:title=" ">
<path fill="none" stroke="#9a32cd" stroke-dasharray="5,2" d="M1832.96,-158.46C1876.13,-163.77 1928.63,-171.63 1975,-182.5 1992.9,-186.7 2012.26,-192.8 2028.73,-198.49"/>
<polygon fill="#9a32cd" stroke="#9a32cd" points="1833.11,-154.95 1822.76,-157.23 1832.27,-161.9 1833.11,-154.95"/>
</a>
</g>
<text text-anchor="start" x="1875.5" y="-188" font-family="Helvetica,sans-Serif" font-size="10.00" fill="grey">m_macproj_op</text>
</g>
<!-- Node18 -->
<g id="Node000018" class="node">
<title>Node18</title>
<g id="a_Node000018"><a xlink:href="classkynema__sgf_1_1_field_boundary_mgr.html" target="_top" xlink:title=" ">
<polygon fill="white" stroke="#666666" points="1563,-58 1393,-58 1393,-39 1563,-39 1563,-58"/>
<text text-anchor="middle" x="1478" y="-46" font-family="Helvetica,sans-Serif" font-size="10.00">kynema_sgf::FieldBoundaryMgr</text>
</a>
</g>
</g>
<!-- Node18&#45;&gt;Node17 -->
<g id="edge24_Node000017_Node000018" class="edge">
<title>Node18&#45;&gt;Node17</title>
<g id="a_edge24_Node000017_Node000018"><a xlink:title=" ">
<path fill="none" stroke="#9a32cd" stroke-dasharray="5,2" d="M1528.88,-37.51C1563.61,-32.91 1608.92,-33.46 1639,-58.5 1664.35,-79.6 1633.37,-107.49 1657,-130.5 1660.92,-134.32 1665.43,-137.44 1670.28,-139.98"/>
<polygon fill="#9a32cd" stroke="#9a32cd" points="1528.3,-34.05 1518.92,-39 1529.33,-40.98 1528.3,-34.05"/>
</a>
</g>
<text text-anchor="start" x="1585" y="-64" font-family="Helvetica,sans-Serif" font-size="10.00" fill="grey">m_fb_mgr</text>
</g>
<!-- Node19 -->
<g id="Node000019" class="node">
<title>Node19</title>
<g id="a_Node000019"><a xlink:href="classkynema__sgf_1_1_coll_mgr.html" target="_top" xlink:title=" ">
<polygon fill="white" stroke="#666666" points="1288.5,-61 1169.5,-61 1169.5,-20 1288.5,-20 1288.5,-61"/>
<text text-anchor="start" x="1177.5" y="-49" font-family="Helvetica,sans-Serif" font-size="10.00">kynema_sgf::CollMgr</text>
<text text-anchor="start" x="1177.5" y="-38" font-family="Helvetica,sans-Serif" font-size="10.00">&lt; FieldBoundaryMgr,</text>
<text text-anchor="middle" x="1229" y="-27" font-family="Helvetica,sans-Serif" font-size="10.00"> FieldBoundary &gt;</text>
</a>
</g>
</g>
<!-- Node19&#45;&gt;Node18 -->
<g id="edge25_Node000018_Node000019" class="edge">
<title>Node19&#45;&gt;Node18</title>
<g id="a_edge25_Node000018_Node000019"><a xlink:title=" ">
<path fill="none" stroke="#63b8ff" d="M1298.62,-42.72C1327.77,-43.67 1362.03,-44.78 1392.7,-45.77"/>
<polygon fill="#63b8ff" stroke="#63b8ff" points="1298.64,-39.22 1288.54,-42.4 1298.42,-46.22 1298.64,-39.22"/>
</a>
</g>
</g>
<!-- Node20&#45;&gt;Node19 -->
<g id="edge26_Node000019_Node000020" class="edge">
<title>Node20&#45;&gt;Node19</title>
<g id="a_edge26_Node000019_Node000020"><a xlink:title=" ">
<path fill="none" stroke="#9a32cd" stroke-dasharray="5,2" d="M666.2,-73.16C768.54,-79.18 971.13,-86.37 1141,-63.5 1150.29,-62.25 1160,-60.32 1169.43,-58.1"/>
<polygon fill="#9a32cd" stroke="#9a32cd" points="666.2,-69.65 656.01,-72.54 665.78,-76.64 666.2,-69.65"/>
</a>
</g>
<text text-anchor="start" x="883.5" y="-85" font-family="Helvetica,sans-Serif" font-size="10.00" fill="grey">m_obj_map</text>
</g>
<!-- Node21 -->
<g id="Node000021" class="node">
<title>Node21</title>
<g id="a_Node000021"><a xlink:href="classkynema__sgf_1_1_coll_mgr.html" target="_top" xlink:title=" ">
<polygon fill="white" stroke="#666666" points="972,-41 853,-41 853,0 972,0 972,-41"/>
<text text-anchor="start" x="861" y="-29" font-family="Helvetica,sans-Serif" font-size="10.00">kynema_sgf::CollMgr</text>
<text text-anchor="start" x="861" y="-18" font-family="Helvetica,sans-Serif" font-size="10.00">&lt; Collection, Type,</text>
<text text-anchor="middle" x="912.5" y="-7" font-family="Helvetica,sans-Serif" font-size="10.00"> allow_duplicates &gt;</text>
</a>
</g>
</g>
<!-- Node20&#45;&gt;Node21 -->
<g id="edge30_Node000021_Node000020" class="edge">
<title>Node20&#45;&gt;Node21</title>
<g id="a_edge30_Node000021_Node000020"><a xlink:title=" ">
<path fill="none" stroke="#9a32cd" stroke-dasharray="5,2" d="M666.03,-52.57C676.36,-50.36 686.94,-48.25 697,-46.5 749.48,-37.39 809.74,-30.39 853,-25.96"/>
<polygon fill="#9a32cd" stroke="#9a32cd" points="665.24,-49.16 656.23,-54.72 666.74,-56 665.24,-49.16"/>
</a>
</g>
<text text-anchor="start" x="736" y="-52" font-family="Helvetica,sans-Serif" font-size="10.00" fill="grey">m_obj_map</text>
</g>
<!-- Node21&#45;&gt;Node19 -->
<g id="edge29_Node000019_Node000021" class="edge">
<title>Node21&#45;&gt;Node19</title>
<g id="a_edge29_Node000019_Node000021"><a xlink:title=" ">
<path fill="none" stroke="orange" stroke-dasharray="5,2" d="M982.27,-22.84C1027.43,-24.63 1087.78,-27.46 1141,-31.5 1150.08,-32.19 1159.69,-33.05 1169.07,-33.96"/>
<polygon fill="orange" stroke="orange" points="982.13,-19.34 972,-22.45 981.86,-26.33 982.13,-19.34"/>
</a>
</g>
<text text-anchor="start" x="1015.5" y="-52.5" font-family="Helvetica,sans-Serif" font-size="10.00" fill="grey">&lt; FieldBoundaryMgr,</text>
<text text-anchor="start" x="1015.5" y="-37.5" font-family="Helvetica,sans-Serif" font-size="10.00" fill="grey">   FieldBoundary &gt;</text>
</g>
<!-- Node22&#45;&gt;Node17 -->
<g id="edge31_Node000017_Node000022" class="edge">
<title>Node22&#45;&gt;Node17</title>
<g id="a_edge31_Node000017_Node000022"><a xlink:title=" ">
<path fill="none" stroke="#9a32cd" stroke-dasharray="5,2" d="M840.25,-384.96C980.24,-403.6 1277.88,-437.69 1375,-405.5 1473.89,-372.72 1495.19,-344.59 1563,-265.5 1574.13,-252.52 1568.81,-243.49 1581,-231.5 1618.34,-194.8 1675.42,-171.15 1710.77,-159.1"/>
<polygon fill="#9a32cd" stroke="#9a32cd" points="840.42,-381.46 830.04,-383.6 839.49,-388.39 840.42,-381.46"/>
</a>
</g>
<text text-anchor="start" x="1199" y="-424" font-family="Helvetica,sans-Serif" font-size="10.00" fill="grey">m_mac_proj</text>
</g>
<!-- Node23&#45;&gt;Node17 -->
<g id="edge33_Node000017_Node000023" class="edge">
<title>Node23&#45;&gt;Node17</title>
<g id="a_edge33_Node000017_Node000023"><a xlink:title=" ">
<path fill="none" stroke="#9a32cd" stroke-dasharray="5,2" d="M1151.28,-121.19C1262.75,-122.55 1465.9,-126.59 1639,-138.5 1647.2,-139.06 1655.76,-139.78 1664.28,-140.56"/>
<polygon fill="#9a32cd" stroke="#9a32cd" points="1151.15,-117.69 1141.11,-121.07 1151.07,-124.69 1151.15,-117.69"/>
</a>
</g>
<text text-anchor="start" x="1320" y="-132" font-family="Helvetica,sans-Serif" font-size="10.00" fill="grey">m_options</text>
</g>
<!-- Node24 -->
<g id="Node000024" class="node">
<title>Node24</title>
<g id="a_Node000024"><a xlink:href="structkynema__sgf_1_1pde_1_1_advection_op.html" target="_top" xlink:title=" ">
<polygon fill="white" stroke="#666666" points="1830,-121.5 1657,-121.5 1657,-91.5 1830,-91.5 1830,-121.5"/>
<text text-anchor="start" x="1665" y="-109.5" font-family="Helvetica,sans-Serif" font-size="10.00">kynema_sgf::pde::Advection</text>
<text text-anchor="middle" x="1743.5" y="-98.5" font-family="Helvetica,sans-Serif" font-size="10.00">Op&lt; PDE, Scheme, typename &gt;</text>
</a>
</g>
</g>
<!-- Node24&#45;&gt;Node1 -->
<g id="edge36_Node000001_Node000024" class="edge">
<title>Node24&#45;&gt;Node1</title>
<g id="a_edge36_Node000001_Node000024"><a xlink:title=" ">
<path fill="none" stroke="orange" stroke-dasharray="5,2" d="M1840.36,-109.66C1882.97,-113.8 1932.89,-122.53 1975,-140.5 2006.93,-154.13 2037.43,-181.31 2054.63,-198.38"/>
<polygon fill="orange" stroke="orange" points="1840.54,-106.16 1830.27,-108.75 1839.91,-113.13 1840.54,-106.16"/>
</a>
</g>
<text text-anchor="start" x="1851.5" y="-146" font-family="Helvetica,sans-Serif" font-size="10.00" fill="grey">&lt; ICNS, fvm::Godunov &gt;</text>
</g>
</g>
</svg>
