<?xml version="1.0" encoding="UTF-8" standalone="no"?>
<!DOCTYPE svg PUBLIC "-//W3C//DTD SVG 1.1//EN"
 "http://www.w3.org/Graphics/SVG/1.1/DTD/svg11.dtd">
<!-- Generated by graphviz version 2.43.0 (0)
 -->
<!-- Title: /home/runner/work/kynema&#45;sgf/kynema&#45;sgf/src/utilities/tensor_ops.H Pages: 1 -->
<svg width="2639pt" height="313pt"
 viewBox="0.00 0.00 2639.00 313.00" xmlns="http://www.w3.org/2000/svg" xmlns:xlink="http://www.w3.org/1999/xlink">
<g id="graph0" class="graph" transform="scale(1 1) rotate(0) translate(4 309)">
<title>/home/runner/work/kynema&#45;sgf/kynema&#45;sgf/src/utilities/tensor_ops.H</title>
<!-- Node1 -->
<g id="Node000001" class="node">
<title>Node1</title>
<g id="a_Node000001"><a xlink:title=" ">
<polygon fill="#999999" stroke="#666666" points="951.5,-305 798.5,-305 798.5,-264 951.5,-264 951.5,-305"/>
<text text-anchor="start" x="806.5" y="-293" font-family="Helvetica,sans-Serif" font-size="10.00">/home/runner/work/kynema</text>
<text text-anchor="start" x="806.5" y="-282" font-family="Helvetica,sans-Serif" font-size="10.00">&#45;sgf/kynema&#45;sgf/src/utilities</text>
<text text-anchor="middle" x="875" y="-271" font-family="Helvetica,sans-Serif" font-size="10.00">/tensor_ops.H</text>
</a>
</g>
</g>
<!-- Node2 -->
<g id="Node000002" class="node">
<title>Node2</title>
<g id="a_Node000002"><a xlink:href="_wall_function_8cpp.html" target="_top" xlink:title=" ">
<polygon fill="white" stroke="#666666" points="222,-222.5 0,-222.5 0,-181.5 222,-181.5 222,-222.5"/>
<text text-anchor="start" x="8" y="-210.5" font-family="Helvetica,sans-Serif" font-size="10.00">/home/runner/work/kynema</text>
<text text-anchor="start" x="8" y="-199.5" font-family="Helvetica,sans-Serif" font-size="10.00">&#45;sgf/kynema&#45;sgf/src/boundary</text>
<text text-anchor="middle" x="111" y="-188.5" font-family="Helvetica,sans-Serif" font-size="10.00">_conditions/wall_models/WallFunction.cpp</text>
</a>
</g>
</g>
<!-- Node1&#45;&gt;Node2 -->
<g id="edge1_Node000001_Node000002" class="edge">
<title>Node1&#45;&gt;Node2</title>
<g id="a_edge1_Node000001_Node000002"><a xlink:title=" ">
<path fill="none" stroke="#63b8ff" d="M788.13,-279.31C664.05,-272.59 429.17,-257.08 231,-228 220.47,-226.46 209.48,-224.56 198.6,-222.51"/>
<polygon fill="#63b8ff" stroke="#63b8ff" points="788.15,-282.82 798.32,-279.86 788.53,-275.83 788.15,-282.82"/>
</a>
</g>
</g>
<!-- Node3 -->
<g id="Node000003" class="node">
<title>Node3</title>
<g id="a_Node000003"><a xlink:href="_coriolis_forcing_8cpp.html" target="_top" xlink:title=" ">
<polygon fill="white" stroke="#666666" points="399.5,-228 240.5,-228 240.5,-176 399.5,-176 399.5,-228"/>
<text text-anchor="start" x="248.5" y="-216" font-family="Helvetica,sans-Serif" font-size="10.00">/home/runner/work/kynema</text>
<text text-anchor="start" x="248.5" y="-205" font-family="Helvetica,sans-Serif" font-size="10.00">&#45;sgf/kynema&#45;sgf/src/equation</text>
<text text-anchor="start" x="248.5" y="-194" font-family="Helvetica,sans-Serif" font-size="10.00">_systems/icns/source_terms</text>
<text text-anchor="middle" x="320" y="-183" font-family="Helvetica,sans-Serif" font-size="10.00">/CoriolisForcing.cpp</text>
</a>
</g>
</g>
<!-- Node1&#45;&gt;Node3 -->
<g id="edge2_Node000001_Node000003" class="edge">
<title>Node1&#45;&gt;Node3</title>
<g id="a_edge2_Node000001_Node000003"><a xlink:title=" ">
<path fill="none" stroke="#63b8ff" d="M788.32,-277.33C694.07,-269.67 539.32,-254.28 408,-228 405.35,-227.47 402.67,-226.9 399.96,-226.3"/>
<polygon fill="#63b8ff" stroke="#63b8ff" points="788.13,-280.83 798.38,-278.14 788.69,-273.85 788.13,-280.83"/>
</a>
</g>
</g>
<!-- Node4 -->
<g id="Node000004" class="node">
<title>Node4</title>
<g id="a_Node000004"><a xlink:href="_synthetic_turbulence_8cpp.html" target="_top" xlink:title=" ">
<polygon fill="white" stroke="#666666" points="570.5,-222.5 417.5,-222.5 417.5,-181.5 570.5,-181.5 570.5,-222.5"/>
<text text-anchor="start" x="425.5" y="-210.5" font-family="Helvetica,sans-Serif" font-size="10.00">/home/runner/work/kynema</text>
<text text-anchor="start" x="425.5" y="-199.5" font-family="Helvetica,sans-Serif" font-size="10.00">&#45;sgf/kynema&#45;sgf/src/physics</text>
<text text-anchor="middle" x="494" y="-188.5" font-family="Helvetica,sans-Serif" font-size="10.00">/SyntheticTurbulence.cpp</text>
</a>
</g>
</g>
<!-- Node1&#45;&gt;Node4 -->
<g id="edge3_Node000001_Node000004" class="edge">
<title>Node1&#45;&gt;Node4</title>
<g id="a_edge3_Node000001_Node000004"><a xlink:title=" ">
<path fill="none" stroke="#63b8ff" d="M788.14,-268.73C730.32,-258.44 652.82,-243.78 585,-228 577.82,-226.33 570.35,-224.47 562.92,-222.55"/>
<polygon fill="#63b8ff" stroke="#63b8ff" points="787.87,-272.23 798.33,-270.53 789.09,-265.34 787.87,-272.23"/>
</a>
</g>
</g>
<!-- Node5 -->
<g id="Node000005" class="node">
<title>Node5</title>
<g id="a_Node000005"><a xlink:href="_d_t_u_spinner_sampler_8cpp.html" target="_top" xlink:title=" ">
<polygon fill="white" stroke="#666666" points="1699.5,-46.5 1514.5,-46.5 1514.5,-5.5 1699.5,-5.5 1699.5,-46.5"/>
<text text-anchor="start" x="1522.5" y="-34.5" font-family="Helvetica,sans-Serif" font-size="10.00">/home/runner/work/kynema</text>
<text text-anchor="start" x="1522.5" y="-23.5" font-family="Helvetica,sans-Serif" font-size="10.00">&#45;sgf/kynema&#45;sgf/src/utilities</text>
<text text-anchor="middle" x="1607" y="-12.5" font-family="Helvetica,sans-Serif" font-size="10.00">/sampling/DTUSpinnerSampler.cpp</text>
</a>
</g>
</g>
<!-- Node1&#45;&gt;Node5 -->
<g id="edge4_Node000001_Node000005" class="edge">
<title>Node1&#45;&gt;Node5</title>
<g id="a_edge4_Node000001_Node000005"><a xlink:title=" ">
<path fill="none" stroke="#63b8ff" d="M961.96,-284.09C1174.88,-283.51 1713.01,-269.03 1824,-140 1839.07,-122.48 1837.96,-106.42 1824,-88 1808.43,-67.45 1751.41,-51.9 1699.73,-41.64"/>
<polygon fill="#63b8ff" stroke="#63b8ff" points="961.76,-280.6 951.77,-284.11 961.78,-287.6 961.76,-280.6"/>
</a>
</g>
</g>
<!-- Node6 -->
<g id="Node000006" class="node">
<title>Node6</title>
<g id="a_Node000006"><a xlink:href="_lidar_sampler_8cpp.html" target="_top" xlink:title=" ">
<polygon fill="white" stroke="#666666" points="846.5,-222.5 693.5,-222.5 693.5,-181.5 846.5,-181.5 846.5,-222.5"/>
<text text-anchor="start" x="701.5" y="-210.5" font-family="Helvetica,sans-Serif" font-size="10.00">/home/runner/work/kynema</text>
<text text-anchor="start" x="701.5" y="-199.5" font-family="Helvetica,sans-Serif" font-size="10.00">&#45;sgf/kynema&#45;sgf/src/utilities</text>
<text text-anchor="middle" x="770" y="-188.5" font-family="Helvetica,sans-Serif" font-size="10.00">/sampling/LidarSampler.cpp</text>
</a>
</g>
</g>
<!-- Node1&#45;&gt;Node6 -->
<g id="edge5_Node000001_Node000006" class="edge">
<title>Node1&#45;&gt;Node6</title>
<g id="a_edge5_Node000001_Node000006"><a xlink:title=" ">
<path fill="none" stroke="#63b8ff" d="M840.97,-257.41C826.29,-246.15 809.4,-233.21 795.78,-222.77"/>
<polygon fill="#63b8ff" stroke="#63b8ff" points="839.25,-260.5 849.31,-263.81 843.51,-254.95 839.25,-260.5"/>
</a>
</g>
</g>
<!-- Node7 -->
<g id="Node000007" class="node">
<title>Node7</title>
<g id="a_Node000007"><a xlink:href="_line_sampler_8cpp.html" target="_top" xlink:title=" ">
<polygon fill="white" stroke="#666666" points="747.5,-134.5 594.5,-134.5 594.5,-93.5 747.5,-93.5 747.5,-134.5"/>
<text text-anchor="start" x="602.5" y="-122.5" font-family="Helvetica,sans-Serif" font-size="10.00">/home/runner/work/kynema</text>
<text text-anchor="start" x="602.5" y="-111.5" font-family="Helvetica,sans-Serif" font-size="10.00">&#45;sgf/kynema&#45;sgf/src/utilities</text>
<text text-anchor="middle" x="671" y="-100.5" font-family="Helvetica,sans-Serif" font-size="10.00">/sampling/LineSampler.cpp</text>
</a>
</g>
</g>
<!-- Node1&#45;&gt;Node7 -->
<g id="edge6_Node000001_Node000007" class="edge">
<title>Node1&#45;&gt;Node7</title>
<g id="a_edge6_Node000001_Node000007"><a xlink:title=" ">
<path fill="none" stroke="#63b8ff" d="M877.19,-253.69C877.28,-229.92 873.5,-197.21 855,-176 850.79,-171.17 786.51,-150.51 735.09,-134.56"/>
<polygon fill="#63b8ff" stroke="#63b8ff" points="873.68,-253.82 876.91,-263.91 880.68,-254.01 873.68,-253.82"/>
</a>
</g>
</g>
<!-- Node8 -->
<g id="Node000008" class="node">
<title>Node8</title>
<g id="a_Node000008"><a xlink:href="_radar_sampler_8cpp.html" target="_top" xlink:title=" ">
<polygon fill="white" stroke="#666666" points="782,-46.5 626,-46.5 626,-5.5 782,-5.5 782,-46.5"/>
<text text-anchor="start" x="634" y="-34.5" font-family="Helvetica,sans-Serif" font-size="10.00">/home/runner/work/kynema</text>
<text text-anchor="start" x="634" y="-23.5" font-family="Helvetica,sans-Serif" font-size="10.00">&#45;sgf/kynema&#45;sgf/src/utilities</text>
<text text-anchor="middle" x="704" y="-12.5" font-family="Helvetica,sans-Serif" font-size="10.00">/sampling/RadarSampler.cpp</text>
</a>
</g>
</g>
<!-- Node1&#45;&gt;Node8 -->
<g id="edge7_Node000001_Node000008" class="edge">
<title>Node1&#45;&gt;Node8</title>
<g id="a_edge7_Node000001_Node000008"><a xlink:title=" ">
<path fill="none" stroke="#63b8ff" d="M788.44,-270.44C716.38,-254.15 620.11,-218.19 585,-140 575.53,-118.92 572.95,-107.72 585,-88 596.56,-69.08 616.06,-55.79 635.96,-46.56"/>
<polygon fill="#63b8ff" stroke="#63b8ff" points="787.92,-273.91 798.43,-272.61 789.4,-267.07 787.92,-273.91"/>
</a>
</g>
</g>
<!-- Node9 -->
<g id="Node000009" class="node">
<title>Node9</title>
<g id="a_Node000009"><a xlink:href="_sampling_utils_8_h.html" target="_top" xlink:title=" ">
<polygon fill="white" stroke="#666666" points="1176.5,-222.5 1023.5,-222.5 1023.5,-181.5 1176.5,-181.5 1176.5,-222.5"/>
<text text-anchor="start" x="1031.5" y="-210.5" font-family="Helvetica,sans-Serif" font-size="10.00">/home/runner/work/kynema</text>
<text text-anchor="start" x="1031.5" y="-199.5" font-family="Helvetica,sans-Serif" font-size="10.00">&#45;sgf/kynema&#45;sgf/src/utilities</text>
<text text-anchor="middle" x="1100" y="-188.5" font-family="Helvetica,sans-Serif" font-size="10.00">/sampling/SamplingUtils.H</text>
</a>
</g>
</g>
<!-- Node1&#45;&gt;Node9 -->
<g id="edge8_Node000001_Node000009" class="edge">
<title>Node1&#45;&gt;Node9</title>
<g id="a_edge8_Node000001_Node000009"><a xlink:title=" ">
<path fill="none" stroke="#63b8ff" d="M939.45,-260.44C972.95,-248.45 1013.45,-233.97 1045.39,-222.54"/>
<polygon fill="#63b8ff" stroke="#63b8ff" points="937.99,-257.25 929.75,-263.91 940.35,-263.84 937.99,-257.25"/>
</a>
</g>
</g>
<!-- Node16 -->
<g id="Node000016" class="node">
<title>Node16</title>
<g id="a_Node000016"><a xlink:href="_a_b_l_stats_8cpp.html" target="_top" xlink:title=" ">
<polygon fill="white" stroke="#666666" points="1941.5,-222.5 1790.5,-222.5 1790.5,-181.5 1941.5,-181.5 1941.5,-222.5"/>
<text text-anchor="start" x="1798.5" y="-210.5" font-family="Helvetica,sans-Serif" font-size="10.00">/home/runner/work/kynema</text>
<text text-anchor="start" x="1798.5" y="-199.5" font-family="Helvetica,sans-Serif" font-size="10.00">&#45;sgf/kynema&#45;sgf/src/wind</text>
<text text-anchor="middle" x="1866" y="-188.5" font-family="Helvetica,sans-Serif" font-size="10.00">_energy/ABLStats.cpp</text>
</a>
</g>
</g>
<!-- Node1&#45;&gt;Node16 -->
<g id="edge18_Node000001_Node000016" class="edge">
<title>Node1&#45;&gt;Node16</title>
<g id="a_edge18_Node000001_Node000016"><a xlink:title=" ">
<path fill="none" stroke="#63b8ff" d="M961.91,-284.16C1123.42,-284.07 1480.33,-277.61 1776,-228 1784.48,-226.58 1793.3,-224.67 1801.97,-222.55"/>
<polygon fill="#63b8ff" stroke="#63b8ff" points="961.55,-280.66 951.55,-284.16 961.55,-287.66 961.55,-280.66"/>
</a>
</g>
</g>
<!-- Node17 -->
<g id="Node000017" class="node">
<title>Node17</title>
<g id="a_Node000017"><a xlink:href="_a_b_l_wall_function_8cpp.html" target="_top" xlink:title=" ">
<polygon fill="white" stroke="#666666" points="2118.5,-222.5 1959.5,-222.5 1959.5,-181.5 2118.5,-181.5 2118.5,-222.5"/>
<text text-anchor="start" x="1967.5" y="-210.5" font-family="Helvetica,sans-Serif" font-size="10.00">/home/runner/work/kynema</text>
<text text-anchor="start" x="1967.5" y="-199.5" font-family="Helvetica,sans-Serif" font-size="10.00">&#45;sgf/kynema&#45;sgf/src/wind</text>
<text text-anchor="middle" x="2039" y="-188.5" font-family="Helvetica,sans-Serif" font-size="10.00">_energy/ABLWallFunction.cpp</text>
</a>
</g>
</g>
<!-- Node1&#45;&gt;Node17 -->
<g id="edge19_Node000001_Node000017" class="edge">
<title>Node1&#45;&gt;Node17</title>
<g id="a_edge19_Node000001_Node000017"><a xlink:title=" ">
<path fill="none" stroke="#63b8ff" d="M961.91,-281.5C1182.6,-276.03 1760.53,-259.1 1950,-228 1958.55,-226.6 1967.46,-224.67 1976.18,-222.51"/>
<polygon fill="#63b8ff" stroke="#63b8ff" points="961.58,-278.01 951.67,-281.76 961.76,-285.01 961.58,-278.01"/>
</a>
</g>
</g>
<!-- Node18 -->
<g id="Node000018" class="node">
<title>Node18</title>
<g id="a_Node000018"><a xlink:href="disk__ops_8_h.html" target="_top" xlink:title=" ">
<polygon fill="white" stroke="#666666" points="2315.5,-222.5 2136.5,-222.5 2136.5,-181.5 2315.5,-181.5 2315.5,-222.5"/>
<text text-anchor="start" x="2144.5" y="-210.5" font-family="Helvetica,sans-Serif" font-size="10.00">/home/runner/work/kynema</text>
<text text-anchor="start" x="2144.5" y="-199.5" font-family="Helvetica,sans-Serif" font-size="10.00">&#45;sgf/kynema&#45;sgf/src/wind</text>
<text text-anchor="middle" x="2226" y="-188.5" font-family="Helvetica,sans-Serif" font-size="10.00">_energy/actuator/disk/disk_ops.H</text>
</a>
</g>
</g>
<!-- Node1&#45;&gt;Node18 -->
<g id="edge20_Node000001_Node000018" class="edge">
<title>Node1&#45;&gt;Node18</title>
<g id="a_edge20_Node000001_Node000018"><a xlink:title=" ">
<path fill="none" stroke="#63b8ff" d="M962.06,-281.94C1207.48,-277.18 1901.65,-261.1 2127,-228 2136.47,-226.61 2146.35,-224.69 2156.05,-222.53"/>
<polygon fill="#63b8ff" stroke="#63b8ff" points="961.7,-278.45 951.77,-282.14 961.83,-285.45 961.7,-278.45"/>
</a>
</g>
</g>
<!-- Node9&#45;&gt;Node7 -->
<g id="edge11_Node000009_Node000007" class="edge">
<title>Node9&#45;&gt;Node7</title>
<g id="a_edge11_Node000009_Node000007"><a xlink:title=" ">
<path fill="none" stroke="#63b8ff" d="M1013.25,-188.34C943.37,-177.48 842.81,-160.4 756,-140 749.11,-138.38 741.95,-136.54 734.85,-134.6"/>
<polygon fill="#63b8ff" stroke="#63b8ff" points="1012.92,-191.83 1023.33,-189.89 1013.98,-184.91 1012.92,-191.83"/>
</a>
</g>
</g>
<!-- Node10 -->
<g id="Node000010" class="node">
<title>Node10</title>
<g id="a_Node000010"><a xlink:href="_d_t_u_spinner_sampler_8_h.html" target="_top" xlink:title=" ">
<polygon fill="white" stroke="#666666" points="1459,-134.5 1283,-134.5 1283,-93.5 1459,-93.5 1459,-134.5"/>
<text text-anchor="start" x="1291" y="-122.5" font-family="Helvetica,sans-Serif" font-size="10.00">/home/runner/work/kynema</text>
<text text-anchor="start" x="1291" y="-111.5" font-family="Helvetica,sans-Serif" font-size="10.00">&#45;sgf/kynema&#45;sgf/src/utilities</text>
<text text-anchor="middle" x="1371" y="-100.5" font-family="Helvetica,sans-Serif" font-size="10.00">/sampling/DTUSpinnerSampler.H</text>
</a>
</g>
</g>
<!-- Node9&#45;&gt;Node10 -->
<g id="edge9_Node000009_Node000010" class="edge">
<title>Node9&#45;&gt;Node10</title>
<g id="a_edge9_Node000009_Node000010"><a xlink:title=" ">
<path fill="none" stroke="#63b8ff" d="M1171.03,-178.46C1213.96,-164.84 1268.15,-147.64 1309.28,-134.59"/>
<polygon fill="#63b8ff" stroke="#63b8ff" points="1169.97,-175.12 1161.49,-181.49 1172.08,-181.8 1169.97,-175.12"/>
</a>
</g>
</g>
<!-- Node11 -->
<g id="Node000011" class="node">
<title>Node11</title>
<g id="a_Node000011"><a xlink:href="_plane_sampler_8cpp.html" target="_top" xlink:title=" ">
<polygon fill="white" stroke="#666666" points="1091.5,-134.5 936.5,-134.5 936.5,-93.5 1091.5,-93.5 1091.5,-134.5"/>
<text text-anchor="start" x="944.5" y="-122.5" font-family="Helvetica,sans-Serif" font-size="10.00">/home/runner/work/kynema</text>
<text text-anchor="start" x="944.5" y="-111.5" font-family="Helvetica,sans-Serif" font-size="10.00">&#45;sgf/kynema&#45;sgf/src/utilities</text>
<text text-anchor="middle" x="1014" y="-100.5" font-family="Helvetica,sans-Serif" font-size="10.00">/sampling/PlaneSampler.cpp</text>
</a>
</g>
</g>
<!-- Node9&#45;&gt;Node11 -->
<g id="edge12_Node000009_Node000011" class="edge">
<title>Node9&#45;&gt;Node11</title>
<g id="a_edge12_Node000009_Node000011"><a xlink:title=" ">
<path fill="none" stroke="#63b8ff" d="M1073.26,-174.26C1060.48,-161.48 1045.46,-146.46 1033.74,-134.74"/>
<polygon fill="#63b8ff" stroke="#63b8ff" points="1070.94,-176.89 1080.49,-181.49 1075.89,-171.94 1070.94,-176.89"/>
</a>
</g>
</g>
<!-- Node12 -->
<g id="Node000012" class="node">
<title>Node12</title>
<g id="a_Node000012"><a xlink:href="_probe_sampler_8cpp.html" target="_top" xlink:title=" ">
<polygon fill="white" stroke="#666666" points="1264.5,-134.5 1109.5,-134.5 1109.5,-93.5 1264.5,-93.5 1264.5,-134.5"/>
<text text-anchor="start" x="1117.5" y="-122.5" font-family="Helvetica,sans-Serif" font-size="10.00">/home/runner/work/kynema</text>
<text text-anchor="start" x="1117.5" y="-111.5" font-family="Helvetica,sans-Serif" font-size="10.00">&#45;sgf/kynema&#45;sgf/src/utilities</text>
<text text-anchor="middle" x="1187" y="-100.5" font-family="Helvetica,sans-Serif" font-size="10.00">/sampling/ProbeSampler.cpp</text>
</a>
</g>
</g>
<!-- Node9&#45;&gt;Node12 -->
<g id="edge13_Node000009_Node000012" class="edge">
<title>Node9&#45;&gt;Node12</title>
<g id="a_edge13_Node000009_Node000012"><a xlink:title=" ">
<path fill="none" stroke="#63b8ff" d="M1127.05,-174.26C1139.97,-161.48 1155.17,-146.46 1167.04,-134.74"/>
<polygon fill="#63b8ff" stroke="#63b8ff" points="1124.39,-171.97 1119.74,-181.49 1129.31,-176.94 1124.39,-171.97"/>
</a>
</g>
</g>
<!-- Node13 -->
<g id="Node000013" class="node">
<title>Node13</title>
<g id="a_Node000013"><a xlink:href="_radar_sampler_8_h.html" target="_top" xlink:title=" ">
<polygon fill="white" stroke="#666666" points="918.5,-134.5 765.5,-134.5 765.5,-93.5 918.5,-93.5 918.5,-134.5"/>
<text text-anchor="start" x="773.5" y="-122.5" font-family="Helvetica,sans-Serif" font-size="10.00">/home/runner/work/kynema</text>
<text text-anchor="start" x="773.5" y="-111.5" font-family="Helvetica,sans-Serif" font-size="10.00">&#45;sgf/kynema&#45;sgf/src/utilities</text>
<text text-anchor="middle" x="842" y="-100.5" font-family="Helvetica,sans-Serif" font-size="10.00">/sampling/RadarSampler.H</text>
</a>
</g>
</g>
<!-- Node9&#45;&gt;Node13 -->
<g id="edge14_Node000009_Node000013" class="edge">
<title>Node9&#45;&gt;Node13</title>
<g id="a_edge14_Node000009_Node000013"><a xlink:title=" ">
<path fill="none" stroke="#63b8ff" d="M1031.86,-178.29C991.07,-164.69 939.76,-147.59 900.76,-134.59"/>
<polygon fill="#63b8ff" stroke="#63b8ff" points="1030.86,-181.64 1041.46,-181.49 1033.08,-175 1030.86,-181.64"/>
</a>
</g>
</g>
<!-- Node14 -->
<g id="Node000014" class="node">
<title>Node14</title>
<g id="a_Node000014"><a xlink:href="_sampling_utils_8cpp.html" target="_top" xlink:title=" ">
<polygon fill="white" stroke="#666666" points="1633,-134.5 1477,-134.5 1477,-93.5 1633,-93.5 1633,-134.5"/>
<text text-anchor="start" x="1485" y="-122.5" font-family="Helvetica,sans-Serif" font-size="10.00">/home/runner/work/kynema</text>
<text text-anchor="start" x="1485" y="-111.5" font-family="Helvetica,sans-Serif" font-size="10.00">&#45;sgf/kynema&#45;sgf/src/utilities</text>
<text text-anchor="middle" x="1555" y="-100.5" font-family="Helvetica,sans-Serif" font-size="10.00">/sampling/SamplingUtils.cpp</text>
</a>
</g>
</g>
<!-- Node9&#45;&gt;Node14 -->
<g id="edge16_Node000009_Node000014" class="edge">
<title>Node9&#45;&gt;Node14</title>
<g id="a_edge16_Node000009_Node000014"><a xlink:title=" ">
<path fill="none" stroke="#63b8ff" d="M1186.94,-189.48C1261.86,-178.87 1372.67,-161.52 1468,-140 1475.2,-138.37 1482.7,-136.5 1490.13,-134.53"/>
<polygon fill="#63b8ff" stroke="#63b8ff" points="1186.03,-186.07 1176.62,-190.93 1187.01,-193.01 1186.03,-186.07"/>
</a>
</g>
</g>
<!-- Node15 -->
<g id="Node000015" class="node">
<title>Node15</title>
<g id="a_Node000015"><a xlink:href="_volume_sampler_8cpp.html" target="_top" xlink:title=" ">
<polygon fill="white" stroke="#666666" points="1815,-134.5 1651,-134.5 1651,-93.5 1815,-93.5 1815,-134.5"/>
<text text-anchor="start" x="1659" y="-122.5" font-family="Helvetica,sans-Serif" font-size="10.00">/home/runner/work/kynema</text>
<text text-anchor="start" x="1659" y="-111.5" font-family="Helvetica,sans-Serif" font-size="10.00">&#45;sgf/kynema&#45;sgf/src/utilities</text>
<text text-anchor="middle" x="1733" y="-100.5" font-family="Helvetica,sans-Serif" font-size="10.00">/sampling/VolumeSampler.cpp</text>
</a>
</g>
</g>
<!-- Node9&#45;&gt;Node15 -->
<g id="edge17_Node000009_Node000015" class="edge">
<title>Node9&#45;&gt;Node15</title>
<g id="a_edge17_Node000009_Node000015"><a xlink:title=" ">
<path fill="none" stroke="#63b8ff" d="M1187.02,-195.41C1294.61,-187.53 1483.01,-170.59 1642,-140 1650.04,-138.45 1658.42,-136.56 1666.68,-134.5"/>
<polygon fill="#63b8ff" stroke="#63b8ff" points="1186.58,-191.93 1176.86,-196.14 1187.09,-198.91 1186.58,-191.93"/>
</a>
</g>
</g>
<!-- Node10&#45;&gt;Node5 -->
<g id="edge10_Node000010_Node000005" class="edge">
<title>Node10&#45;&gt;Node5</title>
<g id="a_edge10_Node000010_Node000005"><a xlink:title=" ">
<path fill="none" stroke="#63b8ff" d="M1434.28,-89.94C1471.43,-76.4 1517.88,-59.48 1553.25,-46.59"/>
<polygon fill="#63b8ff" stroke="#63b8ff" points="1432.75,-86.77 1424.55,-93.49 1435.15,-93.35 1432.75,-86.77"/>
</a>
</g>
</g>
<!-- Node13&#45;&gt;Node8 -->
<g id="edge15_Node000013_Node000008" class="edge">
<title>Node13&#45;&gt;Node8</title>
<g id="a_edge15_Node000013_Node000008"><a xlink:title=" ">
<path fill="none" stroke="#63b8ff" d="M801.95,-88.04C780.86,-74.9 755.36,-59.01 735.67,-46.74"/>
<polygon fill="#63b8ff" stroke="#63b8ff" points="800.35,-91.17 810.69,-93.49 804.05,-85.23 800.35,-91.17"/>
</a>
</g>
</g>
<!-- Node19 -->
<g id="Node000019" class="node">
<title>Node19</title>
<g id="a_Node000019"><a xlink:href="_joukowsky__ops_8_h.html" target="_top" xlink:title=" ">
<polygon fill="white" stroke="#666666" points="2448.5,-134.5 2239.5,-134.5 2239.5,-93.5 2448.5,-93.5 2448.5,-134.5"/>
<text text-anchor="start" x="2247.5" y="-122.5" font-family="Helvetica,sans-Serif" font-size="10.00">/home/runner/work/kynema</text>
<text text-anchor="start" x="2247.5" y="-111.5" font-family="Helvetica,sans-Serif" font-size="10.00">&#45;sgf/kynema&#45;sgf/src/wind</text>
<text text-anchor="middle" x="2344" y="-100.5" font-family="Helvetica,sans-Serif" font-size="10.00">_energy/actuator/disk/Joukowsky_ops.H</text>
</a>
</g>
</g>
<!-- Node18&#45;&gt;Node19 -->
<g id="edge21_Node000018_Node000019" class="edge">
<title>Node18&#45;&gt;Node19</title>
<g id="a_edge21_Node000018_Node000019"><a xlink:title=" ">
<path fill="none" stroke="#63b8ff" d="M2261.22,-175.33C2279.06,-162.33 2300.38,-146.79 2316.92,-134.74"/>
<polygon fill="#63b8ff" stroke="#63b8ff" points="2258.8,-172.77 2252.78,-181.49 2262.92,-178.42 2258.8,-172.77"/>
</a>
</g>
</g>
<!-- Node21 -->
<g id="Node000021" class="node">
<title>Node21</title>
<g id="a_Node000021"><a xlink:href="_joukowsky__ops_8cpp.html" target="_top" xlink:title=" ">
<polygon fill="white" stroke="#666666" points="2175,-52 1999,-52 1999,0 2175,0 2175,-52"/>
<text text-anchor="start" x="2007" y="-40" font-family="Helvetica,sans-Serif" font-size="10.00">/home/runner/work/kynema</text>
<text text-anchor="start" x="2007" y="-29" font-family="Helvetica,sans-Serif" font-size="10.00">&#45;sgf/kynema&#45;sgf/src/wind</text>
<text text-anchor="start" x="2007" y="-18" font-family="Helvetica,sans-Serif" font-size="10.00">_energy/actuator/disk/Joukowsky</text>
<text text-anchor="middle" x="2087" y="-7" font-family="Helvetica,sans-Serif" font-size="10.00">_ops.cpp</text>
</a>
</g>
</g>
<!-- Node18&#45;&gt;Node21 -->
<g id="edge24_Node000018_Node000021" class="edge">
<title>Node18&#45;&gt;Node21</title>
<g id="a_edge24_Node000018_Node000021"><a xlink:title=" ">
<path fill="none" stroke="#63b8ff" d="M2138.61,-178.52C2104.37,-167.79 2070.89,-154.2 2061,-140 2042.71,-113.73 2057.17,-76.51 2070.75,-52.06"/>
<polygon fill="#63b8ff" stroke="#63b8ff" points="2137.68,-181.89 2148.27,-181.46 2139.72,-175.2 2137.68,-181.89"/>
</a>
</g>
</g>
<!-- Node22 -->
<g id="Node000022" class="node">
<title>Node22</title>
<g id="a_Node000022"><a xlink:href="disk__ops_8cpp.html" target="_top" xlink:title=" ">
<polygon fill="white" stroke="#666666" points="2221.5,-140 2070.5,-140 2070.5,-88 2221.5,-88 2221.5,-140"/>
<text text-anchor="start" x="2078.5" y="-128" font-family="Helvetica,sans-Serif" font-size="10.00">/home/runner/work/kynema</text>
<text text-anchor="start" x="2078.5" y="-117" font-family="Helvetica,sans-Serif" font-size="10.00">&#45;sgf/kynema&#45;sgf/src/wind</text>
<text text-anchor="start" x="2078.5" y="-106" font-family="Helvetica,sans-Serif" font-size="10.00">_energy/actuator/disk/disk</text>
<text text-anchor="middle" x="2146" y="-95" font-family="Helvetica,sans-Serif" font-size="10.00">_ops.cpp</text>
</a>
</g>
</g>
<!-- Node18&#45;&gt;Node22 -->
<g id="edge25_Node000018_Node000022" class="edge">
<title>Node18&#45;&gt;Node22</title>
<g id="a_edge25_Node000018_Node000022"><a xlink:title=" ">
<path fill="none" stroke="#63b8ff" d="M2200.86,-173.97C2190.85,-163.21 2179.4,-150.9 2169.55,-140.32"/>
<polygon fill="#63b8ff" stroke="#63b8ff" points="2198.47,-176.55 2207.85,-181.49 2203.6,-171.78 2198.47,-176.55"/>
</a>
</g>
</g>
<!-- Node23 -->
<g id="Node000023" class="node">
<title>Node23</title>
<g id="a_Node000023"><a xlink:href="uniform__ct__ops_8_h.html" target="_top" xlink:title=" ">
<polygon fill="white" stroke="#666666" points="2631,-140 2467,-140 2467,-88 2631,-88 2631,-140"/>
<text text-anchor="start" x="2475" y="-128" font-family="Helvetica,sans-Serif" font-size="10.00">/home/runner/work/kynema</text>
<text text-anchor="start" x="2475" y="-117" font-family="Helvetica,sans-Serif" font-size="10.00">&#45;sgf/kynema&#45;sgf/src/wind</text>
<text text-anchor="start" x="2475" y="-106" font-family="Helvetica,sans-Serif" font-size="10.00">_energy/actuator/disk/uniform</text>
<text text-anchor="middle" x="2549" y="-95" font-family="Helvetica,sans-Serif" font-size="10.00">_ct_ops.H</text>
</a>
</g>
</g>
<!-- Node18&#45;&gt;Node23 -->
<g id="edge26_Node000018_Node000023" class="edge">
<title>Node18&#45;&gt;Node23</title>
<g id="a_edge26_Node000018_Node000023"><a xlink:title=" ">
<path fill="none" stroke="#63b8ff" d="M2310.81,-178.94C2354.76,-167.45 2409.3,-153.09 2458,-140 2460.85,-139.23 2463.75,-138.45 2466.67,-137.66"/>
<polygon fill="#63b8ff" stroke="#63b8ff" points="2309.81,-175.58 2301.02,-181.5 2311.58,-182.36 2309.81,-175.58"/>
</a>
</g>
</g>
<!-- Node20 -->
<g id="Node000020" class="node">
<title>Node20</title>
<g id="a_Node000020"><a xlink:href="_actuator_disk_8cpp.html" target="_top" xlink:title=" ">
<polygon fill="white" stroke="#666666" points="2448.5,-46.5 2239.5,-46.5 2239.5,-5.5 2448.5,-5.5 2448.5,-46.5"/>
<text text-anchor="start" x="2247.5" y="-34.5" font-family="Helvetica,sans-Serif" font-size="10.00">/home/runner/work/kynema</text>
<text text-anchor="start" x="2247.5" y="-23.5" font-family="Helvetica,sans-Serif" font-size="10.00">&#45;sgf/kynema&#45;sgf/src/wind</text>
<text text-anchor="middle" x="2344" y="-12.5" font-family="Helvetica,sans-Serif" font-size="10.00">_energy/actuator/disk/ActuatorDisk.cpp</text>
</a>
</g>
</g>
<!-- Node19&#45;&gt;Node20 -->
<g id="edge22_Node000019_Node000020" class="edge">
<title>Node19&#45;&gt;Node20</title>
<g id="a_edge22_Node000019_Node000020"><a xlink:title=" ">
<path fill="none" stroke="#63b8ff" d="M2344,-83.36C2344,-71.26 2344,-57.58 2344,-46.74"/>
<polygon fill="#63b8ff" stroke="#63b8ff" points="2340.5,-83.49 2344,-93.49 2347.5,-83.49 2340.5,-83.49"/>
</a>
</g>
</g>
<!-- Node19&#45;&gt;Node21 -->
<g id="edge23_Node000019_Node000021" class="edge">
<title>Node19&#45;&gt;Node21</title>
<g id="a_edge23_Node000019_Node000021"><a xlink:title=" ">
<path fill="none" stroke="#63b8ff" d="M2276.02,-90.25C2240.99,-78.53 2198.19,-64.21 2162.18,-52.16"/>
<polygon fill="#63b8ff" stroke="#63b8ff" points="2275.09,-93.63 2285.68,-93.49 2277.31,-86.99 2275.09,-93.63"/>
</a>
</g>
</g>
<!-- Node23&#45;&gt;Node20 -->
<g id="edge27_Node000023_Node000020" class="edge">
<title>Node23&#45;&gt;Node20</title>
<g id="a_edge27_Node000023_Node000020"><a xlink:title=" ">
<path fill="none" stroke="#63b8ff" d="M2479.77,-83.96C2450.39,-71.63 2416.91,-57.59 2390.56,-46.53"/>
<polygon fill="#63b8ff" stroke="#63b8ff" points="2478.58,-87.25 2489.15,-87.89 2481.29,-80.8 2478.58,-87.25"/>
</a>
</g>
</g>
<!-- Node24 -->
<g id="Node000024" class="node">
<title>Node24</title>
<g id="a_Node000024"><a xlink:href="uniform__ct__ops_8cpp.html" target="_top" xlink:title=" ">
<polygon fill="white" stroke="#666666" points="2631,-52 2467,-52 2467,0 2631,0 2631,-52"/>
<text text-anchor="start" x="2475" y="-40" font-family="Helvetica,sans-Serif" font-size="10.00">/home/runner/work/kynema</text>
<text text-anchor="start" x="2475" y="-29" font-family="Helvetica,sans-Serif" font-size="10.00">&#45;sgf/kynema&#45;sgf/src/wind</text>
<text text-anchor="start" x="2475" y="-18" font-family="Helvetica,sans-Serif" font-size="10.00">_energy/actuator/disk/uniform</text>
<text text-anchor="middle" x="2549" y="-7" font-family="Helvetica,sans-Serif" font-size="10.00">_ct_ops.cpp</text>
</a>
</g>
</g>
<!-- Node23&#45;&gt;Node24 -->
<g id="edge28_Node000023_Node000024" class="edge">
<title>Node23&#45;&gt;Node24</title>
<g id="a_edge28_Node000023_Node000024"><a xlink:title=" ">
<path fill="none" stroke="#63b8ff" d="M2549,-77.56C2549,-69.04 2549,-60.1 2549,-52.16"/>
<polygon fill="#63b8ff" stroke="#63b8ff" points="2545.5,-77.66 2549,-87.66 2552.5,-77.66 2545.5,-77.66"/>
</a>
</g>
</g>
</g>
</svg>
