<?xml version="1.0" encoding="UTF-8" standalone="no"?>
<!DOCTYPE svg PUBLIC "-//W3C//DTD SVG 1.1//EN"
 "http://www.w3.org/Graphics/SVG/1.1/DTD/svg11.dtd">
<!-- Generated by graphviz version 2.43.0 (0)
 -->
<!-- Title: /home/runner/work/kynema&#45;sgf/kynema&#45;sgf/src/utilities/tensor_ops.H Pages: 1 -->
<svg width="2022pt" height="313pt"
 viewBox="0.00 0.00 2022.00 313.00" xmlns="http://www.w3.org/2000/svg" xmlns:xlink="http://www.w3.org/1999/xlink">
<g id="graph0" class="graph" transform="scale(1 1) rotate(0) translate(4 309)">
<title>/home/runner/work/kynema&#45;sgf/kynema&#45;sgf/src/utilities/tensor_ops.H</title>
<!-- Node1 -->
<g id="Node000001" class="node">
<title>Node1</title>
<g id="a_Node000001"><a xlink:title=" ">
<polygon fill="#999999" stroke="#666666" points="951.5,-305 798.5,-305 798.5,-264 951.5,-264 951.5,-305"/>
<text text-anchor="start" x="806.5" y="-293" font-family="Helvetica,sans-Serif" font-size="10.00">/home/runner/work/kynema</text>
<text text-anchor="start" x="806.5" y="-282" font-family="Helvetica,sans-Serif" font-size="10.00">&#45;sgf/kynema&#45;sgf/src/utilities</text>
<text text-anchor="middle" x="875" y="-271" font-family="Helvetica,sans-Serif" font-size="10.00">/tensor_ops.H</text>
</a>
</g>
</g>
<!-- Node2 -->
<g id="Node000002" class="node">
<title>Node2</title>
<g id="a_Node000002"><a xlink:href="_wall_function_8cpp.html" target="_top" xlink:title=" ">
<polygon fill="white" stroke="#666666" points="222,-222.5 0,-222.5 0,-181.5 222,-181.5 222,-222.5"/>
<text text-anchor="start" x="8" y="-210.5" font-family="Helvetica,sans-Serif" font-size="10.00">/home/runner/work/kynema</text>
<text text-anchor="start" x="8" y="-199.5" font-family="Helvetica,sans-Serif" font-size="10.00">&#45;sgf/kynema&#45;sgf/src/boundary</text>
<text text-anchor="middle" x="111" y="-188.5" font-family="Helvetica,sans-Serif" font-size="10.00">_conditions/wall_models/WallFunction.cpp</text>
</a>
</g>
</g>
<!-- Node1&#45;&gt;Node2 -->
<g id="edge1_Node000001_Node000002" class="edge">
<title>Node1&#45;&gt;Node2</title>
<g id="a_edge1_Node000001_Node000002"><a xlink:title=" ">
<path fill="none" stroke="#63b8ff" d="M788.13,-279.31C664.05,-272.59 429.17,-257.08 231,-228 220.47,-226.46 209.48,-224.56 198.6,-222.51"/>
<polygon fill="#63b8ff" stroke="#63b8ff" points="788.15,-282.82 798.32,-279.86 788.53,-275.83 788.15,-282.82"/>
</a>
</g>
</g>
<!-- Node3 -->
<g id="Node000003" class="node">
<title>Node3</title>
<g id="a_Node000003"><a xlink:href="_coriolis_forcing_8cpp.html" target="_top" xlink:title=" ">
<polygon fill="white" stroke="#666666" points="399.5,-228 240.5,-228 240.5,-176 399.5,-176 399.5,-228"/>
<text text-anchor="start" x="248.5" y="-216" font-family="Helvetica,sans-Serif" font-size="10.00">/home/runner/work/kynema</text>
<text text-anchor="start" x="248.5" y="-205" font-family="Helvetica,sans-Serif" font-size="10.00">&#45;sgf/kynema&#45;sgf/src/equation</text>
<text text-anchor="start" x="248.5" y="-194" font-family="Helvetica,sans-Serif" font-size="10.00">_systems/icns/source_terms</text>
<text text-anchor="middle" x="320" y="-183" font-family="Helvetica,sans-Serif" font-size="10.00">/CoriolisForcing.cpp</text>
</a>
</g>
</g>
<!-- Node1&#45;&gt;Node3 -->
<g id="edge2_Node000001_Node000003" class="edge">
<title>Node1&#45;&gt;Node3</title>
<g id="a_edge2_Node000001_Node000003"><a xlink:title=" ">
<path fill="none" stroke="#63b8ff" d="M788.32,-277.33C694.07,-269.67 539.32,-254.28 408,-228 405.35,-227.47 402.67,-226.9 399.96,-226.3"/>
<polygon fill="#63b8ff" stroke="#63b8ff" points="788.13,-280.83 798.38,-278.14 788.69,-273.85 788.13,-280.83"/>
</a>
</g>
</g>
<!-- Node4 -->
<g id="Node000004" class="node">
<title>Node4</title>
<g id="a_Node000004"><a xlink:href="_synthetic_turbulence_8cpp.html" target="_top" xlink:title=" ">
<polygon fill="white" stroke="#666666" points="570.5,-222.5 417.5,-222.5 417.5,-181.5 570.5,-181.5 570.5,-222.5"/>
<text text-anchor="start" x="425.5" y="-210.5" font-family="Helvetica,sans-Serif" font-size="10.00">/home/runner/work/kynema</text>
<text text-anchor="start" x="425.5" y="-199.5" font-family="Helvetica,sans-Serif" font-size="10.00">&#45;sgf/kynema&#45;sgf/src/physics</text>
<text text-anchor="middle" x="494" y="-188.5" font-family="Helvetica,sans-Serif" font-size="10.00">/SyntheticTurbulence.cpp</text>
</a>
</g>
</g>
<!-- Node1&#45;&gt;Node4 -->
<g id="edge3_Node000001_Node000004" class="edge">
<title>Node1&#45;&gt;Node4</title>
<g id="a_edge3_Node000001_Node000004"><a xlink:title=" ">
<path fill="none" stroke="#63b8ff" d="M788.14,-268.73C730.32,-258.44 652.82,-243.78 585,-228 577.82,-226.33 570.35,-224.47 562.92,-222.55"/>
<polygon fill="#63b8ff" stroke="#63b8ff" points="787.87,-272.23 798.33,-270.53 789.09,-265.34 787.87,-272.23"/>
</a>
</g>
</g>
<!-- Node5 -->
<g id="Node000005" class="node">
<title>Node5</title>
<g id="a_Node000005"><a xlink:href="_d_t_u_spinner_sampler_8cpp.html" target="_top" xlink:title=" ">
<polygon fill="white" stroke="#666666" points="776.5,-46.5 591.5,-46.5 591.5,-5.5 776.5,-5.5 776.5,-46.5"/>
<text text-anchor="start" x="599.5" y="-34.5" font-family="Helvetica,sans-Serif" font-size="10.00">/home/runner/work/kynema</text>
<text text-anchor="start" x="599.5" y="-23.5" font-family="Helvetica,sans-Serif" font-size="10.00">&#45;sgf/kynema&#45;sgf/src/utilities</text>
<text text-anchor="middle" x="684" y="-12.5" font-family="Helvetica,sans-Serif" font-size="10.00">/sampling/DTUSpinnerSampler.cpp</text>
</a>
</g>
</g>
<!-- Node1&#45;&gt;Node5 -->
<g id="edge4_Node000001_Node000005" class="edge">
<title>Node1&#45;&gt;Node5</title>
<g id="a_edge4_Node000001_Node000005"><a xlink:title=" ">
<path fill="none" stroke="#63b8ff" d="M788.21,-276.29C722.22,-268.8 639.27,-254.35 618,-228 578.92,-179.58 593.06,-145.01 618,-88 625.32,-71.28 639.73,-57.1 653.23,-46.63"/>
<polygon fill="#63b8ff" stroke="#63b8ff" points="787.91,-279.78 798.23,-277.39 788.67,-272.82 787.91,-279.78"/>
</a>
</g>
</g>
<!-- Node6 -->
<g id="Node000006" class="node">
<title>Node6</title>
<g id="a_Node000006"><a xlink:href="_lidar_sampler_8cpp.html" target="_top" xlink:title=" ">
<polygon fill="white" stroke="#666666" points="780.5,-222.5 627.5,-222.5 627.5,-181.5 780.5,-181.5 780.5,-222.5"/>
<text text-anchor="start" x="635.5" y="-210.5" font-family="Helvetica,sans-Serif" font-size="10.00">/home/runner/work/kynema</text>
<text text-anchor="start" x="635.5" y="-199.5" font-family="Helvetica,sans-Serif" font-size="10.00">&#45;sgf/kynema&#45;sgf/src/utilities</text>
<text text-anchor="middle" x="704" y="-188.5" font-family="Helvetica,sans-Serif" font-size="10.00">/sampling/LidarSampler.cpp</text>
</a>
</g>
</g>
<!-- Node1&#45;&gt;Node6 -->
<g id="edge5_Node000001_Node000006" class="edge">
<title>Node1&#45;&gt;Node6</title>
<g id="a_edge5_Node000001_Node000006"><a xlink:title=" ">
<path fill="none" stroke="#63b8ff" d="M823.86,-259.42C798.9,-247.67 769.26,-233.72 745.7,-222.63"/>
<polygon fill="#63b8ff" stroke="#63b8ff" points="822.63,-262.71 833.17,-263.81 825.61,-256.38 822.63,-262.71"/>
</a>
</g>
</g>
<!-- Node7 -->
<g id="Node000007" class="node">
<title>Node7</title>
<g id="a_Node000007"><a xlink:href="_line_sampler_8cpp.html" target="_top" xlink:title=" ">
<polygon fill="white" stroke="#666666" points="951.5,-222.5 798.5,-222.5 798.5,-181.5 951.5,-181.5 951.5,-222.5"/>
<text text-anchor="start" x="806.5" y="-210.5" font-family="Helvetica,sans-Serif" font-size="10.00">/home/runner/work/kynema</text>
<text text-anchor="start" x="806.5" y="-199.5" font-family="Helvetica,sans-Serif" font-size="10.00">&#45;sgf/kynema&#45;sgf/src/utilities</text>
<text text-anchor="middle" x="875" y="-188.5" font-family="Helvetica,sans-Serif" font-size="10.00">/sampling/LineSampler.cpp</text>
</a>
</g>
</g>
<!-- Node1&#45;&gt;Node7 -->
<g id="edge6_Node000001_Node000007" class="edge">
<title>Node1&#45;&gt;Node7</title>
<g id="a_edge6_Node000001_Node000007"><a xlink:title=" ">
<path fill="none" stroke="#63b8ff" d="M875,-253.37C875,-243.1 875,-231.9 875,-222.67"/>
<polygon fill="#63b8ff" stroke="#63b8ff" points="871.5,-253.6 875,-263.6 878.5,-253.6 871.5,-253.6"/>
</a>
</g>
</g>
<!-- Node8 -->
<g id="Node000008" class="node">
<title>Node8</title>
<g id="a_Node000008"><a xlink:href="_radar_sampler_8cpp.html" target="_top" xlink:title=" ">
<polygon fill="white" stroke="#666666" points="1006,-46.5 850,-46.5 850,-5.5 1006,-5.5 1006,-46.5"/>
<text text-anchor="start" x="858" y="-34.5" font-family="Helvetica,sans-Serif" font-size="10.00">/home/runner/work/kynema</text>
<text text-anchor="start" x="858" y="-23.5" font-family="Helvetica,sans-Serif" font-size="10.00">&#45;sgf/kynema&#45;sgf/src/utilities</text>
<text text-anchor="middle" x="928" y="-12.5" font-family="Helvetica,sans-Serif" font-size="10.00">/sampling/RadarSampler.cpp</text>
</a>
</g>
</g>
<!-- Node1&#45;&gt;Node8 -->
<g id="edge7_Node000001_Node000008" class="edge">
<title>Node1&#45;&gt;Node8</title>
<g id="a_edge7_Node000001_Node000008"><a xlink:title=" ">
<path fill="none" stroke="#63b8ff" d="M961.78,-274.12C1026.01,-265.49 1106.45,-250.57 1131,-228 1161.12,-200.32 1151.93,-180.46 1158,-140 1161.43,-117.14 1172.09,-106.32 1158,-88 1139.33,-63.73 1065.15,-47.11 1006.01,-37.42"/>
<polygon fill="#63b8ff" stroke="#63b8ff" points="961.08,-270.69 951.62,-275.46 961.99,-277.63 961.08,-270.69"/>
</a>
</g>
</g>
<!-- Node9 -->
<g id="Node000009" class="node">
<title>Node9</title>
<g id="a_Node000009"><a xlink:href="_sampling_utils_8_h.html" target="_top" xlink:title=" ">
<polygon fill="white" stroke="#666666" points="1122.5,-222.5 969.5,-222.5 969.5,-181.5 1122.5,-181.5 1122.5,-222.5"/>
<text text-anchor="start" x="977.5" y="-210.5" font-family="Helvetica,sans-Serif" font-size="10.00">/home/runner/work/kynema</text>
<text text-anchor="start" x="977.5" y="-199.5" font-family="Helvetica,sans-Serif" font-size="10.00">&#45;sgf/kynema&#45;sgf/src/utilities</text>
<text text-anchor="middle" x="1046" y="-188.5" font-family="Helvetica,sans-Serif" font-size="10.00">/sampling/SamplingUtils.H</text>
</a>
</g>
</g>
<!-- Node1&#45;&gt;Node9 -->
<g id="edge8_Node000001_Node000009" class="edge">
<title>Node1&#45;&gt;Node9</title>
<g id="a_edge8_Node000001_Node000009"><a xlink:title=" ">
<path fill="none" stroke="#63b8ff" d="M926.14,-259.42C951.1,-247.67 980.74,-233.72 1004.3,-222.63"/>
<polygon fill="#63b8ff" stroke="#63b8ff" points="924.39,-256.38 916.83,-263.81 927.37,-262.71 924.39,-256.38"/>
</a>
</g>
</g>
<!-- Node13 -->
<g id="Node000013" class="node">
<title>Node13</title>
<g id="a_Node000013"><a xlink:href="_a_b_l_stats_8cpp.html" target="_top" xlink:title=" ">
<polygon fill="white" stroke="#666666" points="1343.5,-222.5 1192.5,-222.5 1192.5,-181.5 1343.5,-181.5 1343.5,-222.5"/>
<text text-anchor="start" x="1200.5" y="-210.5" font-family="Helvetica,sans-Serif" font-size="10.00">/home/runner/work/kynema</text>
<text text-anchor="start" x="1200.5" y="-199.5" font-family="Helvetica,sans-Serif" font-size="10.00">&#45;sgf/kynema&#45;sgf/src/wind</text>
<text text-anchor="middle" x="1268" y="-188.5" font-family="Helvetica,sans-Serif" font-size="10.00">_energy/ABLStats.cpp</text>
</a>
</g>
</g>
<!-- Node1&#45;&gt;Node13 -->
<g id="edge14_Node000001_Node000013" class="edge">
<title>Node1&#45;&gt;Node13</title>
<g id="a_edge14_Node000001_Node000013"><a xlink:title=" ">
<path fill="none" stroke="#63b8ff" d="M961.61,-269.76C1022.44,-259.59 1105.55,-244.66 1178,-228 1185.11,-226.36 1192.5,-224.53 1199.86,-222.62"/>
<polygon fill="#63b8ff" stroke="#63b8ff" points="960.95,-266.32 951.66,-271.41 962.1,-273.23 960.95,-266.32"/>
</a>
</g>
</g>
<!-- Node14 -->
<g id="Node000014" class="node">
<title>Node14</title>
<g id="a_Node000014"><a xlink:href="_a_b_l_wall_function_8cpp.html" target="_top" xlink:title=" ">
<polygon fill="white" stroke="#666666" points="1520.5,-222.5 1361.5,-222.5 1361.5,-181.5 1520.5,-181.5 1520.5,-222.5"/>
<text text-anchor="start" x="1369.5" y="-210.5" font-family="Helvetica,sans-Serif" font-size="10.00">/home/runner/work/kynema</text>
<text text-anchor="start" x="1369.5" y="-199.5" font-family="Helvetica,sans-Serif" font-size="10.00">&#45;sgf/kynema&#45;sgf/src/wind</text>
<text text-anchor="middle" x="1441" y="-188.5" font-family="Helvetica,sans-Serif" font-size="10.00">_energy/ABLWallFunction.cpp</text>
</a>
</g>
</g>
<!-- Node1&#45;&gt;Node14 -->
<g id="edge15_Node000001_Node000014" class="edge">
<title>Node1&#45;&gt;Node14</title>
<g id="a_edge15_Node000001_Node000014"><a xlink:title=" ">
<path fill="none" stroke="#63b8ff" d="M961.83,-277.54C1057.92,-269.99 1217.05,-254.63 1352,-228 1359.72,-226.48 1367.74,-224.62 1375.67,-222.62"/>
<polygon fill="#63b8ff" stroke="#63b8ff" points="961.28,-274.07 951.58,-278.34 961.82,-281.05 961.28,-274.07"/>
</a>
</g>
</g>
<!-- Node15 -->
<g id="Node000015" class="node">
<title>Node15</title>
<g id="a_Node000015"><a xlink:href="disk__ops_8_h.html" target="_top" xlink:title=" ">
<polygon fill="white" stroke="#666666" points="1717.5,-222.5 1538.5,-222.5 1538.5,-181.5 1717.5,-181.5 1717.5,-222.5"/>
<text text-anchor="start" x="1546.5" y="-210.5" font-family="Helvetica,sans-Serif" font-size="10.00">/home/runner/work/kynema</text>
<text text-anchor="start" x="1546.5" y="-199.5" font-family="Helvetica,sans-Serif" font-size="10.00">&#45;sgf/kynema&#45;sgf/src/wind</text>
<text text-anchor="middle" x="1628" y="-188.5" font-family="Helvetica,sans-Serif" font-size="10.00">_energy/actuator/disk/disk_ops.H</text>
</a>
</g>
</g>
<!-- Node1&#45;&gt;Node15 -->
<g id="edge16_Node000001_Node000015" class="edge">
<title>Node1&#45;&gt;Node15</title>
<g id="a_edge16_Node000001_Node000015"><a xlink:title=" ">
<path fill="none" stroke="#63b8ff" d="M961.86,-280.62C1087.67,-275.44 1327.6,-261.75 1529,-228 1537.92,-226.51 1547.21,-224.62 1556.38,-222.54"/>
<polygon fill="#63b8ff" stroke="#63b8ff" points="961.38,-277.14 951.53,-281.04 961.66,-284.13 961.38,-277.14"/>
</a>
</g>
</g>
<!-- Node10 -->
<g id="Node000010" class="node">
<title>Node10</title>
<g id="a_Node000010"><a xlink:href="_d_t_u_spinner_sampler_8_h.html" target="_top" xlink:title=" ">
<polygon fill="white" stroke="#666666" points="803,-134.5 627,-134.5 627,-93.5 803,-93.5 803,-134.5"/>
<text text-anchor="start" x="635" y="-122.5" font-family="Helvetica,sans-Serif" font-size="10.00">/home/runner/work/kynema</text>
<text text-anchor="start" x="635" y="-111.5" font-family="Helvetica,sans-Serif" font-size="10.00">&#45;sgf/kynema&#45;sgf/src/utilities</text>
<text text-anchor="middle" x="715" y="-100.5" font-family="Helvetica,sans-Serif" font-size="10.00">/sampling/DTUSpinnerSampler.H</text>
</a>
</g>
</g>
<!-- Node9&#45;&gt;Node10 -->
<g id="edge9_Node000009_Node000010" class="edge">
<title>Node9&#45;&gt;Node10</title>
<g id="a_edge9_Node000009_Node000010"><a xlink:title=" ">
<path fill="none" stroke="#63b8ff" d="M970.16,-178.75C966.73,-177.81 963.33,-176.89 960,-176 894.59,-158.55 877.67,-156.45 812,-140 805,-138.25 797.72,-136.4 790.43,-134.55"/>
<polygon fill="#63b8ff" stroke="#63b8ff" points="969.31,-182.15 979.88,-181.46 971.18,-175.41 969.31,-182.15"/>
</a>
</g>
</g>
<!-- Node11 -->
<g id="Node000011" class="node">
<title>Node11</title>
<g id="a_Node000011"><a xlink:href="_radar_sampler_8_h.html" target="_top" xlink:title=" ">
<polygon fill="white" stroke="#666666" points="974.5,-134.5 821.5,-134.5 821.5,-93.5 974.5,-93.5 974.5,-134.5"/>
<text text-anchor="start" x="829.5" y="-122.5" font-family="Helvetica,sans-Serif" font-size="10.00">/home/runner/work/kynema</text>
<text text-anchor="start" x="829.5" y="-111.5" font-family="Helvetica,sans-Serif" font-size="10.00">&#45;sgf/kynema&#45;sgf/src/utilities</text>
<text text-anchor="middle" x="898" y="-100.5" font-family="Helvetica,sans-Serif" font-size="10.00">/sampling/RadarSampler.H</text>
</a>
</g>
</g>
<!-- Node9&#45;&gt;Node11 -->
<g id="edge11_Node000009_Node000011" class="edge">
<title>Node9&#45;&gt;Node11</title>
<g id="a_edge11_Node000009_Node000011"><a xlink:title=" ">
<path fill="none" stroke="#63b8ff" d="M1003.62,-176.37C980.8,-163.11 953.04,-146.98 931.71,-134.59"/>
<polygon fill="#63b8ff" stroke="#63b8ff" points="1002.01,-179.49 1012.42,-181.49 1005.53,-173.43 1002.01,-179.49"/>
</a>
</g>
</g>
<!-- Node12 -->
<g id="Node000012" class="node">
<title>Node12</title>
<g id="a_Node000012"><a xlink:href="_sampling_utils_8cpp.html" target="_top" xlink:title=" ">
<polygon fill="white" stroke="#666666" points="1149,-134.5 993,-134.5 993,-93.5 1149,-93.5 1149,-134.5"/>
<text text-anchor="start" x="1001" y="-122.5" font-family="Helvetica,sans-Serif" font-size="10.00">/home/runner/work/kynema</text>
<text text-anchor="start" x="1001" y="-111.5" font-family="Helvetica,sans-Serif" font-size="10.00">&#45;sgf/kynema&#45;sgf/src/utilities</text>
<text text-anchor="middle" x="1071" y="-100.5" font-family="Helvetica,sans-Serif" font-size="10.00">/sampling/SamplingUtils.cpp</text>
</a>
</g>
</g>
<!-- Node9&#45;&gt;Node12 -->
<g id="edge13_Node000009_Node000012" class="edge">
<title>Node9&#45;&gt;Node12</title>
<g id="a_edge13_Node000009_Node000012"><a xlink:title=" ">
<path fill="none" stroke="#63b8ff" d="M1054.51,-171.73C1058.05,-159.53 1062.08,-145.69 1065.26,-134.74"/>
<polygon fill="#63b8ff" stroke="#63b8ff" points="1051.1,-170.91 1051.67,-181.49 1057.83,-172.86 1051.1,-170.91"/>
</a>
</g>
</g>
<!-- Node10&#45;&gt;Node5 -->
<g id="edge10_Node000010_Node000005" class="edge">
<title>Node10&#45;&gt;Node5</title>
<g id="a_edge10_Node000010_Node000005"><a xlink:title=" ">
<path fill="none" stroke="#63b8ff" d="M704.45,-83.73C700.05,-71.53 695.06,-57.69 691.11,-46.74"/>
<polygon fill="#63b8ff" stroke="#63b8ff" points="701.28,-85.26 707.97,-93.49 707.87,-82.89 701.28,-85.26"/>
</a>
</g>
</g>
<!-- Node11&#45;&gt;Node8 -->
<g id="edge12_Node000011_Node000008" class="edge">
<title>Node11&#45;&gt;Node8</title>
<g id="a_edge12_Node000011_Node000008"><a xlink:title=" ">
<path fill="none" stroke="#63b8ff" d="M908.21,-83.73C912.47,-71.53 917.29,-57.69 921.12,-46.74"/>
<polygon fill="#63b8ff" stroke="#63b8ff" points="904.8,-82.89 904.81,-93.49 911.41,-85.2 904.8,-82.89"/>
</a>
</g>
</g>
<!-- Node16 -->
<g id="Node000016" class="node">
<title>Node16</title>
<g id="a_Node000016"><a xlink:href="_joukowsky__ops_8_h.html" target="_top" xlink:title=" ">
<polygon fill="white" stroke="#666666" points="1831.5,-134.5 1622.5,-134.5 1622.5,-93.5 1831.5,-93.5 1831.5,-134.5"/>
<text text-anchor="start" x="1630.5" y="-122.5" font-family="Helvetica,sans-Serif" font-size="10.00">/home/runner/work/kynema</text>
<text text-anchor="start" x="1630.5" y="-111.5" font-family="Helvetica,sans-Serif" font-size="10.00">&#45;sgf/kynema&#45;sgf/src/wind</text>
<text text-anchor="middle" x="1727" y="-100.5" font-family="Helvetica,sans-Serif" font-size="10.00">_energy/actuator/disk/Joukowsky_ops.H</text>
</a>
</g>
</g>
<!-- Node15&#45;&gt;Node16 -->
<g id="edge17_Node000015_Node000016" class="edge">
<title>Node15&#45;&gt;Node16</title>
<g id="a_edge17_Node000015_Node000016"><a xlink:title=" ">
<path fill="none" stroke="#63b8ff" d="M1658.37,-174.62C1673.16,-161.77 1690.66,-146.57 1704.28,-134.74"/>
<polygon fill="#63b8ff" stroke="#63b8ff" points="1655.72,-172.28 1650.46,-181.49 1660.31,-177.57 1655.72,-172.28"/>
</a>
</g>
</g>
<!-- Node18 -->
<g id="Node000018" class="node">
<title>Node18</title>
<g id="a_Node000018"><a xlink:href="_joukowsky__ops_8cpp.html" target="_top" xlink:title=" ">
<polygon fill="white" stroke="#666666" points="1558,-52 1382,-52 1382,0 1558,0 1558,-52"/>
<text text-anchor="start" x="1390" y="-40" font-family="Helvetica,sans-Serif" font-size="10.00">/home/runner/work/kynema</text>
<text text-anchor="start" x="1390" y="-29" font-family="Helvetica,sans-Serif" font-size="10.00">&#45;sgf/kynema&#45;sgf/src/wind</text>
<text text-anchor="start" x="1390" y="-18" font-family="Helvetica,sans-Serif" font-size="10.00">_energy/actuator/disk/Joukowsky</text>
<text text-anchor="middle" x="1470" y="-7" font-family="Helvetica,sans-Serif" font-size="10.00">_ops.cpp</text>
</a>
</g>
</g>
<!-- Node15&#45;&gt;Node18 -->
<g id="edge20_Node000015_Node000018" class="edge">
<title>Node15&#45;&gt;Node18</title>
<g id="a_edge20_Node000015_Node000018"><a xlink:title=" ">
<path fill="none" stroke="#63b8ff" d="M1546.2,-178.65C1500.16,-165.25 1450.56,-149.09 1444,-140 1425.26,-114.05 1439.83,-76.74 1453.56,-52.2"/>
<polygon fill="#63b8ff" stroke="#63b8ff" points="1545.38,-182.06 1555.96,-181.47 1547.32,-175.33 1545.38,-182.06"/>
</a>
</g>
</g>
<!-- Node19 -->
<g id="Node000019" class="node">
<title>Node19</title>
<g id="a_Node000019"><a xlink:href="disk__ops_8cpp.html" target="_top" xlink:title=" ">
<polygon fill="white" stroke="#666666" points="1604.5,-140 1453.5,-140 1453.5,-88 1604.5,-88 1604.5,-140"/>
<text text-anchor="start" x="1461.5" y="-128" font-family="Helvetica,sans-Serif" font-size="10.00">/home/runner/work/kynema</text>
<text text-anchor="start" x="1461.5" y="-117" font-family="Helvetica,sans-Serif" font-size="10.00">&#45;sgf/kynema&#45;sgf/src/wind</text>
<text text-anchor="start" x="1461.5" y="-106" font-family="Helvetica,sans-Serif" font-size="10.00">_energy/actuator/disk/disk</text>
<text text-anchor="middle" x="1529" y="-95" font-family="Helvetica,sans-Serif" font-size="10.00">_ops.cpp</text>
</a>
</g>
</g>
<!-- Node15&#45;&gt;Node19 -->
<g id="edge21_Node000015_Node000019" class="edge">
<title>Node15&#45;&gt;Node19</title>
<g id="a_edge21_Node000015_Node000019"><a xlink:title=" ">
<path fill="none" stroke="#63b8ff" d="M1597.97,-174.91C1585.33,-163.93 1570.68,-151.21 1558.14,-140.32"/>
<polygon fill="#63b8ff" stroke="#63b8ff" points="1595.69,-177.57 1605.54,-181.49 1600.28,-172.28 1595.69,-177.57"/>
</a>
</g>
</g>
<!-- Node20 -->
<g id="Node000020" class="node">
<title>Node20</title>
<g id="a_Node000020"><a xlink:href="uniform__ct__ops_8_h.html" target="_top" xlink:title=" ">
<polygon fill="white" stroke="#666666" points="2014,-140 1850,-140 1850,-88 2014,-88 2014,-140"/>
<text text-anchor="start" x="1858" y="-128" font-family="Helvetica,sans-Serif" font-size="10.00">/home/runner/work/kynema</text>
<text text-anchor="start" x="1858" y="-117" font-family="Helvetica,sans-Serif" font-size="10.00">&#45;sgf/kynema&#45;sgf/src/wind</text>
<text text-anchor="start" x="1858" y="-106" font-family="Helvetica,sans-Serif" font-size="10.00">_energy/actuator/disk/uniform</text>
<text text-anchor="middle" x="1932" y="-95" font-family="Helvetica,sans-Serif" font-size="10.00">_ct_ops.H</text>
</a>
</g>
</g>
<!-- Node15&#45;&gt;Node20 -->
<g id="edge22_Node000015_Node000020" class="edge">
<title>Node15&#45;&gt;Node20</title>
<g id="a_edge22_Node000015_Node000020"><a xlink:title=" ">
<path fill="none" stroke="#63b8ff" d="M1706.76,-178.72C1750.68,-166.29 1805.33,-150.84 1849.79,-138.26"/>
<polygon fill="#63b8ff" stroke="#63b8ff" points="1705.65,-175.4 1696.98,-181.49 1707.56,-182.13 1705.65,-175.4"/>
</a>
</g>
</g>
<!-- Node17 -->
<g id="Node000017" class="node">
<title>Node17</title>
<g id="a_Node000017"><a xlink:href="_actuator_disk_8cpp.html" target="_top" xlink:title=" ">
<polygon fill="white" stroke="#666666" points="1831.5,-46.5 1622.5,-46.5 1622.5,-5.5 1831.5,-5.5 1831.5,-46.5"/>
<text text-anchor="start" x="1630.5" y="-34.5" font-family="Helvetica,sans-Serif" font-size="10.00">/home/runner/work/kynema</text>
<text text-anchor="start" x="1630.5" y="-23.5" font-family="Helvetica,sans-Serif" font-size="10.00">&#45;sgf/kynema&#45;sgf/src/wind</text>
<text text-anchor="middle" x="1727" y="-12.5" font-family="Helvetica,sans-Serif" font-size="10.00">_energy/actuator/disk/ActuatorDisk.cpp</text>
</a>
</g>
</g>
<!-- Node16&#45;&gt;Node17 -->
<g id="edge18_Node000016_Node000017" class="edge">
<title>Node16&#45;&gt;Node17</title>
<g id="a_edge18_Node000016_Node000017"><a xlink:title=" ">
<path fill="none" stroke="#63b8ff" d="M1727,-83.36C1727,-71.26 1727,-57.58 1727,-46.74"/>
<polygon fill="#63b8ff" stroke="#63b8ff" points="1723.5,-83.49 1727,-93.49 1730.5,-83.49 1723.5,-83.49"/>
</a>
</g>
</g>
<!-- Node16&#45;&gt;Node18 -->
<g id="edge19_Node000016_Node000018" class="edge">
<title>Node16&#45;&gt;Node18</title>
<g id="a_edge19_Node000016_Node000018"><a xlink:title=" ">
<path fill="none" stroke="#63b8ff" d="M1659.02,-90.25C1623.99,-78.53 1581.19,-64.21 1545.18,-52.16"/>
<polygon fill="#63b8ff" stroke="#63b8ff" points="1658.09,-93.63 1668.68,-93.49 1660.31,-86.99 1658.09,-93.63"/>
</a>
</g>
</g>
<!-- Node20&#45;&gt;Node17 -->
<g id="edge23_Node000020_Node000017" class="edge">
<title>Node20&#45;&gt;Node17</title>
<g id="a_edge23_Node000020_Node000017"><a xlink:title=" ">
<path fill="none" stroke="#63b8ff" d="M1862.77,-83.96C1833.39,-71.63 1799.91,-57.59 1773.56,-46.53"/>
<polygon fill="#63b8ff" stroke="#63b8ff" points="1861.58,-87.25 1872.15,-87.89 1864.29,-80.8 1861.58,-87.25"/>
</a>
</g>
</g>
<!-- Node21 -->
<g id="Node000021" class="node">
<title>Node21</title>
<g id="a_Node000021"><a xlink:href="uniform__ct__ops_8cpp.html" target="_top" xlink:title=" ">
<polygon fill="white" stroke="#666666" points="2014,-52 1850,-52 1850,0 2014,0 2014,-52"/>
<text text-anchor="start" x="1858" y="-40" font-family="Helvetica,sans-Serif" font-size="10.00">/home/runner/work/kynema</text>
<text text-anchor="start" x="1858" y="-29" font-family="Helvetica,sans-Serif" font-size="10.00">&#45;sgf/kynema&#45;sgf/src/wind</text>
<text text-anchor="start" x="1858" y="-18" font-family="Helvetica,sans-Serif" font-size="10.00">_energy/actuator/disk/uniform</text>
<text text-anchor="middle" x="1932" y="-7" font-family="Helvetica,sans-Serif" font-size="10.00">_ct_ops.cpp</text>
</a>
</g>
</g>
<!-- Node20&#45;&gt;Node21 -->
<g id="edge24_Node000020_Node000021" class="edge">
<title>Node20&#45;&gt;Node21</title>
<g id="a_edge24_Node000020_Node000021"><a xlink:title=" ">
<path fill="none" stroke="#63b8ff" d="M1932,-77.56C1932,-69.04 1932,-60.1 1932,-52.16"/>
<polygon fill="#63b8ff" stroke="#63b8ff" points="1928.5,-77.66 1932,-87.66 1935.5,-77.66 1928.5,-77.66"/>
</a>
</g>
</g>
</g>
</svg>
