<?xml version="1.0" encoding="UTF-8" standalone="no"?>
<!DOCTYPE svg PUBLIC "-//W3C//DTD SVG 1.1//EN"
 "http://www.w3.org/Graphics/SVG/1.1/DTD/svg11.dtd">
<!-- Generated by graphviz version 2.43.0 (0)
 -->
<!-- Title: /home/runner/work/kynema&#45;sgf/kynema&#45;sgf/src/turbulence/turb_utils.H Pages: 1 -->
<svg width="810pt" height="203pt"
 viewBox="0.00 0.00 810.00 203.00" xmlns="http://www.w3.org/2000/svg" xmlns:xlink="http://www.w3.org/1999/xlink">
<g id="graph0" class="graph" transform="scale(1 1) rotate(0) translate(4 199)">
<title>/home/runner/work/kynema&#45;sgf/kynema&#45;sgf/src/turbulence/turb_utils.H</title>
<!-- Node1 -->
<g id="Node000001" class="node">
<title>Node1</title>
<g id="a_Node000001"><a xlink:title=" ">
<polygon fill="#999999" stroke="#666666" points="522,-195 354,-195 354,-154 522,-154 522,-195"/>
<text text-anchor="start" x="362" y="-183" font-family="Helvetica,sans-Serif" font-size="10.00">/home/runner/work/kynema</text>
<text text-anchor="start" x="362" y="-172" font-family="Helvetica,sans-Serif" font-size="10.00">&#45;sgf/kynema&#45;sgf/src/turbulence</text>
<text text-anchor="middle" x="438" y="-161" font-family="Helvetica,sans-Serif" font-size="10.00">/turb_utils.H</text>
</a>
</g>
</g>
<!-- Node2 -->
<g id="Node000002" class="node">
<title>Node2</title>
<g id="a_Node000002"><a xlink:href="_one_eq_ksgs_8cpp.html" target="_top" xlink:title=" ">
<polygon fill="white" stroke="#666666" points="168,-118 0,-118 0,-77 168,-77 168,-118"/>
<text text-anchor="start" x="8" y="-106" font-family="Helvetica,sans-Serif" font-size="10.00">/home/runner/work/kynema</text>
<text text-anchor="start" x="8" y="-95" font-family="Helvetica,sans-Serif" font-size="10.00">&#45;sgf/kynema&#45;sgf/src/turbulence</text>
<text text-anchor="middle" x="84" y="-84" font-family="Helvetica,sans-Serif" font-size="10.00">/LES/OneEqKsgs.cpp</text>
</a>
</g>
</g>
<!-- Node1&#45;&gt;Node2 -->
<g id="edge1_Node000001_Node000002" class="edge">
<title>Node1&#45;&gt;Node2</title>
<g id="a_edge1_Node000001_Node000002"><a xlink:title=" ">
<path fill="none" stroke="#63b8ff" d="M343.62,-153.5C288.97,-141.93 220.78,-127.48 168,-116.3"/>
<polygon fill="#63b8ff" stroke="#63b8ff" points="343.15,-156.98 353.66,-155.63 344.6,-150.13 343.15,-156.98"/>
</a>
</g>
</g>
<!-- Node3 -->
<g id="Node000003" class="node">
<title>Node3</title>
<g id="a_Node000003"><a xlink:href="_k_l_axell_8cpp.html" target="_top" xlink:title=" ">
<polygon fill="white" stroke="#666666" points="354,-118 186,-118 186,-77 354,-77 354,-118"/>
<text text-anchor="start" x="194" y="-106" font-family="Helvetica,sans-Serif" font-size="10.00">/home/runner/work/kynema</text>
<text text-anchor="start" x="194" y="-95" font-family="Helvetica,sans-Serif" font-size="10.00">&#45;sgf/kynema&#45;sgf/src/turbulence</text>
<text text-anchor="middle" x="270" y="-84" font-family="Helvetica,sans-Serif" font-size="10.00">/RANS/KLAxell.cpp</text>
</a>
</g>
</g>
<!-- Node1&#45;&gt;Node3 -->
<g id="edge2_Node000001_Node000003" class="edge">
<title>Node1&#45;&gt;Node3</title>
<g id="a_edge2_Node000001_Node000003"><a xlink:title=" ">
<path fill="none" stroke="#63b8ff" d="M385.04,-149.86C362.11,-139.62 335.57,-127.77 313.77,-118.04"/>
<polygon fill="#63b8ff" stroke="#63b8ff" points="383.74,-153.11 394.3,-153.99 386.59,-146.72 383.74,-153.11"/>
</a>
</g>
</g>
<!-- Node4 -->
<g id="Node000004" class="node">
<title>Node4</title>
<g id="a_Node000004"><a xlink:href="_k_omega_s_s_t_8cpp.html" target="_top" xlink:title=" ">
<polygon fill="white" stroke="#666666" points="485,-41 317,-41 317,0 485,0 485,-41"/>
<text text-anchor="start" x="325" y="-29" font-family="Helvetica,sans-Serif" font-size="10.00">/home/runner/work/kynema</text>
<text text-anchor="start" x="325" y="-18" font-family="Helvetica,sans-Serif" font-size="10.00">&#45;sgf/kynema&#45;sgf/src/turbulence</text>
<text text-anchor="middle" x="401" y="-7" font-family="Helvetica,sans-Serif" font-size="10.00">/RANS/KOmegaSST.cpp</text>
</a>
</g>
</g>
<!-- Node1&#45;&gt;Node4 -->
<g id="edge3_Node000001_Node000004" class="edge">
<title>Node1&#45;&gt;Node4</title>
<g id="a_edge3_Node000001_Node000004"><a xlink:title=" ">
<path fill="none" stroke="#63b8ff" d="M414.84,-145.65C409.2,-137.27 403.94,-127.71 401,-118 393.23,-92.34 395.17,-61.06 397.72,-41.21"/>
<polygon fill="#63b8ff" stroke="#63b8ff" points="412.11,-147.83 420.79,-153.91 417.79,-143.74 412.11,-147.83"/>
</a>
</g>
</g>
<!-- Node5 -->
<g id="Node000005" class="node">
<title>Node5</title>
<g id="a_Node000005"><a xlink:href="_k_omega_s_s_t_i_8_h.html" target="_top" xlink:title=" ">
<polygon fill="white" stroke="#666666" points="578,-118 410,-118 410,-77 578,-77 578,-118"/>
<text text-anchor="start" x="418" y="-106" font-family="Helvetica,sans-Serif" font-size="10.00">/home/runner/work/kynema</text>
<text text-anchor="start" x="418" y="-95" font-family="Helvetica,sans-Serif" font-size="10.00">&#45;sgf/kynema&#45;sgf/src/turbulence</text>
<text text-anchor="middle" x="494" y="-84" font-family="Helvetica,sans-Serif" font-size="10.00">/RANS/KOmegaSSTI.H</text>
</a>
</g>
</g>
<!-- Node1&#45;&gt;Node5 -->
<g id="edge4_Node000001_Node000005" class="edge">
<title>Node1&#45;&gt;Node5</title>
<g id="a_edge4_Node000001_Node000005"><a xlink:title=" ">
<path fill="none" stroke="#63b8ff" d="M458.78,-145.67C465.63,-136.5 473.1,-126.5 479.38,-118.07"/>
<polygon fill="#63b8ff" stroke="#63b8ff" points="455.89,-143.69 452.71,-153.79 461.5,-147.88 455.89,-143.69"/>
</a>
</g>
</g>
<!-- Node6 -->
<g id="Node000006" class="node">
<title>Node6</title>
<g id="a_Node000006"><a xlink:href="_k_omega_s_s_t_i_d_d_e_s_8cpp.html" target="_top" xlink:title=" ">
<polygon fill="white" stroke="#666666" points="680,-41 512,-41 512,0 680,0 680,-41"/>
<text text-anchor="start" x="520" y="-29" font-family="Helvetica,sans-Serif" font-size="10.00">/home/runner/work/kynema</text>
<text text-anchor="start" x="520" y="-18" font-family="Helvetica,sans-Serif" font-size="10.00">&#45;sgf/kynema&#45;sgf/src/turbulence</text>
<text text-anchor="middle" x="596" y="-7" font-family="Helvetica,sans-Serif" font-size="10.00">/RANS/KOmegaSSTIDDES.cpp</text>
</a>
</g>
</g>
<!-- Node1&#45;&gt;Node6 -->
<g id="edge7_Node000001_Node000006" class="edge">
<title>Node1&#45;&gt;Node6</title>
<g id="a_edge7_Node000001_Node000006"><a xlink:title=" ">
<path fill="none" stroke="#63b8ff" d="M531.61,-156.44C552.85,-148.22 573.18,-136.04 587,-118 603.88,-95.96 602.74,-62.24 599.8,-41.06"/>
<polygon fill="#63b8ff" stroke="#63b8ff" points="530.37,-153.16 522.14,-159.83 532.74,-159.75 530.37,-153.16"/>
</a>
</g>
</g>
<!-- Node7 -->
<g id="Node000007" class="node">
<title>Node7</title>
<g id="a_Node000007"><a xlink:href="turb__utils_8cpp.html" target="_top" xlink:title=" ">
<polygon fill="white" stroke="#666666" points="802,-118 634,-118 634,-77 802,-77 802,-118"/>
<text text-anchor="start" x="642" y="-106" font-family="Helvetica,sans-Serif" font-size="10.00">/home/runner/work/kynema</text>
<text text-anchor="start" x="642" y="-95" font-family="Helvetica,sans-Serif" font-size="10.00">&#45;sgf/kynema&#45;sgf/src/turbulence</text>
<text text-anchor="middle" x="718" y="-84" font-family="Helvetica,sans-Serif" font-size="10.00">/turb_utils.cpp</text>
</a>
</g>
</g>
<!-- Node1&#45;&gt;Node7 -->
<g id="edge8_Node000001_Node000007" class="edge">
<title>Node1&#45;&gt;Node7</title>
<g id="a_edge8_Node000001_Node000007"><a xlink:title=" ">
<path fill="none" stroke="#63b8ff" d="M520.7,-151.35C560.15,-140.78 606.93,-128.25 645.04,-118.04"/>
<polygon fill="#63b8ff" stroke="#63b8ff" points="519.59,-148.02 510.84,-153.99 521.4,-154.78 519.59,-148.02"/>
</a>
</g>
</g>
<!-- Node5&#45;&gt;Node4 -->
<g id="edge5_Node000005_Node000004" class="edge">
<title>Node5&#45;&gt;Node4</title>
<g id="a_edge5_Node000005_Node000004"><a xlink:title=" ">
<path fill="none" stroke="#63b8ff" d="M461.57,-70.35C449.65,-60.73 436.36,-50.01 425.27,-41.07"/>
<polygon fill="#63b8ff" stroke="#63b8ff" points="459.58,-73.24 469.57,-76.79 463.98,-67.79 459.58,-73.24"/>
</a>
</g>
</g>
<!-- Node5&#45;&gt;Node6 -->
<g id="edge6_Node000005_Node000006" class="edge">
<title>Node5&#45;&gt;Node6</title>
<g id="a_edge6_Node000005_Node000006"><a xlink:title=" ">
<path fill="none" stroke="#63b8ff" d="M528.93,-70.82C542.12,-61.11 556.92,-50.24 569.25,-41.17"/>
<polygon fill="#63b8ff" stroke="#63b8ff" points="526.52,-68.25 520.53,-76.99 530.66,-73.89 526.52,-68.25"/>
</a>
</g>
</g>
</g>
</svg>
