<?xml version="1.0" encoding="UTF-8" standalone="no"?>
<!DOCTYPE svg PUBLIC "-//W3C//DTD SVG 1.1//EN"
 "http://www.w3.org/Graphics/SVG/1.1/DTD/svg11.dtd">
<!-- Generated by graphviz version 2.43.0 (0)
 -->
<!-- Title: /home/runner/work/kynema&#45;sgf/kynema&#45;sgf/src/wind_energy/actuator/turbine/turbine_types.H Pages: 1 -->
<!--zoomable 599 -->

<svg id="main" version="1.1" xmlns="http://www.w3.org/2000/svg" xmlns:xlink="http://www.w3.org/1999/xlink" xml:space="preserve" onload="init(evt)">

<style type="text/css"><![CDATA[
.node, .edge {opacity: 0.7;}
.node.selected, .edge.selected {opacity: 1;}
.edge:hover path { stroke: red; }
.edge:hover polygon { stroke: red; fill: red; }
]]></style>

<defs>
  <circle id="rim" cx="0" cy="0" r="7"/>
  <circle id="rim2" cx="0" cy="0" r="3.5"/>
  <g id="zoomPlus">
    <use xlink:href="#rim" fill="#404040"><set attributeName="fill" to="#808080" begin="zoomplus.mouseover" end="zoomplus.mouseout"/></use>
    <path d="M-4,0h8M0,-4v8" fill="none" stroke="white" stroke-width="1.5" pointer-events="none"/>
  </g>
  <g id="zoomMin">
    <use xlink:href="#rim" fill="#404040"><set attributeName="fill" to="#808080" begin="zoomminus.mouseover" end="zoomminus.mouseout"/></use>
    <path d="M-4,0h8" fill="none" stroke="white" stroke-width="1.5" pointer-events="none"/>
  </g>
  <g id="arrowUp" transform="translate(30 24)">
    <use xlink:href="#rim"/>
    <path pointer-events="none" fill="none" stroke="white" stroke-width="1.5" d="M0,-3.0v7 M-2.5,-0.5L0,-3.0L2.5,-0.5"/>
  </g>
  <g id="arrowRight" transform="rotate(90) translate(36 -43)">
    <use xlink:href="#rim"/>
    <path pointer-events="none" fill="none" stroke="white" stroke-width="1.5" d="M0,-3.0v7 M-2.5,-0.5L0,-3.0L2.5,-0.5"/>
  </g>
  <g id="arrowDown" transform="rotate(180) translate(-30 -48)">
    <use xlink:href="#rim"/>
    <path pointer-events="none" fill="none" stroke="white" stroke-width="1.5" d="M0,-3.0v7 M-2.5,-0.5L0,-3.0L2.5,-0.5"/>
  </g>
  <g id="arrowLeft" transform="rotate(270) translate(-36 17)">
    <use xlink:href="#rim"/>
    <path pointer-events="none" fill="none" stroke="white" stroke-width="1.5" d="M0,-3.0v7 M-2.5,-0.5L0,-3.0L2.5,-0.5"/>
  </g>
  <g id="resetDef">
    <use xlink:href="#rim2" fill="#404040"><set attributeName="fill" to="#808080" begin="reset.mouseover" end="reset.mouseout"/></use>
  </g>
</defs>
<script type="application/ecmascript">
var viewWidth = 1298;
var viewHeight = 599;
var sectionId = 'dynsection-1';
</script>
<script type="application/ecmascript" xlink:href="svg.min.js"/>
<svg id="graph" class="graph">
<g id="viewport">
<title>/home/runner/work/kynema&#45;sgf/kynema&#45;sgf/src/wind_energy/actuator/turbine/turbine_types.H</title>
<!-- Node1 -->
<g id="Node000001" class="node">
<title>Node1</title>
<g id="a_Node000001"><a xlink:title=" ">
<polygon fill="#999999" stroke="#666666" points="928,-591 777,-591 777,-539 928,-539 928,-591"/>
<text text-anchor="start" x="785" y="-579" font-family="Helvetica,sans-Serif" font-size="10.00">/home/runner/work/kynema</text>
<text text-anchor="start" x="785" y="-568" font-family="Helvetica,sans-Serif" font-size="10.00">&#45;sgf/kynema&#45;sgf/src/wind</text>
<text text-anchor="start" x="785" y="-557" font-family="Helvetica,sans-Serif" font-size="10.00">_energy/actuator/turbine</text>
<text text-anchor="middle" x="852.5" y="-546" font-family="Helvetica,sans-Serif" font-size="10.00">/turbine_types.H</text>
</a>
</g>
</g>
<!-- Node2 -->
<g id="Node000002" class="node">
<title>Node2</title>
<g id="a_Node000002"><a xlink:href="_act_src_disk_op___turbine_8_h.html" target="_top" xlink:title=" ">
<polygon fill="white" stroke="#666666" points="759,-503 608,-503 608,-451 759,-451 759,-503"/>
<text text-anchor="start" x="616" y="-491" font-family="Helvetica,sans-Serif" font-size="10.00">/home/runner/work/kynema</text>
<text text-anchor="start" x="616" y="-480" font-family="Helvetica,sans-Serif" font-size="10.00">&#45;sgf/kynema&#45;sgf/src/wind</text>
<text text-anchor="start" x="616" y="-469" font-family="Helvetica,sans-Serif" font-size="10.00">_energy/actuator/turbine</text>
<text text-anchor="middle" x="683.5" y="-458" font-family="Helvetica,sans-Serif" font-size="10.00">/ActSrcDiskOp_Turbine.H</text>
</a>
</g>
</g>
<!-- Node1&#45;&gt;Node2 -->
<g id="edge1_Node000001_Node000002" class="edge">
<title>Node1&#45;&gt;Node2</title>
<g id="a_edge1_Node000001_Node000002"><a xlink:title=" ">
<path fill="none" stroke="#63b8ff" d="M794.16,-534.31C774.2,-524.16 752.08,-512.9 732.9,-503.14"/>
<polygon fill="#63b8ff" stroke="#63b8ff" points="792.66,-537.48 803.16,-538.89 795.84,-531.24 792.66,-537.48"/>
</a>
</g>
</g>
<!-- Node13 -->
<g id="Node000013" class="node">
<title>Node13</title>
<g id="a_Node000013"><a xlink:href="_turbine_external_8_h.html" target="_top" xlink:title=" ">
<polygon fill="white" stroke="#666666" points="928,-503 777,-503 777,-451 928,-451 928,-503"/>
<text text-anchor="start" x="785" y="-491" font-family="Helvetica,sans-Serif" font-size="10.00">/home/runner/work/kynema</text>
<text text-anchor="start" x="785" y="-480" font-family="Helvetica,sans-Serif" font-size="10.00">&#45;sgf/kynema&#45;sgf/src/wind</text>
<text text-anchor="start" x="785" y="-469" font-family="Helvetica,sans-Serif" font-size="10.00">_energy/actuator/turbine</text>
<text text-anchor="middle" x="852.5" y="-458" font-family="Helvetica,sans-Serif" font-size="10.00">/external/TurbineExternal.H</text>
</a>
</g>
</g>
<!-- Node1&#45;&gt;Node13 -->
<g id="edge12_Node000001_Node000013" class="edge">
<title>Node1&#45;&gt;Node13</title>
<g id="a_edge12_Node000001_Node000013"><a xlink:title=" ">
<path fill="none" stroke="#63b8ff" d="M852.5,-528.56C852.5,-520.04 852.5,-511.1 852.5,-503.16"/>
<polygon fill="#63b8ff" stroke="#63b8ff" points="849,-528.66 852.5,-538.66 856,-528.66 849,-528.66"/>
</a>
</g>
</g>
<!-- Node20 -->
<g id="Node000020" class="node">
<title>Node20</title>
<g id="a_Node000020"><a xlink:href="turbine__utils_8_h.html" target="_top" xlink:title=" ">
<polygon fill="white" stroke="#666666" points="1131,-503 980,-503 980,-451 1131,-451 1131,-503"/>
<text text-anchor="start" x="988" y="-491" font-family="Helvetica,sans-Serif" font-size="10.00">/home/runner/work/kynema</text>
<text text-anchor="start" x="988" y="-480" font-family="Helvetica,sans-Serif" font-size="10.00">&#45;sgf/kynema&#45;sgf/src/wind</text>
<text text-anchor="start" x="988" y="-469" font-family="Helvetica,sans-Serif" font-size="10.00">_energy/actuator/turbine</text>
<text text-anchor="middle" x="1055.5" y="-458" font-family="Helvetica,sans-Serif" font-size="10.00">/turbine_utils.H</text>
</a>
</g>
</g>
<!-- Node1&#45;&gt;Node20 -->
<g id="edge25_Node000001_Node000020" class="edge">
<title>Node1&#45;&gt;Node20</title>
<g id="a_edge25_Node000001_Node000020"><a xlink:title=" ">
<path fill="none" stroke="#63b8ff" d="M921.28,-534.86C945.59,-524.56 972.7,-513.08 996.16,-503.14"/>
<polygon fill="#63b8ff" stroke="#63b8ff" points="919.6,-531.77 911.76,-538.89 922.33,-538.22 919.6,-531.77"/>
</a>
</g>
</g>
<!-- Node3 -->
<g id="Node000003" class="node">
<title>Node3</title>
<g id="a_Node000003"><a xlink:href="_actuator_model_8_h.html" target="_top" xlink:title=" ">
<polygon fill="white" stroke="#666666" points="775.5,-228 591.5,-228 591.5,-187 775.5,-187 775.5,-228"/>
<text text-anchor="start" x="599.5" y="-216" font-family="Helvetica,sans-Serif" font-size="10.00">/home/runner/work/kynema</text>
<text text-anchor="start" x="599.5" y="-205" font-family="Helvetica,sans-Serif" font-size="10.00">&#45;sgf/kynema&#45;sgf/src/wind</text>
<text text-anchor="middle" x="683.5" y="-194" font-family="Helvetica,sans-Serif" font-size="10.00">_energy/actuator/ActuatorModel.H</text>
</a>
</g>
</g>
<!-- Node2&#45;&gt;Node3 -->
<g id="edge2_Node000002_Node000003" class="edge">
<title>Node2&#45;&gt;Node3</title>
<g id="a_edge2_Node000002_Node000003"><a xlink:title=" ">
<path fill="none" stroke="#63b8ff" d="M683.5,-440.49C683.5,-383.41 683.5,-273.1 683.5,-228.22"/>
<polygon fill="#63b8ff" stroke="#63b8ff" points="680,-440.83 683.5,-450.83 687,-440.83 680,-440.83"/>
</a>
</g>
</g>
<!-- Node4 -->
<g id="Node000004" class="node">
<title>Node4</title>
<g id="a_Node000004"><a xlink:href="_actuator_8_h.html" target="_top" xlink:title=" ">
<polygon fill="white" stroke="#666666" points="581,-134.5 428,-134.5 428,-93.5 581,-93.5 581,-134.5"/>
<text text-anchor="start" x="436" y="-122.5" font-family="Helvetica,sans-Serif" font-size="10.00">/home/runner/work/kynema</text>
<text text-anchor="start" x="436" y="-111.5" font-family="Helvetica,sans-Serif" font-size="10.00">&#45;sgf/kynema&#45;sgf/src/wind</text>
<text text-anchor="middle" x="504.5" y="-100.5" font-family="Helvetica,sans-Serif" font-size="10.00">_energy/actuator/Actuator.H</text>
</a>
</g>
</g>
<!-- Node3&#45;&gt;Node4 -->
<g id="edge3_Node000003_Node000004" class="edge">
<title>Node3&#45;&gt;Node4</title>
<g id="a_edge3_Node000003_Node000004"><a xlink:title=" ">
<path fill="none" stroke="#63b8ff" d="M635.94,-182.19C606.83,-167.31 570.07,-148.52 542.84,-134.6"/>
<polygon fill="#63b8ff" stroke="#63b8ff" points="634.6,-185.44 645.1,-186.87 637.79,-179.2 634.6,-185.44"/>
</a>
</g>
</g>
<!-- Node8 -->
<g id="Node000008" class="node">
<title>Node8</title>
<g id="a_Node000008"><a xlink:href="_actuator_disk_8cpp.html" target="_top" xlink:title=" ">
<polygon fill="white" stroke="#666666" points="808,-134.5 599,-134.5 599,-93.5 808,-93.5 808,-134.5"/>
<text text-anchor="start" x="607" y="-122.5" font-family="Helvetica,sans-Serif" font-size="10.00">/home/runner/work/kynema</text>
<text text-anchor="start" x="607" y="-111.5" font-family="Helvetica,sans-Serif" font-size="10.00">&#45;sgf/kynema&#45;sgf/src/wind</text>
<text text-anchor="middle" x="703.5" y="-100.5" font-family="Helvetica,sans-Serif" font-size="10.00">_energy/actuator/disk/ActuatorDisk.cpp</text>
</a>
</g>
</g>
<!-- Node3&#45;&gt;Node8 -->
<g id="edge7_Node000003_Node000008" class="edge">
<title>Node3&#45;&gt;Node8</title>
<g id="a_edge7_Node000003_Node000008"><a xlink:title=" ">
<path fill="none" stroke="#63b8ff" d="M690.04,-176.6C693.06,-162.77 696.56,-146.74 699.24,-134.5"/>
<polygon fill="#63b8ff" stroke="#63b8ff" points="686.56,-176.13 687.84,-186.65 693.39,-177.62 686.56,-176.13"/>
</a>
</g>
</g>
<!-- Node9 -->
<g id="Node000009" class="node">
<title>Node9</title>
<g id="a_Node000009"><a xlink:href="_turbine_fast_8cpp.html" target="_top" xlink:title=" ">
<polygon fill="white" stroke="#666666" points="977,-140 826,-140 826,-88 977,-88 977,-140"/>
<text text-anchor="start" x="834" y="-128" font-family="Helvetica,sans-Serif" font-size="10.00">/home/runner/work/kynema</text>
<text text-anchor="start" x="834" y="-117" font-family="Helvetica,sans-Serif" font-size="10.00">&#45;sgf/kynema&#45;sgf/src/wind</text>
<text text-anchor="start" x="834" y="-106" font-family="Helvetica,sans-Serif" font-size="10.00">_energy/actuator/turbine</text>
<text text-anchor="middle" x="901.5" y="-95" font-family="Helvetica,sans-Serif" font-size="10.00">/fast/TurbineFast.cpp</text>
</a>
</g>
</g>
<!-- Node3&#45;&gt;Node9 -->
<g id="edge8_Node000003_Node000009" class="edge">
<title>Node3&#45;&gt;Node9</title>
<g id="a_edge8_Node000003_Node000009"><a xlink:title=" ">
<path fill="none" stroke="#63b8ff" d="M739.46,-183.01C770.8,-169.86 809.87,-153.46 841.79,-140.06"/>
<polygon fill="#63b8ff" stroke="#63b8ff" points="737.87,-179.89 730,-186.98 740.57,-186.34 737.87,-179.89"/>
</a>
</g>
</g>
<!-- Node10 -->
<g id="Node000010" class="node">
<title>Node10</title>
<g id="a_Node000010"><a xlink:href="_turbine_kynema_f_m_b_8cpp.html" target="_top" xlink:title=" ">
<polygon fill="white" stroke="#666666" points="1198,-140 995,-140 995,-88 1198,-88 1198,-140"/>
<text text-anchor="start" x="1003" y="-128" font-family="Helvetica,sans-Serif" font-size="10.00">/home/runner/work/kynema</text>
<text text-anchor="start" x="1003" y="-117" font-family="Helvetica,sans-Serif" font-size="10.00">&#45;sgf/kynema&#45;sgf/src/wind</text>
<text text-anchor="start" x="1003" y="-106" font-family="Helvetica,sans-Serif" font-size="10.00">_energy/actuator/turbine</text>
<text text-anchor="middle" x="1096.5" y="-95" font-family="Helvetica,sans-Serif" font-size="10.00">/kynema_fmb/TurbineKynemaFMB.cpp</text>
</a>
</g>
</g>
<!-- Node3&#45;&gt;Node10 -->
<g id="edge9_Node000003_Node000010" class="edge">
<title>Node3&#45;&gt;Node10</title>
<g id="a_edge9_Node000003_Node000010"><a xlink:title=" ">
<path fill="none" stroke="#63b8ff" d="M783.44,-184.76C842.53,-171.86 918.8,-155.12 986.5,-140 989.27,-139.38 992.08,-138.75 994.92,-138.12"/>
<polygon fill="#63b8ff" stroke="#63b8ff" points="782.39,-181.41 773.36,-186.96 783.88,-188.25 782.39,-181.41"/>
</a>
</g>
</g>
<!-- Node11 -->
<g id="Node000011" class="node">
<title>Node11</title>
<g id="a_Node000011"><a xlink:href="_fixed_wing_8cpp.html" target="_top" xlink:title=" ">
<polygon fill="white" stroke="#666666" points="199,-134.5 0,-134.5 0,-93.5 199,-93.5 199,-134.5"/>
<text text-anchor="start" x="8" y="-122.5" font-family="Helvetica,sans-Serif" font-size="10.00">/home/runner/work/kynema</text>
<text text-anchor="start" x="8" y="-111.5" font-family="Helvetica,sans-Serif" font-size="10.00">&#45;sgf/kynema&#45;sgf/src/wind</text>
<text text-anchor="middle" x="99.5" y="-100.5" font-family="Helvetica,sans-Serif" font-size="10.00">_energy/actuator/wing/FixedWing.cpp</text>
</a>
</g>
</g>
<!-- Node3&#45;&gt;Node11 -->
<g id="edge10_Node000003_Node000011" class="edge">
<title>Node3&#45;&gt;Node11</title>
<g id="a_edge10_Node000003_Node000011"><a xlink:title=" ">
<path fill="none" stroke="#63b8ff" d="M581.13,-194.76C484.65,-183.09 336.23,-163.54 208.5,-140 199.62,-138.36 190.37,-136.5 181.18,-134.54"/>
<polygon fill="#63b8ff" stroke="#63b8ff" points="580.83,-198.25 591.17,-195.97 581.66,-191.3 580.83,-198.25"/>
</a>
</g>
</g>
<!-- Node12 -->
<g id="Node000012" class="node">
<title>Node12</title>
<g id="a_Node000012"><a xlink:href="_flat_plate_8cpp.html" target="_top" xlink:title=" ">
<polygon fill="white" stroke="#666666" points="409.5,-134.5 217.5,-134.5 217.5,-93.5 409.5,-93.5 409.5,-134.5"/>
<text text-anchor="start" x="225.5" y="-122.5" font-family="Helvetica,sans-Serif" font-size="10.00">/home/runner/work/kynema</text>
<text text-anchor="start" x="225.5" y="-111.5" font-family="Helvetica,sans-Serif" font-size="10.00">&#45;sgf/kynema&#45;sgf/src/wind</text>
<text text-anchor="middle" x="313.5" y="-100.5" font-family="Helvetica,sans-Serif" font-size="10.00">_energy/actuator/wing/FlatPlate.cpp</text>
</a>
</g>
</g>
<!-- Node3&#45;&gt;Node12 -->
<g id="edge11_Node000003_Node000012" class="edge">
<title>Node3&#45;&gt;Node12</title>
<g id="a_edge11_Node000003_Node000012"><a xlink:title=" ">
<path fill="none" stroke="#63b8ff" d="M594.49,-184.49C532.98,-169.28 451.87,-149.22 392.62,-134.57"/>
<polygon fill="#63b8ff" stroke="#63b8ff" points="594.03,-187.98 604.58,-186.98 595.71,-181.18 594.03,-187.98"/>
</a>
</g>
</g>
<!-- Node5 -->
<g id="Node000005" class="node">
<title>Node5</title>
<g id="a_Node000005"><a xlink:href="_actuator_forcing_8cpp.html" target="_top" xlink:title=" ">
<polygon fill="white" stroke="#666666" points="405,-52 246,-52 246,0 405,0 405,-52"/>
<text text-anchor="start" x="254" y="-40" font-family="Helvetica,sans-Serif" font-size="10.00">/home/runner/work/kynema</text>
<text text-anchor="start" x="254" y="-29" font-family="Helvetica,sans-Serif" font-size="10.00">&#45;sgf/kynema&#45;sgf/src/equation</text>
<text text-anchor="start" x="254" y="-18" font-family="Helvetica,sans-Serif" font-size="10.00">_systems/icns/source_terms</text>
<text text-anchor="middle" x="325.5" y="-7" font-family="Helvetica,sans-Serif" font-size="10.00">/ActuatorForcing.cpp</text>
</a>
</g>
</g>
<!-- Node4&#45;&gt;Node5 -->
<g id="edge4_Node000004_Node000005" class="edge">
<title>Node4&#45;&gt;Node5</title>
<g id="a_edge4_Node000004_Node000005"><a xlink:title=" ">
<path fill="none" stroke="#63b8ff" d="M454.63,-89.04C430.72,-77.55 402.09,-63.8 377.86,-52.16"/>
<polygon fill="#63b8ff" stroke="#63b8ff" points="453.35,-92.31 463.88,-93.49 456.38,-86 453.35,-92.31"/>
</a>
</g>
</g>
<!-- Node6 -->
<g id="Node000006" class="node">
<title>Node6</title>
<g id="a_Node000006"><a xlink:href="_actuator_8cpp.html" target="_top" xlink:title=" ">
<polygon fill="white" stroke="#666666" points="586,-46.5 423,-46.5 423,-5.5 586,-5.5 586,-46.5"/>
<text text-anchor="start" x="431" y="-34.5" font-family="Helvetica,sans-Serif" font-size="10.00">/home/runner/work/kynema</text>
<text text-anchor="start" x="431" y="-23.5" font-family="Helvetica,sans-Serif" font-size="10.00">&#45;sgf/kynema&#45;sgf/src/wind</text>
<text text-anchor="middle" x="504.5" y="-12.5" font-family="Helvetica,sans-Serif" font-size="10.00">_energy/actuator/Actuator.cpp</text>
</a>
</g>
</g>
<!-- Node4&#45;&gt;Node6 -->
<g id="edge5_Node000004_Node000006" class="edge">
<title>Node4&#45;&gt;Node6</title>
<g id="a_edge5_Node000004_Node000006"><a xlink:title=" ">
<path fill="none" stroke="#63b8ff" d="M504.5,-83.36C504.5,-71.26 504.5,-57.58 504.5,-46.74"/>
<polygon fill="#63b8ff" stroke="#63b8ff" points="501,-83.49 504.5,-93.49 508,-83.49 501,-83.49"/>
</a>
</g>
</g>
<!-- Node7 -->
<g id="Node000007" class="node">
<title>Node7</title>
<g id="a_Node000007"><a xlink:href="_actuator_container_8cpp.html" target="_top" xlink:title=" ">
<polygon fill="white" stroke="#666666" points="814.5,-46.5 604.5,-46.5 604.5,-5.5 814.5,-5.5 814.5,-46.5"/>
<text text-anchor="start" x="612.5" y="-34.5" font-family="Helvetica,sans-Serif" font-size="10.00">/home/runner/work/kynema</text>
<text text-anchor="start" x="612.5" y="-23.5" font-family="Helvetica,sans-Serif" font-size="10.00">&#45;sgf/kynema&#45;sgf/src/wind</text>
<text text-anchor="middle" x="709.5" y="-12.5" font-family="Helvetica,sans-Serif" font-size="10.00">_energy/actuator/ActuatorContainer.cpp</text>
</a>
</g>
</g>
<!-- Node4&#45;&gt;Node7 -->
<g id="edge6_Node000004_Node000007" class="edge">
<title>Node4&#45;&gt;Node7</title>
<g id="a_edge6_Node000004_Node000007"><a xlink:title=" ">
<path fill="none" stroke="#63b8ff" d="M560.29,-89.6C592.42,-76.12 632.35,-59.37 662.81,-46.59"/>
<polygon fill="#63b8ff" stroke="#63b8ff" points="558.89,-86.39 551.02,-93.49 561.59,-92.84 558.89,-86.39"/>
</a>
</g>
</g>
<!-- Node14 -->
<g id="Node000014" class="node">
<title>Node14</title>
<g id="a_Node000014"><a xlink:href="turbine__external__utils_8_h.html" target="_top" xlink:title=" ">
<polygon fill="white" stroke="#666666" points="1059.5,-415 879.5,-415 879.5,-363 1059.5,-363 1059.5,-415"/>
<text text-anchor="start" x="887.5" y="-403" font-family="Helvetica,sans-Serif" font-size="10.00">/home/runner/work/kynema</text>
<text text-anchor="start" x="887.5" y="-392" font-family="Helvetica,sans-Serif" font-size="10.00">&#45;sgf/kynema&#45;sgf/src/wind</text>
<text text-anchor="start" x="887.5" y="-381" font-family="Helvetica,sans-Serif" font-size="10.00">_energy/actuator/turbine</text>
<text text-anchor="middle" x="969.5" y="-370" font-family="Helvetica,sans-Serif" font-size="10.00">/external/turbine_external_utils.H</text>
</a>
</g>
</g>
<!-- Node13&#45;&gt;Node14 -->
<g id="edge13_Node000013_Node000014" class="edge">
<title>Node13&#45;&gt;Node14</title>
<g id="a_edge13_Node000013_Node000014"><a xlink:title=" ">
<path fill="none" stroke="#63b8ff" d="M894.73,-444.96C907.98,-435.22 922.45,-424.58 935.1,-415.29"/>
<polygon fill="#63b8ff" stroke="#63b8ff" points="892.64,-442.15 886.66,-450.89 896.79,-447.79 892.64,-442.15"/>
</a>
</g>
</g>
<!-- Node18 -->
<g id="Node000018" class="node">
<title>Node18</title>
<g id="a_Node000018"><a xlink:href="_turbine_fast_8_h.html" target="_top" xlink:title=" ">
<polygon fill="white" stroke="#666666" points="883,-327 732,-327 732,-275 883,-275 883,-327"/>
<text text-anchor="start" x="740" y="-315" font-family="Helvetica,sans-Serif" font-size="10.00">/home/runner/work/kynema</text>
<text text-anchor="start" x="740" y="-304" font-family="Helvetica,sans-Serif" font-size="10.00">&#45;sgf/kynema&#45;sgf/src/wind</text>
<text text-anchor="start" x="740" y="-293" font-family="Helvetica,sans-Serif" font-size="10.00">_energy/actuator/turbine</text>
<text text-anchor="middle" x="807.5" y="-282" font-family="Helvetica,sans-Serif" font-size="10.00">/fast/TurbineFast.H</text>
</a>
</g>
</g>
<!-- Node13&#45;&gt;Node18 -->
<g id="edge19_Node000013_Node000018" class="edge">
<title>Node13&#45;&gt;Node18</title>
<g id="a_edge19_Node000013_Node000018"><a xlink:title=" ">
<path fill="none" stroke="#63b8ff" d="M843.39,-440.79C834.66,-407.03 821.7,-356.92 813.98,-327.05"/>
<polygon fill="#63b8ff" stroke="#63b8ff" points="840.06,-441.89 845.96,-450.7 846.84,-440.14 840.06,-441.89"/>
</a>
</g>
</g>
<!-- Node19 -->
<g id="Node000019" class="node">
<title>Node19</title>
<g id="a_Node000019"><a xlink:href="_turbine_kynema_f_m_b_8_h.html" target="_top" xlink:title=" ">
<polygon fill="white" stroke="#666666" points="1289.5,-327 1095.5,-327 1095.5,-275 1289.5,-275 1289.5,-327"/>
<text text-anchor="start" x="1103.5" y="-315" font-family="Helvetica,sans-Serif" font-size="10.00">/home/runner/work/kynema</text>
<text text-anchor="start" x="1103.5" y="-304" font-family="Helvetica,sans-Serif" font-size="10.00">&#45;sgf/kynema&#45;sgf/src/wind</text>
<text text-anchor="start" x="1103.5" y="-293" font-family="Helvetica,sans-Serif" font-size="10.00">_energy/actuator/turbine</text>
<text text-anchor="middle" x="1192.5" y="-282" font-family="Helvetica,sans-Serif" font-size="10.00">/kynema_fmb/TurbineKynemaFMB.H</text>
</a>
</g>
</g>
<!-- Node13&#45;&gt;Node19 -->
<g id="edge22_Node000013_Node000019" class="edge">
<title>Node13&#45;&gt;Node19</title>
<g id="a_edge22_Node000013_Node000019"><a xlink:title=" ">
<path fill="none" stroke="#63b8ff" d="M848.2,-440.51C847.27,-415.48 850.66,-382.98 870.5,-363 904.79,-328.47 1038.79,-336.59 1086.5,-327 1089.37,-326.42 1092.29,-325.82 1095.23,-325.21"/>
<polygon fill="#63b8ff" stroke="#63b8ff" points="844.72,-440.95 848.83,-450.72 851.71,-440.52 844.72,-440.95"/>
</a>
</g>
</g>
<!-- Node15 -->
<g id="Node000015" class="node">
<title>Node15</title>
<g id="a_Node000015"><a xlink:href="turbine__external__ops_8_h.html" target="_top" xlink:title=" ">
<polygon fill="white" stroke="#666666" points="1077.5,-327 901.5,-327 901.5,-275 1077.5,-275 1077.5,-327"/>
<text text-anchor="start" x="909.5" y="-315" font-family="Helvetica,sans-Serif" font-size="10.00">/home/runner/work/kynema</text>
<text text-anchor="start" x="909.5" y="-304" font-family="Helvetica,sans-Serif" font-size="10.00">&#45;sgf/kynema&#45;sgf/src/wind</text>
<text text-anchor="start" x="909.5" y="-293" font-family="Helvetica,sans-Serif" font-size="10.00">_energy/actuator/turbine</text>
<text text-anchor="middle" x="989.5" y="-282" font-family="Helvetica,sans-Serif" font-size="10.00">/external/turbine_external_ops.H</text>
</a>
</g>
</g>
<!-- Node14&#45;&gt;Node15 -->
<g id="edge14_Node000014_Node000015" class="edge">
<title>Node14&#45;&gt;Node15</title>
<g id="a_edge14_Node000014_Node000015"><a xlink:title=" ">
<path fill="none" stroke="#63b8ff" d="M977.68,-352.84C979.68,-344.23 981.78,-335.19 983.65,-327.16"/>
<polygon fill="#63b8ff" stroke="#63b8ff" points="974.25,-352.13 975.39,-362.66 981.07,-353.72 974.25,-352.13"/>
</a>
</g>
</g>
<!-- Node16 -->
<g id="Node000016" class="node">
<title>Node16</title>
<g id="a_Node000016"><a xlink:href="turbine__fast__ops_8_h.html" target="_top" xlink:title=" ">
<polygon fill="white" stroke="#666666" points="986,-233.5 835,-233.5 835,-181.5 986,-181.5 986,-233.5"/>
<text text-anchor="start" x="843" y="-221.5" font-family="Helvetica,sans-Serif" font-size="10.00">/home/runner/work/kynema</text>
<text text-anchor="start" x="843" y="-210.5" font-family="Helvetica,sans-Serif" font-size="10.00">&#45;sgf/kynema&#45;sgf/src/wind</text>
<text text-anchor="start" x="843" y="-199.5" font-family="Helvetica,sans-Serif" font-size="10.00">_energy/actuator/turbine</text>
<text text-anchor="middle" x="910.5" y="-188.5" font-family="Helvetica,sans-Serif" font-size="10.00">/fast/turbine_fast_ops.H</text>
</a>
</g>
</g>
<!-- Node15&#45;&gt;Node16 -->
<g id="edge15_Node000015_Node000016" class="edge">
<title>Node15&#45;&gt;Node16</title>
<g id="a_edge15_Node000015_Node000016"><a xlink:title=" ">
<path fill="none" stroke="#63b8ff" d="M961.2,-267.22C951.7,-256.22 941.26,-244.13 932.34,-233.79"/>
<polygon fill="#63b8ff" stroke="#63b8ff" points="958.73,-269.72 967.91,-275 964.03,-265.14 958.73,-269.72"/>
</a>
</g>
</g>
<!-- Node17 -->
<g id="Node000017" class="node">
<title>Node17</title>
<g id="a_Node000017"><a xlink:href="turbine__kynema__fmb__ops_8_h.html" target="_top" xlink:title=" ">
<polygon fill="white" stroke="#666666" points="1169,-239 1004,-239 1004,-176 1169,-176 1169,-239"/>
<text text-anchor="start" x="1012" y="-227" font-family="Helvetica,sans-Serif" font-size="10.00">/home/runner/work/kynema</text>
<text text-anchor="start" x="1012" y="-216" font-family="Helvetica,sans-Serif" font-size="10.00">&#45;sgf/kynema&#45;sgf/src/wind</text>
<text text-anchor="start" x="1012" y="-205" font-family="Helvetica,sans-Serif" font-size="10.00">_energy/actuator/turbine</text>
<text text-anchor="start" x="1012" y="-194" font-family="Helvetica,sans-Serif" font-size="10.00">/kynema_fmb/turbine_kynema</text>
<text text-anchor="middle" x="1086.5" y="-183" font-family="Helvetica,sans-Serif" font-size="10.00">_fmb_ops.H</text>
</a>
</g>
</g>
<!-- Node15&#45;&gt;Node17 -->
<g id="edge17_Node000015_Node000017" class="edge">
<title>Node15&#45;&gt;Node17</title>
<g id="a_edge17_Node000015_Node000017"><a xlink:title=" ">
<path fill="none" stroke="#63b8ff" d="M1023.42,-268C1033.4,-258.59 1044.28,-248.33 1054.15,-239.02"/>
<polygon fill="#63b8ff" stroke="#63b8ff" points="1020.88,-265.59 1016.01,-275 1025.68,-270.68 1020.88,-265.59"/>
</a>
</g>
</g>
<!-- Node16&#45;&gt;Node9 -->
<g id="edge16_Node000016_Node000009" class="edge">
<title>Node16&#45;&gt;Node9</title>
<g id="a_edge16_Node000016_Node000009"><a xlink:title=" ">
<path fill="none" stroke="#63b8ff" d="M907.05,-171.46C906.03,-161.08 904.94,-149.92 903.99,-140.29"/>
<polygon fill="#63b8ff" stroke="#63b8ff" points="903.58,-171.89 908.04,-181.5 910.54,-171.2 903.58,-171.89"/>
</a>
</g>
</g>
<!-- Node17&#45;&gt;Node10 -->
<g id="edge18_Node000017_Node000010" class="edge">
<title>Node17&#45;&gt;Node10</title>
<g id="a_edge18_Node000017_Node000010"><a xlink:title=" ">
<path fill="none" stroke="#63b8ff" d="M1090.96,-165.7C1091.92,-156.95 1092.9,-147.96 1093.77,-140.02"/>
<polygon fill="#63b8ff" stroke="#63b8ff" points="1087.46,-165.46 1089.86,-175.78 1094.42,-166.22 1087.46,-165.46"/>
</a>
</g>
</g>
<!-- Node18&#45;&gt;Node9 -->
<g id="edge20_Node000018_Node000009" class="edge">
<title>Node18&#45;&gt;Node9</title>
<g id="a_edge20_Node000018_Node000009"><a xlink:title=" ">
<path fill="none" stroke="#63b8ff" d="M806.29,-264.79C806.89,-238.68 811,-203.08 826.5,-176 834.59,-161.87 847.32,-149.69 860.01,-140.01"/>
<polygon fill="#63b8ff" stroke="#63b8ff" points="802.79,-264.97 806.22,-274.99 809.79,-265.02 802.79,-264.97"/>
</a>
</g>
</g>
<!-- Node18&#45;&gt;Node16 -->
<g id="edge21_Node000018_Node000016" class="edge">
<title>Node18&#45;&gt;Node16</title>
<g id="a_edge21_Node000018_Node000016"><a xlink:title=" ">
<path fill="none" stroke="#63b8ff" d="M843.32,-268.18C855.99,-256.92 870.06,-244.43 882.03,-233.79"/>
<polygon fill="#63b8ff" stroke="#63b8ff" points="840.8,-265.74 835.65,-275 845.45,-270.97 840.8,-265.74"/>
</a>
</g>
</g>
<!-- Node19&#45;&gt;Node10 -->
<g id="edge23_Node000019_Node000010" class="edge">
<title>Node19&#45;&gt;Node10</title>
<g id="a_edge23_Node000019_Node000010"><a xlink:title=" ">
<path fill="none" stroke="#63b8ff" d="M1195.75,-264.69C1196.51,-238.53 1193.97,-202.91 1178.5,-176 1170.27,-161.69 1157.2,-149.73 1143.89,-140.3"/>
<polygon fill="#63b8ff" stroke="#63b8ff" points="1192.24,-264.76 1195.27,-274.92 1199.23,-265.09 1192.24,-264.76"/>
</a>
</g>
</g>
<!-- Node19&#45;&gt;Node17 -->
<g id="edge24_Node000019_Node000017" class="edge">
<title>Node19&#45;&gt;Node17</title>
<g id="a_edge24_Node000019_Node000017"><a xlink:title=" ">
<path fill="none" stroke="#63b8ff" d="M1155.75,-268.28C1144.76,-258.79 1132.75,-248.42 1121.85,-239.02"/>
<polygon fill="#63b8ff" stroke="#63b8ff" points="1153.68,-271.11 1163.54,-275 1158.25,-265.81 1153.68,-271.11"/>
</a>
</g>
</g>
<!-- Node20&#45;&gt;Node14 -->
<g id="edge27_Node000020_Node000014" class="edge">
<title>Node20&#45;&gt;Node14</title>
<g id="a_edge27_Node000020_Node000014"><a xlink:title=" ">
<path fill="none" stroke="#63b8ff" d="M1022.85,-443.35C1013.51,-434.01 1003.48,-423.98 994.66,-415.16"/>
<polygon fill="#63b8ff" stroke="#63b8ff" points="1020.62,-446.07 1030.16,-450.66 1025.57,-441.12 1020.62,-446.07"/>
</a>
</g>
</g>
<!-- Node20&#45;&gt;Node15 -->
<g id="edge26_Node000020_Node000015" class="edge">
<title>Node20&#45;&gt;Node15</title>
<g id="a_edge26_Node000020_Node000015"><a xlink:title=" ">
<path fill="none" stroke="#63b8ff" d="M1069.08,-441.07C1075.88,-417.83 1080.41,-387.24 1068.5,-363 1061.39,-348.54 1049.03,-336.53 1036.16,-327.11"/>
<polygon fill="#63b8ff" stroke="#63b8ff" points="1065.67,-440.27 1065.96,-450.86 1072.34,-442.39 1065.67,-440.27"/>
</a>
</g>
</g>
<!-- Node21 -->
<g id="Node000021" class="node">
<title>Node21</title>
<g id="a_Node000021"><a xlink:href="turbine__utils_8cpp.html" target="_top" xlink:title=" ">
<polygon fill="white" stroke="#666666" points="1267,-415 1116,-415 1116,-363 1267,-363 1267,-415"/>
<text text-anchor="start" x="1124" y="-403" font-family="Helvetica,sans-Serif" font-size="10.00">/home/runner/work/kynema</text>
<text text-anchor="start" x="1124" y="-392" font-family="Helvetica,sans-Serif" font-size="10.00">&#45;sgf/kynema&#45;sgf/src/wind</text>
<text text-anchor="start" x="1124" y="-381" font-family="Helvetica,sans-Serif" font-size="10.00">_energy/actuator/turbine</text>
<text text-anchor="middle" x="1191.5" y="-370" font-family="Helvetica,sans-Serif" font-size="10.00">/turbine_utils.cpp</text>
</a>
</g>
</g>
<!-- Node20&#45;&gt;Node21 -->
<g id="edge28_Node000020_Node000021" class="edge">
<title>Node20&#45;&gt;Node21</title>
<g id="a_edge28_Node000020_Node000021"><a xlink:title=" ">
<path fill="none" stroke="#63b8ff" d="M1103.71,-445.51C1119.36,-435.62 1136.53,-424.76 1151.51,-415.29"/>
<polygon fill="#63b8ff" stroke="#63b8ff" points="1101.78,-442.59 1095.2,-450.89 1105.53,-448.51 1101.78,-442.59"/>
</a>
</g>
</g>
</g>
</svg>

<g id="navigator" transform="translate(0 0)" fill="#404254">
  <rect fill="#f2f5e9" fill-opacity="0.5" stroke="#606060" stroke-width=".5" x="0" y="0" width="60" height="60"/>
  <use id="zoomplus" xlink:href="#zoomPlus" x="17" y="9" onmousedown="handleZoom(evt,'in')"/>
  <use id="zoomminus" xlink:href="#zoomMin" x="42" y="9" onmousedown="handleZoom(evt,'out')"/>
  <use id="reset" xlink:href="#resetDef" x="30" y="36" onmousedown="handleReset()"/>
   <use id="arrowup" xlink:href="#arrowUp" x="0" y="0" onmousedown="handlePan(0,-1)"/>
  <use id="arrowright" xlink:href="#arrowRight" x="0" y="0" onmousedown="handlePan(1,0)"/>
  <use id="arrowdown" xlink:href="#arrowDown" x="0" y="0" onmousedown="handlePan(0,1)"/>
  <use id="arrowleft" xlink:href="#arrowLeft" x="0" y="0" onmousedown="handlePan(-1,0)"/>
</g>
<svg viewBox="0 0 15 15" width="100%" height="30px" preserveAspectRatio="xMaxYMin meet">
 <g id="arrow_out" transform="scale(0.3 0.3)">
  <a xlink:href="turbine__types_8_h__dep__incl_org.svg" target="_base">
   <rect id="button" ry="5" rx="5" y="6" x="6" height="38" width="38"
        fill="#f2f5e9" fill-opacity="0.5" stroke="#606060" stroke-width="1.0"/>
   <path id="arrow"
     d="M 11.500037,31.436501 C 11.940474,20.09759 22.043105,11.32322 32.158766,21.979434 L 37.068811,17.246167 C 37.068811,17.246167 37.088388,32 37.088388,32 L 22.160133,31.978069 C 22.160133,31.978069 26.997745,27.140456 26.997745,27.140456 C 18.528582,18.264221 13.291696,25.230495 11.500037,31.436501 z"
     style="fill:#404040;"/>
  </a>
 </g>
</svg>

<style type='text/css'>
<![CDATA[
[data-mouse-over-selected='false'] { opacity: 0.7; }
[data-mouse-over-selected='true']  { opacity: 1.0; }
]]>
</style>
<script type="application/ecmascript"><![CDATA[
document.addEventListener('DOMContentLoaded', (event) => {
  highlightEdges();
  highlightAdjacentNodes();
});
]]></script>
</svg>
